<svg width="360" height="360" viewBox="0 0 360 360" fill="none" xmlns="http://www.w3.org/2000/svg">
<path d="M95.4585 129.263L106.638 108.769L220.757 92L278.981 115.755L293.886 152.087L316.71 163.266L340 222.888L187.22 268.536L112.693 231.272H95.4585L20 190.282L50.7424 134.387L95.4585 129.263Z" fill="white" stroke="#A5A5A5" stroke-width="4" stroke-linecap="round" stroke-linejoin="round" stroke-dasharray="8 8"/>
<path d="M45.6182 181.898L60.9893 152.087L172.314 129.729L220.756 146.964L235.196 177.24L109.432 213.106L45.6182 181.898Z" fill="#FEDF15"/>
<path d="M45.6182 181.898L60.9893 152.087L172.314 129.729L220.756 146.964L235.196 177.24L109.432 213.106L45.6182 181.898Z" fill="#FEDF15"/>
<path d="M45.6182 181.898L60.9893 152.087L111.761 174.911L109.432 213.106L45.6182 181.898Z" fill="#F4A31E"/>
<path d="M109.433 173.98C109.433 173.98 136.914 166.527 156.944 160.937C176.973 155.348 180.233 141.374 172.315 129.729C188.152 135.785 220.757 146.964 220.757 146.964L235.197 177.24L109.433 213.106V193.543V173.98Z" fill="#FFC50C"/>
<path d="M108.967 211.243V175.219L64.4639 156.601C63.5147 156.203 63.0671 155.113 63.4641 154.163C63.8612 153.214 64.9521 152.766 65.9013 153.163L110.992 172.028L218.472 147.012C219.474 146.779 220.476 147.402 220.709 148.405C220.942 149.407 220.319 150.408 219.317 150.642L112.694 175.459V211.243C112.694 212.272 111.859 213.106 110.83 213.106C109.801 213.106 108.967 212.272 108.967 211.243Z" fill="#FFE431"/>
<path d="M171.891 126.496C172.401 126.429 172.92 126.484 173.407 126.657L221.85 143.891C222.663 144.181 223.328 144.781 223.7 145.56L238.14 175.836C238.553 176.702 238.563 177.706 238.169 178.581C237.774 179.456 237.014 180.113 236.091 180.376L110.327 216.242C109.552 216.463 108.723 216.389 108 216.036L44.1858 184.827C43.3983 184.442 42.7994 183.755 42.5237 182.923C42.248 182.091 42.3194 181.182 42.7211 180.403L58.0923 150.593L58.1815 150.431C58.6504 149.635 59.4369 149.073 60.3476 148.89L171.672 126.532L171.891 126.496ZM63.1687 154.975L50.0428 180.431L109.741 209.626L230.592 175.161L218.393 149.584L172.072 133.103L63.1687 154.975Z" fill="black"/>
<path d="M119.636 211.943L135.35 181.466L249.163 158.608L298.688 176.228L313.45 207.181L184.875 243.849L119.636 211.943Z" fill="#FEDF15"/>
<path d="M119.636 211.943L135.35 181.466L249.163 158.608L298.688 176.228L313.45 207.181L184.875 243.849L119.636 211.943Z" fill="#FEDF15"/>
<path d="M119.636 211.943L135.35 181.466L187.256 204.8L184.875 243.849L119.636 211.943Z" fill="#F4A31E"/>
<path d="M313.45 207.181L184.875 243.848V223.848V203.848L298.687 176.228L313.45 207.181Z" fill="#FFC50C"/>
<path d="M184.44 241.944V205.087L138.917 186.042C137.968 185.645 137.52 184.553 137.917 183.604C138.314 182.655 139.405 182.207 140.355 182.604L186.466 201.896L296.36 176.318C297.362 176.084 298.364 176.708 298.597 177.711C298.83 178.713 298.207 179.714 297.205 179.948L188.167 205.327V241.944C188.167 242.973 187.332 243.807 186.303 243.807C185.274 243.807 184.44 242.973 184.44 241.944Z" fill="#FFE431"/>
<path d="M248.739 155.375C249.249 155.308 249.769 155.363 250.256 155.536L299.781 173.156L299.932 173.214C300.676 173.521 301.283 174.094 301.631 174.825L316.394 205.777C316.807 206.643 316.817 207.648 316.422 208.522C316.027 209.397 315.268 210.054 314.345 210.317L185.77 246.985C184.996 247.205 184.167 247.132 183.444 246.778L118.203 214.872C117.416 214.487 116.817 213.801 116.541 212.969C116.266 212.137 116.337 211.228 116.739 210.449L132.453 179.972L132.542 179.809C133.011 179.014 133.798 178.452 134.709 178.269L248.521 155.412L248.739 155.375ZM137.53 184.354L124.06 210.476L185.184 240.37L308.847 205.102L296.325 178.848L248.92 161.983L137.53 184.354Z" fill="black"/>
<path d="M102.445 158.609L116.967 128.798L217.496 110.166L264.541 128.798L277.118 158.609L162.732 189.817L102.445 158.609Z" fill="#FEDF15"/>
<path d="M102.445 158.608L116.967 128.798L218.894 110.632L263.144 128.798L277.118 158.608L162.732 189.816L102.445 158.608Z" fill="#FEDF15"/>
<path d="M102.445 158.608L116.967 128.798L164.932 151.621L162.732 189.817L102.445 158.608Z" fill="#F4A31E"/>
<path d="M162.732 150.69C162.732 150.69 188.695 143.237 207.617 137.648C226.539 132.058 226.841 123.208 219.36 111.563C234.322 117.619 264.076 128.332 264.076 128.332L276.653 157.677L162.732 189.817V170.253V150.69Z" fill="#FFC50C"/>
<path d="M120.927 131.592L164.051 150.69M164.051 150.69L262.678 129.729M164.051 150.69V187.953" stroke="#FFE431" stroke-width="4" stroke-linecap="round" stroke-linejoin="round"/>
<path d="M217.363 107.855C217.869 107.801 218.382 107.866 218.86 108.046L264.625 125.28L264.776 125.341C265.517 125.664 266.115 126.252 266.449 126.993L280.09 157.269C280.482 158.139 280.473 159.136 280.067 159.998C279.66 160.861 278.895 161.503 277.975 161.754L163.589 192.962C162.8 193.178 161.959 193.088 161.232 192.712L100.946 161.504C99.374 160.69 98.7386 158.771 99.5136 157.18L114.035 127.369L114.126 127.196C114.604 126.349 115.437 125.756 116.402 125.586L217.147 107.886L217.363 107.855ZM119.169 131.721L106.77 157.175L163.099 186.335L272.576 156.467L261.059 130.905L217.397 114.463L119.169 131.721Z" fill="black"/>
</svg>
