<svg width="320" height="320" viewBox="0 0 320 320" fill="none" xmlns="http://www.w3.org/2000/svg">
<path d="M78.1004 110.099L88.9301 90.2445L199.483 74L255.888 97.0131L270.328 132.21L292.438 143.039L315 200.798L166.994 245.019L94.7962 208.92H78.1004L5 169.211L34.7817 115.063L78.1004 110.099Z" fill="white" stroke="#A5A5A5" stroke-width="4" stroke-linecap="round" stroke-linejoin="round" stroke-dasharray="8 8"/>
<path d="M29.8174 161.089L44.7082 132.21L152.554 110.55L199.483 127.246L213.471 156.576L91.6369 191.322L29.8174 161.089Z" fill="#D4D4D4"/>
<path d="M29.8174 161.089L44.7082 132.21L152.554 110.55L199.483 127.246L213.471 156.576L91.6369 191.322L29.8174 161.089Z" fill="#D4D4D4"/>
<path d="M29.8174 161.089L44.7082 132.21L93.8931 154.32L91.6369 191.322L29.8174 161.089Z" fill="#C2C2C2"/>
<path d="M91.6377 153.418C91.6377 153.418 118.261 146.198 137.664 140.783C157.067 135.368 160.226 121.831 152.555 110.55C167.897 116.416 199.483 127.246 199.483 127.246L213.472 156.576L91.6377 191.322V172.37V153.418Z" fill="#C5C5C5"/>
<path d="M91.1872 189.517V154.618L48.0746 136.582C47.1551 136.197 46.7215 135.14 47.106 134.221C47.4907 133.301 48.5476 132.868 49.4671 133.252L93.149 151.527L197.27 127.293C198.241 127.067 199.211 127.671 199.437 128.642C199.663 129.613 199.059 130.583 198.088 130.809L94.7971 154.851V189.517C94.7971 190.514 93.989 191.322 92.9921 191.322C91.9953 191.322 91.1872 190.514 91.1872 189.517Z" fill="#EFEFEF"/>
<path d="M152.144 107.418C152.639 107.353 153.142 107.406 153.614 107.574L200.542 124.27C201.33 124.55 201.975 125.131 202.335 125.886L216.323 155.216C216.723 156.055 216.734 157.028 216.351 157.875C215.969 158.723 215.232 159.359 214.338 159.614L92.5044 194.359C91.7542 194.573 90.9508 194.502 90.25 194.159L28.4305 163.927C27.6676 163.553 27.0874 162.888 26.8203 162.082C26.5532 161.276 26.6223 160.396 27.0116 159.641L41.9024 130.761L41.9888 130.605C42.4431 129.834 43.2049 129.29 44.0872 129.113L151.933 107.453L152.144 107.418ZM46.8202 135.007L34.1044 159.668L91.9369 187.951L209.012 154.562L197.194 129.784L152.32 113.819L46.8202 135.007Z" fill="black"/>
<path d="M101.522 190.195L116.746 160.67L227.002 138.527L274.979 155.596L289.28 185.582L164.723 221.103L101.522 190.195Z" fill="#D4D4D4"/>
<path d="M101.522 190.195L116.746 160.67L227.002 138.527L274.979 155.596L289.28 185.582L164.723 221.103L101.522 190.195Z" fill="#D4D4D4"/>
<path d="M101.522 190.195L116.746 160.67L167.03 183.275L164.723 221.103L101.522 190.195Z" fill="#C2C2C2"/>
<path d="M289.279 185.582L164.723 221.103V201.728V182.352L274.978 155.596L289.279 185.582Z" fill="#C5C5C5"/>
<path d="M164.301 219.258V183.553L120.201 165.103C119.281 164.719 118.847 163.661 119.232 162.741C119.617 161.822 120.674 161.388 121.593 161.773L166.264 180.462L272.723 155.683C273.694 155.457 274.664 156.061 274.89 157.032C275.116 158.003 274.513 158.973 273.542 159.199L167.911 183.786V219.258C167.911 220.255 167.103 221.063 166.106 221.063C165.109 221.063 164.301 220.255 164.301 219.258Z" fill="#EFEFEF"/>
<path d="M226.591 135.395C227.085 135.33 227.589 135.383 228.06 135.551L276.038 152.62L276.184 152.676C276.905 152.973 277.493 153.529 277.83 154.237L292.132 184.222C292.532 185.061 292.541 186.034 292.159 186.881C291.777 187.728 291.041 188.365 290.147 188.62L165.59 224.141C164.84 224.355 164.037 224.284 163.336 223.941L100.135 193.033C99.3719 192.659 98.7916 191.995 98.5244 191.189C98.2573 190.383 98.3264 189.502 98.7157 188.748L113.939 159.223L114.025 159.066C114.479 158.295 115.242 157.751 116.124 157.573L226.38 135.43L226.591 135.395ZM118.857 163.468L105.808 188.774L165.022 217.733L284.82 183.568L272.69 158.134L226.767 141.796L118.857 163.468Z" fill="black"/>
<path d="M84.8691 138.527L98.9368 109.648L196.325 91.5981L241.9 109.648L254.083 138.527L143.271 168.76L84.8691 138.527Z" fill="#D4D4D4"/>
<path d="M84.8691 138.526L98.9368 109.647L197.678 92.0488L240.546 109.647L254.083 138.526L143.271 168.759L84.8691 138.526Z" fill="#D4D4D4"/>
<path d="M84.8691 138.527L98.9368 109.647L145.403 131.758L143.271 168.76L84.8691 138.527Z" fill="#C2C2C2"/>
<path d="M143.272 130.856C143.272 130.856 168.424 123.636 186.754 118.221C205.085 112.806 205.377 104.232 198.13 92.9517C212.624 98.8177 241.449 109.196 241.449 109.196L253.633 137.624L143.272 168.76V149.808V130.856Z" fill="#C5C5C5"/>
<path d="M102.772 112.355L144.549 130.856M144.549 130.856L240.094 110.55M144.549 130.856V166.955" stroke="#EFEFEF" stroke-width="4" stroke-linecap="round" stroke-linejoin="round"/>
<path d="M196.195 89.3593C196.686 89.3066 197.183 89.3699 197.646 89.5444L241.98 106.24L242.126 106.299C242.845 106.611 243.424 107.181 243.747 107.899L256.962 137.229C257.342 138.071 257.333 139.038 256.939 139.873C256.545 140.709 255.805 141.331 254.913 141.574L144.102 171.807C143.337 172.016 142.522 171.929 141.818 171.565L83.4159 141.332C81.8934 140.544 81.2779 138.684 82.0286 137.143L96.0963 108.264L96.1845 108.096C96.6471 107.275 97.4549 106.7 98.3895 106.536L195.986 89.3893L196.195 89.3593ZM101.07 112.479L89.0581 137.138L143.627 165.387L249.683 136.452L238.526 111.689L196.228 95.7604L101.07 112.479Z" fill="black"/>
</svg>
