<svg width="360" height="360" viewBox="0 0 360 360" fill="none" xmlns="http://www.w3.org/2000/svg">
<path d="M74 181.956C73.9978 256.291 127.591 275.399 160.788 272.533C162.527 285.907 156.995 310.267 180.233 310.267C203.471 310.267 202.049 297.37 202.049 272.533C317.387 263.745 289.469 179.886 262.753 140.401C261.804 113.335 248.81 52.9944 181.656 49.1733C114.501 45.3522 98.0287 105.693 101.032 133.715C82.0622 133.715 74.0005 164.283 74 181.956Z" fill="white" stroke="#A5A5A5" stroke-width="4" stroke-linecap="round" stroke-linejoin="round" stroke-dasharray="8 8"/>
<path d="M96.1815 204.829C105.407 248.105 155.77 253.571 181.908 254.551C284.045 250.625 271.744 176.819 242.53 150.209C245.745 124.58 232.9 75.1471 181.908 71.7859C130.917 68.4247 114.073 117.578 116.31 146.008C105.547 148.669 88.8901 170.627 96.1815 204.829Z" fill="#D4D4D4"/>
<path d="M178.114 289.424V258.208C165.125 257.543 147.364 255.616 131.285 249.095C113.531 241.895 97.4333 228.902 92.4721 205.631C88.6625 187.761 91.0718 172.878 96.0263 161.998C100.172 152.894 106.317 146.208 112.364 143.388C111.864 128.772 115.852 110.028 126.001 94.8413C136.979 78.4121 155.174 66.1938 182.156 67.9724C209.057 69.7457 226.088 83.778 235.83 100.733C245.01 116.709 247.742 135.273 246.506 148.727C261.202 163.101 271.421 188.72 265.135 211.894C258.634 235.861 235.114 255.422 185.702 258.194V289.424C185.702 291.534 184.003 293.245 181.908 293.245C179.813 293.245 178.114 291.534 178.114 289.424ZM181.661 75.5987C157.652 74.0161 141.928 84.6936 132.296 99.1083C122.523 113.733 119.033 132.249 120.092 145.706C120.239 147.573 119.02 149.272 117.214 149.719C113.411 150.659 107.275 155.628 102.923 165.183C98.6817 174.498 96.4089 187.695 99.8907 204.027C104.155 224.031 117.851 235.409 134.119 242.006C148.905 248.002 165.485 249.887 178.114 250.555V232.739L144.164 202.368C142.598 200.967 142.456 198.552 143.847 196.974C145.239 195.396 147.637 195.254 149.204 196.655L178.114 222.517V170.15L150.891 146.083C149.316 144.69 149.159 142.277 150.541 140.691C151.924 139.105 154.321 138.948 155.896 140.34L178.114 159.982V117.162C178.114 115.052 179.813 113.341 181.908 113.341C184.003 113.341 185.702 115.052 185.702 117.162V193.011L215.848 165.584C217.403 164.17 219.802 164.293 221.206 165.859C222.611 167.425 222.489 169.841 220.934 171.255L185.702 203.309V250.54C233.064 247.793 252.538 229.336 257.815 209.88C263.408 189.262 253.746 165.578 239.985 153.043C239.065 152.205 238.61 150.969 238.766 149.73C240.278 137.671 237.995 119.758 229.263 104.561C220.639 89.5522 205.751 77.1867 181.661 75.5987Z" fill="black"/>
</svg>
