<svg width="320" height="320" viewBox="0 0 320 320" fill="none" xmlns="http://www.w3.org/2000/svg">
<path d="M54 161.956C53.9978 236.291 107.591 255.399 140.788 252.533C142.527 265.907 136.995 290.267 160.233 290.267C183.471 290.267 182.049 277.37 182.049 252.533C297.387 243.745 269.469 159.886 242.753 120.401C241.804 93.3353 228.81 32.9944 161.656 29.1733C94.5012 25.3522 78.0287 85.6933 81.0323 113.715C62.0622 113.715 54.0005 144.283 54 161.956Z" fill="white" stroke="#A5A5A5" stroke-width="4" stroke-linecap="round" stroke-linejoin="round" stroke-dasharray="8 8"/>
<path d="M76.1815 184.829C85.4073 228.105 135.77 233.571 161.908 234.551C264.045 230.625 251.744 156.819 222.53 130.209C225.745 104.58 212.9 55.1471 161.908 51.7859C110.917 48.4247 94.0732 97.5778 96.3097 126.008C85.5467 128.669 68.8901 150.627 76.1815 184.829Z" fill="#C5C5C5"/>
<path d="M158.114 269.424V238.208C145.125 237.543 127.364 235.616 111.285 229.095C93.5309 221.895 77.4333 208.902 72.4721 185.631C68.6625 167.761 71.0718 152.878 76.0263 141.998C80.1718 132.894 86.3165 126.208 92.3639 123.388C91.8637 108.772 95.8525 90.0279 106.001 74.8413C116.979 58.4121 135.174 46.1938 162.156 47.9724C189.057 49.7457 206.088 63.778 215.83 80.7333C225.01 96.7089 227.742 115.273 226.506 128.727C241.202 143.101 251.421 168.72 245.135 191.894C238.634 215.861 215.114 235.422 165.702 238.194V269.424C165.702 271.534 164.003 273.245 161.908 273.245C159.813 273.245 158.114 271.534 158.114 269.424ZM161.661 55.5987C137.652 54.0161 121.928 64.6936 112.296 79.1083C102.523 93.733 99.0333 112.249 100.092 125.706C100.239 127.573 99.02 129.272 97.2139 129.719C93.4109 130.659 87.2746 135.628 82.9233 145.183C78.6817 154.498 76.4089 167.695 79.8907 184.027C84.1554 204.031 97.8513 215.409 114.119 222.006C128.905 228.002 145.485 229.887 158.114 230.555V212.739L124.164 182.368C122.598 180.967 122.456 178.552 123.847 176.974C125.239 175.396 127.637 175.254 129.204 176.655L158.114 202.517V150.15L130.891 126.083C129.316 124.69 129.159 122.277 130.541 120.691C131.924 119.105 134.321 118.948 135.896 120.34L158.114 139.982V97.1623C158.114 95.0521 159.813 93.3414 161.908 93.3412C164.003 93.3412 165.702 95.052 165.702 97.1623V173.011L195.848 145.584C197.403 144.17 199.802 144.293 201.206 145.859C202.611 147.425 202.489 149.841 200.934 151.255L165.702 183.309V230.54C213.064 227.793 232.538 209.336 237.815 189.88C243.408 169.262 233.746 145.578 219.985 133.043C219.065 132.205 218.61 130.969 218.766 129.73C220.278 117.671 217.995 99.7581 209.263 84.561C200.639 69.5522 185.751 57.1867 161.661 55.5987Z" fill="black"/>
</svg>
