<svg width="360" height="360" viewBox="0 0 360 360" fill="none" xmlns="http://www.w3.org/2000/svg">
<path d="M102.318 209.833C107.04 153.597 150.431 95.3584 180.123 73C208.563 91.9599 255.786 145.441 257.933 209.833C260.079 274.225 210.351 287.282 180.123 287.64C146.496 283.884 97.5959 266.069 102.318 209.833Z" fill="white" stroke="#A5A5A5" stroke-width="4" stroke-linecap="round" stroke-linejoin="round" stroke-dasharray="8 8"/>
<path d="M123.883 210.038C121.542 182.995 160.626 128.875 180.461 105.196C201.596 129.692 242.99 184.954 239.478 210.038C235.088 241.393 212.652 263.439 180.461 262.949C148.27 262.459 126.809 243.842 123.883 210.038Z" fill="#D4D4D4"/>
<path d="M126.006 205.475C123.948 181.181 163.948 127.541 181.386 106.269C199.967 128.275 228.594 176.785 225.507 199.319C221.648 227.486 201.923 247.291 173.621 246.851C145.32 246.411 128.579 235.843 126.006 205.475Z" fill="#D4D4D4"/>
<path d="M203.199 165.295C208.029 174.417 212.321 192.662 210.712 200.711" stroke="#EFEFEF" stroke-width="8" stroke-linecap="round" stroke-linejoin="round"/>
<path d="M178.321 101.977C179.394 101.969 180.417 102.445 181.118 103.279C191.497 115.631 206.841 135.724 219.187 155.937C225.358 166.04 230.839 176.267 234.568 185.634C238.248 194.875 240.443 203.803 239.448 211.095C234.95 244.086 211.717 267.763 178.293 267.241C161.922 266.985 147.932 261.981 137.637 252.292C127.332 242.594 121.088 228.541 119.601 210.898C118.957 203.265 121.157 194.158 124.774 184.737C128.424 175.227 133.682 164.991 139.564 154.955C151.329 134.882 165.794 115.273 175.544 103.321L175.676 103.166C176.36 102.416 177.315 101.984 178.321 101.977ZM178.391 111.582C168.983 123.439 156.294 140.978 145.832 158.829C140.068 168.663 135.029 178.508 131.581 187.491C128.098 196.563 126.394 204.362 126.891 210.25C128.253 226.411 133.885 238.57 142.581 246.754C151.286 254.946 163.423 259.496 178.404 259.73C207.683 260.187 228.15 239.772 232.202 210.053C232.918 204.803 231.356 197.418 227.796 188.477C224.286 179.662 219.042 169.839 212.99 159.929C201.958 141.868 188.427 123.83 178.391 111.582Z" fill="black"/>
<path d="M204.809 213.016C207.792 213.016 210.212 215.435 210.212 218.418C210.212 221.402 207.792 223.822 204.809 223.822C201.825 223.822 199.406 221.402 199.406 218.418C199.406 215.435 201.825 213.016 204.809 213.016Z" fill="#EFEFEF" stroke="#D4D4D4" stroke-linecap="round" stroke-linejoin="round"/>
</svg>
