<svg width="320" height="320" viewBox="0 0 320 320" fill="none" xmlns="http://www.w3.org/2000/svg">
<path d="M82.318 189.833C87.0401 133.597 130.431 75.3584 160.123 53C188.563 71.9599 235.786 125.441 237.933 189.833C240.079 254.225 190.351 267.282 160.123 267.64C126.496 263.884 77.5959 246.069 82.318 189.833Z" fill="white" stroke="#A5A5A5" stroke-width="4" stroke-linecap="round" stroke-linejoin="round" stroke-dasharray="8 8"/>
<path d="M103.883 190.038C101.542 162.995 140.626 108.875 160.461 85.1963C181.596 109.692 222.99 164.954 219.478 190.038C215.088 221.393 192.652 243.439 160.461 242.949C128.27 242.459 106.809 223.842 103.883 190.038Z" fill="#CACACA"/>
<path d="M106.006 185.475C103.948 161.181 143.948 107.541 161.386 86.269C179.967 108.275 208.594 156.785 205.507 179.319C201.648 207.486 181.923 227.291 153.621 226.851C125.32 226.411 108.579 215.843 106.006 185.475Z" fill="#D4D4D4"/>
<path d="M183.199 145.295C188.029 154.417 192.321 172.662 190.712 180.711" stroke="#EFEFEF" stroke-width="8" stroke-linecap="round" stroke-linejoin="round"/>
<path d="M158.321 81.9767C159.394 81.9686 160.417 82.4452 161.118 83.2794C171.497 95.6309 186.841 115.724 199.187 135.937C205.358 146.04 210.839 156.267 214.568 165.634C218.248 174.875 220.443 183.803 219.448 191.095C214.95 224.086 191.717 247.763 158.293 247.241C141.922 246.985 127.932 241.981 117.637 232.292C107.332 222.594 101.088 208.541 99.6006 190.898C98.9572 183.265 101.157 174.158 104.774 164.737C108.424 155.227 113.682 144.991 119.564 134.955C131.329 114.882 145.794 95.273 155.544 83.3213L155.676 83.1662C156.36 82.4164 157.315 81.9842 158.321 81.9767ZM158.391 91.582C148.983 103.439 136.294 120.978 125.832 138.829C120.068 148.663 115.029 158.508 111.581 167.491C108.098 176.563 106.394 184.362 106.891 190.25C108.253 206.411 113.885 218.57 122.581 226.754C131.286 234.946 143.423 239.496 158.404 239.73C187.683 240.187 208.15 219.772 212.202 190.053C212.918 184.803 211.356 177.418 207.796 168.477C204.286 159.662 199.042 149.839 192.99 139.929C181.958 121.868 168.427 103.83 158.391 91.582Z" fill="black"/>
<path d="M184.809 193.016C187.792 193.016 190.212 195.435 190.212 198.418C190.212 201.402 187.792 203.822 184.809 203.822C181.825 203.822 179.406 201.402 179.406 198.418C179.406 195.435 181.825 193.016 184.809 193.016Z" fill="#EFEFEF" stroke="#EFEFEF" stroke-linecap="round" stroke-linejoin="round"/>
</svg>
