<svg width="360" height="360" viewBox="0 0 360 360" fill="none" xmlns="http://www.w3.org/2000/svg">
<path d="M163.013 119.426L183.144 130.783C189.682 118.738 206.269 90.3129 220.31 72.9687C237.86 51.2886 245.603 46.6428 271.413 57.9991C297.223 69.3554 293.609 96.7137 290.512 104.973C288.034 111.58 251.97 148.849 235.796 166.916C241.99 170.013 249.939 182.815 261.089 188.596C252.417 203.876 235.796 228.171 222.374 241.248C224.095 241.248 227.949 243.52 231.666 254.669C269.245 246.823 274.338 287.213 276.059 307C228.569 307 132.557 306.484 67 301.838C73.6073 258.891 99.5205 242.453 112.942 242.281C111.393 232.473 109.225 209.141 112.942 194.274C116.658 179.408 147.871 138.181 163.013 119.426Z" fill="white" stroke="#A5A5A5" stroke-width="4" stroke-linecap="round" stroke-linejoin="round" stroke-dasharray="8 8"/>
<path d="M142.714 258.132C191.665 265.181 223.043 214.57 236.312 189.264L207.96 170.285L196.62 162.693L167.459 143.171C150.066 167.031 109.363 211.497 142.714 258.132Z" fill="#E9E9E9"/>
<path d="M164.538 141.043C165.681 139.476 167.857 139.09 169.468 140.169L238.322 186.261C239.856 187.288 240.369 189.307 239.511 190.942C232.82 203.704 221.44 223.099 205.39 238.443C189.311 253.816 168.171 265.449 142.199 261.708C141.224 261.568 140.348 261.036 139.775 260.234C122.191 235.646 124.197 211.487 132.715 190.739C141.113 170.282 156.065 152.667 164.538 141.043ZM168.312 148.09C159.401 160.003 146.773 175.522 139.4 193.483C131.707 212.223 129.955 233.158 144.762 254.754C167.054 257.406 185.571 247.394 200.397 233.22C214.472 219.764 224.898 202.841 231.586 190.449L168.312 148.09Z" fill="black"/>
<path d="M267.315 101.53C264.307 106.259 240.278 135.743 228.64 149.894L223.805 146.745C212.525 163.328 192.114 196.646 185.13 192.347C178.147 188.048 197.485 162.254 212.525 139.397L205.542 134.848L238.308 81.1097C242.069 74.6606 252.274 67.6751 263.018 75.1988C275.909 84.2272 271.075 95.6191 267.315 101.53Z" fill="#B0B0B0"/>
<path d="M246.793 69.5251C252.22 67.5204 258.707 67.7685 265.091 72.2391C272.432 77.3804 275.11 83.5725 275.024 89.5851C274.943 95.2954 272.376 100.308 270.365 103.47C268.721 106.054 261.777 114.826 254.029 124.445C246.181 134.189 237.255 145.108 231.431 152.19C230.262 153.611 228.211 153.926 226.669 152.922L224.815 151.715C219.435 159.761 212.352 170.724 205.75 179.542C202.028 184.512 198.3 189.025 194.958 192.048C193.305 193.543 191.541 194.863 189.752 195.626C187.952 196.393 185.512 196.825 183.237 195.424C181.175 194.155 180.279 192.117 180.089 190.116C179.913 188.256 180.31 186.271 180.904 184.387C182.102 180.586 184.52 175.944 187.462 170.986C192.833 161.936 200.565 150.853 207.502 140.436L203.571 137.875C201.934 136.809 201.441 134.635 202.458 132.967L235.224 79.2289C237.482 75.3885 241.579 71.4512 246.793 69.5251ZM213.558 144.381C206.479 155.016 198.967 165.762 193.676 174.675C190.777 179.561 188.73 183.602 187.797 186.561C187.487 187.544 187.344 188.276 187.295 188.793C187.984 188.426 188.925 187.759 190.11 186.687C192.912 184.153 196.3 180.105 199.965 175.211C206.446 166.554 213.289 155.947 218.758 147.769L213.558 144.381ZM260.946 78.1582C256.587 75.1054 252.599 75.0848 249.297 76.3042C245.811 77.592 242.94 80.3407 241.43 82.93C241.419 82.9504 241.406 82.9713 241.394 82.9915L210.454 133.734L227.901 145.099C233.634 138.114 241.444 128.548 248.4 119.912C256.328 110.07 262.903 101.736 264.267 99.5914C266.016 96.8422 267.746 93.2027 267.799 89.4822C267.847 86.064 266.497 82.0454 260.946 78.1582Z" fill="black"/>
<path d="M267.316 101.53C264.308 106.259 240.279 135.743 228.641 149.894L223.806 146.745L212.526 139.397L205.543 134.848L238.309 81.1097C242.069 74.6606 252.275 67.6751 263.019 75.1988C275.91 84.2272 271.076 95.6191 267.316 101.53Z" fill="#FBD4A7"/>
<path d="M246.793 69.5251C252.22 67.5204 258.706 67.7685 265.09 72.2391C272.431 77.3804 275.11 83.5725 275.024 89.5851C274.943 95.2954 272.375 100.308 270.364 103.47C268.72 106.054 261.776 114.826 254.028 124.445C246.18 134.189 237.255 145.108 231.431 152.19C230.261 153.611 228.21 153.926 226.668 152.922L203.57 137.875C201.933 136.809 201.44 134.635 202.457 132.967L235.224 79.2289C237.482 75.3885 241.578 71.4512 246.793 69.5251ZM260.946 78.1582C256.587 75.1055 252.598 75.0848 249.297 76.3042C245.81 77.592 242.94 80.3407 241.43 82.93C241.418 82.9504 241.406 82.9713 241.394 82.9915L210.453 133.734L227.9 145.099C233.633 138.115 241.444 128.548 248.4 119.913C256.328 110.07 262.902 101.736 264.267 99.5914C266.015 96.8422 267.745 93.2028 267.798 89.4822C267.847 86.064 266.496 82.0454 260.946 78.1582Z" fill="black"/>
<path d="M254.895 288.738L94.875 285.823C98.2088 273.579 109.163 256.67 122.974 261.335C152.311 223.086 173.298 245.398 182.029 261.335C190.284 254.532 209.556 247.342 220.605 272.996C247.656 262.734 254.736 279.215 254.895 288.738Z" fill="#CDA77C"/>
<path d="M121.592 257.24C136.081 239.162 149.508 234.276 161.198 237.535C171.093 240.293 178.436 248.626 183.139 256.101C187.708 253.247 193.912 250.879 200.547 251.392C208.746 252.025 216.672 256.969 222.495 268.505C235.012 264.456 244.013 265.891 250.054 270.597C256.383 275.526 258.417 283.263 258.508 288.678C258.524 289.658 258.141 290.602 257.447 291.295C256.753 291.987 255.809 292.368 254.829 292.35L94.8084 289.436C93.6942 289.415 92.6519 288.882 91.9834 287.99C91.315 287.098 91.0949 285.949 91.3876 284.874C93.1772 278.301 96.998 270.448 102.366 264.758C107.22 259.613 113.878 255.761 121.592 257.24ZM159.257 244.496C151.335 242.287 140.119 244.916 125.84 263.533C124.899 264.76 123.282 265.253 121.817 264.758C116.796 263.063 112.007 265.07 107.623 269.717C104.343 273.194 101.661 277.82 99.8695 282.3L250.824 285.05C250.1 281.842 248.474 278.526 245.614 276.298C241.811 273.336 234.755 271.493 221.886 276.375C220.078 277.06 218.05 276.201 217.286 274.425C212.151 262.504 205.561 259.028 199.99 258.597C194.01 258.135 188.024 261.076 184.326 264.123C183.495 264.808 182.402 265.087 181.345 264.883C180.287 264.68 179.377 264.015 178.859 263.07C174.6 255.295 167.787 246.873 159.257 244.496Z" fill="black"/>
</svg>
