<svg width="320" height="320" viewBox="0 0 320 320" fill="none" xmlns="http://www.w3.org/2000/svg">
<path d="M143.013 99.4262L163.144 110.783C169.682 98.738 186.269 70.3129 200.31 52.9687C217.86 31.2886 225.603 26.6428 251.413 37.9991C277.223 49.3554 273.609 76.7137 270.512 84.9728C268.034 91.5801 231.97 128.849 215.796 146.916C221.99 150.013 229.939 162.815 241.089 168.596C232.417 183.876 215.796 208.171 202.374 221.248C204.095 221.248 207.949 223.52 211.666 234.669C249.245 226.823 254.338 267.213 256.059 287C208.569 287 112.557 286.484 47 281.838C53.6073 238.891 79.5205 222.453 92.9418 222.281C91.3932 212.473 89.2252 189.141 92.9418 174.274C96.6584 159.408 127.871 118.181 143.013 99.4262Z" fill="white" stroke="#A5A5A5" stroke-width="4" stroke-linecap="round" stroke-linejoin="round" stroke-dasharray="8 8"/>
<path d="M122.714 238.132C171.665 245.181 203.043 194.57 216.312 169.264L187.96 150.285L176.62 142.693L147.459 123.171C130.066 147.031 89.3632 191.497 122.714 238.132Z" fill="#E9E9E9"/>
<path d="M144.538 121.043C145.681 119.476 147.857 119.09 149.468 120.169L218.322 166.261C219.856 167.288 220.369 169.307 219.511 170.942C212.82 183.704 201.44 203.099 185.39 218.443C169.311 233.816 148.171 245.449 122.199 241.708C121.224 241.568 120.348 241.036 119.775 240.234C102.191 215.646 104.197 191.487 112.715 170.739C121.113 150.282 136.065 132.667 144.538 121.043ZM148.312 128.09C139.401 140.003 126.773 155.522 119.4 173.483C111.707 192.223 109.955 213.158 124.762 234.754C147.054 237.406 165.571 227.394 180.397 213.22C194.472 199.764 204.898 182.841 211.586 170.449L148.312 128.09Z" fill="black"/>
<path d="M247.315 81.5303C244.307 86.2592 220.278 115.743 208.64 129.894L203.805 126.745C192.525 143.328 172.114 176.646 165.13 172.347C158.147 168.048 177.485 142.254 192.525 119.397L185.542 114.848L218.308 61.1097C222.069 54.6606 232.274 47.6751 243.018 55.1988C255.909 64.2272 251.075 75.6191 247.315 81.5303Z" fill="#B0B0B0"/>
<path d="M226.793 49.5251C232.22 47.5204 238.707 47.7685 245.091 52.2391C252.432 57.3804 255.11 63.5725 255.024 69.5851C254.943 75.2954 252.376 80.3079 250.365 83.4699C248.721 86.0542 241.777 94.8263 234.029 104.445C226.181 114.189 217.255 125.108 211.431 132.19C210.262 133.611 208.211 133.926 206.669 132.922L204.815 131.715C199.435 139.761 192.352 150.724 185.75 159.542C182.028 164.512 178.3 169.025 174.958 172.048C173.305 173.543 171.541 174.863 169.752 175.626C167.952 176.393 165.512 176.825 163.237 175.424C161.175 174.155 160.279 172.117 160.089 170.116C159.913 168.256 160.31 166.271 160.904 164.387C162.102 160.586 164.52 155.944 167.462 150.986C172.833 141.936 180.565 130.853 187.502 120.436L183.571 117.875C181.934 116.809 181.441 114.635 182.458 112.967L215.224 59.2289C217.482 55.3885 221.579 51.4512 226.793 49.5251ZM193.558 124.381C186.479 135.016 178.967 145.762 173.676 154.675C170.777 159.561 168.73 163.602 167.797 166.561C167.487 167.544 167.344 168.276 167.295 168.793C167.984 168.426 168.925 167.759 170.11 166.687C172.912 164.153 176.3 160.105 179.965 155.211C186.446 146.554 193.289 135.947 198.758 127.769L193.558 124.381ZM240.946 58.1582C236.587 55.1054 232.599 55.0848 229.297 56.3042C225.811 57.592 222.94 60.3407 221.43 62.93C221.419 62.9504 221.406 62.9713 221.394 62.9915L190.454 113.734L207.901 125.099C213.634 118.114 221.444 108.548 228.4 99.9125C236.328 90.0699 242.903 81.7362 244.267 79.5914C246.016 76.8422 247.746 73.2027 247.799 69.4822C247.847 66.064 246.497 62.0454 240.946 58.1582Z" fill="black"/>
<path d="M247.316 81.5303C244.308 86.2592 220.279 115.743 208.641 129.894L203.806 126.745L192.526 119.397L185.543 114.848L218.309 61.1097C222.069 54.6606 232.275 47.6751 243.019 55.1988C255.91 64.2272 251.076 75.6191 247.316 81.5303Z" fill="#C2C2C2"/>
<path d="M226.793 49.5251C232.22 47.5204 238.706 47.7685 245.09 52.2391C252.431 57.3804 255.11 63.5725 255.024 69.5851C254.943 75.2954 252.375 80.3079 250.364 83.4699C248.72 86.0542 241.776 94.8263 234.028 104.445C226.18 114.189 217.255 125.108 211.431 132.19C210.261 133.611 208.21 133.926 206.668 132.922L183.57 117.875C181.933 116.809 181.44 114.635 182.457 112.967L215.224 59.2289C217.482 55.3885 221.578 51.4512 226.793 49.5251ZM240.946 58.1582C236.587 55.1055 232.598 55.0848 229.297 56.3042C225.81 57.592 222.94 60.3407 221.43 62.93C221.418 62.9504 221.406 62.9713 221.394 62.9915L190.453 113.734L207.9 125.099C213.633 118.115 221.444 108.548 228.4 99.9125C236.328 90.0699 242.902 81.7362 244.267 79.5914C246.015 76.8422 247.745 73.2028 247.798 69.4822C247.847 66.064 246.496 62.0454 240.946 58.1582Z" fill="black"/>
<path d="M234.895 268.738L74.875 265.823C78.2088 253.579 89.1625 236.67 102.974 241.335C132.311 203.086 153.298 225.398 162.029 241.335C170.284 234.532 189.556 227.342 200.605 252.996C227.656 242.734 234.736 259.215 234.895 268.738Z" fill="#B1B1B1"/>
<path d="M101.592 237.24C116.081 219.162 129.508 214.276 141.198 217.535C151.093 220.293 158.436 228.626 163.139 236.101C167.708 233.247 173.912 230.879 180.547 231.392C188.746 232.025 196.672 236.969 202.495 248.505C215.012 244.456 224.013 245.891 230.054 250.597C236.383 255.526 238.417 263.263 238.508 268.678C238.524 269.658 238.141 270.602 237.447 271.295C236.753 271.987 235.809 272.368 234.829 272.35L74.8084 269.436C73.6942 269.415 72.6519 268.882 71.9834 267.99C71.315 267.098 71.0949 265.949 71.3876 264.874C73.1772 258.301 76.998 250.448 82.3658 244.758C87.22 239.613 93.8782 235.761 101.592 237.24ZM139.257 224.496C131.335 222.287 120.119 224.916 105.84 243.533C104.899 244.76 103.282 245.253 101.817 244.758C96.7962 243.063 92.0069 245.07 87.6225 249.717C84.3432 253.194 81.6615 257.82 79.8695 262.3L230.824 265.05C230.1 261.842 228.474 258.526 225.614 256.298C221.811 253.336 214.755 251.493 201.886 256.375C200.078 257.06 198.05 256.201 197.286 254.425C192.151 242.504 185.561 239.028 179.99 238.597C174.01 238.135 168.024 241.076 164.326 244.123C163.495 244.808 162.402 245.087 161.345 244.883C160.287 244.68 159.377 244.015 158.859 243.07C154.6 235.295 147.787 226.873 139.257 224.496Z" fill="black"/>
</svg>
