<svg width="320" height="320" viewBox="0 0 320 320" fill="none" xmlns="http://www.w3.org/2000/svg">
<path d="M153.008 81.5001C157.408 81.1001 171.341 49.5 174.008 39C199.508 38.9999 205.008 80.3334 210.008 103.5C209.796 102.513 211.008 111 221.008 103.5C231.598 95.5573 305.015 281.5 159.008 281.5C55.507 281.5 63.5071 179 86.5072 120C92.0075 124 84.8078 124 102.008 130C105.608 113.6 125.841 76.5001 135.008 66.5001C135.841 65.1668 140.608 66.3001 153.008 81.5001Z" fill="white" stroke="#A5A5A5" stroke-width="4" stroke-linecap="round" stroke-linejoin="round" stroke-dasharray="8 8"/>
<path d="M101.761 150.236C70.0177 226.563 122.985 262.5 157.435 262.5C250.02 262.5 233.102 165.502 209.11 126.066L202.343 138.151C194.346 134.017 195.576 96.4898 180.504 75.5C183.211 90.2565 162.561 111.119 151.898 119.706C149.13 118.54 142.794 113.091 139.595 100.624C130.367 100.624 118.986 150.236 114.372 155.007C109.758 159.777 106.067 162.003 101.761 150.236Z" fill="#EF4444"/>
<path d="M179.134 72.2793C180.642 71.6385 182.392 72.1287 183.347 73.459C191.379 84.6448 194.945 99.9992 197.505 112.441C198.818 118.824 199.845 124.353 201.046 128.622C201.364 129.756 201.682 130.747 202 131.6L206.056 124.356L206.176 124.157C206.807 123.188 207.88 122.589 209.047 122.567C210.291 122.545 211.454 123.184 212.1 124.247C224.424 144.503 234.941 179.43 230.451 209.587C228.192 224.758 222.092 238.962 210.252 249.358C198.398 259.766 181.197 266 157.435 266C139.168 266 116.234 256.541 101.953 237.06C87.51 217.358 82.2847 187.952 98.529 148.893L98.6413 148.648C99.2469 147.458 100.486 146.708 101.837 146.737C103.278 146.769 104.552 147.68 105.048 149.033C106.075 151.84 106.974 153.546 107.704 154.523C108.099 155.053 108.366 155.263 108.489 155.341C108.593 155.309 108.803 155.224 109.143 155.001C109.858 154.533 110.727 153.74 111.856 152.573C111.81 152.621 111.944 152.483 112.237 151.941C112.503 151.45 112.818 150.783 113.18 149.931C113.905 148.227 114.734 145.986 115.658 143.342C116.579 140.706 117.571 137.738 118.629 134.589C119.683 131.449 120.799 128.141 121.952 124.864C124.245 118.35 126.743 111.803 129.299 106.847C130.569 104.383 131.943 102.133 133.424 100.451C134.798 98.8918 136.875 97.1241 139.594 97.1241L139.891 97.1368C141.363 97.2613 142.612 98.3031 142.984 99.7539C145.296 108.764 149.238 113.428 151.616 115.393C156.632 111.127 163.178 104.735 168.424 97.8038C171.395 93.8791 173.872 89.8836 175.441 86.0879C177.021 82.267 177.571 78.9139 177.061 76.1319C176.766 74.5209 177.627 72.9203 179.134 72.2793ZM182.74 86.5538C182.487 87.2954 182.211 88.0327 181.91 88.7618C180.035 93.2963 177.192 97.8206 174.006 102.029C167.636 110.443 159.59 118.005 154.093 122.432C153.091 123.239 151.726 123.431 150.54 122.932C147.016 121.448 141.349 116.318 137.703 106.341C137.028 107.312 136.296 108.551 135.52 110.055C133.203 114.55 130.837 120.703 128.554 127.189C127.42 130.412 126.32 133.677 125.265 136.817C124.214 139.948 123.204 142.965 122.265 145.651C121.33 148.329 120.44 150.747 119.623 152.67C119.214 153.631 118.803 154.519 118.391 155.278C118.007 155.988 117.511 156.796 116.887 157.44C115.71 158.658 114.387 159.934 112.978 160.856C111.567 161.781 109.645 162.63 107.411 162.281C105.202 161.936 103.502 160.551 102.19 158.834C90.2394 192.34 95.7217 216.72 107.598 232.921C120.477 250.49 141.253 259 157.435 259C179.966 259 195.369 253.109 205.633 244.098C215.91 235.074 221.441 222.564 223.527 208.556C227.36 182.812 219.411 152.829 209.121 133.209L205.397 139.861C204.475 141.508 202.413 142.127 200.736 141.261C198.795 140.257 197.516 138.467 196.622 136.749C195.699 134.975 194.955 132.823 194.306 130.517C193.017 125.931 191.911 119.991 190.648 113.852C188.776 104.753 186.506 94.9765 182.74 86.5538Z" fill="black"/>
<path d="M132.748 184.58C112.712 237.169 141.871 261.5 161.335 261.5C223.895 257.323 196.062 187.147 166.967 153.5C166.058 166.519 162.057 194.152 153.329 200.533C142.418 208.509 137.955 195.857 132.748 184.58Z" fill="#FBBF24"/>
<path d="M165.861 150.18C167.206 149.732 168.687 150.139 169.614 151.211C184.45 168.369 199.108 194.948 201.995 218.119C203.444 229.745 201.982 240.998 195.506 249.687C188.972 258.453 177.865 263.904 161.568 264.992C161.491 264.997 161.413 265 161.335 265C150.264 265 136.988 258.17 129.188 244.495C121.321 230.7 119.192 210.329 129.476 183.334C129.978 182.018 131.22 181.13 132.628 181.082C134.035 181.034 135.334 181.835 135.925 183.113C137.279 186.046 138.466 188.801 139.758 191.389C141.043 193.963 142.27 196.028 143.533 197.471C144.783 198.898 145.799 199.414 146.653 199.516C147.502 199.616 148.953 199.396 151.264 197.707C152.684 196.668 154.265 194.444 155.808 190.919C157.309 187.493 158.598 183.257 159.674 178.701C161.825 169.597 163.03 159.628 163.475 153.256L163.504 152.993C163.694 151.693 164.601 150.6 165.861 150.18ZM169.617 162.352C168.939 167.896 167.915 174.263 166.486 180.311C165.358 185.088 163.954 189.77 162.221 193.727C160.531 197.584 158.338 201.206 155.394 203.358C152.249 205.658 149.05 206.848 145.831 206.467C142.617 206.087 140.147 204.23 138.266 202.082C136.399 199.949 134.852 197.235 133.494 194.515C133.407 194.341 133.322 194.164 133.235 193.987C126.851 215.314 129.421 230.774 135.268 241.027C141.875 252.611 152.84 257.949 161.219 257.998C176.131 256.98 184.972 252.104 189.892 245.503C194.883 238.807 196.375 229.63 195.049 218.984C192.718 200.279 181.852 178.541 169.617 162.352Z" fill="black"/>
</svg>
