<svg width="360" height="360" viewBox="0 0 360 360" fill="none" xmlns="http://www.w3.org/2000/svg">
<path d="M173.008 101.5C177.408 101.1 191.341 69.5 194.008 59C219.508 58.9999 225.008 100.333 230.008 123.5C229.796 122.513 231.008 131 241.008 123.5C251.598 115.557 325.015 301.5 179.008 301.5C75.507 301.5 83.5071 199 106.507 140C112.007 144 104.808 144 122.008 150C125.608 133.6 145.841 96.5001 155.008 86.5001C155.841 85.1668 160.608 86.3001 173.008 101.5Z" fill="white" stroke="#A5A5A5" stroke-width="4" stroke-linecap="round" stroke-linejoin="round" stroke-dasharray="8 8"/>
<path d="M121.761 170.236C90.0177 246.563 142.985 282.5 177.435 282.5C270.02 282.5 253.102 185.502 229.11 146.066L222.343 158.151C214.346 154.017 215.576 116.49 200.504 95.5C203.211 110.256 182.561 131.119 171.898 139.706C169.13 138.54 162.794 133.091 159.595 120.624C150.367 120.624 138.986 170.236 134.372 175.007C129.758 179.777 126.067 182.003 121.761 170.236Z" fill="#EF4444"/>
<path d="M199.134 92.2793C200.642 91.6385 202.392 92.1287 203.347 93.459C211.379 104.645 214.945 119.999 217.505 132.441C218.818 138.824 219.845 144.353 221.046 148.622C221.364 149.756 221.682 150.747 222 151.6L226.056 144.356L226.176 144.157C226.807 143.188 227.88 142.589 229.047 142.567C230.291 142.545 231.454 143.184 232.1 144.247C244.424 164.503 254.941 199.43 250.451 229.587C248.192 244.758 242.092 258.962 230.252 269.358C218.398 279.766 201.197 286 177.435 286C159.168 286 136.234 276.541 121.953 257.06C107.51 237.358 102.285 207.952 118.529 168.893L118.641 168.648C119.247 167.458 120.486 166.708 121.837 166.737C123.278 166.769 124.552 167.68 125.048 169.033C126.075 171.84 126.974 173.546 127.704 174.523C128.099 175.053 128.366 175.263 128.489 175.341C128.593 175.309 128.803 175.224 129.143 175.001C129.858 174.533 130.727 173.74 131.856 172.573C131.81 172.621 131.944 172.483 132.237 171.941C132.503 171.45 132.818 170.783 133.18 169.931C133.905 168.227 134.734 165.986 135.658 163.342C136.579 160.706 137.571 157.738 138.629 154.589C139.683 151.449 140.799 148.141 141.952 144.864C144.245 138.35 146.743 131.803 149.299 126.847C150.569 124.383 151.943 122.133 153.424 120.451C154.798 118.892 156.875 117.124 159.594 117.124L159.891 117.137C161.363 117.261 162.612 118.303 162.984 119.754C165.296 128.764 169.238 133.428 171.616 135.393C176.632 131.127 183.178 124.735 188.424 117.804C191.395 113.879 193.872 109.884 195.441 106.088C197.021 102.267 197.571 98.9139 197.061 96.1319C196.766 94.5209 197.627 92.9203 199.134 92.2793ZM202.74 106.554C202.487 107.295 202.211 108.033 201.91 108.762C200.035 113.296 197.192 117.821 194.006 122.029C187.636 130.443 179.59 138.005 174.093 142.432C173.091 143.239 171.726 143.431 170.54 142.932C167.016 141.448 161.349 136.318 157.703 126.341C157.028 127.312 156.296 128.551 155.52 130.055C153.203 134.55 150.837 140.703 148.554 147.189C147.42 150.412 146.32 153.677 145.265 156.817C144.214 159.948 143.204 162.965 142.265 165.651C141.33 168.329 140.44 170.747 139.623 172.67C139.214 173.631 138.803 174.519 138.391 175.278C138.007 175.988 137.511 176.796 136.887 177.44C135.71 178.658 134.387 179.934 132.978 180.856C131.567 181.781 129.645 182.63 127.411 182.281C125.202 181.936 123.502 180.551 122.19 178.834C110.239 212.34 115.722 236.72 127.598 252.921C140.477 270.49 161.253 279 177.435 279C199.966 279 215.369 273.109 225.633 264.098C235.91 255.074 241.441 242.564 243.527 228.556C247.36 202.812 239.411 172.829 229.121 153.209L225.397 159.861C224.475 161.508 222.413 162.127 220.736 161.261C218.795 160.257 217.516 158.467 216.622 156.749C215.699 154.975 214.955 152.823 214.306 150.517C213.017 145.931 211.911 139.991 210.648 133.852C208.776 124.753 206.506 114.977 202.74 106.554Z" fill="black"/>
<path d="M152.748 204.58C132.712 257.169 161.871 281.5 181.335 281.5C243.895 277.323 216.062 207.147 186.967 173.5C186.058 186.519 182.057 214.152 173.329 220.533C162.418 228.509 157.955 215.857 152.748 204.58Z" fill="#FBBF24"/>
<path d="M185.861 170.18C187.206 169.732 188.687 170.139 189.614 171.211C204.45 188.369 219.108 214.948 221.995 238.119C223.444 249.745 221.982 260.998 215.506 269.687C208.972 278.453 197.865 283.904 181.568 284.992C181.491 284.997 181.413 285 181.335 285C170.264 285 156.988 278.17 149.188 264.495C141.321 250.7 139.192 230.329 149.476 203.334C149.978 202.018 151.22 201.13 152.628 201.082C154.035 201.034 155.334 201.835 155.925 203.113C157.279 206.046 158.466 208.801 159.758 211.389C161.043 213.963 162.27 216.028 163.533 217.471C164.783 218.898 165.799 219.414 166.653 219.516C167.502 219.616 168.953 219.396 171.264 217.707C172.684 216.668 174.265 214.444 175.808 210.919C177.309 207.493 178.598 203.257 179.674 198.701C181.825 189.597 183.03 179.628 183.475 173.256L183.504 172.993C183.694 171.693 184.601 170.6 185.861 170.18ZM189.617 182.352C188.939 187.896 187.915 194.263 186.486 200.311C185.358 205.088 183.954 209.77 182.221 213.727C180.531 217.584 178.338 221.206 175.394 223.358C172.249 225.658 169.05 226.848 165.831 226.467C162.617 226.087 160.147 224.23 158.266 222.082C156.399 219.949 154.852 217.235 153.494 214.515C153.407 214.341 153.322 214.164 153.235 213.987C146.851 235.314 149.421 250.774 155.268 261.027C161.875 272.611 172.84 277.949 181.219 277.998C196.131 276.98 204.972 272.104 209.892 265.503C214.883 258.807 216.375 249.63 215.049 238.984C212.718 220.279 201.852 198.541 189.617 182.352Z" fill="black"/>
</svg>
