<svg xmlns="http://www.w3.org/2000/svg" width="450" height="450" fill="none"><path fill="#fff" d="M227.721 247.043c12.95.028 31.14 1.606 47.738 19.034 19.457 20.431 38.954 104.164 14.633 119.298-24.064 14.973-50.813-.739-62.371-.027v.027q-.09-.008-.183-.014-.092.006-.182.014v-.027c-11.557-.713-38.306 15-62.371.027-24.321-15.134-4.824-98.867 14.633-119.298 16.599-17.427 34.788-19.006 47.738-19.034z"/><path fill="#fff" d="M337.921 260.674c-11.107 10.602-26.253 50.793-74.215 64.117-3.068.853-6.146 1.409-9.087 2.26-9.29 7.058-1.179 11.532 4.038 12.886 62.603-16.155 90.143-71.824 86.837-79.263-2.02-4.544-5.457-2.02-7.573 0"/><path fill="#F3F3F3" d="M264.655 388.484c5.942-2.045-2.311-46.228-6.52-65.002-4.514-20.134-13.245-29.487-33.808-29.487-16.551 2.301-24.134 8.9-28.383 29.487-2.968 14.381-11.377 60.074-4.013 65.002 6.019 4.026 20.489-6.328 35.61-6.328 14.545 0 32.099 8.054 37.114 6.328"/><path fill="#fff" d="m132.441 335.393 38.37-24.738c26.253-7.573 37.36 62.603 19.69 81.283-13.632 2.524-53.516 6.563-60.584 9.592s-36.35 3.03-36.35-16.155c.808-21.406 26.253-42.24 38.874-49.982"/><path fill="#fff" d="M123.444 320.462c16.382 3.97 27.019 26.694 20.071 57.564-6.945 30.862-31.696 29.006-40.524 26.869l-.001.001-.007-.002v-.001c-8.827-2.141-31.682-11.822-23.729-42.44 7.955-30.621 27.809-45.954 44.19-41.991"/><path fill="#F2F2F2" d="M112.601 329.366c12.389 3.45 20.432 23.17 15.177 49.959-5.254 26.785-23.977 25.174-30.655 23.319h-.006c-6.677-1.859-23.966-10.262-17.95-36.835 6.017-26.577 21.037-39.885 33.428-36.445z"/><path fill="#fff" d="m324.289 335.393-38.369-24.738c-26.253-7.573-37.36 62.603-19.69 81.283 13.631 2.524 53.515 6.563 60.583 9.592 7.069 3.03 36.351 3.03 36.351-16.155-.808-21.406-26.253-42.24-38.875-49.982"/><path fill="#fff" d="M331.259 319.454c-16.378 3.975-27.01 26.697-20.063 57.563 6.945 30.861 31.696 29.005 40.524 26.868v.001l.004-.002h.004v-.001c8.827-2.141 31.682-11.822 23.729-42.439-7.956-30.626-27.815-45.96-44.198-41.99"/><path fill="#F2F2F2" d="M343.121 329.366c-12.39 3.45-20.432 23.17-15.178 49.959 5.254 26.785 23.977 25.174 30.655 23.319h.006c6.678-1.859 23.967-10.262 17.951-36.835-6.018-26.577-21.037-39.885-33.428-36.445z"/><path fill="#fff" d="M170.811 405.569c-32.715-42.408-11.612-105.179 3.029-131.264 32.311-9.693 32.648 20.868 28.777 37.36-.505 10.939-1.211 34.835 0 42.913 1.515 10.097 11.612 13.632 16.661 32.311 4.039 14.944-7.405 23.392-13.631 25.748-7.069 2.861-23.931 5.453-34.836-7.068M283.604 405.569c32.715-42.408 11.612-105.179-3.029-131.264-32.311-9.693-32.648 20.868-28.777 37.36.505 10.939 1.211 34.835 0 42.913-1.515 10.097-11.612 13.632-16.661 32.311-4.039 14.944 7.405 23.392 13.632 25.748 7.068 2.861 23.93 5.453 34.835-7.068M75.63 147.675c7.54-8.86 36.305-19.912 53.94-2.497 25.397 25.079 12.3 53.979 5.551 61.008l.004.004q-.059.058-.121.116l-.117.12-.005-.005c-7.117 6.665-36.383 19.599-61.78-5.481-17.635-17.415-6.443-45.821 2.528-53.265M375.042 146.813c8.972 7.539 20.164 36.304 2.528 53.94-25.397 25.397-54.662 12.299-61.78 5.55l-.004.005q-.06-.06-.117-.122-.062-.058-.122-.116l.005-.005c-6.749-7.118-19.847-36.383 5.55-61.78 17.636-17.636 46.401-6.443 53.94 2.528"/><path fill="#FFF5EB" d="M367.908 157.987c6.728 5.654 15.123 27.228 1.896 40.455-19.048 19.047-40.997 9.224-46.335 4.162l-.004.004-.087-.091-.091-.088.003-.003c-5.062-5.339-14.885-27.288 4.163-46.336 13.227-13.226 34.801-4.832 40.455 1.897M86.805 157.987c-6.729 5.654-15.123 27.228-1.897 40.455 19.048 19.047 40.997 9.224 46.336 4.162l.003.004.088-.091.091-.088-.004-.003c5.062-5.339 14.885-27.288-4.163-46.336-13.226-13.226-34.8-4.832-40.454 1.897"/><path fill="#fff" d="M227.764 56.206c95.101.218 110.794 76.426 111.054 130.253.053 11.091 9.593 26.758 4.656 47.457-8.772 36.78-82.33 52.608-115.915 51.501-33.583 1.107-107.141-14.721-115.914-51.501-4.937-20.699 4.602-36.366 4.655-47.457.26-53.827 15.953-130.036 111.055-130.253v-.002l.204.001h.205z"/><path stroke="#474847" stroke-linecap="round" stroke-linejoin="round" stroke-width="7" d="M258.658 339.937c62.603-16.155 90.142-71.824 86.836-79.263-2.019-4.544-5.457-2.02-7.573 0-11.107 10.602-26.253 50.793-74.215 64.117-3.068.853-6.146 1.409-9.087 2.26M190.5 391.938c16.424.213 28.941-7.078 36.856-6.59v.027q.09-.008.182-.014.092.006.183.014v-.027c7.857-.484 22.228 6.693 38.509 6.59M128.907 401.53c7.068-3.029 47.962-7.068 61.593-9.592m-32.816-72.82L138.5 331.487"/><path stroke="#474847" stroke-linecap="round" stroke-linejoin="round" stroke-width="7" d="M142.697 340.442c-3.742-10.751-10.718-17.911-19.254-19.98-16.38-3.963-36.235 11.37-44.19 41.992-7.952 30.616 14.902 40.298 23.729 42.44l.008.001c7.183 1.739 24.907 3.291 35.005-12.813M325.994 400.521c-7.068-3.03-47.962-7.068-61.594-9.593m32.816-72.82 19.185 12.369"/><path stroke="#474847" stroke-linecap="round" stroke-linejoin="round" stroke-width="7" d="M312.204 339.432c3.741-10.751 10.718-17.911 19.254-19.98 16.38-3.963 36.235 11.371 44.189 41.992 7.953 30.617-14.901 40.299-23.728 42.44l-.008.001c-7.183 1.739-24.907 3.292-35.005-12.813M305.595 168.224c2.702-10.411 9.448-21.408 23.623-29.591 21.848-12.614 47.023 5.852 52.04 16.592 6.792 9.714 10.197 40.75-11.651 53.364-14.175 8.183-27.071 8.528-37.438 5.662"/><path stroke="#474847" stroke-linecap="round" stroke-linejoin="round" stroke-width="7" d="M333.882 181.915c3.871-2.019 14.237-5.452 24.739-3.029M116.286 181.915c-3.87-2.019-14.237-5.452-24.738-3.029"/><path stroke="#474847" stroke-linecap="round" stroke-linejoin="round" stroke-width="7" d="M144.908 168.224c-2.702-10.411-9.448-21.408-23.623-29.591-21.848-12.614-47.023 5.852-52.04 16.592-6.792 9.714-10.197 40.75 11.651 53.364 14.175 8.183 27.071 8.528 37.438 5.662"/><path fill="#fff" d="M170.811 405.569c-32.715-42.408-22.719-105.011-4.039-128.74 12.622 12.117 25.243 24.739 35.845 34.836-.504 10.939-1.211 34.835 0 42.913 1.515 10.097 11.612 13.631 16.661 32.311 4.039 14.944-7.405 23.392-13.631 25.748-7.068 2.861-23.931 5.453-34.836-7.068M284.093 405.569c35.148-48.466 18.487-105.011 3.341-129.245-14.833 14.137-22.214 20.195-35.148 35.341.505 10.939 1.212 34.835 0 42.913-1.514 10.097-11.611 13.632-16.66 32.311-4.039 14.944 7.405 23.392 13.631 25.748 7.068 2.861 23.931 5.453 34.836-7.068"/><path stroke="#474847" stroke-linecap="round" stroke-linejoin="round" stroke-width="7" d="M165.762 277.334c-17.67 26.253-27.666 85.827 5.049 128.235 10.905 12.521 27.767 9.929 34.836 7.068 6.226-2.356 17.67-10.804 13.631-25.748-5.049-18.68-15.146-22.214-16.661-32.311-.625-4.171-.739-12.559-.634-21.204M287.434 276.829c17.67 26.253 29.373 86.332-3.342 128.74-10.905 12.521-27.767 9.929-34.835 7.068-6.227-2.356-17.67-10.804-13.631-25.748 5.048-18.68 15.145-22.214 16.66-32.311.626-4.171.74-12.559.634-21.204"/><path fill="#FFF5EB" d="M227.764 56.206c95.102.217 110.795 76.427 111.054 130.253.054 11.092 9.593 26.758 4.657 47.457-8.773 36.782-82.336 52.609-115.918 51.501-33.586 1.106-107.139-14.722-115.911-51.501-4.937-20.699 4.601-36.365 4.655-47.457.26-53.826 15.953-130.035 111.054-130.253v-.002l.205.001h.204z"/><path fill="#fff" d="M225.337 151.623c-50.991-38.874-84.817 23.224-95.924 49.982-11.107 39.379 11.107 55.03 28.777 73.205-62.098-23.224-48.972-65.632-41.903-84.312-1.515-17.166 4.038-141.867 109.05-135.303 9.535.596 20.194 0 41.581-20.195 6.886 13.631 1.837 20.194 0 27.263 65.459 20.132 70.73 76.902 72.013 128.235 17.67 52.001-17.67 77.244-47.457 84.312 46.952-18.68 32.816-64.118 29.787-76.739s-42.409-91.885-95.924-46.448"/><path fill="#FFCACC" d="M180.909 280.363c.404-61.391-43.25-82.797-65.127-85.826-5.049 7.741-7.464 33.825-3.534 41.903 9.087 18.68 20.194 28.777 68.661 43.923M273.872 280.363c-.404-61.391 43.25-82.797 65.127-85.826 5.049 7.741 7.464 33.825 3.534 41.903-9.087 18.68-20.194 28.777-68.661 43.923"/><path stroke="#474847" stroke-linecap="round" stroke-linejoin="round" stroke-width="7" d="M192.016 282.233c-34.332-6.285-74.068-21.895-80.37-48.317-4.937-20.699 4.601-36.366 4.655-47.457.26-53.827 15.953-130.036 111.055-130.253v-.002l.204.001h.204v.001c6.829.016 20.797-1.516 38.972-21.206 3.029 8.583 5.553 20.194 0 26.488 60.653 18.18 71.864 79.546 72.083 124.971.054 11.091 9.592 26.758 4.655 47.457-6.302 26.422-46.038 42.032-80.37 48.317"/><ellipse cx="182.202" cy="206.653" fill="#474847" rx="10.38" ry="11.107"/><ellipse cx="272.067" cy="206.653" fill="#474847" rx="10.38" ry="11.107"/><path stroke="#474847" stroke-linecap="round" stroke-linejoin="round" stroke-width="7" d="M207.115 220.285s1.297 5.048 10.51 5.048 10.51-5.048 10.51-5.048 2.595 5.048 10.51 5.048 10.51-5.048 10.51-5.048"/><path fill="#474847" d="M222.083 213.579c5.038 2.901 6.489 2.863 10.879 0 5.534-3.609-1.146-5.916-5.153-5.916-4.008 0-10.764 3.016-5.726 5.916"/></svg>