<svg xmlns="http://www.w3.org/2000/svg" width="450" height="448" fill="none"><path fill="#FFD8D4" d="M224.426 235.543c12.896.029 31.011 1.621 47.541 19.204 19.378 20.613 38.795 105.094 14.573 120.363-23.965 15.107-50.604-.745-62.114-.027v.027q-.092-.008-.183-.014-.092.006-.182.014v-.027c-11.509-.719-38.149 15.134-62.114.027-24.222-15.268-4.805-99.75 14.573-120.363 16.53-17.583 34.645-19.175 47.541-19.204z"/><path fill="#FFD8D4" d="m129.536 324.682 38.212-24.959c26.146-7.64 37.207 63.162 19.609 82.009-13.575 2.547-53.296 6.622-60.335 9.678s-36.201 3.056-36.201-16.3c.804-21.597 26.145-42.617 38.715-50.428"/><path fill="#FFD8D4" d="M120.575 309.617c16.315 4.006 26.909 26.933 19.99 58.079-6.917 31.137-31.567 29.264-40.359 27.108v.001l-.004-.002h-.004v-.001c-8.791-2.161-31.551-11.928-23.631-42.818 7.921-30.894 27.694-46.365 44.008-42.367"/><path fill="#FFA6A8" d="M102.408 350.412c9.51-6.715 13.987.597 15.492 5.247 5.079 15.692 4.621 23.574-2.207 23.574-5.097 0-7.743-4.747-13.286-6.67-3.515-1.219-6.696.505-10.408-1.355-9.563-4.792-1.48-12.403 10.409-20.796M102.327 341.031c-.943 2.858-3.994 4.4-6.815 3.445s-4.344-4.047-3.4-6.905c.942-2.858 1.897-5.749 6.815-3.444 3.215 1.728 4.343 4.046 3.4 6.904M120.888 333.898c-1.257 3.811-5.872 6.322-7.952 4.978-2.838-.961-4.656-5.012-3.399-8.822 1.258-3.811 3.412-6.515 7.952-4.978 4.541 1.538 4.656 5.012 3.399 8.822M131.438 350.353c-.943 2.857-3.994 4.4-6.815 3.444-2.821-.955-4.343-4.047-3.4-6.904s2.463-3.641 6.815-3.445c4.352.195 4.344 4.047 3.4 6.905"/><path fill="#FFD8D4" d="m320.598 324.682-38.212-24.959c-26.146-7.64-37.207 63.162-19.609 82.009 13.575 2.547 53.296 6.622 60.335 9.678s36.201 3.056 36.201-16.3c-.804-21.597-26.145-42.617-38.715-50.428"/><path fill="#FFD8D4" d="M327.547 308.599c-16.316 4.006-26.909 26.933-19.99 58.079 6.917 31.137 31.567 29.264 40.359 27.108v.001l.004-.002h.004l-.001-.001c8.791-2.161 31.553-11.928 23.632-42.818-7.922-30.895-27.695-46.366-44.008-42.367"/><path fill="#FFA6A8" d="M348.395 350.412c-9.51-6.715-13.987.597-15.492 5.247-5.08 15.692-4.622 23.574 2.207 23.574 5.097 0 7.742-4.747 13.285-6.67 3.516-1.219 6.697.505 10.409-1.355 9.563-4.792 1.479-12.403-10.409-20.796M348.476 341.031c.943 2.858 3.994 4.4 6.815 3.445s4.344-4.047 3.4-6.905c-.943-2.858-1.897-5.749-6.815-3.444-3.216 1.728-4.343 4.046-3.4 6.904M329.915 333.898c1.257 3.811 5.872 6.322 7.952 4.978 2.838-.961 4.656-5.012 3.399-8.822-1.258-3.811-3.412-6.515-7.953-4.978-4.54 1.538-4.656 5.012-3.398 8.822M319.364 350.353c.943 2.857 3.994 4.4 6.815 3.444 2.821-.955 4.344-4.047 3.401-6.904s-2.464-3.641-6.816-3.445c-4.352.195-4.343 4.047-3.4 6.905"/><path fill="#FFD8D4" d="M167.748 395.485c-32.581-42.787-11.564-106.119 3.017-132.437 32.178-9.78 32.514 21.054 28.659 37.694-.503 11.036-1.207 35.146 0 43.296 1.508 10.188 11.564 13.753 16.592 32.6 4.022 15.078-7.374 23.601-13.575 25.978-7.039 2.887-23.833 5.501-34.693-7.131M280.079 395.485c32.581-42.787 11.564-106.119-3.017-132.437-32.178-9.78-32.514 21.054-28.659 37.694.503 11.036 1.207 35.146 0 43.296-1.508 10.188-11.564 13.753-16.592 32.6-4.022 15.078 7.374 23.601 13.575 25.978 7.04 2.887 23.833 5.501 34.693-7.131"/><path fill="#FFD8D4" d="M224.467 43.002c94.713.22 110.341 77.109 110.599 131.416.054 11.19 9.554 26.997 4.637 47.881-8.736 37.109-81.992 53.077-115.439 51.961-33.446 1.117-106.703-14.852-115.439-51.961-4.917-20.884 4.583-36.691 4.636-47.881.259-54.307 15.887-131.197 110.6-131.416V43l.202.001.204-.001z"/><path fill="#FFD8D4" d="M108.248 196.37c-37.955 5.567-63.67-25.303-45.04-62.753 8.951-17.996 27.996-32.77 45.04-43.016 19.926-11.978 39.474-35.93 63.259-35.93zM341.752 196.37c37.955 5.567 63.67-25.303 45.041-62.753-8.952-17.996-27.997-32.77-45.041-43.016-19.926-11.978-39.474-35.93-63.259-35.93z"/><path fill="#FFD8D4" d="M224.467 43.002c94.713.219 110.342 77.109 110.601 131.416.053 11.191 9.553 26.997 4.637 47.881-8.737 37.109-81.995 53.078-115.441 51.961-33.446 1.117-106.703-14.852-115.439-51.961-4.917-20.884 4.583-36.69 4.636-47.881.259-54.307 15.888-131.197 110.601-131.416V43l.202.001.203-.001z"/><path fill="#FFA6A8" d="M177.804 269.161c.402-61.94-43.073-83.537-64.86-86.593-5.028 7.81-7.434 34.128-3.52 42.278 9.05 18.846 20.112 29.034 68.38 44.315M270.386 269.161c-.402-61.94 43.073-83.537 64.86-86.593 5.028 7.81 7.433 34.128 3.52 42.278-9.05 18.846-20.112 29.034-68.38 44.315"/><path stroke="#474847" stroke-linecap="round" stroke-linejoin="round" stroke-width="7" d="M187.357 381.732c16.356.215 28.821-7.141 36.704-6.649v.027q.09-.008.182-.014.092.006.182.014v-.027c7.824-.488 22.137 6.753 38.351 6.649M126.017 391.41c7.039-3.056 47.765-7.131 61.34-9.678m-32.681-73.47-19.106 12.479"/><path stroke="#474847" stroke-linecap="round" stroke-linejoin="round" stroke-width="7" d="M139.75 329.776c-3.727-10.847-10.674-18.071-19.175-20.158-16.314-3.999-36.087 11.472-44.009 42.366-7.92 30.89 14.84 40.659 23.632 42.82l.008.001c7.153 1.754 24.804 3.321 34.861-12.928M322.294 390.391c-7.039-3.056-47.765-7.131-61.34-9.678m32.681-73.47 19.106 12.48"/><path stroke="#474847" stroke-linecap="round" stroke-linejoin="round" stroke-width="7" d="M308.561 328.758c3.727-10.848 10.674-18.072 19.175-20.159 16.314-3.998 36.087 11.472 44.009 42.367 7.92 30.89-14.841 40.658-23.632 42.819l-.007.001c-7.154 1.754-24.805 3.321-34.862-12.927M171.507 54.67c-23.785 0-43.333 23.953-63.259 35.931-17.044 10.246-36.089 25.02-45.04 43.016-18.63 37.45 7.085 68.32 45.04 62.753M278.493 54.67c23.785 0 43.333 23.953 63.259 35.931 17.044 10.246 36.089 25.02 45.041 43.016 18.629 37.45-7.086 68.32-45.041 62.753"/><path stroke="#474847" stroke-linecap="round" stroke-linejoin="round" stroke-width="7" d="M118.97 124.499c-4.098 16.937-5.435 34.355-5.509 49.919-.053 11.19-9.553 26.997-4.636 47.881 6.307 26.789 46.238 42.561 80.543 48.841m140.19-146.641c4.099 16.937 5.435 34.355 5.509 49.919.054 11.19 9.553 26.997 4.636 47.881-6.306 26.789-46.238 42.561-80.543 48.841m19.705-216.934c-14.332-7.201-32.191-11.153-54.398-11.204V43l-.203.001-.203-.001v.002c-22.206.051-38.964 4.003-53.296 11.204"/><path fill="#FFD8D4" d="M167.748 395.485c-32.581-42.787-22.625-105.949-4.022-129.89 12.57 12.225 25.14 24.959 35.698 35.147-.502 11.036-1.206 35.147 0 43.296 1.509 10.188 11.565 13.753 16.593 32.6 4.022 15.078-7.375 23.601-13.576 25.978-7.039 2.887-23.832 5.501-34.693-7.131M280.566 395.485c35.004-48.9 18.412-105.949 3.328-130.399-14.772 14.262-22.123 20.375-35.004 35.656.503 11.036 1.207 35.147 0 43.297-1.508 10.187-11.564 13.753-16.592 32.599-4.022 15.078 7.375 23.601 13.576 25.978 7.039 2.887 23.832 5.501 34.692-7.131"/><path stroke="#474847" stroke-linecap="round" stroke-linejoin="round" stroke-width="7" d="M162.72 266.105c-17.597 26.487-27.553 86.593 5.028 129.38 10.861 12.633 27.654 10.018 34.693 7.131 6.201-2.377 17.598-10.9 13.576-25.978-5.028-18.846-15.084-22.412-16.593-32.599-.623-4.209-.736-12.672-.631-21.394M283.894 265.595c17.598 26.488 29.253 87.103-3.328 129.89-10.86 12.632-27.654 10.018-34.693 7.131-6.201-2.377-17.598-10.9-13.575-25.978 5.028-18.847 15.083-22.412 16.592-32.6.623-4.208.737-12.671.632-21.393"/><ellipse cx="177.08" cy="194.793" fill="#474847" rx="10.338" ry="11.206"/><ellipse cx="267.019" cy="194.793" fill="#474847" rx="10.338" ry="11.206"/><path stroke="#474847" stroke-linecap="round" stroke-linejoin="round" stroke-width="7" d="M201.891 208.546s1.292 5.093 10.467 5.093 10.467-5.093 10.467-5.093 2.585 5.093 10.467 5.093 10.467-5.093 10.467-5.093"/><path fill="#474847" d="M216.762 201.768c5.051 2.908 6.505 2.87 10.905 0 5.548-3.618-1.148-5.93-5.165-5.93s-10.79 3.022-5.74 5.93"/></svg>