<svg xmlns="http://www.w3.org/2000/svg" width="450" height="450" fill="none"><path fill="#fff" d="M224.891 238.421c12.984.029 31.222 1.611 47.864 19.085 19.509 20.485 39.058 104.441 14.672 119.615-24.128 15.013-50.948-.741-62.536-.027v.027q-.092-.008-.184-.014-.093.006-.183.014v-.027c-11.588-.714-38.408 15.04-62.536.027-24.387-15.174-4.838-99.13 14.672-119.615 16.642-17.474 34.88-19.057 47.864-19.085z"/><path fill="#fff" d="m129.357 327.007 38.471-24.805c26.323-7.593 37.46 62.77 19.743 81.5-13.668 2.531-53.658 6.58-60.745 9.618-7.087 3.037-36.447 3.037-36.447-16.199.81-21.463 26.323-42.353 38.978-50.114"/><path fill="#DADADA" d="M120.335 312.035c16.426 3.981 27.092 26.766 20.126 57.719-6.966 30.952-31.797 29.082-40.642 26.938v-.001c-8.85-2.148-31.765-11.854-23.791-42.552 7.975-30.703 27.883-46.077 44.307-42.104"/><path fill="#fff" d="m321.715 327.007-38.471-24.805c-26.323-7.593-37.459 62.77-19.742 81.5 13.667 2.531 53.658 6.58 60.745 9.618 7.086 3.037 36.446 3.037 36.446-16.199-.81-21.463-26.322-42.353-38.978-50.114"/><path fill="#DADADA" d="M328.712 311.023c-16.426 3.981-27.091 26.765-20.125 57.718 6.966 30.952 31.796 29.082 40.641 26.939l-.001-.002c8.851-2.147 31.766-11.853 23.793-42.551-7.976-30.703-27.883-46.078-44.308-42.104"/><path fill="#FFF5EB" d="M74.845 112.944c12.505-7.034 53.964-34.45 67.036-43.597 16.591 4.99 2.928 82.006-27.266 82.006-9.27 0-25.084-2.612-34.9-9.924-9.27-6.907-22.903-18.341-4.87-28.485M374.148 114.969c-12.352-7.034-53.306-34.451-66.218-43.597-16.389 4.989-2.892 82.006 26.933 82.006 9.157 0 24.778-2.612 34.474-9.924 9.157-6.907 22.624-18.341 4.811-28.485"/><path stroke="#474847" stroke-linecap="round" stroke-linejoin="round" stroke-width="7" d="M187.571 383.702c16.467.214 29.017-7.097 36.953-6.608v.027q.09-.008.183-.014.092.006.184.014v-.027c7.877-.485 22.287 6.711 38.611 6.608M125.814 393.319c4.093-1.754 19.502-3.846 34.422-5.788 10.911-1.42 21.562-2.76 27.335-3.829m-32.903-73.014-19.236 12.402"/><path stroke="#474847" stroke-linecap="round" stroke-linejoin="round" stroke-width="7" d="M139.64 332.069c-3.751-10.78-10.746-17.96-19.305-20.034-16.424-3.973-36.331 11.401-44.307 42.104-7.974 30.698 14.941 40.406 23.792 42.553l.008.001c7.201 1.743 24.973 3.3 35.098-12.847M323.424 392.307c-7.087-3.037-48.089-7.087-61.757-9.618m32.903-73.014 19.236 12.403"/><path stroke="#474847" stroke-linecap="round" stroke-linejoin="round" stroke-width="7" d="M309.598 331.056c3.752-10.78 10.746-17.959 19.305-20.033 16.424-3.974 36.332 11.401 44.307 42.103 7.974 30.699-14.941 40.406-23.792 42.554l-.008.001c-7.201 1.743-24.973 3.3-35.097-12.848"/><ellipse cx="171.879" cy="189.825" fill="#474847" rx="10.124" ry="11.136"/><ellipse cx="278.182" cy="189.825" fill="#474847" rx="10.124" ry="11.136"/><path fill="#FFF5EB" d="M202.757 404.456c-20.248 9.618-27.537-2.126-38.471-14.68 8.504-19.033 32.228-18.392 43.027-15.692 4.05 14.983 1.688 28.01-4.556 30.372"/><path stroke="#474847" stroke-linecap="round" stroke-linejoin="round" stroke-width="7" d="M164.286 389.776c10.934 12.554 18.223 24.298 38.471 14.68 6.244-2.362 8.1-14.882 4.05-29.866"/><path fill="#fff" d="M153.655 303.721c-6.074-14.174 2.025-27.673 6.075-29.866h23.285l11.643 5.062 4.05 45.052c.168 6.75.607 21.059 1.012 24.298.506 4.05 4.05 8.1 7.087 17.717 3.037 9.618-8.099 17.211-20.248 17.211-5.062 8.1-17.718 7.594-26.829 4.05-12.554-4.859-10.462-28.685-9.618-38.978-3.037-7.93-9.112-27.335 3.543-44.546"/><path stroke="#474847" stroke-linecap="round" stroke-linejoin="round" stroke-width="7" d="M159.73 273.855c-4.05 2.193-12.149 15.692-6.075 29.866-12.655 17.211-6.58 36.616-3.543 44.546-.844 10.293-2.936 34.119 9.618 38.978 9.111 3.544 21.767 4.05 26.829-4.05 12.149 0 23.285-7.593 20.248-17.211s-6.581-13.667-7.087-17.717c-.405-3.239-.844-17.548-1.012-24.298"/><path fill="#FFF5EB" d="M247.691 405.469c20.248 9.617 27.538-2.127 38.472-14.68-8.505-19.034-32.229-18.393-43.028-15.693-4.05 14.984-1.687 28.01 4.556 30.373"/><path stroke="#474847" stroke-linecap="round" stroke-linejoin="round" stroke-width="7" d="M286.163 390.788c-10.934 12.554-18.224 24.298-38.472 14.68-6.243-2.362-8.099-14.882-4.05-29.866"/><path fill="#fff" d="M296.793 304.733c6.074-14.173-2.025-27.672-6.075-29.866h-23.285l-11.643 5.062-4.049 45.053c-.169 6.749-.608 21.058-1.013 24.298-.506 4.049-4.049 8.099-7.087 17.717s8.1 17.211 20.249 17.211c5.062 8.099 17.717 7.593 26.828 4.049 12.554-4.859 10.462-28.685 9.618-38.977 3.038-7.931 9.112-27.336-3.543-44.547"/><path stroke="#474847" stroke-linecap="round" stroke-linejoin="round" stroke-width="7" d="M290.718 274.867c4.05 2.194 12.149 15.693 6.075 29.866 12.655 17.211 6.581 36.616 3.543 44.547.844 10.292 2.936 34.118-9.618 38.978-9.111 3.543-21.766 4.049-26.828-4.05-12.149 0-23.286-7.593-20.249-17.211s6.581-13.668 7.087-17.717c.405-3.24.844-17.549 1.013-24.298M70.131 119.462c4.05-2.835 48.933-32.228 70.869-46.571 13.668 28.348-18.223 77.45-35.434 77.956s-26.09-7.593-29.36-11.137c-6.075-6.58-11.137-16.705-6.075-20.248M381.174 119.462c-4.05-2.835-48.933-32.228-70.869-46.571-13.667 28.348 18.224 77.45 35.435 77.956s26.089-7.593 29.36-11.137c6.074-6.58 11.136-16.705 6.074-20.248"/><path fill="#fff" d="M226.043 48.808c7.06-5.892 25.591-14.141 43.239 0 17.649 0 54.711 23.26 54.711 44.66 7.06 11.164 39.71 46.52 27.356 96.761 6.177 34.424-14.119 52.102-27.356 53.032 0 17.678-34.415 30.703-54.711 23.26-10.589 9.676-33.238 10.855-43.239 10.235-10.001.62-32.65-.559-43.24-10.235-20.296 7.443-54.711-5.582-54.711-23.26-13.236-.93-33.532-18.608-27.355-53.032-12.354-50.242 20.296-85.597 27.355-96.762 0-21.399 37.063-44.659 54.711-44.659 17.649-14.141 36.18-5.892 43.24 0"/><path fill="#FFF5EB" d="M187.375 121.993c4.824 4.165 12.652 7.932 24.03 7.376 3.168 4.992 21.649 13.311 33.266 4.437 6.367 1.543 24.539 2.13 29.249-8.412 0 6.748 3.644 9.798 14.579 18.395 8.449 6.644 18.394 7.211 21.122 11.093 6.54 9.308 9.687 17.213 12.305 27.732 2.848 11.443 3.819 23.027 3.879 33.496.048 8.425.564 14.686-3.879 30.41-6.79 24.026-27.74 28.613-52.599 26.905-8.124 5.197-11.678 11.546-38.588 11.546-12.315.343-39.096-3.704-47.727-11.546-17.02 3.467-41.252-2.421-52.136-24.374-4.443-15.724-5.405-24.516-5.357-32.941.054-9.455.851-19.819 3.103-30.169 2.153-9.896 5.637-19.779 11.073-28.84 4.909-8.182 6.232 1.347 26.297-13.312s16.898-14.42 20.802-21.63z"/><path fill="#FFCACC" d="M271.602 272.842c-.405-61.554 57.032-78.462 78.968-81.499 5.062 7.762-.069 37.966-8.606 43.028-4.87 2.888-8.605 6.074-17.211 9.112-3.037 18.223-36.196 36.363-53.151 29.359M181.475 272.842c.405-61.554-57.033-78.462-78.969-81.499-5.062 7.762.069 37.966 8.606 43.028 4.87 2.888 8.606 6.074 17.211 9.112 3.037 18.223 36.196 36.363 53.152 29.359"/><path stroke="#474847" stroke-linecap="round" stroke-linejoin="round" stroke-width="7" d="M323.993 93.485c0-21.406-37.062-44.674-54.711-44.674-17.648-14.146-36.179-5.894-43.239 0-7.06-5.894-25.591-14.146-43.24 0-17.648 0-54.711 23.268-54.711 44.674m65.815 185.432c-4.28-1.521-8.158-3.556-11.104-6.248-20.296 7.445-54.711-11.659-54.711-29.342-13.236-.931-33.532-18.614-27.355-53.05-4.885-19.871-2.734-37.414 2.089-52.054m155.353 140.694c4.28-1.521 8.158-3.556 11.103-6.248 20.296 7.445 54.711-11.659 54.711-29.342 13.237-.931 33.533-18.614 27.356-53.05 4.885-19.871 2.734-37.414-2.089-52.054M180.268 93.645c-1.632 12.163 2.84 36.288 33.79 35.488 10.186 9.597 24.64 10.071 32.233 3.49 6.203 2 23.972 2.723 26.323-6.074"/><path stroke="#474847" stroke-linecap="round" stroke-linejoin="round" stroke-width="7" d="M134.419 159.452c15.279-4.824 47.602-18.866 54.671-36.447M272.107 127.055c5.737 10.293 22.071 29.866 41.509 25.817"/><ellipse cx="180.261" cy="208.048" fill="#474847" rx="10.408" ry="11.136"/><ellipse cx="270.811" cy="208.048" fill="#474847" rx="10.408" ry="11.136"/><path stroke="#474847" stroke-linecap="round" stroke-linejoin="round" stroke-width="7" d="M205.241 221.716s1.301 5.062 10.538 5.062 10.538-5.062 10.538-5.062 2.602 5.062 10.538 5.062 10.538-5.062 10.538-5.062"/><path fill="#474847" d="M220.249 214.993c5.052 2.908 6.506 2.87 10.907 0 5.55-3.62-1.148-5.933-5.167-5.933-4.018 0-10.792 3.024-5.74 5.933"/></svg>