<svg xmlns="http://www.w3.org/2000/svg" width="450" height="450" fill="none"><path fill="#fff" d="M352.312 254.011c-12 7.5-26.5-.6-32 11.5-.909 2-2.5 11 2 16-8.67 17.615-25.404 45.269-59.79 60.309-2.89 1.264-5.83 2.239-8.596 3.483-3.623 5.312-7.544 15.163 5.758 12.072 41.591-17.285 61.813-50.818 69.628-71.864 4.868 2 15.245-3.306 19-9 5-6 4-16.5 4-22.5"/><path fill="#fff" d="M224.675 257.012c12.825.027 30.839 1.59 47.277 18.85 19.27 20.234 38.58 103.161 14.492 118.149-23.832 14.829-50.323-.732-61.769-.027v.027q-.09-.008-.182-.014-.09.006-.18.014v-.027c-11.446-.706-37.937 14.856-61.77.027-24.087-14.988-4.778-97.915 14.492-118.149 16.438-17.26 34.453-18.823 47.278-18.85z"/><path fill="#fff" d="m130.312 344.51 38-24.5c26-7.5 37 62.001 19.5 80.5-13.5 2.5-53 6.5-60 9.5s-36 3-36-16c.8-21.2 26-41.833 38.5-49.5"/><path fill="#DADADA" d="M117.401 339.723c2.638.639 9.125-8.231 11.411-6.655 11.778 8.117 18.229 28.062 12.467 53.665-6.878 30.564-31.391 28.726-40.134 26.609h-.008c-8.742-2.121-31.376-11.71-23.5-42.032 6.757-26.012 22.185-40.885 36.675-42.113 2.404-.204.781 9.967 3.089 10.526"/><path fill="#fff" d="m320.312 344.51-38-24.5c-26-7.5-37 62.001-19.5 80.5 13.5 2.5 53 6.5 60 9.5s36 3 36-16c-.8-21.2-26-41.833-38.5-49.5"/><path fill="#DADADA" d="M332.018 339.723c-2.638.639-9.125-8.231-11.411-6.655-11.779 8.117-18.229 28.062-12.468 53.665 6.879 30.564 31.392 28.726 40.135 26.609h.008c8.742-2.121 31.376-11.71 23.5-42.032-6.757-26.012-22.185-40.885-36.675-42.113-2.404-.204-.781 9.967-3.089 10.526"/><path fill="#fff" d="M168.312 414.011c-32.4-42-11.5-104.167 3-130 32-9.6 32.334 20.666 28.5 37-.5 10.833-1.2 34.5 0 42.5 1.5 10 11.5 13.5 16.5 32 4 14.8-7.333 23.166-13.5 25.5-7 2.833-23.7 5.4-34.5-7M280.019 414.011c32.4-42 11.5-104.167-3-130-32-9.6-32.334 20.666-28.5 37 .5 10.833 1.2 34.5 0 42.5-1.5 10-11.5 13.5-16.5 32-4 14.8 7.333 23.166 13.5 25.5 7 2.833 23.7 5.4 34.5-7M100.812 81.51c5.337-17 42.337-10.172 53.668-9.057 20.263 10.835 5.838 64.967-9.398 63.894-23.048-1.624-50.548-34.836-44.27-54.836M343.466 81.51c-5.337-17-42.336-10.172-53.667-9.057-20.263 10.835-5.839 64.967 9.398 63.894 23.048-1.624 50.548-34.836 44.269-54.836"/><path fill="#FACDC8" d="M100.812 84.01c-3.6 14.8 10.167 31.501 17.5 38.001 17.6 0 26-21.667 28-32.5-9.333-3.834-31.5-10.3-45.5-5.5"/><path fill="#FCD0D6" d="M345.723 84.01c3.6 14.8-10.167 31.501-17.5 38.001-17.6 0-26-21.667-28-32.5 9.333-3.834 31.5-10.3 45.5-5.5"/><path fill="#EBD1B2" d="M170.328 29.164c8.737.627 9.484 15.347 24.984 28.847-6.4 19.2-29.064 18.992-39.596 16.488-14.123-26.134 3.691-46.12 14.612-45.335M275.911 29.164c-8.737.627-9.484 15.347-24.984 28.847 6.935 7.992 24.563 22.479 39.595 16.488 14.123-26.134-3.691-46.12-14.611-45.335"/><path fill="#fff" d="M223.026 56.013c99.29.226 115.674 79.67 115.945 135.782.056 11.562 10.016 27.894 4.862 49.472-9.159 38.342-85.957 54.841-121.02 53.687-35.064 1.154-111.862-15.345-121.02-53.687-5.155-21.578 4.804-37.91 4.86-49.472.271-56.112 16.655-135.556 115.946-135.782v-.002h.427z"/><path stroke="#474847" stroke-linecap="round" stroke-linejoin="round" stroke-width="7" d="M259.685 357.375c41.591-17.285 61.812-50.818 69.628-71.864 4.867 2 15.245-3.306 19-9 5-6 4-16.5 4-22.5-12 7.5-26.5-.6-32 11.5-.909 2-2.5 11 2 16-8.67 17.615-25.404 45.269-59.791 60.309-2.889 1.264-5.829 2.239-8.595 3.483M187.812 400.51c16.266.212 28.662-7.009 36.501-6.526v.026l.18-.013.182.013v-.026c7.781-.479 22.014 6.629 38.137 6.526M126.812 410.01c7-3 47.5-7 61-9.5m-32.499-72.118-19 12.25"/><path stroke="#474847" stroke-linecap="round" stroke-linejoin="round" stroke-width="7" d="M140.469 349.511c-2.549-7.326-6.615-12.968-11.657-16.443-2.286-1.576-8.773 7.294-11.411 6.655-2.468-.597-1.015-10.752-3.589-10.479-14.343 1.524-29.495 16.353-36.175 42.066-7.876 30.322 14.758 39.911 23.5 42.032h.008c7.113 1.722 24.667 3.26 34.667-12.689M322 409.01c-7-3-47.5-7-61-9.5m32.5-72.118 19 12.25"/><path stroke="#474847" stroke-linecap="round" stroke-linejoin="round" stroke-width="7" d="M308 348.511c2.549-7.326 6.615-12.968 11.657-16.443 2.286-1.576 8.773 7.294 11.411 6.655 2.468-.597 1.015-10.752 3.589-10.479 14.344 1.524 29.496 16.353 36.175 42.066 7.876 30.322-14.758 39.911-23.5 42.032h-.008c-7.113 1.722-24.667 3.26-34.667-12.689M100.812 81.51c5.337-17 42.337-10.172 53.668-9.057 20.263 10.835 5.838 64.967-9.398 63.894-23.048-1.624-50.548-34.836-44.27-54.836M343.466 81.51c-5.337-17-42.336-10.172-53.667-9.057-20.263 10.835-5.839 64.967 9.398 63.894 23.048-1.624 50.548-34.836 44.269-54.836"/><path stroke="#474847" stroke-linecap="round" stroke-linejoin="round" stroke-width="7" d="M195.313 58.01c-15.5-13.5-16.248-28.219-24.984-28.846-10.921-.784-28.735 19.2-14.612 45.335M161.543 46.01l-10.5 4.5M161.543 56.01l-10.5 4.5M250.927 58.01c15.5-13.5 16.247-28.219 24.984-28.846 10.92-.784 28.734 19.2 14.611 45.335M284.696 46.01l10.5 4.5M284.696 56.01l10.5 4.5"/><path fill="#fff" d="M168.313 414.011c-32.4-42-22.5-104-4-127.5 12.5 12 25 24.5 35.5 34.5-.5 10.833-1.2 34.5 0 42.5 1.5 10 11.5 13.5 16.5 32 4 14.8-7.333 23.166-13.5 25.5-7 2.833-23.7 5.4-34.5-7M280.504 414.011c34.809-48 18.309-104 3.309-128-14.691 14-22 20-34.809 35 .5 10.833 1.2 34.5 0 42.5-1.5 10-11.5 13.5-16.5 32-4 14.8 7.333 23.166 13.5 25.5 7 2.833 23.7 5.4 34.5-7"/><path stroke="#474847" stroke-linecap="round" stroke-linejoin="round" stroke-width="7" d="M163.313 287.011c-17.5 26-27.4 85 5 127 10.8 12.4 27.5 9.833 34.5 7 6.166-2.334 17.5-10.7 13.5-25.5-5-18.5-15-22-16.5-32-.62-4.131-.733-12.439-.629-21M283.813 286.511c17.5 26 29.09 85.5-3.31 127.5-10.8 12.4-27.5 9.833-34.5 7-6.167-2.334-17.5-10.7-13.5-25.5 5-18.5 15-22 16.5-32 .62-4.131.733-12.439.628-21"/><path fill="#fff" d="M222.993 55.55c99.356.226 115.751 79.844 116.023 136.079.056 11.587 10.021 27.954 4.864 49.579-9.165 38.426-86.015 54.961-121.101 53.804-35.086 1.157-111.934-15.379-121.098-53.804-5.158-21.625 4.808-37.992 4.864-49.579.271-56.235 16.666-135.853 116.022-136.08v-.002l.213.002.213-.002z"/><path fill="#EDEDED" d="M157.713 267.983c-11.022-10.443-3.399-38.785 12.099-40.472s28-22 54-22 29 14.721 48 19 25.443 27.926 19 38.5c-8.053 13.216-29.922 27-64.647 27-36.549 0-52.663-7.068-68.452-22.028"/><path fill="#FFCACC" d="M288.812 284.511c-8-64.5 28.889-82.218 51.814-85.5 3.703 8 7.304 35.747 3.186 44.5-9.523 20.241-28.5 32-55 41M159.312 285.011c9-53-31.564-82.718-54.489-86-3.703 8-7.304 35.747-3.186 44.5 9.523 20.241 27.175 30 57.675 41.5"/><path stroke="#474847" stroke-linecap="round" stroke-linejoin="round" stroke-width="7" d="M185.646 291.686c-35.868-6.566-77.381-22.874-83.965-50.478-5.157-21.625 4.808-37.992 4.864-49.58.124-25.813 3.646-56.554 17.031-82.281m136.339 182.339c35.867-6.566 77.381-22.874 83.964-50.478 5.158-21.625-4.807-37.992-4.863-49.58-.125-25.813-3.647-56.554-17.031-82.281M149.306 77.7c17.09-13.49 40.728-22.076 73.261-22.15v-.002h.426v.002c32.533.074 56.171 8.66 73.261 22.15"/><ellipse cx="179.593" cy="210.011" fill="#474847" rx="10.28" ry="11"/><ellipse cx="269.032" cy="210.011" fill="#474847" rx="10.28" ry="11"/><path stroke="#474847" stroke-linecap="round" stroke-linejoin="round" stroke-width="7" d="M204.266 225.511s1.285 5 10.409 5c9.123 0 10.408-5 10.408-5s2.57 5 10.409 5 10.409-5 10.409-5"/></svg>