<svg xmlns="http://www.w3.org/2000/svg" width="450" height="450" fill="none"><path fill="#888886" d="M167 274.036c-55 34.645-38.833 74.144-13 109.458 97.967-12.546 163.647 10.097 199.5-18.577 27.276-21.816 37.709-87.679 29.5-137.577-.334 5.356-24.5 35.147-54.5 49.708-40.438 19.628-75.827-56.979-161.5-3.012"/><path fill="#666" d="M313.5 312.195c-51.2 2.411-132.667 17.741-167.5 30.127l-2 2.008c94.5 52.721 158.011 28.258 211 13.055 31.5-9.038 32-83.517 31.5-108.455-4.5 17.909-21.8 60.855-73 63.265"/><path stroke="#363636" stroke-linecap="round" stroke-linejoin="round" stroke-width="7" d="m311 324.246 12 16.57M339 321.233l13.5 18.076M364.5 311.191l9 13.055"/><path fill="#888886" d="M218.362 255.961c12.825.028 30.84 1.597 47.278 18.93 19.27 20.319 38.579 103.595 14.492 118.646-23.832 14.891-50.324-.735-61.77-.027v.027q-.09-.008-.181-.014-.091.006-.181.014v-.027c-11.446-.709-37.937 14.918-61.769.027-24.088-15.051-4.778-98.327 14.492-118.646 16.438-17.333 34.452-18.902 47.277-18.93z"/><path fill="#666" d="M255 399.562c5.924-1.785-2.304-40.351-6.5-56.738-4.5-17.574-11.5-44.687-32-44.687-16.5 2.008-25.764 26.717-30 44.687-2.959 12.553-11.342 52.437-4 56.738 6 3.515 20.425-5.523 35.5-5.523 14.5 0 32 7.029 37 5.523"/><path stroke="#363636" stroke-linecap="round" stroke-linejoin="round" stroke-width="7" d="M206 324.748h22.5M206 344.833h22.5M206 364.917h22.5"/><path fill="#888886" d="m124 343.828 38-24.603c26-7.532 37 62.261 19.5 80.839-13.5 2.51-53 6.527-60 9.54s-36 3.012-36-16.068c.8-21.289 26-42.009 38.5-49.708"/><path fill="#888886" d="M115.089 328.978c16.225 3.949 26.759 26.548 19.879 57.25-6.879 30.693-31.392 28.847-40.135 26.722v.001l-.004-.002h-.004v-.001c-8.741-2.13-31.376-11.758-23.5-42.208 7.878-30.454 27.541-45.703 43.764-41.762M314 343.828l-38-24.603c-26-7.532-37 62.261-19.5 80.839 13.5 2.51 53 6.527 60 9.54s36 3.012 36-16.068c-.8-21.289-26-42.009-38.5-49.708"/><path fill="#888886" d="M320.911 327.974c-16.224 3.948-26.759 26.548-19.878 57.249 6.878 30.693 31.391 28.847 40.134 26.722v.001l.004-.002h.004v-.001c8.742-2.13 31.377-11.758 23.5-42.207-7.877-30.454-27.541-45.704-43.764-41.762M162 413.621c-32.4-42.177-11.5-104.606 3-130.548 32-9.64 32.334 20.754 28.5 37.156-.5 10.879-1.2 34.645 0 42.679 1.5 10.042 11.5 13.557 16.5 32.135 4 14.862-7.333 23.264-13.5 25.607-7 2.845-23.7 5.423-34.5-7.029M273.707 413.621c32.4-42.177 11.5-104.606-3-130.548-32-9.64-32.334 20.754-28.5 37.156.5 10.879 1.2 34.645 0 42.679-1.5 10.042-11.5 13.557-16.5 32.135-4 14.862 7.333 23.264 13.5 25.607 7 2.845 23.7 5.423 34.5-7.029M326 64.156c-10.891-3.788-36.726 12.767-45.5 19.08-11.5 18.578 26 56.339 38 48.202 18.152-12.309 21.114-62.548 7.5-67.282M110.82 64.156c10.891-3.788 36.727 12.767 45.5 19.08 11.5 18.578-26 56.339-38 48.202-18.152-12.309-21.114-62.548-7.5-67.282"/><path fill="#888886" d="M218.404 66.166c94.186.216 109.727 76.009 109.985 129.541.053 11.031 9.5 26.612 4.611 47.198-8.688 36.579-81.537 52.32-114.798 51.22-33.26 1.101-106.11-14.64-114.798-51.22-4.889-20.586 4.558-36.167 4.611-47.198.257-53.532 15.799-129.325 109.985-129.541v-.002l.201.001h.203z"/><path stroke="#474847" stroke-linecap="round" stroke-linejoin="round" stroke-width="7" d="M130.5 336.799c0-19.08 0-40.169 37.5-62.763 86.721-52.252 110.119 14.133 154 4.519 27.5-6.026 60.167-47.868 60.5-53.223 9.929 56.415-4 111.467-22 130.547M181.5 400.064c16.266.212 28.661-7.039 36.5-6.554v.027q.09-.008.181-.014.091.006.181.014v-.027c7.781-.481 22.014 6.656 38.138 6.554M120.5 409.604c7-3.013 47.5-7.03 61-9.54M149 327.642l-19 12.301"/><path stroke="#474847" stroke-linecap="round" stroke-linejoin="round" stroke-width="7" d="M134.157 348.849c-3.706-10.692-10.615-17.814-19.068-19.871-16.223-3.941-35.887 11.309-43.764 41.762-7.877 30.45 14.758 40.079 23.5 42.209l.008.001c7.113 1.729 24.666 3.274 34.667-12.743M315.688 408.6c-7-3.013-47.5-7.03-61-9.54m32.499-72.422 19 12.301"/><path stroke="#474847" stroke-linecap="round" stroke-linejoin="round" stroke-width="7" d="M302.031 347.845c3.705-10.692 10.614-17.813 19.068-19.871 16.223-3.941 35.886 11.309 43.764 41.763 7.876 30.449-14.758 40.078-23.5 42.208l-.008.001c-7.113 1.729-24.667 3.274-34.667-12.743M326 64.156c-10.891-3.788-36.726 12.767-45.5 19.08-11.5 18.578 26 56.339 38 48.202 18.152-12.309 21.114-62.548 7.5-67.282M110.82 64.156c10.891-3.788 36.727 12.767 45.5 19.08 11.5 18.578-26 56.339-38 48.202-18.152-12.309-21.114-62.548-7.5-67.282"/><ellipse cx="166" cy="207.758" fill="#474847" rx="10" ry="11.046"/><ellipse cx="271" cy="207.758" fill="#474847" rx="10" ry="11.046"/><path fill="#888886" d="M162 413.621c-32.4-42.177-22.5-104.438-4-128.037 12.5 12.051 25 24.603 35.5 34.645-.5 10.879-1.2 34.646 0 42.679 1.5 10.042 11.5 13.557 16.5 32.135 4 14.862-7.333 23.264-13.5 25.607-7 2.846-23.7 5.423-34.5-7.029M274.191 413.621c34.81-48.202 18.309-104.438 3.309-128.539-14.69 14.059-22 20.084-34.809 35.147.5 10.879 1.2 34.646 0 42.679-1.5 10.042-11.5 13.557-16.5 32.135-4 14.862 7.333 23.264 13.5 25.607 7 2.846 23.7 5.423 34.5-7.029"/><path stroke="#474847" stroke-linecap="round" stroke-linejoin="round" stroke-width="7" d="M157 286.086c-17.5 26.11-27.4 85.358 5 127.535 10.8 12.452 27.5 9.875 34.5 7.03 6.167-2.344 17.5-10.745 13.5-25.608-5-18.578-15-22.092-16.5-32.134-.619-4.149-.732-12.492-.628-21.089M277.501 285.584c17.5 26.109 29.09 85.86-3.31 128.037-10.8 12.452-27.5 9.875-34.5 7.029-6.167-2.343-17.5-10.745-13.5-25.607 5-18.578 15-22.093 16.5-32.135.62-4.148.733-12.491.628-21.088"/><path fill="#888886" d="M218.404 66.166c94.186.216 109.728 76.009 109.986 129.541.053 11.031 9.5 26.612 4.611 47.198-8.688 36.58-81.538 52.321-114.799 51.22-33.26 1.101-106.11-14.64-114.798-51.22-4.889-20.586 4.559-36.167 4.612-47.198.257-53.533 15.798-129.325 109.985-129.541v-.002l.201.001h.202z"/><path fill="#E8B2B4" d="M170 289.099c.4-61.056-42.834-82.346-64.5-85.358-5 7.699-7.392 33.641-3.5 41.674 9 18.578 20 28.62 68 43.684M262.068 289.099c-.4-61.056 42.833-82.346 64.5-85.358 5 7.699 7.392 33.641 3.5 41.674-9 18.578-20 28.62-68 43.684"/><path stroke="#474847" stroke-linecap="round" stroke-linejoin="round" stroke-width="7" d="M183 290.958c-34.002-6.251-73.355-21.775-79.596-48.053-4.89-20.586 4.557-36.167 4.61-47.198.118-24.573 3.457-53.837 16.145-78.328m129.245 173.579c34.001-6.251 73.355-21.775 79.596-48.053 4.889-20.586-4.558-36.167-4.611-47.198-.118-24.573-3.457-53.837-16.145-78.328M148.551 87.252c16.2-12.841 38.609-21.015 69.449-21.086v-.002l.201.001h.203v.001c30.84.07 53.248 8.245 69.449 21.087"/><path stroke="#474847" stroke-linecap="round" stroke-linejoin="round" stroke-width="7" d="M149.5 234.37c-6.667-4.519-24.1-11.75-40.5-4.519-20.5 9.037-32.5 13.556-39 9.037M280 234.37c6.667-4.519 24.1-11.75 40.5-4.519 20.5 9.037 32.5 13.556 39 9.037"/><path fill="#F9DFB9" stroke="#474847" stroke-linecap="round" stroke-linejoin="round" stroke-width="7" d="M174.179 27c16.779 0 16.08 43.07 13.283 58.04-8.389 7.6-20.974 8.982-28.664 0V66.384c-6.292 0-16.08-.69-16.779-10.364-.559-7.739 11.419-10.595 16.779-10.364C158.332 40.128 160.755 27 174.179 27"/><path stroke="#474847" stroke-linecap="round" stroke-linejoin="round" stroke-width="7" d="M175 56.624h13.5M177 71.185h11.5"/><path fill="#F9DFB9" stroke="#474847" stroke-linecap="round" stroke-linejoin="round" stroke-width="7" d="M264.821 29.008c-16.779 0-16.08 43.07-13.283 58.04 8.389 7.6 20.974 8.983 28.664 0V68.393c6.292 0 16.08-.691 16.779-10.365.559-7.738-11.419-10.594-16.779-10.364.466-5.528-1.957-18.656-15.381-18.656"/><path stroke="#474847" stroke-linecap="round" stroke-linejoin="round" stroke-width="7" d="M265.5 56.624H252M263.5 71.185H252"/><ellipse cx="174.28" cy="210.77" fill="#474847" rx="10.28" ry="11.046"/><ellipse cx="263.72" cy="210.77" fill="#474847" rx="10.28" ry="11.046"/><path stroke="#474847" stroke-linecap="round" stroke-linejoin="round" stroke-width="7" d="M198.953 224.327s1.285 5.021 10.409 5.021 10.409-5.021 10.409-5.021 2.57 5.021 10.409 5.021 10.409-5.021 10.409-5.021"/></svg>