<svg width="114" height="114" viewBox="0 0 114 114" fill="none" xmlns="http://www.w3.org/2000/svg">
<circle cx="57" cy="57" r="55" fill="#76C7B0" stroke="#47A188" stroke-width="4" stroke-linecap="round"/>
<path d="M82.5872 25.1045C94.3581 33.9189 101.015 50.5465 99 70" stroke="#47A188" stroke-width="4" stroke-linecap="round"/>
<path d="M71.3794 32.8108C83 40.5 87.5 51 87.5 68.5" stroke="#47A188" stroke-width="4" stroke-linecap="round"/>
<path d="M55.9087 50.4077C60 52 63.5 59 63.5 63.5" stroke="#47A188" stroke-width="4" stroke-linecap="round"/>
<path d="M63 42C69.8557 45.4038 75.9916 55 75.9916 66.4447" stroke="#47A188" stroke-width="4" stroke-linecap="round"/>
<path d="M21 23C27.8333 43.3333 51.5 78 100 76.5" stroke="#47A188" stroke-width="4" stroke-linecap="round"/>
<path d="M15 33C23.5 54.5 44 85 93.5 85" stroke="#47A188" stroke-width="4" stroke-linecap="round"/>
<path d="M10.5 44C17.3333 64.3333 39.5 93 86 93" stroke="#47A188" stroke-width="4" stroke-linecap="round"/>
<path d="M8.5 58C15 75.5 39.5 103.5 77 101" stroke="#47A188" stroke-width="4" stroke-linecap="round"/>
<path d="M14.5 80.5C13 76 12.0002 70.5 12.0002 66" stroke="#47A188" stroke-width="4" stroke-linecap="round"/>
<path d="M24 91.5C22.4866 87.0575 21.2306 82.7197 20.4996 78.4999" stroke="#47A188" stroke-width="4" stroke-linecap="round"/>
<path d="M36.0001 100C34.6496 96.2563 33.2707 92.5872 32.5 89" stroke="#47A188" stroke-width="4" stroke-linecap="round"/>
<path d="M47.5001 105C46.2768 101.609 45.3006 98.2733 44.5503 94.9999" stroke="#47A188" stroke-width="4" stroke-linecap="round"/>
<path d="M39 12.5C33 16.5 28 21.5 24 29" stroke="#47A188" stroke-width="4" stroke-linecap="round"/>
<path d="M55.5 10.5C42.5 17.5 34.0005 28 29.5 39.5" stroke="#47A188" stroke-width="4" stroke-linecap="round"/>
<path d="M70.9998 12C54.4998 20 43.9998 30.5 36.999 49" stroke="#47A188" stroke-width="4" stroke-linecap="round"/>
<path d="M82.999 17.5C69.926 23.414 52.8734 34.5355 46.499 57" stroke="#47A188" stroke-width="4" stroke-linecap="round"/>
</svg>
