<svg width="400" height="400" viewBox="0 0 400 400" fill="none" xmlns="http://www.w3.org/2000/svg">
<path d="M325.516 90.6577C332.802 97.1818 343.743 118.043 329.763 139.552C309.867 157.296 283.177 147.98 277.396 142.139L277.392 142.143C277.361 142.109 277.33 142.073 277.298 142.038C277.264 142.004 277.231 141.971 277.199 141.937L277.203 141.933C271.721 135.773 261.085 110.448 281.71 88.4698C294.832 74.4881 319.393 82.8941 325.516 90.6577Z" fill="white"/>
<path d="M74.2265 91.131C61.9785 101.374 56.0933 125.199 71.1197 141.165C89.4022 157.296 118.648 151.098 124.713 144.988L124.717 144.993C124.75 144.957 124.783 144.92 124.816 144.883C124.851 144.847 124.886 144.812 124.92 144.777L124.916 144.773C130.667 138.329 143.305 114.123 121.665 91.131C106.639 75.1655 83.4873 80.9406 74.2265 91.131Z" fill="white"/>
<path d="M132.996 110.543C130.658 101.534 124.819 92.0179 112.553 84.936C93.6466 74.0204 71.8606 90.0006 67.5188 99.294C61.6413 107.701 58.695 134.558 77.6015 145.474C89.8677 152.556 101.028 152.854 109.999 150.374" stroke="#474847" stroke-width="7" stroke-linecap="round" stroke-linejoin="round"/>
<path d="M270.527 108.144C272.43 99.3856 277.615 90.2473 288.937 83.7101C306.389 73.6342 327.451 90.0327 331.852 99.2921C337.67 107.733 341.341 134.172 323.889 144.248C312.566 150.785 302.06 150.706 293.523 147.975" stroke="#474847" stroke-width="7" stroke-linecap="round" stroke-linejoin="round"/>
<ellipse cx="143.711" cy="238.492" rx="10.7544" ry="11.8298" fill="#474847"/>
<ellipse cx="256.632" cy="238.492" rx="10.7544" ry="11.8298" fill="#474847"/>
<path d="M199.135 86.8556V86.8577C165.968 86.9334 141.869 95.6869 124.447 109.44C114.166 116.247 102.676 133.785 98.2152 141.703C84.57 167.931 80.9794 199.27 80.8523 225.587C80.8262 231 78.6785 237.437 76.8653 244.944C76.0135 248.471 66.7675 252.233 66.318 256.236C65.6361 262.308 74.1776 268.934 75.8942 276.132C77.0665 281.047 72.7697 289.118 75.8942 293.339C78.6685 297.087 88.6809 297.057 92.6662 300.271C109.891 314.158 136.985 323.106 161.494 327.593C173.614 330.05 205.725 333.488 237.21 327.593C261.719 323.106 288.813 314.158 306.038 300.271C308.751 298.083 319.823 295.773 321.997 293.339C326.615 288.17 321.305 282.44 322.81 276.132C324.527 268.934 332.128 262.308 331.446 256.236C330.997 252.233 322.691 248.471 321.839 244.944C320.026 237.437 317.878 231 317.852 225.587C317.725 199.27 314.134 167.931 300.489 141.703C296.049 131.878 281.151 116.101 274.257 109.44C256.834 95.6869 232.736 86.9335 199.569 86.8577V86.8556C199.497 86.8556 199.424 86.8565 199.351 86.8566C199.279 86.8565 199.207 86.8556 199.135 86.8556Z" fill="white"/>
<path d="M152.315 325.602C152.745 260.215 106.25 237.416 82.949 234.19C80.0373 238.655 76.4964 247.633 66.2798 255.699C65.1265 264.098 74.5774 270.574 76.4964 274.519C78.8934 279.446 73.0159 287.84 76.4964 292.263C79.6227 296.236 84.6707 297.088 90.4771 300.329C104.31 308.049 124.353 318.612 152.315 325.602Z" fill="#FFCACC"/>
<path d="M246.859 325.602C246.429 260.215 292.924 237.416 316.225 234.19C319.137 238.655 322.677 247.633 332.894 255.699C334.047 264.098 324.596 270.574 322.677 274.519C320.28 279.446 326.158 287.84 322.677 292.263C319.551 296.236 314.503 297.088 308.697 300.329C294.864 308.049 274.82 318.612 246.859 325.602Z" fill="#FFCACC"/>
<path d="M181.889 89.0059C195.225 85.1345 205.37 87.3928 208.775 89.0059C209.139 92.9833 209.471 97.5405 209.731 102.426C219.278 102.079 232.111 103.676 232.145 112.104C232.179 120.455 219.701 121.59 210.264 120.897C210.272 124.035 210.235 127.184 210.143 130.291C218.697 130.63 227.749 132.89 227.777 139.966C227.807 147.503 217.648 149.163 208.73 148.907C206.944 162.035 203.383 171.635 196.946 171.814C190.425 171.995 186.472 162.27 184.187 148.874C175.081 149.259 164.272 147.74 164.302 139.966C164.331 132.842 173.506 130.599 182.111 130.285C181.905 127.207 181.75 124.087 181.64 120.977C172.389 121.477 160.978 120.09 161.01 112.104C161.041 104.242 172.212 102.323 181.462 102.383C181.532 97.5207 181.684 92.98 181.889 89.0059Z" fill="#717171"/>
<path d="M118.976 243.869C121.987 236.986 94.4204 233.115 80.2605 232.039L77.0342 241.718C89.7602 245.303 115.965 250.752 118.976 243.869Z" fill="#717171"/>
<path d="M116.226 270.163C116.788 262.671 89.494 268.146 75.7767 271.819L75.9372 282.021C89.1323 281.189 115.663 277.654 116.226 270.163Z" fill="#717171"/>
<path d="M279.444 243.869C276.432 236.986 304 233.115 318.159 232.039L321.386 241.718C308.66 245.303 282.455 250.752 279.444 243.869Z" fill="#717171"/>
<path d="M282.194 270.163C281.632 262.671 308.926 268.146 322.643 271.819L322.483 282.021C309.288 281.189 282.757 277.654 282.194 270.163Z" fill="#717171"/>
<path d="M98.2152 141.703C84.57 167.931 80.9794 199.27 80.8523 225.587C80.8262 231 78.6785 237.437 76.8653 244.944C76.0135 248.471 66.7675 252.233 66.318 256.236C65.6361 262.308 74.1776 268.934 75.8942 276.132C77.0665 281.047 72.7697 289.118 75.8942 293.339C78.6685 297.087 88.6809 297.057 92.6662 300.271C109.891 314.158 136.985 323.106 161.494 327.593C176.941 332 220.624 331.414 237.21 327.593C261.719 323.106 288.813 314.158 306.038 300.271C308.751 298.083 319.823 295.773 321.997 293.339C326.615 288.17 321.305 282.44 322.81 276.132C324.527 268.934 332.128 262.308 331.446 256.236C330.997 252.233 322.691 248.471 321.839 244.944C320.026 237.437 317.878 231 317.852 225.587C317.725 199.27 314.134 167.931 300.489 141.703M124.447 109.44C141.869 95.6869 165.968 86.9334 199.135 86.8577V86.8556C199.207 86.8556 199.279 86.8565 199.351 86.8566C199.424 86.8565 199.497 86.8556 199.569 86.8556V86.8577C232.736 86.9335 256.834 95.6869 274.257 109.44" stroke="#474847" stroke-width="7" stroke-linecap="round" stroke-linejoin="round"/>
<ellipse cx="151.541" cy="247.095" rx="11.0559" ry="11.8298" fill="#474847"/>
<ellipse cx="247.728" cy="247.095" rx="11.0559" ry="11.8298" fill="#474847"/>
<path d="M214.384 250.595C223.992 250.595 230.549 256.867 230.549 263.227C230.549 269.587 223.991 275.858 214.384 275.858C209.455 275.858 207.274 274.959 205.98 274.261C205.612 274.062 205.277 273.858 204.896 273.624C204.545 273.406 204.088 273.12 203.618 272.869C202.573 272.31 201.298 271.826 199.635 271.826C197.972 271.826 196.697 272.31 195.651 272.869C195.181 273.12 194.725 273.406 194.373 273.624C193.993 273.858 193.657 274.062 193.288 274.261C191.995 274.959 189.814 275.858 184.886 275.858C175.278 275.858 168.721 269.587 168.721 263.227C168.721 256.867 175.278 250.595 184.886 250.595C190.069 250.595 191.923 251.074 193.092 251.442C194.597 251.916 196.086 252.612 199.635 252.612C203.184 252.612 204.672 251.916 206.178 251.442C207.346 251.074 209.201 250.595 214.384 250.595Z" fill="#E9E9E9" stroke="#474847" stroke-width="7" stroke-linecap="round" stroke-linejoin="round"/>
<path d="M192.942 256.623C198.309 259.713 199.853 259.672 204.529 256.623C210.424 252.778 203.309 250.322 199.04 250.322C194.772 250.322 187.576 253.533 192.942 256.623Z" fill="#474847"/>
</svg>
