<svg width="400" height="400" viewBox="0 0 400 400" fill="none" xmlns="http://www.w3.org/2000/svg">
<path d="M200.486 86.002C294.672 86.2172 310.213 161.692 310.47 215C310.523 225.985 319.971 241.5 315.082 262C306.394 298.426 233.544 314.101 200.284 313.005C167.023 314.101 94.1738 298.426 85.486 262C80.5967 241.5 90.0433 225.985 90.0963 215C90.3537 161.692 105.896 86.217 200.082 86.002V86C200.149 86 200.216 86.0009 200.283 86.001C200.35 86.0009 200.418 86 200.486 86V86.002Z" fill="#888886"/>
<ellipse cx="148.081" cy="227" rx="10" ry="11" fill="#474847"/>
<ellipse cx="253.081" cy="227" rx="10" ry="11" fill="#474847"/>
<path d="M200.422 86.002C294.607 86.2172 310.15 161.692 310.407 215C310.46 225.985 319.907 241.5 315.017 262C306.33 298.426 233.48 314.101 200.219 313.005C166.959 314.101 94.1094 298.426 85.4215 262C80.5322 241.5 89.9789 225.985 90.0319 215C90.2892 161.692 105.831 86.217 200.017 86.002V86C200.084 86 200.151 86.0009 200.218 86.001C200.286 86.0009 200.354 86 200.422 86V86.002Z" fill="#888886"/>
<path d="M169.494 294.037C141.481 297.041 103.675 277.264 87 267C91 288.78 142.482 312.437 199.509 313.939C256.535 315.441 320.003 280.525 313.5 262.5C283.339 294.037 250.533 294.037 232.024 294.037C213.515 294.037 209.513 288.404 199.509 288.78C189.504 289.155 186.503 294.037 169.494 294.037Z" fill="#F0E9C2"/>
<path d="M153.935 308C154.335 247.2 111.102 226 89.4353 223C84.4353 230.667 82.0434 256.5 85.9353 264.5C94.9353 283 105.935 293 153.935 308Z" fill="#E8B2B4"/>
<path d="M246.002 308C245.602 247.2 288.836 226 310.502 223C315.502 230.667 317.894 256.5 314.002 264.5C305.002 283 294.002 293 246.002 308Z" fill="#E8B2B4"/>
<path d="M200.422 86.002C294.607 86.2172 310.15 161.692 310.407 215C310.46 225.985 319.907 241.5 315.017 262C306.33 298.426 233.48 314.101 200.219 313.005C166.959 314.101 94.1094 298.426 85.4215 262C80.5322 241.5 89.9789 225.985 90.0319 215C90.2892 161.692 105.831 86.217 200.017 86.002V86C200.084 86 200.151 86.0009 200.218 86.001C200.286 86.0009 200.354 86 200.422 86V86.002Z" stroke="#474847" stroke-width="7" stroke-linecap="round" stroke-linejoin="round"/>
<ellipse cx="154.28" cy="234" rx="10.2804" ry="11" fill="#474847"/>
<ellipse cx="243.72" cy="234" rx="10.2804" ry="11" fill="#474847"/>
<path d="M178.953 255.5C178.953 255.5 180.238 260.5 189.362 260.5C198.486 260.5 199.771 255.5 199.771 255.5C199.771 255.5 202.341 260.5 210.18 260.5C218.019 260.5 220.589 255.5 220.589 255.5" stroke="#474847" stroke-width="7" stroke-linecap="round" stroke-linejoin="round"/>
</svg>
