<svg width="400" height="400" viewBox="0 0 400 400" fill="none" xmlns="http://www.w3.org/2000/svg">
<path d="M311 103.156C300.109 99.3683 274.274 115.923 265.5 122.236C254 140.814 291.5 178.575 303.5 170.438C321.652 158.129 324.614 107.89 311 103.156Z" fill="#FDF7D6"/>
<path d="M95.8199 103.156C106.711 99.3683 132.547 115.923 141.32 122.236C152.82 140.814 115.32 178.575 103.32 170.438C85.1682 158.129 82.2061 107.89 95.8199 103.156Z" fill="#FDF7D6"/>
<path d="M203.404 105.166C297.59 105.382 313.131 181.175 313.388 234.707C313.441 245.738 322.889 261.319 318 281.905C309.312 318.484 236.462 334.225 203.202 333.125C169.941 334.226 97.0918 318.485 88.404 281.905C83.5147 261.319 92.9613 245.738 93.0143 234.707C93.2716 181.175 108.814 105.382 203 105.166V105.164C203.067 105.164 203.134 105.165 203.201 105.165C203.268 105.165 203.336 105.164 203.404 105.164V105.166Z" fill="#FDF7D6"/>
<path d="M311 103.156C300.109 99.3683 274.274 115.923 265.5 122.236C254 140.814 291.5 178.575 303.5 170.438C321.652 158.129 324.614 107.89 311 103.156Z" stroke="#474847" stroke-width="7" stroke-linecap="round" stroke-linejoin="round"/>
<path d="M95.8209 103.156C106.712 99.3683 132.548 115.923 141.321 122.236C152.821 140.814 115.321 178.575 103.321 170.438C85.1692 158.129 82.207 107.89 95.8209 103.156Z" stroke="#474847" stroke-width="7" stroke-linecap="round" stroke-linejoin="round"/>
<ellipse cx="151.001" cy="246.758" rx="10" ry="11.0463" fill="#474847"/>
<ellipse cx="256.001" cy="246.758" rx="10" ry="11.0463" fill="#474847"/>
<path d="M203.404 105.166C297.59 105.382 313.132 181.175 313.39 234.707C313.443 245.738 322.89 261.319 318.001 281.905C309.313 318.485 236.463 334.226 203.202 333.125C169.942 334.226 97.0923 318.485 88.4043 281.905C83.515 261.319 92.9626 245.738 93.0156 234.707C93.273 181.174 108.814 105.382 203.001 105.166V105.164C203.068 105.164 203.135 105.165 203.202 105.165C203.269 105.165 203.337 105.164 203.404 105.164V105.166Z" fill="#FDF7D6"/>
<path d="M155 328.099C155.4 267.043 112.166 245.754 90.4998 242.741C85.4998 250.44 83.1078 276.382 86.9997 284.416C95.9998 302.994 107 313.036 155 328.099Z" fill="#FFD5CA"/>
<path d="M247.068 328.099C246.668 267.043 289.901 245.754 311.568 242.741C316.568 250.44 318.96 276.382 315.068 284.416C306.068 302.994 295.068 313.036 247.068 328.099Z" fill="#FFD5CA"/>
<path d="M109.159 156.379C96.4712 180.87 93.1324 210.134 93.0143 234.707C92.9613 245.738 83.5147 261.319 88.404 281.905C94.6451 308.183 133.998 323.707 168 329.958C190 334.003 220.236 334.325 238.404 329.958C272.405 323.707 311.759 308.183 318 281.905C322.889 261.319 313.442 245.738 313.389 234.707C313.271 210.134 309.932 180.87 297.244 156.379M133.551 126.252C149.751 113.41 172.16 105.237 203 105.166V105.164C203.067 105.164 203.134 105.165 203.201 105.165C203.268 105.165 203.336 105.164 203.404 105.164V105.166C234.244 105.237 256.652 113.411 272.853 126.252" stroke="#474847" stroke-width="7" stroke-linecap="round" stroke-linejoin="round"/>
<path d="M134.5 273.369C127.833 268.85 110.4 261.62 94 268.85C73.5 277.888 61.5 282.407 55 277.888" stroke="#474847" stroke-width="7" stroke-linecap="round" stroke-linejoin="round"/>
<path d="M265 273.369C271.667 268.85 289.1 261.62 305.5 268.85C326 277.888 338 282.407 344.5 277.888" stroke="#474847" stroke-width="7" stroke-linecap="round" stroke-linejoin="round"/>
<path d="M159.179 66C175.958 66 175.259 109.069 172.462 124.04C164.073 131.641 151.488 133.022 143.798 124.04V105.384C137.506 105.384 127.718 104.693 127.019 95.0201C126.46 87.2814 138.438 84.4254 143.798 84.6557C143.332 79.1281 145.755 66 159.179 66Z" fill="#A2978A" stroke="#474847" stroke-width="7" stroke-linecap="round" stroke-linejoin="round"/>
<path d="M160 95.6243H173.5" stroke="#474847" stroke-width="7" stroke-linecap="round" stroke-linejoin="round"/>
<path d="M162 110.185H173.5" stroke="#474847" stroke-width="7" stroke-linecap="round" stroke-linejoin="round"/>
<path d="M249.821 68.0083C233.042 68.0083 233.741 111.078 236.538 126.048C244.927 133.649 257.512 135.031 265.202 126.048V107.393C271.494 107.393 281.282 106.702 281.981 97.0284C282.54 89.2897 270.562 86.4337 265.202 86.664C265.668 81.1364 263.245 68.0083 249.821 68.0083Z" fill="#A2978A" stroke="#474847" stroke-width="7" stroke-linecap="round" stroke-linejoin="round"/>
<path d="M250.5 95.624H237" stroke="#474847" stroke-width="7" stroke-linecap="round" stroke-linejoin="round"/>
<path d="M248.5 110.185H237" stroke="#474847" stroke-width="7" stroke-linecap="round" stroke-linejoin="round"/>
<ellipse cx="159.28" cy="249.77" rx="10.2804" ry="11.0463" fill="#474847"/>
<ellipse cx="248.72" cy="249.77" rx="10.2804" ry="11.0463" fill="#474847"/>
<path d="M183.953 263.327C183.953 263.327 185.238 268.348 194.362 268.348C203.486 268.348 204.771 263.327 204.771 263.327C204.771 263.327 207.341 268.348 215.18 268.348C223.019 268.348 225.589 263.327 225.589 263.327" stroke="#474847" stroke-width="7" stroke-linecap="round" stroke-linejoin="round"/>
</svg>
