<svg width="400" height="400" viewBox="0 0 400 400" fill="none" xmlns="http://www.w3.org/2000/svg">
<path d="M50.6556 186.675C58.2107 177.815 87.0374 166.763 104.71 184.178C130.162 209.258 117.036 238.157 110.273 245.186L110.277 245.191C110.238 245.229 110.196 245.267 110.156 245.306C110.116 245.346 110.078 245.387 110.038 245.426L110.034 245.421C102.901 252.086 73.5731 265.02 48.122 239.94C30.449 222.525 41.6651 194.119 50.6556 186.675Z" fill="#FDF7D6"/>
<path d="M350.042 185.813C359.014 193.352 370.206 222.117 352.57 239.753C327.173 265.15 297.908 252.052 290.79 245.303L290.786 245.308C290.746 245.269 290.708 245.227 290.669 245.186C290.628 245.147 290.586 245.109 290.547 245.07L290.552 245.065C283.803 237.947 270.705 208.682 296.102 183.285C313.738 165.649 342.503 176.842 350.042 185.813Z" fill="#FDF7D6"/>
<path d="M342.908 196.987C349.636 202.641 358.031 224.215 344.804 237.442C325.756 256.489 303.807 246.666 298.469 241.604L298.465 241.608C298.436 241.578 298.408 241.547 298.378 241.517C298.347 241.487 298.316 241.459 298.287 241.429L298.29 241.426C293.228 236.087 283.405 214.138 302.453 195.091C315.68 181.864 337.254 190.258 342.908 196.987Z" fill="#FEFFEC"/>
<path d="M61.8041 196.987C55.0755 202.641 46.6813 224.215 59.9078 237.442C78.9556 256.489 100.905 246.666 106.243 241.604L106.247 241.608C106.276 241.578 106.304 241.547 106.334 241.517C106.365 241.487 106.396 241.459 106.425 241.429L106.422 241.426C111.484 236.087 121.307 214.138 102.259 195.091C89.0324 181.864 67.4583 190.258 61.8041 196.987Z" fill="#FEFFEC"/>
<path d="M202.764 95.2063C297.865 95.4237 313.558 171.633 313.818 225.459C313.871 236.551 323.411 252.217 318.474 272.916C309.702 309.696 236.144 325.524 202.559 324.417C168.976 325.524 95.4175 309.696 86.6452 272.916C81.7083 252.217 91.2468 236.551 91.3003 225.459C91.5602 171.632 107.253 95.4235 202.355 95.2063V95.2043C202.423 95.2043 202.491 95.2053 202.559 95.2053C202.627 95.2053 202.695 95.2043 202.764 95.2043V95.2063Z" fill="#FDF7D6"/>
<path d="M280.595 207.224C283.296 196.813 290.043 185.817 304.217 177.633C326.065 165.019 351.24 183.485 356.258 194.225C363.049 203.939 366.454 234.975 344.606 247.589C330.432 255.772 317.536 256.117 307.169 253.251" stroke="#474847" stroke-width="7" stroke-linecap="round" stroke-linejoin="round"/>
<path d="M308.882 220.915C312.752 218.896 323.119 215.463 333.62 217.886" stroke="#474847" stroke-width="7" stroke-linecap="round" stroke-linejoin="round"/>
<path d="M91.2861 220.915C87.4155 218.896 77.049 215.463 66.5479 217.886" stroke="#474847" stroke-width="7" stroke-linecap="round" stroke-linejoin="round"/>
<path d="M119.907 207.224C117.206 196.813 110.459 185.817 96.2846 177.633C74.4369 165.019 49.2616 183.485 44.2444 194.225C37.4525 203.939 34.0479 234.975 55.8956 247.589C70.0701 255.772 82.9663 256.117 93.3334 253.251" stroke="#474847" stroke-width="7" stroke-linecap="round" stroke-linejoin="round"/>
<path d="M202.764 95.2063C297.866 95.4233 313.56 171.633 313.819 225.459C313.873 236.551 323.411 252.217 318.475 272.916C309.702 309.697 236.14 325.525 202.558 324.417C168.973 325.523 95.4177 309.696 86.6455 272.916C81.7087 252.217 91.2471 236.551 91.3008 225.459C91.5606 171.633 107.254 95.4233 202.356 95.2063V95.2043C202.424 95.2043 202.492 95.2052 202.56 95.2053C202.628 95.2052 202.696 95.2043 202.764 95.2043V95.2063Z" fill="#FEFFEC"/>
<path d="M200.337 190.623C149.346 151.749 115.52 213.847 104.413 240.605C93.306 279.984 115.52 295.635 133.19 313.81C71.092 290.586 84.2184 248.178 91.2865 229.498C89.7719 212.332 95.3254 87.6313 200.337 94.1945C209.872 94.7905 220.531 94.1945 241.918 74C248.804 87.6313 243.755 94.1945 241.918 101.263C307.377 121.395 312.648 178.165 313.931 229.498C331.601 281.499 296.261 306.742 266.474 313.81C313.426 295.13 299.29 249.692 296.261 237.071C293.232 224.449 253.852 145.186 200.337 190.623Z" fill="#FDF7D6"/>
<path d="M155.909 319.363C156.313 257.972 112.66 236.566 90.7821 233.537C85.7335 241.278 83.3183 267.362 87.2481 275.44C96.3356 294.12 107.443 304.217 155.909 319.363Z" fill="#FFD5CA"/>
<path d="M248.872 319.363C248.468 257.972 292.122 236.566 313.999 233.537C319.048 241.278 321.463 267.362 317.533 275.44C308.446 294.12 297.339 304.217 248.872 319.363Z" fill="#FFD5CA"/>
<path d="M318.474 272.916C323.411 252.217 313.872 236.55 313.819 225.459C313.599 180.034 302.389 118.668 241.735 100.488C247.289 94.1945 244.764 82.5827 241.735 74C223.56 93.6897 209.592 95.2218 202.764 95.2062V95.2043C202.696 95.2043 202.627 95.2052 202.559 95.2052C202.492 95.2052 202.423 95.2043 202.355 95.2043V95.2062C107.253 95.4235 91.5602 171.632 91.3003 225.459C91.2468 236.55 81.7083 252.217 86.6452 272.916C92.947 299.338 132.683 314.948 167.015 321.233C179.246 324.345 210.587 328.702 238.104 321.233C272.436 314.948 312.172 299.338 318.474 272.916Z" stroke="#474847" stroke-width="7" stroke-linecap="round" stroke-linejoin="round"/>
<ellipse cx="157.202" cy="245.653" rx="10.3804" ry="11.107" fill="#474847"/>
<ellipse cx="247.067" cy="245.653" rx="10.3804" ry="11.107" fill="#474847"/>
<path d="M182.114 259.285C182.114 259.285 183.412 264.333 192.624 264.333C201.837 264.333 203.134 259.285 203.134 259.285C203.134 259.285 205.73 264.333 213.645 264.333C221.56 264.333 224.155 259.285 224.155 259.285" stroke="#474847" stroke-width="7" stroke-linecap="round" stroke-linejoin="round"/>
<path d="M197.083 252.58C202.121 255.48 203.572 255.442 207.962 252.58C213.496 248.97 206.816 246.663 202.809 246.663C198.801 246.663 192.045 249.679 197.083 252.58Z" fill="#474847"/>
</svg>
