<svg width="400" height="400" viewBox="0 0 400 400" fill="none" xmlns="http://www.w3.org/2000/svg">
<path d="M313.934 86.0891C302.296 82.0804 274.688 99.6026 265.313 106.284C253.024 125.947 293.096 165.914 305.919 157.302C325.316 144.274 328.481 91.0998 313.934 86.0891Z" fill="#FFD8D4"/>
<path d="M85.9152 86.0891C97.3593 82.0804 124.507 99.6026 133.726 106.284C145.81 125.947 106.406 165.914 93.7962 157.302C74.7226 144.274 71.61 91.0998 85.9152 86.0891Z" fill="#FFD8D4"/>
<path d="M200.214 87.5021C299.91 87.7296 316.361 167.506 316.633 223.853C316.689 235.463 326.689 251.863 321.514 273.531C312.318 312.034 235.207 328.602 200 327.443C164.794 328.602 87.6822 312.034 78.4861 273.531C73.3107 251.863 83.31 235.463 83.3662 223.853C83.6386 167.506 100.09 87.7294 199.786 87.5021V87.5C199.857 87.5 199.928 87.501 199.999 87.501C200.07 87.501 200.142 87.5 200.214 87.5V87.5021Z" fill="#FFD8D4"/>
<path d="M313.934 86.0891C302.296 82.0804 274.688 99.6026 265.313 106.284C253.024 125.947 293.096 165.914 305.919 157.302C325.316 144.274 328.481 91.0998 313.934 86.0891Z" stroke="#474847" stroke-width="7" stroke-linecap="round" stroke-linejoin="round"/>
<path d="M85.9152 86.0891C97.3593 82.0804 124.507 99.6026 133.726 106.284C145.81 125.947 106.406 165.914 93.7962 157.302C74.7226 144.274 71.61 91.0998 85.9152 86.0891Z" stroke="#474847" stroke-width="7" stroke-linecap="round" stroke-linejoin="round"/>
<ellipse cx="148.917" cy="238.5" rx="10" ry="11" fill="#474847"/>
<ellipse cx="253.917" cy="238.5" rx="10" ry="11" fill="#474847"/>
<path d="M200.255 87.7383C299.918 87.9657 316.363 167.83 316.636 224.237C316.692 235.861 326.688 252.279 321.515 273.971C312.321 312.515 235.235 329.101 200.041 327.94C164.846 329.1 87.7616 312.514 78.5684 273.971C73.3948 252.279 83.3912 235.861 83.4473 224.237C83.7196 167.83 100.165 87.9657 199.828 87.7383V87.7363C199.899 87.7363 199.97 87.7372 200.041 87.7373C200.112 87.7372 200.184 87.7363 200.255 87.7363V87.7383Z" fill="#FFD8D4"/>
<path d="M135.318 299.472C124.296 289.03 131.919 260.688 147.417 259C162.916 257.312 175.417 237 201.417 237C227.417 237 230.417 251.721 249.417 256C268.417 260.279 274.86 283.927 268.417 294.5C260.364 307.717 238.495 321.5 203.77 321.5C167.221 321.5 151.107 314.432 135.318 299.472Z" fill="#FDFFFF"/>
<path d="M265.417 317.5C264.994 250.978 295.306 233.782 318.231 230.5C321.934 238.5 325.535 266.247 321.417 275C311.894 295.241 292.917 303 265.417 317.5Z" fill="#FFA6A8"/>
<path d="M132.917 316.5C133.34 249.978 105.353 233.782 82.4277 230.5C78.7244 238.5 75.1236 266.247 79.2415 275C88.7642 295.241 105.417 302 132.917 316.5Z" fill="#FFA6A8"/>
<path d="M100.456 141.496C87.0253 167.316 83.4912 198.169 83.3662 224.077C83.31 235.707 73.3107 252.133 78.4861 273.837C85.0924 301.542 126.748 317.909 162.738 324.5C182.199 328.064 216.512 329.567 237.262 324.5C273.252 317.909 314.908 301.542 321.514 273.837C326.689 252.133 316.69 235.707 316.634 224.077C316.509 198.169 312.975 167.316 299.544 141.496M126.274 109.733C143.423 96.1942 167.142 87.5766 199.786 87.5021V87.5C199.857 87.5 199.928 87.501 199.999 87.501C200.07 87.501 200.142 87.5 200.214 87.5V87.5021C232.858 87.5767 256.577 96.1942 273.726 109.733" stroke="#474847" stroke-width="7" stroke-linecap="round" stroke-linejoin="round"/>
<path d="M164.235 87.3354C189.96 61.3726 218.817 76.5176 230.031 87.3354C245.367 112.461 211.324 158 199.359 158C189.465 158 176.108 139.68 169.182 126.593C167.599 129.944 169.182 136.015 171.656 140.726C155.66 132.875 145.045 106.703 164.235 87.3354Z" fill="#F0998F" stroke="#474847" stroke-width="7" stroke-linecap="round" stroke-linejoin="round"/>
<path d="M164.235 87.3354C189.96 61.3726 218.817 76.5176 230.031 87.3354C245.367 112.461 211.324 158 199.359 158C189.465 158 176.108 139.68 169.182 126.593C167.599 129.944 169.182 136.015 171.656 140.726C155.66 132.875 145.045 106.703 164.235 87.3354Z" stroke="#474847" stroke-width="7" stroke-linecap="round" stroke-linejoin="round"/>
<ellipse cx="156.197" cy="242.5" rx="10.2804" ry="11" fill="#474847"/>
<ellipse cx="245.637" cy="242.5" rx="10.2804" ry="11" fill="#474847"/>
<path d="M180.87 258C180.87 258 182.155 263 191.279 263C200.403 263 201.688 258 201.688 258C201.688 258 204.258 263 212.097 263C219.936 263 222.506 258 222.506 258" stroke="#474847" stroke-width="7" stroke-linecap="round" stroke-linejoin="round"/>
</svg>
