<svg width="400" height="400" viewBox="0 0 400 400" fill="none" xmlns="http://www.w3.org/2000/svg">
<path d="M49.8453 148.944C62.3497 141.911 103.809 114.493 116.881 105.348C133.472 110.336 119.809 187.353 89.6153 187.353C80.345 187.353 64.531 184.741 54.7154 177.429C45.4451 170.523 31.8123 159.088 49.8453 148.944Z" fill="#FFF5F5"/>
<path d="M349.147 150.969C336.795 143.935 295.842 116.518 282.929 107.373C266.54 112.361 280.037 189.378 309.862 189.378C319.02 189.378 334.641 186.766 344.337 179.454C353.494 172.547 366.96 161.113 349.147 150.969Z" fill="#FFF5F5"/>
<ellipse cx="146.878" cy="225.825" rx="10.1241" ry="11.1365" fill="#474847"/>
<ellipse cx="253.182" cy="225.825" rx="10.1241" ry="11.1365" fill="#474847"/>
<path d="M45.1307 155.462C49.1803 152.627 94.064 123.234 116 108.891C129.667 137.239 97.7761 186.341 80.5651 186.847C63.3541 187.353 54.476 179.254 51.2052 175.71C45.1307 169.13 40.0686 159.006 45.1307 155.462Z" stroke="#474847" stroke-width="7" stroke-linecap="round" stroke-linejoin="round"/>
<path d="M356.173 155.462C352.123 152.627 307.24 123.234 285.304 108.891C271.637 137.239 303.528 186.341 320.739 186.847C337.95 187.353 346.828 179.254 350.099 175.71C356.173 169.13 361.235 159.006 356.173 155.462Z" stroke="#474847" stroke-width="7" stroke-linecap="round" stroke-linejoin="round"/>
<path d="M201.042 84.8084C208.102 78.916 226.633 70.6666 244.281 84.8084C261.93 84.8088 298.992 108.069 298.992 129.467C306.052 140.632 338.702 175.988 326.348 226.229C332.525 260.653 312.229 278.331 298.992 279.261C298.992 296.939 264.577 309.964 244.281 302.521C233.692 312.197 211.043 313.376 201.042 312.756C191.041 313.376 168.392 312.197 157.802 302.521C137.506 309.964 103.091 296.939 103.091 279.261C89.8548 278.331 69.5587 260.653 75.7358 226.229C63.3816 175.987 96.0318 140.632 103.091 129.467C103.091 108.068 140.154 84.8084 157.802 84.8084C175.451 70.6668 193.982 78.916 201.042 84.8084Z" fill="#FFD8D4"/>
<path d="M162.375 157.993C167.199 162.157 175.027 165.925 186.404 165.369C189.573 170.361 208.054 178.68 219.671 169.806C226.038 171.349 244.21 171.936 248.92 161.394C248.92 168.142 252.564 171.192 263.498 179.789C271.947 186.432 281.892 186.999 284.62 190.882C291.16 200.19 294.308 208.095 296.926 218.613C299.774 230.057 300.744 241.641 300.804 252.11C300.852 260.535 301.369 266.796 296.926 282.52C290.136 306.546 269.186 311.133 244.327 309.425C236.203 314.621 232.649 320.971 205.739 320.971C193.423 321.314 166.643 317.267 158.011 309.425C140.992 312.892 116.76 307.004 105.876 285.051C101.432 269.327 100.47 260.535 100.518 252.11C100.572 242.655 101.369 232.291 103.621 221.941C105.774 212.045 109.258 202.162 114.695 193.1C119.604 184.919 120.926 194.448 140.992 179.789C161.058 165.13 157.889 165.369 161.793 158.159C161.986 158.103 162.18 158.048 162.375 157.993Z" fill="#FFF5F5"/>
<path d="M246.601 308.842C246.196 247.288 303.634 230.38 325.569 227.343C330.631 235.105 325.501 265.309 316.964 270.371C312.093 273.259 308.358 276.445 299.753 279.483C296.715 297.706 263.556 315.846 246.601 308.842Z" fill="#FFA6A8"/>
<path d="M156.474 308.842C156.879 247.288 99.4416 230.38 77.506 227.343C72.4439 235.105 77.5743 265.309 86.1115 270.371C90.982 273.259 94.7171 276.445 103.323 279.483C106.36 297.706 139.519 315.846 156.474 308.842Z" fill="#FFA6A8"/>
<path d="M298.992 129.485C298.992 108.079 261.93 84.8114 244.281 84.811C226.633 70.6646 208.102 78.9166 201.042 84.811C193.982 78.9166 175.451 70.6647 157.802 84.811C140.154 84.811 103.091 108.078 103.091 129.485M77.8247 174.223C73.002 188.863 70.8512 206.406 75.7358 226.277C69.5587 260.713 89.8548 278.396 103.091 279.327C103.091 297.01 137.506 316.114 157.802 308.669C160.748 311.361 164.626 313.396 168.906 314.917C180.056 320.889 208.52 329.251 233.178 314.917C237.458 313.396 241.336 311.361 244.281 308.669C264.577 316.114 298.992 297.01 298.992 279.327C312.229 278.396 332.525 260.713 326.348 226.277C331.233 206.406 329.082 188.863 324.259 174.223" stroke="#474847" stroke-width="7" stroke-linecap="round" stroke-linejoin="round"/>
<path d="M155.268 129.646C153.635 141.808 158.108 165.933 189.058 165.133C199.243 174.73 213.697 175.204 221.291 168.623C227.494 170.623 245.263 171.346 247.613 162.549" stroke="#474847" stroke-width="7" stroke-linecap="round" stroke-linejoin="round"/>
<path d="M109.419 195.452C124.697 190.628 157.021 176.586 164.089 159.005" stroke="#474847" stroke-width="7" stroke-linecap="round" stroke-linejoin="round"/>
<path d="M247.106 163.055C252.843 173.348 269.177 192.921 288.615 188.871" stroke="#474847" stroke-width="7" stroke-linecap="round" stroke-linejoin="round"/>
<ellipse cx="155.261" cy="244.048" rx="10.408" ry="11.1365" fill="#474847"/>
<ellipse cx="245.811" cy="244.048" rx="10.408" ry="11.1365" fill="#474847"/>
<path d="M180.24 257.716C180.24 257.716 181.541 262.778 190.778 262.778C200.015 262.778 201.316 257.716 201.316 257.716C201.316 257.716 203.918 262.778 211.854 262.778C219.791 262.778 222.393 257.716 222.393 257.716" stroke="#474847" stroke-width="7" stroke-linecap="round" stroke-linejoin="round"/>
<path d="M195.249 250.993C200.301 253.901 201.755 253.863 206.156 250.993C211.706 247.374 205.008 245.061 200.989 245.061C196.971 245.061 190.197 248.084 195.249 250.993Z" fill="#474847"/>
</svg>
