<svg width="400" height="400" viewBox="0 0 400 400" fill="none" xmlns="http://www.w3.org/2000/svg">
<path d="M96.4617 150.584C77.6307 138.028 74.6574 104.299 84.5313 93.2194C87.7897 89.5633 92.3442 92.5621 98.7232 92.9661C103.019 93.2382 108.71 90.0943 113.247 91.4072C122.738 94.1534 131.724 98.4716 135.884 101.414C147.814 120.365 108.911 158.885 96.4617 150.584Z" fill="#FFD8D4"/>
<path d="M315.184 93.2194C305.141 81.9513 272.933 94.9754 263.831 101.414C251.901 120.365 290.804 158.885 303.253 150.584C322.084 138.028 325.057 104.298 315.184 93.2194Z" fill="#FFD8D4"/>
<path d="M200.291 84.002C298.001 84.2225 314.124 161.537 314.391 216.144C314.446 227.396 324.247 243.29 319.174 264.289C310.162 301.603 234.586 317.66 200.081 316.537C165.576 317.66 90.0007 301.603 80.9877 264.289C75.9155 243.29 85.7156 227.396 85.7706 216.144C86.0376 161.537 102.161 84.2223 199.871 84.002V84C199.941 84 200.011 84.0009 200.08 84.001C200.15 84.0009 200.221 84 200.291 84V84.002Z" fill="#FFD8D4"/>
<path d="M84.5313 93.2194C94.5736 81.9513 126.782 94.9754 135.884 101.414C147.814 120.365 108.911 158.885 96.4617 150.584C90.4998 146.609 86.1274 140.511 83.249 133.682C81.0396 128.44 79.7104 122.767 79.2182 117.292C78.3263 107.37 80.183 98.0985 84.5313 93.2194Z" stroke="#474847" stroke-width="7" stroke-linecap="round" stroke-linejoin="round"/>
<path d="M315.184 93.2194C305.141 81.9513 272.933 94.9754 263.831 101.414C251.901 120.365 290.804 158.885 303.253 150.584C322.084 138.028 325.057 104.298 315.184 93.2194Z" stroke="#474847" stroke-width="7" stroke-linecap="round" stroke-linejoin="round"/>
<ellipse cx="145.926" cy="228.437" rx="10.3742" ry="11.2681" fill="#474847"/>
<ellipse cx="254.855" cy="228.437" rx="10.3742" ry="11.2681" fill="#474847"/>
<path d="M200.291 84.002C298.001 84.2224 314.125 161.536 314.392 216.144C314.447 227.396 324.247 243.29 319.175 264.289C310.162 301.603 234.586 317.66 200.081 316.537C165.576 317.66 90.0001 301.603 80.9873 264.289C75.9153 243.29 85.7165 227.396 85.7715 216.144C86.0385 161.536 102.162 84.2221 199.872 84.002V84C199.942 84 200.011 84.0009 200.081 84.001C200.151 84.0009 200.221 84 200.291 84V84.002Z" fill="#FFD8D4"/>
<path d="M152.151 311.41C152.566 249.129 107.715 227.412 85.2373 224.339C80.0502 232.192 77.5688 258.655 81.6063 266.85C90.9431 285.801 102.355 296.045 152.151 311.41Z" fill="#FFA6A8"/>
<path d="M247.663 311.41C247.248 249.129 292.099 227.412 314.576 224.339C319.763 232.192 322.245 258.655 318.207 266.85C308.87 285.801 297.459 296.045 247.663 311.41Z" fill="#FFA6A8"/>
<path d="M102.52 136.243C89.3569 161.226 85.8931 191.077 85.7706 216.144C85.7156 227.396 75.9155 243.29 80.9877 264.289C87.4625 291.095 128.288 306.931 163.562 313.308C190.51 318.179 219.073 317.377 236.6 313.308C271.874 306.931 312.7 291.095 319.174 264.289C324.247 243.29 314.447 227.396 314.392 216.144C314.269 191.077 310.805 161.226 297.642 136.243M127.824 105.512C144.631 92.412 167.877 84.0741 199.871 84.002V84C199.941 84 200.011 84.0009 200.08 84.001C200.15 84.0009 200.221 84 200.291 84V84.002C232.285 84.0742 255.531 92.412 272.338 105.512" stroke="#474847" stroke-width="7" stroke-linecap="round" stroke-linejoin="round"/>
<ellipse cx="154.517" cy="236.631" rx="10.665" ry="11.2681" fill="#474847"/>
<ellipse cx="246.847" cy="236.631" rx="10.665" ry="11.2681" fill="#474847"/>
<path d="M170.84 251.485C170.425 243.29 178.275 239.534 182.252 238.68C199.265 234.992 214.584 237.144 220.117 238.68C224.959 239.875 229.973 244.109 229.973 251.485C229.973 260.704 221.155 268.387 201.444 268.387C181.733 268.387 171.359 261.729 170.84 251.485Z" fill="#F6AFA7" stroke="#474847" stroke-width="7" stroke-linecap="round" stroke-linejoin="round"/>
<ellipse cx="189.498" cy="253.533" rx="3.11225" ry="4.60967" fill="#474847"/>
<ellipse cx="212.321" cy="253.533" rx="3.11225" ry="4.60967" fill="#474847"/>
</svg>
