<svg xmlns="http://www.w3.org/2000/svg" width="450" height="450" fill="none"><path fill="#FFD387" d="M79.487 234.646C48.639 305.308 136.86 345.3 184.828 356.463c114.715 1.739 92.073-59.164 66.412-89.833-15.419-1.745-47.887-15.316-54.405-55.636 1.202-67.536-82.216-68.307-124.076-60.251 15.096-1.475 37.576 13.242 6.728 83.903"/><path fill="#FDF7D6" d="M229.081 249.501c12.825.028 30.839 1.591 47.278 18.851 19.269 20.233 38.579 103.16 14.492 118.148-23.833 14.829-50.324-.732-61.77-.026v.026q-.09-.008-.181-.014-.091.006-.181.014v-.026c-11.446-.706-37.937 14.855-61.77.026-24.087-14.988-4.778-97.915 14.493-118.148 16.438-17.26 34.452-18.823 47.277-18.851z"/><path fill="#FDF7D6" d="m134.718 337 38-24.5c26-7.5 37 62 19.5 80.5-13.5 2.5-53 6.5-60 9.5s-36 3-36-16c.8-21.2 26-41.834 38.5-49.5"/><path fill="#FBE7B6" d="M125.807 322.212c16.224 3.932 26.759 26.437 19.878 57.01-6.878 30.564-31.392 28.726-40.134 26.61l-.008-.001v-.001c-8.742-2.121-31.377-11.709-23.5-42.031 7.877-30.326 27.541-45.512 43.764-41.587"/><path fill="#EECD7C" d="M113.218 338.5c-1.6-5.2-6-4.167-8-3-15.333 17.333-27 53.5 0 61 36.8 7.2 37-32.333 32.5-53 .5-3-7-6.5-9 0 .5 11-7.5 39-19.5 35.5s2-34 4-40.5"/><path fill="#FDF7D6" d="m324.718 337-38-24.5c-26-7.5-37 62-19.5 80.5 13.5 2.5 53 6.5 60 9.5s36 3 36-16c-.8-21.2-26-41.834-38.5-49.5"/><path fill="#FBE7B6" d="M331.629 321.212c-16.224 3.932-26.759 26.437-19.878 57.01 6.878 30.564 31.392 28.726 40.134 26.61l.008-.001v-.001c8.742-2.121 31.377-11.709 23.5-42.031-7.877-30.326-27.541-45.512-43.764-41.587"/><path fill="#EECD7C" d="M345.55 338.5c1.6-5.2 6-4.167 8-3 15.333 17.333 26.999 53.5 0 61-36.8 7.2-37-32.333-32.501-53-.5-3 7-6.5 9 0-.5 11 7.501 39 19.501 35.5s-2-34-4-40.5"/><path fill="#FDF7D6" d="M341.735 49.09c-11.638-4.01-39.246 13.513-48.621 20.194-12.289 19.663 27.783 59.63 40.606 51.018 19.397-13.028 22.563-66.202 8.015-71.213M113.716 49.09c11.445-4.01 38.592 13.513 47.811 20.194 12.084 19.663-27.32 59.63-39.93 51.018-19.073-13.028-22.186-66.202-7.881-71.213"/><path fill="#FDF7D6" d="M228.015 50.502c99.696.228 116.147 80.004 116.419 136.351.056 11.61 10.057 28.01 4.881 49.678-9.196 38.503-86.307 55.071-121.514 53.912-35.206 1.159-112.318-15.409-121.514-53.912-5.175-21.668 4.824-38.068 4.88-49.678.273-56.347 16.724-136.124 116.42-136.35V50.5l.213.001.215-.001z"/><path stroke="#474847" stroke-linecap="round" stroke-linejoin="round" stroke-width="7" d="M209.396 241.629c-5.869-7.863-10.506-17.919-12.561-30.635 1.202-67.536-82.216-68.307-124.076-60.251 15.096-1.475 37.576 13.242 6.728 83.903-16.884 38.674 1.9 68.161 30.231 88.763M192.218 393c16.266.211 28.662-7.01 36.5-6.527v.027q.09-.008.181-.014.092.006.182.014v-.027c7.78-.479 22.013 6.629 38.137 6.527M131.218 402.5c7-3 47.5-7 61-9.5m-32.5-72.119-19 12.25"/><path stroke="#474847" stroke-linecap="round" stroke-linejoin="round" stroke-width="7" d="M144.875 342c-3.705-10.648-10.614-17.739-19.068-19.788-16.223-3.924-35.886 11.261-43.764 41.588-7.877 30.321 14.758 39.91 23.5 42.031l.008.001c7.113 1.722 24.667 3.26 34.667-12.689M326.406 401.5c-7-3-47.5-7-61-9.5m32.5-72.119 19 12.25"/><path stroke="#474847" stroke-linecap="round" stroke-linejoin="round" stroke-width="7" d="M312.749 341c3.706-10.648 10.615-17.739 19.069-19.788 16.223-3.924 35.886 11.261 43.764 41.588 7.876 30.321-14.758 39.91-23.501 42.031l-.007.001c-7.114 1.722-24.667 3.26-34.668-12.689M341.735 49.09c-11.638-4.01-39.246 13.513-48.621 20.194-12.289 19.663 27.783 59.63 40.606 51.018 19.397-13.028 22.563-66.202 8.015-71.213M113.716 49.09c11.445-4.01 38.592 13.513 47.811 20.194 12.084 19.663-27.32 59.63-39.93 51.018-19.073-13.028-22.186-66.202-7.881-71.213"/><ellipse cx="176.718" cy="201.5" fill="#474847" rx="10" ry="11"/><ellipse cx="281.718" cy="201.5" fill="#474847" rx="10" ry="11"/><path fill="#FDF7D6" d="M172.719 406.5c-32.4-42-22.5-104-4-127.5 12.5 12 25 24.5 35.5 34.5-.5 10.833-1.2 34.5 0 42.5 1.5 10 11.5 13.5 16.5 32 4 14.8-7.334 23.167-13.5 25.5-7 2.833-23.7 5.4-34.5-7M284.909 406.5c34.81-48 18.31-104 3.31-128-14.691 14-22 20-34.81 35 .5 10.833 1.2 34.5 0 42.5-1.5 10-11.5 13.5-16.5 32-4 14.8 7.334 23.167 13.5 25.5 7 2.833 23.7 5.4 34.5-7"/><path stroke="#474847" stroke-linecap="round" stroke-linejoin="round" stroke-width="7" d="M167.719 279.5c-17.5 26-27.401 85 4.999 127 10.8 12.4 27.5 9.833 34.5 7 6.167-2.333 17.5-10.7 13.5-25.5-5-18.5-15-22-16.5-32-.619-4.131-.732-12.439-.628-21M288.218 279c17.5 26 29.091 85.5-3.309 127.5-10.8 12.4-27.5 9.833-34.5 7-6.167-2.333-17.5-10.7-13.5-25.5 5-18.5 15-22 16.5-32 .62-4.131.733-12.439.628-21"/><path fill="#FDF7D6" d="M228.056 50.738c99.663.228 116.109 80.092 116.381 136.499.056 11.624 10.053 28.042 4.879 49.734-9.193 38.544-86.28 55.13-121.474 53.969-35.194 1.16-112.279-15.426-121.472-53.969-5.174-21.692 4.822-38.11 4.879-49.734.272-56.407 16.718-136.271 116.38-136.499v-.002l.213.001h.214z"/><path fill="#FDFFFF" d="M163.119 262.472c-11.021-10.442-3.399-38.784 12.1-40.472s28-22 54-22 29 14.721 48 19 25.442 27.927 19 38.5c-8.054 13.217-29.923 27-64.648 27-36.549 0-52.663-7.068-68.452-22.028"/><path fill="#FFD5CA" d="M293.218 280.5c-.423-66.522 29.889-83.718 52.814-87 3.703 8 7.304 35.747 3.186 44.5-9.523 20.241-28.5 28-56 42.5M160.718 279.5c.423-66.522-27.564-82.718-50.489-86-3.703 8-7.304 35.747-3.186 44.5 9.523 20.241 26.175 27 53.675 41.5"/><path stroke="#474847" stroke-linecap="round" stroke-linejoin="round" stroke-width="7" d="M190.54 287.5c-35.991-6.591-77.646-22.958-84.253-50.662-5.175-21.705 4.824-38.131 4.88-49.761.125-25.908 3.66-56.761 17.09-82.581M265.063 287.5c35.99-6.591 77.646-22.958 84.252-50.662 5.176-21.705-4.824-38.131-4.88-49.761-.125-25.908-3.659-56.761-17.09-82.581m-173.27-31.762c17.149-13.54 40.868-22.157 73.512-22.232V50.5l.213.001.215-.001v.002c32.644.075 56.364 8.692 73.512 22.232"/><path fill="#FFD387" stroke="#474847" stroke-linecap="round" stroke-linejoin="round" stroke-width="7" d="M192.036 50.335c25.725-25.962 54.583-10.817 65.796 0C273.168 75.461 239.126 121 227.16 121c-9.894 0-23.251-18.32-30.177-31.406-1.583 3.35 0 9.421 2.474 14.132-15.996-7.851-26.61-34.023-7.421-53.39"/><path stroke="#474847" stroke-linecap="round" stroke-linejoin="round" stroke-width="7" d="M192.036 50.335c25.725-25.962 54.583-10.817 65.796 0C273.168 75.461 239.126 121 227.16 121c-9.894 0-23.251-18.32-30.177-31.406-1.583 3.35 0 9.421 2.474 14.132-15.996-7.851-26.61-34.023-7.421-53.39"/><ellipse cx="183.999" cy="205.5" fill="#474847" rx="10.28" ry="11"/><ellipse cx="273.438" cy="205.5" fill="#474847" rx="10.28" ry="11"/><path stroke="#474847" stroke-linecap="round" stroke-linejoin="round" stroke-width="7" d="M208.671 221s1.285 5 10.409 5 10.409-5 10.409-5 2.57 5 10.409 5 10.409-5 10.409-5"/></svg>