<svg xmlns="http://www.w3.org/2000/svg" width="450" height="450" fill="none"><path fill="#FFD8D4" d="M130.055 272.46c-15.487 17.638 1.433 48.216 11.829 61.3 22.8 8.173 21.33-6.273 17.745-14.518-5.915-8.066-16.347-27.101-10.754-38.716 25.81-29.252-1.793-81.733-18.82-104.317-15.415-19.178-48.61-55.922-58.074-49.47-11.83 8.066 24.197 46.244 41.404 60.225 17.207 13.98 36.027 63.45 16.67 85.496"/><path fill="#986161" d="M124.677 296.658c9.5-.897 24.198 1.183 6.991 16.669-5.593 2.581-6.991-10.037-6.991-16.669M95.626 138.669c-6.11 7.329-12.703 20.628 9.799 15.189 5.29-3.154-4.328-11.44-9.799-15.189"/><path fill="#FFD8D4" d="M225.083 246.114c13.792.029 33.165 1.71 50.843 20.272 20.724 21.76 41.49 110.942 15.586 127.061-25.63 15.947-54.12-.787-66.429-.028v.028q-.097-.008-.196-.015-.098.007-.194.015v-.028c-12.309-.76-40.799 15.975-66.429.028-25.905-16.118-5.138-105.301 15.585-127.061 17.679-18.562 37.052-20.243 50.844-20.272z"/><path fill="#FFD8D4" d="m123.602 340.213 40.867-26.348c27.961-8.066 39.791 66.677 20.971 86.572-14.519 2.689-56.998 6.99-64.527 10.217-7.528 3.226-38.715 3.226-38.715-17.207.86-22.799 27.961-44.989 41.404-53.234"/><path fill="#FFD8D4" d="M114.027 324.312c17.444 4.234 28.768 28.434 21.37 61.308-7.397 32.87-33.759 30.893-43.162 28.617v.001l-.005-.002h-.004v-.001c-9.401-2.281-33.744-12.592-25.273-45.201 8.472-32.614 29.619-48.946 47.066-44.724z"/><path fill="#F76363" d="M92.904 361.56c12.022-3.027 14.185 2.917 17.793 6.614 15.743 16.132 3.637 33.967-3.585 32.882-4.066-.61-15.111-3.413-25.339-8.471s-10.867-25.486 11.131-31.025M94.326 353.17a5.76 5.76 0 1 1-10.925-3.653c1.008-3.017 2.029-6.069 7.289-3.636 3.439 1.824 4.645 4.272 3.636 7.289M114.176 348.866c-1.344 4.023-6.279 6.673-8.504 5.254-3.035-1.014-4.98-5.29-3.635-9.312 1.345-4.023 3.649-6.878 8.505-5.255s4.979 5.29 3.634 9.313M127.611 365.161a5.76 5.76 0 0 1-10.926-3.653c1.009-3.017 2.635-3.843 7.289-3.636 4.655.206 4.645 4.272 3.637 7.289"/><path fill="#FFD8D4" d="m327.935 340.213-40.867-26.348c-27.961-8.066-39.791 66.677-20.971 86.572 14.518 2.689 56.998 6.99 64.526 10.217 7.528 3.226 38.716 3.226 38.716-17.207-.86-22.799-27.961-44.989-41.404-53.234"/><path fill="#FFD8D4" d="M335.359 323.236c-17.444 4.235-28.768 28.435-21.37 61.309 7.397 32.869 33.759 30.893 43.162 28.617v.001l.005-.002h.004l-.001-.001c9.402-2.281 33.744-12.592 25.274-45.202-8.472-32.614-29.619-48.945-47.066-44.724z"/><path fill="#F76363" d="M357.019 361.56c-12.022-3.027-14.184 2.917-17.792 6.614-15.743 16.132-3.638 33.967 3.585 32.882 4.065-.61 15.111-3.413 25.339-8.471s10.867-25.486-11.132-31.025M355.598 353.17a5.76 5.76 0 0 0 7.289 3.636 5.76 5.76 0 0 0 3.636-7.289c-1.008-3.017-2.029-6.069-7.289-3.636-3.439 1.824-4.645 4.272-3.636 7.289M335.747 348.866c1.345 4.023 6.28 6.673 8.505 5.254 3.035-1.014 4.979-5.29 3.635-9.312-1.345-4.023-3.649-6.878-8.505-5.255s-4.979 5.29-3.635 9.313M322.313 365.161a5.76 5.76 0 0 0 10.925-3.653c-1.009-3.017-2.634-3.843-7.289-3.636s-4.645 4.272-3.636 7.289"/><path fill="#FFD8D4" d="M350.574 46.658c7.286 6.524 18.227 27.385 4.247 48.894-19.896 17.744-46.586 8.427-52.367 2.587l-.004.004-.094-.105-.099-.101.004-.004c-5.481-6.16-16.118-31.485 4.507-53.463 13.122-13.982 37.684-5.576 43.806 2.188M99.285 47.13C87.037 57.375 81.152 81.2 96.178 97.166c18.283 16.131 47.529 9.933 53.593 3.823l.004.004q.05-.053.1-.11l.103-.105-.004-.005c5.751-6.443 18.39-30.649-3.25-53.641-15.027-15.966-38.178-10.19-47.439 0"/><path stroke="#474847" stroke-linecap="round" stroke-linejoin="round" stroke-width="7" d="M130.055 272.461c-15.487 17.637 1.433 48.215 11.829 61.299 22.8 8.174 21.33-6.273 17.745-14.518-5.915-8.066-16.347-27.101-10.754-38.716 25.81-29.251-1.793-81.732-18.82-104.317-15.415-19.178-48.61-55.922-58.074-49.47-11.83 8.066 24.197 46.244 41.404 60.225 17.207 13.98 36.027 63.45 16.67 85.497M185.44 400.437c17.493.227 30.823-7.538 39.253-7.018v.028l.195-.015q.098.007.195.015v-.028c8.368-.516 23.674 7.128 41.015 7.018M119.838 410.654c7.528-3.226 51.083-7.528 65.602-10.217m-34.952-77.558-20.433 13.174"/><path stroke="#474847" stroke-linecap="round" stroke-linejoin="round" stroke-width="7" d="M134.525 345.59c-3.985-11.451-11.415-19.077-20.507-21.28-17.446-4.221-38.593 12.11-47.065 44.724-8.47 32.609 15.871 42.921 25.273 45.202l.008.001c7.65 1.852 26.528 3.506 37.283-13.647M329.75 409.578c-7.528-3.226-51.083-7.528-65.601-10.216m34.951-77.559 20.434 13.174"/><path stroke="#474847" stroke-linecap="round" stroke-linejoin="round" stroke-width="7" d="M315.063 344.515c3.985-11.451 11.415-19.077 20.507-21.281 17.447-4.221 38.593 12.111 47.065 44.725 8.471 32.609-15.871 42.921-25.273 45.202l-.008.001c-7.65 1.852-26.528 3.506-37.283-13.647M158.055 66.543c-2.338-9.01-8.176-18.525-20.442-25.607-18.907-10.916-40.693 5.065-45.035 14.358-5.877 8.407-8.823 35.264 10.083 46.18 12.266 7.082 23.426 7.38 32.398 4.9M295.586 64.144c1.903-8.758 7.088-17.897 18.41-24.434 17.453-10.076 38.514 6.323 42.915 15.582 5.818 8.441 9.489 34.88-7.963 44.956-11.323 6.537-21.829 6.458-30.365 3.727"/><ellipse cx="168.77" cy="194.492" fill="#474847" rx="10.754" ry="11.83"/><ellipse cx="281.691" cy="194.492" fill="#474847" rx="10.754" ry="11.83"/><path fill="#FFD8D4" d="M164.469 414.955c-34.844-45.168-24.197-111.845-4.302-137.117 13.443 12.905 26.886 26.348 38.178 37.102-.537 11.651-1.29 37.103 0 45.706 1.613 10.754 12.368 14.518 17.745 34.414 4.302 15.916-7.887 24.914-14.518 27.423-7.528 3.048-25.488 5.808-37.103-7.528"/><path fill="#986161" d="M174.148 323.006c0-6.395-18.104-8.962-28.499-9.679l-2.689 13.981c9.5 1.075 31.188 6.99 31.188-4.302M173.943 361.686c-1.757-6.149-19.869-3.646-30.062-1.481l1.254 14.182c9.43-1.575 31.908-1.843 28.808-12.701"/><path fill="#FFD8D4" d="M285.123 414.956c37.435-51.621 19.69-111.846 3.559-137.656-15.799 15.056-23.66 21.509-37.435 37.64.537 11.651 1.29 37.103 0 45.706-1.614 10.755-12.368 14.519-17.745 34.414-4.302 15.916 7.886 24.914 14.518 27.424 7.528 3.047 25.488 5.807 37.103-7.528"/><path fill="#986161" d="M274.164 323.006c0-6.395 18.103-8.962 28.499-9.679l2.689 13.981c-9.5 1.075-31.188 6.99-31.188-4.302M274.369 361.686c1.756-6.149 19.868-3.646 30.061-1.481l-1.254 14.182c-9.429-1.575-31.908-1.843-28.807-12.701"/><path stroke="#474847" stroke-linecap="round" stroke-linejoin="round" stroke-width="7" d="M159.091 278.375c-18.82 27.962-29.467 91.412 5.378 136.581 11.614 13.335 29.574 10.575 37.102 7.528 6.632-2.51 18.82-11.508 14.518-27.424-5.377-19.895-16.131-23.659-17.744-34.414-.667-4.442-.788-13.377-.676-22.584M288.682 277.838c18.82 27.961 31.285 91.949-3.559 137.117-11.615 13.336-29.575 10.576-37.103 7.528-6.632-2.509-18.82-11.507-14.518-27.423 5.377-19.896 16.131-23.66 17.744-34.414.667-4.442.788-13.377.676-22.584"/><path fill="#FFD8D4" d="M224.194 42.856v.002c-33.166.075-57.265 8.829-74.688 22.582-10.28 6.807-21.771 24.344-26.231 32.263-13.645 26.228-17.236 57.567-17.363 83.883-.026 5.414-2.174 11.851-3.987 19.358-.852 3.526-10.098 7.289-10.547 11.292-.682 6.072 7.86 12.698 9.576 19.896 1.172 4.915-3.125 12.986 0 17.207 2.774 3.748 12.786 3.718 16.772 6.931 17.224 13.888 44.319 22.836 68.828 27.323 12.119 2.457 44.23 5.895 75.715 0 24.509-4.487 51.604-13.435 68.828-27.323 2.714-2.187 13.785-4.497 15.96-6.931 4.617-5.169-.692-10.899.812-17.207 1.717-7.198 9.319-13.824 8.637-19.896-.45-4.003-8.756-7.766-9.608-11.292-1.813-7.507-3.961-13.944-3.987-19.358-.127-26.316-3.717-57.655-17.363-83.883-4.439-9.825-19.337-25.603-26.231-32.263-17.423-13.753-41.522-22.507-74.688-22.582v-.002h-.435"/><path fill="#FFA6A8" d="M177.374 281.602c.43-65.387-46.065-88.186-69.366-91.412-2.912 4.465-6.452 13.443-16.67 21.509-1.152 8.399 8.298 14.875 10.217 18.82 2.397 4.927-3.48 13.321 0 17.744 3.127 3.973 8.175 4.825 13.981 8.066 13.833 7.72 33.876 18.282 61.838 25.273M271.918 281.602c-.43-65.387 46.065-88.186 69.366-91.412 2.912 4.465 6.452 13.443 16.669 21.509 1.153 8.399-8.297 14.875-10.217 18.82-2.396 4.927 3.481 13.321 0 17.744-3.126 3.973-8.174 4.825-13.98 8.066-13.833 7.72-33.876 18.282-61.838 25.273"/><path fill="#986161" d="M206.948 45.006c13.335-3.872 23.48-1.613 26.886 0 .364 3.977.696 8.534.956 13.42 9.547-.347 22.38 1.25 22.414 9.677.033 8.352-12.445 9.486-21.882 8.794.008 3.138-.028 6.287-.121 9.394 8.554.338 17.607 2.599 17.635 9.675.03 7.536-10.129 9.197-19.047 8.941-1.786 13.128-5.347 22.728-11.785 22.907-6.52.181-10.473-9.544-12.758-22.94-9.107.385-19.916-1.134-19.885-8.908.028-7.124 9.204-9.367 17.809-9.681a297 297 0 0 1-.472-9.308c-9.251.5-20.662-.887-20.63-8.874.032-7.861 11.202-9.78 20.453-9.72.07-4.862.222-9.403.427-13.377M144.035 199.869c3.012-6.883-24.556-10.755-38.715-11.83l-3.227 9.679c12.726 3.585 38.931 9.034 41.942 2.151M141.285 226.163c.562-7.492-26.732-2.017-40.449 1.656l.16 10.201c13.195-.831 39.726-4.366 40.289-11.857M304.503 199.869c-3.011-6.883 24.556-10.755 38.716-11.83l3.226 9.679c-12.726 3.585-38.931 9.034-41.942 2.151M307.254 226.163c-.563-7.492 26.731-2.017 40.449 1.656l-.161 10.201c-13.195-.831-39.726-4.366-40.288-11.857"/><path stroke="#474847" stroke-linecap="round" stroke-linejoin="round" stroke-width="7" d="M186.554 283.593c-24.509-4.487-51.604-13.435-68.828-27.323-3.986-3.213-13.998-3.183-16.772-6.931-3.125-4.221 1.172-12.292 0-17.207-1.717-7.198-10.258-13.824-9.576-19.896.45-4.003 9.695-7.766 10.547-11.292 1.813-7.507 3.961-13.944 3.987-19.358.127-26.316 3.718-57.655 17.363-83.883m138.994 185.89c24.509-4.487 51.604-13.435 68.828-27.323 2.714-2.187 13.785-4.497 15.96-6.931 4.617-5.169-.692-10.899.812-17.207 1.717-7.198 9.319-13.824 8.637-19.896-.45-4.003-8.756-7.766-9.608-11.292-1.813-7.507-3.961-13.944-3.987-19.358-.127-26.316-3.717-57.655-17.363-83.883M149.506 65.44c17.423-13.753 41.522-22.507 74.688-22.582v-.002h.435v.002c33.166.075 57.265 8.829 74.688 22.582"/><ellipse cx="176.6" cy="203.095" fill="#474847" rx="11.056" ry="11.83"/><ellipse cx="272.786" cy="203.095" fill="#474847" rx="11.056" ry="11.83"/><path fill="#fff" stroke="#474847" stroke-linecap="round" stroke-linejoin="round" stroke-width="7" d="M239.442 206.595c9.608 0 16.165 6.272 16.165 12.632s-6.557 12.631-16.165 12.631c-4.929 0-7.11-.899-8.403-1.597a21 21 0 0 1-1.084-.637c-.352-.218-.809-.504-1.279-.755-1.045-.559-2.32-1.043-3.983-1.043s-2.938.484-3.984 1.043c-.47.251-.926.537-1.278.755-.38.234-.716.438-1.085.637-1.293.698-3.473 1.597-8.402 1.597-9.608 0-16.165-6.271-16.165-12.631s6.557-12.632 16.165-12.632c5.183 0 7.037.479 8.206.847 1.505.474 2.994 1.17 6.543 1.17s5.037-.696 6.543-1.17c1.168-.368 3.023-.847 8.206-.847"/><path fill="#474847" d="M218.001 212.623c5.366 3.09 6.911 3.049 11.586 0 5.895-3.844-1.219-6.301-5.488-6.301s-11.465 3.211-6.098 6.301"/></svg>