<svg xmlns="http://www.w3.org/2000/svg" width="450" height="450" fill="none"><path fill="#fff" d="M224.449 252.514c13.088.029 31.472 1.624 48.247 19.238 19.666 20.648 39.371 105.276 14.79 120.572-24.321 15.133-51.356-.747-63.037-.027v.027q-.092-.008-.185-.014-.093.006-.185.014v-.027c-11.68-.72-38.715 15.16-63.036.027-24.582-15.295-4.876-99.924 14.789-120.572 16.775-17.614 35.159-19.209 48.247-19.238z"/><path fill="#fff" d="m128.151 341.808 38.779-25.002c26.534-7.654 37.759 63.272 19.9 82.151-13.777 2.552-54.087 6.634-61.231 9.695s-36.738 3.062-36.738-16.328c.816-21.635 26.533-42.692 39.29-50.516"/><path fill="#FECA7A" d="M120.519 331.733c7.621-.246 9.688 17.598 9.996 23.344.662 12.37 2.172 20.581.379 38.948s-20.004 25.247-30.751 12.592c-4.581-5.395-19.124-25.746-26.642-37.481-5.345-8.344-6.613-14.44-1.694-19.061 3.936-3.696 12.01-.951 15.555.883-1.09-7.914-4.33-21.563 2.2-24.358 6.529-2.796 15.365 8.457 17.62 15.872 1.271-3.477 5.717-10.493 13.337-10.739"/><path fill="#fff" d="m322.049 341.808-38.78-25.002c-26.533-7.654-37.759 63.272-19.9 82.151 13.777 2.551 54.087 6.634 61.231 9.695s36.738 3.062 36.738-16.328c-.816-21.635-26.533-42.692-39.289-50.516"/><path fill="#FECA7A" d="M328.883 331.733c-7.621-.246-9.688 17.598-9.995 23.344-.663 12.37-2.173 20.581-.379 38.948 1.793 18.367 20.003 25.247 30.75 12.592 4.582-5.395 19.125-25.746 26.642-37.481 5.345-8.344 6.614-14.44 1.694-19.061-3.936-3.696-12.01-.951-15.554.883 1.089-7.914 4.329-21.563-2.2-24.358s-15.366 8.457-17.621 15.872c-1.27-3.478-5.716-10.493-13.337-10.739"/><path fill="#F76363" d="M205.957 28.423c-21.217 4.638-27.7 28.409-18.859 45.222l82.511 2.32c12.966-13.336.59-27.83-12.376-23.192 0-10.436-15.913-19.132-25.343-8.696.393-6.378-12.966-18.489-25.933-15.654"/><path fill="#fff" d="M224.285 65.761c95.951.214 111.784 75.182 112.046 128.132.054 10.911 9.678 26.322 4.697 46.684-8.85 36.182-83.065 51.752-116.949 50.663-33.884 1.089-108.099-14.481-116.95-50.663-4.98-20.362 4.643-35.773 4.697-46.684.262-52.95 16.096-127.918 112.047-128.132v-.002l.205.001h.207z"/><path stroke="#474847" stroke-linecap="round" stroke-linejoin="round" stroke-width="7" d="M186.831 398.957c16.599.216 29.249-7.153 37.248-6.66v.027q.092-.008.185-.014.093.006.185.014v-.027c7.94-.489 22.465 6.764 38.92 6.66M124.579 408.652c7.144-3.061 48.475-7.144 62.252-9.695m-33.167-73.598-25.003 15.939"/><path stroke="#474847" stroke-linecap="round" stroke-linejoin="round" stroke-width="7" d="M120.519 331.733c7.621-.246 9.688 17.598 9.996 23.344.662 12.37 2.172 20.581.379 38.948s-20.004 25.247-30.751 12.592c-4.581-5.395-19.124-25.746-26.642-37.481-5.345-8.344-6.613-14.44-1.694-19.061 3.936-3.696 12.01-.951 15.555.883-1.09-7.914-4.33-21.563 2.2-24.358 6.529-2.796 15.365 8.457 17.62 15.872 1.271-3.477 5.717-10.493 13.337-10.739M323.771 407.632c-7.144-3.062-48.475-7.144-62.252-9.695m33.167-73.598 26.341 15.939"/><path stroke="#474847" stroke-linecap="round" stroke-linejoin="round" stroke-width="7" d="M328.883 331.733c-7.621-.246-9.688 17.598-9.995 23.344-.663 12.37-2.173 20.581-.379 38.948 1.793 18.367 20.003 25.247 30.75 12.592 4.582-5.395 19.125-25.746 26.642-37.481 5.345-8.344 6.614-14.44 1.694-19.061-3.936-3.696-12.01-.951-15.554.883 1.089-7.914 4.329-21.563-2.2-24.358s-15.366 8.457-17.621 15.872c-1.27-3.478-5.716-10.493-13.337-10.739"/><ellipse cx="171.013" cy="203.529" fill="#474847" rx="10.205" ry="11.226"/><ellipse cx="278.167" cy="203.529" fill="#474847" rx="10.205" ry="11.226"/><path stroke="#474847" stroke-linecap="round" stroke-linejoin="round" stroke-width="7" d="M187.098 75.686c-8.84-16.813-2.357-40.584 18.86-45.222 12.966-2.835 26.325 9.276 25.932 15.654 9.43-10.436 25.343-1.74 25.343 8.696 12.966-4.638 25.343 9.856 12.377 23.191"/><path fill="#fff" d="M281.738 398.957c37.249-45.923 18.369-92.356 3.062-116.849-14.992 14.288-22.452 20.411-35.524 35.718.511 11.056 1.225 35.208 0 43.372-1.531 10.205-8.861 14.801-16.838 32.657-4.787 10.715-3.767 15.307 1.336 19.9 7.144 2.891 31.126 0 47.964-14.798"/><path stroke="#474847" stroke-linecap="round" stroke-linejoin="round" stroke-width="7" d="M284.8 282.619c17.859 26.533 31.534 71.436-1.531 114.297-16.838 18.37-44.223 19.783-50.831 15.818-3.766-2.26-3.635-10.205 0-18.879 4.086-9.75 15.308-22.452 16.838-32.657.633-4.215.748-12.694.642-21.431"/><path fill="#fff" d="M166.306 398.957c-37.249-45.923-18.37-92.356-3.062-116.849 14.992 14.287 22.451 20.411 35.524 35.718-.511 11.056-1.225 35.208 0 43.372 1.53 10.205 8.861 14.801 16.838 32.657 4.787 10.715 3.767 15.307-1.336 19.9-7.144 2.891-31.126 0-47.964-14.798"/><path stroke="#474847" stroke-linecap="round" stroke-linejoin="round" stroke-width="7" d="M163.244 282.619c-17.859 26.533-31.534 71.436 1.531 114.297 16.838 18.37 44.223 19.783 50.831 15.818 3.766-2.26 3.635-10.205 0-18.879-4.086-9.75-15.308-22.452-16.838-32.657-.633-4.215-.748-12.694-.642-21.431M244.49 413.755c3.742-2.041 12.042-7.96 15.307-15.308M232.243 408.652c3.742-2.041 8.47-5.409 11.736-12.756"/><path stroke="#474847" stroke-linecap="round" stroke-linejoin="round" stroke-width="7" d="M205.71 413.755c-3.742-2.041-12.042-7.96-15.308-15.308M217.956 408.652c-3.742-2.041-8.47-5.409-11.736-12.756"/><path fill="#fff" d="M224.492 65.82c95.951.215 111.785 75.183 112.047 128.133.054 10.91 9.677 26.322 4.696 46.684-8.85 36.181-83.065 51.751-116.949 50.662-33.884 1.089-108.099-14.481-116.949-50.662-4.981-20.362 4.642-35.774 4.696-46.684.262-52.951 16.096-127.919 112.047-128.132v-.002h.412z"/><path fill="#FFCACC" d="M177.136 287.211c.408-62.047-43.712-83.682-65.824-86.744-5.102 7.824-7.543 34.187-3.571 42.351 9.184 18.88 20.41 29.085 69.395 44.393M271.092 287.211c-.408-62.047 43.712-83.682 65.823-86.744 5.103 7.824 7.544 34.187 3.572 42.351-9.185 18.88-20.41 29.085-69.395 44.393"/><path stroke="#474847" stroke-linecap="round" stroke-linejoin="round" stroke-width="7" d="M224.492 65.82c95.951.215 111.785 75.183 112.047 128.133.054 10.91 9.677 26.322 4.696 46.684-8.85 36.181-83.065 51.751-116.949 50.662-33.884 1.089-108.099-14.481-116.949-50.662-4.981-20.362 4.642-35.774 4.696-46.684.262-52.951 16.096-127.919 112.047-128.132v-.002h.412z"/><ellipse cx="178.442" cy="204.549" fill="#474847" rx="10.491" ry="11.226"/><ellipse cx="269.716" cy="204.549" fill="#474847" rx="10.491" ry="11.226"/><path fill="#FECA7A" stroke="#474847" stroke-linecap="round" stroke-linejoin="round" stroke-width="7" d="M196.996 223.429c-.626 1.081-.574 1.364-.47 2.551.213 1.101.681 1.479 1.53 1.961 9.564 5.429 18.925 7.317 27.28 7.22 11.078-.128 20.387-3.744 26.056-7.22.843-.518 1.772-1.205 1.772-1.961s-.211-1.47-.756-2.551c-3.496-6.946-12.102-16.839-27.072-16.839-14.971 0-24.321 9.893-28.34 16.839"/></svg>