<svg xmlns="http://www.w3.org/2000/svg" width="450" height="448" fill="none"><path fill="#fff" d="M224.238 236.607c13.305.029 31.993 1.63 49.046 19.31 19.991 20.727 40.023 105.675 15.035 121.028-24.724 15.191-52.207-.749-64.081-.027v.027q-.093-.008-.189-.014-.093.006-.187.014v-.027c-11.874-.723-39.356 15.218-64.081.027-24.989-15.353-4.956-100.301 15.035-121.028 17.053-17.68 35.741-19.281 49.046-19.31z"/><path fill="#fff" d="m126.344 326.239 39.422-25.097c26.973-7.683 38.385 63.511 20.23 82.461-14.005 2.561-54.983 6.659-62.245 9.732s-37.347 3.073-37.347-16.39c.83-21.717 26.973-42.853 39.94-50.706"/><path fill="#DADADA" d="M113.377 322.141c2.538.608 8.665-9.403 10.893-7.968 12.547 8.086 19.514 28.721 13.452 55.317-7.136 31.309-32.566 29.426-41.636 27.258l-.008-.001c-9.07-2.172-32.55-11.995-24.38-43.056 6.93-26.339 22.649-41.529 37.529-43.091 2.67-.28 1.59 10.93 4.15 11.541"/><path fill="#fff" d="m323.454 326.239-39.422-25.097c-26.973-7.683-38.384 63.511-20.23 82.461 14.006 2.561 54.984 6.659 62.245 9.732 7.262 3.073 37.348 3.073 37.348-16.39-.83-21.717-26.973-42.853-39.941-50.706"/><path fill="#DADADA" d="M335.171 322.141c-2.538.608-8.665-9.403-10.893-7.968-12.547 8.086-19.514 28.721-13.452 55.317 7.136 31.309 32.566 29.426 41.636 27.258l.008-.001c9.069-2.172 32.551-11.995 24.379-43.056-6.929-26.339-22.648-41.529-37.528-43.091-2.67-.28-1.59 10.93-4.15 11.541"/><path fill="#fff" d="M165.766 397.433c-33.612-43.024-11.93-106.706 3.113-133.169 33.197-9.834 33.543 21.171 29.566 37.902-.519 11.097-1.245 35.341 0 43.536 1.556 10.243 11.93 13.829 17.117 32.78 4.15 15.16-7.607 23.731-14.005 26.121-7.262 2.903-24.587 5.532-35.791-7.17M281.653 397.433c33.612-43.024 11.93-106.706-3.113-133.169-33.197-9.834-33.543 21.171-29.566 37.902.519 11.097 1.245 35.341 0 43.536-1.556 10.243-11.93 13.829-17.117 32.78-4.15 15.16 7.607 23.731 14.005 26.121 7.262 2.903 24.587 5.532 35.791-7.17M120.452 109.584c-18.831-12.556-21.804-46.286-11.93-57.365 3.258-3.656 7.812-.657 14.191-.253 4.296.272 9.987-2.872 14.524-1.559 9.491 2.746 18.477 7.065 22.637 10.007 11.93 18.951-26.973 57.471-39.422 49.17M339.173 52.22c-10.042-11.269-42.25 1.755-51.352 8.194-11.93 18.951 26.973 57.471 39.422 49.17 18.831-12.556 21.804-46.286 11.93-57.365"/><path fill="#fff" d="M224.281 43.002c97.71.22 113.833 77.535 114.1 132.142.055 11.252 9.856 27.146 4.784 48.145-9.013 37.314-84.589 53.371-119.094 52.248-34.505 1.123-110.08-14.934-119.093-52.248-5.072-20.999 4.728-36.893 4.783-48.145.267-54.607 16.39-131.922 114.101-132.142V43l.208.001.211-.001z"/><path stroke="#474847" stroke-linecap="round" stroke-linejoin="round" stroke-width="7" d="M185.996 383.604c16.874.216 29.734-7.181 37.866-6.686v.027q.093-.008.187-.014.096.006.189.014v-.027c8.072-.491 22.837 6.79 39.564 6.686M122.714 393.335c7.262-3.073 49.277-7.171 63.282-9.732m-33.716-73.876-19.711 12.549"/><path stroke="#474847" stroke-linecap="round" stroke-linejoin="round" stroke-width="7" d="M136.882 331.361c-2.645-7.505-6.863-13.284-12.093-16.844-2.372-1.614-8.676 7.767-11.412 7.112-2.891-.691-2.165-11.342-5.187-10.898-14.568 2.142-29.723 17.232-36.492 42.96-8.17 31.061 15.31 40.884 24.38 43.056l.008.001c7.38 1.764 25.59 3.34 35.965-12.999M325.206 392.311c-7.262-3.074-49.278-7.171-63.283-9.732m33.716-73.876 19.711 12.548"/><path stroke="#474847" stroke-linecap="round" stroke-linejoin="round" stroke-width="7" d="M310.682 330.336c2.808-7.504 7.288-13.284 12.843-16.843 2.519-1.614 9.213 7.766 12.12 7.112 3.07-.691 2.299-11.342 5.508-10.898 15.473 2.141 31.568 17.232 38.756 42.96 8.678 31.061-16.26 40.883-25.892 43.056l-.009.001c-7.837 1.764-27.177 3.339-38.196-12.999M108.522 52.22c10.042-11.269 42.251 1.755 51.352 8.194 11.931 18.951-26.973 57.471-39.422 49.17-5.961-3.975-10.334-10.073-13.212-16.902-2.21-5.242-3.539-10.915-4.031-16.39-.892-9.922.965-19.194 5.313-24.073M339.174 52.22c-10.042-11.269-42.251 1.755-51.352 8.194-11.931 18.951 26.972 57.471 39.421 49.17 18.831-12.556 21.805-46.286 11.931-57.365"/><ellipse cx="169.916" cy="187.436" fill="#474847" rx="10.374" ry="11.268"/><ellipse cx="278.845" cy="187.436" fill="#474847" rx="10.374" ry="11.268"/><path fill="#fff" d="M165.766 397.433c-33.612-43.024-23.341-106.535-4.149-130.608 12.967 12.293 25.935 25.097 36.828 35.341-.519 11.097-1.245 35.341 0 43.536 1.556 10.243 11.93 13.829 17.117 32.78 4.15 15.16-7.607 23.731-14.005 26.121-7.262 2.902-24.586 5.532-35.791-7.17M282.155 397.433c36.112-49.17 18.995-106.535 3.434-131.12-15.241 14.341-22.824 20.487-36.112 35.853.518 11.097 1.245 35.341 0 43.536-1.556 10.244-11.931 13.829-17.118 32.78-4.149 15.16 7.608 23.731 14.005 26.121 7.262 2.903 24.587 5.532 35.791-7.17"/><path stroke="#474847" stroke-linecap="round" stroke-linejoin="round" stroke-width="7" d="M160.579 267.337c-18.155 26.634-28.425 87.072 5.187 130.096 11.204 12.702 28.529 10.073 35.791 7.17 6.398-2.39 18.155-10.961 14.005-26.121-5.187-18.951-15.561-22.536-17.117-32.78-.643-4.232-.76-12.742-.652-21.512M285.588 266.825c18.155 26.634 30.179 87.584-3.433 130.608-11.204 12.702-28.529 10.073-35.791 7.17-6.398-2.39-18.155-10.961-14.005-26.121 5.187-18.951 15.561-22.537 17.117-32.78.643-4.232.76-12.742.652-21.512"/><path fill="#fff" d="M224.282 43.002c97.71.22 113.833 77.534 114.1 132.142.055 11.252 9.856 27.146 4.784 48.145-9.013 37.314-84.589 53.371-119.094 52.248-34.505 1.123-110.081-14.934-119.094-52.248-5.072-20.999 4.729-36.893 4.784-48.145.267-54.608 16.39-131.922 114.101-132.142V43l.209.001.21-.001z"/><path fill="#FFCACC" d="M176.142 270.41c.414-62.281-44.437-83.998-66.914-87.071-5.187 7.853-7.668 34.316-3.631 42.511 9.337 18.951 20.748 29.195 70.545 44.56M271.653 270.41c-.415-62.281 44.436-83.998 66.914-87.071 5.187 7.853 7.668 34.316 3.631 42.511-9.337 18.951-20.749 29.195-70.545 44.56"/><path stroke="#474847" stroke-linecap="round" stroke-linejoin="round" stroke-width="7" d="M187.553 272.308c-35.274-6.377-76.099-22.213-82.574-49.019-5.072-20.999 4.728-36.893 4.783-48.145.122-25.067 3.586-54.918 16.749-79.901m134.081 177.065c35.273-6.377 76.099-22.213 82.574-49.019 5.072-20.999-4.728-36.893-4.783-48.145-.123-25.067-3.587-54.918-16.749-79.901M151.815 64.512c16.807-13.1 40.054-21.438 72.048-21.51V43l.208.001.211-.001v.002c31.994.072 55.24 8.41 72.047 21.51"/><ellipse cx="178.506" cy="195.631" fill="#474847" rx="10.665" ry="11.268"/><ellipse cx="270.836" cy="195.631" fill="#474847" rx="10.665" ry="11.268"/><path fill="#E9E9E9" stroke="#474847" stroke-linecap="round" stroke-linejoin="round" stroke-width="7" d="M194.83 210.485c-.415-8.195 7.435-11.951 11.411-12.805 17.014-3.688 32.333-1.536 37.866 0 4.841 1.195 9.855 5.429 9.855 12.805 0 9.219-8.818 16.902-28.529 16.902s-30.085-6.659-30.603-16.902"/><ellipse cx="213.488" cy="212.533" fill="#474847" rx="3.112" ry="4.61"/><ellipse cx="236.311" cy="212.533" fill="#474847" rx="3.112" ry="4.61"/></svg>