<svg xmlns="http://www.w3.org/2000/svg" width="450" height="450" fill="none"><path fill="#D7F5F2" d="M225.284 280.169c12.323.027 29.633 1.529 45.428 18.113 18.516 19.442 37.07 99.124 13.925 113.526-22.9 14.249-48.355-.703-59.353-.025v.025l-.174-.013-.174.013v-.025c-10.998-.678-36.453 14.274-59.353.025-23.145-14.401-4.591-94.084 13.925-113.526 15.795-16.584 33.105-18.086 45.428-18.113z"/><path fill="#D7F5F2" d="m134.613 364.245 36.514-23.542c24.982-7.206 35.552 59.575 18.737 77.351-12.972 2.402-50.927 6.246-57.653 9.128-6.726 2.883-34.591 2.883-34.591-15.374.768-20.37 24.982-40.196 36.993-47.563"/><path fill="#D7F5F2" d="M126.051 350.036c15.59 3.778 25.712 25.403 19.1 54.78-6.609 29.368-30.163 27.601-38.563 25.568l-.001.001-.007-.002v-.001c-8.4-2.038-30.148-11.251-22.58-40.386 7.569-29.139 26.463-43.731 42.051-39.96"/><path fill="#B2E6E1" d="M115.733 358.509c11.789 3.283 19.443 22.049 14.442 47.542-4.999 25.489-22.816 23.956-29.171 22.191l-.004-.001-.002.001c-6.354-1.769-22.807-9.766-17.082-35.053 5.726-25.291 20.019-37.955 31.811-34.682z"/><path fill="#D7F5F2" d="m317.179 364.245-36.513-23.542c-24.983-7.206-35.552 59.575-18.737 77.351 12.972 2.402 50.926 6.246 57.652 9.128 6.726 2.883 34.592 2.883 34.592-15.374-.769-20.37-24.983-40.196-36.994-47.563"/><path fill="#D7F5F2" d="M323.82 349.075c-15.59 3.778-25.712 25.403-19.101 54.78 6.61 29.368 30.163 27.602 38.564 25.568v.001l.008-.002v-.001c8.4-2.038 30.148-11.25 22.58-40.386-7.569-29.139-26.463-43.731-42.051-39.96"/><path fill="#B2E6E1" d="M335.105 358.507c-11.793 3.279-19.45 22.047-14.449 47.544 5 25.489 22.818 23.956 29.173 22.191l.005-.001c6.355-1.768 22.807-9.765 17.082-35.052-5.726-25.291-20.019-37.955-31.811-34.682"/><path fill="#D7F5F2" d="M171.127 431.026c-31.133-40.357-11.05-100.092 2.882-124.914 30.748-9.224 31.068 19.858 27.385 35.552-.48 10.41-1.153 33.15 0 40.837 1.441 9.609 11.05 12.972 15.855 30.748 3.843 14.221-7.047 22.261-12.972 24.503-6.726 2.722-22.773 5.188-33.15-6.726M278.462 431.026c31.133-40.357 11.05-100.092-2.882-124.914-30.748-9.224-31.069 19.858-27.385 35.552.48 10.41 1.153 33.15 0 40.837-1.442 9.609-11.05 12.972-15.855 30.748-3.843 14.221 7.047 22.261 12.972 24.503 6.726 2.722 22.773 5.188 33.15-6.726"/><path fill="#D7F5F2" d="M225.324 98.565c90.5.207 105.434 72.729 105.681 123.951.051 10.555 9.129 25.463 4.431 45.161-8.348 35.001-78.347 50.063-110.307 49.009-31.959 1.054-101.958-14.008-110.306-49.009-4.698-19.698 4.379-34.606 4.43-45.161.247-51.222 15.181-123.744 105.682-123.951v-.002l.194.001h.195z"/><path fill="#D7F5F2" d="M127.595 70.463c-4.129-23.42 14.837-46.339 37.94-50.412s48.764 10.977 52.893 34.396l2.229 54.573c2.289 33.95-10.523 51.825-23.725 54.152l-11.951 2.108c-13.202 2.328-26.788-12.141-40.815-42.773zM321.87 70.095c4.201-23.825-14.641-47.062-37.674-51.124-23.034-4.061-48.687 11.33-52.888 35.155l-2.413 55.493c-2.402 34.525 10.318 52.654 23.48 54.975l11.916 2.101c13.162 2.321 26.766-12.437 40.867-43.629z"/><path fill="#FCD0D6" d="M146.932 79.568c-3.637-20.627 7.218-39.782 21.509-42.302s31.043 11.768 34.68 32.394l3.843 47.734c2.956 29.735-4.27 44.763-12.436 46.202l-7.393 1.304c-8.167 1.44-17.327-11.798-27.489-39.163zM303.046 79.943c3.64-20.641-7.769-39.905-22.636-42.527s-32.176 11.58-35.815 32.22l-3.67 47.797c-2.871 29.771 4.739 44.876 13.234 46.374l7.691 1.356c8.495 1.498 17.924-11.703 28.297-39.051z"/><path stroke="#474847" stroke-linecap="round" stroke-linejoin="round" stroke-width="7" d="M189.863 418.054c15.629.203 27.54-6.736 35.072-6.271v.025l.174-.013.174.013v-.025c7.477-.461 21.153 6.369 36.646 6.271M131.25 427.182c6.726-2.883 45.642-6.726 58.613-9.128m-31.228-69.297-18.257 11.771"/><path stroke="#474847" stroke-linecap="round" stroke-linejoin="round" stroke-width="7" d="M144.373 369.049c-3.561-10.231-10.199-17.045-18.322-19.013-15.589-3.772-34.483 10.82-42.052 39.96-7.568 29.135 14.18 38.349 22.581 40.387l.007.001c6.835 1.654 23.702 3.132 33.311-12.193M318.801 426.221c-6.726-2.882-45.641-6.726-58.613-9.128m31.228-69.297 18.257 11.771"/><path stroke="#474847" stroke-linecap="round" stroke-linejoin="round" stroke-width="7" d="M305.678 368.088c3.561-10.231 10.2-17.045 18.323-19.013 15.588-3.771 34.482 10.82 42.051 39.96 7.569 29.136-14.18 38.349-22.58 40.387l-.008.001c-6.835 1.655-23.701 3.132-33.311-12.193"/><ellipse cx="174.97" cy="234.046" fill="#474847" rx="9.609" ry="10.57"/><ellipse cx="275.862" cy="234.046" fill="#474847" rx="9.609" ry="10.57"/><path stroke="#474847" stroke-linecap="round" stroke-linejoin="round" stroke-width="7" d="M165.727 21.706c22.218-3.918 46.417 10.371 50.351 31.813l2.157 55.293.006.093c1.109 16.818-1.587 29.339-5.953 37.806-4.374 8.483-10.296 12.726-15.751 13.688l-12.327 2.173c-5.182.914-10.976-1.269-17.568-8.118-6.569-6.825-13.434-17.812-20.534-33.146l-16.814-52.48c-3.643-21.496 14.213-43.204 36.433-47.122M283.578 21.706c-22.218-3.918-46.417 10.371-50.351 31.813l-2.157 55.293-.006.093c-1.109 16.818 1.588 29.339 5.953 37.806 4.374 8.483 10.296 12.726 15.752 13.688l12.326 2.173c5.182.914 10.976-1.269 17.568-8.118 6.569-6.825 13.435-17.812 20.534-33.146l16.814-52.48c3.643-21.496-14.212-43.204-36.433-47.122"/><path fill="#D7F5F2" d="M171.127 431.026c-31.133-40.357-21.62-99.931-3.844-122.512 12.011 11.531 24.022 23.542 34.111 33.15-.48 10.41-1.153 33.151 0 40.838 1.441 9.608 11.05 12.971 15.854 30.747 3.844 14.221-7.046 22.261-12.971 24.503-6.726 2.722-22.773 5.189-33.15-6.726M278.928 431.026c33.447-46.122 17.593-99.931 3.18-122.992-14.116 13.452-21.14 19.217-33.448 33.63.481 10.41 1.153 33.15 0 40.837-1.441 9.609-11.05 12.972-15.854 30.748-3.844 14.221 7.046 22.261 12.971 24.503 6.727 2.722 22.773 5.188 33.151-6.726"/><path stroke="#474847" stroke-linecap="round" stroke-linejoin="round" stroke-width="7" d="M166.322 308.995c-16.815 24.982-26.328 81.674 4.805 122.031 10.377 11.915 26.424 9.448 33.15 6.726 5.925-2.242 16.815-10.282 12.971-24.502-4.804-17.777-14.413-21.14-15.854-30.748-.595-3.97-.704-11.952-.604-20.179M282.108 308.514c16.815 24.983 27.952 82.155-3.18 122.512-10.378 11.915-26.425 9.448-33.151 6.726-5.925-2.242-16.815-10.282-12.971-24.503 4.804-17.776 14.413-21.139 15.854-30.747.595-3.97.704-11.952.604-20.179"/><path fill="#D7F5F2" d="M225.324 98.565c90.501.207 105.434 72.729 105.681 123.951.051 10.555 9.129 25.464 4.431 45.161-8.348 35.001-78.348 50.063-110.307 49.009-31.959 1.053-101.958-14.008-110.306-49.009-4.698-19.697 4.379-34.606 4.43-45.161.248-51.222 15.182-123.744 105.683-123.95v-.003l.193.001h.195z"/><path fill="#FFD9D9" d="M180.735 311.877c.385-58.421-41.157-78.791-61.976-81.674-4.805 7.367-7.103 32.189-3.363 39.876 8.648 17.776 19.217 27.385 65.339 41.798M269.2 311.877c-.384-58.421 41.158-78.791 61.977-81.674 4.804 7.367 7.102 32.189 3.363 39.876-8.648 17.776-19.218 27.385-65.34 41.798"/><path stroke="#474847" stroke-linecap="round" stroke-linejoin="round" stroke-width="7" d="M191.785 313.744c-32.779-5.923-70.935-20.8-76.962-46.067-4.698-19.698 4.379-34.606 4.43-45.161.177-36.728 7.906-84.406 45.628-108.525m93.593 199.753c32.779-5.923 70.935-20.8 76.962-46.067 4.698-19.698-4.379-34.606-4.43-45.161-.177-36.728-7.906-84.406-45.628-108.525m-80.14-14.12c6.131-.84 12.687-1.29 19.697-1.306v-.002l.194.001h.195v.001c5.6.013 10.91.303 15.946.847"/><ellipse cx="182.926" cy="240.772" fill="#474847" rx="9.878" ry="10.57"/><ellipse cx="268.866" cy="240.772" fill="#474847" rx="9.878" ry="10.57"/><path stroke="#474847" stroke-linecap="round" stroke-linejoin="round" stroke-width="7" d="M206.634 253.744s1.235 4.805 10.002 4.805 10.002-4.805 10.002-4.805 2.469 4.805 10.001 4.805 10.002-4.805 10.002-4.805M222.053 246.538l4.804 1.922 4.324-1.922"/></svg>