<svg xmlns="http://www.w3.org/2000/svg" width="450" height="450" fill="none"><path fill="#888886" d="M382.431 266.103c-11 10.5-26 50.304-73.5 63.5-3.039.844-6.087 1.396-9 2.238-9.2 6.99-1.167 11.42 4 12.762 62-16 89.274-71.133 86-78.5-2-4.5-5.405-2-7.5 0"/><path fill="#888886" d="M227.293 269.604c12.825.028 30.839 1.591 47.277 18.851 19.27 20.233 38.58 103.16 14.493 118.148-23.833 14.829-50.324-.732-61.77-.026v.026q-.09-.008-.182-.014-.09.006-.18.014v-.026c-11.446-.706-37.937 14.855-61.77.026-24.087-14.988-4.778-97.915 14.492-118.148 16.439-17.26 34.453-18.823 47.278-18.851z"/><path fill="#888886" d="m132.931 357.103 38-24.5c26-7.5 37 62 19.5 80.5-13.5 2.5-53 6.5-60 9.5s-36 3-36-16c.8-21.2 26-41.833 38.5-49.5"/><path fill="#888886" d="M124.019 342.315c16.225 3.932 26.759 26.437 19.879 57.01-6.879 30.565-31.392 28.726-40.135 26.61v.001l-.008-.002.001-.001c-8.743-2.121-31.377-11.709-23.5-42.03 7.877-30.327 27.54-45.513 43.763-41.588"/><path fill="#FACDC8" d="M101.08 385.388c9.457-6.591 13.909.587 15.405 5.151 5.052 15.403 4.521 24.148-2.194 23.14-3.781-.568-14.052-3.174-23.562-7.877-9.51-4.704-1.471-12.175 10.351-20.414M98.667 378.65a5.356 5.356 0 1 1-10.159-3.397c.938-2.805 1.887-5.643 6.778-3.381 3.198 1.697 4.319 3.972 3.381 6.778M119.582 376.149c-1.251 3.741-5.839 6.205-7.908 4.886-2.822-.943-4.631-4.919-3.38-8.659 1.25-3.741 3.393-6.396 7.908-4.886s4.63 4.919 3.38 8.659M131.352 389.743a5.356 5.356 0 0 1-10.16-3.397c.938-2.805 2.45-3.573 6.778-3.381s4.319 3.972 3.382 6.778"/><path fill="#888886" d="m322.931 357.103-38-24.5c-26-7.5-37 62-19.5 80.5 13.5 2.5 53 6.5 60 9.5s36 3 36-16c-.8-21.2-26-41.833-38.5-49.5"/><path fill="#888886" d="M329.842 341.315c-16.224 3.932-26.759 26.437-19.878 57.01 6.878 30.565 31.391 28.726 40.134 26.61v.001l.008-.002v-.001c8.742-2.121 31.376-11.709 23.5-42.03-7.878-30.327-27.541-45.513-43.764-41.588"/><path fill="#FACDC8" d="M349.975 385.388c-9.457-6.591-13.909.587-15.406 5.151-5.051 15.403-4.52 24.148 2.195 23.14 3.781-.568 14.052-3.174 23.562-7.877 9.51-4.704 1.471-12.175-10.351-20.414M352.388 378.65a5.355 5.355 0 0 0 6.777 3.381 5.357 5.357 0 0 0 3.382-6.778c-.938-2.805-1.887-5.643-6.778-3.381-3.198 1.697-4.319 3.972-3.381 6.778M331.473 376.149c1.25 3.741 5.839 6.205 7.908 4.886 2.822-.943 4.63-4.919 3.38-8.659s-3.393-6.396-7.908-4.886-4.631 4.919-3.38 8.659M319.703 389.743a5.356 5.356 0 0 0 10.159-3.397c-.938-2.805-2.449-3.573-6.777-3.381s-4.32 3.972-3.382 6.778"/><path fill="#666" d="M263.931 412.603c5.923-1.777-2.304-40.182-6.5-56.5-4.5-17.5-11.5-44.5-32-44.5-16.5 2-25.765 26.606-30 44.5-2.959 12.5-11.343 52.217-4 56.5 6 3.5 20.425-5.5 35.5-5.5 14.5 0 32 7 37 5.5"/><path fill="#888886" d="M67.029 58.408c12.786-14.994 61.572-33.699 91.482-4.226 43.073 42.445 20.86 91.355 9.413 103.25l.008.008q-.1.097-.206.195-.099.104-.198.203l-.008-.008c-12.072 11.28-61.706 33.169-104.78-9.276-29.91-29.473-10.927-77.547 4.289-90.146M381.979 58.554c15.105 12.693 33.949 61.123 4.257 90.815-42.759 42.759-92.031 20.708-104.015 9.344l-.007.008q-.098-.1-.197-.204-.105-.1-.205-.197l.008-.008c-11.363-11.983-33.414-61.255 9.345-104.015 29.691-29.69 78.122-10.847 90.814 4.257"/><path fill="#FACDC8" d="M92.84 82.926c8.213-9.33 39.551-20.968 58.763-2.63 27.667 26.411 13.399 56.844 6.046 64.245l.005.005q-.065.06-.132.121l-.127.127-.005-.005c-7.754 7.018-39.636 20.638-67.304-5.772-19.212-18.339-7.02-48.251 2.754-56.091M365.021 79.926c-8.213-9.33-39.55-20.968-58.762-2.63-27.668 26.411-13.399 56.844-6.047 64.245l-.005.005q.065.06.132.121.065.065.128.127l.005-.005c7.754 7.018 39.636 20.638 67.303-5.772 19.212-18.339 7.02-48.251-2.754-56.091"/><path stroke="#474847" stroke-linecap="round" stroke-linejoin="round" stroke-width="7" d="M303.931 344.603c62-16 89.274-71.133 86-78.5-2-4.5-5.405-2-7.5 0-11 10.5-26 50.304-73.5 63.5-3.039.844-6.087 1.396-9 2.238M190.431 413.103c16.265.212 28.661-7.009 36.5-6.526v.026l.18-.013.182.013v-.026c7.781-.48 22.014 6.628 38.138 6.526M129.431 422.603c7-3 47.5-7 61-9.5m-32.5-72.119-19 12.25"/><path stroke="#474847" stroke-linecap="round" stroke-linejoin="round" stroke-width="7" d="M143.088 362.103c-3.706-10.648-10.615-17.739-19.069-19.788-16.223-3.924-35.886 11.261-43.764 41.588-7.876 30.322 14.758 39.91 23.5 42.031l.008.001c7.114 1.722 24.667 3.26 34.668-12.689M113.931 342.603l-3 8M134.931 350.603l-4 6M324.618 421.603c-7-3-47.5-7-61-9.5m32.5-72.119 19 12.25"/><path stroke="#474847" stroke-linecap="round" stroke-linejoin="round" stroke-width="7" d="M310.961 361.103c3.706-10.648 10.615-17.739 19.068-19.788 16.223-3.924 35.887 11.261 43.764 41.588 7.877 30.322-14.758 39.91-23.5 42.031l-.007.001c-7.114 1.722-24.667 3.26-34.668-12.689M339.931 342.603l3 8M318.931 350.603l4 6M266.9 93.983c4.501-17.346 15.742-35.667 39.358-49.302 36.401-21.015 78.345 9.751 86.704 27.644 11.316 16.186 16.989 67.894-19.412 88.91-23.616 13.635-45.102 14.209-62.375 9.435M182.793 93.983c-4.502-17.346-15.742-35.667-39.359-49.302-36.4-21.015-78.345 9.751-86.704 27.644-11.316 16.186-16.988 67.894 19.412 88.91 23.616 13.635 45.103 14.209 62.375 9.435"/><path fill="#888886" d="M170.931 426.603c-32.4-42-22.5-104-4-127.5 12.499 12 25 24.5 35.5 34.5-.5 10.833-1.2 34.5 0 42.5 1.5 10 11.5 13.5 16.5 32 4 14.8-7.334 23.167-13.5 25.5-7 2.833-23.7 5.4-34.5-7M283.121 426.603c34.81-48 18.31-104 3.31-128-14.691 14-22 20-34.81 35 .5 10.833 1.2 34.5 0 42.5-1.5 10-11.5 13.5-16.5 32-4 14.8 7.334 23.167 13.5 25.5 7 2.833 23.7 5.4 34.5-7"/><path stroke="#474847" stroke-linecap="round" stroke-linejoin="round" stroke-width="7" d="M165.93 299.603c-17.5 26-27.4 85 5 127 10.8 12.4 27.5 9.833 34.5 7 6.167-2.333 17.5-10.7 13.5-25.5-5-18.5-15-22-16.5-32-.619-4.131-.732-12.439-.628-21M286.43 299.103c17.5 26 29.091 85.5-3.309 127.5-10.8 12.4-27.5 9.833-34.5 7-6.167-2.333-17.5-10.7-13.5-25.5 5-18.5 15-22 16.5-32 .619-4.131.732-12.439.628-21"/><path fill="#888886" d="M227.334 80.605c94.187.215 109.728 75.69 109.986 128.998.053 10.985 9.5 26.5 4.611 47-8.688 36.426-81.538 52.101-114.799 51.005-33.26 1.096-106.11-14.579-114.798-51.005-4.889-20.5 4.559-36.015 4.612-47 .257-53.308 15.799-128.783 109.985-128.998v-.002l.201.001.202-.001z"/><path fill="#E8B2B4" d="M180.93 302.603c.4-60.8-42.833-82-64.5-85-5 7.667-7.391 33.5-3.5 41.5 9 18.5 20 28.5 68 43.5M272.998 302.603c-.4-60.8 42.834-82 64.5-85 5 7.667 7.392 33.5 3.5 41.5-9 18.5-20 28.5-68 43.5"/><path stroke="#474847" stroke-linecap="round" stroke-linejoin="round" stroke-width="7" d="M151.701 106.603c16.518-15.63 40.54-25.919 75.23-25.998v-.002l.202.001.202-.001v.002c34.69.08 58.712 10.368 75.23 25.998m-180.141 54c-4.076 16.625-5.405 33.723-5.479 49-.053 10.985-9.499 26.5-4.61 47 6.272 26.296 45.981 41.778 80.096 47.943m139.411-143.943c4.076 16.625 5.405 33.723 5.478 49 .053 10.985 9.5 26.5 4.611 47-6.272 26.296-45.981 41.778-80.096 47.943"/><path stroke="#474847" stroke-linecap="round" stroke-linejoin="round" stroke-width="7" d="M120.931 244.103c-5-1-16-2.4-20 0M130.431 270.603c-3.667 1.167-11.8 4.8-15 10M332.431 244.103c5-1 16-2.4 20 0M322.931 270.603c3.666 1.167 11.8 4.8 15 10"/><ellipse cx="182.211" cy="229.603" fill="#474847" rx="10.28" ry="11"/><ellipse cx="271.65" cy="229.603" fill="#474847" rx="10.28" ry="11"/><path stroke="#474847" stroke-linecap="round" stroke-linejoin="round" stroke-width="7" d="M206.884 243.103s1.285 5 10.409 5c9.123 0 10.409-5 10.409-5s2.57 5 10.408 5c7.839 0 10.409-5 10.409-5"/><path fill="#474847" d="M221.708 236.462c4.99 2.873 6.427 2.836 10.774 0 5.481-3.574-1.134-5.859-5.104-5.859-3.969 0-10.66 2.986-5.67 5.859"/></svg>