<svg width="450" height="450" viewBox="0 0 450 450" fill="none" xmlns="http://www.w3.org/2000/svg">
<path d="M130.055 272.46C114.568 290.098 131.488 320.676 141.884 333.76C164.684 341.933 163.214 327.487 159.629 319.242C153.714 311.176 143.282 292.141 148.875 280.526C174.685 251.274 147.082 198.793 130.055 176.209C114.64 157.031 81.4448 120.287 71.9809 126.739C60.1511 134.805 96.1783 172.983 113.385 186.964C130.592 200.944 149.412 250.414 130.055 272.46Z" fill="#888886"/>
<path d="M124.677 296.658C134.177 295.761 148.875 297.841 131.668 313.327C126.075 315.908 124.677 303.29 124.677 296.658Z" fill="#474847"/>
<path d="M95.6263 138.668C89.5167 145.998 82.9229 159.297 105.425 153.858C110.715 150.704 101.097 142.418 95.6263 138.668Z" fill="#474847"/>
<path d="M225.083 246.113C238.875 246.143 258.248 247.824 275.926 266.386C296.65 288.146 317.416 377.328 291.512 393.447C265.882 409.394 237.392 392.66 225.083 393.418V393.447C225.018 393.44 224.953 393.437 224.887 393.432C224.822 393.437 224.757 393.441 224.693 393.447V393.418C212.384 392.659 183.894 409.394 158.264 393.447C132.359 377.328 153.126 288.146 173.849 266.386C191.528 247.824 210.901 246.143 224.693 246.113H225.083Z" fill="#888886"/>
<path d="M123.602 340.213L164.469 313.864C192.43 305.799 204.26 380.541 185.44 400.437C170.921 403.125 128.442 407.427 120.913 410.653C113.385 413.88 82.1978 413.88 82.1978 393.447C83.0581 370.647 110.159 348.458 123.602 340.213Z" fill="#888886"/>
<path d="M114.027 324.311C131.471 328.546 142.795 352.746 135.397 385.62C128 418.489 101.638 416.513 92.2348 414.237L92.2346 414.238C92.2331 414.237 92.2316 414.236 92.2301 414.236C92.2288 414.235 92.2273 414.236 92.2261 414.236L92.2263 414.235C82.8249 411.954 58.4824 401.643 66.9532 369.033C75.4251 336.419 96.5718 320.088 114.019 324.309L114.027 324.311Z" fill="#888886"/>
<path d="M92.9044 361.56C104.926 358.533 107.089 364.477 110.697 368.174C126.44 384.305 114.334 402.14 107.112 401.056C103.046 400.446 92.0006 397.643 81.773 392.585C71.5453 387.527 70.9056 367.098 92.9044 361.56Z" fill="#FACDC8"/>
<path d="M94.3261 353.169C93.3175 356.186 90.0541 357.815 87.0371 356.806C84.0202 355.797 82.3921 352.534 83.4007 349.517C84.4093 346.5 85.4298 343.447 90.6896 345.881C94.1285 347.705 95.3347 350.153 94.3261 353.169Z" fill="#FACDC8"/>
<path d="M114.176 348.866C112.832 352.888 107.897 355.539 105.672 354.12C102.637 353.106 100.692 348.83 102.037 344.807C103.382 340.785 105.686 337.93 110.542 339.553C115.398 341.176 115.521 344.843 114.176 348.866Z" fill="#FACDC8"/>
<path d="M127.611 365.16C126.602 368.177 123.339 369.805 120.322 368.796C117.305 367.788 115.677 364.525 116.685 361.508C117.694 358.491 119.32 357.665 123.974 357.871C128.629 358.078 128.619 362.143 127.611 365.16Z" fill="#FACDC8"/>
<path d="M327.935 340.213L287.068 313.864C259.107 305.799 247.277 380.541 266.097 400.437C280.615 403.125 323.095 407.427 330.623 410.653C338.151 413.88 369.339 413.88 369.339 393.447C368.479 370.647 341.378 348.458 327.935 340.213Z" fill="#888886"/>
<path d="M335.359 323.236C317.915 327.471 306.591 351.671 313.989 384.545C321.386 417.414 347.748 415.438 357.151 413.162L357.151 413.163C357.153 413.162 357.154 413.161 357.156 413.161C357.157 413.16 357.158 413.161 357.16 413.161L357.159 413.16C366.561 410.879 390.903 400.568 382.433 367.958C373.961 335.344 352.814 319.013 335.367 323.234L335.359 323.236Z" fill="#888886"/>
<path d="M357.019 361.56C344.997 358.533 342.835 364.477 339.227 368.174C323.484 384.305 335.589 402.14 342.812 401.056C346.877 400.446 357.923 397.643 368.151 392.585C378.379 387.527 379.018 367.098 357.019 361.56Z" fill="#FACDC8"/>
<path d="M355.598 353.169C356.606 356.186 359.87 357.815 362.887 356.806C365.904 355.797 367.532 352.534 366.523 349.517C365.515 346.5 364.494 343.447 359.234 345.881C355.795 347.705 354.589 350.153 355.598 353.169Z" fill="#FACDC8"/>
<path d="M335.747 348.866C337.092 352.888 342.027 355.539 344.252 354.12C347.287 353.106 349.231 348.83 347.887 344.807C346.542 340.785 344.238 337.93 339.382 339.553C334.526 341.176 334.403 344.843 335.747 348.866Z" fill="#FACDC8"/>
<path d="M322.313 365.16C323.321 368.177 326.585 369.805 329.602 368.796C332.619 367.788 334.247 364.525 333.238 361.508C332.229 358.491 330.604 357.665 325.949 357.871C321.295 358.078 321.304 362.143 322.313 365.16Z" fill="#FACDC8"/>
<path d="M350.574 46.6576C357.86 53.1817 368.801 74.043 354.821 95.5517C334.925 113.296 308.235 103.979 302.454 98.1389L302.45 98.1429C302.419 98.109 302.388 98.0731 302.356 98.0378C302.322 98.0035 302.289 97.9707 302.257 97.9367L302.261 97.9327C296.78 91.7732 286.143 66.4476 306.768 44.4697C319.89 30.488 344.452 38.894 350.574 46.6576Z" fill="#888886"/>
<path d="M99.2851 47.1308C87.0371 57.3737 81.1519 81.1991 96.1783 97.1647C114.461 113.296 143.707 107.098 149.771 100.988L149.775 100.992C149.809 100.957 149.841 100.919 149.875 100.882C149.91 100.846 149.945 100.812 149.978 100.777L149.974 100.772C155.725 94.3287 168.364 70.1231 146.724 47.1308C131.697 31.1653 108.546 36.9404 99.2851 47.1308Z" fill="#888886"/>
<path d="M130.055 272.46C114.568 290.098 131.488 320.676 141.884 333.76C164.684 341.933 163.214 327.487 159.629 319.242C153.714 311.176 143.282 292.141 148.875 280.526C174.685 251.274 147.082 198.793 130.055 176.209C114.64 157.031 81.4448 120.287 71.9809 126.739C60.1511 134.805 96.1783 172.983 113.385 186.964C130.592 200.944 149.412 250.414 130.055 272.46Z" stroke="#474847" stroke-width="7" stroke-linecap="round" stroke-linejoin="round"/>
<path d="M185.44 400.437C202.933 400.664 216.263 392.899 224.693 393.419V393.447C224.758 393.441 224.823 393.437 224.888 393.432C224.953 393.437 225.019 393.441 225.083 393.447V393.419C233.451 392.903 248.757 400.547 266.098 400.437" stroke="#474847" stroke-width="7" stroke-linecap="round" stroke-linejoin="round"/>
<path d="M119.838 410.654C127.366 407.427 170.921 403.126 185.44 400.437M150.488 322.878L130.055 336.052" stroke="#474847" stroke-width="7" stroke-linecap="round" stroke-linejoin="round"/>
<path d="M134.525 345.59C130.54 334.139 123.11 326.513 114.018 324.31C96.5717 320.089 75.4249 336.42 66.9531 369.034C58.4825 401.643 82.8244 411.955 92.2259 414.236C92.2286 414.237 92.2316 414.236 92.2343 414.237C99.8843 416.089 118.762 417.743 129.517 400.59" stroke="#474847" stroke-width="7" stroke-linecap="round" stroke-linejoin="round"/>
<path d="M329.75 409.578C322.222 406.352 278.667 402.05 264.149 399.362M299.1 321.803L319.534 334.977" stroke="#474847" stroke-width="7" stroke-linecap="round" stroke-linejoin="round"/>
<path d="M315.063 344.515C319.048 333.064 326.478 325.438 335.57 323.234C353.017 319.013 374.163 335.345 382.635 367.959C391.106 400.568 366.764 410.88 357.362 413.161C357.36 413.162 357.357 413.161 357.354 413.162C349.704 415.014 330.826 416.668 320.071 399.515" stroke="#474847" stroke-width="7" stroke-linecap="round" stroke-linejoin="round"/>
<path d="M158.055 66.5431C155.717 57.5336 149.879 48.0179 137.613 40.936C118.706 30.0204 96.9202 46.0006 92.5783 55.294C86.7008 63.7009 83.7546 90.5582 102.661 101.474C114.927 108.556 126.087 108.854 135.059 106.374" stroke="#474847" stroke-width="7" stroke-linecap="round" stroke-linejoin="round"/>
<path d="M295.586 64.1439C297.489 55.3856 302.674 46.2473 313.996 39.7101C331.449 29.6342 352.51 46.0327 356.911 55.2921C362.729 63.7331 366.4 90.172 348.948 100.248C337.625 106.785 327.119 106.706 318.583 103.975" stroke="#474847" stroke-width="7" stroke-linecap="round" stroke-linejoin="round"/>
<ellipse cx="168.77" cy="194.492" rx="10.7544" ry="11.8298" fill="#474847"/>
<ellipse cx="281.691" cy="194.492" rx="10.7544" ry="11.8298" fill="#474847"/>
<path d="M164.469 414.956C129.625 369.787 140.272 303.111 160.167 277.838C173.61 290.743 187.053 304.186 198.345 314.94C197.808 326.591 197.055 352.043 198.345 360.646C199.958 371.401 210.713 375.165 216.09 395.06C220.392 410.977 208.203 419.974 201.572 422.484C194.044 425.531 176.084 428.291 164.469 414.956Z" fill="#888886"/>
<path d="M174.148 323.006C174.148 316.611 156.044 314.044 145.649 313.327L142.96 327.308C152.46 328.383 174.148 334.298 174.148 323.006Z" fill="#474847"/>
<path d="M173.943 361.686C172.186 355.537 154.074 358.04 143.881 360.205L145.135 374.387C154.565 372.812 177.043 372.544 173.943 361.686Z" fill="#474847"/>
<path d="M285.123 414.956C322.558 363.335 304.813 303.111 288.682 277.3C272.883 292.356 265.022 298.809 251.247 314.94C251.784 326.591 252.537 352.043 251.247 360.646C249.633 371.401 238.879 375.165 233.502 395.06C229.2 410.977 241.388 419.974 248.02 422.484C255.548 425.531 273.508 428.291 285.123 414.956Z" fill="#888886"/>
<path d="M274.164 323.006C274.164 316.611 292.267 314.044 302.663 313.327L305.352 327.308C295.852 328.383 274.164 334.298 274.164 323.006Z" fill="#474847"/>
<path d="M274.369 361.686C276.125 355.537 294.237 358.04 304.43 360.206L303.176 374.387C293.747 372.812 271.268 372.544 274.369 361.686Z" fill="#474847"/>
<path d="M159.091 278.376C140.271 306.337 129.624 369.788 164.469 414.956C176.083 428.291 194.043 425.531 201.571 422.484C208.203 419.975 220.391 410.977 216.089 395.061C210.712 375.165 199.958 371.401 198.345 360.647C197.678 356.204 197.557 347.27 197.669 338.063" stroke="#474847" stroke-width="7" stroke-linecap="round" stroke-linejoin="round"/>
<path d="M288.682 277.838C307.502 305.799 319.967 369.787 285.123 414.956C273.508 428.291 255.548 425.531 248.02 422.484C241.388 419.974 229.2 410.977 233.502 395.06C238.879 375.165 249.633 371.401 251.246 360.646C251.913 356.204 252.034 347.269 251.922 338.062" stroke="#474847" stroke-width="7" stroke-linecap="round" stroke-linejoin="round"/>
<path d="M224.194 42.8555V42.8576C191.028 42.9333 166.929 51.6867 149.506 65.4396C139.226 72.2466 127.735 89.7845 123.275 97.7026C109.63 123.931 106.039 155.27 105.912 181.586C105.886 187 103.738 193.437 101.925 200.944C101.073 204.47 91.8271 208.233 91.3775 212.236C90.6957 218.308 99.2371 224.934 100.954 232.132C102.126 237.047 97.8293 245.118 100.954 249.339C103.728 253.087 113.74 253.057 117.726 256.27C134.95 270.158 162.045 279.106 186.554 283.593C198.673 286.05 230.784 289.488 262.269 283.593C286.778 279.106 313.873 270.158 331.097 256.27C333.811 254.083 344.882 251.773 347.057 249.339C351.674 244.17 346.365 238.44 347.869 232.132C349.586 224.934 357.188 218.308 356.506 212.236C356.056 208.233 347.75 204.47 346.898 200.944C345.085 193.437 342.937 187 342.911 181.586C342.784 155.27 339.194 123.931 325.548 97.7026C321.109 87.8783 306.211 72.1005 299.317 65.4396C281.894 51.6868 257.795 42.9334 224.629 42.8576V42.8555C224.556 42.8555 224.483 42.8564 224.411 42.8565C224.339 42.8564 224.266 42.8555 224.194 42.8555Z" fill="#888886"/>
<path d="M177.374 281.602C177.804 216.215 131.309 193.416 108.008 190.19C105.096 194.655 101.556 203.633 91.3389 211.699C90.1856 220.098 99.6364 226.574 101.555 230.519C103.952 235.446 98.0749 243.84 101.555 248.263C104.682 252.236 109.73 253.088 115.536 256.329C129.369 264.049 149.412 274.611 177.374 281.602Z" fill="#E8B2B4"/>
<path d="M271.918 281.602C271.488 216.215 317.983 193.416 341.284 190.19C344.196 194.655 347.736 203.633 357.953 211.699C359.106 220.098 349.656 226.574 347.736 230.519C345.34 235.446 351.217 243.84 347.736 248.263C344.61 252.236 339.562 253.088 333.756 256.329C319.923 264.049 299.88 274.611 271.918 281.602Z" fill="#E8B2B4"/>
<path d="M206.948 45.0058C220.283 41.1344 230.428 43.3927 233.834 45.0058C234.198 48.9832 234.53 53.5403 234.79 58.4256C244.337 58.0789 257.17 59.6759 257.204 68.1035C257.237 76.4549 244.759 77.5894 235.322 76.897C235.33 80.0352 235.294 83.1838 235.201 86.2913C243.755 86.6294 252.808 88.8896 252.836 95.966C252.866 103.502 242.707 105.163 233.789 104.907C232.003 118.035 228.442 127.635 222.004 127.814C215.484 127.995 211.531 118.27 209.246 104.874C200.139 105.259 189.33 103.74 189.361 95.966C189.389 88.8416 198.565 86.5992 207.17 86.285C206.964 83.2064 206.808 80.0871 206.698 76.9768C197.447 77.4764 186.036 76.0903 186.068 68.1035C186.1 60.2417 197.27 58.3233 206.521 58.3826C206.591 53.5206 206.743 48.9798 206.948 45.0058Z" fill="#474847"/>
<path d="M144.035 199.869C147.047 192.986 119.479 189.114 105.32 188.039L102.093 197.718C114.819 201.303 141.024 206.752 144.035 199.869Z" fill="#474847"/>
<path d="M141.285 226.163C141.847 218.671 114.553 224.146 100.836 227.819L100.996 238.021C114.191 237.19 140.722 233.655 141.285 226.163Z" fill="#474847"/>
<path d="M304.503 199.869C301.492 192.986 329.059 189.114 343.219 188.039L346.445 197.718C333.719 201.303 307.514 206.752 304.503 199.869Z" fill="#474847"/>
<path d="M307.254 226.163C306.691 218.671 333.985 224.146 347.703 227.819L347.542 238.021C334.347 237.19 307.816 233.655 307.254 226.163Z" fill="#474847"/>
<path d="M186.554 283.593C162.045 279.106 134.95 270.158 117.726 256.27C113.74 253.057 103.728 253.087 100.954 249.339C97.8293 245.118 102.126 237.047 100.954 232.132C99.2371 224.934 90.6957 218.308 91.3775 212.236C91.8271 208.233 101.073 204.47 101.925 200.944C103.738 193.437 105.886 187 105.912 181.586C106.039 155.27 109.63 123.931 123.275 97.7026M262.269 283.593C286.778 279.106 313.873 270.158 331.097 256.27C333.811 254.083 344.882 251.773 347.057 249.339C351.674 244.17 346.365 238.44 347.869 232.132C349.586 224.934 357.188 218.308 356.506 212.236C356.056 208.233 347.75 204.47 346.898 200.944C345.085 193.437 342.937 187 342.911 181.586C342.784 155.27 339.194 123.931 325.548 97.7026M149.506 65.4396C166.929 51.6867 191.028 42.9333 224.194 42.8576V42.8555C224.266 42.8555 224.339 42.8564 224.411 42.8565C224.483 42.8564 224.556 42.8555 224.629 42.8555V42.8576C257.795 42.9334 281.894 51.6868 299.317 65.4396" stroke="#474847" stroke-width="7" stroke-linecap="round" stroke-linejoin="round"/>
<ellipse cx="176.6" cy="203.095" rx="11.0559" ry="11.8298" fill="#474847"/>
<ellipse cx="272.786" cy="203.095" rx="11.0559" ry="11.8298" fill="#474847"/>
<path d="M239.442 206.595C249.05 206.595 255.607 212.867 255.607 219.227C255.607 225.587 249.05 231.858 239.442 231.858C234.513 231.858 232.332 230.959 231.039 230.261C230.67 230.062 230.335 229.858 229.955 229.624C229.603 229.406 229.146 229.12 228.676 228.869C227.631 228.31 226.356 227.826 224.693 227.826C223.03 227.826 221.755 228.31 220.709 228.869C220.239 229.12 219.783 229.406 219.431 229.624C219.051 229.858 218.715 230.062 218.346 230.261C217.053 230.959 214.873 231.858 209.944 231.858C200.336 231.858 193.779 225.587 193.779 219.227C193.779 212.867 200.336 206.595 209.944 206.595C215.127 206.595 216.981 207.074 218.15 207.442C219.655 207.916 221.144 208.612 224.693 208.612C228.242 208.612 229.73 207.916 231.236 207.442C232.404 207.074 234.259 206.595 239.442 206.595Z" fill="white" stroke="#474847" stroke-width="7" stroke-linecap="round" stroke-linejoin="round"/>
<path d="M218.001 212.623C223.367 215.713 224.912 215.672 229.587 212.623C235.482 208.779 228.368 206.322 224.099 206.322C219.83 206.322 212.634 209.534 218.001 212.623Z" fill="#474847"/>
</svg>
