<svg xmlns="http://www.w3.org/2000/svg" width="450" height="450" fill="none"><path fill="#FFD8D4" d="M167.695 322.899c-5.422-23.306 2.26-48.555 6.778-58.266 32.383-38.844 127.274-20.169 121.249-5.229s-9.79 26.892-15.062 45.567c41.421 2.241 49.705 25.398 52.717 41.085s-5.272 36.604-22.593 46.315S237.581 410 202.081 400c-55 20-102.759-15.295-100.5-26.5 20.5 4.5 49.945-2.5 48-6-2.5-4.5-4.5-6.798-4.5-18.5 0-12.788 13.577-21.619 22.614-26.101"/><path fill="#F6AFA7" d="M238 357c-47.2-15.2-46-77-39.5-106 29.166-3 84.9-7.2 74.5 0s-20 65.5-5 94c1.703 3.235 0 21.661-30 12"/><path stroke="#E28479" stroke-linecap="round" stroke-linejoin="round" stroke-width="7" d="M214 291h31M220 311h23M225 330.5h22.5"/><path fill="#FFD8D4" d="M232.486 44.002c94.186.215 109.727 75.69 109.984 128.998.053 10.985 9.501 26.5 4.612 47-8.688 36.426-81.538 52.101-114.798 51.005-33.261 1.096-106.11-14.579-114.798-51.005-4.889-20.5 4.557-36.015 4.61-47 .258-53.308 15.8-128.783 109.986-128.998V44l.201.001.203-.001z"/><ellipse cx="180.082" cy="185" fill="#474847" rx="10" ry="11"/><ellipse cx="285.082" cy="185" fill="#474847" rx="10" ry="11"/><path stroke="#474847" stroke-linecap="round" stroke-linejoin="round" stroke-width="7" d="M149.581 368c-12 7.5-36.5 10.5-48.5 4.5-2.235 11.191 41.905 48.143 101.5 28M174.735 261.854c-4.502 9.934-12.155 35.762-6.753 59.603 2.751 11.717 14.257 36.221 38.268 40.5m89.292-105.452c-6.003 15.283-9.754 27.509-15.007 46.613-1.501 6.368-3.001 21.702 3.001 32.094"/><path stroke="#474847" stroke-linecap="round" stroke-linejoin="round" stroke-width="7" d="M168.439 322.38c-8.991 4.486-21.729 12.71-23.228 25.419-1.498 12.709 6.876 24.402 10.49 28.409 6.744 7.476 18.733 14.205 36.716 20.186 39.712 17.195 101.154 5.233 118.388-4.486 17.233-9.719 25.476-30.652 22.478-46.352s-11.239-38.875-52.45-41.118"/><path fill="#FFD8D4" d="M232.421 44.002c94.186.215 109.728 75.69 109.985 128.998.053 10.985 9.5 26.5 4.611 47-8.688 36.426-81.538 52.101-114.798 51.005-33.26 1.096-106.11-14.579-114.798-51.005-4.889-20.5 4.557-36.015 4.61-47 .258-53.308 15.8-128.783 109.986-128.998V44l.201.001.203-.001z"/><path fill="#F3C5C0" d="M201.494 252.037C173.481 255.041 135.675 235.264 119 225c4 21.78 55.482 45.437 112.509 46.939S352.003 238.525 345.5 220.5c-30.161 31.537-62.967 31.537-81.476 31.537s-22.511-5.633-32.515-5.257c-10.005.375-13.006 5.257-30.015 5.257"/><path fill="#FFA6A8" d="M185.935 266c.4-60.8-42.833-82-64.5-85-5 7.667-7.392 33.5-3.5 41.5 9 18.5 20 28.5 68 43.5M278.003 266c-.4-60.8 42.833-82 64.5-85 5 7.667 7.392 33.5 3.5 41.5-9 18.5-20 28.5-68 43.5"/><path stroke="#474847" stroke-linecap="round" stroke-linejoin="round" stroke-width="7" d="M232.422 44.002c94.185.215 109.728 75.69 109.985 128.998.053 10.985 9.5 26.5 4.61 47-8.687 36.426-81.537 52.101-114.798 51.005-33.26 1.096-106.11-14.579-114.797-51.005-4.89-20.5 4.557-36.015 4.61-47 .257-53.308 15.799-128.783 109.985-128.998V44l.201.001.204-.001z"/><ellipse cx="186.28" cy="192" fill="#474847" rx="10.28" ry="11"/><ellipse cx="275.72" cy="192" fill="#474847" rx="10.28" ry="11"/><path stroke="#474847" stroke-linecap="round" stroke-linejoin="round" stroke-width="7" d="M210.953 213.5s1.285 5 10.409 5 10.409-5 10.409-5 2.57 5 10.409 5 10.409-5 10.409-5"/></svg>