<svg width="310" height="384" viewBox="0 0 310 384" fill="none" xmlns="http://www.w3.org/2000/svg">
<path d="M155.362 215.501C168.187 215.529 186.202 217.091 202.64 234.351C221.91 254.585 241.219 337.512 217.132 352.5C193.3 367.329 166.808 351.768 155.362 352.473V352.5C155.302 352.494 155.242 352.491 155.181 352.486C155.12 352.491 155.06 352.494 155 352.5V352.473C143.554 351.767 117.063 367.329 93.2306 352.5C69.143 337.512 88.4527 254.585 107.723 234.351C124.161 217.091 142.175 215.528 155 215.501H155.362Z" fill="#FFD8D4"/>
<path d="M61 302.999L99 278.499C125 270.999 136 340.499 118.5 358.999C105 361.499 65.5 365.499 58.5 368.499C51.5 371.499 22.5 371.499 22.5 352.499C23.3 331.299 48.5 310.666 61 302.999Z" fill="#FFD8D4"/>
<path d="M52.0888 288.212C68.3134 292.144 78.8476 314.649 71.9671 345.222C65.0886 375.786 40.5755 373.948 31.8328 371.832L31.8325 371.832C31.83 371.832 31.8275 371.831 31.8249 371.831L31.8252 371.83C23.0831 369.709 0.448454 360.121 8.32486 329.799C16.2025 299.473 35.8659 284.287 52.0888 288.212Z" fill="#FBBCBE"/>
<path d="M39.4999 304.5C37.8999 299.3 33.4999 300.333 31.4999 301.5C16.1666 318.833 4.50002 355 31.4999 362.5C68.2999 369.7 68.4999 330.166 63.9999 309.5C64.4999 306.5 56.9999 303 54.9999 309.5C55.4999 320.5 47.4999 348.5 35.4999 345C23.4999 341.5 37.4999 311 39.4999 304.5Z" fill="#DC7A7D"/>
<path d="M251 302.999L213 278.499C187 270.999 176 340.499 193.5 358.999C207 361.499 246.5 365.499 253.5 368.499C260.5 371.499 289.5 371.499 289.5 352.499C288.7 331.299 263.5 310.666 251 302.999Z" fill="#FFD8D4"/>
<path d="M257.911 287.212C241.686 291.144 231.152 313.649 238.033 344.222C244.911 374.786 269.424 372.948 278.167 370.832L278.167 370.832C278.17 370.832 278.172 370.831 278.175 370.831L278.175 370.83C286.917 368.709 309.551 359.121 301.675 328.799C293.797 298.473 274.134 283.287 257.911 287.212Z" fill="#FBBCBE"/>
<path d="M271.831 304.5C273.431 299.3 277.831 300.333 279.831 301.5C295.164 318.833 306.831 355 279.831 362.5C243.031 369.7 242.831 330.166 247.331 309.5C246.831 306.5 254.331 303 256.331 309.5C255.831 320.5 263.831 348.5 275.831 345C287.831 341.5 273.831 311 271.831 304.5Z" fill="#DC7A7D"/>
<path d="M268.017 15.0888C256.379 11.0802 228.771 28.6024 219.396 35.2834C207.107 54.9466 247.179 94.9141 260.002 86.3014C279.399 73.2734 282.564 20.0996 268.017 15.0888Z" fill="#FFD8D4"/>
<path d="M39.9981 15.0888C51.4422 11.0802 78.5897 28.6024 87.8086 35.2834C99.8925 54.9466 60.4884 94.9141 47.879 86.3014C28.8055 73.2734 25.6929 20.0996 39.9981 15.0888Z" fill="#FFD8D4"/>
<path d="M154.297 16.5018C253.993 16.7294 270.443 96.506 270.716 152.852C270.772 164.463 280.772 180.863 275.597 202.531C266.401 241.033 189.289 257.602 154.083 256.443C118.877 257.602 41.7651 241.033 32.569 202.531C27.3936 180.863 37.3929 164.463 37.4491 152.852C37.7214 96.5059 54.1726 16.7292 153.869 16.5018V16.4998C153.94 16.4998 154.011 16.5007 154.082 16.5008C154.153 16.5007 154.225 16.4998 154.297 16.4998V16.5018Z" fill="#FFD8D4"/>
<path d="M118.5 359C134.766 359.211 147.161 351.99 155 352.473V352.5C155.06 352.494 155.12 352.491 155.181 352.486C155.242 352.491 155.302 352.494 155.362 352.5V352.473C163.143 351.994 177.376 359.102 193.5 359" stroke="black" stroke-width="4" stroke-linecap="round"/>
<path d="M57.5 368.5C64.5 365.5 105 361.5 118.5 359M86.0001 286.881L67.0001 299.131" stroke="black" stroke-width="4" stroke-linecap="round"/>
<path d="M71.1569 308C67.4514 297.352 60.5425 290.261 52.0887 288.212C35.8657 284.287 16.2023 299.473 8.32468 329.799C0.448278 360.121 23.0827 369.71 31.8248 371.831C31.8273 371.831 31.8301 371.831 31.8326 371.832C38.946 373.554 56.4994 375.092 66.5 359.142" stroke="black" stroke-width="4" stroke-linecap="round"/>
<path d="M252.688 367.5C245.688 364.5 205.188 360.5 191.688 358M224.188 285.881L243.188 298.131" stroke="black" stroke-width="4" stroke-linecap="round"/>
<path d="M239.031 307C242.736 296.352 249.645 289.261 258.099 287.212C274.322 283.287 293.985 298.473 301.863 328.799C309.739 359.121 287.105 368.71 278.363 370.831C278.36 370.831 278.358 370.831 278.355 370.832C271.242 372.554 253.688 374.092 243.688 358.142" stroke="black" stroke-width="4" stroke-linecap="round"/>
<path d="M268.017 15.0888C256.379 11.0802 228.771 28.6024 219.396 35.2834C207.107 54.9466 247.179 94.9141 260.002 86.3014C279.399 73.2734 282.564 20.0996 268.017 15.0888Z" stroke="black" stroke-width="4" stroke-linecap="round"/>
<path d="M39.9981 15.0888C51.4422 11.0802 78.5897 28.6024 87.8086 35.2834C99.8925 54.9466 60.4884 94.9141 47.879 86.3014C28.8055 73.2734 25.6929 20.0996 39.9981 15.0888Z" stroke="black" stroke-width="4" stroke-linecap="round"/>
<ellipse cx="103" cy="167.5" rx="10" ry="11" fill="black"/>
<ellipse cx="208" cy="167.5" rx="10" ry="11" fill="black"/>
<path d="M99 372.5C66.6 330.5 76.5 268.5 95 245C107.5 257 120 269.5 130.5 279.5C130 290.333 129.3 314 130.5 322C132 332 142 335.5 147 354C151 368.8 139.667 377.166 133.5 379.5C126.5 382.333 109.8 384.9 99 372.5Z" fill="#FFD8D4"/>
<path d="M211.191 372.5C246 324.5 229.5 268.5 214.5 244.5C199.809 258.5 192.5 264.5 179.691 279.5C180.191 290.333 180.891 314 179.691 322C178.191 332 168.191 335.5 163.191 354C159.191 368.8 170.524 377.166 176.691 379.5C183.691 382.333 200.391 384.9 211.191 372.5Z" fill="#FFD8D4"/>
<path d="M94 245.5C76.5 271.5 66.6 330.5 99 372.5C109.8 384.9 126.5 382.333 133.5 379.5C139.667 377.166 151 368.8 147 354C142 335.5 132 332 130.5 322C129.88 317.869 129.767 309.561 129.872 301" stroke="black" stroke-width="4" stroke-linecap="round"/>
<path d="M214.5 245C232 271 243.591 330.5 211.191 372.5C200.391 384.9 183.691 382.333 176.691 379.5C170.524 377.166 159.191 368.8 163.191 354C168.191 335.5 178.191 332 179.691 322C180.31 317.869 180.423 309.561 180.319 301" stroke="black" stroke-width="4" stroke-linecap="round"/>
<path d="M154.338 16.738C254 16.9654 270.446 96.8294 270.718 153.237C270.775 164.86 280.771 181.278 275.597 202.97C266.404 241.515 189.318 258.1 154.124 256.94C118.929 258.1 41.8443 241.514 32.6511 202.97C27.4775 181.278 37.4739 164.86 37.53 153.237C37.8023 96.8294 54.2481 16.9655 153.911 16.738V16.7361C153.982 16.7361 154.053 16.737 154.124 16.7371C154.195 16.737 154.266 16.7361 154.338 16.7361V16.738Z" fill="#FFD8D4"/>
<path d="M89.4003 228.472C78.3792 218.029 86.0013 189.688 101.5 188C116.999 186.312 129.5 166 155.5 166C181.5 166 184.5 180.721 203.5 185C222.5 189.279 228.943 212.926 222.5 223.5C214.447 236.717 192.578 250.5 157.852 250.5C121.303 250.5 105.19 243.432 89.4003 228.472Z" fill="#FFF3F2"/>
<path d="M219.5 246.5C219.077 179.977 249.388 162.782 272.314 159.5C276.017 167.5 279.618 195.247 275.5 204C265.977 224.241 247 232 219.5 246.5Z" fill="#FFA6A8"/>
<path d="M87 245.5C87.4232 178.977 59.4359 162.782 36.5109 159.5C32.8075 167.5 29.2067 195.247 33.3246 204C42.8474 224.241 59.5 231 87 245.5Z" fill="#FFA6A8"/>
<path d="M116.821 253.5C80.8309 246.909 39.1753 230.542 32.569 202.837C27.3936 181.133 37.3929 164.707 37.4491 153.077C37.5741 127.169 41.1082 96.3162 54.5385 70.4953M191.344 253.5C227.335 246.909 268.991 230.542 275.597 202.837C280.772 181.133 270.773 164.707 270.717 153.077C270.592 127.169 267.057 96.3162 253.627 70.4953M80.3569 38.7332C97.5054 25.1939 121.225 16.5764 153.869 16.5018V16.4998C153.94 16.4998 154.011 16.5007 154.082 16.5008C154.153 16.5007 154.225 16.4998 154.297 16.4998V16.5018C186.941 16.5765 210.66 25.194 227.809 38.7332" stroke="black" stroke-width="4" stroke-linecap="round"/>
<path d="M118.318 16.3351C144.042 -9.6276 172.9 5.51732 184.114 16.3351C199.449 41.4603 165.407 86.9998 153.442 86.9998C143.548 86.9998 130.191 68.6793 123.265 55.5932C121.682 58.9433 123.265 65.0152 125.738 69.7262C109.743 61.8745 99.128 35.7025 118.318 16.3351Z" fill="#F6AFA7" stroke="black" stroke-width="4"/>
<path d="M118.318 16.3351C144.042 -9.6276 172.9 5.51732 184.114 16.3351C199.449 41.4603 165.407 86.9998 153.442 86.9998C143.548 86.9998 130.191 68.6793 123.265 55.5933C121.682 58.9433 123.265 65.0152 125.738 69.7262C109.743 61.8746 99.128 35.7025 118.318 16.3351Z" stroke="black" stroke-width="4"/>
<ellipse cx="110.28" cy="171.5" rx="10.2804" ry="11" fill="black"/>
<ellipse cx="199.72" cy="171.5" rx="10.2804" ry="11" fill="black"/>
<path d="M134.953 187C134.953 187 136.238 192 145.362 192C154.486 192 155.771 187 155.771 187C155.771 187 158.341 192 166.18 192C174.019 192 176.589 187 176.589 187" stroke="black" stroke-width="4" stroke-linecap="round" stroke-linejoin="round"/>
</svg>
