<svg  viewBox="0 0 324 87" fill="none" xmlns="http://www.w3.org/2000/svg">
<path d="M105.416 46.624C105.416 48.928 106.163 50.7627 107.656 52.128C109.149 53.4933 111.283 54.176 114.056 54.176C115.507 54.176 117.021 54.0053 118.6 53.664C120.179 53.28 121.821 52.7893 123.528 52.192C123.912 52.064 124.253 52 124.552 52C125.448 52 126.024 52.4693 126.28 53.408L127.496 57.76C127.709 58.4427 127.709 58.976 127.496 59.36C127.283 59.744 126.835 60.0853 126.152 60.384C124.36 61.152 122.312 61.7493 120.008 62.176C117.747 62.6027 115.464 62.816 113.16 62.816C110.515 62.816 108.147 62.432 106.056 61.664C103.965 60.896 102.173 59.808 100.68 58.4C99.2293 56.992 98.0987 55.2853 97.288 53.28C96.52 51.232 96.136 48.9707 96.136 46.496C96.136 35.5307 102.259 30.048 114.504 30.048C116.125 30.048 117.64 30.0907 119.048 30.176C120.499 30.2613 121.779 30.3893 122.888 30.56C123.571 30.6453 124.04 30.88 124.296 31.264C124.552 31.648 124.68 32.16 124.68 32.8V37.536C124.68 38.2613 124.488 38.7733 124.104 39.072C123.72 39.328 123.208 39.4133 122.568 39.328C121.331 39.1147 120.093 38.9653 118.856 38.88C117.619 38.7947 116.509 38.752 115.528 38.752C111.944 38.752 109.363 39.392 107.784 40.672C106.205 41.952 105.416 43.936 105.416 46.624ZM140.936 68.768C140.936 70.176 140.232 70.88 138.824 70.88H133.768C132.36 70.88 131.656 70.176 131.656 68.768V15.648C131.656 14.24 132.36 13.536 133.768 13.536H138.824C140.232 13.536 140.936 14.24 140.936 15.648V37.088C141.277 36.5333 141.789 36.1067 142.472 35.808C143.197 35.4667 144.008 35.296 144.904 35.296H146.952C148.275 35.296 148.936 35.9573 148.936 37.28V42.272C148.936 43.5947 148.275 44.256 146.952 44.256H144.648C143.539 44.256 142.643 44.5973 141.96 45.28C141.277 45.92 140.936 46.752 140.936 47.776V68.768ZM123.72 17.568C125.128 17.568 125.832 18.272 125.832 19.68V24.096C125.832 25.504 125.128 26.208 123.72 26.208H98.952C97.544 26.208 96.84 25.504 96.84 24.096V19.68C96.84 18.272 97.544 17.568 98.952 17.568H123.72ZM196.082 15.52C196.082 14.1973 196.743 13.536 198.066 13.536H202.738C204.06 13.536 204.722 14.1973 204.722 15.52V68.896C204.722 70.2187 204.06 70.88 202.738 70.88H198.066C196.743 70.88 196.082 70.2187 196.082 68.896V44.256H193.458C192.732 44.256 192.135 44.4907 191.666 44.96C191.196 45.3867 190.962 45.9627 190.962 46.688V68.896C190.962 70.2187 190.3 70.88 188.978 70.88H184.306C182.983 70.88 182.322 70.2187 182.322 68.896V16.16C182.322 14.8373 182.983 14.176 184.306 14.176H188.978C190.3 14.176 190.962 14.8373 190.962 16.16V36.512C191.559 35.7013 192.455 35.296 193.65 35.296H196.082V15.52ZM164.786 17.568C168.967 17.568 172.124 18.3787 174.258 20C176.434 21.5787 177.522 23.9893 177.522 27.232C177.522 31.0293 176.37 33.9307 174.066 35.936H175.154C176.391 35.936 177.01 36.5547 177.01 37.792V42.08C177.01 43.3173 176.391 43.936 175.154 43.936C173.447 43.936 172.039 43.936 170.93 43.936C169.863 43.8933 168.903 43.872 168.05 43.872C165.234 43.872 163.25 44.256 162.098 45.024C160.988 45.792 160.434 47.136 160.434 49.056C160.434 50.72 161.01 52 162.162 52.896C163.314 53.7493 164.978 54.176 167.154 54.176C168.306 54.176 169.628 54.0267 171.122 53.728C172.615 53.3867 174.151 52.9173 175.73 52.32C175.986 52.192 176.242 52.128 176.498 52.128C177.138 52.128 177.628 52.6827 177.97 53.792L179.25 58.272C179.463 58.912 179.42 59.424 179.122 59.808C178.866 60.1493 178.375 60.4693 177.65 60.768C175.858 61.4933 174.002 62.0053 172.082 62.304C170.162 62.6453 168.306 62.816 166.514 62.816C161.82 62.816 158.194 61.6427 155.634 59.296C153.074 56.9493 151.794 53.536 151.794 49.056C151.794 44.5333 152.839 41.0987 154.93 38.752C157.02 36.4053 160.092 35.232 164.146 35.232C167.303 35.232 168.882 33.76 168.882 30.816C168.882 29.2373 168.434 28.0853 167.538 27.36C166.642 26.592 165.383 26.208 163.762 26.208C162.738 26.208 161.628 26.2933 160.434 26.464C159.239 26.6347 157.66 26.8693 155.698 27.168C154.375 27.3813 153.714 26.8267 153.714 25.504V20.384C153.714 19.7867 153.842 19.3387 154.098 19.04C154.396 18.7413 154.887 18.528 155.57 18.4C157.02 18.1013 158.535 17.888 160.114 17.76C161.735 17.632 163.292 17.568 164.786 17.568ZM227.798 51.168C227.371 52.576 226.71 53.92 225.814 55.2C224.961 56.4373 223.937 57.5467 222.742 58.528C221.547 59.4667 220.225 60.256 218.774 60.896C217.323 61.536 215.787 61.9627 214.166 62.176C213.483 62.2613 212.95 62.1333 212.566 61.792C212.225 61.4933 212.054 61.024 212.054 60.384V55.584C212.054 54.3893 212.758 53.7067 214.166 53.536C215.403 53.3653 216.555 52.896 217.622 52.128C218.731 51.3173 219.691 50.3147 220.502 49.12C221.313 47.9253 221.931 46.5813 222.358 45.088C222.827 43.552 223.062 41.952 223.062 40.288V19.872C223.062 18.336 223.766 17.568 225.174 17.568H230.294C231.659 17.568 232.342 18.336 232.342 19.872V40.288C232.342 41.952 232.577 43.552 233.046 45.088C233.515 46.5813 234.134 47.9253 234.902 49.12C235.713 50.3147 236.651 51.3173 237.718 52.128C238.827 52.896 240.001 53.3653 241.238 53.536C242.561 53.7067 243.222 54.3893 243.222 55.584V60.384C243.222 61.7493 242.561 62.3467 241.238 62.176C239.659 61.9627 238.145 61.5147 236.694 60.832C235.243 60.192 233.921 59.4027 232.726 58.464C231.574 57.4827 230.571 56.3733 229.718 55.136C228.865 53.8987 228.225 52.576 227.798 51.168ZM257.686 68.768C257.686 70.176 256.982 70.88 255.574 70.88H250.518C249.11 70.88 248.406 70.176 248.406 68.768V15.648C248.406 14.24 249.11 13.536 250.518 13.536H255.574C256.982 13.536 257.686 14.24 257.686 15.648V37.088C258.027 36.5333 258.539 36.1067 259.222 35.808C259.947 35.4667 260.758 35.296 261.654 35.296H263.702C265.025 35.296 265.686 35.9573 265.686 37.28V42.272C265.686 43.5947 265.025 44.256 263.702 44.256H261.398C260.289 44.256 259.393 44.5973 258.71 45.28C258.027 45.92 257.686 46.752 257.686 47.776V68.768ZM313.088 15.008C314.496 15.008 315.2 15.712 315.2 17.12V21.536C315.2 22.944 314.496 23.648 313.088 23.648H300.16V24.736C300.16 27.4667 301.333 29.6427 303.68 31.264C306.069 32.8853 309.525 33.696 314.048 33.696C315.456 33.696 316.16 34.3147 316.16 35.552V40.352C316.16 41.2053 315.904 41.76 315.392 42.016C314.88 42.2293 314.261 42.336 313.536 42.336C309.098 42.336 305.28 41.568 302.08 40.032C298.922 38.496 296.704 36.448 295.424 33.888C294.784 35.168 293.888 36.3413 292.736 37.408C291.626 38.432 290.304 39.3067 288.768 40.032C287.232 40.7573 285.504 41.3333 283.583 41.76C281.664 42.144 279.594 42.336 277.376 42.336C276.65 42.336 276.032 42.2293 275.52 42.016C275.008 41.76 274.752 41.2053 274.752 40.352V35.552C274.752 34.3147 275.456 33.696 276.864 33.696C281.429 33.696 284.906 32.8853 287.296 31.264C289.685 29.6427 290.88 27.4667 290.88 24.736V23.648H277.824C276.416 23.648 275.712 22.944 275.712 21.536V17.12C275.712 15.712 276.416 15.008 277.824 15.008H313.088ZM302.592 56.224C300.757 56.224 299.84 57.12 299.84 58.912V66.528C299.84 67.936 299.157 68.64 297.792 68.64H292.672C291.264 68.64 290.56 67.936 290.56 66.528V59.36C290.56 58.6773 290.73 58.0587 291.072 57.504C291.413 56.9493 291.882 56.544 292.48 56.288C288.469 56.2453 284.714 56.1387 281.216 55.968C277.717 55.7973 274.709 55.5413 272.192 55.2C270.784 55.0293 270.08 54.3467 270.08 53.152V48.416C270.08 47.7333 270.25 47.2213 270.592 46.88C270.976 46.5387 271.509 46.4107 272.192 46.496C274.965 46.8373 278.336 47.1147 282.304 47.328C286.314 47.4987 290.581 47.584 295.104 47.584C297.621 47.584 300.032 47.5627 302.336 47.52C304.682 47.4347 306.858 47.3493 308.864 47.264C310.869 47.1787 312.661 47.072 314.24 46.944C315.861 46.816 317.162 46.6667 318.144 46.496C318.826 46.368 319.36 46.496 319.744 46.88C320.128 47.2213 320.32 47.7333 320.32 48.416V53.152C320.32 54.2613 319.616 54.944 318.208 55.2C316.672 55.456 314.496 55.6907 311.68 55.904C308.906 56.1173 305.877 56.224 302.592 56.224Z" fill="#333333"/>
<path d="M123.72 17.5684C125.128 17.5684 125.832 18.2718 125.832 19.6797V24.0957C125.832 25.5037 125.128 26.208 123.72 26.208H98.9521C97.5441 26.208 96.8398 25.5037 96.8398 24.0957V19.6797C96.8399 18.2718 97.5442 17.5684 98.9521 17.5684H123.72Z" fill="#56B39A"/>
<path d="M47.3103 12.069C49.0703 10.789 52.6427 8.5964 56.4827 9.1724" stroke="#333333" stroke-width="4" stroke-linecap="round"/>
<path d="M32.8276 10.1379C34.5876 8.85795 36.2069 7.72415 42.4828 6.27588" stroke="#333333" stroke-width="4" stroke-linecap="round"/>
<circle cx="42" cy="42" r="40" stroke="#333333" stroke-width="4"/>
<path d="M19.7932 54.0688C24.9932 59.0288 41.5735 69.2804 60.9655 67.9364" stroke="#333333" stroke-width="4" stroke-linecap="round"/>
<path d="M18.3447 62.2759C23.0647 66.2759 29.6518 73.3793 48.2758 73.3793" stroke="#333333" stroke-width="4" stroke-linecap="round"/>
<path d="M5.76001 31.6855C18.48 25.3655 49.968 19.4455 74.16 46.3255" stroke="#333333" stroke-width="4" stroke-linecap="round"/>
<path d="M15.8398 13.2001C30.2398 9.1201 51.2882 8.30053 71.4482 24.6206M10.0798 21.1206C24.4798 17.0406 48.8992 12.9213 73.3792 35.2413M6.75854 43.4482C7.31854 38.0082 8.68958 34.7585 11.5861 29.4482" stroke="#333333" stroke-width="4" stroke-linecap="round"/>
<path d="M11.1035 57.4482C11.4235 48.8882 13.5173 37.6551 20.2759 27.5172M17.8621 67.1034C17.8621 57.2634 21.0114 34.3304 31.3794 27.0344" stroke="#333333" stroke-width="4" stroke-linecap="round"/>
<circle cx="36.9601" cy="46.08" r="3.36" fill="#333333"/>
<circle cx="59.0399" cy="46.08" r="3.36" fill="#333333"/>
<path d="M43.9199 48.48C43.9999 49.68 44.9759 52.08 48.2399 52.08C51.5039 52.08 52.1599 49.68 52.0799 48.48" stroke="#333333" stroke-width="4" stroke-linecap="round"/>
<path d="M134 68.0001C126 84.5001 81 88.0001 77.5 81.0001C74.1385 74.277 92.8182 76 89 69C86 63.5 71.0184 73.2627 61 77.5001" stroke="#333333" stroke-width="4" stroke-linecap="round"/>
</svg>
