<svg width="420" height="420" viewBox="0 0 420 420" fill="none" xmlns="http://www.w3.org/2000/svg">
<path d="M67.6613 79.3985C96.0613 40.9985 136.495 63.3985 153.161 79.3985C189.162 59.3986 238.161 54.8984 276.161 79.3985C303.161 32.3985 350.661 62.3985 365.161 93.3985C379.661 124.398 369.161 160.399 350.661 169.399C360.261 184.599 351.994 216.732 350.661 230.898C354.161 234.065 358.761 238.498 365.161 248.898C373.161 261.898 361.161 275.898 361.161 285.898C361.161 295.898 365.161 325.898 330.661 331.398C233.661 395.398 131.661 349.898 94.1611 331.398C58.1611 319.898 63.1611 305.898 63.1611 296.398C63.1611 286.898 55.6611 275.898 51.6611 265.898C47.6611 255.898 54.6611 248.898 67.6613 230.898C67.6613 208.398 71.6611 188.898 77.1611 169.399C54.1611 166.899 32.1613 127.398 67.6613 79.3985Z" fill="white" stroke="#A5A5A5" stroke-width="4" stroke-linecap="round" stroke-linejoin="round" stroke-dasharray="8 8"/>
<path d="M339.516 97.5561C346.802 104.08 357.743 124.941 343.763 146.45C323.867 164.195 297.177 154.878 291.396 149.037L291.392 149.041C291.361 149.007 291.33 148.972 291.298 148.936C291.264 148.902 291.231 148.869 291.199 148.835L291.203 148.831C285.721 142.672 275.085 117.346 295.71 95.3682C308.832 81.3864 333.393 89.7924 339.516 97.5561Z" fill="#D7F5F2"/>
<path d="M88.2265 98.0293C75.9785 108.272 70.0933 132.098 85.1197 148.063C103.402 164.195 132.648 157.997 138.713 151.887L138.717 151.891C138.75 151.855 138.783 151.818 138.816 151.781C138.851 151.745 138.886 151.711 138.92 151.675L138.916 151.671C144.667 145.227 157.305 121.022 135.665 98.0293C120.639 82.0637 97.4873 87.8389 88.2265 98.0293Z" fill="#D7F5F2"/>
<path d="M93.3519 149.341C85.1785 144.622 81.5707 136.405 80.7495 128.001C79.9123 119.434 82.0617 111.525 84.3878 108.198C84.5035 108.032 84.6046 107.857 84.6901 107.674C86.4084 103.996 92.1829 98.1803 100.021 94.6214C107.71 91.1305 116.63 90.1465 124.804 94.8654L125.856 95.4899C136.548 102.003 141.561 110.433 143.608 118.32C144.094 120.191 146.005 121.315 147.876 120.829C149.746 120.343 150.87 118.433 150.384 116.563C147.861 106.84 141.617 96.6962 128.913 89.1597L128.304 88.8033C117.571 82.6066 106.144 84.1549 97.1279 88.2485C88.405 92.2089 81.211 98.8765 78.4821 104.438C75.0295 109.582 72.8519 119.147 73.7836 128.682C74.7465 138.537 79.1189 149.207 89.8519 155.403C102.966 162.975 115.097 163.365 124.932 160.646C126.795 160.131 127.888 158.203 127.373 156.34C126.858 154.477 124.93 153.384 123.067 153.899C114.959 156.14 104.77 155.934 93.3519 149.341Z" fill="black"/>
<path d="M336.14 148.115C343.474 143.881 346.607 136.105 347.104 127.846C347.607 119.476 345.323 111.591 342.971 108.177C342.865 108.024 342.771 107.861 342.691 107.693C340.912 103.949 335.224 98.0287 327.724 94.2795C320.324 90.5799 312.022 89.4054 304.688 93.6396L303.73 94.2085C294.01 100.154 289.608 108.146 287.948 115.785C287.538 117.674 285.674 118.873 283.785 118.463C281.896 118.052 280.697 116.188 281.108 114.299C283.168 104.819 288.755 94.9656 300.618 87.9113L301.188 87.5774C311.306 81.7361 322.261 83.7231 330.854 88.0185C339.219 92.1999 346.176 98.9647 348.889 104.437C352.272 109.523 354.652 118.931 354.091 128.266C353.514 137.855 349.758 148.336 339.64 154.178C327.385 161.253 315.845 161.21 306.458 158.207C304.617 157.618 303.602 155.648 304.191 153.807C304.78 151.966 306.75 150.951 308.591 151.54C316.277 153.999 325.75 154.114 336.14 148.115Z" fill="black"/>
<path d="M168.466 245.39C168.466 251.923 163.651 257.22 157.711 257.22C151.772 257.22 146.957 251.923 146.957 245.39C146.957 238.857 151.772 233.56 157.711 233.56C163.651 233.56 168.466 238.857 168.466 245.39Z" fill="#474847"/>
<path d="M281.387 245.39C281.387 251.923 276.572 257.22 270.632 257.22C264.693 257.22 259.878 251.923 259.878 245.39C259.878 238.857 264.693 233.56 270.632 233.56C276.572 233.56 281.387 238.857 281.387 245.39Z" fill="#474847"/>
<path d="M213.136 93.7539V93.756C179.969 93.8317 155.87 102.585 138.448 116.338C128.167 123.145 116.677 140.683 112.216 148.601C98.571 174.829 94.9803 206.169 94.8533 232.485C94.8272 237.899 92.6795 244.335 90.8662 251.843C90.0145 255.369 80.7685 259.131 80.3189 263.135C79.6371 269.206 88.1785 275.833 89.8952 283.03C91.0675 287.945 86.7707 296.016 89.8952 300.237C92.6695 303.985 102.682 303.956 106.667 307.169C123.892 321.056 150.986 330.005 175.495 334.492C187.615 336.948 219.726 340.387 251.211 334.492C275.719 330.005 302.814 321.056 320.039 307.169C322.752 304.981 333.824 302.672 335.998 300.237C340.616 295.068 335.306 289.339 336.811 283.03C338.528 275.833 346.129 269.206 345.447 263.135C344.997 259.131 336.692 255.369 335.84 251.843C334.027 244.335 331.879 237.899 331.853 232.485C331.726 206.169 328.135 174.829 314.49 148.601C310.05 138.777 295.152 122.999 288.258 116.338C270.835 102.585 246.737 93.8318 213.57 93.756V93.7539C213.498 93.7539 213.425 93.7549 213.352 93.755C213.28 93.7549 213.208 93.7539 213.136 93.7539Z" fill="#D7F5F2"/>
<path d="M166.315 332.5C166.745 267.114 120.251 244.315 96.9495 241.088C94.0377 245.553 90.4969 254.531 80.2803 262.597C79.127 270.996 88.5778 277.472 90.4969 281.417C92.8939 286.344 87.0163 294.738 90.4969 299.162C93.6232 303.135 98.6712 303.987 104.478 307.228C118.31 314.948 138.354 325.51 166.315 332.5Z" fill="#FFD9D9"/>
<path d="M260.859 332.5C260.429 267.114 306.924 244.315 330.225 241.088C333.137 245.553 336.677 254.531 346.894 262.597C348.047 270.996 338.596 277.472 336.677 281.417C334.28 286.344 340.158 294.738 336.677 299.162C333.551 303.135 328.503 303.987 322.697 307.228C308.864 314.948 288.82 325.51 260.859 332.5Z" fill="#FFD9D9"/>
<path d="M195.889 95.9042C209.225 92.0328 219.37 94.2911 222.775 95.9042C223.139 99.8816 223.471 104.439 223.731 109.324C233.278 108.977 246.111 110.574 246.145 119.002C246.179 127.353 233.701 128.488 224.264 127.795C224.272 130.934 224.235 134.082 224.143 137.19C232.697 137.528 241.749 139.788 241.777 146.864C241.807 154.401 231.648 156.061 222.73 155.805C220.944 168.933 217.383 178.534 210.946 178.713C204.425 178.894 200.472 169.169 198.187 155.772C189.081 156.157 178.272 154.638 178.302 146.864C178.331 139.74 187.506 137.498 196.111 137.183C195.905 134.105 195.75 130.986 195.64 127.875C186.389 128.375 174.978 126.989 175.01 119.002C175.041 111.14 186.212 109.222 195.462 109.281C195.532 104.419 195.684 99.8783 195.889 95.9042Z" fill="#698383"/>
<path d="M132.977 250.767C135.988 243.884 108.421 240.013 94.261 238.938L91.0347 248.616C103.761 252.201 129.965 257.65 132.977 250.767Z" fill="#698383"/>
<path d="M130.226 277.061C130.789 269.57 103.495 275.044 89.7772 278.718L89.9377 288.919C103.133 288.088 129.664 284.553 130.226 277.061Z" fill="#698383"/>
<path d="M293.445 250.767C290.433 243.884 318 240.013 332.16 238.938L335.387 248.616C322.661 252.201 296.456 257.65 293.445 250.767Z" fill="#698383"/>
<path d="M296.195 277.061C295.633 269.57 322.927 275.044 336.644 278.718L336.484 288.919C323.289 288.088 296.758 284.553 296.195 277.061Z" fill="#698383"/>
<path d="M312.874 145.496C314.589 144.604 316.703 145.271 317.595 146.985C331.617 173.939 335.225 205.933 335.353 232.468C335.364 234.762 335.829 237.408 336.581 240.569C336.954 242.136 337.383 243.774 337.842 245.525C338.297 247.264 338.78 249.106 339.242 251.021C339.216 250.911 339.289 251.228 340.12 252.064C340.885 252.834 341.855 253.629 343.046 254.63C344.15 255.558 345.45 256.669 346.502 257.863C347.512 259.01 348.692 260.666 348.925 262.744C349.184 265.054 348.635 267.22 347.87 269.107C347.109 270.984 346.036 272.819 345.014 274.488C342.821 278.07 340.911 280.929 340.216 283.842C339.692 286.04 340.338 287.978 341.007 291.388C341.62 294.516 342.063 298.702 338.608 302.569C337.484 303.827 335.691 304.682 334.346 305.258C332.822 305.91 331.031 306.534 329.353 307.107C327.619 307.7 326.004 308.24 324.634 308.77C323.149 309.344 322.435 309.733 322.235 309.894C304.351 324.313 276.604 333.393 251.904 337.922C243.201 339.91 227.87 341.004 212.943 341.077C198.131 341.15 183.005 340.223 174.712 337.905C150.035 333.371 122.334 324.296 104.471 309.894C103.974 309.493 103.085 309.051 101.661 308.582C100.26 308.121 98.7082 307.745 96.9542 307.293C95.29 306.864 93.4343 306.364 91.7901 305.685C90.1936 305.025 88.3416 304.021 87.0821 302.319C85.7351 300.5 85.3148 298.428 85.2442 296.594C85.1746 294.782 85.4386 292.922 85.713 291.308C86.0109 289.555 86.3006 288.182 86.4776 286.765C86.6511 285.377 86.6358 284.452 86.4903 283.842C85.8205 281.034 83.7719 278.228 81.3175 274.635C80.1843 272.976 78.9746 271.139 78.1075 269.258C77.2374 267.37 76.5713 265.145 76.8409 262.744L76.8995 262.338C77.2556 260.339 78.5106 258.784 79.5265 257.738C80.6783 256.553 82.1064 255.45 83.3233 254.524C84.6344 253.527 85.7138 252.725 86.5567 251.952C87.5003 251.087 87.5168 250.802 87.464 251.021C87.9264 249.106 88.4089 247.264 88.8644 245.525C89.3231 243.774 89.7525 242.136 90.1251 240.569C90.8769 237.408 91.3425 234.762 91.3536 232.468C91.4817 205.933 95.0891 173.939 109.111 146.985C110.004 145.271 112.117 144.604 113.831 145.496C115.546 146.388 116.214 148.502 115.321 150.217C102.054 175.72 98.4796 206.405 98.3536 232.502C98.3385 235.622 97.7166 238.901 96.9347 242.188C96.5405 243.846 96.0915 245.563 95.6368 247.299C95.1789 249.047 94.7128 250.825 94.2687 252.664C93.7899 254.646 92.3314 256.155 91.2882 257.111C90.1439 258.161 88.7237 259.211 87.5606 260.096C86.3035 261.052 85.2818 261.86 84.547 262.616C83.9581 263.222 83.8174 263.532 83.7931 263.578C83.7354 264.209 83.8879 265.076 84.4649 266.328C85.0612 267.622 85.9665 269.029 87.0978 270.686C89.1726 273.723 92.2529 277.829 93.2999 282.218C93.7406 284.066 93.6288 285.993 93.4239 287.633C93.2227 289.243 92.8526 291.073 92.6134 292.48C92.3507 294.026 92.1993 295.282 92.2394 296.324C92.2786 297.344 92.493 297.865 92.7081 298.155C92.8359 298.328 93.2767 298.725 94.462 299.215C95.5999 299.685 97.0167 300.081 98.7003 300.515C100.294 300.925 102.166 301.378 103.85 301.933C105.511 302.479 107.369 303.238 108.864 304.444C124.896 317.37 150.183 326.045 173.842 330.619L176.126 331.049L176.291 331.084C176.346 331.097 176.401 331.11 176.455 331.126C183.648 333.178 197.978 334.15 212.909 334.077C227.78 334.004 242.526 332.9 250.425 331.081C250.476 331.069 250.528 331.058 250.58 331.049C274.882 326.6 301.293 317.787 317.842 304.444C318.999 303.512 320.687 302.791 322.109 302.241C323.645 301.647 325.443 301.046 327.088 300.483C328.788 299.902 330.343 299.357 331.592 298.822C333.019 298.212 333.425 297.864 333.388 297.905C334.55 296.604 334.649 295.34 334.138 292.734C333.682 290.41 332.426 286.328 333.406 282.218C334.428 277.934 337.177 273.881 339.043 270.833C340.051 269.187 340.857 267.776 341.383 266.478C341.905 265.19 342.05 264.252 341.969 263.525C341.977 263.601 341.95 263.286 341.25 262.491C340.592 261.744 339.677 260.943 338.542 259.989C337.494 259.109 336.201 258.052 335.154 256.999C334.176 256.014 332.89 254.538 332.438 252.664C331.993 250.825 331.527 249.047 331.069 247.299C330.615 245.563 330.166 243.846 329.772 242.188C328.99 238.901 328.368 235.622 328.353 232.502C328.227 206.405 324.653 175.72 311.385 150.217C310.493 148.502 311.16 146.388 312.874 145.496ZM213.661 90.2568C247.425 90.3485 272.299 99.2814 290.427 113.591C291.944 114.788 292.204 116.99 291.006 118.507C289.808 120.024 287.607 120.283 286.09 119.085C269.387 105.9 246.089 97.3302 213.563 97.2559C213.542 97.2558 213.522 97.2543 213.502 97.2539C213.435 97.2541 213.577 97.2546 213.357 97.2549H213.348C213.12 97.2546 213.275 97.2541 213.203 97.2539C213.183 97.2543 213.164 97.2558 213.144 97.2559C180.617 97.3301 157.319 105.901 140.616 119.085C139.099 120.283 136.898 120.024 135.7 118.507C134.503 116.99 134.762 114.788 136.279 113.591C154.407 99.2816 179.28 90.3486 213.044 90.2568C213.075 90.2561 213.105 90.2539 213.136 90.2539C213.186 90.2539 213.234 90.2546 213.269 90.2549H213.437C213.472 90.2546 213.52 90.2539 213.57 90.2539C213.601 90.2539 213.631 90.2561 213.661 90.2568Z" fill="black"/>
<path d="M176.597 253.994C176.597 260.527 171.647 265.823 165.541 265.823C159.435 265.823 154.485 260.527 154.485 253.994C154.485 247.46 159.435 242.164 165.541 242.164C171.647 242.164 176.597 247.46 176.597 253.994Z" fill="#474847"/>
<path d="M272.784 253.994C272.784 260.527 267.834 265.823 261.728 265.823C255.622 265.823 250.672 260.527 250.672 253.994C250.672 247.46 255.622 242.164 261.728 242.164C267.834 242.164 272.784 247.46 272.784 253.994Z" fill="#474847"/>
<path d="M179.221 270.125C179.221 261.216 188.025 253.994 198.886 253.994C209.747 253.994 207.795 256.01 213.635 256.01C219.474 256.01 217.523 253.994 228.384 253.994C239.244 253.994 248.049 261.216 248.049 270.125C248.049 279.034 239.244 286.257 228.384 286.257C217.523 286.257 217.322 282.224 213.635 282.224C209.947 282.224 209.747 286.257 198.886 286.257C188.025 286.257 179.221 279.034 179.221 270.125Z" fill="white"/>
<path d="M214.079 275.232C216.268 275.313 217.972 275.988 219.269 276.681C219.855 276.995 220.415 277.346 220.735 277.543C221.114 277.777 221.372 277.934 221.643 278.08C222.36 278.467 223.956 279.256 228.384 279.256V286.256L227.396 286.245C217.507 286.008 217.207 282.224 213.635 282.224C209.948 282.224 209.746 286.256 198.886 286.256V279.256C203.313 279.256 204.91 278.467 205.627 278.08C205.897 277.934 206.156 277.777 206.534 277.543C206.855 277.346 207.414 276.995 208.001 276.681C209.384 275.941 211.23 275.224 213.635 275.224L214.079 275.232ZM241.049 270.125C241.049 266.315 236.739 260.994 228.384 260.994C223.448 260.994 221.967 261.446 221.229 261.678C219.818 262.123 217.813 263.01 213.635 263.01C209.456 263.01 207.45 262.123 206.039 261.678C205.302 261.446 203.821 260.994 198.886 260.994C190.531 260.994 186.221 266.315 186.221 270.125C186.221 273.936 190.531 279.256 198.886 279.256V286.256C188.195 286.256 179.497 279.258 179.228 270.542L179.221 270.125C179.221 261.216 188.025 253.994 198.886 253.994C209.407 253.994 207.905 255.886 213.109 256.004L213.635 256.01C219.474 256.01 217.523 253.994 228.384 253.994L228.891 253.999C239.517 254.219 248.049 261.355 248.049 270.125L248.042 270.542C247.773 279.258 239.075 286.256 228.384 286.256V279.256C236.739 279.256 241.049 273.936 241.049 270.125Z" fill="black"/>
<path d="M206.942 263.521C212.309 266.611 213.853 266.57 218.529 263.521C224.424 259.677 217.309 257.22 213.04 257.22C208.772 257.22 201.576 260.432 206.942 263.521Z" fill="#474847"/>
</svg>
