<svg width="420" height="420" viewBox="0 0 420 420" fill="none" xmlns="http://www.w3.org/2000/svg">
<path d="M164.633 76.3536L138.298 84.6761C122.598 78.8063 88.2608 63.6015 76.5113 70.2308C61.8243 78.5176 65.8762 118.002 76.5113 164.096C64.3566 181.913 66.3567 215.025 67.8762 229.354C47.9559 272.513 64.2868 362.479 211.987 361.731C369.998 360.931 370.082 271.823 347.46 229.354C349.993 208.637 350.46 187.92 340.331 164.096C362.615 133.539 359.615 87.84 347.46 70.2308C337.737 56.1435 296.544 73.9366 278.987 85.6761C274.423 88.7279 269.461 83.8116 247.987 76.3536C223.987 47.2308 178.476 57.018 164.633 76.3536Z" fill="white" stroke="#A5A5A5" stroke-width="4" stroke-linecap="round" stroke-linejoin="round" stroke-dasharray="8 8"/>
<path d="M323.433 95.5886C311.795 91.5799 284.187 109.102 274.812 115.783C262.524 135.446 302.596 175.414 315.419 166.801C334.816 153.773 337.981 100.599 323.433 95.5886Z" fill="#D7F5F2"/>
<path d="M95.4147 95.5886C106.859 91.5799 134.006 109.102 143.225 115.783C155.309 135.446 115.905 175.414 103.296 166.801C84.2221 153.773 81.1095 100.599 95.4147 95.5886Z" fill="#D7F5F2"/>
<path d="M209.714 97.0016C309.41 97.2291 325.86 177.006 326.132 233.352C326.189 244.963 336.189 261.362 331.014 283.031C321.818 321.533 244.706 338.102 209.5 336.943C174.293 338.102 97.1817 321.533 87.9856 283.031C82.8103 261.362 92.8096 244.963 92.8657 233.352C93.1381 177.006 109.589 97.2289 209.286 97.0016V96.9995C209.357 96.9995 209.428 97.0005 209.499 97.0005C209.57 97.0005 209.642 96.9995 209.714 96.9995V97.0016Z" fill="#D7F5F2"/>
<path d="M311.331 92.7348C315.886 91.5017 320.643 90.9263 324.573 92.2797C330.036 94.1616 332.956 100.094 334.445 106.164C336.008 112.535 336.363 120.466 335.641 128.501C334.917 136.556 333.092 144.929 330.143 152.199C327.221 159.402 323.042 165.897 317.371 169.706C314.849 171.4 311.881 171.739 309.025 171.358C306.182 170.978 303.207 169.861 300.298 168.321C294.474 165.236 288.328 160.136 283.08 154.217C277.833 148.3 273.287 141.343 270.866 134.416C268.459 127.531 267.981 120.111 271.844 113.928L271.939 113.785C272.168 113.455 272.453 113.167 272.781 112.933C277.567 109.522 286.977 103.362 296.722 98.5405C301.59 96.1319 306.653 94.0012 311.331 92.7348ZM322.294 98.8979C320.404 98.2471 317.347 98.3581 313.16 99.4916C309.095 100.592 304.487 102.508 299.827 104.814C290.91 109.226 282.204 114.862 277.452 118.204C275.499 121.792 275.526 126.534 277.473 132.107C279.51 137.935 283.48 144.118 288.317 149.574C293.154 155.028 298.663 159.534 303.575 162.135C306.034 163.438 308.197 164.185 309.952 164.419C311.693 164.652 312.784 164.355 313.467 163.896C317.494 161.191 320.985 156.154 323.657 149.567C326.302 143.046 327.996 135.369 328.67 127.875C329.345 120.363 328.976 113.246 327.647 107.831C326.244 102.114 324.104 99.5214 322.294 98.8979Z" fill="black"/>
<path d="M107.345 92.7388C102.861 91.5043 98.1535 90.921 94.2574 92.2857C91.5056 93.2497 89.4323 95.2826 87.9107 97.6734C86.3912 100.061 85.2943 102.996 84.5269 106.176C82.9914 112.541 82.6423 120.465 83.3521 128.497C84.0636 136.546 85.8571 144.913 88.7555 152.179C91.6261 159.376 95.7342 165.874 101.322 169.691C103.823 171.399 106.768 171.74 109.598 171.356C112.411 170.974 115.349 169.853 118.213 168.31C123.95 165.22 129.998 160.115 135.159 154.196C140.32 148.276 144.789 141.32 147.168 134.399C149.531 127.522 149.999 120.121 146.208 113.951L146.114 113.806C145.887 113.475 145.605 113.185 145.279 112.949C140.571 109.537 131.316 103.375 121.728 98.5504C116.939 96.1407 111.954 94.0077 107.345 92.7388ZM96.5719 98.8921C98.3977 98.2526 101.376 98.3557 105.488 99.4879C109.476 100.586 114.001 102.499 118.582 104.804C127.342 109.212 135.896 114.843 140.569 118.184C142.495 121.785 142.465 126.544 140.547 132.124C138.543 137.957 134.637 144.142 129.882 149.595C125.127 155.05 119.715 159.551 114.894 162.147C112.48 163.447 110.365 164.188 108.657 164.42C106.965 164.65 105.922 164.356 105.27 163.911C101.321 161.213 97.8878 156.18 95.2574 149.586C92.6548 143.061 90.9875 135.379 90.3248 127.88C89.6604 120.364 90.0235 113.24 91.3316 107.818C91.986 105.106 92.8432 102.962 93.817 101.432C94.7887 99.9052 95.7476 99.1809 96.5719 98.8921Z" fill="black"/>
<path d="M168.417 247.999C168.417 254.074 163.94 258.999 158.417 258.999C152.894 258.999 148.417 254.074 148.417 247.999C148.417 241.924 152.894 236.999 158.417 236.999C163.94 236.999 168.417 241.924 168.417 247.999Z" fill="#474847"/>
<path d="M273.417 247.999C273.417 254.074 268.94 258.999 263.417 258.999C257.894 258.999 253.417 254.074 253.417 247.999C253.417 241.924 257.894 236.999 263.417 236.999C268.94 236.999 273.417 241.924 273.417 247.999Z" fill="#474847"/>
<path d="M209.672 97.5012C309.334 97.7286 325.78 177.593 326.052 234C326.109 245.624 336.105 262.042 330.931 283.734C321.738 322.278 244.652 338.864 209.458 337.703C174.263 338.863 97.1783 322.277 87.985 283.734C82.8115 262.042 92.8078 245.624 92.864 234C93.1363 177.593 109.582 97.7286 209.245 97.5012V97.4993C209.316 97.4993 209.387 97.5002 209.458 97.5002C209.529 97.5002 209.6 97.4993 209.672 97.4993V97.5012Z" fill="#D7F5F2"/>
<path d="M144.817 308.971C133.796 298.529 141.418 270.187 156.917 268.499C172.415 266.811 184.917 246.499 210.917 246.499C236.917 246.499 239.917 261.22 258.917 265.499C277.917 269.778 284.359 293.426 277.917 303.999C269.864 317.216 247.994 330.999 213.269 330.999C176.72 330.999 160.606 323.932 144.817 308.971Z" fill="#FDFFFF"/>
<path d="M274.916 326.999C274.493 260.477 304.805 243.282 327.73 239.999C331.433 247.999 335.034 275.746 330.916 284.499C321.393 304.74 302.416 312.499 274.916 326.999Z" fill="#FFD9D9"/>
<path d="M142.416 325.999C142.84 259.477 114.852 243.282 91.9272 239.999C88.2239 247.999 84.6231 275.746 88.741 284.499C98.2638 304.74 114.916 311.499 142.416 325.999Z" fill="#FFD9D9"/>
<path d="M307.428 147.89C309.143 146.998 311.257 147.665 312.149 149.38C325.956 175.926 329.507 207.433 329.633 233.559C329.645 236.025 330.191 238.892 331.046 242.37C331.86 245.676 333.019 249.771 333.95 253.912C335.868 262.443 337.179 272.568 334.418 284.149C330.763 299.476 317.591 311.136 301.551 319.675C285.426 328.26 265.686 334.082 247.499 337.421C226.083 342.622 191.301 341.048 171.607 337.442C153.39 334.106 133.604 328.277 117.448 319.675C101.408 311.136 88.2365 299.476 84.5816 284.149C81.8202 272.568 83.1314 262.443 85.0493 253.912C85.9803 249.771 87.1395 245.676 87.9527 242.37C88.808 238.892 89.3539 236.025 89.3658 233.559C89.4919 207.433 93.0429 175.926 106.85 149.38C107.742 147.666 109.855 146.998 111.57 147.89C113.285 148.782 113.952 150.895 113.06 152.61C100.007 177.706 96.4897 207.904 96.3658 233.593C96.3496 236.942 95.6241 240.49 94.7505 244.042C93.8348 247.765 92.8074 251.314 91.8784 255.447C90.0767 263.462 88.9763 272.402 91.3902 282.525C94.3416 294.902 105.3 305.278 120.738 313.497C136.058 321.653 155.096 327.302 172.869 330.557C192.067 334.073 225.839 335.506 245.931 330.599L246.13 330.557C263.904 327.302 282.941 321.653 298.261 313.497C313.699 305.278 324.658 294.902 327.609 282.525C330.023 272.402 328.922 263.462 327.121 255.447C326.192 251.314 325.164 247.765 324.249 244.042C323.375 240.49 322.649 236.942 322.633 233.593C322.509 207.904 318.992 177.706 305.939 152.61C305.047 150.895 305.714 148.782 307.428 147.89ZM209.805 93.5024C243.047 93.5931 267.541 102.39 285.394 116.486C286.911 117.684 287.17 119.885 285.972 121.402C284.774 122.919 282.573 123.178 281.056 121.98C264.628 109.009 241.71 100.575 209.706 100.501C209.685 100.501 209.665 100.5 209.645 100.5C209.58 100.5 209.722 100.5 209.502 100.5H209.495C209.268 100.5 209.423 100.5 209.353 100.5C209.333 100.5 209.313 100.501 209.293 100.501C177.289 100.575 154.371 109.009 137.943 121.98C136.426 123.178 134.225 122.919 133.027 121.402C131.829 119.885 132.088 117.684 133.605 116.486C151.458 102.39 175.952 93.593 209.194 93.5024C209.224 93.5017 209.255 93.4995 209.286 93.4995C209.335 93.4995 209.382 93.5002 209.417 93.5005H209.582C209.616 93.5002 209.664 93.4995 209.713 93.4995C209.744 93.4995 209.775 93.5017 209.805 93.5024Z" fill="black"/>
<path d="M173.734 96.8346C199.459 70.8719 228.317 86.0168 239.53 96.8346C254.866 121.96 220.824 167.499 208.859 167.499C198.965 167.499 185.607 149.179 178.682 136.093C177.099 139.443 178.682 145.515 181.155 150.226C165.16 142.374 154.545 116.202 173.734 96.8346Z" fill="#96E2DB"/>
<path d="M171.248 94.3713C184.935 80.5577 199.726 77.5218 212.627 79.5861C224.92 81.5531 235.294 88.1006 241.384 93.7697L241.96 94.3156L242.116 94.4758C242.266 94.6409 242.401 94.8199 242.518 95.0109C246.919 102.221 247.651 110.694 246.348 119.017C245.045 127.34 241.672 135.785 237.491 143.292C233.306 150.807 228.219 157.548 223.337 162.458C220.9 164.91 218.445 166.976 216.112 168.451C213.868 169.871 211.344 170.999 208.859 170.999C205.352 170.999 201.951 169.406 198.939 167.302C195.874 165.161 192.851 162.238 190.024 159.009C188.045 156.748 186.121 154.287 184.302 151.756C184.142 152.085 183.929 152.393 183.664 152.666C182.607 153.752 180.972 154.035 179.613 153.367C170.588 148.937 163.306 139.512 160.837 128.622C158.332 117.569 160.77 104.947 171.248 94.3713ZM211.521 86.4982C200.759 84.7764 188.259 87.1492 176.221 99.298C167.51 108.09 165.66 118.237 167.664 127.074C168.842 132.271 171.349 136.995 174.598 140.719C174.441 138.643 174.627 136.481 175.517 134.597C176.083 133.399 177.277 132.624 178.602 132.594C179.927 132.564 181.155 133.284 181.775 134.455C185.142 140.816 190.066 148.43 195.29 154.398C197.905 157.384 200.509 159.86 202.948 161.563C205.439 163.303 207.418 163.999 208.859 163.999C209.365 163.999 210.522 163.704 212.37 162.535C214.129 161.423 216.177 159.733 218.373 157.524C222.761 153.11 227.47 146.896 231.374 139.886C235.283 132.868 238.292 125.216 239.432 117.934C240.545 110.823 239.843 104.325 236.769 99.0402C231.494 94.0745 222.267 88.2176 211.521 86.4982Z" fill="black"/>
<path d="M171.248 94.3713C184.935 80.5577 199.726 77.5218 212.627 79.5861C224.92 81.5531 235.294 88.1006 241.384 93.7697L241.96 94.3156L242.116 94.4758C242.266 94.6409 242.401 94.8199 242.518 95.0109C246.919 102.221 247.651 110.694 246.348 119.017C245.045 127.34 241.672 135.785 237.491 143.292C233.306 150.807 228.219 157.548 223.337 162.458C220.9 164.91 218.445 166.976 216.112 168.451C213.868 169.871 211.344 170.999 208.859 170.999C205.352 170.999 201.951 169.406 198.939 167.302C195.874 165.161 192.851 162.238 190.024 159.009C188.045 156.748 186.121 154.287 184.302 151.756C184.142 152.085 183.929 152.393 183.664 152.666C182.607 153.752 180.972 154.035 179.613 153.367C170.588 148.937 163.306 139.512 160.837 128.622C158.332 117.569 160.77 104.947 171.248 94.3713ZM211.521 86.4982C200.759 84.7764 188.259 87.1492 176.221 99.298C167.51 108.09 165.66 118.237 167.664 127.074C168.842 132.271 171.349 136.995 174.598 140.719C174.441 138.643 174.627 136.481 175.517 134.597C176.083 133.399 177.277 132.624 178.602 132.594C179.927 132.564 181.155 133.284 181.775 134.455C185.142 140.816 190.066 148.43 195.29 154.398C197.905 157.384 200.509 159.86 202.948 161.563C205.439 163.303 207.418 163.999 208.859 163.999C209.365 163.999 210.522 163.704 212.37 162.535C214.129 161.423 216.177 159.733 218.373 157.524C222.761 153.11 227.47 146.896 231.374 139.886C235.283 132.868 238.292 125.216 239.432 117.934C240.545 110.823 239.843 104.325 236.769 99.0402C231.494 94.0745 222.267 88.2176 211.521 86.4982Z" fill="black"/>
<path d="M175.977 251.999C175.977 258.074 171.375 262.999 165.697 262.999C160.019 262.999 155.417 258.074 155.417 251.999C155.417 245.924 160.019 240.999 165.697 240.999C171.375 240.999 175.977 245.924 175.977 251.999Z" fill="#474847"/>
<path d="M265.416 251.999C265.416 258.074 260.814 262.999 255.136 262.999C249.458 262.999 244.855 258.074 244.855 251.999C244.855 245.924 249.458 240.999 255.136 240.999C260.814 240.999 265.416 245.924 265.416 251.999Z" fill="#474847"/>
<path d="M189.499 264.11C191.315 263.643 193.163 264.69 193.712 266.462C193.719 266.48 193.737 266.516 193.765 266.568C193.85 266.719 194.044 267.011 194.427 267.339C195.142 267.95 196.888 268.999 200.779 268.999C204.669 268.999 206.415 267.95 207.13 267.339C207.513 267.011 207.707 266.719 207.792 266.568C207.826 266.506 207.844 266.465 207.849 266.453C208.262 265.135 209.414 264.176 210.798 264.021C212.236 263.859 213.625 264.601 214.293 265.885C214.29 265.881 214.289 265.876 214.287 265.872C214.283 265.864 214.279 265.857 214.276 265.852C214.27 265.841 214.266 265.833 214.264 265.83C214.266 265.834 214.271 265.843 214.28 265.857C214.309 265.903 214.373 266.002 214.477 266.136C214.686 266.406 215.047 266.809 215.589 267.227C216.628 268.028 218.486 268.999 221.596 268.999C224.706 268.999 226.564 268.028 227.604 267.227C228.146 266.809 228.506 266.406 228.715 266.136C228.82 266.002 228.884 265.903 228.913 265.857C228.927 265.834 228.932 265.825 228.929 265.83C228.928 265.833 228.923 265.841 228.917 265.852C228.914 265.857 228.91 265.864 228.906 265.872C228.904 265.876 228.902 265.881 228.9 265.885C229.788 264.176 231.891 263.505 233.605 264.386C235.324 265.27 236.001 267.38 235.118 269.099L232.006 267.499C234.967 269.021 235.11 269.097 235.116 269.103C235.116 269.103 235.115 269.105 235.114 269.107C235.113 269.109 235.111 269.113 235.11 269.115C235.107 269.121 235.104 269.127 235.1 269.133C235.094 269.146 235.086 269.16 235.078 269.175C235.062 269.205 235.043 269.241 235.02 269.28C234.975 269.36 234.917 269.458 234.846 269.571C234.704 269.799 234.507 270.091 234.248 270.425C233.73 271.093 232.957 271.939 231.877 272.772C229.672 274.471 226.325 275.999 221.596 275.999C216.95 275.999 213.639 274.522 211.433 272.859C209.216 274.648 205.824 275.999 200.779 275.999C195.546 275.999 192.087 274.549 189.878 272.659C188.799 271.737 188.102 270.779 187.661 269.993C187.441 269.603 187.287 269.256 187.179 268.979C187.126 268.84 187.083 268.717 187.05 268.615C187.034 268.565 187.021 268.518 187.009 268.478C187.004 268.457 186.998 268.438 186.993 268.42C186.99 268.411 186.988 268.402 186.986 268.394C186.985 268.39 186.984 268.386 186.983 268.382C186.983 268.38 186.981 268.377 186.981 268.376C186.981 268.373 187.003 268.365 190.37 267.499L186.98 268.37C186.499 266.498 187.627 264.591 189.499 264.11ZM193.757 266.623C193.757 266.622 193.757 266.618 193.757 266.616C193.756 266.613 193.754 266.609 193.754 266.606C193.752 266.599 193.75 266.592 193.749 266.586C193.745 266.573 193.741 266.561 193.738 266.55L193.757 266.623ZM207.836 266.495C207.831 266.51 207.825 266.528 207.819 266.55C207.816 266.561 207.813 266.573 207.809 266.586C207.808 266.592 207.805 266.599 207.803 266.606C207.802 266.609 207.801 266.613 207.8 266.616C207.8 266.618 207.8 266.62 207.799 266.621C207.814 266.565 207.832 266.51 207.849 266.454C207.847 266.461 207.842 266.474 207.836 266.495Z" fill="black"/>
</svg>
