<svg width="327" height="314" viewBox="0 0 327 314" fill="none" xmlns="http://www.w3.org/2000/svg">
<path d="M20.5407 26.3985C48.9407 -12.0015 89.374 10.3985 106.041 26.3985C142.041 6.39857 191.04 1.8984 229.04 26.3985C256.04 -20.6015 303.54 9.39846 318.04 40.3985C332.54 71.3985 322.04 107.399 303.54 116.399C313.141 131.599 304.874 163.732 303.54 177.898C307.04 181.065 311.641 185.498 318.04 195.898C326.04 208.898 314.041 222.898 314.041 232.898C314.041 242.898 318.041 272.898 283.541 278.398C186.541 342.398 84.5405 296.898 47.0405 278.398C11.0405 266.898 16.0405 252.898 16.0405 243.398C16.0405 233.898 8.54049 222.898 4.54049 212.898C0.540488 202.898 7.54046 195.898 20.5407 177.898C20.5407 155.398 24.5405 135.898 30.0405 116.399C7.04053 113.899 -14.9593 74.3985 20.5407 26.3985Z" fill="white" stroke="#A5A5A5" stroke-width="4" stroke-linecap="round" stroke-linejoin="round" stroke-dasharray="8 8"/>
<path d="M292.395 44.5561C299.681 51.0801 310.623 71.9415 296.642 93.4501C276.746 111.195 250.056 101.878 244.276 96.0373L244.272 96.0414C244.24 96.0074 244.209 95.9715 244.177 95.9363C244.144 95.9019 244.11 95.8691 244.078 95.8352L244.082 95.8312C238.601 89.6717 227.964 64.3461 248.59 42.3682C261.711 28.3864 286.273 36.7924 292.395 44.5561Z" fill="#D7F5F2"/>
<path d="M41.1059 45.0293C28.8579 55.2721 22.9727 79.0975 37.9991 95.0632C56.2816 111.195 85.5275 104.997 91.5923 98.8866L91.5962 98.8908C91.6296 98.8553 91.6619 98.8178 91.6957 98.7808C91.7305 98.7449 91.7658 98.7106 91.7992 98.6751L91.7953 98.6709C97.546 92.2271 110.185 68.0215 88.5446 45.0293C73.5181 29.0637 50.3667 34.8389 41.1059 45.0293Z" fill="#D7F5F2"/>
<path d="M46.2313 96.3413C38.0579 91.6223 34.4501 83.4054 33.6289 75.0014C32.7917 66.4336 34.9411 58.5248 37.2672 55.1976C37.3829 55.0322 37.484 54.857 37.5695 54.6741C39.2878 50.9961 45.0623 45.1803 52.9009 41.6214C60.5896 38.1305 69.5096 37.1465 77.683 41.8654L78.7354 42.4899C89.4277 49.0026 94.4406 57.4327 96.4877 65.3202C96.9732 67.1912 98.8841 68.3147 100.755 67.8291C102.626 67.3434 103.749 65.4333 103.264 63.5625C100.74 53.84 94.4961 43.6962 81.7925 36.1597L81.183 35.8033C70.45 29.6066 59.0236 31.1549 50.0073 35.2485C41.2843 39.2089 34.0904 45.8765 31.3615 51.4384C27.9089 56.5825 25.7313 66.1469 26.663 75.6819C27.6259 85.537 31.9982 96.2067 42.7313 102.403C55.8452 109.975 67.9767 110.365 77.8119 107.646C79.6747 107.131 80.7674 105.203 80.2526 103.34C79.7376 101.477 77.8092 100.384 75.9461 100.899C67.8384 103.14 57.6497 102.934 46.2313 96.3413Z" fill="black"/>
<path d="M289.019 95.1154C296.353 90.881 299.487 83.1047 299.983 74.8456C300.486 66.4759 298.203 58.5907 295.85 55.1774C295.744 55.0238 295.651 54.8613 295.571 54.6928C293.791 50.9488 288.104 45.0287 280.604 41.2795C273.203 37.5799 264.902 36.4054 257.568 40.6396L256.61 41.2085C246.89 47.1544 242.488 55.146 240.827 62.7852C240.417 64.674 238.553 65.8731 236.664 65.4629C234.775 65.0524 233.577 63.188 233.987 61.2991C236.047 51.819 241.634 41.9656 253.497 34.9113L254.068 34.5774C264.185 28.7361 275.141 30.7231 283.733 35.0185C292.098 39.1999 299.055 45.9647 301.768 51.4372C305.151 56.5229 307.531 65.9306 306.97 75.2658C306.394 84.8551 302.637 95.336 292.519 101.178C280.265 108.253 268.724 108.21 259.337 105.207C257.496 104.618 256.481 102.648 257.07 100.807C257.659 98.9658 259.63 97.951 261.471 98.54C269.157 100.999 278.629 101.114 289.019 95.1154Z" fill="black"/>
<path d="M121.345 192.39C121.345 198.923 116.53 204.22 110.591 204.22C104.651 204.22 99.8364 198.923 99.8364 192.39C99.8364 185.857 104.651 180.56 110.591 180.56C116.53 180.56 121.345 185.857 121.345 192.39Z" fill="#474847"/>
<path d="M234.266 192.39C234.266 198.923 229.451 204.22 223.512 204.22C217.572 204.22 212.757 198.923 212.757 192.39C212.757 185.857 217.572 180.56 223.512 180.56C229.451 180.56 234.266 185.857 234.266 192.39Z" fill="#474847"/>
<path d="M166.015 40.7539V40.756C132.848 40.8317 108.75 49.5852 91.327 63.338C81.0469 70.145 69.556 87.6829 65.0956 95.601C51.4504 121.829 47.8597 153.169 47.7327 179.485C47.7066 184.899 45.5589 191.335 43.7456 198.843C42.8939 202.369 33.6479 206.131 33.1983 210.135C32.5165 216.206 41.0579 222.833 42.7746 230.03C43.9469 234.945 39.6501 243.016 42.7746 247.237C45.5489 250.985 55.5612 250.956 59.5466 254.169C76.7712 268.056 103.866 277.005 128.375 281.492C140.494 283.948 172.605 287.387 204.09 281.492C228.599 277.005 255.694 268.056 272.918 254.169C275.631 251.981 286.703 249.672 288.878 247.237C293.495 242.068 288.186 236.339 289.69 230.03C291.407 222.833 299.008 216.206 298.326 210.135C297.877 206.131 289.571 202.369 288.719 198.843C286.906 191.335 284.758 184.899 284.732 179.485C284.605 153.169 281.014 121.829 267.369 95.601C262.93 85.7767 248.032 69.9989 241.138 63.338C223.715 49.5852 199.616 40.8318 166.45 40.756V40.7539C166.377 40.7539 166.304 40.7549 166.231 40.755C166.159 40.7549 166.087 40.7539 166.015 40.7539Z" fill="#D7F5F2"/>
<path d="M119.195 279.5C119.625 214.114 73.13 191.315 49.8289 188.088C46.9171 192.553 43.3763 201.531 33.1597 209.597C32.0064 217.996 41.4572 224.472 43.3763 228.417C45.7733 233.344 39.8957 241.738 43.3763 246.162C46.5026 250.135 51.5506 250.987 57.357 254.228C71.1895 261.948 91.2332 272.51 119.195 279.5Z" fill="#FFD9D9"/>
<path d="M213.739 279.5C213.308 214.114 259.803 191.315 283.104 188.088C286.016 192.553 289.557 201.531 299.773 209.597C300.927 217.996 291.476 224.472 289.557 228.417C287.16 233.344 293.037 241.738 289.557 246.162C286.431 250.135 281.383 250.987 275.576 254.228C261.744 261.948 241.7 272.51 213.739 279.5Z" fill="#FFD9D9"/>
<path d="M148.769 42.9042C162.104 39.0328 172.249 41.2911 175.655 42.9042C176.019 46.8816 176.35 51.4388 176.611 56.3241C186.158 55.9773 198.991 57.5744 199.025 66.0019C199.058 74.3534 186.58 75.4878 177.143 74.7955C177.151 77.9336 177.115 81.0822 177.022 84.1898C185.576 84.5278 194.628 86.788 194.657 93.8645C194.686 101.401 184.528 103.061 175.61 102.805C173.824 115.933 170.263 125.534 163.825 125.713C157.305 125.894 153.351 116.169 151.067 102.772C141.96 103.157 131.151 101.638 131.182 93.8645C131.21 86.74 140.386 84.4977 148.99 84.1834C148.785 81.1049 148.629 77.9856 148.519 74.8753C139.268 75.3748 127.857 73.9887 127.889 66.0019C127.921 58.1401 139.091 56.2217 148.341 56.281C148.412 51.419 148.564 46.8783 148.769 42.9042Z" fill="#698383"/>
<path d="M85.8561 197.767C88.8673 190.884 61.3003 187.013 47.1404 185.938L43.9141 195.616C56.6401 199.201 82.8449 204.65 85.8561 197.767Z" fill="#698383"/>
<path d="M83.1055 224.061C83.6679 216.57 56.3739 222.044 42.6566 225.718L42.8171 235.919C56.0122 235.088 82.543 231.553 83.1055 224.061Z" fill="#698383"/>
<path d="M246.324 197.767C243.313 190.884 270.88 187.013 285.04 185.938L288.266 195.616C275.54 199.201 249.335 204.65 246.324 197.767Z" fill="#698383"/>
<path d="M249.075 224.061C248.512 216.57 275.806 222.044 289.524 225.718L289.363 235.919C276.168 235.088 249.637 231.553 249.075 224.061Z" fill="#698383"/>
<path d="M265.754 92.4961C267.468 91.604 269.582 92.2707 270.474 93.9854C284.497 120.939 288.104 152.933 288.232 179.468C288.243 181.762 288.709 184.408 289.461 187.569C289.833 189.136 290.263 190.774 290.721 192.525C291.177 194.264 291.659 196.106 292.122 198.021C292.095 197.911 292.168 198.228 293 199.064C293.764 199.834 294.734 200.629 295.925 201.63C297.03 202.558 298.33 203.669 299.381 204.863C300.391 206.01 301.571 207.666 301.804 209.744C302.064 212.054 301.515 214.22 300.75 216.107C299.989 217.984 298.915 219.819 297.893 221.488C295.7 225.07 293.79 227.929 293.095 230.842C292.571 233.04 293.218 234.978 293.886 238.388C294.5 241.516 294.943 245.702 291.488 249.569C290.364 250.827 288.571 251.682 287.225 252.258C285.702 252.91 283.911 253.534 282.232 254.107C280.498 254.7 278.883 255.24 277.513 255.77C276.028 256.344 275.315 256.733 275.115 256.894C257.23 271.313 229.484 280.393 204.784 284.922C196.081 286.91 180.749 288.004 165.823 288.077C151.011 288.15 135.885 287.223 127.591 284.905C102.914 280.371 75.2134 271.296 57.3502 256.894C56.8533 256.493 55.9646 256.051 54.5406 255.582C53.1397 255.121 51.5876 254.745 49.8336 254.293C48.1694 253.864 46.3137 253.364 44.6695 252.685C43.073 252.025 41.221 251.021 39.9615 249.319C38.6145 247.5 38.1942 245.428 38.1236 243.594C38.054 241.782 38.318 239.922 38.5924 238.308C38.8903 236.555 39.18 235.182 39.357 233.765C39.5305 232.377 39.5152 231.452 39.3697 230.842C38.6999 228.034 36.6513 225.228 34.1969 221.635C33.0637 219.976 31.854 218.139 30.9869 216.258C30.1168 214.37 29.4507 212.145 29.7203 209.744L29.7789 209.338C30.135 207.339 31.39 205.784 32.4059 204.738C33.5577 203.553 34.9858 202.45 36.2027 201.524C37.5138 200.527 38.5932 199.725 39.4361 198.952C40.3797 198.087 40.3962 197.802 40.3434 198.021C40.8058 196.106 41.2883 194.264 41.7438 192.525C42.2025 190.774 42.6319 189.136 43.0045 187.569C43.7563 184.408 44.2219 181.762 44.233 179.468C44.3611 152.933 47.9685 120.939 61.9908 93.9854C62.883 92.2709 64.9959 91.6043 66.7106 92.4961C68.4254 93.3882 69.0929 95.502 68.2008 97.2168C54.933 122.72 51.359 153.405 51.233 179.502C51.2179 182.622 50.596 185.901 49.8141 189.188C49.4198 190.846 48.9709 192.563 48.5162 194.299C48.0583 196.047 47.5922 197.825 47.1481 199.664C46.6693 201.646 45.2107 203.155 44.1676 204.111C43.0233 205.161 41.6031 206.211 40.44 207.096C39.1829 208.052 38.1612 208.86 37.4264 209.616C36.8375 210.222 36.6968 210.532 36.6725 210.578C36.6148 211.209 36.7673 212.076 37.3443 213.328C37.9406 214.622 38.8459 216.029 39.9772 217.686C42.052 220.723 45.1323 224.829 46.1793 229.218C46.62 231.066 46.5082 232.993 46.3033 234.633C46.1021 236.243 45.732 238.073 45.4928 239.48C45.2301 241.026 45.0787 242.282 45.1188 243.324C45.158 244.344 45.3724 244.865 45.5875 245.155C45.7153 245.328 46.1561 245.725 47.3414 246.215C48.4793 246.685 49.8961 247.081 51.5797 247.515C53.1735 247.925 55.0453 248.378 56.7291 248.933C58.3901 249.479 60.2479 250.238 61.7438 251.444C77.7758 264.37 103.063 273.045 126.721 277.619L129.005 278.049L129.171 278.084C129.225 278.097 129.28 278.11 129.335 278.126C136.528 280.178 150.857 281.15 165.789 281.077C180.659 281.004 195.406 279.9 203.304 278.081C203.356 278.069 203.408 278.058 203.46 278.049C227.761 273.6 254.172 264.787 270.721 251.444C271.878 250.512 273.566 249.791 274.988 249.241C276.525 248.647 278.322 248.046 279.967 247.483C281.667 246.902 283.222 246.357 284.471 245.822C285.898 245.212 286.304 244.864 286.267 244.905C287.43 243.604 287.528 242.34 287.017 239.734C286.562 237.41 285.305 233.328 286.286 229.218C287.308 224.934 290.056 220.881 291.922 217.833C292.93 216.187 293.736 214.776 294.262 213.478C294.784 212.19 294.93 211.252 294.848 210.525C294.857 210.601 294.829 210.286 294.129 209.491C293.471 208.744 292.556 207.943 291.421 206.989C290.374 206.109 289.08 205.052 288.034 203.999C287.055 203.014 285.77 201.538 285.317 199.664C284.873 197.825 284.407 196.047 283.949 194.299C283.494 192.563 283.045 190.846 282.651 189.188C281.869 185.901 281.247 182.622 281.232 179.502C281.106 153.405 277.532 122.72 264.264 97.2168C263.372 95.5021 264.039 93.3883 265.754 92.4961ZM166.541 37.2568C200.305 37.3485 225.178 46.2814 243.306 60.5908C244.823 61.7885 245.083 63.9896 243.885 65.5068C242.688 67.0241 240.487 67.2826 238.969 66.085C222.267 52.9005 198.968 44.3302 166.442 44.2559C166.422 44.2558 166.402 44.2543 166.381 44.2539C166.314 44.2541 166.457 44.2546 166.236 44.2549H166.227C165.999 44.2546 166.155 44.2541 166.083 44.2539C166.063 44.2543 166.043 44.2558 166.023 44.2559C133.496 44.3301 110.199 52.9005 93.4957 66.085C91.9785 67.2826 89.7774 67.024 88.5797 65.5068C87.382 63.9896 87.6415 61.7885 89.1588 60.5908C107.287 46.2816 132.16 37.3486 165.923 37.2568C165.954 37.2561 165.985 37.2539 166.015 37.2539C166.065 37.2539 166.113 37.2546 166.148 37.2549H166.316C166.351 37.2546 166.4 37.2539 166.45 37.2539C166.48 37.2539 166.51 37.2561 166.541 37.2568Z" fill="black"/>
<path d="M129.477 200.994C129.477 207.527 124.527 212.823 118.421 212.823C112.315 212.823 107.365 207.527 107.365 200.994C107.365 194.46 112.315 189.164 118.421 189.164C124.527 189.164 129.477 194.46 129.477 200.994Z" fill="#474847"/>
<path d="M225.663 200.994C225.663 207.527 220.713 212.823 214.607 212.823C208.501 212.823 203.551 207.527 203.551 200.994C203.551 194.46 208.501 189.164 214.607 189.164C220.713 189.164 225.663 194.46 225.663 200.994Z" fill="#474847"/>
<path d="M132.1 217.125C132.1 208.216 140.904 200.994 151.765 200.994C162.625 200.994 160.674 203.01 166.514 203.01C172.353 203.01 170.402 200.994 181.262 200.994C192.123 200.994 200.928 208.216 200.928 217.125C200.928 226.034 192.123 233.257 181.262 233.257C170.402 233.257 170.201 229.224 166.514 229.224C162.826 229.224 162.625 233.257 151.765 233.257C140.904 233.257 132.1 226.034 132.1 217.125Z" fill="white"/>
<path d="M166.958 222.232C169.147 222.313 170.85 222.988 172.147 223.681C172.734 223.995 173.294 224.346 173.614 224.543C173.992 224.777 174.251 224.934 174.521 225.08C175.239 225.467 176.835 226.256 181.263 226.256V233.256L180.275 233.245C170.386 233.008 170.086 229.224 166.514 229.224C162.826 229.224 162.625 233.256 151.765 233.256V226.256C156.192 226.256 157.789 225.467 158.506 225.08C158.776 224.934 159.035 224.777 159.413 224.543C159.734 224.346 160.293 223.995 160.88 223.681C162.263 222.941 164.109 222.224 166.514 222.224L166.958 222.232ZM193.928 217.125C193.928 213.315 189.618 207.994 181.263 207.994C176.327 207.994 174.846 208.446 174.108 208.678C172.697 209.123 170.692 210.01 166.514 210.01C162.335 210.01 160.329 209.123 158.918 208.678C158.181 208.446 156.7 207.994 151.765 207.994C143.409 207.994 139.1 213.315 139.1 217.125C139.1 220.936 143.41 226.256 151.765 226.256V233.256C141.074 233.256 132.376 226.258 132.106 217.542L132.1 217.125C132.1 208.216 140.904 200.994 151.765 200.994C162.286 200.994 160.784 202.886 165.988 203.004L166.514 203.01C172.353 203.01 170.402 200.994 181.263 200.994L181.77 200.999C192.396 201.219 200.928 208.355 200.928 217.125L200.921 217.542C200.652 226.258 191.954 233.256 181.263 233.256V226.256C189.618 226.256 193.927 220.936 193.928 217.125Z" fill="black"/>
<path d="M159.822 210.521C165.188 213.611 166.733 213.57 171.408 210.521C177.303 206.677 170.188 204.22 165.92 204.22C161.651 204.22 154.455 207.432 159.822 210.521Z" fill="#474847"/>
</svg>
