<svg width="400" height="400" viewBox="0 0 400 400" fill="none" xmlns="http://www.w3.org/2000/svg">
<path d="M199.467 84.002C294.18 84.2213 309.808 161.111 310.066 215.418C310.12 226.608 319.62 242.415 314.703 263.299C305.967 300.408 232.711 316.376 199.264 315.26C165.818 316.377 92.5613 300.408 83.8249 263.299C78.9083 242.415 88.4077 226.608 88.461 215.418C88.7198 161.111 104.348 84.2211 199.061 84.002V84C199.128 84 199.196 84.0009 199.263 84.001C199.331 84.0009 199.399 84 199.467 84V84.002Z" fill="#D7F5F2"/>
<path d="M83.2481 237.37C45.2927 242.937 19.5785 212.067 38.2074 174.618C47.1593 156.622 66.2037 141.847 83.248 131.601C103.174 119.623 122.722 95.6703 146.507 95.6703L83.2481 237.37Z" fill="#D7F5F2"/>
<path d="M316.752 237.37C354.707 242.937 380.422 212.067 361.793 174.618C352.841 156.622 333.796 141.847 316.752 131.601C296.826 119.623 277.278 95.6703 253.493 95.6703L316.752 237.37Z" fill="#D7F5F2"/>
<path d="M199.468 84.002C294.181 84.2208 309.81 161.111 310.068 215.418C310.122 226.609 319.622 242.415 314.705 263.299C305.969 300.408 232.711 316.377 199.265 315.26C165.818 316.377 92.5615 300.408 83.8252 263.299C78.9086 242.415 88.4085 226.609 88.4619 215.418C88.7207 161.111 104.35 84.2207 199.062 84.002V84C199.13 84 199.197 84.0009 199.265 84.001C199.332 84.0009 199.4 84 199.468 84V84.002Z" fill="#D7F5F2"/>
<path d="M152.804 310.161C153.206 248.221 109.731 226.624 87.9432 223.568C82.9153 231.378 80.51 257.696 84.4236 265.846C93.474 284.692 104.535 294.88 152.804 310.161Z" fill="#FFD9D9"/>
<path d="M245.386 310.161C244.984 248.221 288.459 226.624 310.246 223.568C315.274 231.378 317.679 257.696 313.766 265.846C304.716 284.692 293.654 294.88 245.386 310.161Z" fill="#FFD9D9"/>
<path d="M146.507 95.6703C122.722 95.6703 103.174 119.623 83.248 131.601C66.2037 141.847 47.1593 156.622 38.2074 174.617C19.5785 212.067 45.2927 242.937 83.2482 237.37" stroke="#474847" stroke-width="7" stroke-linecap="round" stroke-linejoin="round"/>
<path d="M253.493 95.6703C277.278 95.6703 296.826 119.623 316.752 131.601C333.796 141.847 352.841 156.622 361.793 174.617C380.422 212.067 354.707 242.937 316.752 237.37" stroke="#474847" stroke-width="7" stroke-linecap="round" stroke-linejoin="round"/>
<path d="M93.9701 165.499C89.8717 182.436 88.5352 199.854 88.461 215.418C88.4077 226.608 78.9083 242.415 83.8249 263.299C90.1317 290.088 130.063 305.86 164.368 312.14C183 315.551 218.397 315.792 234.16 312.14C268.465 305.86 308.397 290.088 314.703 263.299C319.62 242.415 310.121 226.608 310.067 215.418C309.993 199.854 308.657 182.436 304.558 165.499M253.865 95.2062C239.533 88.0047 221.674 84.0534 199.467 84.002V84C199.4 84 199.332 84.0009 199.264 84.001C199.197 84.0009 199.129 84 199.061 84V84.002C176.855 84.0534 160.097 88.0047 145.765 95.2062" stroke="#474847" stroke-width="7" stroke-linecap="round" stroke-linejoin="round"/>
<ellipse cx="152.08" cy="235.793" rx="10.3378" ry="11.2062" fill="#474847"/>
<ellipse cx="242.019" cy="235.793" rx="10.3378" ry="11.2062" fill="#474847"/>
<path d="M176.891 249.546C176.891 249.546 178.183 254.639 187.358 254.639C196.532 254.639 197.825 249.546 197.825 249.546C197.825 249.546 200.409 254.639 208.292 254.639C216.174 254.639 218.759 249.546 218.759 249.546" stroke="#474847" stroke-width="7" stroke-linecap="round" stroke-linejoin="round"/>
<path d="M191.762 242.768C196.812 245.676 198.266 245.638 202.666 242.768C208.214 239.15 201.519 236.838 197.501 236.838C193.484 236.838 186.711 239.861 191.762 242.768Z" fill="#474847"/>
</svg>
