<svg width="420" height="420" viewBox="0 0 420 420" fill="none" xmlns="http://www.w3.org/2000/svg">
<path opacity="0.8" d="M240.284 96.8392C218.684 84.0392 187.951 91.5058 175.284 96.8392C155.784 58.3392 63.2839 13.8391 15.7836 100.339C-23.2976 186.401 36.2837 237.339 73.284 237.339C70.784 246.672 65.184 268.539 62.784 281.339C59.784 297.339 49.784 372.839 210.784 374.839C339.584 376.439 364.784 309.839 357.284 281.339L344.284 240.839C350.951 242.506 369.784 239.639 391.784 214.839C426.284 178.839 432.95 100.339 371.284 62.8393C297.284 17.8392 253.784 74.8392 240.284 96.8392Z" fill="white" stroke="#A5A5A5" stroke-width="4" stroke-linecap="round" stroke-linejoin="round" stroke-dasharray="8 8"/>
<path d="M51.8083 99.1875C64.5945 84.1941 113.381 65.4891 143.291 94.9622C186.364 137.407 164.151 186.317 152.704 198.212L152.712 198.22C152.645 198.285 152.575 198.349 152.506 198.415C152.439 198.483 152.374 198.553 152.308 198.618L152.3 198.61C140.228 209.89 90.5939 231.779 47.5204 189.334C17.6106 159.861 36.5927 111.787 51.8083 99.1875Z" fill="#D7F5F2"/>
<path d="M366.759 99.3342C381.864 112.027 400.707 160.457 371.016 190.149C328.257 232.908 278.985 210.857 267.001 199.494L266.993 199.501C266.927 199.435 266.863 199.366 266.797 199.297C266.728 199.23 266.658 199.166 266.592 199.1L266.6 199.092C255.237 187.109 233.186 137.837 275.945 95.0776C305.636 65.3862 354.066 84.2297 366.759 99.3342Z" fill="#D7F5F2"/>
<path d="M77.62 123.706C85.8331 114.377 117.17 102.738 136.382 121.077C164.05 147.487 149.782 177.92 142.429 185.321L142.434 185.326C142.391 185.367 142.346 185.406 142.302 185.447C142.259 185.49 142.217 185.533 142.174 185.574L142.169 185.569C134.415 192.587 102.533 206.207 74.8657 179.797C55.6536 161.458 67.8465 131.546 77.62 123.706Z" fill="#FCD0D6"/>
<path d="M350.09 120.323C341.877 110.994 310.54 99.3549 291.328 117.694C263.66 144.104 277.929 174.536 285.281 181.938L285.276 181.943C285.319 181.984 285.364 182.023 285.409 182.064C285.452 182.107 285.493 182.15 285.536 182.191L285.541 182.186C293.295 189.204 325.177 202.824 352.845 176.414C372.057 158.075 359.864 128.162 350.09 120.323Z" fill="#FCD0D6"/>
<path d="M356.58 198.985C373.5 189.216 380.799 172.261 382.446 155.409C384.108 138.393 379.919 122.327 374.874 115.11C374.758 114.945 374.657 114.77 374.571 114.587C370.844 106.609 359.025 94.9479 343.458 87.88C328.04 80.8801 309.708 78.7238 292.787 88.4928L291.728 89.112C269.686 102.185 259.277 119.421 255.067 135.642C254.582 137.513 252.671 138.636 250.8 138.151C248.929 137.665 247.806 135.754 248.292 133.883C252.944 115.955 264.457 97.1516 288.15 83.0961L289.287 82.4306C308.767 71.1838 329.607 73.9032 346.352 81.5058C362.794 88.9711 376.033 101.477 380.781 111.35C386.958 120.398 391.169 138.117 389.413 156.09C387.624 174.392 379.559 193.8 360.08 205.047C335.616 219.171 313.158 219.836 295.022 214.823C293.159 214.308 292.066 212.38 292.581 210.517C293.096 208.654 295.024 207.561 296.887 208.076C313.296 212.612 333.811 212.13 356.58 198.985Z" fill="black"/>
<path d="M62.6714 198.985C45.7511 189.216 38.4521 172.261 36.8054 155.409C35.1429 138.393 39.332 122.327 44.3774 115.11C44.4931 114.945 44.5941 114.77 44.6796 114.587C48.4067 106.609 60.2261 94.9479 75.7932 87.88C91.2106 80.8801 109.543 78.7238 126.464 88.4928L127.523 89.112C149.565 102.185 159.974 119.421 164.184 135.642C164.669 137.513 166.58 138.636 168.451 138.151C170.322 137.665 171.445 135.754 170.959 133.883C166.307 115.955 154.794 97.1516 131.101 83.0961L129.964 82.4306C110.484 71.1838 89.6441 73.9032 72.8993 81.5058C56.4568 88.9711 43.2177 101.477 38.47 111.35C32.2931 120.398 28.0821 138.117 29.8382 156.09C31.6267 174.392 39.6915 193.8 59.1714 205.047C83.6351 219.171 106.093 219.836 124.229 214.823C126.092 214.308 127.185 212.38 126.67 210.517C126.155 208.654 124.227 207.561 122.364 208.076C105.955 212.612 85.4398 212.13 62.6714 198.985Z" fill="black"/>
<path d="M212.115 121.385C306.301 121.6 321.843 197.075 322.1 250.383C322.153 261.368 331.6 276.883 326.711 297.383C318.023 333.809 245.173 349.484 211.913 348.388C178.652 349.484 105.803 333.809 97.1149 297.383C92.2256 276.883 101.672 261.368 101.725 250.383C101.983 197.075 117.525 121.6 211.711 121.385V121.383C211.778 121.383 211.846 121.384 211.913 121.384C211.98 121.384 212.048 121.383 212.115 121.383V121.385Z" fill="#D7F5F2"/>
<path d="M165.71 343.383C166.11 282.583 122.877 261.383 101.21 258.383C96.2102 266.05 93.8183 291.883 97.7102 299.883C106.71 318.383 117.71 328.383 165.71 343.383Z" fill="#FFD9D9"/>
<path d="M257.778 343.383C257.378 282.583 300.611 261.383 322.278 258.383C327.278 266.05 329.67 291.883 325.778 299.883C316.778 318.383 305.778 328.383 257.778 343.383Z" fill="#FFD9D9"/>
<path d="M315.788 197.984C317.666 197.523 319.561 198.673 320.021 200.55C324.183 217.526 325.526 234.916 325.601 250.366C325.612 252.671 326.122 255.359 326.93 258.642C327.695 261.753 328.794 265.635 329.674 269.547C331.489 277.62 332.734 287.216 330.115 298.195C326.626 312.824 314.015 323.911 298.741 331.997C283.371 340.134 264.574 345.63 247.315 348.755C240.497 350.247 228.664 351.289 215.76 351.455C202.786 351.623 188.424 350.909 176.588 348.77C159.308 345.647 140.478 340.147 125.084 331.997C109.81 323.911 97.1993 312.824 93.71 298.195C91.0917 287.216 92.3371 277.62 94.1524 269.547C95.0319 265.635 96.1311 261.753 96.8965 258.642C97.704 255.359 98.2144 252.671 98.2256 250.366C98.3002 234.916 99.6431 217.526 103.805 200.55C104.265 198.673 106.16 197.523 108.037 197.984C109.914 198.444 111.063 200.339 110.604 202.216C106.614 218.49 105.299 235.296 105.226 250.4C105.21 253.587 104.519 256.958 103.693 260.315C102.825 263.843 101.859 267.18 100.981 271.082C99.2825 278.638 98.2487 287.05 100.52 296.572C103.302 308.238 113.682 318.041 128.359 325.811C142.917 333.517 160.999 338.84 177.833 341.882C189.066 343.912 202.941 344.62 215.669 344.456C228.434 344.292 239.742 343.254 245.863 341.907C245.906 341.898 245.95 341.89 245.993 341.882C262.827 338.84 280.909 333.517 295.466 325.811C310.143 318.041 320.523 308.238 323.306 296.572C325.577 287.05 324.543 278.638 322.844 271.082C321.966 267.18 321 263.843 320.132 260.315C319.306 256.958 318.616 253.587 318.601 250.4C318.528 235.296 317.212 218.49 313.223 202.216C312.763 200.339 313.911 198.444 315.788 197.984ZM212.209 117.886C247.592 117.984 272.495 128.513 289.751 144.841C291.155 146.17 291.216 148.384 289.888 149.788C288.559 151.192 286.344 151.254 284.939 149.925C269.172 135.006 246.058 124.963 212.106 124.885C212.087 124.885 212.067 124.883 212.047 124.883C211.988 124.883 212.134 124.884 211.917 124.884H211.909C211.691 124.884 211.838 124.883 211.778 124.883C211.759 124.883 211.739 124.885 211.719 124.885C177.767 124.963 154.653 135.006 138.886 149.925C137.482 151.254 135.266 151.192 133.938 149.788C132.609 148.384 132.671 146.169 134.075 144.841C151.331 128.513 176.233 117.984 211.615 117.886C211.647 117.885 211.679 117.883 211.711 117.883C211.758 117.883 211.803 117.884 211.836 117.884H211.989C212.022 117.884 212.068 117.883 212.115 117.883C212.147 117.883 212.178 117.885 212.209 117.886Z" fill="black"/>
<path d="M89.4232 280.252C91.3432 280.033 93.4492 280.019 95.4935 280.112C99.5832 280.296 103.763 280.925 106.397 281.452C108.292 281.831 109.521 283.674 109.142 285.57C108.763 287.465 106.919 288.694 105.024 288.315C102.657 287.841 98.8372 287.27 95.1771 287.105C93.3465 287.022 91.6398 287.045 90.2161 287.207C88.7158 287.378 87.8702 287.669 87.5111 287.884C85.8536 288.879 83.7039 288.341 82.7093 286.684C81.7148 285.026 82.2521 282.877 83.9095 281.882C85.5504 280.898 87.5799 280.462 89.4232 280.252Z" fill="black"/>
<path d="M114.149 308.048C115.991 307.462 117.959 308.48 118.546 310.321C119.132 312.163 118.114 314.132 116.272 314.718C114.667 315.229 111.959 316.326 109.312 317.886C106.6 319.484 104.347 321.338 103.191 323.217C102.178 324.863 100.023 325.376 98.3766 324.363C96.7304 323.35 96.2171 321.195 97.2301 319.549C99.2739 316.228 102.687 313.666 105.758 311.856C108.895 310.007 112.088 308.704 114.149 308.048Z" fill="black"/>
<path d="M333.498 280.252C331.578 280.033 329.472 280.019 327.427 280.112C323.338 280.296 319.157 280.925 316.524 281.452C314.629 281.831 313.4 283.674 313.779 285.57C314.158 287.465 316.002 288.694 317.897 288.315C320.264 287.841 324.084 287.27 327.744 287.105C329.574 287.022 331.281 287.045 332.705 287.207C334.205 287.378 335.051 287.669 335.41 287.884C337.067 288.879 339.217 288.341 340.212 286.684C341.206 285.026 340.669 282.877 339.011 281.882C337.37 280.898 335.341 280.462 333.498 280.252Z" fill="black"/>
<path d="M308.772 308.048C306.93 307.462 304.962 308.48 304.375 310.321C303.789 312.163 304.807 314.132 306.649 314.718C308.254 315.229 310.962 316.326 313.609 317.886C316.321 319.484 318.574 321.338 319.73 323.217C320.743 324.863 322.898 325.376 324.544 324.363C326.191 323.35 326.704 321.195 325.691 319.549C323.647 316.228 320.234 313.666 317.162 311.856C314.026 310.007 310.833 308.704 308.772 308.048Z" fill="black"/>
<path d="M177.271 270.383C177.271 276.458 172.669 281.383 166.991 281.383C161.313 281.383 156.71 276.458 156.71 270.383C156.71 264.308 161.313 259.383 166.991 259.383C172.669 259.383 177.271 264.308 177.271 270.383Z" fill="#474847"/>
<path d="M266.711 270.383C266.711 276.458 262.108 281.383 256.43 281.383C250.753 281.383 246.15 276.458 246.15 270.383C246.15 264.308 250.753 259.383 256.43 259.383C262.108 259.383 266.711 264.308 266.711 270.383Z" fill="#474847"/>
<path d="M190.793 280.493C192.609 280.027 194.457 281.074 195.006 282.846C195.013 282.864 195.031 282.9 195.059 282.951C195.144 283.103 195.338 283.395 195.721 283.723C196.436 284.334 198.182 285.383 202.073 285.383C205.963 285.383 207.709 284.334 208.423 283.723C208.807 283.395 209 283.103 209.086 282.951C209.12 282.889 209.138 282.849 209.143 282.837C209.556 281.519 210.708 280.56 212.091 280.404C213.53 280.243 214.919 280.985 215.587 282.269C215.584 282.264 215.583 282.26 215.581 282.256C215.577 282.248 215.573 282.241 215.57 282.236C215.564 282.224 215.56 282.217 215.558 282.214C215.56 282.218 215.565 282.227 215.574 282.24C215.603 282.287 215.667 282.385 215.771 282.52C215.98 282.789 216.341 283.193 216.882 283.611C217.922 284.412 219.78 285.383 222.89 285.383C226 285.383 227.858 284.412 228.898 283.611C229.44 283.193 229.8 282.789 230.009 282.52C230.114 282.385 230.178 282.287 230.207 282.24C230.221 282.218 230.226 282.209 230.223 282.214C230.222 282.217 230.217 282.224 230.211 282.236C230.208 282.241 230.204 282.248 230.2 282.256C230.198 282.26 230.196 282.264 230.194 282.269C231.082 280.56 233.185 279.889 234.899 280.77C236.618 281.653 237.295 283.763 236.412 285.483L233.299 283.883C236.261 285.405 236.404 285.481 236.41 285.487C236.41 285.487 236.409 285.489 236.408 285.49C236.406 285.493 236.405 285.496 236.404 285.499C236.401 285.505 236.397 285.511 236.394 285.517C236.388 285.529 236.38 285.544 236.372 285.559C236.355 285.589 236.337 285.625 236.314 285.664C236.269 285.744 236.211 285.842 236.14 285.955C235.998 286.182 235.801 286.475 235.542 286.809C235.024 287.477 234.251 288.323 233.171 289.155C230.966 290.854 227.619 292.383 222.89 292.383C218.244 292.383 214.933 290.905 212.727 289.242C210.51 291.032 207.117 292.383 202.073 292.383C196.84 292.383 193.381 290.932 191.172 289.043C190.093 288.121 189.396 287.163 188.955 286.377C188.735 285.986 188.581 285.64 188.473 285.362C188.42 285.224 188.377 285.101 188.344 284.999C188.328 284.948 188.315 284.902 188.303 284.862C188.298 284.841 188.292 284.822 188.287 284.804C188.284 284.795 188.282 284.786 188.28 284.778C188.279 284.774 188.278 284.77 188.277 284.766C188.276 284.764 188.275 284.761 188.275 284.76C188.274 284.757 188.297 284.748 191.664 283.883L188.274 284.754C187.793 282.882 188.921 280.974 190.793 280.493ZM195.051 283.007C195.051 283.006 195.051 283.002 195.05 283C195.05 282.997 195.048 282.993 195.048 282.989C195.046 282.983 195.044 282.976 195.043 282.97C195.039 282.957 195.035 282.945 195.032 282.934L195.051 283.007ZM209.13 282.879C209.125 282.894 209.119 282.912 209.113 282.934C209.11 282.945 209.107 282.957 209.103 282.97C209.101 282.976 209.099 282.983 209.097 282.989C209.096 282.993 209.095 282.997 209.094 283C209.094 283.002 209.094 283.004 209.093 283.005C209.108 282.949 209.126 282.893 209.143 282.838C209.141 282.845 209.136 282.858 209.13 282.879Z" fill="black"/>
<path d="M206.488 277.242C211.478 280.115 212.914 280.078 217.262 277.242C222.743 273.668 216.128 271.383 212.158 271.383C208.189 271.383 201.498 274.369 206.488 277.242Z" fill="#474847"/>
</svg>
