<svg width="378" height="320" viewBox="0 0 378 320" fill="none" xmlns="http://www.w3.org/2000/svg">
<path d="M180.214 26.6525C195.923 26.6525 223.123 10.2175 234.76 2C253.96 2 258.76 36.3641 258.76 53.5461C271.851 61.0165 300.215 83.5773 308.942 114.057C413.67 147.674 374.397 217.149 332.942 244.043C308.942 318 210.76 318 188.942 318C167.123 318 79.8484 318 51.4852 253.007C-40.1516 208.184 14.3951 125.262 62.3953 114.057C73.3045 55.7872 160.578 26.6525 180.214 26.6525Z" fill="white" stroke="#A5A5A5" stroke-width="4" stroke-linecap="round" stroke-linejoin="round" stroke-dasharray="8 8"/>
<path d="M37.5634 156.174C45.1184 147.315 73.9451 136.263 91.6182 153.678C117.069 178.757 103.944 207.657 97.1803 214.686L97.1849 214.69C97.1457 214.729 97.1041 214.766 97.0632 214.806C97.0235 214.846 96.9855 214.887 96.9462 214.926L96.9415 214.921C89.8086 221.586 60.4808 234.52 35.0297 209.44C17.3567 192.025 28.5728 163.619 37.5634 156.174Z" fill="#D7F5F2"/>
<path d="M336.95 155.313C345.921 162.852 357.114 191.617 339.478 209.253C314.081 234.65 284.816 221.552 277.698 214.803L277.693 214.808C277.654 214.768 277.616 214.727 277.576 214.686C277.536 214.647 277.494 214.609 277.455 214.569L277.46 214.565C270.71 207.447 257.613 178.182 283.01 152.785C300.645 135.149 329.411 146.341 336.95 155.313Z" fill="#D7F5F2"/>
<path d="M329.816 166.486C336.544 172.141 344.938 193.715 331.712 206.941C312.664 225.989 290.715 216.166 285.377 211.104L285.373 211.108C285.344 211.078 285.315 211.047 285.285 211.017C285.255 210.987 285.224 210.958 285.194 210.929L285.198 210.925C280.136 205.587 270.313 183.638 289.361 164.59C302.587 151.364 324.161 159.758 329.816 166.486Z" fill="#F8FFFF"/>
<path d="M48.7123 166.486C41.9837 172.141 33.5895 193.715 46.8161 206.941C65.8638 225.989 87.8129 216.166 93.1512 211.104L93.1547 211.108C93.1841 211.078 93.2126 211.047 93.2423 211.017C93.2729 210.987 93.304 210.958 93.3334 210.929L93.3299 210.925C98.3918 205.587 108.215 183.638 89.1672 164.59C75.9406 151.364 54.3665 159.758 48.7123 166.486Z" fill="#F8FFFF"/>
<path d="M189.671 64.7061C284.773 64.9235 300.466 141.132 300.725 194.959C300.779 206.05 310.318 221.716 305.382 242.416C296.609 279.196 223.051 295.024 189.467 293.917C155.883 295.024 82.3252 279.196 73.5529 242.416C68.616 221.716 78.1545 206.05 78.2081 194.959C78.4679 141.132 94.1609 64.9232 189.263 64.7061V64.7041C189.331 64.7041 189.399 64.705 189.466 64.7051C189.534 64.705 189.603 64.7041 189.671 64.7041V64.7061Z" fill="#D7F5F2"/>
<path d="M329.765 214.058C339.409 208.49 343.636 198.803 344.596 188.979C345.572 178.991 343.08 169.711 340.297 165.73C340.181 165.564 340.08 165.389 339.995 165.206C337.939 160.805 331.148 154.007 322.01 149.858C313.022 145.777 302.52 144.596 292.876 150.164L292.256 150.526C279.356 158.176 273.329 168.208 270.891 177.603C270.405 179.474 268.494 180.597 266.623 180.112C264.752 179.626 263.629 177.715 264.114 175.844C266.996 164.742 274.126 153.143 288.677 144.51L289.376 144.101C301.579 137.056 314.588 138.801 324.904 143.484C334.924 148.033 343.134 155.683 346.203 161.971C350.114 167.772 352.634 178.707 351.564 189.66C350.462 200.935 345.468 213.074 333.265 220.12C318.243 228.793 304.375 229.229 293.144 226.124C291.281 225.609 290.188 223.682 290.703 221.819C291.218 219.955 293.146 218.862 295.01 219.377C304.513 222.004 316.438 221.752 329.765 214.058Z" fill="black"/>
<path d="M321.315 183.975C309.755 181.307 298.521 185.043 294.171 187.312C292.457 188.206 291.793 190.32 292.687 192.034C293.581 193.747 295.695 194.412 297.409 193.518C300.801 191.749 310.3 188.618 319.741 190.796C321.625 191.231 323.504 190.056 323.938 188.172C324.373 186.289 323.199 184.41 321.315 183.975Z" fill="black"/>
<path d="M52.669 183.975C64.2297 181.307 75.4637 185.043 79.8135 187.312C81.527 188.206 82.1917 190.32 81.2979 192.034C80.4037 193.747 78.289 194.412 76.5752 193.518C73.1837 191.749 63.6846 188.618 54.2432 190.796C52.3597 191.231 50.4806 190.056 50.0459 188.172C49.6115 186.289 50.7856 184.41 52.669 183.975Z" fill="black"/>
<path d="M44.5536 214.058C34.9098 208.49 30.682 198.803 29.722 188.979C28.7461 178.991 31.238 169.711 34.0213 165.73C34.137 165.564 34.2381 165.389 34.3236 165.206C36.3796 160.805 43.1705 154.007 52.3084 149.858C61.2966 145.777 71.7988 144.596 81.4428 150.164L82.0625 150.526C94.9621 158.176 100.989 168.208 103.427 177.603C103.913 179.474 105.824 180.597 107.695 180.112C109.566 179.626 110.689 177.715 110.204 175.844C107.323 164.742 100.192 153.143 85.6415 144.51L84.9428 144.101C72.7392 137.056 59.7301 138.801 49.4145 143.484C39.3945 148.033 31.1848 155.683 28.1156 161.971C24.2045 167.772 21.6846 178.707 22.7548 189.66C23.8566 200.935 28.8502 213.074 41.0536 220.12C56.0758 228.793 69.9438 229.229 81.1746 226.124C83.0375 225.609 84.1303 223.682 83.6154 221.819C83.1004 219.955 81.172 218.862 79.3088 219.377C69.8054 222.004 57.8803 221.752 44.5536 214.058Z" fill="black"/>
<path d="M189.671 64.7061C284.773 64.9231 300.467 141.132 300.727 194.959C300.78 206.051 310.319 221.717 305.382 242.416C296.609 279.197 223.048 295.025 189.465 293.917C155.88 295.023 82.3251 279.195 73.5529 242.416C68.616 221.717 78.1544 206.051 78.2081 194.959C78.468 141.132 94.1614 64.9231 189.264 64.7061V64.7041C189.332 64.7041 189.399 64.705 189.467 64.7051C189.535 64.705 189.603 64.7041 189.671 64.7041V64.7061Z" fill="#F8FFFF"/>
<path d="M187.245 160.123C136.253 121.249 102.428 183.347 91.3207 210.104C80.2137 249.484 102.428 265.135 120.098 283.31C57.9997 260.086 71.1261 217.677 78.1942 198.998C76.6796 181.832 82.2331 57.131 187.245 63.6943C196.78 64.2902 207.439 63.6943 228.825 43.4998C235.711 57.1311 230.663 63.6943 228.825 70.7623C294.285 90.8943 299.555 147.664 300.839 198.998C318.509 250.998 283.169 276.242 253.382 283.31C300.334 264.63 286.198 219.192 283.169 206.57C280.139 193.949 240.76 114.685 187.245 160.123Z" fill="#D7F5F2"/>
<path d="M142.817 288.863C143.221 227.472 99.5667 206.066 77.6893 203.036C72.6407 210.778 70.2255 236.862 74.1553 244.94C83.2428 263.62 94.3498 273.717 142.817 288.863Z" fill="#FFD9D9"/>
<path d="M235.78 288.863C235.376 227.472 279.029 206.066 300.907 203.036C305.955 210.778 308.371 236.862 304.441 244.94C295.353 263.62 284.246 273.717 235.78 288.863Z" fill="#FFD9D9"/>
<path d="M226.232 40.9627C227.059 40.1767 228.223 39.84 229.349 40.072C230.551 40.3196 231.536 41.1778 231.944 42.3347C233.506 46.761 235.008 52.1522 235.354 57.3709C235.588 60.9044 235.308 64.6567 233.921 68.0115C262.818 77.9837 280.286 97.8824 290.543 120.828C301.24 144.758 304.116 172.014 304.226 194.942C304.238 197.274 304.754 199.992 305.569 203.306C306.342 206.45 307.452 210.367 308.341 214.316C310.173 222.465 311.428 232.149 308.786 243.227C305.283 257.914 292.666 269.065 277.352 277.216C261.963 285.406 243.134 290.96 225.786 294.148C197.604 301.754 165.809 297.343 153.186 294.155C135.828 290.968 116.982 285.412 101.583 277.216C86.2685 269.065 73.6509 257.914 70.1481 243.227C67.5061 232.149 68.7621 222.465 70.5944 214.316C71.4825 210.367 72.5916 206.45 73.3649 203.306C74.1804 199.992 74.6974 197.274 74.7087 194.942C74.8396 167.813 78.8404 134.526 95.1872 107.898C111.7 81.0005 140.541 61.3422 189.161 61.2058C189.195 61.2048 189.229 61.2039 189.263 61.2039C189.311 61.2039 189.356 61.2046 189.389 61.2048H189.545C189.578 61.2046 189.624 61.2039 189.672 61.2039C189.692 61.2039 189.713 61.2045 189.733 61.2048C192.811 61.2079 197.491 60.8664 203.521 58.2761C209.615 55.6587 217.259 50.6717 226.071 41.1257L226.232 40.9627ZM227.04 50.1638C219.337 57.6558 212.347 62.1035 206.284 64.7078C199.115 67.787 193.415 68.2144 189.664 68.2058C189.644 68.2058 189.623 68.2042 189.603 68.2039C189.544 68.204 189.69 68.2046 189.471 68.2048H189.464C189.244 68.2046 189.393 68.204 189.331 68.2039C189.311 68.2042 189.291 68.2058 189.271 68.2058C142.846 68.3119 116.317 86.86 101.153 111.56C85.813 136.548 81.8376 168.279 81.7087 194.975C81.6932 198.19 80.9965 201.589 80.1628 204.978C79.2868 208.539 78.3096 211.911 77.4235 215.852C75.7075 223.484 74.6632 231.983 76.9577 241.603C79.7567 253.339 90.1587 263.205 104.871 271.036C119.01 278.561 136.479 283.849 152.962 286.993L154.553 287.29L154.786 287.342C166.691 290.371 197.373 294.609 224.095 287.355L224.382 287.29C241.326 284.188 259.468 278.804 274.063 271.036C288.775 263.205 299.178 253.339 301.977 241.603C304.272 231.983 303.226 223.484 301.51 215.852C300.624 211.911 299.648 208.539 298.772 204.978C297.938 201.589 297.242 198.19 297.226 194.975C297.118 172.479 294.278 146.339 284.152 123.685C274.081 101.156 256.828 82.09 227.638 73.3406C226.495 72.998 225.606 72.0963 225.278 70.949C224.95 69.8017 225.23 68.5663 226.019 67.6716C227.893 65.5483 228.659 62.2098 228.369 57.8337C228.204 55.3494 227.71 52.732 227.04 50.1638Z" fill="black"/>
<path d="M154.49 215.153C154.49 221.287 149.842 226.26 144.109 226.26C138.376 226.26 133.729 221.287 133.729 215.153C133.729 209.019 138.376 204.046 144.109 204.046C149.842 204.046 154.49 209.019 154.49 215.153Z" fill="#474847"/>
<path d="M244.355 215.153C244.355 221.287 239.708 226.26 233.975 226.26C228.242 226.26 223.594 221.287 223.594 215.153C223.594 209.019 228.242 204.046 233.975 204.046C239.708 204.046 244.355 209.019 244.355 215.153Z" fill="#474847"/>
<path d="M168.152 225.395C169.968 224.928 171.818 225.976 172.365 227.749C172.373 227.768 172.392 227.806 172.422 227.861C172.51 228.017 172.708 228.315 173.098 228.649C173.826 229.272 175.598 230.333 179.532 230.333C183.467 230.333 185.24 229.272 185.968 228.649C186.358 228.315 186.556 228.017 186.644 227.861C186.685 227.787 186.703 227.743 186.705 227.738C186.704 227.74 186.699 227.754 186.691 227.781C186.686 227.795 186.68 227.813 186.674 227.835C186.671 227.846 186.668 227.858 186.664 227.871C186.663 227.878 186.66 227.884 186.658 227.891C186.657 227.894 186.656 227.898 186.655 227.902C186.655 227.903 186.655 227.907 186.654 227.908V227.908C187.018 226.503 188.211 225.468 189.653 225.306C191.095 225.145 192.486 225.889 193.152 227.177C193.15 227.175 193.15 227.172 193.149 227.17C193.146 227.166 193.144 227.161 193.142 227.158C193.138 227.15 193.134 227.144 193.131 227.138C193.125 227.127 193.121 227.119 193.119 227.117C193.116 227.111 193.122 227.12 193.137 227.144C193.167 227.191 193.232 227.292 193.338 227.429C193.551 227.703 193.917 228.113 194.466 228.536C195.522 229.35 197.405 230.333 200.553 230.333C203.701 230.333 205.584 229.35 206.64 228.536C207.189 228.113 207.555 227.703 207.768 227.429C207.874 227.292 207.94 227.191 207.97 227.144C207.984 227.121 207.99 227.111 207.986 227.117C207.985 227.119 207.981 227.127 207.975 227.138C207.972 227.144 207.968 227.15 207.964 227.158C207.962 227.161 207.96 227.166 207.957 227.17C207.956 227.172 207.955 227.175 207.954 227.177C208.84 225.463 210.947 224.789 212.663 225.671C214.382 226.555 215.059 228.665 214.176 230.384L211.063 228.784C214.059 230.325 214.171 230.384 214.174 230.388C214.174 230.389 214.173 230.391 214.172 230.392C214.171 230.395 214.169 230.398 214.167 230.401C214.164 230.406 214.162 230.412 214.158 230.418C214.152 230.431 214.144 230.445 214.136 230.46C214.12 230.491 214.1 230.526 214.077 230.566C214.032 230.645 213.974 230.744 213.903 230.859C213.759 231.087 213.561 231.382 213.3 231.718C212.779 232.39 212.001 233.243 210.912 234.081C208.692 235.792 205.32 237.333 200.553 237.333C195.854 237.333 192.512 235.834 190.29 234.153C188.059 235.962 184.636 237.333 179.532 237.333C174.255 237.333 170.771 235.87 168.548 233.969C167.463 233.041 166.76 232.077 166.317 231.286C166.096 230.893 165.94 230.544 165.832 230.266C165.778 230.127 165.737 230.004 165.704 229.902C165.688 229.851 165.674 229.804 165.662 229.763C165.656 229.743 165.651 229.723 165.646 229.705C165.643 229.696 165.641 229.687 165.639 229.679C165.638 229.675 165.637 229.671 165.636 229.667C165.635 229.665 165.634 229.662 165.634 229.661C165.633 229.659 165.656 229.65 169.023 228.784L165.633 229.656C165.152 227.783 166.279 225.876 168.152 225.395ZM172.41 227.908C172.41 227.908 172.41 227.903 172.409 227.902C172.408 227.898 172.407 227.894 172.406 227.891C172.405 227.884 172.403 227.878 172.402 227.871C172.398 227.858 172.395 227.846 172.392 227.835C172.385 227.813 172.38 227.795 172.375 227.781C172.374 227.777 172.373 227.775 172.372 227.772C172.386 227.817 172.398 227.862 172.41 227.908Z" fill="black"/>
<path d="M183.991 222.079C189.029 224.98 190.48 224.942 194.869 222.079C200.404 218.47 193.724 216.163 189.716 216.163C185.708 216.163 178.952 219.178 183.991 222.079Z" fill="#474847"/>
</svg>
