<svg width="327" height="314" viewBox="0 0 327 314" fill="none" xmlns="http://www.w3.org/2000/svg">
<path d="M20.5407 26.3985C48.9407 -12.0015 89.374 10.3985 106.041 26.3985C142.041 6.39857 191.04 1.8984 229.04 26.3985C256.04 -20.6015 303.54 9.39846 318.04 40.3985C332.54 71.3985 322.04 107.399 303.54 116.399C313.141 131.599 304.874 163.732 303.54 177.898C307.04 181.065 311.641 185.498 318.04 195.898C326.04 208.898 314.041 222.898 314.041 232.898C314.041 242.898 318.041 272.898 283.541 278.398C186.541 342.398 84.5405 296.898 47.0405 278.398C11.0405 266.898 16.0405 252.898 16.0405 243.398C16.0405 233.898 8.54049 222.898 4.54049 212.898C0.540488 202.898 7.54046 195.898 20.5407 177.898C20.5407 155.398 24.5405 135.898 30.0405 116.399C7.04053 113.899 -14.9593 74.3985 20.5407 26.3985Z" fill="white" stroke="#A5A5A5" stroke-width="4" stroke-linecap="round" stroke-linejoin="round" stroke-dasharray="8 8"/>
<path d="M291.057 41.5561C298.342 48.0801 309.284 68.9415 295.303 90.4501C275.407 108.195 248.717 98.8779 242.937 93.0373L242.933 93.0414C242.901 93.0074 242.87 92.9715 242.838 92.9363C242.805 92.9019 242.771 92.8691 242.739 92.8352L242.743 92.8312C237.262 86.6717 226.625 61.3461 247.251 39.3682C260.372 25.3864 284.934 33.7924 291.057 41.5561Z" fill="white"/>
<path d="M39.767 42.0293C27.5191 52.2721 21.6338 76.0975 36.6603 92.0632C54.9427 108.195 84.1886 101.997 90.2534 95.8866L90.2574 95.8908C90.2908 95.8553 90.3231 95.8178 90.3569 95.7808C90.3916 95.7449 90.427 95.7106 90.4604 95.6751L90.4564 95.6709C96.2071 89.2271 108.846 65.0215 87.2058 42.0293C72.1793 26.0637 49.0278 31.8389 39.767 42.0293Z" fill="white"/>
<path d="M44.8924 93.3415C36.7191 88.6226 33.1112 80.4057 32.29 72.0016C31.4528 63.4338 33.6022 55.5251 35.9284 52.1979C36.044 52.0324 36.1451 51.8573 36.2306 51.6744C37.949 47.9963 43.7235 42.1805 51.562 38.6216C59.2508 35.1307 68.1708 34.1468 76.3442 38.8657L77.3965 39.4902C88.0888 46.0028 93.1017 54.4329 95.1488 62.3204C95.6344 64.1915 97.5452 65.3149 99.4163 64.8294C101.287 64.3437 102.41 62.4336 101.925 60.5628C99.4015 50.8402 93.1572 40.6964 80.4537 33.1599L79.8442 32.8035C69.1111 26.6068 57.6847 28.1551 48.6684 32.2487C39.9455 36.2092 32.7515 42.8768 30.0226 48.4387C26.57 53.5827 24.3924 63.1472 25.3241 72.6821C26.2871 82.5373 30.6594 93.2069 41.3924 99.4037C54.5063 106.975 66.6378 107.365 76.473 104.646C78.3358 104.131 79.4285 102.204 78.9138 100.341C78.3988 98.4775 76.4704 97.3843 74.6072 97.8993C66.4995 100.14 56.3108 99.9338 44.8924 93.3415Z" fill="black"/>
<path d="M287.681 92.1151C295.014 87.8807 298.148 80.1045 298.644 71.8453C299.148 63.4756 296.864 55.5904 294.511 52.1772C294.406 52.0236 294.312 51.8611 294.232 51.6926C292.452 47.9486 286.765 42.0284 279.265 38.2793C271.864 34.5797 263.563 33.4052 256.229 37.6393L255.271 38.2083C245.551 44.1541 241.149 52.1457 239.489 59.785C239.078 61.6737 237.214 62.8728 235.325 62.4626C233.436 62.0522 232.238 60.1878 232.648 58.2989C234.708 48.8188 240.295 38.9654 252.158 31.9111L252.729 31.5771C262.847 25.7359 273.802 27.7229 282.395 32.0183C290.759 36.1997 297.716 42.9645 300.429 48.4369C303.812 53.5227 306.193 62.9303 305.631 72.2656C305.055 81.8548 301.298 92.3357 291.181 98.1773C278.926 105.253 267.385 105.209 257.999 102.206C256.158 101.617 255.142 99.6475 255.731 97.8064C256.32 95.9655 258.291 94.9508 260.132 95.5398C267.818 97.9985 277.29 98.114 287.681 92.1151Z" fill="black"/>
<path d="M120.006 189.39C120.006 195.924 115.191 201.22 109.252 201.22C103.312 201.22 98.4976 195.924 98.4976 189.39C98.4976 182.857 103.312 177.561 109.252 177.561C115.191 177.561 120.006 182.857 120.006 189.39Z" fill="#474847"/>
<path d="M232.927 189.39C232.927 195.924 228.112 201.22 222.173 201.22C216.233 201.22 211.418 195.924 211.418 189.39C211.418 182.857 216.233 177.561 222.173 177.561C228.112 177.561 232.927 182.857 232.927 189.39Z" fill="#474847"/>
<path d="M164.676 37.7539V37.756C131.51 37.8317 107.411 46.5852 89.9882 60.338C79.708 67.145 68.2171 84.6829 63.7567 92.601C50.1115 118.829 46.5209 150.169 46.3938 176.485C46.3677 181.899 44.22 188.335 42.4068 195.843C41.555 199.369 32.309 203.131 31.8595 207.135C31.1776 213.206 39.7191 219.833 41.4357 227.03C42.608 231.945 38.3112 240.016 41.4357 244.237C44.21 247.985 54.2224 247.956 58.2077 251.169C75.4324 265.056 102.527 274.005 127.036 278.492C139.155 280.948 171.266 284.387 202.751 278.492C227.26 274.005 254.355 265.056 271.579 251.169C274.292 248.981 285.364 246.672 287.539 244.237C292.156 239.068 286.847 233.339 288.351 227.03C290.068 219.833 297.669 213.206 296.988 207.135C296.538 203.131 288.232 199.369 287.38 195.843C285.567 188.335 283.419 181.899 283.393 176.485C283.266 150.169 279.675 118.829 266.03 92.601C261.591 82.7767 246.693 66.9989 239.799 60.338C222.376 46.5852 198.277 37.8318 165.111 37.756V37.7539C165.038 37.7539 164.965 37.7549 164.893 37.755C164.82 37.7549 164.748 37.7539 164.676 37.7539Z" fill="white"/>
<path d="M117.856 276.5C118.286 211.114 71.7911 188.315 48.49 185.088C45.5783 189.553 42.0374 198.531 31.8209 206.597C30.6675 214.996 40.1184 221.472 42.0374 225.417C44.4344 230.344 38.5569 238.738 42.0374 243.162C45.1637 247.135 50.2117 247.987 56.0181 251.228C69.8506 258.948 89.8944 269.51 117.856 276.5Z" fill="#FFCACC"/>
<path d="M212.4 276.5C211.969 211.114 258.464 188.315 281.765 185.088C284.677 189.553 288.218 198.531 298.435 206.597C299.588 214.996 290.137 221.472 288.218 225.417C285.821 230.344 291.699 238.738 288.218 243.162C285.092 247.135 280.044 247.987 274.237 251.228C260.405 258.948 240.361 269.51 212.4 276.5Z" fill="#FFCACC"/>
<path d="M147.43 39.9042C160.765 36.0328 170.91 38.2911 174.316 39.9042C174.68 43.8816 175.012 48.4388 175.272 53.3241C184.819 52.9773 197.652 54.5744 197.686 63.0019C197.719 71.3534 185.241 72.4878 175.804 71.7955C175.812 74.9336 175.776 78.0822 175.683 81.1898C184.237 81.5278 193.289 83.788 193.318 90.8645C193.348 98.4008 183.189 100.061 174.271 99.805C172.485 112.933 168.924 122.534 162.486 122.713C155.966 122.894 152.013 113.169 149.728 99.7725C140.621 100.157 129.812 98.638 129.843 90.8645C129.871 83.74 139.047 81.4977 147.652 81.1834C147.446 78.1049 147.29 74.9856 147.18 71.8753C137.929 72.3748 126.518 70.9887 126.55 63.0019C126.582 55.1401 137.752 53.2217 147.003 53.281C147.073 48.419 147.225 43.8783 147.43 39.9042Z" fill="#717171"/>
<path d="M84.5172 194.767C87.5285 187.884 59.9614 184.013 45.8015 182.938L42.5752 192.616C55.3012 196.201 81.506 201.65 84.5172 194.767Z" fill="#717171"/>
<path d="M81.7666 221.061C82.329 213.57 55.0351 219.044 41.3178 222.718L41.4782 232.919C54.6733 232.088 81.2042 228.553 81.7666 221.061Z" fill="#717171"/>
<path d="M244.985 194.767C241.974 187.884 269.541 184.013 283.701 182.938L286.927 192.616C274.201 196.201 247.996 201.65 244.985 194.767Z" fill="#717171"/>
<path d="M247.736 221.061C247.173 213.57 274.467 219.044 288.185 222.718L288.024 232.919C274.829 232.088 248.298 228.553 247.736 221.061Z" fill="#717171"/>
<path d="M264.415 89.4961C266.129 88.604 268.243 89.2707 269.135 90.9854C283.158 117.939 286.765 149.933 286.893 176.468C286.904 178.762 287.37 181.408 288.122 184.569C288.494 186.136 288.924 187.774 289.382 189.525C289.838 191.264 290.32 193.106 290.783 195.021C290.756 194.911 290.829 195.228 291.661 196.064C292.425 196.834 293.396 197.629 294.587 198.63C295.691 199.558 296.991 200.669 298.043 201.863C299.053 203.01 300.232 204.666 300.465 206.744C300.725 209.054 300.176 211.22 299.411 213.107C298.65 214.984 297.576 216.819 296.554 218.488C294.361 222.07 292.451 224.929 291.756 227.842C291.232 230.04 291.879 231.978 292.547 235.388C293.161 238.516 293.604 242.702 290.149 246.569C289.025 247.827 287.232 248.682 285.886 249.258C284.363 249.91 282.572 250.534 280.893 251.107C279.159 251.7 277.545 252.24 276.174 252.77C274.689 253.344 273.976 253.733 273.776 253.894C255.891 268.313 228.145 277.393 203.445 281.922C194.742 283.91 179.41 285.004 164.484 285.077C149.672 285.15 134.546 284.223 126.253 281.905C101.575 277.371 73.8745 268.296 56.0113 253.894C55.5145 253.493 54.6257 253.051 53.2018 252.582C51.8008 252.121 50.2487 251.745 48.4947 251.293C46.8305 250.864 44.9748 250.364 43.3307 249.685C41.7342 249.025 39.8821 248.021 38.6227 246.319C37.2757 244.5 36.8553 242.428 36.7848 240.594C36.7151 238.782 36.9792 236.922 37.2535 235.308C37.5514 233.555 37.8411 232.182 38.0182 230.765C38.1916 229.377 38.1763 228.452 38.0309 227.842C37.361 225.034 35.3124 222.228 32.858 218.635C31.7248 216.976 30.5151 215.139 29.6481 213.258C28.7779 211.37 28.1119 209.145 28.3815 206.744L28.44 206.338C28.7962 204.339 30.0511 202.784 31.067 201.738C32.2188 200.553 33.6469 199.45 34.8639 198.524C36.175 197.527 37.2544 196.725 38.0973 195.952C39.0408 195.087 39.0573 194.802 39.0045 195.021C39.4669 193.106 39.9494 191.264 40.4049 189.525C40.8636 187.774 41.2931 186.136 41.6656 184.569C42.4174 181.408 42.8831 178.762 42.8941 176.468C43.0223 149.933 46.6296 117.939 60.652 90.9854C61.5441 89.2709 63.657 88.6043 65.3717 89.4961C67.0865 90.3882 67.754 92.502 66.8619 94.2168C53.5941 119.72 50.0201 150.405 49.8941 176.502C49.8791 179.622 49.2571 182.901 48.4752 186.188C48.081 187.846 47.632 189.563 47.1773 191.299C46.7194 193.047 46.2533 194.825 45.8092 196.664C45.3305 198.646 43.8719 200.155 42.8287 201.111C41.6844 202.161 40.2643 203.211 39.1012 204.096C37.844 205.052 36.8223 205.86 36.0875 206.616C35.4986 207.222 35.3579 207.532 35.3336 207.578C35.2759 208.209 35.4284 209.076 36.0055 210.328C36.6017 211.622 37.507 213.029 38.6383 214.686C40.7131 217.723 43.7935 221.829 44.8404 226.218C45.2811 228.066 45.1693 229.993 44.9645 231.633C44.7632 233.243 44.3931 235.073 44.1539 236.48C43.8912 238.026 43.7399 239.282 43.7799 240.324C43.8191 241.344 44.0335 241.865 44.2486 242.155C44.3765 242.328 44.8173 242.725 46.0025 243.215C47.1404 243.685 48.5572 244.081 50.2408 244.515C51.8347 244.925 53.7064 245.378 55.3902 245.933C57.0512 246.479 58.9091 247.238 60.4049 248.444C76.4369 261.37 101.724 270.045 125.382 274.619L127.667 275.049L127.832 275.084C127.887 275.097 127.941 275.11 127.996 275.126C135.189 277.178 149.518 278.15 164.45 278.077C179.32 278.004 194.067 276.9 201.965 275.081C202.017 275.069 202.069 275.058 202.121 275.049C226.422 270.6 252.833 261.787 269.382 248.444C270.539 247.512 272.228 246.791 273.649 246.241C275.186 245.647 276.984 245.046 278.629 244.483C280.329 243.902 281.883 243.357 283.132 242.822C284.559 242.212 284.965 241.864 284.928 241.905C286.091 240.604 286.189 239.34 285.678 236.734C285.223 234.41 283.967 230.328 284.947 226.218C285.969 221.934 288.718 217.881 290.584 214.833C291.591 213.187 292.397 211.776 292.923 210.478C293.445 209.19 293.591 208.252 293.509 207.525C293.518 207.601 293.491 207.286 292.791 206.491C292.132 205.744 291.217 204.943 290.083 203.989C289.035 203.109 287.741 202.052 286.695 200.999C285.716 200.014 284.431 198.538 283.978 196.664C283.534 194.825 283.068 193.047 282.61 191.299C282.155 189.563 281.706 187.846 281.312 186.188C280.53 182.901 279.908 179.622 279.893 176.502C279.767 150.405 276.193 119.72 262.925 94.2168C262.033 92.5021 262.7 90.3883 264.415 89.4961ZM165.202 34.2568C198.966 34.3485 223.839 43.2814 241.967 57.5908C243.485 58.7885 243.744 60.9896 242.546 62.5068C241.349 64.0241 239.148 64.2826 237.63 63.085C220.928 49.9005 197.63 41.3302 165.103 41.2559C165.083 41.2558 165.063 41.2543 165.043 41.2539C164.975 41.2541 165.118 41.2546 164.897 41.2549H164.888C164.661 41.2546 164.816 41.2541 164.744 41.2539C164.724 41.2543 164.704 41.2558 164.684 41.2559C132.158 41.3301 108.86 49.9005 92.1568 63.085C90.6396 64.2826 88.4385 64.024 87.2408 62.5068C86.0432 60.9896 86.3027 58.7885 87.8199 57.5908C105.948 43.2816 130.821 34.3486 164.585 34.2568C164.615 34.2561 164.646 34.2539 164.676 34.2539C164.726 34.2539 164.774 34.2546 164.809 34.2549H164.977C165.013 34.2546 165.061 34.2539 165.111 34.2539C165.141 34.2539 165.172 34.2561 165.202 34.2568Z" fill="black"/>
<path d="M128.138 197.994C128.138 204.527 123.188 209.824 117.082 209.824C110.976 209.824 106.026 204.527 106.026 197.994C106.026 191.46 110.976 186.164 117.082 186.164C123.188 186.164 128.138 191.46 128.138 197.994Z" fill="#474847"/>
<path d="M224.324 197.994C224.324 204.527 219.374 209.824 213.268 209.824C207.162 209.824 202.212 204.527 202.212 197.994C202.212 191.46 207.162 186.164 213.268 186.164C219.374 186.164 224.324 191.46 224.324 197.994Z" fill="#474847"/>
<path d="M130.761 214.125C130.761 205.216 139.565 197.994 150.426 197.994C161.287 197.994 159.335 200.01 165.175 200.01C171.014 200.01 169.063 197.994 179.924 197.994C190.784 197.994 199.589 205.216 199.589 214.125C199.589 223.034 190.784 230.257 179.924 230.257C169.063 230.257 168.862 226.224 165.175 226.224C161.488 226.224 161.287 230.257 150.426 230.257C139.565 230.257 130.761 223.034 130.761 214.125Z" fill="#E9E9E9"/>
<path d="M165.619 219.232C167.808 219.313 169.512 219.988 170.809 220.681C171.395 220.995 171.955 221.346 172.275 221.543C172.654 221.777 172.912 221.934 173.183 222.08C173.9 222.467 175.496 223.256 179.924 223.256V230.256L178.937 230.245C169.047 230.008 168.747 226.224 165.175 226.224C161.488 226.224 161.287 230.256 150.426 230.256V223.256C154.853 223.256 156.45 222.467 157.167 222.08C157.437 221.934 157.696 221.777 158.074 221.543C158.395 221.346 158.954 220.995 159.541 220.681C160.924 219.941 162.77 219.224 165.175 219.224L165.619 219.232ZM192.589 214.125C192.589 210.315 188.279 204.994 179.924 204.994C174.988 204.994 173.507 205.446 172.77 205.678C171.358 206.123 169.353 207.01 165.175 207.01C160.996 207.01 158.99 206.123 157.579 205.678C156.842 205.446 155.361 204.994 150.426 204.994C142.071 204.994 137.761 210.315 137.761 214.125C137.761 217.936 142.071 223.256 150.426 223.256V230.256C139.735 230.256 131.037 223.258 130.768 214.542L130.761 214.125C130.761 205.216 139.565 197.994 150.426 197.994C160.947 197.994 159.445 199.886 164.649 200.004L165.175 200.01C171.014 200.01 169.063 197.994 179.924 197.994L180.431 197.999C191.057 198.219 199.589 205.355 199.589 214.125L199.582 214.542C199.313 223.258 190.615 230.256 179.924 230.256V223.256C188.279 223.256 192.589 217.936 192.589 214.125Z" fill="black"/>
<path d="M158.483 207.522C163.849 210.611 165.394 210.571 170.069 207.522C175.964 203.677 168.85 201.22 164.581 201.22C160.312 201.22 153.116 204.432 158.483 207.522Z" fill="#474847"/>
</svg>
