<svg width="420" height="420" viewBox="0 0 420 420" fill="none" xmlns="http://www.w3.org/2000/svg">
<path d="M201.306 76.6525C217.015 76.6525 244.216 60.2175 255.852 52C275.052 52 279.852 86.3641 279.852 103.546C292.943 111.017 321.307 133.577 330.034 164.057C434.762 197.674 395.489 267.149 354.034 294.043C330.034 368 231.852 368 210.034 368C188.215 368 100.941 368 72.5775 303.007C-19.0593 258.184 35.4874 175.262 83.4876 164.057C94.3967 105.787 181.67 76.6525 201.306 76.6525Z" fill="white" stroke="#A5A5A5" stroke-width="4" stroke-linecap="round" stroke-linejoin="round" stroke-dasharray="8 8"/>
<path d="M58.6556 206.175C66.2107 197.315 95.0374 186.263 112.71 203.678C138.162 228.758 125.036 257.657 118.273 264.686L118.277 264.691C118.238 264.729 118.196 264.767 118.156 264.806C118.116 264.846 118.078 264.887 118.038 264.926L118.034 264.921C110.901 271.586 81.5731 284.52 56.122 259.44C38.449 242.025 49.6651 213.619 58.6556 206.175Z" fill="white"/>
<path d="M358.042 205.313C367.014 212.852 378.206 241.617 360.57 259.253C335.173 284.65 305.908 271.552 298.79 264.803L298.786 264.808C298.746 264.769 298.708 264.727 298.669 264.686C298.628 264.647 298.586 264.609 298.547 264.57L298.552 264.565C291.803 257.447 278.705 228.182 304.102 202.785C321.738 185.149 350.503 196.342 358.042 205.313Z" fill="white"/>
<path d="M350.908 216.486C357.636 222.14 366.031 243.715 352.804 256.941C333.756 275.989 311.807 266.166 306.469 261.104L306.465 261.107C306.436 261.078 306.408 261.047 306.378 261.016C306.347 260.987 306.316 260.958 306.287 260.929L306.29 260.925C301.228 255.587 291.405 233.638 310.453 214.59C323.68 201.363 345.254 209.758 350.908 216.486Z" fill="#FFF5EB"/>
<path d="M69.8041 216.486C63.0755 222.14 54.6813 243.715 67.9078 256.941C86.9556 275.989 108.905 266.166 114.243 261.104L114.247 261.107C114.276 261.078 114.304 261.047 114.334 261.016C114.365 260.987 114.396 260.958 114.425 260.929L114.422 260.925C119.484 255.587 129.307 233.638 110.259 214.59C97.0324 201.363 75.4583 209.758 69.8041 216.486Z" fill="#FFF5EB"/>
<path d="M210.764 114.706C305.865 114.923 321.558 191.132 321.818 244.959C321.871 256.05 331.411 271.716 326.474 292.416C317.702 329.196 244.144 345.024 210.559 343.917C176.976 345.024 103.418 329.196 94.6452 292.416C89.7083 271.716 99.2468 256.05 99.3003 244.959C99.5602 191.132 115.253 114.923 210.355 114.706V114.704C210.423 114.704 210.491 114.705 210.559 114.705C210.627 114.705 210.695 114.704 210.764 114.704V114.706Z" fill="white"/>
<path d="M350.857 264.058C360.501 258.49 364.729 248.804 365.689 238.979C366.665 228.991 364.173 219.711 361.389 215.73C361.274 215.565 361.173 215.389 361.087 215.207C359.031 210.806 352.24 204.007 343.102 199.859C334.114 195.778 323.612 194.596 313.968 200.164L313.348 200.526C300.449 208.176 294.421 218.208 291.983 227.603C291.498 229.474 289.587 230.597 287.716 230.112C285.845 229.626 284.721 227.715 285.207 225.844C288.088 214.742 295.218 203.143 309.769 194.511L310.468 194.102C322.671 187.056 335.681 188.801 345.996 193.484C356.016 198.034 364.226 205.683 367.295 211.971C371.206 217.773 373.726 228.708 372.656 239.66C371.554 250.936 366.56 263.074 354.357 270.12C339.335 278.793 325.467 279.229 314.236 276.125C312.373 275.609 311.28 273.682 311.795 271.819C312.31 269.956 314.239 268.863 316.102 269.378C325.605 272.004 337.53 271.752 350.857 264.058Z" fill="black"/>
<path d="M342.408 233.975C330.847 231.307 319.613 235.043 315.263 237.312C313.55 238.206 312.885 240.32 313.779 242.034C314.673 243.748 316.788 244.412 318.501 243.518C321.893 241.749 331.392 238.618 340.833 240.797C342.717 241.231 344.596 240.056 345.031 238.173C345.465 236.289 344.291 234.41 342.408 233.975Z" fill="black"/>
<path d="M73.7608 233.975C85.3215 231.307 96.5555 235.043 100.905 237.312C102.619 238.206 103.283 240.32 102.39 242.034C101.496 243.748 99.3808 244.412 97.667 243.518C94.2755 241.749 84.7764 238.618 75.335 240.797C73.4515 241.231 71.5724 240.056 71.1377 238.173C70.7033 236.289 71.8774 234.41 73.7608 233.975Z" fill="black"/>
<path d="M65.6454 264.058C56.0016 258.49 51.7738 248.804 50.8138 238.979C49.8379 228.991 52.3298 219.711 55.1131 215.73C55.2288 215.565 55.3299 215.389 55.4153 215.207C57.4714 210.806 64.2623 204.007 73.4002 199.859C82.3883 195.778 92.8906 194.596 102.535 200.164L103.154 200.526C116.054 208.176 122.081 218.208 124.519 227.603C125.005 229.474 126.916 230.597 128.787 230.112C130.658 229.626 131.781 227.715 131.296 225.844C128.414 214.742 121.284 203.143 106.733 194.511L106.035 194.102C93.831 187.056 80.8219 188.801 70.5062 193.484C60.4863 198.034 52.2766 205.683 49.2074 211.971C45.2963 217.773 42.7764 228.708 43.8466 239.66C44.9484 250.936 49.942 263.074 62.1454 270.12C77.1676 278.793 91.0356 279.229 102.266 276.125C104.129 275.609 105.222 273.682 104.707 271.819C104.192 269.956 102.264 268.863 100.401 269.378C90.8972 272.004 78.9721 271.752 65.6454 264.058Z" fill="black"/>
<path d="M210.764 114.706C305.866 114.923 321.559 191.133 321.819 244.959C321.873 256.051 331.412 271.717 326.475 292.416C317.703 329.197 244.14 345.025 210.557 343.917C176.972 345.023 103.417 329.195 94.645 292.416C89.7082 271.717 99.2476 256.051 99.3013 244.959C99.5611 191.133 115.254 114.923 210.356 114.706V114.704C210.424 114.704 210.492 114.705 210.56 114.705C210.628 114.705 210.696 114.704 210.764 114.704V114.706Z" fill="#FFF5EB"/>
<path d="M208.337 210.123C157.346 171.249 123.52 233.347 112.413 260.105C101.306 299.484 123.52 315.135 141.19 333.31C79.092 310.086 92.2184 267.678 99.2865 248.998C97.7719 231.832 103.325 107.131 208.337 113.695C217.872 114.29 228.531 113.695 249.917 93.5C256.804 107.131 251.755 113.695 249.917 120.763C315.377 140.895 320.648 197.665 321.931 248.998C339.601 300.999 304.261 326.242 274.474 333.31C321.426 314.63 307.29 269.192 304.261 256.571C301.232 243.949 261.852 164.686 208.337 210.123Z" fill="white"/>
<path d="M163.909 338.863C164.313 277.472 120.659 256.066 98.7816 253.037C93.733 260.778 91.3178 286.862 95.2475 294.94C104.335 313.62 115.442 323.717 163.909 338.863Z" fill="#FFCACC"/>
<path d="M256.872 338.863C256.468 277.472 300.122 256.066 321.999 253.037C327.048 260.778 329.463 286.862 325.533 294.94C316.446 313.62 305.339 323.717 256.872 338.863Z" fill="#FFCACC"/>
<path d="M247.324 90.9627C248.151 90.1767 249.315 89.84 250.442 90.072C251.643 90.3196 252.628 91.1778 253.036 92.3347C254.599 96.761 256.101 102.152 256.446 107.371C256.681 110.904 256.4 114.657 255.013 118.011C283.91 127.984 301.378 147.882 311.635 170.828C322.332 194.758 325.208 222.014 325.319 244.942C325.33 247.274 325.846 249.992 326.661 253.306C327.435 256.45 328.545 260.367 329.433 264.316C331.265 272.465 332.52 282.149 329.878 293.227C326.375 307.914 313.759 319.065 298.445 327.216C283.056 335.406 264.226 340.96 246.878 344.148C218.696 351.754 186.901 347.343 174.279 344.155C156.92 340.968 138.075 335.412 122.675 327.216C107.361 319.065 94.7432 307.914 91.2404 293.227C88.5983 282.149 89.8544 272.465 91.6867 264.316C92.5748 260.367 93.6839 256.45 94.4572 253.306C95.2727 249.992 95.7897 247.274 95.801 244.942C95.9319 217.813 99.9327 184.526 116.279 157.898C132.792 131.001 161.633 111.342 210.253 111.206C210.287 111.205 210.321 111.204 210.356 111.204C210.403 111.204 210.449 111.205 210.482 111.205H210.637C210.67 111.205 210.716 111.204 210.764 111.204C210.784 111.204 210.805 111.204 210.825 111.205C213.903 111.208 218.583 110.866 224.613 108.276C230.707 105.659 238.352 100.672 247.163 91.1257L247.324 90.9627ZM248.132 100.164C240.429 107.656 233.439 112.104 227.376 114.708C220.207 117.787 214.508 118.214 210.756 118.206C210.736 118.206 210.716 118.204 210.695 118.204C210.636 118.204 210.782 118.205 210.564 118.205H210.556C210.337 118.205 210.485 118.204 210.423 118.204C210.403 118.204 210.383 118.206 210.363 118.206C163.938 118.312 137.409 136.86 122.245 161.56C106.905 186.548 102.93 218.279 102.801 244.975C102.785 248.19 102.089 251.589 101.255 254.978C100.379 258.539 99.4019 261.911 98.5158 265.852C96.7998 273.484 95.7555 281.983 98.05 291.603C100.849 303.339 111.251 313.205 125.963 321.036C140.102 328.561 157.571 333.849 174.054 336.993L175.646 337.29L175.878 337.342C187.783 340.371 218.465 344.609 245.188 337.355L245.474 337.29C262.418 334.188 280.56 328.804 295.155 321.036C309.868 313.205 320.27 303.339 323.07 291.603C325.364 281.983 324.319 273.484 322.603 265.852C321.717 261.911 320.74 258.539 319.864 254.978C319.031 251.589 318.334 248.19 318.319 244.975C318.21 222.479 315.371 196.339 305.244 173.685C295.174 151.156 277.92 132.09 248.731 123.341C247.588 122.998 246.698 122.096 246.37 120.949C246.043 119.802 246.322 118.566 247.112 117.672C248.985 115.548 249.751 112.21 249.461 107.834C249.297 105.349 248.802 102.732 248.132 100.164Z" fill="black"/>
<path d="M175.582 265.153C175.582 271.288 170.935 276.26 165.202 276.26C159.469 276.26 154.821 271.288 154.821 265.153C154.821 259.019 159.469 254.046 165.202 254.046C170.935 254.046 175.582 259.019 175.582 265.153Z" fill="#474847"/>
<path d="M265.447 265.153C265.447 271.288 260.8 276.26 255.067 276.26C249.334 276.26 244.687 271.288 244.687 265.153C244.687 259.019 249.334 254.046 255.067 254.046C260.8 254.046 265.447 259.019 265.447 265.153Z" fill="#474847"/>
<path d="M189.244 275.395C191.061 274.928 192.91 275.976 193.458 277.75C193.466 277.768 193.484 277.807 193.514 277.861C193.602 278.017 193.8 278.315 194.19 278.649C194.919 279.272 196.69 280.333 200.625 280.334C204.56 280.334 206.332 279.272 207.06 278.649C207.45 278.315 207.648 278.017 207.736 277.861C207.777 277.788 207.795 277.743 207.798 277.738C207.796 277.741 207.791 277.754 207.783 277.781C207.778 277.795 207.773 277.814 207.766 277.835C207.763 277.846 207.76 277.859 207.757 277.872C207.755 277.878 207.752 277.884 207.751 277.891C207.75 277.895 207.749 277.898 207.748 277.902C207.747 277.904 207.747 277.907 207.747 277.908V277.909C208.11 276.504 209.303 275.468 210.746 275.306C212.187 275.145 213.578 275.89 214.244 277.177C214.243 277.175 214.242 277.173 214.241 277.17C214.239 277.166 214.236 277.162 214.234 277.158C214.23 277.15 214.226 277.144 214.223 277.138C214.217 277.127 214.213 277.12 214.212 277.117C214.208 277.111 214.215 277.121 214.229 277.144C214.259 277.192 214.324 277.293 214.43 277.429C214.643 277.704 215.009 278.113 215.558 278.537C216.614 279.35 218.497 280.334 221.645 280.334C224.793 280.334 226.676 279.35 227.732 278.537C228.281 278.113 228.647 277.704 228.86 277.429C228.966 277.293 229.032 277.192 229.062 277.144C229.077 277.121 229.082 277.111 229.079 277.117C229.077 277.12 229.073 277.127 229.067 277.138C229.064 277.144 229.06 277.15 229.056 277.158C229.054 277.162 229.052 277.166 229.049 277.17C229.048 277.173 229.048 277.175 229.047 277.177C229.932 275.464 232.039 274.789 233.756 275.671C235.475 276.555 236.152 278.665 235.268 280.384L232.155 278.785C235.152 280.325 235.263 280.384 235.266 280.388C235.266 280.389 235.265 280.391 235.264 280.392C235.263 280.395 235.261 280.398 235.259 280.401C235.257 280.406 235.254 280.412 235.251 280.419C235.244 280.431 235.236 280.445 235.228 280.46C235.212 280.491 235.192 280.526 235.17 280.566C235.124 280.646 235.066 280.745 234.995 280.859C234.852 281.088 234.653 281.382 234.392 281.718C233.871 282.391 233.093 283.243 232.005 284.082C229.784 285.793 226.412 287.334 221.645 287.334C216.946 287.334 213.604 285.835 211.382 284.153C209.151 285.962 205.728 287.334 200.625 287.334C195.347 287.333 191.864 285.871 189.64 283.969C188.555 283.041 187.852 282.077 187.409 281.287C187.188 280.893 187.032 280.545 186.924 280.266C186.871 280.127 186.829 280.004 186.797 279.902C186.78 279.851 186.766 279.804 186.755 279.763C186.749 279.743 186.743 279.723 186.738 279.706C186.736 279.697 186.733 279.687 186.731 279.679C186.73 279.675 186.729 279.671 186.728 279.668C186.728 279.666 186.726 279.663 186.726 279.662C186.726 279.659 186.748 279.65 190.115 278.785L186.725 279.656C186.244 277.784 187.372 275.876 189.244 275.395ZM193.503 277.909C193.502 277.908 193.502 277.904 193.502 277.902C193.501 277.898 193.5 277.895 193.499 277.891C193.497 277.884 193.496 277.878 193.494 277.872C193.49 277.859 193.487 277.846 193.484 277.835C193.478 277.814 193.472 277.795 193.467 277.781C193.466 277.778 193.465 277.775 193.465 277.772C193.478 277.817 193.491 277.863 193.503 277.909Z" fill="black"/>
<path d="M205.083 272.079C210.121 274.98 211.572 274.942 215.962 272.079C221.496 268.47 214.816 266.163 210.809 266.163C206.801 266.163 200.045 269.178 205.083 272.079Z" fill="#474847"/>
</svg>
