<svg width="420" height="420" viewBox="0 0 420 420" fill="none" xmlns="http://www.w3.org/2000/svg">
<path d="M67.6613 79.3985C96.0613 40.9985 136.495 63.3985 153.161 79.3985C189.162 59.3986 238.161 54.8984 276.161 79.3985C303.161 32.3985 350.661 62.3985 365.161 93.3985C379.661 124.398 369.161 160.399 350.661 169.399C360.261 184.599 351.994 216.732 350.661 230.898C354.161 234.065 358.761 238.498 365.161 248.898C373.161 261.898 361.161 275.898 361.161 285.898C361.161 295.898 365.161 325.898 330.661 331.398C233.661 395.398 131.661 349.898 94.1611 331.398C58.1611 319.898 63.1611 305.898 63.1611 296.398C63.1611 286.898 55.6611 275.898 51.6611 265.898C47.6611 255.898 54.6611 248.898 67.6613 230.898C67.6613 208.398 71.6611 188.898 77.1611 169.399C54.1611 166.899 32.1613 127.398 67.6613 79.3985Z" fill="white" stroke="#A5A5A5" stroke-width="4" stroke-linecap="round" stroke-linejoin="round" stroke-dasharray="8 8"/>
<path d="M338.177 94.5561C345.463 101.08 356.404 121.941 342.424 143.45C322.528 161.195 295.838 151.878 290.057 146.037L290.053 146.041C290.022 146.007 289.991 145.972 289.959 145.936C289.926 145.902 289.892 145.869 289.86 145.835L289.864 145.831C284.383 139.672 273.746 114.346 294.371 92.3682C307.493 78.3864 332.055 86.7924 338.177 94.5561Z" fill="white"/>
<path d="M86.8876 95.0293C74.6397 105.272 68.7544 129.098 83.7809 145.063C102.063 161.195 131.309 154.997 137.374 148.887L137.378 148.891C137.411 148.855 137.444 148.818 137.477 148.781C137.512 148.745 137.548 148.711 137.581 148.675L137.577 148.671C143.328 142.227 155.966 118.022 134.326 95.0293C119.3 79.0637 96.1484 84.8389 86.8876 95.0293Z" fill="white"/>
<path d="M92.013 146.341C83.8397 141.623 80.2318 133.406 79.4106 125.002C78.5734 116.434 80.7228 108.525 83.049 105.198C83.1646 105.032 83.2657 104.857 83.3512 104.674C85.0696 100.996 90.8441 95.1805 98.6826 91.6216C106.371 88.1307 115.291 87.1468 123.465 91.8657L124.517 92.4902C135.209 99.0028 140.222 107.433 142.269 115.32C142.755 117.191 144.666 118.315 146.537 117.829C148.408 117.344 149.531 115.434 149.045 113.563C146.522 103.84 140.278 93.6964 127.574 86.1599L126.965 85.8035C116.232 79.6068 104.805 81.1551 95.789 85.2487C87.0661 89.2092 79.8721 95.8768 77.1432 101.439C73.6907 106.583 71.513 116.147 72.4447 125.682C73.4077 135.537 77.78 146.207 88.513 152.404C101.627 159.975 113.758 160.365 123.594 157.646C125.456 157.131 126.549 155.204 126.034 153.341C125.519 151.477 123.591 150.384 121.728 150.899C113.62 153.14 103.431 152.934 92.013 146.341Z" fill="black"/>
<path d="M334.801 145.115C342.135 140.881 345.268 133.104 345.765 124.845C346.268 116.476 343.985 108.59 341.632 105.177C341.526 105.024 341.432 104.861 341.352 104.693C339.573 100.949 333.886 95.0284 326.386 91.2793C318.985 87.5797 310.684 86.4052 303.349 90.6393L302.391 91.2083C292.671 97.1541 288.269 105.146 286.609 112.785C286.199 114.674 284.335 115.873 282.446 115.463C280.557 115.052 279.359 113.188 279.769 111.299C281.829 101.819 287.416 91.9654 299.279 84.9111L299.849 84.5771C309.967 78.7359 320.922 80.7229 329.515 85.0183C337.88 89.1997 344.837 95.9645 347.55 101.437C350.933 106.523 353.313 115.93 352.752 125.266C352.175 134.855 348.419 145.336 338.301 151.177C326.047 158.253 314.506 158.209 305.119 155.206C303.278 154.617 302.263 152.647 302.852 150.806C303.441 148.966 305.411 147.951 307.252 148.54C314.938 150.999 324.411 151.114 334.801 145.115Z" fill="black"/>
<path d="M167.127 242.39C167.127 248.924 162.312 254.22 156.373 254.22C150.433 254.22 145.618 248.924 145.618 242.39C145.618 235.857 150.433 230.561 156.373 230.561C162.312 230.561 167.127 235.857 167.127 242.39Z" fill="#474847"/>
<path d="M280.048 242.39C280.048 248.924 275.233 254.22 269.293 254.22C263.354 254.22 258.539 248.924 258.539 242.39C258.539 235.857 263.354 230.561 269.293 230.561C275.233 230.561 280.048 235.857 280.048 242.39Z" fill="#474847"/>
<path d="M211.797 90.7539V90.756C178.63 90.8317 154.532 99.5852 137.109 113.338C126.829 120.145 115.338 137.683 110.877 145.601C97.2322 171.829 93.6415 203.169 93.5144 229.485C93.4883 234.899 91.3406 241.335 89.5274 248.843C88.6756 252.369 79.4296 256.131 78.9801 260.135C78.2982 266.206 86.8397 272.833 88.5563 280.03C89.7286 284.945 85.4318 293.016 88.5563 297.237C91.3306 300.985 101.343 300.956 105.328 304.169C122.553 318.056 149.648 327.005 174.156 331.492C186.276 333.948 218.387 337.387 249.872 331.492C274.381 327.005 301.475 318.056 318.7 304.169C321.413 301.981 332.485 299.672 334.659 297.237C339.277 292.068 333.967 286.339 335.472 280.03C337.189 272.833 344.79 266.206 344.108 260.135C343.659 256.131 335.353 252.369 334.501 248.843C332.688 241.335 330.54 234.899 330.514 229.485C330.387 203.169 326.796 171.829 313.151 145.601C308.712 135.777 293.813 119.999 286.919 113.338C269.497 99.5852 245.398 90.8318 212.232 90.756V90.7539C212.159 90.7539 212.086 90.7549 212.013 90.755C211.941 90.7549 211.869 90.7539 211.797 90.7539Z" fill="white"/>
<path d="M164.976 329.5C165.406 264.114 118.912 241.315 95.6106 238.088C92.6989 242.553 89.158 251.531 78.9415 259.597C77.7881 267.996 87.239 274.472 89.158 278.417C91.555 283.344 85.6775 291.738 89.158 296.162C92.2843 300.135 97.3323 300.987 103.139 304.228C116.971 311.948 137.015 322.51 164.976 329.5Z" fill="#FFCACC"/>
<path d="M259.52 329.5C259.09 264.114 305.585 241.315 328.886 238.088C331.798 242.553 335.339 251.531 345.555 259.597C346.708 267.996 337.258 274.472 335.339 278.417C332.942 283.344 338.819 291.738 335.339 296.162C332.212 300.135 327.164 300.987 321.358 304.228C307.525 311.948 287.482 322.51 259.52 329.5Z" fill="#FFCACC"/>
<path d="M194.551 92.9042C207.886 89.0328 218.031 91.2911 221.437 92.9042C221.8 96.8816 222.132 101.439 222.392 106.324C231.94 105.977 244.772 107.574 244.806 116.002C244.84 124.353 232.362 125.488 222.925 124.795C222.933 127.934 222.897 131.082 222.804 134.19C231.358 134.528 240.41 136.788 240.438 143.864C240.468 151.401 230.31 153.061 221.391 152.805C219.605 165.933 216.044 175.534 209.607 175.713C203.087 175.894 199.133 166.169 196.849 152.772C187.742 153.157 176.933 151.638 176.963 143.864C176.992 136.74 186.167 134.498 194.772 134.183C194.566 131.105 194.411 127.986 194.301 124.875C185.05 125.375 173.639 123.989 173.671 116.002C173.703 108.14 184.873 106.222 194.123 106.281C194.193 101.419 194.346 96.8783 194.551 92.9042Z" fill="#717171"/>
<path d="M131.638 247.767C134.649 240.884 107.082 237.013 92.9221 235.938L89.6958 245.616C102.422 249.201 128.627 254.65 131.638 247.767Z" fill="#717171"/>
<path d="M128.887 274.061C129.45 266.57 102.156 272.044 88.4384 275.718L88.5988 285.919C101.794 285.088 128.325 281.553 128.887 274.061Z" fill="#717171"/>
<path d="M292.106 247.767C289.095 240.884 316.662 237.013 330.822 235.938L334.048 245.616C321.322 249.201 295.117 254.65 292.106 247.767Z" fill="#717171"/>
<path d="M294.856 274.061C294.294 266.57 321.588 272.044 335.305 275.718L335.145 285.919C321.95 285.088 295.419 281.553 294.856 274.061Z" fill="#717171"/>
<path d="M311.535 142.496C313.25 141.604 315.364 142.271 316.256 143.985C330.278 170.939 333.886 202.933 334.014 229.468C334.025 231.762 334.491 234.408 335.242 237.569C335.615 239.136 336.044 240.774 336.503 242.525C336.959 244.264 337.441 246.106 337.903 248.021C337.877 247.911 337.95 248.228 338.781 249.064C339.546 249.834 340.516 250.629 341.707 251.63C342.811 252.558 344.111 253.669 345.163 254.863C346.173 256.01 347.353 257.666 347.586 259.744C347.845 262.054 347.296 264.22 346.531 266.107C345.771 267.984 344.697 269.819 343.675 271.488C341.482 275.07 339.572 277.929 338.877 280.842C338.353 283.04 338.999 284.978 339.668 288.388C340.281 291.516 340.725 295.702 337.27 299.569C336.146 300.827 334.352 301.682 333.007 302.258C331.484 302.91 329.692 303.534 328.014 304.107C326.28 304.7 324.665 305.24 323.295 305.77C321.81 306.344 321.096 306.733 320.897 306.894C303.012 321.313 275.266 330.393 250.566 334.922C241.862 336.91 226.531 338.004 211.605 338.077C196.792 338.15 181.666 337.223 173.373 334.905C148.696 330.371 120.995 321.296 103.132 306.894C102.635 306.493 101.746 306.051 100.322 305.582C98.9214 305.121 97.3693 304.745 95.6153 304.293C93.9511 303.864 92.0954 303.364 90.4513 302.685C88.8548 302.025 87.0027 301.021 85.7433 299.319C84.3963 297.5 83.9759 295.428 83.9054 293.594C83.8357 291.782 84.0998 289.922 84.3741 288.308C84.672 286.555 84.9617 285.182 85.1388 283.765C85.3122 282.377 85.2969 281.452 85.1515 280.842C84.4816 278.034 82.433 275.228 79.9786 271.635C78.8454 269.976 77.6357 268.139 76.7687 266.258C75.8985 264.37 75.2325 262.145 75.5021 259.744L75.5606 259.338C75.9168 257.339 77.1717 255.784 78.1876 254.738C79.3394 253.553 80.7675 252.45 81.9845 251.524C83.2956 250.527 84.375 249.725 85.2179 248.952C86.1614 248.087 86.1779 247.802 86.1251 248.021C86.5875 246.106 87.07 244.264 87.5255 242.525C87.9842 240.774 88.4137 239.136 88.7862 237.569C89.538 234.408 90.0037 231.762 90.0148 229.468C90.1429 202.933 93.7502 170.939 107.773 143.985C108.665 142.271 110.778 141.604 112.492 142.496C114.207 143.388 114.875 145.502 113.983 147.217C100.715 172.72 97.1407 203.405 97.0148 229.502C96.9997 232.622 96.3777 235.901 95.5958 239.188C95.2016 240.846 94.7526 242.563 94.298 244.299C93.84 246.047 93.3739 247.825 92.9298 249.664C92.4511 251.646 90.9925 253.155 89.9493 254.111C88.805 255.161 87.3849 256.211 86.2218 257.096C84.9647 258.052 83.9429 258.86 83.2081 259.616C82.6193 260.222 82.4785 260.532 82.4542 260.578C82.3965 261.209 82.549 262.076 83.1261 263.328C83.7224 264.622 84.6276 266.029 85.7589 267.686C87.8337 270.723 90.9141 274.829 91.961 279.218C92.4017 281.066 92.2899 282.993 92.0851 284.633C91.8838 286.243 91.5137 288.073 91.2745 289.48C91.0118 291.026 90.8605 292.282 90.9005 293.324C90.9397 294.344 91.1541 294.865 91.3692 295.155C91.4971 295.328 91.9379 295.725 93.1231 296.215C94.261 296.685 95.6778 297.081 97.3614 297.515C98.9553 297.925 100.827 298.378 102.511 298.933C104.172 299.479 106.03 300.238 107.525 301.444C123.558 314.37 148.844 323.045 172.503 327.619L174.787 328.049L174.952 328.084C175.007 328.097 175.062 328.11 175.116 328.126C182.31 330.178 196.639 331.15 211.57 331.077C226.441 331.004 241.188 329.9 249.086 328.081C249.137 328.069 249.189 328.058 249.241 328.049C273.543 323.6 299.954 314.787 316.503 301.444C317.66 300.512 319.348 299.791 320.77 299.241C322.306 298.647 324.104 298.046 325.749 297.483C327.449 296.902 329.004 296.357 330.253 295.822C331.68 295.212 332.086 294.864 332.049 294.905C333.211 293.604 333.31 292.34 332.799 289.734C332.343 287.41 331.087 283.328 332.067 279.218C333.089 274.934 335.838 270.881 337.704 267.833C338.712 266.187 339.518 264.776 340.044 263.478C340.566 262.19 340.712 261.252 340.63 260.525C340.638 260.601 340.611 260.286 339.911 259.491C339.253 258.744 338.338 257.943 337.203 256.989C336.155 256.109 334.862 255.052 333.816 253.999C332.837 253.014 331.551 251.538 331.099 249.664C330.655 247.825 330.188 246.047 329.731 244.299C329.276 242.563 328.827 240.846 328.433 239.188C327.651 235.901 327.029 232.622 327.014 229.502C326.888 203.405 323.314 172.72 310.046 147.217C309.154 145.502 309.821 143.388 311.535 142.496ZM212.322 87.2568C246.087 87.3485 270.96 96.2814 289.088 110.591C290.605 111.788 290.865 113.99 289.667 115.507C288.469 117.024 286.268 117.283 284.751 116.085C268.048 102.9 244.75 94.3302 212.224 94.2559C212.204 94.2558 212.183 94.2543 212.163 94.2539C212.096 94.2541 212.239 94.2546 212.018 94.2549H212.009C211.781 94.2546 211.937 94.2541 211.864 94.2539C211.845 94.2543 211.825 94.2558 211.805 94.2559C179.278 94.3301 155.98 102.901 139.277 116.085C137.76 117.283 135.559 117.024 134.361 115.507C133.164 113.99 133.423 111.788 134.941 110.591C153.068 96.2816 177.941 87.3486 211.705 87.2568C211.736 87.2561 211.766 87.2539 211.797 87.2539C211.847 87.2539 211.895 87.2546 211.93 87.2549H212.098C212.133 87.2546 212.181 87.2539 212.232 87.2539C212.262 87.2539 212.292 87.2561 212.322 87.2568Z" fill="black"/>
<path d="M175.258 250.994C175.258 257.527 170.308 262.824 164.202 262.824C158.096 262.824 153.146 257.527 153.146 250.994C153.146 244.46 158.096 239.164 164.202 239.164C170.308 239.164 175.258 244.46 175.258 250.994Z" fill="#474847"/>
<path d="M271.445 250.994C271.445 257.527 266.495 262.824 260.389 262.824C254.283 262.824 249.333 257.527 249.333 250.994C249.333 244.46 254.283 239.164 260.389 239.164C266.495 239.164 271.445 244.46 271.445 250.994Z" fill="#474847"/>
<path d="M177.882 267.125C177.882 258.216 186.686 250.994 197.547 250.994C208.408 250.994 206.457 253.01 212.296 253.01C218.135 253.01 216.184 250.994 227.045 250.994C237.905 250.994 246.71 258.216 246.71 267.125C246.71 276.034 237.905 283.257 227.045 283.257C216.184 283.257 215.983 279.224 212.296 279.224C208.609 279.224 208.408 283.257 197.547 283.257C186.686 283.257 177.882 276.034 177.882 267.125Z" fill="#E9E9E9"/>
<path d="M212.74 272.232C214.929 272.313 216.633 272.988 217.93 273.681C218.516 273.995 219.076 274.346 219.396 274.543C219.775 274.777 220.033 274.934 220.304 275.08C221.021 275.467 222.617 276.256 227.045 276.256V283.256L226.058 283.245C216.168 283.008 215.868 279.224 212.296 279.224C208.609 279.224 208.408 283.256 197.547 283.256V276.256C201.974 276.256 203.571 275.467 204.288 275.08C204.558 274.934 204.817 274.777 205.195 274.543C205.516 274.346 206.075 273.995 206.662 273.681C208.046 272.941 209.891 272.224 212.296 272.224L212.74 272.232ZM239.71 267.125C239.71 263.315 235.4 257.994 227.045 257.994C222.109 257.994 220.628 258.446 219.891 258.678C218.479 259.123 216.474 260.01 212.296 260.01C208.117 260.01 206.111 259.123 204.7 258.678C203.963 258.446 202.482 257.994 197.547 257.994C189.192 257.994 184.882 263.315 184.882 267.125C184.882 270.936 189.192 276.256 197.547 276.256V283.256C186.856 283.256 178.158 276.258 177.889 267.542L177.882 267.125C177.882 258.216 186.686 250.994 197.547 250.994C208.068 250.994 206.566 252.886 211.771 253.004L212.296 253.01C218.135 253.01 216.184 250.994 227.045 250.994L227.552 250.999C238.178 251.219 246.71 258.355 246.71 267.125L246.703 267.542C246.434 276.258 237.736 283.256 227.045 283.256V276.256C235.4 276.256 239.71 270.936 239.71 267.125Z" fill="black"/>
<path d="M205.603 260.522C210.97 263.611 212.515 263.571 217.19 260.522C223.085 256.677 215.97 254.22 211.701 254.22C207.433 254.22 200.237 257.432 205.603 260.522Z" fill="#474847"/>
</svg>
