<svg width="337" height="320" viewBox="0 0 337 320" fill="none" xmlns="http://www.w3.org/2000/svg">
<path d="M182.72 45.0776H162.22C162.22 32.9109 154.92 10.1778 141.72 4.57782C125.22 -2.42212 109.72 4.57782 97.7197 26.5778C90.9197 26.1778 80.8864 34.7444 76.7197 39.0778C68.8864 37.4111 51.3197 35.8778 43.7197 43.0778C29.2197 55.0778 32.7197 93.5778 47.2197 139.578C43.6197 156.778 41.7198 181.078 41.2199 191.078L36.7199 216.078C24.0532 214.244 -0.580115 215.978 2.21989 237.578C5.71989 264.578 21.7199 260.578 41.2199 260.578C70.7199 295.078 100.22 315.078 177.72 317.078C255.22 319.078 290.72 284.578 309.22 260.578C337.22 260.078 336.72 237.578 332.22 226.078C328.62 216.878 315.387 218.578 309.22 220.578C309.22 218.078 308.32 209.278 304.72 194.078C306.22 177.578 303.22 154.578 297.72 134.578C321.22 112.578 310.72 51.0778 303.22 43.0778C295.72 35.0778 296.72 37.0778 267.22 43.0778C262.82 31.4778 251.053 24.5778 245.72 22.5778C242.553 15.9112 231.32 2.97782 211.72 4.57782C192.12 6.17782 182.553 31.2443 182.72 45.0776Z" fill="white" stroke="#A5A5A5" stroke-width="4" stroke-linecap="round" stroke-linejoin="round" stroke-dasharray="8 8"/>
<path d="M280.22 64.2333C269.329 60.4459 243.493 77.001 234.72 83.3133C223.22 101.891 260.72 139.653 272.72 131.515C290.872 119.206 293.834 68.9675 280.22 64.2333Z" fill="white"/>
<path d="M65.0396 64.2333C75.9307 60.4459 101.766 77.001 110.54 83.3133C122.04 101.891 84.5398 139.653 72.5398 131.515C54.3879 119.206 51.4258 68.9675 65.0396 64.2333Z" fill="white"/>
<path d="M172.624 66.2437C266.809 66.4598 282.351 142.252 282.608 195.785C282.661 206.816 292.109 222.396 287.219 242.983C278.532 279.562 205.682 295.303 172.422 294.202C139.161 295.303 66.3115 279.562 57.6237 242.983C52.7344 222.396 62.181 206.816 62.234 195.785C62.4914 142.252 78.0332 66.4596 172.219 66.2437V66.2417C172.286 66.2417 172.354 66.2426 172.421 66.2427C172.488 66.2426 172.556 66.2417 172.624 66.2417V66.2437Z" fill="white"/>
<path d="M268.828 61.3528C273.103 60.1841 277.619 59.6234 281.371 60.9279C284.032 61.8537 286.034 63.8054 287.498 66.0901C288.96 68.3703 290.012 71.1661 290.746 74.1858C292.214 80.228 292.545 87.7398 291.869 95.344C291.19 102.967 289.479 110.893 286.712 117.78C283.972 124.6 280.043 130.779 274.685 134.412C272.263 136.055 269.418 136.377 266.703 136.011C264.002 135.647 261.189 134.58 258.453 133.116C252.972 130.186 247.2 125.347 242.278 119.742C237.355 114.137 233.087 107.544 230.812 100.972C228.552 94.4434 228.09 87.3751 231.745 81.4709C231.986 81.0802 232.303 80.7413 232.676 80.4729C237.161 77.2461 245.978 71.4179 255.113 66.8547C259.675 64.5757 264.428 62.5552 268.828 61.3528ZM279.071 67.5393C277.377 66.9502 274.579 67.0383 270.673 68.1057C266.891 69.1393 262.595 70.9421 258.241 73.1174C249.936 77.2659 241.823 82.5635 237.373 85.7199C235.599 89.0466 235.618 93.4599 237.426 98.6819C239.323 104.161 243.023 109.983 247.537 115.123C252.052 120.264 257.187 124.501 261.753 126.943C264.04 128.165 266.036 128.858 267.638 129.074C269.226 129.288 270.178 129.01 270.756 128.618C274.473 126.098 277.722 121.381 280.217 115.171C282.685 109.029 284.267 101.791 284.896 94.7238C285.527 87.638 285.182 80.9326 283.944 75.8391C283.325 73.291 282.516 71.2887 281.605 69.8674C280.697 68.4507 279.812 67.7972 279.071 67.5393Z" fill="black"/>
<path d="M76.4332 61.3528C72.1574 60.1841 67.6416 59.6234 63.8902 60.9279C61.2286 61.8537 59.2269 63.8054 57.7623 66.0901C56.3006 68.3703 55.2491 71.1661 54.5152 74.1858C53.0469 80.228 52.7153 87.7398 53.3922 95.344C54.0708 102.967 55.7813 110.893 58.5484 117.78C61.2883 124.6 65.2173 130.779 70.5758 134.412C72.998 136.055 75.843 136.377 78.5582 136.011C81.2584 135.647 84.0715 134.58 86.8082 133.116C92.2888 130.186 98.0604 125.347 102.983 119.742C107.906 114.137 112.174 107.544 114.449 100.972C116.709 94.4434 117.171 87.3751 113.516 81.4709C113.274 81.0802 112.958 80.7413 112.585 80.4729C108.1 77.2461 99.2829 71.4179 90.1481 66.8547C85.5859 64.5757 80.8327 62.5552 76.4332 61.3528ZM66.19 67.5393C67.8841 66.9502 70.6822 67.0383 74.5875 68.1057C78.3693 69.1393 82.6655 70.9421 87.0201 73.1174C95.3248 77.2659 103.438 82.5635 107.887 85.7199C109.662 89.0466 109.642 93.4599 107.835 98.6819C105.938 104.161 102.238 109.983 97.7232 115.123C93.2085 120.264 88.0736 124.501 83.5074 126.943C81.2209 128.165 79.2251 128.858 77.6227 129.074C76.0352 129.288 75.0822 129.01 74.5045 128.618C70.7874 126.098 67.5387 121.381 65.0436 115.171C62.5756 109.029 60.994 101.791 60.3648 94.7238C59.734 87.638 60.0792 80.9326 61.317 75.8391C61.9362 73.291 62.7448 71.2887 63.6559 69.8674C64.5641 68.4507 65.4484 67.7972 66.19 67.5393Z" fill="black"/>
<path d="M130.221 207.835C130.221 213.936 125.744 218.882 120.221 218.882C114.698 218.882 110.221 213.936 110.221 207.835C110.221 201.735 114.698 196.789 120.221 196.789C125.744 196.789 130.221 201.735 130.221 207.835Z" fill="#474847"/>
<path d="M235.221 207.835C235.221 213.936 230.744 218.882 225.221 218.882C219.698 218.882 215.221 213.936 215.221 207.835C215.221 201.735 219.698 196.789 225.221 196.789C230.744 196.789 235.221 201.735 235.221 207.835Z" fill="#474847"/>
<path d="M172.624 66.2437C266.81 66.4593 282.353 142.252 282.61 195.785C282.663 206.816 292.11 222.397 287.22 242.983C278.532 279.563 205.682 295.304 172.422 294.203C139.161 295.303 66.3127 279.562 57.6247 242.983C52.7354 222.397 62.182 206.816 62.235 195.785C62.4924 142.252 78.0343 66.4596 172.22 66.2437V66.2417C172.287 66.2417 172.355 66.2426 172.422 66.2427C172.489 66.2426 172.556 66.2417 172.624 66.2417V66.2437Z" fill="white"/>
<path d="M124.22 289.176C124.62 228.12 81.3861 206.831 59.7195 203.818C54.7195 211.517 52.3275 237.459 56.2194 245.493C65.2195 264.071 76.2195 274.113 124.22 289.176Z" fill="#FFCACC"/>
<path d="M216.287 289.176C215.887 228.12 259.121 206.831 280.787 203.818C285.787 211.517 288.179 237.459 284.287 245.493C275.287 264.071 264.287 274.113 216.287 289.176Z" fill="#FFCACC"/>
<path d="M264.853 114.349C266.569 113.46 268.682 114.13 269.571 115.846C282.634 141.061 285.99 170.977 286.109 195.768C286.12 198.086 286.631 200.789 287.438 204.085C288.204 207.211 289.303 211.108 290.182 215.036C291.997 223.141 293.242 232.773 290.625 243.792C287.155 258.402 274.654 269.496 259.481 277.606C244.22 285.763 225.544 291.291 208.345 294.46C189.563 298.949 158.877 298.577 136.586 294.478C119.362 291.311 100.648 285.777 85.361 277.606C70.1885 269.496 57.6886 258.402 54.2185 243.792C51.6014 232.773 52.8451 223.141 54.6599 215.036C55.5394 211.108 56.6383 207.211 57.404 204.085C58.2116 200.789 58.7229 198.086 58.7341 195.768C58.8533 170.977 62.2084 141.061 75.2712 115.846C76.1605 114.13 78.2727 113.46 79.989 114.349C81.705 115.238 82.3752 117.351 81.486 119.067C69.1731 142.834 65.8512 171.446 65.7341 195.801C65.7187 198.998 65.0286 202.381 64.2028 205.751C63.3353 209.293 62.3685 212.646 61.4909 216.565C59.7915 224.155 58.7568 232.607 61.029 242.174C63.8002 253.841 74.0967 263.648 88.6609 271.432C103.111 279.155 121.075 284.509 137.852 287.593C159.524 291.578 189.243 291.854 206.805 287.633L206.991 287.593C223.769 284.509 241.732 279.155 256.181 271.432C270.746 263.648 281.043 253.841 283.814 242.174C286.086 232.607 285.052 224.155 283.352 216.565C282.475 212.646 281.507 209.293 280.639 205.751C279.814 202.381 279.124 198.998 279.109 195.801C278.992 171.446 275.669 142.834 263.356 119.067C262.467 117.351 263.137 115.238 264.853 114.349ZM172.716 62.7446C204.156 62.8316 227.341 71.1866 244.247 84.5874C245.761 85.7882 246.016 87.9897 244.815 89.5044C243.614 91.0192 241.413 91.2735 239.898 90.0728C224.418 77.8016 202.812 69.813 172.615 69.7437C172.595 69.7436 172.575 69.7421 172.555 69.7417C172.497 69.7419 172.64 69.7424 172.425 69.7427H172.417C172.195 69.7424 172.349 69.7419 172.287 69.7417C172.267 69.7421 172.247 69.7436 172.227 69.7437C142.03 69.8129 120.425 77.8016 104.944 90.0728C103.429 91.2734 101.228 91.0192 100.027 89.5044C98.8264 87.9896 99.0816 85.7881 100.596 84.5874C117.502 71.1868 140.686 62.8317 172.126 62.7446C172.157 62.7438 172.188 62.7417 172.219 62.7417C172.267 62.7417 172.312 62.7424 172.344 62.7427H172.498C172.531 62.7424 172.576 62.7417 172.624 62.7417C172.654 62.7417 172.685 62.7438 172.716 62.7446Z" fill="black"/>
<path d="M61.808 226.726C70.8432 222.743 80.0762 222.781 87.8158 224.351C95.5274 225.915 101.981 229.04 105.684 231.55C107.284 232.635 107.702 234.811 106.618 236.411C105.533 238.011 103.356 238.429 101.756 237.344C98.7923 235.335 93.1958 232.585 86.4242 231.211C79.6806 229.844 71.9968 229.884 64.6322 233.13C54.424 237.631 46.0516 241.137 39.3695 242.913C32.8248 244.653 26.8275 245.041 22.222 241.839C20.6352 240.736 20.2429 238.555 21.3461 236.968C22.4495 235.381 24.631 234.989 26.2181 236.092C28.1127 237.409 31.3655 237.797 37.5707 236.148C43.6385 234.535 51.5164 231.263 61.808 226.726Z" fill="black"/>
<path d="M276.131 226.726C267.096 222.743 257.863 222.781 250.124 224.351C242.412 225.915 235.958 229.04 232.256 231.55C230.656 232.635 230.238 234.811 231.322 236.411C232.406 238.011 234.583 238.429 236.183 237.344C239.147 235.335 244.744 232.585 251.515 231.211C258.259 229.844 265.943 229.884 273.307 233.13C283.515 237.631 291.888 241.137 298.57 242.913C305.115 244.653 311.112 245.041 315.717 241.839C317.304 240.736 317.697 238.555 316.593 236.968C315.49 235.381 313.308 234.989 311.721 236.092C309.827 237.409 306.574 237.797 300.369 236.148C294.301 234.535 286.423 231.263 276.131 226.726Z" fill="black"/>
<path d="M128.398 27.0776C145.177 27.0776 144.478 70.1471 141.682 85.1177C133.292 92.7182 120.708 94.1001 113.018 85.1177V66.462C106.726 66.462 96.9378 65.771 96.2387 56.0977C95.6794 48.359 107.658 45.5031 113.018 45.7334C112.552 40.2058 114.975 27.0776 128.398 27.0776Z" fill="#F9E0B9"/>
<path d="M128.399 23.5776C134.431 23.5776 138.488 27.5608 141.042 32.4097C143.582 37.2312 145.048 43.5709 145.855 50.0513C147.473 63.0551 146.585 77.9277 145.122 85.7603C144.982 86.5124 144.598 87.1977 144.031 87.7114C134.683 96.1804 119.733 98.342 110.359 87.394C109.817 86.7599 109.518 85.9525 109.518 85.1177V69.8647C106.888 69.7004 103.896 69.2665 101.187 68.1392C99.1156 67.2773 97.0845 65.9625 95.5138 63.9536C93.9246 61.9211 92.9673 59.3818 92.7481 56.3501C92.3053 50.2222 96.9515 46.5842 100.946 44.7476C103.716 43.4743 106.832 42.7174 109.552 42.3989C109.804 39.416 110.635 35.8568 112.446 32.6226C115.214 27.6821 120.27 23.5776 128.399 23.5776ZM128.399 30.5776C123.104 30.5776 120.236 33.038 118.553 36.0435C116.738 39.2835 116.318 43.2168 116.505 45.439C116.589 46.441 116.239 47.4312 115.543 48.1567C114.847 48.8823 113.872 49.2731 112.867 49.23C110.715 49.1376 106.936 49.6974 103.87 51.1069C100.676 52.5754 99.6133 54.2347 99.7296 55.8452C99.86 57.6499 100.388 58.8245 101.027 59.6421C101.685 60.4832 102.625 61.1562 103.875 61.6763C106.493 62.7655 109.886 62.9624 113.018 62.9624C114.951 62.9624 116.518 64.5294 116.518 66.4624V83.7466C122.354 89.5429 131.454 89.007 138.447 83.2837C139.658 75.8442 140.355 62.5394 138.908 50.9155C138.142 44.7574 136.81 39.3941 134.85 35.6724C132.904 31.9781 130.755 30.5776 128.399 30.5776Z" fill="black"/>
<path d="M142.72 53.2017C144.653 53.2017 146.22 54.7687 146.22 56.7017C146.22 58.6347 144.653 60.2017 142.72 60.2017H129.22C127.287 60.2017 125.72 58.6347 125.72 56.7017C125.72 54.7687 127.287 53.2017 129.22 53.2017H142.72Z" fill="black"/>
<path d="M142.72 67.7627C144.653 67.7627 146.22 69.3297 146.22 71.2627C146.22 73.1957 144.653 74.7627 142.72 74.7627H131.22C129.287 74.7627 127.72 73.1957 127.72 71.2627C127.72 69.3297 129.287 67.7627 131.22 67.7627H142.72Z" fill="black"/>
<path d="M219.041 29.0859C202.262 29.0859 202.961 72.1554 205.758 87.126C214.147 94.7265 226.731 96.1084 234.422 87.126V68.4703C240.714 68.4703 250.502 67.7793 251.201 58.106C251.76 50.3673 239.782 47.5114 234.422 47.7417C234.888 42.2141 232.464 29.0859 219.041 29.0859Z" fill="#F9E0B9"/>
<path d="M219.041 25.5859C213.008 25.5859 208.952 29.5691 206.397 34.418C203.857 39.2395 202.391 45.5792 201.585 52.0596C199.966 65.0634 200.854 79.936 202.317 87.7686C202.458 88.5207 202.841 89.206 203.408 89.7197C212.756 98.1887 227.707 100.35 237.08 89.4023C237.623 88.7682 237.922 87.9608 237.922 87.126V71.873C240.552 71.7087 243.544 71.2748 246.253 70.1475C248.324 69.2856 250.355 67.9708 251.926 65.9619C253.515 63.9294 254.472 61.3901 254.691 58.3584C255.134 52.2305 250.488 48.5925 246.493 46.7559C243.723 45.4826 240.607 44.7257 237.888 44.4072C237.636 41.4243 236.805 37.8651 234.993 34.6309C232.226 29.6904 227.169 25.5859 219.041 25.5859ZM219.041 32.5859C224.336 32.5859 227.203 35.0463 228.887 38.0518C230.701 41.2918 231.122 45.2251 230.934 47.4473C230.85 48.4493 231.2 49.4395 231.896 50.165C232.593 50.8906 233.568 51.2815 234.572 51.2383C236.724 51.1459 240.503 51.7057 243.569 53.1152C246.763 54.5837 247.826 56.243 247.71 57.8535C247.579 59.6582 247.051 60.8328 246.412 61.6504C245.754 62.4915 244.814 63.1645 243.564 63.6846C240.947 64.7738 237.554 64.9707 234.422 64.9707C232.489 64.9707 230.922 66.5377 230.922 68.4707V85.7549C225.085 91.5512 215.986 91.0153 208.992 85.292C207.782 77.8525 207.084 64.5477 208.531 52.9238C209.298 46.7657 210.629 41.4024 212.59 37.6807C214.536 33.9864 216.684 32.5859 219.041 32.5859Z" fill="black"/>
<path d="M206.22 53.2017C204.287 53.2017 202.72 54.7687 202.72 56.7017C202.72 58.6347 204.287 60.2017 206.22 60.2017H219.72C221.653 60.2017 223.22 58.6347 223.22 56.7017C223.22 54.7687 221.653 53.2017 219.72 53.2017H206.22Z" fill="black"/>
<path d="M206.22 67.7627C204.287 67.7627 202.72 69.3297 202.72 71.2627C202.72 73.1957 204.287 74.7627 206.22 74.7627H217.72C219.653 74.7627 221.22 73.1957 221.22 71.2627C221.22 69.3297 219.653 67.7627 217.72 67.7627H206.22Z" fill="black"/>
<path d="M138.78 210.848C138.78 216.949 134.178 221.894 128.5 221.894C122.822 221.894 118.22 216.949 118.22 210.848C118.22 204.747 122.822 199.802 128.5 199.802C134.178 199.802 138.78 204.747 138.78 210.848Z" fill="#474847"/>
<path d="M228.22 210.848C228.22 216.949 223.617 221.894 217.94 221.894C212.262 221.894 207.659 216.949 207.659 210.848C207.659 204.747 212.262 199.802 217.94 199.802C223.617 199.802 228.22 204.747 228.22 210.848Z" fill="#474847"/>
<path d="M152.304 221.014C154.121 220.549 155.97 221.599 156.516 223.372C156.524 223.39 156.541 223.428 156.571 223.482C156.657 223.636 156.852 223.931 157.236 224.261C157.951 224.874 159.695 225.927 163.582 225.927C167.469 225.926 169.213 224.874 169.928 224.261C170.311 223.931 170.505 223.636 170.592 223.482C170.628 223.418 170.645 223.375 170.65 223.364C171.061 222.043 172.216 221.082 173.601 220.927C175.042 220.766 176.432 221.509 177.098 222.796C177.096 222.792 177.094 222.788 177.093 222.784C177.088 222.776 177.085 222.769 177.082 222.763C177.076 222.752 177.072 222.745 177.07 222.742C177.072 222.745 177.078 222.755 177.087 222.769C177.116 222.816 177.181 222.915 177.285 223.051C177.495 223.322 177.855 223.728 178.397 224.147C179.437 224.952 181.293 225.927 184.399 225.927C187.505 225.927 189.361 224.952 190.401 224.147C190.943 223.728 191.304 223.322 191.513 223.051C191.618 222.915 191.684 222.816 191.713 222.769C191.722 222.755 191.726 222.745 191.728 222.742C191.727 222.745 191.723 222.752 191.717 222.763C191.714 222.769 191.711 222.775 191.708 222.782C192.597 221.082 194.692 220.414 196.403 221.29C198.124 222.171 198.804 224.279 197.924 226L194.808 224.405C197.924 226 197.923 226.002 197.922 226.004L197.916 226.015C197.913 226.021 197.909 226.028 197.906 226.034C197.899 226.046 197.892 226.06 197.884 226.075C197.867 226.105 197.848 226.141 197.826 226.18C197.781 226.26 197.723 226.358 197.652 226.472C197.51 226.7 197.313 226.994 197.054 227.329C196.537 227.999 195.766 228.848 194.685 229.683C192.481 231.389 189.132 232.927 184.399 232.927C179.753 232.927 176.443 231.443 174.237 229.775C172.02 231.57 168.626 232.926 163.582 232.927C158.345 232.927 154.885 231.468 152.676 229.571C151.598 228.646 150.901 227.684 150.461 226.897C150.242 226.506 150.087 226.158 149.98 225.881C149.927 225.742 149.885 225.619 149.852 225.517C149.836 225.467 149.823 225.42 149.811 225.38C149.805 225.359 149.8 225.34 149.795 225.322C149.792 225.313 149.79 225.305 149.788 225.297C149.787 225.293 149.786 225.288 149.785 225.284C149.784 225.282 149.783 225.279 149.783 225.278C149.785 225.275 149.874 225.249 153.173 224.405L149.782 225.273C149.303 223.401 150.432 221.494 152.304 221.014ZM170.637 223.405C170.632 223.419 170.627 223.438 170.621 223.46C170.618 223.47 170.615 223.482 170.611 223.495C170.609 223.501 170.607 223.508 170.605 223.515C170.604 223.519 170.603 223.523 170.602 223.526C170.617 223.471 170.634 223.418 170.651 223.364C170.649 223.37 170.644 223.383 170.637 223.405ZM156.557 223.515C156.556 223.508 156.554 223.501 156.553 223.495C156.549 223.482 156.546 223.47 156.543 223.46C156.537 223.438 156.531 223.419 156.526 223.405C156.524 223.399 156.523 223.394 156.521 223.389C156.534 223.431 156.546 223.473 156.557 223.515Z" fill="black"/>
</svg>
