<svg width="420" height="420" viewBox="0 0 420 420" fill="none" xmlns="http://www.w3.org/2000/svg">
<path d="M224.72 95.1094H204.22C204.22 82.9427 196.92 60.2095 183.72 54.6096C167.22 47.6096 151.72 54.6096 139.72 76.6095C132.92 76.2095 122.886 84.7762 118.72 89.1095C110.886 87.4428 93.3197 85.9095 85.7197 93.1095C71.2197 105.109 74.7197 143.609 89.2197 189.609C85.6197 206.809 83.7198 231.109 83.2199 241.109L78.7199 266.109C66.0532 264.276 41.4199 266.009 44.2199 287.609C47.7199 314.609 63.7199 310.609 83.2199 310.609C112.72 345.109 142.22 365.109 219.72 367.109C297.22 369.109 332.72 334.609 351.22 310.609C379.22 310.109 378.72 287.609 374.22 276.109C370.62 266.91 357.387 268.609 351.22 270.609C351.22 268.109 350.32 259.309 346.72 244.109C348.22 227.609 345.22 204.609 339.72 184.609C363.22 162.609 352.72 101.109 345.22 93.1095C337.72 85.1095 338.72 87.1095 309.22 93.1095C304.82 81.5095 293.053 74.6095 287.72 72.6096C284.553 65.9429 273.32 53.0096 253.72 54.6096C234.12 56.2096 224.553 81.276 224.72 95.1094Z" fill="white" stroke="#A5A5A5" stroke-width="4" stroke-linecap="round" stroke-linejoin="round" stroke-dasharray="8 8"/>
<path d="M322.22 114.265C311.329 110.478 285.493 127.033 276.72 133.345C265.22 151.923 302.72 189.684 314.72 181.547C332.872 169.238 335.834 118.999 322.22 114.265Z" fill="white"/>
<path d="M107.04 114.265C117.931 110.478 143.766 127.033 152.54 133.345C164.04 151.923 126.54 189.684 114.54 181.547C96.3879 169.238 93.4258 118.999 107.04 114.265Z" fill="white"/>
<path d="M214.625 116.275C308.81 116.492 324.352 192.284 324.609 245.817C324.662 256.847 334.11 272.428 329.22 293.014C320.533 329.594 247.683 345.335 214.423 344.234C181.162 345.335 108.313 329.594 99.6247 293.014C94.7354 272.428 104.182 256.847 104.235 245.817C104.492 192.284 120.034 116.491 214.22 116.275V116.273C214.287 116.273 214.355 116.274 214.422 116.274C214.489 116.274 214.557 116.273 214.625 116.273V116.275Z" fill="white"/>
<path d="M310.828 111.384C315.103 110.216 319.619 109.655 323.371 110.96C326.032 111.885 328.034 113.837 329.498 116.122C330.96 118.402 332.012 121.198 332.746 124.217C334.214 130.26 334.545 137.772 333.869 145.376C333.19 152.998 331.479 160.925 328.712 167.812C325.972 174.631 322.043 180.81 316.685 184.444C314.263 186.087 311.418 186.409 308.703 186.043C306.002 185.679 303.189 184.612 300.453 183.148C294.972 180.218 289.2 175.379 284.278 169.774C279.355 164.169 275.087 157.575 272.812 151.004C270.552 144.475 270.09 137.407 273.745 131.503C273.986 131.112 274.303 130.773 274.676 130.505C279.161 127.278 287.978 121.45 297.113 116.886C301.675 114.607 306.428 112.587 310.828 111.384ZM321.071 117.571C319.377 116.982 316.579 117.07 312.673 118.137C308.891 119.171 304.595 120.974 300.241 123.149C291.936 127.298 283.823 132.595 279.373 135.752C277.599 139.078 277.618 143.492 279.426 148.714C281.323 154.193 285.023 160.015 289.537 165.155C294.052 170.295 299.187 174.533 303.753 176.974C306.04 178.197 308.036 178.89 309.638 179.106C311.226 179.32 312.178 179.042 312.756 178.65C316.473 176.129 319.722 171.413 322.217 165.203C324.685 159.06 326.267 151.823 326.896 144.756C327.527 137.67 327.182 130.964 325.944 125.871C325.325 123.323 324.516 121.32 323.605 119.899C322.697 118.482 321.812 117.829 321.071 117.571Z" fill="black"/>
<path d="M118.433 111.384C114.157 110.216 109.642 109.655 105.89 110.96C103.229 111.885 101.227 113.837 99.7623 116.122C98.3006 118.402 97.2491 121.198 96.5152 124.217C95.0469 130.26 94.7153 137.772 95.3922 145.376C96.0708 152.998 97.7813 160.925 100.548 167.812C103.288 174.631 107.217 180.81 112.576 184.444C114.998 186.087 117.843 186.409 120.558 186.043C123.258 185.679 126.072 184.612 128.808 183.148C134.289 180.218 140.06 175.379 144.983 169.774C149.906 164.169 154.174 157.575 156.449 151.004C158.709 144.475 159.171 137.407 155.516 131.503C155.274 131.112 154.958 130.773 154.585 130.505C150.1 127.278 141.283 121.45 132.148 116.886C127.586 114.607 122.833 112.587 118.433 111.384ZM108.19 117.571C109.884 116.982 112.682 117.07 116.588 118.137C120.369 119.171 124.665 120.974 129.02 123.149C137.325 127.298 145.438 132.595 149.887 135.752C151.662 139.078 151.642 143.492 149.835 148.714C147.938 154.193 144.238 160.015 139.723 165.155C135.208 170.295 130.074 174.533 125.507 176.974C123.221 178.197 121.225 178.89 119.623 179.106C118.035 179.32 117.082 179.042 116.504 178.65C112.787 176.129 109.539 171.413 107.044 165.203C104.576 159.06 102.994 151.823 102.365 144.756C101.734 137.67 102.079 130.964 103.317 125.871C103.936 123.323 104.745 121.32 105.656 119.899C106.564 118.482 107.448 117.829 108.19 117.571Z" fill="black"/>
<path d="M172.221 257.867C172.221 263.968 167.744 268.913 162.221 268.913C156.698 268.913 152.221 263.968 152.221 257.867C152.221 251.766 156.698 246.821 162.221 246.821C167.744 246.821 172.221 251.766 172.221 257.867Z" fill="#474847"/>
<path d="M277.221 257.867C277.221 263.968 272.744 268.913 267.221 268.913C261.698 268.913 257.221 263.968 257.221 257.867C257.221 251.766 261.698 246.821 267.221 246.821C272.744 246.821 277.221 251.766 277.221 257.867Z" fill="#474847"/>
<path d="M214.624 116.275C308.81 116.491 324.353 192.284 324.61 245.816C324.663 256.847 334.11 272.428 329.22 293.015C320.532 329.594 247.682 345.336 214.422 344.234C181.161 345.335 108.313 329.594 99.6247 293.015C94.7354 272.428 104.182 256.847 104.235 245.816C104.492 192.284 120.034 116.491 214.22 116.275V116.273C214.287 116.273 214.355 116.274 214.422 116.274C214.489 116.274 214.556 116.273 214.624 116.273V116.275Z" fill="white"/>
<path d="M166.22 339.208C166.62 278.152 123.386 256.863 101.719 253.85C96.7195 261.549 94.3275 287.491 98.2194 295.525C107.219 314.103 118.219 324.145 166.22 339.208Z" fill="#FFCACC"/>
<path d="M258.287 339.208C257.887 278.152 301.121 256.863 322.787 253.85C327.787 261.549 330.179 287.491 326.287 295.525C317.287 314.103 306.287 324.145 258.287 339.208Z" fill="#FFCACC"/>
<path d="M306.853 164.381C308.569 163.492 310.682 164.162 311.571 165.878C324.634 191.092 327.99 221.009 328.109 245.8C328.12 248.118 328.631 250.821 329.438 254.117C330.204 257.243 331.303 261.139 332.182 265.067C333.997 273.172 335.242 282.804 332.625 293.823C329.155 308.434 316.654 319.528 301.481 327.638C286.22 335.795 267.544 341.323 250.345 344.492C231.563 348.98 200.877 348.608 178.586 344.51C161.362 341.343 142.648 335.809 127.361 327.638C112.189 319.528 99.6886 308.434 96.2185 293.823C93.6014 282.804 94.8451 273.172 96.6599 265.067C97.5394 261.139 98.6383 257.243 99.404 254.117C100.212 250.821 100.723 248.118 100.734 245.8C100.853 221.009 104.208 191.092 117.271 165.878C118.16 164.162 120.273 163.492 121.989 164.381C123.705 165.27 124.375 167.382 123.486 169.099C111.173 192.866 107.851 221.477 107.734 245.833C107.719 249.03 107.029 252.413 106.203 255.783C105.335 259.324 104.368 262.678 103.491 266.597C101.791 274.186 100.757 282.639 103.029 292.206C105.8 303.873 116.097 313.679 130.661 321.464C145.111 329.187 163.075 334.54 179.852 337.625C201.524 341.609 231.243 341.886 248.805 337.665L248.991 337.625C265.769 334.54 283.732 329.187 298.181 321.464C312.746 313.679 323.043 303.873 325.814 292.206C328.086 282.639 327.052 274.186 325.352 266.597C324.475 262.678 323.507 259.324 322.639 255.783C321.814 252.413 321.124 249.03 321.109 245.833C320.992 221.477 317.669 192.866 305.356 169.099C304.467 167.382 305.137 165.27 306.853 164.381ZM214.716 112.776C246.156 112.863 269.341 121.218 286.247 134.619C287.761 135.82 288.016 138.021 286.815 139.536C285.614 141.051 283.413 141.305 281.898 140.104C266.418 127.833 244.812 119.845 214.615 119.775C214.595 119.775 214.575 119.774 214.555 119.773C214.497 119.774 214.64 119.774 214.425 119.774H214.417C214.195 119.774 214.349 119.774 214.287 119.773C214.267 119.774 214.247 119.775 214.227 119.775C184.03 119.845 162.425 127.833 146.944 140.104C145.429 141.305 143.228 141.051 142.027 139.536C140.826 138.021 141.082 135.82 142.596 134.619C159.502 121.219 182.686 112.863 214.126 112.776C214.157 112.776 214.188 112.773 214.219 112.773C214.267 112.773 214.312 112.774 214.344 112.774H214.498C214.531 112.774 214.576 112.773 214.624 112.773C214.654 112.773 214.685 112.776 214.716 112.776Z" fill="black"/>
<path d="M103.808 276.758C112.843 272.774 122.076 272.813 129.816 274.383C137.527 275.947 143.981 279.072 147.684 281.582C149.284 282.666 149.702 284.842 148.618 286.442C147.533 288.042 145.356 288.46 143.756 287.376C140.792 285.367 135.196 282.616 128.424 281.243C121.681 279.875 113.997 279.915 106.632 283.162C96.424 287.663 88.0516 291.169 81.3695 292.945C74.8248 294.685 68.8275 295.073 64.222 291.871C62.6352 290.768 62.2429 288.587 63.3461 287C64.4495 285.413 66.631 285.021 68.2181 286.124C70.1127 287.441 73.3655 287.829 79.5707 286.18C85.6385 284.567 93.5164 281.295 103.808 276.758Z" fill="black"/>
<path d="M318.131 276.758C309.096 272.774 299.863 272.813 292.124 274.383C284.412 275.947 277.958 279.072 274.256 281.582C272.656 282.666 272.238 284.842 273.322 286.442C274.406 288.042 276.583 288.46 278.183 287.376C281.147 285.367 286.744 282.616 293.515 281.243C300.259 279.875 307.943 279.915 315.307 283.162C325.515 287.663 333.888 291.169 340.57 292.945C347.115 294.685 353.112 295.073 357.717 291.871C359.304 290.768 359.697 288.587 358.593 287C357.49 285.413 355.308 285.021 353.721 286.124C351.827 287.441 348.574 287.829 342.369 286.18C336.301 284.567 328.423 281.295 318.131 276.758Z" fill="black"/>
<path d="M170.398 77.1094C187.177 77.1094 186.478 120.179 183.682 135.149C175.292 142.75 162.708 144.132 155.018 135.149V116.494C148.726 116.494 138.938 115.803 138.239 106.129C137.679 98.3907 149.658 95.5348 155.018 95.7651C154.552 90.2375 156.975 77.1094 170.398 77.1094Z" fill="#F9E0B9"/>
<path d="M170.399 73.6094C176.431 73.6094 180.488 77.5925 183.042 82.4414C185.582 87.2629 187.048 93.6027 187.855 100.083C189.473 113.087 188.585 127.959 187.122 135.792C186.982 136.544 186.598 137.229 186.031 137.743C176.683 146.212 161.733 148.374 152.359 137.426C151.817 136.792 151.518 135.984 151.518 135.149V119.896C148.888 119.732 145.896 119.298 143.187 118.171C141.116 117.309 139.085 115.994 137.514 113.985C135.925 111.953 134.967 109.414 134.748 106.382C134.305 100.254 138.952 96.6159 142.946 94.7793C145.716 93.506 148.832 92.7491 151.552 92.4307C151.804 89.4477 152.635 85.8885 154.446 82.6543C157.214 77.7138 162.27 73.6094 170.399 73.6094ZM170.399 80.6094C165.104 80.6094 162.236 83.0697 160.553 86.0752C158.738 89.3152 158.318 93.2485 158.505 95.4707C158.589 96.4727 158.239 97.463 157.543 98.1885C156.847 98.914 155.872 99.3049 154.867 99.2617C152.715 99.1693 148.936 99.7291 145.87 101.139C142.676 102.607 141.613 104.266 141.73 105.877C141.86 107.682 142.388 108.856 143.027 109.674C143.685 110.515 144.625 111.188 145.875 111.708C148.493 112.797 151.886 112.994 155.018 112.994C156.951 112.994 158.518 114.561 158.518 116.494V133.778C164.354 139.575 173.454 139.039 180.447 133.315C181.658 125.876 182.355 112.571 180.908 100.947C180.142 94.7891 178.81 89.4258 176.85 85.7041C174.904 82.0098 172.755 80.6094 170.399 80.6094Z" fill="black"/>
<path d="M184.72 103.233C186.653 103.233 188.22 104.8 188.22 106.733C188.22 108.666 186.653 110.233 184.72 110.233H171.22C169.287 110.233 167.72 108.666 167.72 106.733C167.72 104.8 169.287 103.233 171.22 103.233H184.72Z" fill="black"/>
<path d="M184.72 117.794C186.653 117.794 188.22 119.361 188.22 121.294C188.22 123.227 186.653 124.794 184.72 124.794H173.22C171.287 124.794 169.72 123.227 169.72 121.294C169.72 119.361 171.287 117.794 173.22 117.794H184.72Z" fill="black"/>
<path d="M261.041 79.1177C244.262 79.1177 244.961 122.187 247.758 137.158C256.147 144.758 268.731 146.14 276.422 137.158V118.502C282.714 118.502 292.502 117.811 293.201 108.138C293.76 100.399 281.782 97.5431 276.422 97.7734C276.888 92.2458 274.464 79.1177 261.041 79.1177Z" fill="#F9E0B9"/>
<path d="M261.041 75.6177C255.008 75.6177 250.952 79.6008 248.397 84.4497C245.857 89.2712 244.391 95.611 243.585 102.091C241.966 115.095 242.854 129.968 244.317 137.8C244.458 138.552 244.841 139.238 245.408 139.751C254.756 148.22 269.707 150.382 279.08 139.434C279.623 138.8 279.922 137.993 279.922 137.158V121.905C282.552 121.74 285.544 121.306 288.253 120.179C290.324 119.317 292.355 118.003 293.926 115.994C295.515 113.961 296.472 111.422 296.691 108.39C297.134 102.262 292.488 98.6242 288.493 96.7876C285.723 95.5143 282.607 94.7574 279.888 94.439C279.636 91.456 278.805 87.8968 276.993 84.6626C274.226 79.7221 269.169 75.6177 261.041 75.6177ZM261.041 82.6177C266.336 82.6177 269.203 85.078 270.887 88.0835C272.701 91.3235 273.122 95.2568 272.934 97.479C272.85 98.481 273.2 99.4713 273.896 100.197C274.593 100.922 275.568 101.313 276.572 101.27C278.724 101.178 282.503 101.737 285.569 103.147C288.763 104.615 289.826 106.275 289.71 107.885C289.579 109.69 289.051 110.864 288.412 111.682C287.754 112.523 286.814 113.196 285.564 113.716C282.947 114.806 279.554 115.002 276.422 115.002C274.489 115.002 272.922 116.569 272.922 118.502V135.787C267.085 141.583 257.986 141.047 250.992 135.324C249.782 127.884 249.084 114.579 250.531 102.956C251.298 96.7974 252.629 91.4341 254.59 87.7124C256.536 84.0181 258.684 82.6177 261.041 82.6177Z" fill="black"/>
<path d="M248.22 103.233C246.287 103.233 244.72 104.8 244.72 106.733C244.72 108.666 246.287 110.233 248.22 110.233H261.72C263.653 110.233 265.22 108.666 265.22 106.733C265.22 104.8 263.653 103.233 261.72 103.233H248.22Z" fill="black"/>
<path d="M248.22 117.794C246.287 117.794 244.72 119.361 244.72 121.294C244.72 123.227 246.287 124.794 248.22 124.794H259.72C261.653 124.794 263.22 123.227 263.22 121.294C263.22 119.361 261.653 117.794 259.72 117.794H248.22Z" fill="black"/>
<path d="M180.78 260.88C180.78 266.981 176.178 271.926 170.5 271.926C164.822 271.926 160.22 266.981 160.22 260.88C160.22 254.779 164.822 249.833 170.5 249.833C176.178 249.833 180.78 254.779 180.78 260.88Z" fill="#474847"/>
<path d="M270.22 260.88C270.22 266.981 265.617 271.926 259.94 271.926C254.262 271.926 249.659 266.981 249.659 260.88C249.659 254.779 254.262 249.833 259.94 249.833C265.617 249.833 270.22 254.779 270.22 260.88Z" fill="#474847"/>
<path d="M194.304 271.046C196.121 270.581 197.97 271.631 198.516 273.404C198.524 273.421 198.541 273.46 198.571 273.514C198.657 273.668 198.852 273.963 199.236 274.292C199.951 274.906 201.695 275.958 205.582 275.958C209.469 275.958 211.213 274.906 211.928 274.292C212.311 273.963 212.505 273.668 212.592 273.514C212.628 273.449 212.645 273.407 212.65 273.396C213.061 272.075 214.216 271.113 215.601 270.958C217.042 270.797 218.432 271.541 219.098 272.827C219.096 272.823 219.094 272.819 219.093 272.816C219.088 272.808 219.085 272.801 219.082 272.795C219.076 272.784 219.072 272.777 219.07 272.774C219.072 272.777 219.078 272.787 219.087 272.801C219.116 272.848 219.181 272.947 219.285 273.082C219.495 273.354 219.855 273.76 220.397 274.179C221.437 274.984 223.293 275.958 226.399 275.958C229.505 275.958 231.361 274.984 232.401 274.179C232.943 273.76 233.304 273.354 233.513 273.082C233.618 272.947 233.684 272.848 233.713 272.801C233.722 272.787 233.726 272.777 233.728 272.774C233.727 272.777 233.723 272.784 233.717 272.795C233.714 272.8 233.711 272.807 233.708 272.814C234.597 271.114 236.692 270.446 238.403 271.322C240.124 272.202 240.804 274.311 239.924 276.032L236.808 274.437C239.924 276.031 239.923 276.033 239.922 276.035L239.916 276.047C239.913 276.053 239.909 276.059 239.906 276.066C239.899 276.078 239.892 276.092 239.884 276.107C239.867 276.137 239.848 276.172 239.826 276.212C239.781 276.292 239.723 276.39 239.652 276.504C239.51 276.732 239.313 277.025 239.054 277.361C238.537 278.03 237.766 278.879 236.685 279.715C234.481 281.421 231.132 282.958 226.399 282.958C221.753 282.958 218.443 281.475 216.237 279.807C214.02 281.602 210.626 282.958 205.582 282.958C200.345 282.958 196.885 281.5 194.676 279.603C193.598 278.677 192.901 277.716 192.461 276.929C192.242 276.537 192.087 276.19 191.98 275.912C191.927 275.774 191.885 275.651 191.852 275.549C191.836 275.498 191.823 275.452 191.811 275.411C191.805 275.391 191.8 275.372 191.795 275.354C191.792 275.345 191.79 275.337 191.788 275.328C191.787 275.324 191.786 275.32 191.785 275.316C191.784 275.314 191.783 275.311 191.783 275.31C191.785 275.306 191.874 275.281 195.173 274.437L191.782 275.305C191.303 273.432 192.432 271.526 194.304 271.046ZM212.637 273.437C212.632 273.451 212.627 273.47 212.621 273.491C212.618 273.502 212.615 273.514 212.611 273.527C212.609 273.533 212.607 273.54 212.605 273.547C212.604 273.551 212.603 273.554 212.602 273.558C212.617 273.503 212.634 273.449 212.651 273.396C212.649 273.401 212.644 273.414 212.637 273.437ZM198.557 273.547C198.556 273.54 198.554 273.533 198.553 273.527C198.549 273.514 198.546 273.502 198.543 273.491C198.537 273.47 198.531 273.451 198.526 273.437C198.524 273.431 198.523 273.426 198.521 273.421C198.534 273.463 198.546 273.505 198.557 273.547Z" fill="black"/>
</svg>
