<svg width="419" height="333" viewBox="0 0 419 333" fill="none" xmlns="http://www.w3.org/2000/svg">
<path d="M239.213 52.8299C217.613 40.0299 186.88 47.4966 174.213 52.8299C154.713 14.33 62.2131 -30.1702 14.7128 56.3298C-24.3684 142.391 35.2129 193.33 72.2132 193.33C69.7132 202.663 64.1132 224.53 61.7132 237.33C58.7132 253.33 48.7132 328.83 209.713 330.83C338.513 332.43 363.713 265.83 356.213 237.33L343.213 196.83C349.88 198.497 368.713 195.63 390.713 170.83C425.213 134.83 431.879 56.3298 370.213 18.83C296.213 -26.17 252.713 30.8299 239.213 52.8299Z" fill="white" stroke="#A5A5A5" stroke-width="4" stroke-linecap="round" stroke-linejoin="round" stroke-dasharray="8 8"/>
<path d="M51.7375 55.1785C64.5237 40.185 113.31 21.4801 143.22 50.9531C186.293 93.3978 164.08 142.308 152.633 154.203L152.641 154.211C152.575 154.276 152.504 154.34 152.435 154.406C152.368 154.474 152.304 154.544 152.237 154.609L152.229 154.601C140.157 165.881 90.5231 187.77 47.4496 145.325C17.5398 115.852 36.5219 67.778 51.7375 55.1785Z" fill="white"/>
<path d="M366.688 55.3252C381.793 68.0181 400.637 116.448 370.945 146.14C328.186 188.899 278.914 166.848 266.93 155.484L266.922 155.492C266.856 155.426 266.793 155.356 266.726 155.288C266.657 155.221 266.587 155.157 266.521 155.091L266.529 155.083C255.166 143.1 233.115 93.8276 275.874 51.0685C305.565 21.3771 353.996 40.2207 366.688 55.3252Z" fill="white"/>
<path d="M77.5492 79.6968C85.7623 70.3675 117.099 58.7289 136.312 77.0677C163.979 103.478 149.711 133.91 142.358 141.312L142.363 141.317C142.321 141.358 142.275 141.397 142.231 141.438C142.188 141.481 142.146 141.524 142.104 141.565L142.099 141.56C134.345 148.578 102.463 162.198 74.7949 135.788C55.5828 117.449 67.7757 87.5365 77.5492 79.6968Z" fill="#FACDC8"/>
<path d="M349.73 76.6968C341.517 67.3675 310.18 55.7289 290.968 74.0677C263.3 100.478 277.569 130.91 284.921 138.312L284.916 138.317C284.959 138.358 285.004 138.397 285.048 138.438C285.092 138.481 285.133 138.524 285.176 138.565L285.181 138.56C292.935 145.578 324.817 159.198 352.484 132.788C371.696 114.449 359.504 84.5365 349.73 76.6968Z" fill="#FACDC8"/>
<path d="M356.509 154.975C373.429 145.206 380.728 128.251 382.375 111.4C384.037 94.3841 379.848 78.3176 374.803 71.101C374.687 70.9355 374.586 70.7604 374.501 70.5775C370.773 62.5998 358.954 50.9387 343.387 43.8707C327.97 36.8709 309.637 34.7145 292.716 44.4835L291.657 45.1027C269.616 58.1761 259.206 75.412 254.996 91.633C254.511 93.5038 252.601 94.6267 250.73 94.1414C248.859 93.6559 247.735 91.745 248.221 89.874C252.874 71.9454 264.386 53.1423 288.079 39.0868L289.216 38.4213C308.696 27.1746 329.536 29.8939 346.281 37.4965C362.723 44.9619 375.962 57.4674 380.71 67.3408C386.887 76.389 391.098 94.1079 389.342 112.08C387.553 130.383 379.489 149.791 360.009 161.037C335.545 175.162 313.088 175.827 294.951 170.813C293.088 170.299 291.995 168.371 292.51 166.508C293.025 164.645 294.953 163.552 296.816 164.067C313.225 168.603 333.74 168.121 356.509 154.975Z" fill="black"/>
<path d="M62.6006 154.975C45.6803 145.206 38.3813 128.251 36.7346 111.4C35.0721 94.3841 39.2612 78.3176 44.3066 71.101C44.4223 70.9355 44.5233 70.7604 44.6088 70.5775C48.3359 62.5998 60.1553 50.9387 75.7224 43.8707C91.1398 36.8709 109.473 34.7145 126.393 44.4835L127.452 45.1027C149.494 58.1761 159.903 75.412 164.113 91.633C164.599 93.5038 166.509 94.6267 168.38 94.1414C170.251 93.6559 171.374 91.745 170.889 89.874C166.236 71.9454 154.724 53.1423 131.03 39.0868L129.893 38.4213C110.413 27.1746 89.5733 29.8939 72.8285 37.4965C56.386 44.9619 43.1469 57.4674 38.3992 67.3408C32.2223 76.389 28.0113 94.1079 29.7674 112.08C31.5559 130.383 39.6207 149.791 59.1006 161.037C83.5643 175.162 106.022 175.827 124.158 170.813C126.021 170.299 127.114 168.371 126.599 166.508C126.084 164.645 124.156 163.552 122.293 164.067C105.884 168.603 85.369 168.121 62.6006 154.975Z" fill="black"/>
<path d="M212.043 77.376C306.23 77.5909 321.772 153.066 322.029 206.374C322.082 217.359 331.529 232.874 326.64 253.374C317.952 289.8 245.102 305.475 211.841 304.379C178.581 305.475 105.731 289.8 97.0435 253.374C92.1542 232.874 101.602 217.359 101.655 206.374C101.912 153.066 117.454 77.5909 211.64 77.376V77.374C211.707 77.374 211.774 77.3749 211.841 77.375C211.909 77.3749 211.976 77.374 212.043 77.374V77.376Z" fill="white"/>
<path d="M165.639 299.374C166.039 238.574 122.806 217.374 101.139 214.374C96.1394 222.041 93.7475 247.874 97.6394 255.874C106.639 274.374 117.639 284.374 165.639 299.374Z" fill="#FFCACC"/>
<path d="M257.707 299.374C257.307 238.574 300.541 217.374 322.207 214.374C327.207 222.041 329.599 247.874 325.707 255.874C316.707 274.374 305.707 284.374 257.707 299.374Z" fill="#FFCACC"/>
<path d="M315.717 153.975C317.595 153.514 319.49 154.664 319.951 156.541C324.112 173.517 325.455 190.907 325.53 206.357C325.541 208.662 326.051 211.35 326.859 214.633C327.624 217.744 328.723 221.626 329.603 225.538C331.418 233.611 332.663 243.207 330.044 254.186C326.555 268.815 313.945 279.902 298.67 287.988C283.3 296.125 264.503 301.621 247.245 304.746C240.426 306.238 228.593 307.28 215.689 307.446C202.715 307.613 188.353 306.9 176.517 304.761C159.237 301.638 140.407 296.138 125.013 287.988C109.739 279.902 97.1285 268.815 93.6392 254.186C91.0209 243.207 92.2663 233.611 94.0816 225.538C94.9611 221.626 96.0603 217.744 96.8257 214.633C97.6332 211.35 98.1436 208.662 98.1548 206.357C98.2294 190.907 99.5723 173.517 103.734 156.541C104.194 154.664 106.089 153.514 107.966 153.975C109.844 154.435 110.993 156.33 110.533 158.207C106.543 174.481 105.228 191.287 105.155 206.391C105.139 209.578 104.448 212.949 103.623 216.306C102.755 219.834 101.788 223.171 100.911 227.073C99.2117 234.629 98.1779 243.041 100.449 252.562C103.231 264.229 113.612 274.032 128.289 281.802C142.846 289.508 160.928 294.831 177.762 297.873C188.996 299.903 202.87 300.611 215.598 300.447C228.364 300.283 239.671 299.245 245.792 297.898C245.835 297.889 245.879 297.881 245.922 297.873C262.756 294.831 280.838 289.508 295.395 281.802C310.072 274.032 320.452 264.229 323.235 252.562C325.506 243.041 324.472 234.629 322.773 227.073C321.895 223.171 320.929 219.834 320.061 216.306C319.235 212.949 318.545 209.578 318.53 206.391C318.457 191.287 317.142 174.481 313.152 158.207C312.692 156.33 313.84 154.435 315.717 153.975ZM212.138 73.877C247.521 73.9747 272.424 84.5039 289.68 100.832C291.084 102.161 291.145 104.375 289.817 105.779C288.488 107.183 286.273 107.245 284.869 105.916C269.102 90.9971 245.987 80.9535 212.036 80.876C212.016 80.8759 211.996 80.8744 211.976 80.874C211.917 80.8742 212.064 80.8748 211.846 80.875H211.838C211.62 80.8748 211.767 80.8742 211.708 80.874C211.688 80.8744 211.668 80.8759 211.648 80.876C177.696 80.9535 154.582 90.997 138.815 105.916C137.411 107.245 135.195 107.183 133.867 105.779C132.539 104.375 132.6 102.16 134.004 100.832C151.261 84.5042 176.163 73.975 211.544 73.877C211.576 73.8761 211.608 73.874 211.64 73.874C211.688 73.874 211.733 73.8748 211.765 73.875H211.918C211.951 73.8748 211.997 73.874 212.044 73.874C212.076 73.874 212.107 73.8761 212.138 73.877Z" fill="black"/>
<path d="M89.3524 236.243C91.2724 236.024 93.3784 236.01 95.4227 236.103C99.5124 236.287 103.693 236.916 106.326 237.442C108.221 237.822 109.45 239.665 109.071 241.561C108.692 243.456 106.848 244.685 104.953 244.306C102.586 243.832 98.7664 243.261 95.1063 243.096C93.2757 243.013 91.569 243.036 90.1453 243.198C88.645 243.369 87.7994 243.66 87.4403 243.875C85.7828 244.87 83.6331 244.332 82.6385 242.675C81.644 241.017 82.1813 238.868 83.8387 237.873C85.4796 236.889 87.5091 236.453 89.3524 236.243Z" fill="black"/>
<path d="M114.078 264.039C115.92 263.453 117.888 264.471 118.475 266.313C119.061 268.155 118.043 270.123 116.201 270.709C114.596 271.22 111.888 272.317 109.241 273.877C106.53 275.475 104.276 277.33 103.12 279.208C102.107 280.854 99.952 281.368 98.3058 280.355C96.6595 279.342 96.1463 277.186 97.1593 275.54C99.2031 272.219 102.616 269.657 105.688 267.847C108.824 265.998 112.017 264.695 114.078 264.039Z" fill="black"/>
<path d="M333.427 236.243C331.507 236.024 329.401 236.01 327.357 236.103C323.267 236.287 319.087 236.916 316.453 237.442C314.558 237.822 313.329 239.665 313.708 241.561C314.087 243.456 315.931 244.685 317.826 244.306C320.193 243.832 324.013 243.261 327.673 243.096C329.504 243.013 331.21 243.036 332.634 243.198C334.134 243.369 334.98 243.66 335.339 243.875C336.997 244.87 339.146 244.332 340.141 242.675C341.135 241.017 340.598 238.868 338.941 237.873C337.3 236.889 335.27 236.453 333.427 236.243Z" fill="black"/>
<path d="M308.701 264.039C306.859 263.453 304.891 264.471 304.305 266.313C303.719 268.155 304.736 270.123 306.578 270.709C308.183 271.22 310.891 272.317 313.538 273.877C316.25 275.475 318.503 277.33 319.659 279.208C320.672 280.854 322.827 281.368 324.474 280.355C326.12 279.342 326.633 277.186 325.62 275.54C323.576 272.219 320.163 269.657 317.092 267.847C313.955 265.998 310.762 264.695 308.701 264.039Z" fill="black"/>
<path d="M177.2 226.374C177.2 232.449 172.598 237.374 166.92 237.374C161.242 237.374 156.64 232.449 156.64 226.374C156.64 220.299 161.242 215.374 166.92 215.374C172.598 215.374 177.2 220.299 177.2 226.374Z" fill="#474847"/>
<path d="M266.64 226.374C266.64 232.449 262.037 237.374 256.359 237.374C250.682 237.374 246.079 232.449 246.079 226.374C246.079 220.299 250.682 215.374 256.359 215.374C262.037 215.374 266.64 220.299 266.64 226.374Z" fill="#474847"/>
<path d="M190.722 236.484C192.538 236.018 194.386 237.065 194.935 238.837C194.943 238.855 194.96 238.891 194.988 238.942C195.074 239.094 195.267 239.386 195.651 239.714C196.365 240.325 198.111 241.374 202.002 241.374C205.892 241.374 207.638 240.325 208.353 239.714C208.736 239.386 208.93 239.094 209.015 238.942C209.05 238.88 209.067 238.84 209.072 238.828C209.485 237.51 210.637 236.551 212.021 236.395C213.46 236.234 214.848 236.976 215.516 238.26C215.513 238.255 215.512 238.251 215.51 238.247C215.506 238.239 215.502 238.232 215.499 238.226C215.493 238.215 215.489 238.208 215.487 238.205C215.49 238.209 215.494 238.218 215.503 238.231C215.532 238.278 215.596 238.376 215.7 238.511C215.909 238.78 216.27 239.184 216.812 239.601C217.851 240.403 219.71 241.374 222.819 241.374C225.929 241.374 227.787 240.403 228.827 239.601C229.369 239.184 229.73 238.78 229.939 238.511C230.043 238.376 230.107 238.278 230.136 238.231C230.15 238.209 230.155 238.2 230.153 238.205C230.151 238.208 230.146 238.215 230.14 238.226C230.137 238.232 230.133 238.239 230.129 238.247C230.127 238.251 230.125 238.255 230.123 238.26C231.011 236.551 233.114 235.88 234.828 236.761C236.547 237.644 237.224 239.754 236.341 241.474L233.229 239.874C236.19 241.396 236.333 241.472 236.339 241.477C236.339 241.478 236.338 241.48 236.337 241.481C236.336 241.484 236.335 241.487 236.333 241.49C236.33 241.496 236.327 241.501 236.323 241.508C236.317 241.52 236.309 241.535 236.301 241.55C236.285 241.58 236.266 241.616 236.243 241.655C236.198 241.735 236.141 241.833 236.069 241.946C235.927 242.173 235.73 242.466 235.471 242.8C234.953 243.467 234.18 244.314 233.1 245.146C230.895 246.845 227.548 248.374 222.819 248.374C218.173 248.374 214.862 246.896 212.656 245.233C210.439 247.023 207.047 248.374 202.002 248.374C196.769 248.374 193.31 246.923 191.101 245.034C190.022 244.112 189.325 243.154 188.884 242.368C188.665 241.977 188.51 241.631 188.403 241.353C188.349 241.215 188.306 241.092 188.274 240.99C188.257 240.939 188.244 240.893 188.233 240.852C188.227 240.832 188.221 240.813 188.216 240.795C188.214 240.786 188.211 240.777 188.209 240.768C188.208 240.765 188.207 240.761 188.206 240.757C188.206 240.755 188.205 240.752 188.204 240.751C188.204 240.748 188.226 240.739 191.593 239.874L188.203 240.745C187.722 238.873 188.85 236.965 190.722 236.484ZM194.981 238.998C194.98 238.997 194.98 238.993 194.98 238.991C194.979 238.988 194.978 238.984 194.977 238.98C194.975 238.974 194.974 238.967 194.972 238.961C194.968 238.948 194.964 238.936 194.961 238.925L194.981 238.998ZM209.059 238.87C209.054 238.884 209.048 238.903 209.042 238.925C209.039 238.936 209.036 238.948 209.032 238.961C209.031 238.967 209.028 238.974 209.027 238.98C209.026 238.984 209.025 238.988 209.024 238.991C209.023 238.992 209.023 238.995 209.023 238.996C209.037 238.94 209.055 238.884 209.072 238.829C209.07 238.836 209.065 238.849 209.059 238.87Z" fill="black"/>
<path d="M206.417 233.233C211.407 236.106 212.844 236.069 217.191 233.233C222.672 229.659 216.057 227.374 212.087 227.374C208.118 227.374 201.427 230.36 206.417 233.233Z" fill="#474847"/>
</svg>
