<svg width="384" height="277" viewBox="0 0 384 277" fill="none" xmlns="http://www.w3.org/2000/svg">
<path d="M136.046 13.2192C151.646 2.81923 181.879 2.71943 195.046 2.21943C211.046 0.780028 231.546 5.21923 249.546 13.2192C263.046 13.2192 303.546 37.7192 322.546 52.2192C341.546 66.7192 386.046 90.7192 381.546 143.719C377.946 186.119 345.546 195.886 327.546 195.219C331.879 224.219 305.046 271.219 195.046 274.719C80.546 278.362 56.2126 226.053 59.0459 200.719C35.5459 197.386 -3.45399 178.119 2.54601 131.719C10.046 73.7192 101.546 9.21923 136.046 13.2192Z" fill="white" stroke="#A5A5A5" stroke-width="4" stroke-linecap="round" stroke-linejoin="round" stroke-dasharray="8 8"/>
<path d="M192.513 24.7212C287.225 24.9405 302.854 101.83 303.112 156.137C303.166 167.328 312.666 183.134 307.749 204.018C299.013 241.127 225.757 257.096 192.31 255.979C158.864 257.096 85.6072 241.127 76.8708 204.018C71.9542 183.134 81.4536 167.328 81.5069 156.137C81.7657 101.83 97.3944 24.9403 192.107 24.7212V24.7192C192.174 24.7192 192.242 24.7202 192.309 24.7202C192.377 24.7202 192.445 24.7192 192.513 24.7192V24.7212Z" fill="white"/>
<path d="M76.294 178.09C38.3386 183.657 12.6244 152.786 31.2533 115.337C40.2052 97.3409 59.2496 82.5668 76.2939 72.3208C96.22 60.3424 115.767 36.3896 139.553 36.3896L76.294 178.09Z" fill="white"/>
<path d="M309.798 178.09C347.753 183.657 373.467 152.786 354.839 115.337C345.887 97.3409 326.842 82.5668 309.798 72.3208C289.872 60.3424 270.324 36.3896 246.539 36.3896L309.798 178.09Z" fill="white"/>
<path d="M192.513 24.7212C287.226 24.9402 302.854 101.83 303.113 156.137C303.166 167.328 312.666 183.134 307.75 204.018C299.013 241.127 225.756 257.096 192.31 255.979C158.864 257.096 85.6071 241.127 76.8707 204.018C71.9541 183.134 81.454 167.328 81.5074 156.137C81.7662 101.83 97.3946 24.9403 192.107 24.7212V24.7192C192.175 24.7192 192.243 24.7201 192.31 24.7202C192.378 24.7201 192.446 24.7192 192.513 24.7192V24.7212Z" fill="white"/>
<path d="M145.85 250.88C146.252 188.941 102.777 167.343 80.9891 164.287C75.9612 172.097 73.5559 198.415 77.4695 206.565C86.5198 225.412 97.5813 235.599 145.85 250.88Z" fill="#FFCACC"/>
<path d="M238.432 250.88C238.029 188.941 281.504 167.343 303.292 164.287C308.32 172.097 310.725 198.415 306.812 206.565C297.761 225.412 286.7 235.599 238.432 250.88Z" fill="#FFCACC"/>
<path d="M139.553 32.8896C141.486 32.8896 143.053 34.4567 143.053 36.3896C143.053 38.3226 141.486 39.8896 139.553 39.8896C128.824 39.8897 118.761 45.2985 108.527 52.6992C103.426 56.3881 98.4742 60.4233 93.4004 64.4062C88.3817 68.346 83.2782 72.2055 78.0967 75.3203C61.1842 85.4872 42.8748 99.8321 34.3867 116.896C25.549 134.662 27.4471 150.282 35.3467 160.734C43.288 171.242 57.8395 177.259 75.7861 174.627C77.6987 174.346 79.4763 175.669 79.7569 177.582C80.0373 179.495 78.7143 181.272 76.8018 181.553C56.7934 184.487 39.5102 177.853 29.7627 164.955C19.9737 152.002 18.3282 133.461 28.1192 113.778C37.5348 94.8502 57.3144 79.6465 74.4902 69.3213C79.2715 66.447 84.0844 62.8205 89.0781 58.9004C94.0169 55.0234 99.175 50.8239 104.425 47.0273C114.893 39.4572 126.496 32.8897 139.553 32.8896Z" fill="black"/>
<path d="M246.539 32.8896C244.606 32.8896 243.039 34.4567 243.039 36.3896C243.039 38.3226 244.606 39.8896 246.539 39.8896C257.267 39.8897 267.331 45.2985 277.564 52.6992C282.665 56.3881 287.618 60.4233 292.691 64.4062C297.71 68.346 302.814 72.2055 307.995 75.3203C324.908 85.4872 343.217 99.8321 351.705 116.896C360.543 134.662 358.645 150.282 350.745 160.734C342.804 171.242 328.252 177.259 310.306 174.627C308.393 174.346 306.615 175.669 306.335 177.582C306.055 179.495 307.378 181.272 309.29 181.553C329.298 184.487 346.582 177.853 356.329 164.955C366.118 152.002 367.764 133.461 357.973 113.778C348.557 94.8502 328.777 79.6465 311.602 69.3213C306.82 66.447 302.007 62.8205 297.014 58.9004C292.075 55.0234 286.917 50.8239 281.667 47.0273C271.199 39.4572 259.596 32.8897 246.539 32.8896Z" fill="black"/>
<path d="M296.781 102.817C298.66 102.362 300.551 103.517 301.006 105.395C305.188 122.679 306.538 140.386 306.613 156.121C306.625 158.483 307.141 161.232 307.953 164.577C308.724 167.752 309.827 171.699 310.712 175.684C312.536 183.901 313.784 193.658 311.156 204.82C307.657 219.685 294.998 230.972 279.631 239.214C264.17 247.506 245.262 253.106 227.901 256.29C219.609 258.194 206.539 259.038 193.378 259.008C180.124 258.978 166.386 258.06 156.783 256.302C139.405 253.121 120.469 247.516 104.989 239.214C89.6217 230.972 76.9635 219.685 73.4639 204.82C70.8361 193.658 72.0845 183.901 73.9082 175.684C74.7926 171.699 75.8958 167.752 76.667 164.577C77.4793 161.232 77.9955 158.483 78.0068 156.121C78.0818 140.386 79.4319 122.679 83.6142 105.395C84.0691 103.517 85.9603 102.362 87.8389 102.817C89.7175 103.271 90.8724 105.163 90.418 107.042C86.4034 123.631 85.0802 140.761 85.0068 156.154C84.9914 159.387 84.2999 162.81 83.4697 166.229C82.5984 169.817 81.6246 173.225 80.7422 177.201C79.032 184.906 77.9885 193.494 80.2773 203.216C83.0846 215.14 93.546 225.134 108.297 233.045C122.935 240.896 141.117 246.318 158.044 249.417C167.073 251.07 180.35 251.978 193.394 252.008C206.48 252.038 218.941 251.182 226.417 249.45L226.576 249.417C243.503 246.318 261.685 240.896 276.323 233.045C291.074 225.134 301.535 215.14 304.343 203.216C306.632 193.494 305.588 184.906 303.878 177.201C302.995 173.225 302.022 169.817 301.15 166.229C300.32 162.81 299.629 159.387 299.613 156.154C299.54 140.761 298.217 123.631 294.202 107.042C293.748 105.163 294.903 103.271 296.781 102.817ZM192.611 21.2222C215.181 21.2849 233.574 25.3078 248.482 32.7983C250.21 33.6662 250.906 35.7694 250.038 37.4966C249.17 39.2237 247.067 39.9209 245.34 39.0532C231.602 32.1507 214.306 28.2717 192.505 28.2212C192.485 28.2211 192.465 28.2196 192.445 28.2192C192.384 28.2194 192.535 28.22 192.314 28.2202H192.306C192.084 28.22 192.237 28.2194 192.174 28.2192C192.154 28.2196 192.135 28.2211 192.115 28.2212C170.347 28.2716 154.144 32.1385 140.382 39.0532C138.655 39.9209 136.55 39.2237 135.683 37.4966C134.815 35.7694 135.512 33.6661 137.239 32.7983C152.123 25.3201 169.408 21.2852 192.008 21.2222C192.041 21.2213 192.073 21.2192 192.106 21.2192C192.154 21.2192 192.201 21.22 192.233 21.2202H192.387C192.42 21.22 192.466 21.2192 192.514 21.2192C192.546 21.2192 192.579 21.2213 192.611 21.2222Z" fill="black"/>
<path d="M155.464 176.512C155.464 182.701 150.835 187.718 145.126 187.718C139.416 187.718 134.788 182.701 134.788 176.512C134.788 170.323 139.416 165.306 145.126 165.306C150.835 165.306 155.464 170.323 155.464 176.512Z" fill="#474847"/>
<path d="M245.403 176.512C245.403 182.701 240.775 187.718 235.065 187.718C229.356 187.718 224.728 182.701 224.728 176.512C224.728 170.323 229.356 165.306 235.065 165.306C240.775 165.306 245.403 170.323 245.403 176.512Z" fill="#474847"/>
<path d="M169.076 186.872C170.895 186.411 172.742 187.466 173.283 189.242C173.29 189.258 173.309 189.302 173.344 189.365C173.433 189.527 173.632 189.829 174.021 190.166C174.744 190.793 176.499 191.859 180.403 191.859C184.308 191.859 186.063 190.793 186.786 190.166C187.175 189.829 187.374 189.527 187.464 189.365C187.509 189.282 187.528 189.234 187.528 189.234C187.528 189.234 187.523 189.247 187.514 189.275C187.51 189.288 187.505 189.306 187.499 189.327C187.496 189.338 187.492 189.35 187.489 189.363C187.487 189.369 187.485 189.376 187.483 189.383C187.482 189.386 187.481 189.39 187.48 189.393C187.48 189.395 187.48 189.398 187.479 189.399V189.4C187.839 187.988 189.036 186.947 190.484 186.786C191.928 186.626 193.32 187.375 193.983 188.666C193.981 188.662 193.98 188.658 193.978 188.655C193.974 188.647 193.971 188.641 193.968 188.635C193.962 188.624 193.958 188.617 193.957 188.615C193.959 188.618 193.965 188.628 193.974 188.644C194.005 188.693 194.07 188.795 194.177 188.934C194.39 189.212 194.755 189.626 195.302 190.053C196.351 190.872 198.218 191.859 201.338 191.859C204.457 191.859 206.324 190.872 207.374 190.053C207.92 189.626 208.285 189.212 208.498 188.934C208.604 188.795 208.671 188.693 208.701 188.644C208.716 188.62 208.722 188.609 208.719 188.615C208.717 188.617 208.713 188.624 208.707 188.635C208.704 188.64 208.701 188.647 208.697 188.655C208.695 188.658 208.693 188.663 208.69 188.667C208.689 188.669 208.688 188.67 208.687 188.672C209.565 186.955 211.668 186.271 213.388 187.144C215.112 188.019 215.8 190.125 214.926 191.849L211.805 190.265L214.924 191.853L214.918 191.865C214.915 191.87 214.911 191.876 214.908 191.882C214.901 191.895 214.895 191.909 214.887 191.924C214.87 191.954 214.851 191.99 214.829 192.03C214.784 192.11 214.726 192.209 214.655 192.324C214.513 192.553 214.317 192.849 214.057 193.188C213.54 193.864 212.765 194.724 211.68 195.571C209.467 197.298 206.1 198.859 201.338 198.859C196.662 198.859 193.332 197.353 191.118 195.663C188.893 197.481 185.48 198.859 180.403 198.859C175.133 198.859 171.654 197.378 169.437 195.457C168.356 194.521 167.659 193.55 167.22 192.757C167.001 192.362 166.848 192.012 166.741 191.734C166.688 191.594 166.645 191.472 166.613 191.369C166.597 191.319 166.584 191.272 166.572 191.232C166.566 191.212 166.561 191.193 166.556 191.175C166.554 191.166 166.552 191.157 166.55 191.149C166.549 191.145 166.548 191.141 166.547 191.137C166.546 191.135 166.546 191.132 166.546 191.131C166.551 191.127 166.695 191.087 169.936 190.265L166.544 191.125C166.069 189.252 167.202 187.348 169.076 186.872ZM173.327 189.4C173.327 189.399 173.326 189.395 173.326 189.393C173.325 189.39 173.324 189.386 173.323 189.383C173.321 189.376 173.32 189.369 173.318 189.363C173.315 189.35 173.311 189.338 173.308 189.327C173.302 189.306 173.297 189.288 173.293 189.275C173.292 189.273 173.29 189.271 173.29 189.269C173.303 189.312 173.316 189.356 173.327 189.4Z" fill="black"/>
<path d="M184.808 183.488C189.858 186.396 191.312 186.357 195.712 183.488C201.26 179.869 194.564 177.557 190.547 177.557C186.53 177.557 179.757 180.58 184.808 183.488Z" fill="#474847"/>
</svg>
