<svg width="420" height="420" viewBox="0 0 420 420" fill="none" xmlns="http://www.w3.org/2000/svg">
<path d="M154.119 85.2685C169.719 74.8685 199.953 74.7687 213.119 74.2687C229.119 72.8293 249.619 77.2685 267.619 85.2685C281.119 85.2685 321.619 109.769 340.619 124.269C359.619 138.769 404.119 162.769 399.619 215.769C396.019 258.169 363.619 267.935 345.619 267.269C349.952 296.269 323.119 343.269 213.119 346.769C98.6192 350.412 74.2859 298.102 77.1191 272.769C53.6191 269.435 14.6193 250.169 20.6193 203.769C28.1193 145.769 119.619 81.2685 154.119 85.2685Z" fill="white" stroke="#A5A5A5" stroke-width="4" stroke-linecap="round" stroke-linejoin="round" stroke-dasharray="8 8"/>
<path d="M210.587 96.7705C305.299 96.9899 320.927 173.879 321.186 228.186C321.239 239.377 330.739 255.183 325.823 276.067C317.086 313.176 243.83 329.145 210.383 328.028C176.937 329.145 103.68 313.176 94.944 276.067C90.0274 255.183 99.5268 239.377 99.5801 228.186C99.8389 173.879 115.468 96.9897 210.18 96.7705V96.7686C210.247 96.7686 210.315 96.7695 210.382 96.7695C210.45 96.7695 210.519 96.7686 210.587 96.7686V96.7705Z" fill="white"/>
<path d="M94.3673 250.139C56.4118 255.706 30.6976 224.835 49.3265 187.386C58.2785 169.39 77.3228 154.616 94.3671 144.37C114.293 132.392 133.841 108.439 157.626 108.439L94.3673 250.139Z" fill="white"/>
<path d="M327.871 250.139C365.826 255.706 391.541 224.835 372.912 187.386C363.96 169.39 344.915 154.616 327.871 144.37C307.945 132.392 288.398 108.439 264.612 108.439L327.871 250.139Z" fill="white"/>
<path d="M210.587 96.7705C305.299 96.9895 320.927 173.879 321.186 228.187C321.24 239.377 330.739 255.183 325.823 276.067C317.086 313.176 243.83 329.145 210.383 328.028C176.937 329.145 103.68 313.176 94.944 276.067C90.0274 255.183 99.5273 239.377 99.5807 228.187C99.8394 173.879 115.468 96.9896 210.18 96.7705V96.7686C210.248 96.7686 210.316 96.7695 210.383 96.7695C210.451 96.7695 210.519 96.7686 210.587 96.7686V96.7705Z" fill="white"/>
<path d="M163.923 322.93C164.325 260.99 120.85 239.393 99.0623 236.336C94.0344 244.147 91.6291 270.464 95.5428 278.614C104.593 297.461 115.655 307.648 163.923 322.93Z" fill="#FFCACC"/>
<path d="M256.505 322.93C256.103 260.99 299.578 239.393 321.365 236.336C326.393 244.147 328.799 270.464 324.885 278.614C315.835 297.461 304.773 307.648 256.505 322.93Z" fill="#FFCACC"/>
<path d="M157.626 104.939C159.559 104.939 161.126 106.506 161.126 108.439C161.126 110.372 159.559 111.939 157.626 111.939C146.898 111.939 136.834 117.348 126.601 124.749C121.5 128.437 116.547 132.473 111.474 136.456C106.455 140.395 101.351 144.255 96.1699 147.37C79.2574 157.536 60.9481 171.881 52.46 188.945C43.6223 206.711 45.5203 222.331 53.4199 232.784C61.3612 243.292 75.9127 249.308 93.8594 246.676C95.7719 246.396 97.5496 247.719 97.8301 249.631C98.1105 251.544 96.7875 253.322 94.875 253.602C74.8666 256.537 57.5835 249.902 47.836 237.004C38.0469 224.051 36.4014 205.511 46.1924 185.828C55.6081 166.899 75.3876 151.696 92.5635 141.371C97.3448 138.496 102.158 134.87 107.151 130.95C112.09 127.073 117.248 122.873 122.498 119.077C132.966 111.507 144.569 104.939 157.626 104.939Z" fill="black"/>
<path d="M264.612 104.939C262.679 104.939 261.112 106.506 261.112 108.439C261.112 110.372 262.679 111.939 264.612 111.939C275.341 111.939 285.404 117.348 295.638 124.749C300.739 128.437 305.691 132.473 310.765 136.456C315.783 140.395 320.887 144.255 326.068 147.37C342.981 157.536 361.29 171.881 369.778 188.945C378.616 206.711 376.718 222.331 368.818 232.784C360.877 243.292 346.326 249.308 328.379 246.676C326.466 246.396 324.689 247.719 324.408 249.631C324.128 251.544 325.451 253.322 327.363 253.602C347.372 256.537 364.655 249.902 374.402 237.004C384.191 224.051 385.837 205.511 376.046 185.828C366.63 166.899 346.851 151.696 329.675 141.371C324.893 138.496 320.081 134.87 315.087 130.95C310.148 127.073 304.99 122.873 299.74 119.077C289.272 111.507 277.669 104.939 264.612 104.939Z" fill="black"/>
<path d="M314.854 174.866C316.733 174.412 318.624 175.566 319.079 177.444C323.261 194.728 324.612 212.435 324.687 228.17C324.698 230.532 325.214 233.281 326.026 236.626C326.797 239.801 327.901 243.749 328.785 247.733C330.609 255.95 331.857 265.707 329.229 276.869C325.73 291.734 313.072 303.022 297.704 311.264C282.244 319.555 263.335 325.155 245.975 328.339C237.682 330.243 224.612 331.088 211.451 331.058C198.197 331.027 184.459 330.11 174.856 328.352C157.478 325.17 138.542 319.566 123.062 311.264C107.695 303.022 95.0367 291.734 91.5371 276.869C88.9094 265.707 90.1578 255.95 91.9814 247.733C92.8659 243.749 93.9691 239.801 94.7402 236.626C95.5525 233.281 96.0688 230.532 96.0801 228.17C96.155 212.435 97.5051 194.728 101.687 177.444C102.142 175.566 104.034 174.412 105.912 174.866C107.791 175.321 108.946 177.212 108.491 179.091C104.477 195.681 103.153 212.811 103.08 228.203C103.065 231.436 102.373 234.86 101.543 238.278C100.672 241.866 99.6979 245.274 98.8154 249.25C97.1052 256.955 96.0617 265.543 98.3506 275.266C101.158 287.189 111.619 297.183 126.37 305.095C141.009 312.946 159.191 318.367 176.117 321.466C185.147 323.119 198.424 324.028 211.467 324.058C224.553 324.088 237.014 323.231 244.49 321.499L244.649 321.466C261.576 318.367 279.758 312.946 294.396 305.095C309.147 297.183 319.609 287.189 322.416 275.266C324.705 265.543 323.661 256.955 321.951 249.25C321.069 245.274 320.095 241.866 319.224 238.278C318.393 234.86 317.702 231.436 317.687 228.203C317.613 212.811 316.29 195.681 312.275 179.091C311.821 177.212 312.976 175.321 314.854 174.866ZM210.685 93.2715C233.255 93.3343 251.648 97.3571 266.556 104.848C268.283 105.716 268.979 107.819 268.111 109.546C267.243 111.273 265.14 111.97 263.413 111.103C249.675 104.2 232.379 100.321 210.578 100.271C210.558 100.27 210.538 100.269 210.519 100.269C210.458 100.269 210.608 100.269 210.388 100.27H210.379C210.157 100.269 210.311 100.269 210.247 100.269C210.228 100.269 210.208 100.27 210.188 100.271C188.421 100.321 172.217 104.188 158.455 111.103C156.728 111.97 154.624 111.273 153.756 109.546C152.888 107.819 153.585 105.715 155.312 104.848C170.196 97.3694 187.481 93.3345 210.081 93.2715C210.114 93.2706 210.147 93.2686 210.18 93.2686C210.228 93.2686 210.274 93.2693 210.307 93.2695H210.46C210.493 93.2693 210.539 93.2686 210.587 93.2686C210.62 93.2686 210.652 93.2706 210.685 93.2715Z" fill="black"/>
<path d="M173.537 248.561C173.537 254.75 168.909 259.767 163.199 259.767C157.49 259.767 152.861 254.75 152.861 248.561C152.861 242.372 157.49 237.355 163.199 237.355C168.909 237.355 173.537 242.372 173.537 248.561Z" fill="#474847"/>
<path d="M263.476 248.561C263.476 254.75 258.848 259.767 253.139 259.767C247.429 259.767 242.801 254.75 242.801 248.561C242.801 242.372 247.429 237.355 253.139 237.355C258.848 237.355 263.476 242.372 263.476 248.561Z" fill="#474847"/>
<path d="M187.149 258.922C188.968 258.461 190.815 259.515 191.356 261.291C191.363 261.308 191.382 261.351 191.417 261.414C191.507 261.576 191.706 261.879 192.095 262.216C192.817 262.842 194.572 263.908 198.476 263.908C202.381 263.908 204.136 262.842 204.859 262.216C205.248 261.879 205.447 261.576 205.537 261.414C205.583 261.332 205.601 261.283 205.601 261.283C205.601 261.283 205.596 261.297 205.588 261.324C205.583 261.338 205.578 261.355 205.572 261.377C205.569 261.387 205.566 261.399 205.562 261.412C205.561 261.418 205.558 261.426 205.556 261.432C205.556 261.436 205.554 261.439 205.554 261.442C205.553 261.444 205.553 261.447 205.553 261.448V261.449C205.913 260.038 207.109 258.997 208.557 258.836C210.002 258.675 211.393 259.424 212.056 260.716C212.054 260.712 212.053 260.707 212.052 260.704C212.048 260.696 212.044 260.69 212.041 260.684C212.035 260.674 212.032 260.667 212.03 260.664C212.032 260.668 212.038 260.678 212.048 260.693C212.078 260.742 212.144 260.845 212.25 260.983C212.463 261.262 212.828 261.676 213.375 262.102C214.424 262.921 216.291 263.908 219.411 263.908C222.531 263.908 224.398 262.921 225.447 262.102C225.994 261.676 226.358 261.262 226.571 260.983C226.677 260.845 226.744 260.742 226.774 260.693C226.789 260.669 226.795 260.659 226.792 260.664C226.79 260.667 226.786 260.673 226.78 260.684C226.777 260.69 226.774 260.696 226.77 260.704C226.768 260.708 226.766 260.712 226.763 260.717C226.763 260.718 226.761 260.72 226.761 260.722C227.638 259.004 229.741 258.32 231.462 259.193C233.185 260.068 233.873 262.175 232.999 263.898L229.878 262.314L232.997 263.902L232.991 263.914C232.988 263.919 232.984 263.925 232.981 263.931C232.975 263.944 232.968 263.958 232.96 263.973C232.944 264.004 232.924 264.039 232.902 264.079C232.857 264.159 232.799 264.258 232.728 264.373C232.586 264.602 232.39 264.898 232.131 265.237C231.613 265.914 230.838 266.773 229.754 267.62C227.54 269.348 224.174 270.908 219.411 270.908C214.735 270.908 211.406 269.402 209.191 267.713C206.966 269.531 203.553 270.908 198.476 270.908C193.206 270.908 189.727 269.427 187.511 267.507C186.43 266.57 185.732 265.599 185.293 264.806C185.074 264.412 184.921 264.062 184.814 263.783C184.761 263.644 184.718 263.521 184.686 263.419C184.67 263.368 184.657 263.322 184.645 263.281C184.64 263.261 184.634 263.242 184.63 263.224C184.627 263.216 184.625 263.206 184.623 263.198C184.622 263.194 184.621 263.19 184.62 263.186C184.619 263.184 184.619 263.181 184.619 263.18C184.625 263.176 184.769 263.137 188.01 262.314L184.617 263.175C184.142 261.301 185.276 259.397 187.149 258.922ZM191.4 261.449C191.4 261.448 191.4 261.444 191.399 261.442C191.398 261.439 191.397 261.436 191.396 261.432C191.394 261.426 191.393 261.418 191.391 261.412C191.388 261.399 191.385 261.387 191.382 261.377C191.376 261.355 191.37 261.338 191.366 261.324C191.365 261.322 191.364 261.32 191.363 261.318C191.376 261.361 191.389 261.405 191.4 261.449Z" fill="black"/>
<path d="M202.881 255.537C207.932 258.445 209.386 258.407 213.786 255.537C219.334 251.919 212.638 249.606 208.62 249.606C204.603 249.606 197.83 252.629 202.881 255.537Z" fill="#474847"/>
</svg>
