<svg width="302" height="308" viewBox="0 0 302 308" fill="none" xmlns="http://www.w3.org/2000/svg">
<path d="M105.633 20.3536L79.298 28.6761C63.5981 22.8063 29.2608 7.60146 17.5113 14.2308C2.82434 22.5176 6.87615 62.0018 17.5113 108.096C5.35657 125.913 7.35673 159.025 8.87615 173.354C-11.0441 216.513 5.28682 306.479 152.987 305.731C310.998 304.931 311.082 215.823 288.46 173.354C290.993 152.637 291.46 131.92 281.331 108.096C303.615 77.5392 300.615 31.84 288.46 14.2308C278.737 0.14347 237.544 17.9366 219.987 29.6761C215.423 32.7279 210.461 27.8116 188.987 20.3536C164.987 -8.76922 119.476 1.01804 105.633 20.3536Z" fill="white" stroke="#A5A5A5" stroke-width="4" stroke-linecap="round" stroke-linejoin="round" stroke-dasharray="8 8"/>
<path d="M264.433 39.5881C252.795 35.5795 225.187 53.1017 215.812 59.7827C203.524 79.4459 243.596 119.413 256.419 110.801C275.816 97.7727 278.981 44.5989 264.433 39.5881Z" fill="white"/>
<path d="M36.4147 39.5881C47.8588 35.5795 75.0064 53.1017 84.2252 59.7827C96.3092 79.4459 56.905 119.413 44.2957 110.801C25.2221 97.7727 22.1095 44.5989 36.4147 39.5881Z" fill="white"/>
<path d="M150.714 41.0011C250.41 41.2286 266.86 121.005 267.132 177.352C267.189 188.962 277.189 205.362 272.014 227.03C262.818 265.533 185.706 282.101 150.5 280.942C115.293 282.101 38.1817 265.533 28.9856 227.03C23.8103 205.362 33.8096 188.962 33.8657 177.352C34.1381 121.005 50.5892 41.2284 150.286 41.0011V40.999C150.357 40.999 150.428 41 150.499 41.0001C150.57 41 150.642 40.999 150.714 40.999V41.0011Z" fill="white"/>
<path d="M252.331 36.7343C256.886 35.5012 261.643 34.9258 265.573 36.2792C271.036 38.1611 273.956 44.0938 275.445 50.163C277.008 56.5347 277.363 64.4651 276.641 72.5009C275.917 80.5556 274.092 88.9281 271.143 96.1982C268.221 103.402 264.042 109.897 258.371 113.706C255.849 115.4 252.881 115.739 250.025 115.357C247.182 114.978 244.207 113.861 241.298 112.32C235.474 109.236 229.328 104.135 224.08 98.2167C218.833 92.2992 214.287 85.3428 211.866 78.4159C209.459 71.5309 208.981 64.11 212.844 57.9277L212.939 57.7841C213.168 57.4544 213.453 57.1662 213.781 56.9326C218.567 53.522 227.977 47.362 237.722 42.54C242.59 40.1314 247.653 38.0007 252.331 36.7343ZM263.294 42.8974C261.404 42.2466 258.347 42.3576 254.16 43.4911C250.095 44.5915 245.487 46.5075 240.827 48.8134C231.91 53.2252 223.204 58.8612 218.452 62.2031C216.499 65.7915 216.526 70.534 218.473 76.1064C220.51 81.9342 224.48 88.1178 229.317 93.5732C234.154 99.028 239.663 103.533 244.575 106.135C247.034 107.437 249.197 108.185 250.952 108.419C252.693 108.651 253.784 108.355 254.467 107.895C258.494 105.191 261.985 100.153 264.657 93.5663C267.302 87.0457 268.996 79.3684 269.67 71.8749C270.345 64.3627 269.976 57.2457 268.647 51.831C267.244 46.1138 265.104 43.521 263.294 42.8974Z" fill="black"/>
<path d="M48.3453 36.7383C43.8609 35.5038 39.1535 34.9205 35.2574 36.2852C32.5056 37.2492 30.4323 39.2821 28.9107 41.6729C27.3912 44.0606 26.2943 46.9952 25.5269 50.1758C23.9914 56.5404 23.6423 64.4647 24.3521 72.4962C25.0636 80.5459 26.8571 88.9128 29.7555 96.1788C32.6261 103.375 36.7342 109.874 42.3219 113.69C44.8226 115.399 47.7685 115.74 50.5982 115.356C53.4114 114.973 56.3488 113.853 59.2135 112.31C64.95 109.22 70.9979 104.114 76.1588 98.1954C81.3204 92.2757 85.7888 85.32 88.1676 78.3985C90.5311 71.5216 90.9994 64.1205 87.2076 57.9503L87.1139 57.8057C86.8872 57.4746 86.6045 57.1843 86.2789 56.9483C81.5713 53.5367 72.316 47.3742 62.7281 42.5499C57.9392 40.1402 52.9543 38.0072 48.3453 36.7383ZM37.5719 42.8917C39.3977 42.2521 42.3756 42.3552 46.4879 43.4874C50.4758 44.5853 55.0008 46.4988 59.5816 48.8038C68.3417 53.2116 76.8965 58.8425 81.5689 62.1837C83.495 65.7841 83.465 70.5437 81.5475 76.1231C79.5426 81.9566 75.6375 88.1414 70.8824 93.5948C66.1266 99.049 60.7146 103.55 55.8941 106.147C53.4805 107.447 51.3648 108.188 49.6568 108.42C47.9654 108.65 46.9217 108.355 46.2701 107.91C42.321 105.213 38.8878 100.179 36.2574 93.585C33.6548 87.0603 31.9875 79.3783 31.3248 71.8799C30.6604 64.3631 31.0235 57.2393 32.3316 51.8174C32.986 49.1052 33.8432 46.9618 34.817 45.4317C35.7887 43.9048 36.7476 43.1804 37.5719 42.8917Z" fill="black"/>
<path d="M109.417 191.999C109.417 198.074 104.94 202.999 99.417 202.999C93.8941 202.999 89.417 198.074 89.417 191.999C89.417 185.924 93.8941 180.999 99.417 180.999C104.94 180.999 109.417 185.924 109.417 191.999Z" fill="#474847"/>
<path d="M214.417 191.999C214.417 198.074 209.94 202.999 204.417 202.999C198.894 202.999 194.417 198.074 194.417 191.999C194.417 185.924 198.894 180.999 204.417 180.999C209.94 180.999 214.417 185.924 214.417 191.999Z" fill="#474847"/>
<path d="M150.755 41.2373C250.417 41.4647 266.863 121.329 267.135 177.736C267.192 189.36 277.188 205.778 272.014 227.47C262.821 266.014 185.735 282.6 150.541 281.439C115.346 282.599 38.2613 266.013 29.0681 227.47C23.8945 205.778 33.8909 189.36 33.947 177.736C34.2193 121.329 50.6651 41.4647 150.328 41.2373V41.2354C150.399 41.2354 150.47 41.2362 150.541 41.2363C150.612 41.2362 150.683 41.2354 150.755 41.2354V41.2373Z" fill="white"/>
<path d="M85.817 252.971C74.796 242.529 82.4181 214.187 97.9168 212.499C113.415 210.811 125.917 190.499 151.917 190.499C177.917 190.499 180.917 205.22 199.917 209.499C218.917 213.778 225.359 237.426 218.917 247.999C210.864 261.216 188.994 274.999 154.269 274.999C117.72 274.999 101.606 267.931 85.817 252.971Z" fill="#EDEDED"/>
<path d="M215.916 270.999C215.493 204.477 245.805 187.281 268.73 183.999C272.433 191.999 276.034 219.746 271.916 228.499C262.393 248.74 243.416 256.499 215.916 270.999Z" fill="#FFCACC"/>
<path d="M83.4164 269.999C83.8396 203.477 55.8523 187.281 32.9272 183.999C29.2239 191.999 25.6231 219.746 29.741 228.499C39.2638 248.74 55.9164 255.499 83.4164 269.999Z" fill="#FFCACC"/>
<path d="M248.428 91.8896C250.143 90.9977 252.257 91.665 253.149 93.3799C266.956 119.926 270.507 151.433 270.633 177.559C270.645 180.025 271.191 182.892 272.046 186.369C272.86 189.675 274.019 193.77 274.95 197.911C276.868 206.443 278.179 216.568 275.418 228.148C271.763 243.476 258.591 255.136 242.551 263.675C226.426 272.259 206.686 278.082 188.499 281.421C167.083 286.622 132.301 285.048 112.607 281.441C94.3901 278.105 74.6043 272.276 58.4478 263.675C42.4084 255.136 29.2365 243.476 25.5816 228.148C22.8202 216.568 24.1314 206.443 26.0493 197.911C26.9803 193.77 28.1395 189.675 28.9527 186.369C29.808 182.892 30.3539 180.025 30.3658 177.559C30.4919 151.433 34.0429 119.926 47.8501 93.3799C48.7421 91.6651 50.855 90.9978 52.5699 91.8896C54.2847 92.7816 54.952 94.8945 54.0601 96.6094C41.0069 121.705 37.4897 151.904 37.3658 177.593C37.3496 180.941 36.6241 184.49 35.7505 188.041C34.8348 191.764 33.8074 195.314 32.8784 199.446C31.0767 207.461 29.9763 216.401 32.3902 226.524C35.3416 238.902 46.3005 249.278 61.7378 257.496C77.0581 265.652 96.0955 271.302 113.869 274.557C133.067 278.072 166.839 279.505 186.931 274.599L187.13 274.557C204.904 271.302 223.941 265.652 239.261 257.496C254.699 249.278 265.658 238.902 268.609 226.524C271.023 216.401 269.922 207.461 268.121 199.446C267.192 195.314 266.164 191.764 265.249 188.041C264.375 184.49 263.649 180.941 263.633 177.593C263.509 151.904 259.992 121.705 246.939 96.6094C246.047 94.8946 246.714 92.7817 248.428 91.8896ZM150.805 37.502C184.047 37.5926 208.541 46.3895 226.394 60.4854C227.911 61.6832 228.17 63.8842 226.972 65.4014C225.774 66.9185 223.573 67.1773 222.056 65.9795C205.628 53.0087 182.71 44.5742 150.706 44.501C150.685 44.5009 150.665 44.4994 150.645 44.499C150.58 44.4992 150.722 44.4997 150.502 44.5H150.495C150.268 44.4997 150.423 44.4992 150.353 44.499C150.333 44.4994 150.313 44.5009 150.293 44.501C118.289 44.5741 95.3714 53.0088 78.9429 65.9795C77.4258 67.1773 75.2247 66.9184 74.0269 65.4014C72.8291 63.8842 73.0879 61.6832 74.605 60.4854C92.4584 46.3896 116.952 37.5925 150.194 37.502C150.224 37.5012 150.255 37.499 150.286 37.499C150.335 37.499 150.382 37.4998 150.417 37.5H150.582C150.616 37.4998 150.664 37.499 150.713 37.499C150.744 37.499 150.775 37.5012 150.805 37.502Z" fill="black"/>
<path d="M114.734 40.8344C140.459 14.8717 169.317 30.0166 180.53 40.8344C195.866 65.9596 161.824 111.499 149.859 111.499C139.965 111.499 126.607 93.1786 119.682 80.0925C118.099 83.4425 119.682 89.5145 122.155 94.2254C106.16 86.3738 95.5448 60.2017 114.734 40.8344Z" fill="#B4B4B4"/>
<path d="M112.248 38.3713C125.935 24.5577 140.726 21.5218 153.627 23.5861C165.92 25.5531 176.294 32.1006 182.384 37.7697L182.96 38.3156L183.116 38.4758C183.266 38.6409 183.401 38.8199 183.518 39.0109C187.919 46.2213 188.651 54.6943 187.348 63.0168C186.045 71.34 182.672 79.7845 178.491 87.2922C174.306 94.8072 169.219 101.548 164.337 106.458C161.9 108.91 159.445 110.976 157.112 112.451C154.868 113.871 152.344 114.999 149.859 114.999C146.352 114.999 142.951 113.406 139.939 111.302C136.874 109.161 133.851 106.238 131.024 103.009C129.045 100.748 127.121 98.2866 125.302 95.756C125.142 96.0854 124.929 96.3935 124.664 96.6662C123.607 97.7516 121.972 98.0348 120.613 97.3674C111.588 92.9373 104.306 83.5115 101.837 72.6223C99.3319 61.5694 101.77 48.9469 112.248 38.3713ZM152.521 30.4982C141.759 28.7764 129.259 31.1492 117.221 43.298C108.51 52.0897 106.66 62.2366 108.664 71.0744C109.842 76.2712 112.349 80.9947 115.598 84.7189C115.441 82.6426 115.627 80.4812 116.517 78.5969C117.083 77.3991 118.277 76.6241 119.602 76.5939C120.927 76.5639 122.155 77.2842 122.775 78.4553C126.142 84.8164 131.066 92.4299 136.29 98.3976C138.905 101.384 141.509 103.86 143.948 105.563C146.439 107.303 148.418 107.999 149.859 107.999C150.365 107.999 151.522 107.704 153.37 106.535C155.129 105.423 157.177 103.733 159.373 101.524C163.761 97.1105 168.47 90.8963 172.374 83.8859C176.283 76.868 179.292 69.2157 180.432 61.9338C181.545 54.8234 180.843 48.325 177.769 43.0402C172.494 38.0745 163.267 32.2176 152.521 30.4982Z" fill="black"/>
<path d="M112.248 38.3713C125.935 24.5577 140.726 21.5218 153.627 23.5861C165.92 25.5531 176.294 32.1006 182.384 37.7697L182.96 38.3156L183.116 38.4758C183.266 38.6409 183.401 38.8199 183.518 39.0109C187.919 46.2213 188.651 54.6943 187.348 63.0168C186.045 71.34 182.672 79.7845 178.491 87.2922C174.306 94.8072 169.219 101.548 164.337 106.458C161.9 108.91 159.445 110.976 157.112 112.451C154.868 113.871 152.344 114.999 149.859 114.999C146.352 114.999 142.951 113.406 139.939 111.302C136.874 109.161 133.851 106.238 131.024 103.009C129.045 100.748 127.121 98.2866 125.302 95.756C125.142 96.0854 124.929 96.3935 124.664 96.6662C123.607 97.7516 121.972 98.0348 120.613 97.3674C111.588 92.9373 104.306 83.5115 101.837 72.6223C99.3319 61.5694 101.77 48.9469 112.248 38.3713ZM152.521 30.4982C141.759 28.7764 129.259 31.1492 117.221 43.298C108.51 52.0897 106.66 62.2366 108.664 71.0744C109.842 76.2712 112.349 80.9947 115.598 84.7189C115.441 82.6426 115.627 80.4812 116.517 78.5969C117.083 77.3991 118.277 76.6241 119.602 76.5939C120.927 76.5639 122.155 77.2842 122.775 78.4553C126.142 84.8164 131.066 92.4299 136.29 98.3976C138.905 101.384 141.509 103.86 143.948 105.563C146.439 107.303 148.418 107.999 149.859 107.999C150.365 107.999 151.522 107.704 153.37 106.535C155.129 105.423 157.177 103.733 159.373 101.524C163.761 97.1105 168.47 90.8963 172.374 83.8859C176.283 76.868 179.292 69.2157 180.432 61.9338C181.545 54.8234 180.843 48.325 177.769 43.0402C172.494 38.0745 163.267 32.2176 152.521 30.4982Z" fill="black"/>
<path d="M116.977 195.999C116.977 202.074 112.375 206.999 106.697 206.999C101.019 206.999 96.4165 202.074 96.4165 195.999C96.4165 189.924 101.019 184.999 106.697 184.999C112.375 184.999 116.977 189.924 116.977 195.999Z" fill="#474847"/>
<path d="M206.416 195.999C206.416 202.074 201.814 206.999 196.136 206.999C190.458 206.999 185.855 202.074 185.855 195.999C185.855 189.924 190.458 184.999 196.136 184.999C201.814 184.999 206.416 189.924 206.416 195.999Z" fill="#474847"/>
<path d="M130.499 208.109C132.315 207.643 134.163 208.69 134.712 210.462C134.719 210.48 134.737 210.516 134.765 210.567C134.85 210.719 135.044 211.011 135.427 211.339C136.142 211.95 137.888 212.999 141.779 212.999C145.669 212.999 147.415 211.95 148.13 211.339C148.513 211.011 148.707 210.719 148.792 210.567C148.826 210.505 148.844 210.465 148.849 210.453C149.262 209.135 150.414 208.176 151.798 208.02C153.236 207.859 154.625 208.601 155.293 209.885C155.29 209.88 155.289 209.876 155.287 209.872C155.283 209.864 155.279 209.857 155.276 209.851C155.27 209.84 155.266 209.833 155.264 209.83C155.266 209.834 155.271 209.843 155.28 209.856C155.309 209.903 155.373 210.001 155.477 210.136C155.686 210.405 156.047 210.809 156.589 211.226C157.628 212.028 159.486 212.999 162.596 212.999C165.706 212.999 167.564 212.028 168.604 211.226C169.146 210.809 169.506 210.405 169.715 210.136C169.82 210.001 169.884 209.903 169.913 209.856C169.927 209.834 169.932 209.825 169.929 209.83C169.928 209.833 169.923 209.84 169.917 209.851C169.914 209.857 169.91 209.864 169.906 209.872C169.904 209.876 169.902 209.88 169.9 209.885C170.788 208.176 172.891 207.505 174.605 208.386C176.324 209.269 177.001 211.379 176.118 213.099L173.006 211.499C175.967 213.021 176.11 213.097 176.116 213.102C176.116 213.103 176.115 213.105 176.114 213.106C176.113 213.109 176.111 213.112 176.11 213.115C176.107 213.121 176.104 213.126 176.1 213.133C176.094 213.145 176.086 213.16 176.078 213.175C176.062 213.205 176.043 213.241 176.02 213.28C175.975 213.36 175.917 213.458 175.846 213.571C175.704 213.798 175.507 214.091 175.248 214.425C174.73 215.092 173.957 215.939 172.877 216.771C170.672 218.47 167.325 219.999 162.596 219.999C157.95 219.999 154.639 218.521 152.433 216.858C150.216 218.648 146.824 219.999 141.779 219.999C136.546 219.999 133.087 218.548 130.878 216.659C129.799 215.737 129.102 214.779 128.661 213.993C128.441 213.602 128.287 213.256 128.179 212.978C128.126 212.84 128.083 212.717 128.05 212.615C128.034 212.564 128.021 212.518 128.009 212.477C128.004 212.457 127.998 212.438 127.993 212.42C127.99 212.411 127.988 212.402 127.986 212.393C127.985 212.39 127.984 212.386 127.983 212.382C127.983 212.38 127.981 212.377 127.981 212.376C127.981 212.373 128.003 212.364 131.37 211.499L127.98 212.37C127.499 210.498 128.627 208.59 130.499 208.109ZM134.757 210.623C134.757 210.622 134.757 210.618 134.757 210.616C134.756 210.613 134.754 210.609 134.754 210.605C134.752 210.599 134.75 210.592 134.749 210.586C134.745 210.573 134.741 210.561 134.738 210.55L134.757 210.623ZM148.836 210.495C148.831 210.509 148.825 210.528 148.819 210.55C148.816 210.561 148.813 210.573 148.809 210.586C148.808 210.592 148.805 210.599 148.803 210.605C148.802 210.609 148.801 210.613 148.8 210.616C148.8 210.617 148.8 210.62 148.799 210.621C148.814 210.565 148.832 210.509 148.849 210.454C148.847 210.461 148.842 210.474 148.836 210.495Z" fill="black"/>
</svg>
