<svg width="420" height="420" viewBox="0 0 420 420" fill="none" xmlns="http://www.w3.org/2000/svg">
<path d="M158.682 66.5093C183.082 52.9093 201.182 60.8426 207.182 66.5093C219.182 62.5093 245.082 56.9093 252.682 66.5093C279.082 61.7093 304.015 88.5093 313.182 102.509C345.682 114.176 409.182 143.909 403.182 169.509C397.182 195.109 374.015 206.843 363.182 209.509C366.015 217.843 368.982 237.409 358.182 249.009C372.682 288.509 330.182 306.009 327.682 314.509C325.182 323.009 316.182 342.509 261.182 347.509C221.182 372.709 176.182 358.009 158.682 347.509C138.682 347.509 95.8816 339.209 84.6816 306.009C45.6816 293.009 54.6816 241.009 60.1816 216.509C49.1816 214.509 14.1816 179.009 17.1816 162.509C19.5816 149.309 75.1816 117.009 102.682 102.509C111.182 96.1759 134.282 80.1093 158.682 66.5093Z" fill="white" stroke="#A5A5A5" stroke-width="4" stroke-linecap="round" stroke-linejoin="round" stroke-dasharray="8 8"/>
<path d="M59.2862 159.454C71.7906 152.421 113.25 125.003 126.322 115.858C142.913 120.846 129.25 197.863 99.0562 197.863C89.7859 197.863 73.9719 195.251 64.1563 187.939C54.886 181.033 41.2532 169.598 59.2862 159.454Z" fill="#F8EFE6"/>
<path d="M358.589 161.479C346.237 154.445 305.283 127.028 292.371 117.882C275.982 122.871 289.478 199.888 319.304 199.888C328.461 199.888 344.082 197.276 353.778 189.964C362.935 183.057 376.402 171.623 358.589 161.479Z" fill="#F8EFE6"/>
<path d="M166.444 236.335C166.444 242.485 161.911 247.471 156.319 247.471C150.728 247.471 146.195 242.485 146.195 236.335C146.195 230.184 150.728 225.198 156.319 225.198C161.911 225.198 166.444 230.184 166.444 236.335Z" fill="black"/>
<path d="M272.747 236.335C272.747 242.485 268.214 247.471 262.623 247.471C257.031 247.471 252.499 242.485 252.499 236.335C252.499 230.184 257.031 225.198 262.623 225.198C268.214 225.198 272.747 230.184 272.747 236.335Z" fill="black"/>
<path d="M123.686 116.373C124.498 115.902 125.469 115.776 126.379 116.029C127.349 116.299 128.156 116.974 128.594 117.881C132.414 125.804 132.955 134.962 131.549 144.008C130.14 153.069 126.744 162.251 122.396 170.458C118.048 178.662 112.672 186.036 107.182 191.443C101.859 196.684 95.8111 200.688 90.1095 200.855C71.564 201.401 61.7789 192.607 58.0753 188.594C54.8155 185.063 51.7385 180.501 50.1476 176.162C49.3552 174.001 48.8384 171.647 49.046 169.385C49.2643 167.009 50.3057 164.687 52.5656 163.105C56.676 160.228 101.639 130.782 123.526 116.471L123.686 116.373ZM123.764 124.68C100.838 139.675 60.362 166.192 56.5792 168.84C56.3082 169.029 56.0833 169.301 56.0167 170.025C55.9397 170.864 56.1193 172.117 56.7189 173.753C57.9121 177.007 60.4043 180.797 63.2189 183.846C66.0574 186.921 74.028 194.325 89.9035 193.858C92.8073 193.773 97.2 191.449 102.271 186.456C107.173 181.628 112.143 174.858 116.211 167.18C120.278 159.505 123.367 151.066 124.632 142.932C125.655 136.353 125.462 130.125 123.764 124.68Z" fill="black"/>
<path d="M296.501 116.373C295.689 115.902 294.718 115.776 293.808 116.029C292.838 116.299 292.031 116.974 291.593 117.881C287.773 125.804 287.232 134.962 288.638 144.008C290.047 153.069 293.443 162.251 297.791 170.458C302.139 178.662 307.515 186.036 313.005 191.443C318.328 196.684 324.376 200.688 330.077 200.855C348.623 201.401 358.408 192.607 362.112 188.594C365.372 185.063 368.448 180.501 370.039 176.162C370.832 174.001 371.349 171.647 371.141 169.385C370.923 167.009 369.881 164.687 367.621 163.105C363.511 160.228 318.548 130.782 296.661 116.471L296.501 116.373ZM296.423 124.68C319.349 139.675 359.825 166.192 363.608 168.84C363.879 169.029 364.104 169.301 364.17 170.025C364.247 170.864 364.068 172.117 363.468 173.753C362.275 177.007 359.783 180.797 356.968 183.846C354.13 186.921 346.159 194.325 330.284 193.858C327.38 193.773 322.987 191.449 317.916 186.456C313.014 181.628 308.044 174.858 303.976 167.18C299.909 159.505 296.82 151.066 295.555 142.932C294.532 136.353 294.725 130.125 296.423 124.68Z" fill="black"/>
<path d="M210.484 95.3186C217.544 89.4261 236.075 81.1768 253.723 95.3186C271.372 95.319 308.434 118.579 308.434 139.978C315.494 151.143 348.144 186.498 335.79 236.739C341.967 271.163 321.671 288.841 308.434 289.772C308.434 307.449 274.019 320.474 253.723 313.031C243.134 322.707 220.485 323.886 210.484 323.266C200.483 323.886 177.834 322.707 167.244 313.031C146.948 320.475 112.533 307.449 112.533 289.772C99.2967 288.841 79.0006 271.164 85.1777 236.739C72.8235 186.497 105.474 151.142 112.533 139.978C112.533 118.579 149.596 95.3186 167.244 95.3186C184.893 81.1769 203.424 89.4261 210.484 95.3186Z" fill="#888886"/>
<path d="M171.816 168.503C176.64 172.668 184.468 176.435 195.845 175.879C199.014 180.871 217.495 189.19 229.112 180.316C235.479 181.859 253.651 182.446 258.361 171.905C258.361 178.652 262.005 181.702 272.94 190.3C281.388 196.943 291.334 197.51 294.062 201.392C300.602 210.7 303.749 218.605 306.367 229.124C309.215 240.568 310.186 252.151 310.246 262.62C310.294 271.046 310.81 277.307 306.367 293.03C299.577 317.057 278.627 321.644 253.768 319.935C245.644 325.132 242.09 331.481 215.18 331.481C202.865 331.824 176.084 327.777 167.453 319.935C150.433 323.402 126.201 317.514 115.317 295.561C110.873 279.838 109.912 271.046 109.96 262.62C110.014 253.165 110.811 242.801 113.063 232.451C115.216 222.555 118.7 212.672 124.136 203.611C129.045 195.429 130.368 204.959 150.433 190.3C170.499 175.64 167.331 175.879 171.235 168.669C171.428 168.613 171.622 168.558 171.816 168.503Z" fill="#F8EFE6"/>
<path d="M256.042 319.353C255.638 257.798 313.075 240.891 335.011 237.853C340.073 245.615 334.942 275.819 326.405 280.881C321.535 283.769 317.8 286.955 309.194 289.993C306.157 308.216 272.998 326.356 256.042 319.353Z" fill="#E8B2B4"/>
<path d="M165.916 319.353C166.32 257.798 108.883 240.891 86.9474 237.853C81.8853 245.615 87.0157 275.819 95.5529 280.881C100.423 283.769 104.158 286.955 112.764 289.993C115.801 308.216 148.96 326.356 165.916 319.353Z" fill="#E8B2B4"/>
<path d="M332.606 181.409C334.441 180.804 336.42 181.802 337.025 183.638C341.959 198.618 344.2 216.587 339.362 236.9C345.027 270.222 326.869 289.696 311.665 292.904C310.896 297.33 308.538 301.518 305.405 305.198C301.527 309.752 296.225 313.818 290.361 317.006C279.447 322.938 265.664 326.289 254.487 323.103C251.451 325.464 247.851 327.252 244.101 328.612C231.066 336.096 217.126 337.612 205.104 336.528C193.181 335.453 182.934 331.806 176.925 328.633C173.153 327.271 169.531 325.477 166.48 323.103C155.302 326.289 141.519 322.938 130.606 317.006C124.741 313.818 119.44 309.752 115.563 305.198C112.43 301.518 110.07 297.33 109.301 292.904C94.0978 289.696 75.9417 270.223 81.6057 236.902C76.7665 216.588 79.0068 198.618 83.9416 183.638C84.5464 181.802 86.5256 180.804 88.3615 181.409C90.1975 182.013 91.1958 183.993 90.591 185.828C85.9387 199.951 83.8734 216.819 88.5764 235.952C88.6934 236.427 88.7088 236.923 88.6223 237.406C82.7257 270.279 102.082 285.594 112.779 286.346C114.612 286.475 116.033 288 116.033 289.837C116.033 293.125 117.654 296.857 120.892 300.66C124.101 304.428 128.673 307.988 133.949 310.856C144.667 316.682 157.236 319.122 166.038 315.893C167.265 315.443 168.641 315.714 169.606 316.596C171.936 318.726 175.082 320.471 178.775 321.857L179.52 322.129L179.764 322.227C179.844 322.262 179.923 322.301 180 322.342C185.174 325.114 194.624 328.554 205.733 329.556C216.809 330.555 229.317 329.111 240.861 322.401L241.148 322.251C241.245 322.206 241.346 322.165 241.447 322.129C245.463 320.702 248.876 318.868 251.362 316.596L251.547 316.438C252.497 315.683 253.778 315.471 254.928 315.893C263.73 319.122 276.3 316.682 287.018 310.856C292.294 307.988 296.865 304.428 300.074 300.66C303.313 296.857 304.934 293.125 304.934 289.837C304.934 288 306.356 286.475 308.189 286.346C318.886 285.593 338.241 270.278 332.345 237.406C332.258 236.923 332.274 236.427 332.391 235.952C337.094 216.819 335.029 199.951 330.376 185.828C329.771 183.993 330.77 182.013 332.606 181.409ZM304.934 139.995C304.934 135.643 303.036 130.886 299.53 126.034C296.045 121.208 291.145 116.538 285.614 112.444C280.093 108.356 274.047 104.92 268.356 102.516C262.606 100.087 257.473 98.8208 253.723 98.8207C252.927 98.8207 252.155 98.5497 251.534 98.0521C235.719 85.3748 219.117 92.6724 212.727 98.0082C211.428 99.0924 209.539 99.0924 208.24 98.0082C201.85 92.6725 185.249 85.3749 169.433 98.0521C168.812 98.5497 168.04 98.8206 167.244 98.8207C163.494 98.8207 158.362 100.086 152.612 102.515C146.92 104.919 140.874 108.356 135.353 112.444C129.822 116.538 124.923 121.208 121.437 126.034C117.932 130.886 116.033 135.643 116.033 139.995C116.033 141.927 114.465 143.495 112.532 143.495C110.6 143.494 109.033 141.927 109.033 139.995C109.033 133.643 111.768 127.465 115.763 121.934C119.778 116.376 125.247 111.216 131.188 106.818C137.138 102.413 143.666 98.6946 149.888 96.0668C155.555 93.6733 161.185 92.092 165.999 91.8529C183.532 78.5333 201.678 84.9026 210.484 90.9437C219.289 84.9027 237.434 78.5336 254.967 91.8529C259.782 92.0919 265.412 93.6731 271.079 96.0668C277.301 98.6947 283.829 102.413 289.78 106.818C295.72 111.216 301.189 116.376 305.204 121.934C309.2 127.465 311.934 133.643 311.934 139.995C311.934 141.927 310.367 143.494 308.434 143.495C306.501 143.494 304.934 141.927 304.934 139.995Z" fill="black"/>
<path d="M161.24 139.69C161.497 137.774 163.259 136.43 165.174 136.687C167.09 136.944 168.435 138.706 168.177 140.621C167.436 146.144 168.122 154.312 172.331 160.87C176.37 167.163 183.996 172.517 198.408 172.145L198.581 172.144C199.442 172.164 200.269 172.502 200.899 173.096C210.08 181.746 222.496 181.639 228.439 176.489L228.617 176.345C229.523 175.657 230.713 175.45 231.805 175.802C234.365 176.627 239.841 177.286 244.916 176.67C247.43 176.365 249.587 175.775 251.15 174.925C252.669 174.099 253.402 173.167 253.673 172.156C254.172 170.288 256.09 169.179 257.958 169.678C259.825 170.177 260.935 172.095 260.436 173.962C259.531 177.349 257.161 179.625 254.494 181.076C251.87 182.502 248.757 183.256 245.759 183.62C240.717 184.232 235.272 183.816 231.51 182.961C222.379 189.427 207.72 188.27 197.174 179.162C181.473 179.203 171.807 173.012 166.44 164.651C161.084 156.305 160.349 146.33 161.24 139.69Z" fill="black"/>
<path d="M170.283 168.21C171.004 166.417 173.042 165.548 174.836 166.269C176.629 166.99 177.499 169.028 176.778 170.821C172.77 180.79 161.975 189.198 151.031 195.55C139.894 202.014 127.749 206.826 119.914 209.3C118.071 209.882 116.104 208.86 115.522 207.017C114.94 205.173 115.963 203.207 117.806 202.625C125.25 200.275 136.906 195.654 147.517 189.495C158.322 183.224 167.223 175.821 170.283 168.21Z" fill="black"/>
<path d="M254.844 170.508C256.533 169.567 258.665 170.173 259.606 171.861C262.296 176.688 267.531 183.767 274.326 189.098C281.127 194.435 289.03 197.687 297.343 195.955C299.236 195.561 301.09 196.775 301.484 198.668C301.878 200.56 300.663 202.414 298.771 202.808C287.646 205.126 277.664 200.616 270.004 194.605C262.338 188.589 256.537 180.735 253.491 175.269C252.55 173.581 253.156 171.449 254.844 170.508Z" fill="black"/>
<path d="M175.11 254.558C175.11 260.709 170.451 265.695 164.702 265.695C158.954 265.695 154.294 260.709 154.294 254.558C154.294 248.408 158.954 243.422 164.702 243.422C170.451 243.422 175.11 248.408 175.11 254.558Z" fill="black"/>
<path d="M265.66 254.558C265.66 260.709 261 265.695 255.252 265.695C249.504 265.695 244.844 260.709 244.844 254.558C244.844 248.408 249.504 243.422 255.252 243.422C261 243.422 265.66 248.408 265.66 254.558Z" fill="black"/>
<path d="M188.81 264.836C190.627 264.369 192.477 265.417 193.024 267.191C193.032 267.209 193.05 267.248 193.081 267.304C193.169 267.461 193.369 267.761 193.761 268.097C194.494 268.723 196.272 269.788 200.219 269.788C204.166 269.788 205.945 268.723 206.677 268.097C207.07 267.761 207.269 267.462 207.357 267.304C207.401 267.225 207.42 267.179 207.42 267.179C207.419 267.18 207.414 267.194 207.405 267.223C207.4 267.237 207.395 267.255 207.388 267.277C207.385 267.287 207.382 267.3 207.379 267.313C207.377 267.319 207.375 267.325 207.374 267.332C207.373 267.336 207.372 267.339 207.371 267.343C207.37 267.345 207.369 267.348 207.369 267.349V267.35C207.732 265.945 208.925 264.909 210.368 264.747C211.811 264.586 213.204 265.332 213.869 266.622C213.869 266.622 213.867 266.62 213.867 266.618C213.866 266.616 213.864 266.614 213.863 266.611C213.861 266.607 213.858 266.603 213.856 266.599C213.852 266.591 213.848 266.585 213.845 266.579C213.839 266.568 213.836 266.561 213.835 266.558C213.837 266.561 213.842 266.571 213.851 266.586C213.881 266.634 213.948 266.735 214.054 266.872C214.268 267.148 214.635 267.56 215.186 267.985C216.246 268.801 218.137 269.788 221.296 269.788C224.454 269.788 226.345 268.801 227.405 267.985C227.956 267.56 228.323 267.148 228.537 266.872C228.643 266.735 228.71 266.634 228.74 266.586C228.749 266.571 228.754 266.561 228.757 266.558L228.74 266.591C229.634 264.898 231.726 264.235 233.433 265.112C235.152 265.996 235.83 268.106 234.947 269.825L231.834 268.226C234.863 269.783 234.944 269.826 234.945 269.829C234.945 269.83 234.943 269.832 234.942 269.833C234.941 269.836 234.94 269.839 234.938 269.842C234.935 269.848 234.932 269.853 234.928 269.86C234.922 269.872 234.915 269.886 234.907 269.902C234.891 269.932 234.871 269.967 234.848 270.007C234.803 270.087 234.744 270.185 234.673 270.3C234.529 270.529 234.331 270.824 234.069 271.161C233.547 271.835 232.767 272.689 231.676 273.529C229.451 275.244 226.073 276.788 221.296 276.788C216.582 276.788 213.231 275.283 211.006 273.597C208.771 275.412 205.339 276.788 200.219 276.788C194.93 276.788 191.439 275.322 189.212 273.417C188.124 272.487 187.42 271.521 186.976 270.73C186.755 270.336 186.6 269.986 186.492 269.707C186.438 269.568 186.396 269.445 186.363 269.343C186.347 269.292 186.333 269.245 186.321 269.204C186.315 269.184 186.309 269.164 186.304 269.147C186.302 269.138 186.3 269.129 186.298 269.12C186.296 269.116 186.296 269.112 186.295 269.109C186.294 269.107 186.293 269.104 186.293 269.103C186.292 269.1 186.314 269.091 189.681 268.226L186.292 269.097C185.811 267.225 186.938 265.317 188.81 264.836ZM193.069 267.35C193.069 267.349 193.069 267.345 193.068 267.343C193.067 267.339 193.066 267.336 193.065 267.332C193.063 267.325 193.062 267.319 193.06 267.313C193.057 267.3 193.054 267.287 193.05 267.277C193.044 267.255 193.038 267.237 193.034 267.223C193.033 267.22 193.032 267.216 193.031 267.213C193.045 267.258 193.057 267.304 193.069 267.35Z" fill="black"/>
<path d="M204.69 261.503C209.741 264.411 211.196 264.373 215.597 261.503C221.146 257.884 214.449 255.571 210.43 255.571C206.412 255.571 199.638 258.594 204.69 261.503Z" fill="black"/>
</svg>
