<svg width="279" height="354" viewBox="0 0 279 354" fill="none" xmlns="http://www.w3.org/2000/svg">
<path d="M68.5093 4.96272C105.309 -5.83728 131.176 15.4627 139.509 27.4627C146.51 13.9628 174.01 -5.03728 211.01 4.96272C242.01 13.3411 256.51 48.4628 257.51 63.9628C256.676 71.1294 255.41 94.4628 243.01 130.463C263.51 147.463 267.51 180.463 265.51 211.963C282.51 229.463 302.509 356.463 139.509 350.963C-23.4908 345.463 -2.49068 258.463 11.0093 211.963C10.2093 179.163 21.3431 143.963 31.0098 130.463L17.5098 63.9628C18.5098 50.7961 31.7093 15.7627 68.5093 4.96272Z" fill="white" stroke="#A5A5A5" stroke-width="4" stroke-linecap="round" stroke-linejoin="round" stroke-dasharray="8 8"/>
<path d="M140.346 110.564C230.846 110.771 245.78 183.293 246.027 234.515C246.078 245.07 255.156 259.978 250.458 279.676C242.11 314.677 172.111 329.739 140.151 328.685C108.192 329.739 38.1931 314.677 29.8451 279.676C25.1471 259.978 34.2241 245.07 34.2751 234.515C34.5223 183.292 49.4561 110.771 139.957 110.564V110.562C140.022 110.562 140.086 110.563 140.151 110.563C140.215 110.563 140.281 110.562 140.346 110.562V110.564Z" fill="#888886"/>
<path d="M42.6167 82.4621C38.4872 59.0427 57.4535 36.123 80.5561 32.0494C103.659 27.9758 129.32 43.0264 133.45 66.4458L135.678 121.019C137.968 154.969 125.155 172.844 111.954 175.171L100.002 177.279C86.8008 179.606 73.2149 165.137 59.1875 134.506L42.6167 82.4621Z" fill="#888886"/>
<path d="M236.891 82.0935C241.092 58.2685 222.251 35.0317 199.217 30.9702C176.183 26.9088 150.531 42.3 146.33 66.125L143.917 121.618C141.515 156.143 154.235 174.272 167.397 176.593L179.313 178.694C192.475 181.014 206.079 166.257 220.179 135.065L236.891 82.0935Z" fill="#888886"/>
<path d="M61.9536 91.5667C58.3165 70.9402 69.1715 51.7852 83.4628 49.2653C97.7541 46.7453 114.506 61.0325 118.143 81.6591L121.986 129.393C124.942 159.128 117.716 174.155 109.55 175.595L102.156 176.899C93.99 178.339 84.8297 165.101 74.6683 137.736L61.9536 91.5667Z" fill="#FACDC8"/>
<path d="M218.068 91.9414C221.708 71.3009 210.299 52.0364 195.432 49.415C180.566 46.7936 163.256 60.9942 159.616 81.6348L155.947 129.432C153.076 159.203 160.686 174.308 169.181 175.805L176.872 177.162C185.367 178.66 194.796 165.459 205.169 138.111L218.068 91.9414Z" fill="#FACDC8"/>
<path d="M99.6003 246.045C99.6003 251.883 95.2983 256.615 89.9916 256.615C84.6848 256.615 80.3828 251.883 80.3828 246.045C80.3828 240.208 84.6848 235.476 89.9916 235.476C95.2983 235.476 99.6003 240.208 99.6003 246.045Z" fill="black"/>
<path d="M200.492 246.045C200.492 251.883 196.19 256.615 190.883 256.615C185.576 256.615 181.274 251.883 181.274 246.045C181.274 240.208 185.576 235.476 190.883 235.476C196.19 235.476 200.492 240.208 200.492 246.045Z" fill="black"/>
<path d="M81.2588 30.0759C104.787 26.5358 130.453 41.6851 134.588 65.138L136.754 120.674C138.997 154.681 126.192 172.87 112.804 175.72L112.166 175.844L110.95 168.951C115.053 168.227 120.182 164.897 124.199 157.106C128.201 149.344 130.849 137.497 129.77 121.135L129.76 120.947L127.612 65.9308C123.96 46.8447 101.97 33.5171 81.3562 37.1518C60.7402 40.787 44.6319 60.8357 47.7321 80.0217L64.3947 132.027C71.3972 147.12 78.0378 157.637 84.1853 164.025C90.377 170.458 95.0677 171.751 98.6238 171.124L99.8394 178.018L99.2015 178.117C85.7877 179.955 72.0277 165.239 57.8646 134.584L40.9064 81.6567C36.7054 57.8316 56.3136 34.4595 80.1407 30.2581L81.2588 30.0759ZM110.95 168.951L112.166 175.844L99.8394 178.018L98.6238 171.124L110.95 168.951Z" fill="black"/>
<path d="M198.09 30.0759C174.561 26.5358 148.896 41.6851 144.76 65.138L142.595 120.674C140.352 154.681 153.157 172.87 166.544 175.72L167.183 175.844L168.398 168.951C164.296 168.227 159.166 164.897 155.149 157.106C151.148 149.344 148.499 137.497 149.579 121.135L149.589 120.947L151.737 65.9308C155.389 46.8447 177.378 33.5171 197.992 37.1518C218.608 40.787 234.717 60.8357 231.617 80.0217L214.954 132.027C207.951 147.12 201.311 157.637 195.163 164.025C188.972 170.458 184.281 171.751 180.725 171.124L179.509 178.018L180.147 178.117C193.561 179.955 207.321 165.239 221.484 134.584L238.442 81.6567C242.643 57.8316 223.035 34.4595 199.208 30.2581L198.09 30.0759ZM168.398 168.951L167.183 175.844L179.509 178.018L180.725 171.124L168.398 168.951Z" fill="black"/>
<path d="M140.346 110.564C230.847 110.771 245.78 183.293 246.028 234.515C246.079 245.07 255.156 259.979 250.458 279.676C242.11 314.677 172.111 329.739 140.152 328.685C108.192 329.738 38.1931 314.677 29.845 279.676C25.1471 259.979 34.2246 245.07 34.2757 234.515C34.523 183.293 49.4569 110.77 139.958 110.564V110.562C140.023 110.562 140.087 110.563 140.152 110.563C140.216 110.563 140.281 110.562 140.346 110.562V110.564Z" fill="#888886"/>
<path d="M95.7567 323.876C96.141 265.455 54.5992 245.084 33.7803 242.202C28.9759 249.568 26.6775 274.391 30.4172 282.078C39.0651 299.854 49.6347 309.463 95.7567 323.876Z" fill="#E8B2B4"/>
<path d="M184.223 323.876C183.838 265.455 225.38 245.084 246.199 242.202C251.004 249.568 253.302 274.391 249.562 282.078C240.914 299.854 230.345 309.463 184.223 323.876Z" fill="#E8B2B4"/>
<path d="M78.0177 123.042C79.6462 122 81.8104 122.476 82.8517 124.104C83.893 125.733 83.4168 127.898 81.7882 128.939C45.7187 152.001 37.9523 197.923 37.7755 234.532C37.7607 237.612 37.0938 240.864 36.3 244.09C35.464 247.488 34.5376 250.684 33.6945 254.434C32.0643 261.684 31.075 269.744 33.2502 278.864C35.9099 290.016 45.8405 299.411 59.9318 306.871C73.9033 314.267 91.263 319.377 107.43 322.298C117.984 324.205 131.307 324.886 143.595 324.739C155.922 324.591 166.884 323.613 172.744 322.325L172.873 322.298C189.04 319.377 206.401 314.266 220.372 306.87C234.463 299.41 244.394 290.016 247.054 278.864C249.229 269.744 248.239 261.684 246.609 254.434C245.765 250.684 244.84 247.488 244.004 244.09C243.21 240.864 242.542 237.612 242.527 234.532C242.351 197.923 234.584 152.001 198.515 128.939C196.886 127.898 196.41 125.733 197.451 124.104C198.493 122.476 200.658 122 202.286 123.042C241.66 148.217 249.35 197.651 249.527 234.498C249.538 236.695 250.025 239.265 250.801 242.417C251.534 245.399 252.593 249.14 253.439 252.899C255.185 260.666 256.385 269.91 253.862 280.488C250.496 294.603 238.335 305.281 223.647 313.057C208.862 320.884 190.787 326.168 174.196 329.172C167.628 330.609 156.13 331.589 143.679 331.739C131.157 331.889 117.345 331.204 106.185 329.187C89.5724 326.185 71.4643 320.896 56.6564 313.057C41.9681 305.281 29.8072 294.603 26.4406 280.488C23.9178 269.91 25.1179 260.666 26.8644 252.899C27.7096 249.14 28.7687 245.399 29.5021 242.417C30.2777 239.265 30.7649 236.695 30.7755 234.498C30.9535 197.651 38.6434 148.217 78.0177 123.042ZM140.445 107.065C146.127 107.081 151.531 107.376 156.668 107.931C158.59 108.139 159.98 109.865 159.773 111.787C159.565 113.708 157.838 115.098 155.916 114.89C151.01 114.36 145.822 114.076 140.338 114.064C140.318 114.064 140.298 114.062 140.278 114.062C140.224 114.062 140.37 114.063 140.155 114.063H140.148C139.932 114.063 140.082 114.062 140.024 114.062C140.004 114.062 139.984 114.064 139.965 114.064C133.1 114.08 126.7 114.52 120.735 115.337C118.82 115.6 117.055 114.26 116.792 112.345C116.53 110.43 117.869 108.665 119.784 108.403C126.058 107.543 132.744 107.085 139.867 107.065C139.897 107.064 139.927 107.062 139.957 107.062C140.003 107.062 140.048 107.063 140.079 107.063H140.225C140.256 107.063 140.3 107.062 140.346 107.062C140.379 107.062 140.412 107.064 140.445 107.065Z" fill="black"/>
<path d="M107.827 252.771C107.827 258.609 103.404 263.341 97.9485 263.341C92.4929 263.341 88.0703 258.609 88.0703 252.771C88.0703 246.934 92.4929 242.202 97.9485 242.202C103.404 242.202 107.827 246.934 107.827 252.771Z" fill="black"/>
<path d="M193.766 252.771C193.766 258.609 189.343 263.341 183.888 263.341C178.432 263.341 174.01 258.609 174.01 252.771C174.01 246.934 178.432 242.202 183.888 242.202C189.343 242.202 193.766 246.934 193.766 252.771Z" fill="black"/>
<path d="M120.785 262.354C122.598 261.888 124.446 262.931 124.997 264.698C125.004 264.714 125.016 264.743 125.038 264.781C125.113 264.915 125.289 265.182 125.644 265.485C126.301 266.047 127.946 267.048 131.658 267.048C135.37 267.048 137.015 266.047 137.672 265.485C138.026 265.182 138.202 264.915 138.277 264.781C138.307 264.728 138.322 264.693 138.325 264.686C138.323 264.691 138.317 264.708 138.307 264.737C138.303 264.752 138.297 264.771 138.291 264.793C138.287 264.804 138.284 264.817 138.281 264.83C138.279 264.836 138.277 264.843 138.275 264.85C138.274 264.853 138.273 264.857 138.272 264.86C138.272 264.862 138.271 264.864 138.271 264.865C138.635 263.461 139.827 262.426 141.269 262.265C142.708 262.103 144.097 262.845 144.764 264.129C144.762 264.125 144.76 264.12 144.758 264.116C144.754 264.108 144.75 264.102 144.747 264.096C144.74 264.084 144.736 264.076 144.734 264.072C144.73 264.065 144.734 264.073 144.747 264.093C144.772 264.134 144.832 264.225 144.928 264.35C145.123 264.601 145.462 264.98 145.971 265.373C146.948 266.125 148.704 267.048 151.661 267.048C154.617 267.048 156.374 266.125 157.35 265.373C157.86 264.98 158.198 264.601 158.393 264.35C158.49 264.225 158.549 264.134 158.575 264.093C158.587 264.073 158.592 264.065 158.588 264.072C158.585 264.076 158.581 264.084 158.575 264.096C158.572 264.102 158.567 264.108 158.563 264.116C158.561 264.12 158.56 264.125 158.557 264.129C159.445 262.42 161.548 261.749 163.262 262.63C164.981 263.514 165.659 265.624 164.775 267.343L161.663 265.743C164.634 267.271 164.768 267.342 164.773 267.347C164.773 267.347 164.772 267.349 164.771 267.351C164.77 267.353 164.769 267.357 164.767 267.359C164.764 267.365 164.761 267.371 164.757 267.377C164.751 267.389 164.744 267.403 164.736 267.418C164.72 267.448 164.7 267.483 164.678 267.522C164.634 267.6 164.578 267.696 164.508 267.807C164.37 268.029 164.177 268.314 163.924 268.639C163.421 269.288 162.671 270.11 161.623 270.918C159.481 272.568 156.236 274.048 151.661 274.048C147.224 274.048 144.041 272.654 141.899 271.066C139.739 272.775 136.469 274.048 131.658 274.048C126.603 274.048 123.247 272.646 121.094 270.806C120.045 269.908 119.364 268.974 118.933 268.207C118.719 267.825 118.568 267.486 118.463 267.214C118.41 267.078 118.369 266.958 118.337 266.858C118.321 266.807 118.306 266.761 118.295 266.721C118.289 266.701 118.284 266.682 118.279 266.664C118.277 266.655 118.274 266.646 118.272 266.638C118.271 266.634 118.27 266.63 118.269 266.626C118.269 266.624 118.268 266.621 118.267 266.62C118.267 266.617 118.288 266.609 121.656 265.743L118.266 266.614C117.785 264.742 118.913 262.835 120.785 262.354ZM125.044 264.867C125.043 264.866 125.043 264.862 125.043 264.86C125.042 264.857 125.041 264.853 125.04 264.85C125.038 264.843 125.037 264.836 125.035 264.83C125.031 264.817 125.027 264.804 125.024 264.793C125.018 264.771 125.012 264.752 125.007 264.737C125.007 264.735 125.006 264.733 125.006 264.731C125.019 264.776 125.032 264.821 125.044 264.867Z" fill="black"/>
<path d="M144.781 255.338C146.548 254.554 148.615 255.349 149.401 257.115C150.186 258.881 149.391 260.95 147.624 261.735L143.3 263.657C142.437 264.04 141.456 264.059 140.579 263.709L135.775 261.787C133.98 261.069 133.107 259.032 133.824 257.237C134.542 255.442 136.579 254.569 138.374 255.287L141.807 256.661L144.781 255.338Z" fill="black"/>
</svg>
