<svg width="391" height="307" viewBox="0 0 391 307" fill="none" xmlns="http://www.w3.org/2000/svg">
<path d="M143.682 9.43773C168.082 -4.16227 186.182 3.77106 192.182 9.43773C204.182 5.43773 230.082 -0.162259 237.682 9.43773C264.082 4.63772 289.015 31.4377 298.182 45.4377C330.682 57.1044 394.182 86.8377 388.182 112.438C382.182 138.038 359.015 149.771 348.182 152.438C351.015 160.771 353.982 180.338 343.182 191.938C357.682 231.438 315.182 248.938 312.682 257.438C310.182 265.938 301.182 285.438 246.182 290.438C206.182 315.638 161.182 300.938 143.682 290.438C123.682 290.438 80.8816 282.138 69.6816 248.938C30.6816 235.938 39.6816 183.938 45.1816 159.438C34.1816 157.438 -0.818358 121.938 2.18164 105.438C4.58164 92.2377 60.1816 59.9377 87.6816 45.4377C96.1816 39.1044 119.282 23.0377 143.682 9.43773Z" fill="white" stroke="#A5A5A5" stroke-width="4" stroke-linecap="round" stroke-linejoin="round" stroke-dasharray="8 8"/>
<path d="M44.2862 102.383C56.7906 95.3491 98.25 67.9318 111.322 58.7861C127.913 63.7747 114.25 140.792 84.0562 140.792C74.7859 140.792 58.9719 138.18 49.1563 130.867C39.886 123.961 26.2532 112.527 44.2862 102.383Z" fill="#F8EFE6"/>
<path d="M343.589 104.408C331.237 97.3738 290.283 69.9566 277.371 60.8109C260.982 65.7994 274.478 142.816 304.304 142.816C313.461 142.816 329.082 140.205 338.778 132.892C347.935 125.986 361.402 114.552 343.589 104.408Z" fill="#F8EFE6"/>
<path d="M151.444 179.263C151.444 185.414 146.911 190.4 141.319 190.4C135.728 190.4 131.195 185.414 131.195 179.263C131.195 173.113 135.728 168.127 141.319 168.127C146.911 168.127 151.444 173.113 151.444 179.263Z" fill="black"/>
<path d="M257.747 179.263C257.747 185.414 253.214 190.4 247.623 190.4C242.031 190.4 237.499 185.414 237.499 179.263C237.499 173.113 242.031 168.127 247.623 168.127C253.214 168.127 257.747 173.113 257.747 179.263Z" fill="black"/>
<path d="M108.686 59.3013C109.498 58.8302 110.469 58.7045 111.379 58.9575C112.349 59.2274 113.156 59.902 113.594 60.8091C117.414 68.7323 117.955 77.8905 116.549 86.936C115.14 95.9973 111.744 105.18 107.396 113.386C103.048 121.591 97.6723 128.965 92.1818 134.372C86.8595 139.613 80.8111 143.616 75.1095 143.784C56.564 144.329 46.7789 135.535 43.0753 131.523C39.8155 127.991 36.7385 123.429 35.1476 119.09C34.3552 116.929 33.8384 114.575 34.046 112.314C34.2643 109.937 35.3057 107.616 37.5656 106.034C41.676 103.156 86.639 73.7103 108.526 59.3999L108.686 59.3013ZM108.764 67.6089C85.8381 82.6036 45.362 109.12 41.5792 111.768C41.3082 111.958 41.0833 112.23 41.0167 112.954C40.9397 113.793 41.1193 115.046 41.7189 116.681C42.9121 119.935 45.4043 123.726 48.2189 126.775C51.0574 129.85 59.028 137.253 74.9035 136.787C77.8073 136.701 82.2 134.378 87.2707 129.384C92.1732 124.556 97.1427 117.787 101.211 110.109C105.278 102.434 108.367 93.9943 109.632 85.8608C110.655 79.2815 110.462 73.0535 108.764 67.6089Z" fill="black"/>
<path d="M281.501 59.3013C280.689 58.8302 279.718 58.7045 278.808 58.9575C277.838 59.2274 277.031 59.902 276.593 60.8091C272.773 68.7323 272.232 77.8905 273.638 86.936C275.047 95.9973 278.443 105.18 282.791 113.386C287.139 121.591 292.515 128.965 298.005 134.372C303.328 139.613 309.376 143.616 315.077 143.784C333.623 144.329 343.408 135.535 347.112 131.523C350.372 127.991 353.448 123.429 355.039 119.09C355.832 116.929 356.349 114.575 356.141 112.314C355.923 109.937 354.881 107.616 352.621 106.034C348.511 103.156 303.548 73.7103 281.661 59.3999L281.501 59.3013ZM281.423 67.6089C304.349 82.6036 344.825 109.12 348.608 111.768C348.879 111.958 349.104 112.23 349.17 112.954C349.247 113.793 349.068 115.046 348.468 116.681C347.275 119.935 344.783 123.726 341.968 126.775C339.13 129.85 331.159 137.253 315.284 136.787C312.38 136.701 307.987 134.378 302.916 129.384C298.014 124.556 293.044 117.787 288.976 110.109C284.909 102.434 281.82 93.9943 280.555 85.8608C279.532 79.2815 279.725 73.0535 281.423 67.6089Z" fill="black"/>
<path d="M195.484 38.247C202.544 32.3546 221.075 24.1052 238.723 38.247C256.372 38.2474 293.434 61.5072 293.434 82.9061C300.494 94.071 333.144 129.426 320.79 179.667C326.967 214.092 306.671 231.769 293.434 232.7C293.434 250.377 259.019 263.403 238.723 255.96C228.134 265.636 205.485 266.814 195.484 266.194C185.483 266.815 162.834 265.636 152.244 255.96C131.948 263.403 97.5332 250.378 97.5332 232.7C84.2967 231.77 64.0006 214.092 70.1777 179.667C57.8235 129.426 90.4737 94.0709 97.5332 82.9061C97.5334 61.507 134.596 38.247 152.244 38.247C169.893 24.1054 188.424 32.3546 195.484 38.247Z" fill="#888886"/>
<path d="M156.816 111.432C161.64 115.596 169.468 119.363 180.845 118.808C184.014 123.799 202.495 132.119 214.112 123.245C220.479 124.788 238.651 125.375 243.361 114.833C243.361 121.581 247.005 124.63 257.94 133.228C266.388 139.871 276.334 140.438 279.062 144.321C285.602 153.629 288.749 161.534 291.367 172.052C294.215 183.496 295.186 195.08 295.246 205.549C295.294 213.974 295.81 220.235 291.367 235.958C284.577 259.985 263.627 264.572 238.768 262.864C230.644 268.06 227.09 274.41 200.18 274.41C187.865 274.753 161.084 270.706 152.453 262.864C135.433 266.331 111.201 260.442 100.317 238.489C95.8734 222.766 94.9115 213.974 94.9597 205.549C95.0138 196.094 95.8107 185.729 98.0625 175.38C100.216 165.483 103.7 155.6 109.136 146.539C114.045 138.358 115.368 147.887 135.433 133.228C155.499 118.569 152.331 118.808 156.235 111.597C156.428 111.541 156.622 111.487 156.816 111.432Z" fill="#F8EFE6"/>
<path d="M241.042 262.281C240.638 200.726 298.075 183.819 320.011 180.782C325.073 188.544 319.942 218.747 311.405 223.809C306.535 226.697 302.8 229.884 294.194 232.921C291.157 251.145 257.998 269.284 241.042 262.281Z" fill="#E8B2B4"/>
<path d="M150.916 262.281C151.32 200.726 93.883 183.819 71.9474 180.782C66.8853 188.544 72.0157 218.747 80.5529 223.809C85.4234 226.697 89.1585 229.884 97.764 232.921C100.801 251.145 133.96 269.284 150.916 262.281Z" fill="#E8B2B4"/>
<path d="M317.606 124.337C319.441 123.732 321.42 124.731 322.025 126.567C326.959 141.546 329.2 159.515 324.362 179.828C330.027 213.151 311.869 232.625 296.665 235.832C295.896 240.258 293.538 244.447 290.405 248.126C286.527 252.68 281.225 256.747 275.361 259.935C264.447 265.867 250.664 269.218 239.487 266.031C236.451 268.392 232.851 270.181 229.101 271.54C216.066 279.025 202.126 280.54 190.104 279.456C178.181 278.381 167.934 274.735 161.925 271.562C158.153 270.2 154.531 268.405 151.48 266.031C140.302 269.217 126.519 265.867 115.606 259.935C109.741 256.747 104.44 252.68 100.563 248.126C97.4296 244.447 95.0699 240.258 94.301 235.832C79.0978 232.624 60.9417 213.151 66.6057 179.83C61.7665 159.516 64.0068 141.547 68.9416 126.567C69.5464 124.731 71.5256 123.732 73.3615 124.337C75.1975 124.942 76.1958 126.921 75.591 128.757C70.9387 142.88 68.8734 159.748 73.5764 178.88C73.6934 179.356 73.7088 179.852 73.6223 180.334C67.7257 213.208 87.0818 228.522 97.7785 229.275C99.6117 229.403 101.033 230.928 101.033 232.766C101.033 236.054 102.654 239.785 105.892 243.588C109.101 247.357 113.673 250.916 118.949 253.784C129.667 259.61 142.236 262.05 151.038 258.821C152.265 258.371 153.641 258.643 154.606 259.525C156.936 261.654 160.082 263.399 163.775 264.785L164.52 265.058L164.764 265.155C164.844 265.191 164.923 265.229 165 265.271C170.174 268.042 179.624 271.483 190.733 272.484C201.809 273.483 214.317 272.04 225.861 265.329L226.148 265.18C226.245 265.134 226.346 265.094 226.447 265.058C230.463 263.631 233.876 261.796 236.362 259.525L236.547 259.366C237.497 258.612 238.778 258.4 239.928 258.821C248.73 262.05 261.3 259.61 272.018 253.784C277.294 250.916 281.865 247.357 285.074 243.588C288.313 239.785 289.934 236.054 289.934 232.766C289.934 230.928 291.356 229.403 293.189 229.275C303.886 228.522 323.241 213.207 317.345 180.334C317.258 179.852 317.274 179.356 317.391 178.88C322.094 159.748 320.029 142.88 315.376 128.757C314.771 126.921 315.77 124.942 317.606 124.337ZM289.934 82.923C289.934 78.5716 288.036 73.8142 284.53 68.962C281.045 64.1367 276.145 59.4667 270.614 55.3722C265.093 51.2848 259.047 47.8482 253.356 45.4445C247.606 43.0158 242.473 41.7492 238.723 41.7491C237.927 41.7491 237.155 41.4782 236.534 40.9806C220.719 28.3032 204.117 35.6008 197.727 40.9366C196.428 42.0209 194.539 42.0208 193.24 40.9366C186.85 35.601 170.249 28.3033 154.433 40.9806C153.812 41.4782 153.04 41.7491 152.244 41.7491C148.494 41.7491 143.362 43.0148 137.612 45.4435C131.92 47.8472 125.874 51.2847 120.353 55.3722C114.822 59.4668 109.923 64.1367 106.437 68.962C102.932 73.8142 101.033 78.5715 101.033 82.923C101.033 84.856 99.4654 86.423 97.5324 86.423C95.5997 86.4227 94.0334 84.8558 94.0334 82.923C94.0335 76.5715 96.7675 70.3931 100.763 64.8624C104.778 59.3049 110.247 54.1442 116.188 49.7462C122.138 45.3411 128.666 41.6231 134.888 38.9952C140.555 36.6018 146.185 35.0205 150.999 34.7814C168.532 21.4617 186.678 27.831 195.484 33.8722C204.289 27.8311 222.434 21.4621 239.967 34.7814C244.782 35.0204 250.412 36.6016 256.079 38.9952C262.301 41.6231 268.829 45.3411 274.78 49.7462C280.72 54.1442 286.189 59.3049 290.204 64.8624C294.2 70.3931 296.934 76.5716 296.934 82.923C296.934 84.856 295.367 86.423 293.434 86.423C291.501 86.4228 289.934 84.8559 289.934 82.923Z" fill="black"/>
<path d="M146.24 82.6183C146.497 80.7026 148.259 79.3583 150.174 79.6154C152.09 79.8726 153.435 81.6342 153.177 83.5499C152.436 89.0724 153.122 97.2405 157.331 103.798C161.37 110.091 168.996 115.446 183.408 115.073L183.581 115.072C184.442 115.093 185.269 115.431 185.899 116.025C195.08 124.674 207.496 124.567 213.439 119.417L213.617 119.274C214.523 118.586 215.713 118.379 216.805 118.731C219.365 119.556 224.841 120.215 229.916 119.599C232.43 119.294 234.587 118.703 236.15 117.854C237.669 117.028 238.402 116.096 238.673 115.084C239.172 113.217 241.09 112.108 242.958 112.607C244.825 113.106 245.935 115.023 245.436 116.891C244.531 120.277 242.161 122.554 239.494 124.004C236.87 125.43 233.757 126.184 230.759 126.548C225.717 127.16 220.272 126.745 216.51 125.89C207.379 132.356 192.72 131.199 182.174 122.09C166.473 122.131 156.807 115.941 151.44 107.579C146.084 99.2337 145.349 89.2582 146.24 82.6183Z" fill="black"/>
<path d="M155.283 111.138C156.004 109.345 158.042 108.476 159.836 109.197C161.629 109.918 162.499 111.956 161.778 113.75C157.77 123.719 146.975 132.126 136.031 138.478C124.894 144.942 112.749 149.754 104.914 152.228C103.071 152.81 101.104 151.788 100.522 149.945C99.9402 148.102 100.963 146.135 102.806 145.553C110.25 143.203 121.906 138.582 132.517 132.423C143.322 126.153 152.223 118.75 155.283 111.138Z" fill="black"/>
<path d="M239.844 113.436C241.533 112.495 243.665 113.101 244.606 114.79C247.296 119.616 252.531 126.695 259.326 132.027C266.127 137.364 274.03 140.615 282.343 138.883C284.236 138.489 286.09 139.704 286.484 141.596C286.878 143.489 285.663 145.343 283.771 145.737C272.646 148.054 262.664 143.544 255.004 137.534C247.338 131.518 241.537 123.664 238.491 118.198C237.55 116.509 238.156 114.377 239.844 113.436Z" fill="black"/>
<path d="M160.11 197.487C160.11 203.637 155.451 208.623 149.702 208.623C143.954 208.623 139.294 203.637 139.294 197.487C139.294 191.336 143.954 186.35 149.702 186.35C155.451 186.35 160.11 191.336 160.11 197.487Z" fill="black"/>
<path d="M250.66 197.487C250.66 203.637 246 208.623 240.252 208.623C234.504 208.623 229.844 203.637 229.844 197.487C229.844 191.336 234.504 186.35 240.252 186.35C246 186.35 250.66 191.336 250.66 197.487Z" fill="black"/>
<path d="M173.81 207.765C175.627 207.298 177.477 208.346 178.024 210.119C178.032 210.137 178.05 210.177 178.081 210.232C178.169 210.39 178.369 210.69 178.761 211.025C179.494 211.652 181.272 212.717 185.219 212.717C189.166 212.717 190.945 211.652 191.677 211.025C192.07 210.69 192.269 210.39 192.357 210.232C192.401 210.154 192.42 210.107 192.42 210.107C192.419 210.109 192.414 210.123 192.405 210.151C192.4 210.165 192.395 210.183 192.388 210.205C192.385 210.216 192.382 210.228 192.379 210.241C192.377 210.247 192.375 210.254 192.374 210.261C192.373 210.264 192.372 210.268 192.371 210.271C192.37 210.273 192.369 210.276 192.369 210.277V210.278C192.732 208.873 193.925 207.837 195.368 207.676C196.811 207.514 198.204 208.26 198.869 209.551C198.869 209.55 198.867 209.548 198.867 209.547C198.866 209.544 198.864 209.542 198.863 209.54C198.861 209.536 198.858 209.531 198.856 209.527C198.852 209.52 198.848 209.513 198.845 209.508C198.839 209.497 198.836 209.489 198.835 209.486C198.837 209.49 198.842 209.5 198.851 209.515C198.881 209.562 198.948 209.663 199.054 209.801C199.268 210.076 199.635 210.488 200.186 210.913C201.246 211.73 203.137 212.717 206.296 212.717C209.454 212.717 211.345 211.73 212.405 210.913C212.956 210.488 213.323 210.076 213.537 209.801C213.643 209.663 213.71 209.562 213.74 209.515C213.749 209.5 213.754 209.49 213.757 209.486L213.74 209.519C214.634 207.826 216.726 207.164 218.433 208.041C220.152 208.925 220.83 211.035 219.947 212.754L216.834 211.154C219.863 212.711 219.944 212.755 219.945 212.758C219.945 212.758 219.943 212.76 219.942 212.762C219.941 212.764 219.94 212.768 219.938 212.77C219.935 212.776 219.932 212.782 219.928 212.788C219.922 212.801 219.915 212.815 219.907 212.83C219.891 212.86 219.871 212.896 219.848 212.935C219.803 213.015 219.744 213.114 219.673 213.228C219.529 213.457 219.331 213.752 219.069 214.09C218.547 214.763 217.767 215.618 216.676 216.458C214.451 218.172 211.073 219.717 206.296 219.717C201.582 219.717 198.231 218.212 196.006 216.525C193.771 218.34 190.339 219.717 185.219 219.717C179.93 219.717 176.439 218.25 174.212 216.346C173.124 215.416 172.42 214.45 171.976 213.658C171.755 213.264 171.6 212.915 171.492 212.636C171.438 212.496 171.396 212.374 171.363 212.271C171.347 212.22 171.333 212.174 171.321 212.133C171.315 212.112 171.309 212.093 171.304 212.075C171.302 212.066 171.3 212.057 171.298 212.049C171.296 212.045 171.296 212.041 171.295 212.037C171.294 212.035 171.293 212.032 171.293 212.031C171.292 212.028 171.314 212.02 174.681 211.154L171.292 212.025C170.811 210.153 171.938 208.246 173.81 207.765ZM178.069 210.278C178.069 210.277 178.069 210.273 178.068 210.271C178.067 210.268 178.066 210.264 178.065 210.261C178.063 210.254 178.062 210.247 178.06 210.241C178.057 210.228 178.054 210.216 178.05 210.205C178.044 210.183 178.038 210.165 178.034 210.151C178.033 210.148 178.032 210.144 178.031 210.142C178.045 210.187 178.057 210.232 178.069 210.278Z" fill="black"/>
<path d="M189.69 204.431C194.741 207.34 196.196 207.302 200.597 204.431C206.146 200.812 199.449 198.499 195.43 198.499C191.412 198.499 184.638 201.523 189.69 204.431Z" fill="black"/>
</svg>
