<svg width="281" height="277" viewBox="0 0 281 277" fill="none" xmlns="http://www.w3.org/2000/svg">
<path d="M7.23965 150.698C7.23965 22.1977 95.0731 -2.8025 142.74 2.6975C221.74 -1.30236 273.74 58.6974 271.24 150.698C292.24 208.698 271.239 274.198 136.239 274.198C12.0126 274.198 -10.261 212.198 7.23965 150.698Z" fill="white" stroke="#A5A5A5" stroke-width="4" stroke-linecap="round" stroke-linejoin="round" stroke-dasharray="8 8"/>
<path d="M141.225 24.6996C235.411 24.9149 250.952 100.39 251.21 153.698C251.263 164.682 260.71 180.198 255.821 200.698C247.133 237.124 174.284 252.799 141.023 251.703C107.763 252.799 34.9131 237.124 26.2252 200.698C21.3359 180.198 30.7826 164.682 30.8356 153.698C31.0929 100.39 46.6348 24.9147 140.821 24.6996V24.6976C140.888 24.6976 140.955 24.6985 141.022 24.6986C141.09 24.6985 141.158 24.6976 141.225 24.6976V24.6996Z" fill="#888886"/>
<path d="M98.8203 165.698C98.8203 171.773 94.3432 176.698 88.8203 176.698C83.2975 176.698 78.8203 171.773 78.8203 165.698C78.8203 159.622 83.2975 154.698 88.8203 154.698C94.3432 154.698 98.8203 159.622 98.8203 165.698Z" fill="black"/>
<path d="M203.82 165.698C203.82 171.773 199.343 176.698 193.82 176.698C188.297 176.698 183.82 171.773 183.82 165.698C183.82 159.622 188.297 154.698 193.82 154.698C199.343 154.698 203.82 159.622 203.82 165.698Z" fill="black"/>
<path d="M141.161 24.6996C235.347 24.9149 250.889 100.39 251.146 153.698C251.199 164.682 260.646 180.198 255.757 200.698C247.069 237.124 174.219 252.799 140.959 251.703C107.698 252.799 34.8487 237.124 26.1608 200.698C21.2715 180.198 30.7181 164.682 30.7711 153.698C31.0285 100.39 46.5704 24.9147 140.757 24.6996V24.6976C140.824 24.6976 140.891 24.6985 140.958 24.6986C141.025 24.6985 141.093 24.6976 141.161 24.6976V24.6996Z" fill="#888886"/>
<path d="M110.234 232.735C82.2206 235.739 44.4138 215.962 27.7393 205.698C31.7393 227.477 83.221 251.135 140.248 252.637C197.275 254.139 260.742 219.222 254.239 201.198C224.078 232.735 191.272 232.735 172.763 232.735C154.254 232.735 150.253 227.102 140.248 227.477C130.243 227.853 127.242 232.735 110.234 232.735Z" fill="#9D9D9D"/>
<path d="M94.6746 246.698C95.0746 185.898 51.8412 164.698 30.1746 161.698C25.1745 169.364 22.7826 195.198 26.6745 203.198C35.6746 221.698 46.6746 231.698 94.6746 246.698Z" fill="#E8B2B4"/>
<path d="M186.741 246.698C186.341 185.898 229.575 164.698 251.241 161.698C256.241 169.364 258.633 195.198 254.741 203.198C245.741 221.698 234.741 231.698 186.741 246.698Z" fill="#E8B2B4"/>
<path d="M141.263 21.2006C189.425 21.3358 217.999 40.8084 234.359 67.4574C250.554 93.8366 254.517 126.811 254.646 153.681C254.658 155.986 255.168 158.674 255.976 161.956C256.741 165.067 257.84 168.95 258.72 172.862C260.535 180.934 261.779 190.531 259.161 201.509C256.739 211.664 249.912 220.099 240.962 226.965C232.004 233.837 220.679 239.328 208.744 243.569C184.957 252.021 158.061 255.746 140.958 255.203C123.855 255.746 96.9594 252.021 73.1729 243.569C61.2378 239.328 49.914 233.837 40.9561 226.965C32.0057 220.099 25.178 211.665 22.7559 201.509C20.1376 190.531 21.383 180.935 23.1983 172.862C24.0778 168.95 25.177 165.067 25.9424 161.956C26.7499 158.674 27.2603 155.986 27.2715 153.681C27.4012 126.811 31.3633 93.8366 47.5576 67.4574C63.9177 40.8083 92.4924 21.3358 140.654 21.2006C140.688 21.1996 140.723 21.1976 140.757 21.1976C140.804 21.1976 140.849 21.1984 140.882 21.1986H141.035C141.068 21.1984 141.114 21.1976 141.161 21.1976C141.195 21.1976 141.229 21.1996 141.263 21.2006ZM140.962 28.1986H140.954C140.733 28.1984 140.886 28.1978 140.824 28.1976C140.804 28.198 140.785 28.1995 140.765 28.1996C94.7977 28.3046 68.5346 46.6679 53.5235 71.1195C38.336 95.8585 34.3991 127.277 34.2715 153.714C34.2561 156.902 33.565 160.273 32.7393 163.629C31.8713 167.157 30.9049 170.494 30.0274 174.397C28.3284 181.953 27.2946 190.365 29.5654 199.886C31.4873 207.943 37.0244 215.128 45.2158 221.411C53.3999 227.689 63.996 232.879 75.5166 236.973C98.5881 245.171 124.68 248.737 140.844 248.204H141.074C157.238 248.737 183.329 245.171 206.4 236.973C217.921 232.879 228.517 227.69 236.701 221.411C244.893 215.128 250.43 207.944 252.352 199.886C254.622 190.365 253.589 181.953 251.89 174.397C251.012 170.494 250.046 167.157 249.178 163.629C248.352 160.273 247.662 156.902 247.646 153.714C247.519 127.277 243.581 95.8594 228.394 71.1205C213.382 46.6687 187.119 28.3046 141.152 28.1996C141.132 28.1995 141.113 28.198 141.093 28.1976C141.035 28.1978 141.176 28.1984 140.962 28.1986Z" fill="black"/>
<path d="M105.3 172.698C105.3 178.773 100.697 183.698 95.0196 183.698C89.3419 183.698 84.7393 178.773 84.7393 172.698C84.7393 166.622 89.3419 161.698 95.0196 161.698C100.697 161.698 105.3 166.622 105.3 172.698Z" fill="black"/>
<path d="M194.739 172.698C194.739 178.773 190.137 183.698 184.459 183.698C178.781 183.698 174.179 178.773 174.179 172.698C174.179 166.622 178.781 161.698 184.459 161.698C190.137 161.698 194.739 166.622 194.739 172.698Z" fill="black"/>
<path d="M118.822 190.808C120.638 190.341 122.486 191.389 123.035 193.161C123.043 193.178 123.06 193.215 123.089 193.266C123.174 193.418 123.367 193.71 123.751 194.038C124.465 194.648 126.212 195.698 130.102 195.698C133.992 195.698 135.739 194.648 136.453 194.038C136.836 193.71 137.03 193.418 137.115 193.266C137.15 193.204 137.167 193.164 137.173 193.152C137.585 191.834 138.737 190.874 140.121 190.719C141.56 190.558 142.949 191.3 143.616 192.583C143.614 192.579 143.612 192.575 143.61 192.571C143.606 192.563 143.602 192.556 143.599 192.55C143.593 192.539 143.589 192.532 143.588 192.529C143.59 192.532 143.595 192.541 143.603 192.555C143.632 192.601 143.696 192.7 143.8 192.834C144.01 193.104 144.37 193.508 144.912 193.925C145.952 194.726 147.81 195.698 150.92 195.698C154.029 195.698 155.888 194.726 156.927 193.925C157.469 193.508 157.83 193.104 158.039 192.834C158.143 192.7 158.207 192.601 158.236 192.555C158.25 192.533 158.255 192.524 158.253 192.529C158.251 192.532 158.246 192.539 158.24 192.55C158.237 192.556 158.233 192.563 158.229 192.571C158.227 192.575 158.226 192.579 158.223 192.583C159.111 190.875 161.214 190.203 162.928 191.084C164.647 191.968 165.325 194.078 164.441 195.797L161.329 194.198C164.29 195.72 164.433 195.796 164.439 195.801C164.439 195.802 164.438 195.804 164.437 195.805C164.436 195.808 164.435 195.811 164.433 195.814C164.43 195.82 164.427 195.825 164.423 195.831C164.417 195.844 164.409 195.858 164.401 195.873C164.385 195.904 164.366 195.939 164.343 195.979C164.298 196.058 164.241 196.156 164.17 196.27C164.027 196.497 163.83 196.789 163.571 197.123C163.053 197.791 162.281 198.637 161.2 199.47C158.995 201.169 155.648 202.698 150.92 202.698C146.273 202.698 142.962 201.22 140.757 199.557C138.539 201.347 135.147 202.698 130.102 202.698C124.869 202.698 121.41 201.247 119.201 199.358C118.123 198.436 117.425 197.477 116.984 196.692C116.765 196.301 116.61 195.954 116.503 195.677C116.449 195.538 116.406 195.416 116.374 195.314C116.358 195.263 116.344 195.217 116.333 195.176C116.327 195.156 116.321 195.136 116.316 195.119C116.314 195.11 116.311 195.1 116.309 195.092C116.308 195.088 116.307 195.084 116.306 195.081C116.306 195.079 116.305 195.076 116.304 195.075C116.304 195.072 116.326 195.063 119.693 194.198L116.303 195.069C115.822 193.197 116.95 191.289 118.822 190.808ZM123.081 193.322C123.08 193.321 123.08 193.317 123.08 193.315C123.079 193.311 123.078 193.307 123.077 193.304C123.075 193.297 123.074 193.291 123.072 193.285C123.068 193.272 123.064 193.259 123.061 193.248L123.081 193.322ZM137.159 193.194C137.154 193.208 137.149 193.226 137.142 193.248C137.139 193.259 137.136 193.272 137.132 193.285C137.131 193.291 137.128 193.297 137.127 193.304C137.126 193.308 137.125 193.311 137.124 193.315C137.123 193.316 137.123 193.319 137.123 193.32C137.137 193.263 137.155 193.208 137.173 193.153C137.17 193.159 137.166 193.173 137.159 193.194Z" fill="black"/>
</svg>
