<svg width="306" height="323" viewBox="0 0 306 323" fill="none" xmlns="http://www.w3.org/2000/svg">
<path d="M206.627 2.23164C200.63 0.217302 185.139 11.2962 171.647 37.4826C165.817 33.1182 149.659 29.9289 131.669 37.4825C124.673 27.5786 107.882 2.63445 98.6875 2.23159C83.1963 1.55284 69.2042 18.8498 60.709 50.5756C30.726 48.9642 14.9017 64.676 10.7375 70.2154C5.74026 74.9155 1.74242 93.5817 25.7288 130.645C14.5352 138.3 11.0706 171.771 10.7375 187.55C-11.4166 233.712 -1.25576 321 153.157 321C316.065 321 316.065 230.355 293.078 187.55C294.077 163.378 289.08 139.206 285.582 126.113C305.571 106.473 300.074 72.7333 299.075 70.2154C298.075 67.6975 290.079 49.0649 244.105 50.5756C237.609 17.8425 212.623 4.24597 206.627 2.23164Z" fill="white" stroke="#A5A5A5" stroke-width="4" stroke-linecap="round" stroke-linejoin="round" stroke-dasharray="8 8"/>
<path d="M30.8208 83.6755C36.1578 66.6755 73.1574 73.5031 84.4878 74.6181C104.751 85.4534 90.3267 139.585 75.0899 138.512C52.042 136.888 24.5419 103.676 30.8208 83.6755Z" fill="#888886"/>
<path d="M273.475 83.6755C268.138 66.6755 231.138 73.5031 219.808 74.6181C199.544 85.4534 213.969 139.585 229.206 138.512C252.253 136.888 279.753 103.676 273.475 83.6755Z" fill="#888886"/>
<path d="M30.8205 86.1755C27.2205 100.976 40.9871 117.676 48.3205 124.176C65.9205 124.176 74.3204 102.509 76.3204 91.6755C66.9871 87.8422 44.8205 81.3755 30.8205 86.1755Z" fill="#FACDC8"/>
<path d="M275.731 86.1755C279.331 100.976 265.565 117.676 258.231 124.176C240.631 124.176 232.231 102.509 230.231 91.6755C239.565 87.8422 261.731 81.3755 275.731 86.1755Z" fill="#FACDC8"/>
<path d="M100.337 31.3288C109.073 31.9561 109.82 46.6755 125.32 60.1755C118.921 79.3755 96.2567 79.1677 85.7248 76.6638C71.6017 50.5294 89.4156 30.5446 100.337 31.3288Z" fill="#F9DFB9"/>
<path d="M205.919 31.3288C197.182 31.9561 196.435 46.6755 180.935 60.1755C187.87 68.1677 205.499 82.6545 220.531 76.6638C234.654 50.5294 216.84 30.5446 205.919 31.3288Z" fill="#F9DFB9"/>
<path d="M153.034 58.1776C252.325 58.4042 268.708 137.848 268.98 193.96C269.036 205.522 278.995 221.854 273.841 243.432C264.682 281.774 187.884 298.273 152.821 297.119C117.758 298.273 40.9596 281.774 31.8009 243.432C26.6465 221.854 36.6052 205.522 36.6611 193.96C36.9324 137.848 53.3166 58.404 152.608 58.1776V58.1755C152.678 58.1755 152.749 58.1765 152.82 58.1766C152.891 58.1765 152.963 58.1755 153.034 58.1755V58.1776Z" fill="#888886"/>
<path d="M38.5811 71.6757C33.5701 73.6512 29.235 77.0431 27.4819 82.6271C25.6135 88.5786 26.3354 95.2133 28.5395 101.596C30.7539 108.008 34.5526 114.44 39.2446 120.196C48.5081 131.561 61.9491 141.095 74.8444 142.003C77.8573 142.215 80.5759 141.034 82.8369 139.29C85.0868 137.554 87.0809 135.12 88.8051 132.358C92.2572 126.826 94.9821 119.403 96.5322 111.724C98.0822 104.044 98.5166 95.8177 97.1485 88.6663C95.7889 81.5595 92.5151 74.9411 86.1381 71.5312L85.9842 71.4542C85.6213 71.2825 85.2306 71.1744 84.8302 71.135C79.4953 70.6099 66.9392 68.5691 55.3205 68.8548C49.4845 68.9984 43.5327 69.7237 38.5811 71.6757ZM34.1604 84.724C35.0758 81.8082 37.3664 79.6784 41.1477 78.1877C44.9886 76.6735 49.9957 75.9878 55.4929 75.8526C66.0912 75.592 77.206 77.3557 83.3862 78.0207C86.8383 80.1358 89.1723 84.2248 90.2735 89.9812C91.4237 95.9932 91.0987 103.264 89.671 110.338C88.2433 117.411 85.7708 123.997 82.8665 128.652C81.4122 130.982 79.9375 132.686 78.5613 133.748C77.1964 134.801 76.1319 135.076 75.3358 135.02C65.1833 134.305 53.3492 126.421 44.6704 115.773C40.3914 110.524 37.0524 104.801 35.1563 99.3102C33.2498 93.7895 32.8895 88.7725 34.1604 84.724Z" fill="black"/>
<path d="M265.714 71.6757C270.725 73.6512 275.06 77.0431 276.813 82.6271C278.681 88.5786 277.96 95.2133 275.755 101.596C273.541 108.008 269.742 114.44 265.05 120.196C255.787 131.561 242.346 141.095 229.45 142.003C226.438 142.215 223.719 141.034 221.458 139.29C219.208 137.554 217.214 135.12 215.49 132.358C212.038 126.826 209.313 119.403 207.763 111.724C206.213 104.044 205.778 95.8177 207.146 88.6663C208.506 81.5595 211.78 74.9411 218.157 71.5312L218.311 71.4542C218.674 71.2825 219.064 71.1744 219.465 71.135C224.8 70.6099 237.356 68.5691 248.974 68.8548C254.81 68.9984 260.762 69.7237 265.714 71.6757ZM270.134 84.724C269.219 81.8082 266.928 79.6784 263.147 78.1877C259.306 76.6735 254.299 75.9878 248.802 75.8526C238.204 75.592 227.089 77.3557 220.909 78.0207C217.457 80.1358 215.123 84.2248 214.021 89.9812C212.871 95.9932 213.196 103.264 214.624 110.338C216.052 117.411 218.524 123.997 221.428 128.652C222.883 130.982 224.357 132.686 225.734 133.748C227.099 134.801 228.163 135.076 228.959 135.02C239.112 134.305 250.946 126.421 259.625 115.773C263.904 110.524 267.242 104.801 269.139 99.3102C271.045 93.7895 271.405 88.7725 270.134 84.724Z" fill="black"/>
<path d="M100.587 27.8374C103.914 28.0763 106.376 29.7109 108.326 31.8357C110.162 33.8374 111.745 36.5022 113.306 39.1449C116.523 44.5916 120.34 51.1955 127.62 57.536C129.077 58.8055 129.229 61.0164 127.96 62.474C126.69 63.9316 124.479 64.0846 123.022 62.8153C114.802 55.6559 110.494 48.15 107.278 42.7051C105.623 39.9021 104.413 37.9251 103.168 36.5686C102.036 35.3352 101.127 34.8947 100.085 34.8199C98.4332 34.7014 96.0765 35.3766 93.5194 37.2368C91.0128 39.0604 88.5622 41.8553 86.7738 45.4579C83.247 52.5625 82.2606 62.8914 88.8037 74.9994C89.7227 76.7 89.089 78.8236 87.3885 79.7426C85.6879 80.6616 83.5643 80.028 82.6454 78.3274C75.0658 64.3014 75.9244 51.5708 80.5038 42.3456C82.7686 37.7834 85.9372 34.0958 89.4007 31.5761C92.8135 29.0933 96.779 27.564 100.587 27.8374Z" fill="black"/>
<path d="M94.7674 46.7966C94.0058 45.0201 91.9483 44.1973 90.1717 44.9587L79.6716 49.4587C77.8951 50.2202 77.0723 52.2778 77.8338 54.0544C78.5953 55.831 80.6528 56.6537 82.4295 55.8923L92.9295 51.3923C94.706 50.6308 95.5288 48.5732 94.7674 46.7966Z" fill="black"/>
<path d="M94.7674 56.7966C94.0058 55.0201 91.9483 54.1973 90.1717 54.9587L79.6716 59.4587C77.8951 60.2202 77.0723 62.2778 77.8338 64.0544C78.5953 65.831 80.6528 66.6537 82.4295 65.8923L92.9295 61.3923C94.706 60.6308 95.5288 58.5732 94.7674 56.7966Z" fill="black"/>
<path d="M205.668 27.8374C202.342 28.0763 199.88 29.7109 197.93 31.8357C196.093 33.8374 194.51 36.5022 192.949 39.1449C189.732 44.5916 185.916 51.1955 178.636 57.536C177.178 58.8055 177.026 61.0164 178.295 62.474C179.565 63.9316 181.776 64.0846 183.234 62.8153C191.454 55.6559 195.761 48.15 198.977 42.7051C200.633 39.9021 201.843 37.9251 203.087 36.5686C204.219 35.3352 205.128 34.8947 206.17 34.8199C207.822 34.7014 210.179 35.3766 212.736 37.2368C215.243 39.0604 217.693 41.8553 219.482 45.4579C223.008 52.5625 223.995 62.8914 217.452 74.9994C216.533 76.7 217.166 78.8236 218.867 79.7426C220.567 80.6616 222.691 80.028 223.61 78.3274C231.19 64.3014 230.331 51.5708 225.752 42.3456C223.487 37.7834 220.318 34.0958 216.855 31.5761C213.442 29.0933 209.476 27.564 205.668 27.8374Z" fill="black"/>
<path d="M211.488 46.7966C212.25 45.0201 214.307 44.1973 216.084 44.9587L226.584 49.4587C228.36 50.2202 229.183 52.2778 228.422 54.0544C227.66 55.831 225.603 56.6537 223.826 55.8923L213.326 51.3923C211.549 50.6308 210.727 48.5732 211.488 46.7966Z" fill="black"/>
<path d="M211.488 56.7966C212.25 55.0201 214.307 54.1973 216.084 54.9587L226.584 59.4587C228.36 60.2202 229.183 62.2778 228.422 64.0544C227.66 65.831 225.603 66.6537 223.826 65.8923L213.326 61.3923C211.549 60.6308 210.727 58.5732 211.488 56.7966Z" fill="black"/>
<path d="M153.002 57.7144C252.358 57.9414 268.752 137.559 269.023 193.793C269.079 205.381 279.045 221.748 273.888 243.373C264.723 281.798 187.874 298.334 152.788 297.177C117.702 298.334 40.8539 281.798 31.6894 243.373C26.5319 221.748 36.4975 205.381 36.5536 193.793C36.8251 137.559 53.2194 57.9414 152.575 57.7144V57.7124C152.646 57.7124 152.717 57.7133 152.788 57.7134C152.859 57.7133 152.931 57.7124 153.002 57.7124V57.7144Z" fill="#888886"/>
<path d="M87.7209 270.148C76.6998 259.705 84.3219 231.363 99.8206 229.676C115.319 227.988 127.821 207.676 153.821 207.676C179.821 207.676 182.821 222.397 201.821 226.676C220.821 230.954 227.263 254.602 220.821 265.176C212.767 278.392 190.898 292.176 156.173 292.176C119.624 292.176 103.51 285.108 87.7209 270.148Z" fill="#D5D5D5"/>
<path d="M218.821 286.676C210.821 222.176 247.709 204.458 270.634 201.176C274.338 209.176 277.938 236.923 273.821 245.676C264.298 265.917 245.321 277.676 218.821 286.676Z" fill="#E8B2B4"/>
<path d="M89.3207 287.176C98.3207 234.176 57.7566 204.458 34.8315 201.176C31.1282 209.176 27.5274 236.923 31.6453 245.676C41.168 265.917 58.8207 275.676 89.3207 287.176Z" fill="#E8B2B4"/>
<path d="M250.378 108.407C252.092 107.515 254.206 108.181 255.098 109.896C268.86 136.348 272.398 167.744 272.524 193.776C272.536 196.231 273.08 199.086 273.932 202.551C274.742 205.844 275.898 209.925 276.826 214.051C278.738 222.553 280.045 232.644 277.293 244.185C273.649 259.462 260.517 271.082 244.531 279.59C228.428 288.161 208.709 293.97 190.553 297.294C179.515 299.315 164.272 299.97 150.101 299.807C135.938 299.645 122.492 298.662 115.024 297.294C96.8686 293.97 77.1493 288.161 61.0465 279.59C45.0609 271.082 31.9286 259.462 28.2848 244.185C25.5322 232.644 26.8399 222.553 28.7516 214.051C29.6794 209.925 30.835 205.844 31.6452 202.551C32.4976 199.086 33.0415 196.231 33.0534 193.776C33.1791 167.744 36.7175 136.348 50.4791 109.896C51.3714 108.181 53.4851 107.515 55.1998 108.407C56.9145 109.299 57.5812 111.413 56.6891 113.127C43.682 138.129 40.1769 168.215 40.0534 193.81C40.0372 197.148 39.3136 200.685 38.443 204.223C37.5302 207.933 36.5065 211.469 35.5807 215.586C33.7853 223.571 32.6893 232.477 35.0944 242.561C38.0344 254.888 48.951 265.224 64.3346 273.412C79.6012 281.537 98.573 287.166 116.285 290.409C123.171 291.669 136.153 292.646 150.181 292.807C164.203 292.968 178.917 292.308 189.293 290.409C207.005 287.166 225.976 281.537 241.243 273.412C256.626 265.224 267.543 254.888 270.483 242.561C272.888 232.477 271.792 223.571 269.997 215.586C269.071 211.469 268.047 207.933 267.134 204.223C266.264 200.685 265.54 197.148 265.524 193.81C265.401 168.215 261.895 138.129 248.888 113.127C247.996 111.413 248.663 109.299 250.378 108.407ZM153.092 54.2153C186.223 54.3055 210.636 63.071 228.431 77.1177C229.948 78.3153 230.208 80.5164 229.01 82.0337C227.813 83.5508 225.612 83.8101 224.094 82.6128C207.724 69.691 184.887 61.2872 152.994 61.2144C152.974 61.2143 152.953 61.2128 152.933 61.2124C152.869 61.2126 153.011 61.2131 152.792 61.2134H152.784C152.558 61.2131 152.712 61.2126 152.643 61.2124C152.623 61.2128 152.604 61.2143 152.584 61.2144C120.691 61.2872 97.853 69.691 81.4831 82.6128C79.9658 83.8103 77.7646 83.5509 76.567 82.0337C75.3694 80.5164 75.6289 78.3153 77.1461 77.1177C94.941 63.0712 119.354 54.3056 152.484 54.2153C152.514 54.2146 152.545 54.2124 152.576 54.2124C152.625 54.2124 152.672 54.2131 152.706 54.2134H152.871C152.905 54.2131 152.952 54.2124 153.002 54.2124C153.032 54.2124 153.062 54.2146 153.092 54.2153Z" fill="black"/>
<path d="M119.882 212.176C119.882 218.251 115.279 223.176 109.601 223.176C103.923 223.176 99.3208 218.251 99.3208 212.176C99.3208 206.1 103.923 201.176 109.601 201.176C115.279 201.176 119.882 206.1 119.882 212.176Z" fill="black"/>
<path d="M209.321 212.176C209.321 218.251 204.718 223.176 199.041 223.176C193.363 223.176 188.76 218.251 188.76 212.176C188.76 206.1 193.363 201.176 199.041 201.176C204.718 201.176 209.321 206.1 209.321 212.176Z" fill="black"/>
<path d="M133.403 224.286C135.219 223.819 137.068 224.866 137.616 226.638C137.624 226.656 137.641 226.693 137.67 226.744C137.755 226.896 137.948 227.188 138.332 227.515C139.046 228.126 140.793 229.176 144.683 229.176C148.574 229.176 150.32 228.126 151.034 227.515C151.417 227.188 151.611 226.896 151.696 226.744C151.731 226.682 151.749 226.642 151.754 226.63C152.166 225.312 153.318 224.352 154.702 224.197C156.141 224.036 157.53 224.778 158.197 226.061C158.195 226.057 158.193 226.052 158.191 226.049C158.187 226.041 158.183 226.034 158.18 226.028C158.174 226.017 158.17 226.01 158.169 226.007C158.171 226.01 158.176 226.019 158.184 226.033C158.213 226.079 158.277 226.178 158.382 226.312C158.591 226.582 158.951 226.986 159.493 227.403C160.533 228.204 162.391 229.176 165.501 229.176C168.611 229.176 170.469 228.204 171.508 227.403C172.05 226.986 172.411 226.582 172.62 226.312C172.724 226.178 172.788 226.079 172.817 226.033C172.831 226.011 172.837 226.002 172.834 226.007C172.832 226.01 172.827 226.017 172.821 226.028C172.818 226.034 172.814 226.041 172.81 226.049C172.808 226.052 172.807 226.057 172.804 226.061C173.692 224.353 175.795 223.681 177.509 224.562C179.229 225.446 179.906 227.556 179.022 229.275L175.91 227.676C178.871 229.198 179.014 229.274 179.02 229.279C179.02 229.28 179.019 229.282 179.018 229.283C179.017 229.286 179.016 229.289 179.014 229.292C179.011 229.297 179.008 229.303 179.005 229.309C178.998 229.322 178.99 229.336 178.982 229.351C178.966 229.382 178.947 229.417 178.924 229.457C178.88 229.536 178.822 229.634 178.751 229.748C178.608 229.975 178.411 230.267 178.152 230.601C177.634 231.269 176.862 232.115 175.781 232.948C173.576 234.647 170.229 236.176 165.501 236.176C160.854 236.176 157.543 234.698 155.338 233.035C153.12 234.824 149.728 236.176 144.683 236.176C139.45 236.176 135.991 234.725 133.782 232.836C132.704 231.914 132.006 230.955 131.565 230.17C131.346 229.779 131.191 229.432 131.084 229.155C131.03 229.016 130.987 228.894 130.955 228.792C130.939 228.741 130.925 228.695 130.914 228.654C130.908 228.634 130.902 228.614 130.897 228.596C130.895 228.588 130.892 228.578 130.89 228.57C130.889 228.566 130.888 228.562 130.887 228.558C130.887 228.556 130.886 228.554 130.885 228.553C130.885 228.55 130.907 228.541 134.274 227.676L130.884 228.547C130.403 226.675 131.531 224.767 133.403 224.286ZM137.662 226.8C137.662 226.799 137.661 226.795 137.661 226.793C137.66 226.789 137.659 226.785 137.658 226.782C137.656 226.775 137.655 226.769 137.653 226.763C137.649 226.75 137.645 226.737 137.642 226.726L137.662 226.8ZM151.74 226.672C151.735 226.686 151.73 226.704 151.723 226.726C151.72 226.737 151.717 226.75 151.714 226.763C151.712 226.769 151.709 226.775 151.708 226.782C151.707 226.785 151.706 226.789 151.705 226.793C151.704 226.794 151.704 226.796 151.704 226.798C151.718 226.741 151.736 226.686 151.754 226.631C151.751 226.637 151.747 226.651 151.74 226.672Z" fill="black"/>
</svg>
