<svg width="420" height="420" viewBox="0 0 420 420" fill="none" xmlns="http://www.w3.org/2000/svg">
<path d="M263.709 50.2315C257.713 48.2172 242.221 59.2961 228.729 85.4825C222.899 81.118 206.742 77.9287 188.752 85.4823C181.755 75.5785 164.965 50.6343 155.77 50.2315C140.279 49.5527 126.287 66.8497 117.792 98.5755C87.8085 96.964 71.9843 112.676 67.82 118.215C62.8228 122.915 58.8249 141.582 82.8114 178.645C71.6177 186.3 68.1531 219.771 67.82 235.55C45.6659 281.712 55.8268 369 210.239 369C373.147 369 373.147 278.355 350.16 235.55C351.16 211.378 346.162 187.206 342.665 174.113C362.654 154.473 357.157 120.733 356.157 118.215C355.158 115.697 347.162 97.0647 301.188 98.5755C294.692 65.8424 269.706 52.2459 263.709 50.2315Z" fill="white" stroke="#A5A5A5" stroke-width="4" stroke-linecap="round" stroke-linejoin="round" stroke-dasharray="8 8"/>
<path d="M87.9033 131.675C93.2403 114.675 130.24 121.503 141.57 122.618C161.834 133.453 147.409 187.585 132.172 186.512C109.125 184.888 81.6245 151.675 87.9033 131.675Z" fill="#888886"/>
<path d="M330.557 131.675C325.22 114.675 288.221 121.503 276.89 122.618C256.626 133.453 271.051 187.585 286.288 186.512C309.336 184.888 336.836 151.675 330.557 131.675Z" fill="#888886"/>
<path d="M87.903 134.175C84.303 148.975 98.0696 165.675 105.403 172.175C123.003 172.175 131.403 150.509 133.403 139.675C124.07 135.842 101.903 129.375 87.903 134.175Z" fill="#FACDC8"/>
<path d="M332.814 134.175C336.414 148.975 322.647 165.675 315.314 172.175C297.714 172.175 289.314 150.509 287.314 139.675C296.647 135.842 318.814 129.375 332.814 134.175Z" fill="#FACDC8"/>
<path d="M157.419 79.3287C166.156 79.956 166.903 94.6754 182.403 108.175C176.003 127.375 153.339 127.168 142.807 124.664C128.684 98.5293 146.498 78.5444 157.419 79.3287Z" fill="#F9DFB9"/>
<path d="M263.001 79.3287C254.265 79.956 253.517 94.6754 238.017 108.175C244.953 116.168 262.581 130.654 277.613 124.664C291.736 98.5293 273.922 78.5444 263.001 79.3287Z" fill="#F9DFB9"/>
<path d="M210.116 106.177C309.407 106.404 325.791 185.848 326.062 241.96C326.118 253.522 336.078 269.854 330.923 291.432C321.765 329.773 244.967 346.273 209.903 345.119C174.84 346.273 98.0421 329.774 88.8834 291.432C83.7291 269.854 93.6877 253.522 93.7436 241.96C94.0149 185.848 110.399 106.404 209.69 106.177V106.175C209.761 106.175 209.832 106.176 209.902 106.176C209.974 106.176 210.045 106.175 210.116 106.175V106.177Z" fill="#888886"/>
<path d="M95.6636 119.676C90.6526 121.651 86.3175 125.043 84.5644 130.627C82.696 136.578 83.4179 143.213 85.622 149.596C87.8364 156.008 91.6351 162.44 96.3271 168.196C105.591 179.561 119.032 189.095 131.927 190.003C134.94 190.215 137.658 189.034 139.919 187.29C142.169 185.554 144.163 183.12 145.888 180.357C149.34 174.825 152.065 167.403 153.615 159.724C155.165 152.044 155.599 143.818 154.231 136.666C152.871 129.559 149.598 122.941 143.221 119.531L143.067 119.454C142.704 119.282 142.313 119.174 141.913 119.135C136.578 118.61 124.022 116.569 112.403 116.855C106.567 116.998 100.615 117.724 95.6636 119.676ZM91.243 132.724C92.1584 129.808 94.449 127.678 98.2303 126.188C102.071 124.673 107.078 123.988 112.575 123.853C123.174 123.592 134.289 125.356 140.469 126.021C143.921 128.136 146.255 132.225 147.356 137.981C148.506 143.993 148.181 151.264 146.753 158.338C145.326 165.411 142.853 171.997 139.949 176.652C138.495 178.982 137.02 180.686 135.644 181.748C134.279 182.801 133.214 183.076 132.418 183.02C122.266 182.305 110.432 174.421 101.753 163.773C97.4739 158.524 94.135 152.801 92.2388 147.31C90.3323 141.789 89.972 136.772 91.243 132.724Z" fill="black"/>
<path d="M322.796 119.676C327.807 121.651 332.142 125.043 333.896 130.627C335.764 136.578 335.042 143.213 332.838 149.596C330.624 156.008 326.825 162.44 322.133 168.196C312.869 179.561 299.428 189.095 286.533 190.003C283.52 190.215 280.802 189.034 278.541 187.29C276.291 185.554 274.296 183.12 272.572 180.357C269.12 174.825 266.395 167.403 264.845 159.724C263.295 152.044 262.861 143.818 264.229 136.666C265.589 129.559 268.862 122.941 275.239 119.531L275.393 119.454C275.756 119.282 276.147 119.174 276.547 119.135C281.882 118.61 294.438 116.569 306.057 116.855C311.893 116.998 317.845 117.724 322.796 119.676ZM327.217 132.724C326.302 129.808 324.011 127.678 320.23 126.188C316.389 124.673 311.382 123.988 305.885 123.853C295.286 123.592 284.171 125.356 277.991 126.021C274.539 128.136 272.205 132.225 271.104 137.981C269.954 143.993 270.279 151.264 271.706 158.338C273.134 165.411 275.607 171.997 278.511 176.652C279.965 178.982 281.44 180.686 282.816 181.748C284.181 182.801 285.246 183.076 286.042 183.02C296.194 182.305 308.028 174.421 316.707 163.773C320.986 158.524 324.325 152.801 326.221 147.31C328.128 141.789 328.488 136.772 327.217 132.724Z" fill="black"/>
<path d="M157.67 75.8373C160.996 76.0762 163.458 77.7108 165.408 79.8356C167.245 81.8373 168.828 84.5021 170.389 87.1448C173.606 92.5915 177.422 99.1954 184.702 105.536C186.16 106.805 186.312 109.016 185.042 110.474C183.773 111.931 181.562 112.085 180.104 110.815C171.884 103.656 167.577 96.1498 164.361 90.705C162.705 87.902 161.495 85.9249 160.25 84.5684C159.119 83.3351 158.21 82.8946 157.168 82.8198C155.516 82.7013 153.159 83.3765 150.602 85.2366C148.095 87.0602 145.645 89.8551 143.856 93.4578C140.329 100.562 139.343 110.891 145.886 122.999C146.805 124.7 146.172 126.823 144.471 127.742C142.77 128.661 140.647 128.028 139.728 126.327C132.148 112.301 133.007 99.5707 137.586 90.3455C139.851 85.7833 143.02 82.0956 146.483 79.5759C149.896 77.0931 153.862 75.5638 157.67 75.8373Z" fill="black"/>
<path d="M151.85 94.7965C151.088 93.0199 149.031 92.1972 147.254 92.9586L136.754 97.4586C134.978 98.2201 134.155 100.278 134.916 102.054C135.678 103.831 137.735 104.654 139.512 103.892L150.012 99.3922C151.789 98.6307 152.611 96.5731 151.85 94.7965Z" fill="black"/>
<path d="M151.85 104.796C151.088 103.02 149.031 102.197 147.254 102.959L136.754 107.459C134.978 108.22 134.155 110.278 134.916 112.054C135.678 113.831 137.735 114.654 139.512 113.892L150.012 109.392C151.789 108.631 152.611 106.573 151.85 104.796Z" fill="black"/>
<path d="M262.751 75.8373C259.424 76.0762 256.962 77.7108 255.012 79.8356C253.176 81.8373 251.593 84.5021 250.032 87.1448C246.815 92.5915 242.998 99.1954 235.718 105.536C234.261 106.805 234.109 109.016 235.378 110.474C236.647 111.931 238.859 112.085 240.316 110.815C248.536 103.656 252.844 96.1498 256.06 90.705C257.715 87.902 258.925 85.9249 260.17 84.5684C261.302 83.3351 262.211 82.8946 263.253 82.8198C264.905 82.7013 267.261 83.3765 269.818 85.2366C272.325 87.0602 274.776 89.8551 276.564 93.4578C280.091 100.562 281.077 110.891 274.534 122.999C273.615 124.7 274.249 126.823 275.949 127.742C277.65 128.661 279.774 128.028 280.693 126.327C288.272 112.301 287.414 99.5707 282.834 90.3455C280.569 85.7833 277.401 82.0956 273.937 79.5759C270.524 77.0931 266.559 75.5638 262.751 75.8373Z" fill="black"/>
<path d="M268.571 94.7965C269.332 93.0199 271.39 92.1972 273.166 92.9586L283.666 97.4586C285.443 98.2201 286.266 100.278 285.504 102.054C284.743 103.831 282.685 104.654 280.908 103.892L270.408 99.3922C268.632 98.6307 267.809 96.5731 268.571 94.7965Z" fill="black"/>
<path d="M268.571 104.796C269.332 103.02 271.39 102.197 273.166 102.959L283.666 107.459C285.443 108.22 286.266 110.278 285.504 112.054C284.743 113.831 282.685 114.654 280.908 113.892L270.408 109.392C268.632 108.631 267.809 106.573 268.571 104.796Z" fill="black"/>
<path d="M210.084 105.714C309.44 105.941 325.834 185.559 326.106 241.793C326.162 253.381 336.128 269.748 330.97 291.372C321.805 329.798 244.956 346.334 209.871 345.177C174.784 346.333 97.9364 329.798 88.7719 291.372C83.6144 269.748 93.58 253.381 93.6361 241.793C93.9076 185.559 110.302 105.941 209.658 105.714V105.712C209.728 105.712 209.8 105.713 209.871 105.713C209.942 105.713 210.013 105.712 210.084 105.712V105.714Z" fill="#888886"/>
<path d="M144.803 318.147C133.782 307.705 141.404 279.363 156.903 277.675C172.402 275.988 184.903 255.675 210.903 255.675C236.903 255.675 239.903 270.396 258.903 274.675C277.903 278.954 284.346 302.602 277.903 313.175C269.85 326.392 247.981 340.175 213.255 340.175C176.706 340.175 160.593 333.108 144.803 318.147Z" fill="#D5D5D5"/>
<path d="M275.903 334.675C267.903 270.175 304.792 252.458 327.717 249.175C331.42 257.175 335.021 284.922 330.903 293.675C321.38 313.917 302.403 325.675 275.903 334.675Z" fill="#E8B2B4"/>
<path d="M146.403 335.175C155.403 282.175 114.839 252.458 91.9141 249.175C88.2107 257.175 84.6099 284.922 88.7278 293.675C98.2506 313.917 115.903 323.675 146.403 335.175Z" fill="#E8B2B4"/>
<path d="M307.46 156.407C309.175 155.515 311.289 156.181 312.181 157.896C325.943 184.348 329.481 215.744 329.607 241.776C329.618 244.231 330.162 247.086 331.015 250.551C331.825 253.844 332.981 257.925 333.908 262.051C335.82 270.553 337.128 280.644 334.375 292.185C330.731 307.462 317.599 319.082 301.613 327.59C285.511 336.161 265.791 341.97 247.636 345.294C236.597 347.315 221.354 347.969 207.184 347.807C193.02 347.645 179.575 346.662 172.107 345.294C153.951 341.97 134.232 336.161 118.129 327.59C102.143 319.082 89.0111 307.462 85.3673 292.185C82.6147 280.644 83.9224 270.553 85.8341 262.051C86.7619 257.925 87.9175 253.844 88.7277 250.551C89.5801 247.086 90.124 244.231 90.1359 241.776C90.2616 215.744 93.8 184.348 107.562 157.896C108.454 156.181 110.568 155.515 112.282 156.407C113.997 157.299 114.664 159.413 113.772 161.127C100.765 186.129 97.2594 216.215 97.1359 241.81C97.1198 245.148 96.3961 248.684 95.5255 252.223C94.6127 255.933 93.589 259.469 92.6632 263.586C90.8678 271.571 89.7719 280.477 92.1769 290.561C95.1169 302.888 106.034 313.224 121.417 321.411C136.684 329.537 155.655 335.166 173.367 338.409C180.254 339.669 193.235 340.646 207.264 340.807C221.285 340.968 236 340.308 246.375 338.409C264.087 335.166 283.059 329.537 298.325 321.411C313.709 313.224 324.626 302.888 327.566 290.561C329.971 280.477 328.875 271.571 327.079 263.586C326.153 259.469 325.13 255.933 324.217 252.223C323.346 248.684 322.623 245.148 322.607 241.81C322.483 216.215 318.978 186.129 305.971 161.127C305.079 159.413 305.745 157.299 307.46 156.407ZM210.175 102.215C243.306 102.305 267.719 111.071 285.514 125.118C287.031 126.315 287.29 128.516 286.093 130.034C284.895 131.551 282.694 131.81 281.177 130.613C264.807 117.691 241.969 109.287 210.076 109.214C210.056 109.214 210.036 109.213 210.016 109.212C209.952 109.212 210.093 109.213 209.874 109.213H209.866C209.64 109.213 209.795 109.212 209.726 109.212C209.706 109.213 209.686 109.214 209.666 109.214C177.773 109.287 154.936 117.691 138.566 130.613C137.048 131.81 134.847 131.551 133.65 130.034C132.452 128.516 132.711 126.315 134.229 125.118C152.024 111.071 176.436 102.305 209.567 102.215C209.597 102.214 209.628 102.212 209.658 102.212C209.707 102.212 209.754 102.213 209.788 102.213H209.953C209.988 102.213 210.035 102.212 210.084 102.212C210.114 102.212 210.145 102.214 210.175 102.215Z" fill="black"/>
<path d="M176.964 260.175C176.964 266.251 172.361 271.175 166.684 271.175C161.006 271.175 156.403 266.251 156.403 260.175C156.403 254.1 161.006 249.175 166.684 249.175C172.361 249.175 176.964 254.1 176.964 260.175Z" fill="black"/>
<path d="M266.404 260.175C266.404 266.251 261.801 271.175 256.123 271.175C250.445 271.175 245.843 266.251 245.843 260.175C245.843 254.1 250.445 249.175 256.123 249.175C261.801 249.175 266.404 254.1 266.404 260.175Z" fill="black"/>
<path d="M190.486 272.286C192.302 271.819 194.15 272.866 194.698 274.638C194.706 274.656 194.723 274.693 194.752 274.744C194.837 274.896 195.031 275.188 195.414 275.515C196.128 276.126 197.875 277.175 201.766 277.175C205.656 277.175 207.402 276.126 208.116 275.515C208.5 275.188 208.693 274.896 208.778 274.744C208.813 274.682 208.831 274.642 208.836 274.63C209.249 273.312 210.401 272.352 211.784 272.197C213.223 272.036 214.612 272.777 215.279 274.061C215.277 274.057 215.276 274.052 215.274 274.049C215.269 274.041 215.266 274.034 215.263 274.028C215.257 274.017 215.253 274.01 215.251 274.007C215.253 274.01 215.258 274.019 215.267 274.033C215.296 274.079 215.36 274.178 215.464 274.312C215.673 274.582 216.034 274.986 216.575 275.403C217.615 276.204 219.473 277.175 222.583 277.175C225.693 277.175 227.551 276.204 228.591 275.403C229.133 274.986 229.493 274.582 229.702 274.312C229.806 274.178 229.871 274.079 229.9 274.033C229.913 274.011 229.919 274.001 229.916 274.007C229.914 274.01 229.91 274.017 229.903 274.028C229.9 274.034 229.897 274.041 229.893 274.049C229.891 274.052 229.889 274.057 229.887 274.061C230.775 272.353 232.878 271.681 234.592 272.562C236.311 273.446 236.988 275.556 236.105 277.275L232.992 275.675C235.954 277.198 236.097 277.274 236.103 277.279C236.102 277.28 236.101 277.282 236.101 277.283C236.099 277.286 236.098 277.289 236.097 277.292C236.094 277.297 236.09 277.303 236.087 277.309C236.08 277.322 236.073 277.336 236.065 277.351C236.048 277.381 236.029 277.417 236.007 277.457C235.962 277.536 235.904 277.634 235.833 277.748C235.691 277.975 235.494 278.267 235.235 278.601C234.717 279.269 233.944 280.115 232.863 280.948C230.659 282.647 227.312 284.175 222.583 284.175C217.936 284.175 214.626 282.698 212.42 281.035C210.203 282.824 206.81 284.175 201.766 284.175C196.533 284.175 193.074 282.725 190.864 280.836C189.786 279.914 189.088 278.955 188.648 278.17C188.428 277.779 188.274 277.432 188.166 277.155C188.112 277.016 188.07 276.894 188.037 276.792C188.021 276.741 188.008 276.695 187.996 276.654C187.99 276.634 187.984 276.614 187.98 276.596C187.977 276.587 187.975 276.578 187.973 276.57C187.972 276.566 187.971 276.562 187.97 276.558C187.969 276.556 187.968 276.553 187.968 276.552C187.967 276.55 187.989 276.541 191.357 275.675L187.967 276.547C187.486 274.674 188.613 272.767 190.486 272.286ZM194.744 274.799C194.744 274.799 194.744 274.794 194.743 274.793C194.742 274.789 194.741 274.785 194.74 274.782C194.739 274.775 194.737 274.769 194.736 274.762C194.732 274.749 194.728 274.737 194.725 274.726L194.744 274.799ZM208.822 274.672C208.818 274.686 208.812 274.704 208.806 274.726C208.803 274.737 208.8 274.749 208.796 274.762C208.794 274.769 208.792 274.775 208.79 274.782C208.789 274.785 208.788 274.789 208.787 274.793C208.787 274.794 208.787 274.796 208.786 274.798C208.801 274.741 208.819 274.686 208.836 274.631C208.834 274.637 208.829 274.65 208.822 274.672Z" fill="black"/>
</svg>
