<svg width="294" height="313" viewBox="0 0 294 313" fill="none" xmlns="http://www.w3.org/2000/svg">
<path d="M89.2916 50.5004C99.2916 -17.0996 141.792 0.333755 161.792 17.5004C172.792 10.5004 189.792 17.5004 190.792 32.0005C213.991 23.6005 218.126 45.0005 219.293 57.5005C240.626 67.8338 286.792 109.7 284.792 188.5C313.792 274 243.293 310.5 150.792 310.5C44.7492 310.5 -24.7072 257 11.7916 181C16.2916 95.5005 37.7916 74.0005 89.2916 50.5004Z" fill="white" stroke="#A5A5A5" stroke-width="4" stroke-linecap="round" stroke-linejoin="round" stroke-dasharray="8 8"/>
<path d="M128.525 23.8189C107.308 28.4571 100.825 52.2278 109.666 69.0413L192.177 71.3603C205.143 58.0255 192.767 43.5312 179.801 48.1694C179.801 37.7335 163.888 29.0369 154.458 39.4728C154.851 33.0953 141.492 20.9844 128.525 23.8189Z" fill="#F76363"/>
<path d="M146.852 61.1571C242.803 61.3709 258.636 136.339 258.898 189.289C258.952 200.2 268.577 215.611 263.596 235.973C254.745 272.155 180.53 287.725 146.646 286.636C112.763 287.725 38.5476 272.155 29.6969 235.973C24.7159 215.611 34.3396 200.2 34.3936 189.289C34.6558 136.339 50.489 61.3707 146.44 61.1571V61.1552C146.509 61.1552 146.577 61.156 146.645 61.1561C146.714 61.156 146.783 61.1552 146.852 61.1552V61.1571Z" fill="#888886"/>
<path d="M103.785 198.925C103.785 205.125 99.2163 210.15 93.5801 210.15C87.944 210.15 83.375 205.125 83.375 198.925C83.375 192.725 87.944 187.699 93.5801 187.699C99.2163 187.699 103.785 192.725 103.785 198.925Z" fill="black"/>
<path d="M210.94 198.925C210.94 205.124 206.371 210.15 200.734 210.15C195.098 210.15 190.529 205.124 190.529 198.925C190.529 192.725 195.098 187.699 200.734 187.699C206.371 187.699 210.94 192.725 210.94 198.925Z" fill="black"/>
<path d="M127.654 22.442C135.375 20.7454 142.922 23.549 148.314 27.3795C151.038 29.3153 153.365 31.6144 155.016 33.9713C155.368 34.4741 155.702 35.0028 156.011 35.5494C161.097 32.596 166.898 32.7828 171.689 34.8131C176.453 36.8328 180.681 40.8944 182.255 45.9547C188.778 45.1655 194.865 48.0966 198.168 53.152C202.294 59.4675 201.612 68.2087 194.236 75.8346C192.893 77.2239 190.677 77.2612 189.287 75.9176C187.898 74.5737 187.861 72.3578 189.205 70.9684C194.727 65.2597 194.337 60.0858 192.308 56.9801C190.13 53.6466 185.539 51.7252 180.594 53.5035C179.522 53.8891 178.329 53.7291 177.397 53.0739C176.464 52.4185 175.909 51.3501 175.909 50.2106C175.909 46.7721 173.176 43.0458 168.956 41.2574C164.951 39.5603 160.324 39.9371 156.804 43.8531C155.809 44.9604 154.221 45.3171 152.848 44.7418C151.475 44.1665 150.616 42.7853 150.707 41.2994C150.734 40.8593 150.487 39.7065 149.282 37.9869C148.149 36.3681 146.419 34.6203 144.259 33.0856C139.88 29.975 134.334 28.1402 129.156 29.278C119.889 31.3148 113.883 37.4904 111.101 45.1061C108.286 52.8101 108.809 61.9317 112.747 69.4606C113.643 71.1733 112.98 73.2873 111.268 74.1832C109.555 75.079 107.44 74.4174 106.544 72.7047C101.688 63.4203 101.039 52.2488 104.526 42.7047C108.045 33.0723 115.818 25.0434 127.654 22.442Z" fill="black"/>
<path d="M147.059 61.2168C243.01 61.4306 258.844 136.399 259.106 189.349C259.16 200.26 268.784 215.671 263.803 236.033C254.952 272.215 180.737 287.784 146.853 286.695C112.97 287.784 38.7546 272.215 29.9039 236.033C24.923 215.671 34.5466 200.26 34.6007 189.349C34.8628 136.399 50.696 61.4304 146.647 61.2168V61.2148C146.716 61.2148 146.784 61.2157 146.852 61.2158C146.921 61.2157 146.99 61.2148 147.059 61.2148V61.2168Z" fill="#888886"/>
<path d="M99.7031 282.607C100.111 220.56 55.991 198.925 33.8798 195.863C28.7772 203.687 26.3362 230.05 30.308 238.215C39.4926 257.094 50.7183 267.299 99.7031 282.607Z" fill="#E8B2B4"/>
<path d="M193.659 282.607C193.251 220.56 237.371 198.925 259.483 195.863C264.585 203.687 267.026 230.05 263.054 238.215C253.87 257.094 242.644 267.299 193.659 282.607Z" fill="#E8B2B4"/>
<path d="M147.16 57.7178C196.165 57.8513 225.255 77.1626 241.928 103.642C258.435 129.858 262.474 162.63 262.606 189.331C262.618 191.606 263.134 194.266 263.957 197.526C264.735 200.611 265.857 204.475 266.753 208.36C268.604 216.386 269.875 225.937 267.202 236.864C264.728 246.978 257.763 255.358 248.657 262.169C239.539 268.989 228.011 274.438 215.861 278.647C191.64 287.039 164.256 290.735 146.853 290.195C129.451 290.735 102.067 287.039 77.8456 278.647C65.6953 274.438 54.168 268.989 45.0497 262.169C35.9438 255.358 28.9777 246.978 26.5038 236.864C23.831 225.937 25.103 216.386 26.954 208.36C27.8501 204.475 28.9716 200.611 29.7499 197.526C30.5725 194.266 31.0892 191.606 31.1005 189.331C31.2327 162.63 35.2713 129.858 51.7782 103.642C68.4504 77.1626 97.5411 57.8514 146.546 57.7178C146.58 57.7168 146.613 57.7148 146.647 57.7148C146.695 57.7148 146.74 57.7156 146.773 57.7158H146.933C146.966 57.7156 147.012 57.7148 147.059 57.7148C147.093 57.7148 147.127 57.7168 147.16 57.7178ZM146.856 64.7158H146.849C146.63 64.7156 146.777 64.715 146.715 64.7148C146.695 64.7152 146.675 64.7168 146.655 64.7168C99.7652 64.8212 72.9892 83.092 57.702 107.371C42.2391 131.929 38.2304 163.117 38.1005 189.366C38.0847 192.546 37.3784 195.905 36.537 199.239C35.6513 202.749 34.6682 206.056 33.7743 209.933C32.0452 217.43 30.9957 225.766 33.3036 235.201C35.255 243.178 40.8847 250.313 49.2421 256.563C57.5871 262.805 68.3915 267.964 80.1366 272.033C103.654 280.181 130.254 283.727 146.741 283.197H146.966C163.453 283.727 190.051 280.181 213.569 272.033C225.314 267.964 236.119 262.805 244.464 256.563C252.821 250.313 258.452 243.179 260.403 235.201C262.711 225.766 261.661 217.43 259.932 209.933C259.038 206.057 258.055 202.749 257.17 199.239C256.328 195.905 255.622 192.546 255.606 189.366C255.476 163.117 251.467 131.929 236.004 107.371C220.717 83.0922 193.941 64.8214 147.052 64.7168C147.032 64.7168 147.011 64.7152 146.991 64.7148C146.933 64.715 147.068 64.7156 146.856 64.7158Z" fill="black"/>
<path d="M111.501 199.945C111.501 206.145 106.804 211.171 101.01 211.171C95.2157 211.171 90.5186 206.145 90.5186 199.945C90.5186 193.746 95.2157 188.72 101.01 188.72C106.804 188.72 111.501 193.746 111.501 199.945Z" fill="black"/>
<path d="M202.776 199.945C202.776 206.145 198.078 211.171 192.284 211.171C186.49 211.171 181.793 206.145 181.793 199.945C181.793 193.746 186.49 188.72 192.284 188.72C198.078 188.72 202.776 193.746 202.776 199.945Z" fill="black"/>
<path d="M119.563 218.825C118.937 219.906 118.989 220.189 119.092 221.376C119.306 222.477 119.774 222.855 120.623 223.337C130.187 228.766 139.547 230.654 147.902 230.557C158.981 230.429 168.29 226.813 173.958 223.337C174.802 222.819 175.731 222.132 175.731 221.376C175.731 220.62 175.519 219.906 174.975 218.825C171.479 211.879 162.873 201.986 147.902 201.986C132.932 201.986 123.582 211.879 119.563 218.825Z" fill="#FECD86"/>
<path d="M147.903 205.486C134.724 205.486 126.36 214.137 122.659 220.464C131.54 225.433 140.173 227.146 147.863 227.057C158.077 226.939 166.671 223.64 171.895 220.493C171.88 220.463 171.865 220.431 171.849 220.398C168.707 214.157 161.091 205.486 147.903 205.486ZM179.232 221.376C179.232 223.189 178.157 224.411 177.612 224.945C176.985 225.56 176.268 226.026 175.788 226.32C169.651 230.083 159.73 233.92 147.943 234.057C139.011 234.16 129.034 232.136 118.896 226.381C118.431 226.117 117.634 225.653 116.959 224.863C116.216 223.994 115.845 223.014 115.657 222.042C115.633 221.922 115.616 221.802 115.606 221.681C115.571 221.283 115.465 220.412 115.592 219.55C115.742 218.532 116.153 217.729 116.533 217.072C120.905 209.518 131.219 198.486 147.903 198.486C164.656 198.486 174.251 209.601 178.102 217.251C178.76 218.558 179.232 219.841 179.232 221.376Z" fill="black"/>
</svg>
