<svg width="420" height="420" viewBox="0 0 420 420" fill="none" xmlns="http://www.w3.org/2000/svg">
<path d="M77.2416 222.698C77.2416 94.1977 165.075 69.1975 212.742 74.6975C291.742 70.6976 343.742 130.697 341.242 222.698C362.242 280.698 341.241 346.198 206.241 346.198C82.0146 346.198 59.741 284.198 77.2416 222.698Z" fill="white" stroke="#A5A5A5" stroke-width="4" stroke-linecap="round" stroke-linejoin="round" stroke-dasharray="8 8"/>
<path d="M211.226 96.6996C305.412 96.9149 320.953 172.39 321.211 225.698C321.264 236.682 330.711 252.198 325.822 272.698C317.134 309.124 244.285 324.799 211.024 323.703C177.764 324.799 104.914 309.124 96.2262 272.698C91.3369 252.198 100.784 236.682 100.837 225.698C101.094 172.39 116.636 96.9147 210.822 96.6996V96.6976C210.889 96.6976 210.956 96.6985 211.023 96.6986C211.091 96.6985 211.159 96.6976 211.226 96.6976V96.6996Z" fill="#888886"/>
<path d="M168.822 237.698C168.822 243.773 164.345 248.698 158.822 248.698C153.299 248.698 148.822 243.773 148.822 237.698C148.822 231.622 153.299 226.698 158.822 226.698C164.345 226.698 168.822 231.622 168.822 237.698Z" fill="black"/>
<path d="M273.822 237.698C273.822 243.773 269.345 248.698 263.822 248.698C258.299 248.698 253.822 243.773 253.822 237.698C253.822 231.622 258.299 226.698 263.822 226.698C269.345 226.698 273.822 231.622 273.822 237.698Z" fill="black"/>
<path d="M211.163 96.6996C305.349 96.9149 320.891 172.39 321.148 225.698C321.201 236.682 330.648 252.198 325.758 272.698C317.071 309.124 244.221 324.799 210.961 323.703C177.7 324.799 104.851 309.124 96.1627 272.698C91.2734 252.198 100.72 236.682 100.773 225.698C101.03 172.39 116.572 96.9147 210.758 96.6996V96.6976C210.826 96.6976 210.893 96.6985 210.96 96.6986C211.027 96.6985 211.095 96.6976 211.163 96.6976V96.6996Z" fill="#888886"/>
<path d="M180.236 304.735C152.223 307.739 114.416 287.962 97.7412 277.698C101.741 299.477 153.223 323.135 210.25 324.637C267.277 326.139 330.744 291.222 324.241 273.198C294.08 304.735 261.274 304.735 242.765 304.735C224.256 304.735 220.255 299.102 210.25 299.477C200.245 299.853 197.244 304.735 180.236 304.735Z" fill="#9D9D9D"/>
<path d="M164.677 318.698C165.077 257.898 121.843 236.698 100.177 233.698C95.1765 241.364 92.7846 267.198 96.6765 275.198C105.677 293.698 116.677 303.698 164.677 318.698Z" fill="#E8B2B4"/>
<path d="M256.744 318.698C256.344 257.898 299.578 236.698 321.244 233.698C326.244 241.364 328.636 267.198 324.744 275.198C315.744 293.698 304.744 303.698 256.744 318.698Z" fill="#E8B2B4"/>
<path d="M211.265 93.2006C259.427 93.3358 288.001 112.808 304.361 139.457C320.556 165.837 324.519 198.811 324.648 225.681C324.66 227.986 325.17 230.674 325.978 233.956C326.743 237.067 327.842 240.95 328.722 244.862C330.537 252.934 331.781 262.531 329.163 273.509C326.741 283.664 319.914 292.099 310.964 298.965C302.006 305.837 290.681 311.328 278.746 315.569C254.959 324.021 228.063 327.746 210.96 327.203C193.857 327.746 166.961 324.021 143.175 315.569C131.24 311.328 119.916 305.837 110.958 298.965C102.008 292.099 95.18 283.665 92.7578 273.509C90.1395 262.531 91.385 252.935 93.2002 244.862C94.0798 240.95 95.179 237.067 95.9444 233.956C96.7519 230.674 97.2623 227.986 97.2735 225.681C97.4032 198.811 101.365 165.837 117.56 139.457C133.92 112.808 162.494 93.3358 210.656 93.2006C210.69 93.1996 210.725 93.1976 210.759 93.1976C210.806 93.1976 210.851 93.1984 210.884 93.1986H211.037C211.07 93.1984 211.116 93.1976 211.163 93.1976C211.197 93.1976 211.231 93.1996 211.265 93.2006ZM210.964 100.199H210.956C210.735 100.198 210.887 100.198 210.826 100.198C210.806 100.198 210.787 100.2 210.767 100.2C164.8 100.305 138.537 118.668 123.525 143.12C108.338 167.858 104.401 199.277 104.273 225.714C104.258 228.902 103.567 232.273 102.741 235.629C101.873 239.157 100.907 242.494 100.029 246.397C98.3303 253.953 97.2965 262.365 99.5674 271.886C101.489 279.943 107.026 287.128 115.218 293.411C123.402 299.689 133.998 304.879 145.519 308.973C168.59 317.171 194.682 320.737 210.846 320.204H211.076C227.24 320.737 253.331 317.171 276.402 308.973C287.923 304.879 298.519 299.69 306.703 293.411C314.895 287.128 320.432 279.944 322.354 271.886C324.624 262.365 323.591 253.953 321.892 246.397C321.014 242.494 320.048 239.157 319.18 235.629C318.354 232.273 317.664 228.902 317.648 225.714C317.521 199.277 313.583 167.859 298.396 143.12C283.384 118.669 257.121 100.305 211.154 100.2C211.134 100.2 211.115 100.198 211.095 100.198C211.037 100.198 211.178 100.198 210.964 100.199Z" fill="black"/>
<path d="M175.302 244.698C175.302 250.773 170.699 255.698 165.022 255.698C159.344 255.698 154.741 250.773 154.741 244.698C154.741 238.622 159.344 233.698 165.022 233.698C170.699 233.698 175.302 238.622 175.302 244.698Z" fill="black"/>
<path d="M264.741 244.698C264.741 250.773 260.139 255.698 254.461 255.698C248.783 255.698 244.181 250.773 244.181 244.698C244.181 238.622 248.783 233.698 254.461 233.698C260.139 233.698 264.741 238.622 264.741 244.698Z" fill="black"/>
<path d="M188.824 262.808C190.64 262.341 192.488 263.389 193.037 265.161C193.045 265.178 193.062 265.215 193.09 265.266C193.176 265.418 193.369 265.71 193.753 266.038C194.467 266.648 196.214 267.698 200.104 267.698C203.994 267.698 205.741 266.648 206.455 266.038C206.838 265.71 207.032 265.418 207.117 265.266C207.152 265.204 207.169 265.164 207.174 265.152C207.587 263.834 208.739 262.874 210.123 262.719C211.562 262.558 212.951 263.3 213.618 264.583C213.616 264.579 213.614 264.575 213.612 264.571C213.608 264.563 213.604 264.556 213.601 264.55C213.595 264.539 213.591 264.532 213.59 264.529C213.592 264.532 213.597 264.541 213.605 264.555C213.634 264.601 213.698 264.7 213.802 264.834C214.012 265.104 214.372 265.508 214.914 265.925C215.954 266.726 217.812 267.698 220.922 267.698C224.031 267.698 225.89 266.726 226.929 265.925C227.471 265.508 227.832 265.104 228.041 264.834C228.145 264.7 228.209 264.601 228.238 264.555C228.252 264.533 228.257 264.524 228.255 264.529C228.253 264.532 228.248 264.539 228.242 264.55C228.239 264.556 228.235 264.563 228.231 264.571C228.229 264.575 228.228 264.579 228.225 264.583C229.113 262.875 231.216 262.203 232.93 263.084C234.649 263.968 235.327 266.078 234.443 267.797L231.331 266.198C234.292 267.72 234.435 267.796 234.441 267.801C234.441 267.802 234.44 267.804 234.439 267.805C234.438 267.808 234.437 267.811 234.435 267.814C234.432 267.82 234.429 267.825 234.425 267.831C234.419 267.844 234.411 267.858 234.403 267.873C234.387 267.904 234.368 267.939 234.345 267.979C234.3 268.058 234.243 268.156 234.172 268.27C234.029 268.497 233.832 268.789 233.573 269.123C233.055 269.791 232.283 270.637 231.202 271.47C228.997 273.169 225.65 274.698 220.922 274.698C216.275 274.698 212.964 273.22 210.758 271.557C208.541 273.347 205.149 274.698 200.104 274.698C194.871 274.698 191.412 273.247 189.203 271.358C188.125 270.436 187.427 269.477 186.986 268.692C186.767 268.301 186.612 267.954 186.505 267.677C186.451 267.538 186.408 267.416 186.376 267.314C186.36 267.263 186.346 267.217 186.335 267.176C186.329 267.156 186.323 267.136 186.318 267.119C186.316 267.11 186.313 267.1 186.311 267.092C186.31 267.088 186.309 267.084 186.308 267.081C186.308 267.079 186.307 267.076 186.306 267.075C186.306 267.072 186.328 267.063 189.695 266.198L186.305 267.069C185.824 265.197 186.952 263.289 188.824 262.808ZM193.083 265.322C193.082 265.321 193.082 265.317 193.082 265.315C193.081 265.311 193.08 265.307 193.079 265.304C193.077 265.297 193.076 265.291 193.074 265.285C193.07 265.272 193.066 265.259 193.063 265.248L193.083 265.322ZM207.161 265.194C207.156 265.208 207.151 265.226 207.144 265.248C207.141 265.259 207.138 265.272 207.134 265.285C207.133 265.291 207.13 265.297 207.129 265.304C207.128 265.308 207.127 265.311 207.126 265.315C207.125 265.316 207.125 265.319 207.125 265.32C207.139 265.263 207.157 265.208 207.174 265.153C207.172 265.159 207.167 265.173 207.161 265.194Z" fill="black"/>
</svg>
