<svg width="420" height="420" viewBox="0 0 420 420" fill="none" xmlns="http://www.w3.org/2000/svg">
<path d="M148.528 85.4602C196.928 57.4602 253.361 73.7936 275.528 85.4602C287.861 77.627 330.528 76.3311 341.028 88.4604C364.228 115.26 349.362 151.627 338.028 167.46C341.195 166.294 345.228 181.36 346.028 232.96C380.528 328.46 272.028 348.46 208.528 348.96C145.028 349.46 81.5278 322.46 70.0278 283.96C60.8278 253.16 69.3616 232.294 76.0284 224.46C75.0284 221.96 71.7281 205.46 78.5281 169.46C56.1281 129.06 71.0281 96.627 78.5281 85.4602C85.6947 80.1269 109.728 72.6602 148.528 85.4602Z" fill="white" stroke="#A5A5A5" stroke-width="4" stroke-linecap="round" stroke-linejoin="round" stroke-dasharray="8 8"/>
<path d="M105.49 164.044C86.659 151.488 83.6857 117.759 93.5596 106.68C96.818 103.024 101.372 106.022 107.752 106.426C112.048 106.698 117.738 103.554 122.275 104.867C131.766 107.614 140.752 111.932 144.912 114.875C156.842 133.825 117.939 172.345 105.49 164.044Z" fill="#888886"/>
<path d="M324.212 106.68C314.17 95.4116 281.961 108.436 272.86 114.875C260.929 133.826 299.832 172.345 312.281 164.045C331.112 151.489 334.086 117.759 324.212 106.68Z" fill="#888886"/>
<path d="M209.319 97.4623C307.029 97.6829 323.152 174.997 323.419 229.604C323.474 240.857 333.275 256.75 328.203 277.75C319.19 315.064 243.615 331.121 209.109 329.998C174.604 331.121 99.029 315.064 90.0161 277.75C84.9438 256.75 94.7439 240.857 94.7989 229.604C95.0659 174.997 111.189 97.6827 208.9 97.4623V97.4603C208.969 97.4603 209.039 97.4612 209.108 97.4613C209.178 97.4612 209.249 97.4603 209.319 97.4603V97.4623Z" fill="#888886"/>
<path d="M120.451 100.745C115.044 99.3721 109.406 98.5152 104.339 98.8066C99.3142 99.0955 94.3324 100.553 90.9468 104.351C88.2349 107.394 86.4897 111.566 85.5171 116.09C84.536 120.652 84.2886 125.81 84.7612 131.066C85.2832 136.873 86.6918 142.902 89.0522 148.502C92.1206 155.782 96.8722 162.505 103.549 166.957C106.022 168.605 108.924 168.931 111.707 168.562C114.48 168.195 117.378 167.115 120.208 165.627C125.875 162.648 131.852 157.723 136.954 152.011C142.055 146.3 146.479 139.58 148.837 132.882C151.181 126.224 151.658 119.019 147.874 113.01L147.779 112.866C147.548 112.537 147.263 112.25 146.934 112.017C141.961 108.499 131.217 103.479 120.451 100.745ZM104.742 105.795C108.822 105.56 113.689 106.25 118.727 107.529C128.389 109.983 137.858 114.387 142.29 117.322C144.135 120.727 144.11 125.232 142.235 130.558C140.265 136.152 136.423 142.097 131.733 147.348C127.044 152.597 121.707 156.93 116.951 159.431C114.57 160.683 112.479 161.399 110.788 161.623C109.108 161.846 108.071 161.559 107.432 161.133C102.185 157.634 98.1919 152.162 95.5034 145.783C93.4451 140.9 92.1953 135.583 91.7329 130.439C91.3135 125.774 91.5485 121.334 92.3598 117.56C93.1796 113.748 94.5371 110.845 96.1733 109.009C97.8088 107.174 100.619 106.032 104.742 105.795Z" fill="black"/>
<path d="M297.322 100.745C302.728 99.3721 308.366 98.5152 313.433 98.8066C318.458 99.0955 323.44 100.553 326.826 104.351C329.896 107.797 331.739 112.7 332.615 117.978C333.5 123.315 333.451 129.349 332.465 135.373C330.512 147.312 324.735 159.948 314.223 166.957C311.751 168.605 308.848 168.931 306.065 168.562C303.293 168.195 300.394 167.115 297.564 165.627C291.897 162.648 285.921 157.723 280.819 152.011C275.718 146.3 271.293 139.58 268.935 132.882C266.591 126.224 266.115 119.019 269.898 113.01L269.994 112.866C270.224 112.537 270.51 112.25 270.838 112.017C275.812 108.499 286.556 103.479 297.322 100.745ZM313.031 105.795C308.95 105.56 304.084 106.25 299.045 107.529C289.383 109.983 279.914 114.387 275.482 117.322C273.637 120.727 273.663 125.232 275.538 130.558C277.507 136.152 281.35 142.097 286.04 147.348C290.728 152.597 296.066 156.93 300.822 159.431C303.203 160.683 305.294 161.399 306.985 161.623C308.665 161.846 309.701 161.559 310.34 161.133C318.66 155.586 323.784 145.078 325.557 134.243C326.434 128.881 326.455 123.62 325.709 119.124C324.954 114.57 323.465 111.103 321.599 109.009C319.964 107.174 317.153 106.032 313.031 105.795Z" fill="black"/>
<path d="M165.328 241.897C165.328 248.12 160.684 253.165 154.954 253.165C149.225 253.165 144.58 248.12 144.58 241.897C144.58 235.674 149.225 230.629 154.954 230.629C160.684 230.629 165.328 235.674 165.328 241.897Z" fill="black"/>
<path d="M274.257 241.897C274.257 248.12 269.612 253.165 263.883 253.165C258.153 253.165 253.509 248.12 253.509 241.897C253.509 235.674 258.153 230.629 263.883 230.629C269.612 230.629 274.257 235.674 274.257 241.897Z" fill="black"/>
<path d="M209.32 97.4623C307.029 97.6828 323.153 174.997 323.42 229.604C323.475 240.856 333.275 256.75 328.203 277.749C319.191 315.063 243.615 331.121 209.11 329.997C174.604 331.12 99.0286 315.063 90.0158 277.749C84.9438 256.75 94.745 240.856 94.8 229.604C95.067 174.997 111.19 97.6825 208.901 97.4623V97.4603C208.97 97.4603 209.04 97.4612 209.11 97.4613C209.179 97.4612 209.25 97.4603 209.32 97.4603V97.4623Z" fill="#888886"/>
<path d="M161.179 324.871C161.594 262.589 116.743 240.872 94.2656 237.799C89.0785 245.653 86.5971 272.116 90.6346 280.311C99.9714 299.262 111.383 309.505 161.179 324.871Z" fill="#E8B2B4"/>
<path d="M256.691 324.871C256.276 262.589 301.127 240.872 323.604 237.799C328.792 245.653 331.273 272.116 327.235 280.311C317.899 299.262 306.487 309.505 256.691 324.871Z" fill="#E8B2B4"/>
<path d="M305.04 146.607C306.75 145.706 308.867 146.362 309.768 148.072C323.316 173.785 326.797 204.298 326.921 229.587C326.932 231.953 327.463 234.711 328.3 238.075C329.095 241.264 330.235 245.238 331.147 249.245C333.03 257.511 334.319 267.334 331.605 278.572C328.009 293.46 315.061 304.758 299.344 313.018C283.526 321.331 264.162 326.967 246.327 330.198C228.254 334.373 199.256 335.146 171.967 330.212C154.112 326.984 134.716 321.343 118.876 313.018C103.16 304.758 90.2113 293.46 86.6149 278.572C83.9007 267.334 85.1905 257.511 87.0729 249.245C87.9854 245.238 89.1249 241.264 89.9196 238.075C90.7576 234.711 91.2879 231.953 91.2995 229.587C91.4231 204.298 94.9043 173.785 108.452 148.072C109.353 146.362 111.47 145.706 113.18 146.607C114.89 147.508 115.546 149.624 114.645 151.334C101.867 175.587 98.421 204.777 98.2995 229.621C98.2836 232.881 97.5681 236.329 96.7116 239.767C95.8119 243.378 94.8086 246.801 93.8981 250.799C92.1348 258.543 91.0607 267.166 93.4186 276.928C96.2971 288.845 106.999 298.868 122.133 306.822C137.142 314.71 155.796 320.175 173.214 323.324C199.774 328.125 227.849 327.303 244.838 323.359L245.007 323.324C262.424 320.175 281.078 314.71 296.088 306.822C311.221 298.868 321.923 288.845 324.801 276.928C327.159 267.166 326.085 258.543 324.322 250.799C323.412 246.801 322.408 243.378 321.508 239.767C320.652 236.329 319.937 232.881 319.921 229.621C319.799 204.777 316.353 175.587 303.575 151.334C302.674 149.624 303.33 147.508 305.04 146.607ZM209.411 93.9633C241.992 94.0512 266.008 102.562 283.519 116.211C285.044 117.4 285.316 119.599 284.128 121.123C282.939 122.648 280.74 122.921 279.216 121.733C263.128 109.194 240.676 101.033 209.312 100.962C209.292 100.962 209.272 100.961 209.252 100.96C209.19 100.96 209.329 100.961 209.113 100.961H209.105C208.882 100.961 209.034 100.96 208.967 100.96C208.948 100.961 208.928 100.962 208.908 100.962C177.544 101.033 155.092 109.194 139.005 121.733C137.48 122.921 135.281 122.648 134.092 121.123C132.904 119.599 133.176 117.4 134.701 116.211C152.212 102.562 176.227 94.0513 208.808 93.9633C208.839 93.9625 208.869 93.9603 208.9 93.9603C208.949 93.9603 208.995 93.9611 209.029 93.9613H209.19C209.224 93.9611 209.271 93.9603 209.32 93.9603C209.35 93.9603 209.381 93.9625 209.411 93.9633Z" fill="black"/>
<path d="M174.21 250.092C174.21 256.315 169.435 261.36 163.545 261.36C157.655 261.36 152.88 256.315 152.88 250.092C152.88 243.869 157.655 238.824 163.545 238.824C169.435 238.824 174.21 243.869 174.21 250.092Z" fill="black"/>
<path d="M266.54 250.092C266.54 256.315 261.765 261.36 255.875 261.36C249.985 261.36 245.21 256.315 245.21 250.092C245.21 243.869 249.985 238.824 255.875 238.824C261.765 238.824 266.54 243.869 266.54 250.092Z" fill="black"/>
<path d="M179.868 264.945C179.453 256.75 187.303 252.994 191.28 252.14C208.294 248.453 223.613 250.604 229.146 252.14C233.987 253.336 239.001 257.57 239.001 264.945C239.001 274.164 230.183 281.847 210.472 281.847C190.761 281.847 180.387 275.189 179.868 264.945Z" fill="#D5D5D5"/>
<path d="M235.501 264.945C235.501 259.484 231.901 256.426 228.307 255.539C228.274 255.531 228.241 255.521 228.209 255.512C223.168 254.112 208.426 252.006 192.021 255.561L192.015 255.562C190.475 255.893 188.087 256.83 186.209 258.444C184.422 259.981 183.224 261.99 183.364 264.768C183.556 268.545 185.483 271.768 189.718 274.203C194.103 276.724 200.937 278.347 210.472 278.347C219.938 278.347 226.311 276.493 230.204 273.93C233.971 271.451 235.501 268.283 235.501 264.945ZM242.501 264.945C242.501 270.827 239.623 276.11 234.053 279.777C228.609 283.361 220.717 285.347 210.472 285.347C200.296 285.347 192.087 283.641 186.228 280.272C180.219 276.817 176.7 271.589 176.373 265.122C176.099 259.705 178.618 255.739 181.645 253.136C184.58 250.612 188.101 249.245 190.538 248.72C208.16 244.901 224.057 247.095 230.082 248.768L230.081 248.769C236.14 250.306 242.501 255.705 242.501 264.945Z" fill="black"/>
<path d="M201.639 266.994C201.639 269.54 200.245 271.603 198.526 271.603C196.807 271.603 195.414 269.54 195.414 266.994C195.414 264.448 196.807 262.384 198.526 262.384C200.245 262.384 201.639 264.448 201.639 266.994Z" fill="black"/>
<path d="M224.462 266.994C224.462 269.54 223.068 271.603 221.35 271.603C219.631 271.603 218.237 269.54 218.237 266.994C218.237 264.448 219.631 262.384 221.35 262.384C223.068 262.384 224.462 264.448 224.462 266.994Z" fill="black"/>
</svg>
