<svg width="292" height="283" viewBox="0 0 292 283" fill="none" xmlns="http://www.w3.org/2000/svg">
<path d="M84.5241 17.4602C132.924 -10.5398 189.357 5.79358 211.524 17.4602C223.857 9.62698 266.524 8.33114 277.024 20.4604C300.224 47.2604 285.358 83.6271 274.024 99.4604C277.191 98.2938 281.224 113.36 282.024 164.96C316.524 260.46 208.024 280.46 144.524 280.96C81.0242 281.46 17.5239 254.46 6.02386 215.96C-3.17614 185.16 5.35772 164.294 12.0245 156.46C11.0245 153.96 7.72415 137.46 14.5242 101.46C-7.87585 61.0604 7.02415 28.627 14.5242 17.4602C21.6908 12.1269 45.7241 4.66025 84.5241 17.4602Z" fill="white" stroke="#A5A5A5" stroke-width="4" stroke-linecap="round" stroke-linejoin="round" stroke-dasharray="8 8"/>
<path d="M41.4861 96.0445C22.6551 83.4884 19.6818 49.7587 29.5557 38.6796C32.8141 35.0235 37.3686 38.0223 43.7477 38.4263C48.0436 38.6984 53.7339 35.5545 58.2715 36.8674C67.7622 39.6136 76.7483 43.9318 80.908 46.8746C92.8382 65.8255 53.9352 104.345 41.4861 96.0445Z" fill="#888886"/>
<path d="M260.208 38.6797C250.166 27.4116 217.957 40.4357 208.856 46.8747C196.925 65.8256 235.829 104.345 248.278 96.0446C267.109 83.4885 270.082 49.7588 260.208 38.6797Z" fill="#888886"/>
<path d="M145.315 29.4623C243.025 29.6829 259.148 106.997 259.415 161.604C259.47 172.857 269.271 188.75 264.199 209.75C255.186 247.064 179.611 263.121 145.106 261.998C110.601 263.121 35.0251 247.064 26.0122 209.75C20.9399 188.75 30.74 172.857 30.795 161.604C31.062 106.997 47.1854 29.6827 144.896 29.4623V29.4603C144.965 29.4603 145.035 29.4612 145.104 29.4613C145.175 29.4612 145.245 29.4603 145.315 29.4603V29.4623Z" fill="#888886"/>
<path d="M56.4467 32.745C51.0401 31.3721 45.4025 30.5152 40.3354 30.8066C35.3103 31.0955 30.3285 32.5526 26.9428 36.3515C24.231 39.3945 22.4858 43.5662 21.5132 48.0898C20.5321 52.6525 20.2847 57.8097 20.7573 63.0663C21.2793 68.8727 22.6879 74.9016 25.0483 80.5019C28.1167 87.7817 32.8683 94.5048 39.5454 98.9569C42.018 100.605 44.9202 100.931 47.7036 100.562C50.4759 100.195 53.3745 99.1148 56.2046 97.6269C61.8711 94.6475 67.8476 89.7227 72.9497 84.0107C78.0506 78.2999 82.4752 71.5802 84.8335 64.8817C87.1774 58.2242 87.6538 51.0192 83.8706 45.0097L83.7749 44.8661C83.5444 44.5372 83.2587 44.25 82.9301 44.0175C77.9567 40.499 67.2128 35.479 56.4467 32.745ZM40.7378 37.7948C44.8184 37.5603 49.685 38.2499 54.7231 39.5292C64.3856 41.9828 73.8544 46.3868 78.2866 49.3222C80.1311 52.7266 80.106 57.2318 78.2309 62.5575C76.2613 68.152 72.4186 74.0972 67.729 79.3476C63.0405 84.5965 57.7029 88.9299 52.9468 91.4306C50.5656 92.6825 48.475 93.3987 46.7837 93.623C45.1039 93.8456 44.0675 93.559 43.4282 93.1327C38.1815 89.6344 34.188 84.1617 31.4995 77.7831C29.4412 72.8998 28.1914 67.5828 27.729 62.4394C27.3096 57.7743 27.5446 53.3338 28.3559 49.5605C29.1757 45.7482 30.5332 42.8447 32.1694 41.0087C33.8048 39.1736 36.6151 38.0318 40.7378 37.7948Z" fill="black"/>
<path d="M233.318 32.745C238.725 31.3721 244.362 30.5152 249.429 30.8066C254.454 31.0955 259.436 32.5526 262.822 36.3515C265.892 39.7969 267.735 44.7001 268.611 49.9784C269.496 55.3146 269.447 61.3487 268.461 67.373C266.508 79.3117 260.731 91.948 250.219 98.9569C247.747 100.605 244.844 100.931 242.061 100.562C239.289 100.195 236.39 99.1148 233.56 97.6269C227.894 94.6475 221.917 89.7227 216.815 84.0107C211.714 78.2999 207.289 71.5802 204.931 64.8817C202.587 58.2242 202.111 51.0192 205.894 45.0097L205.99 44.8661C206.22 44.5372 206.506 44.25 206.835 44.0175C211.808 40.499 222.552 35.479 233.318 32.745ZM249.027 37.7948C244.946 37.5603 240.08 38.2499 235.042 39.5292C225.379 41.9828 215.91 46.3868 211.478 49.3222C209.634 52.7266 209.659 57.2318 211.534 62.5575C213.503 68.152 217.346 74.0972 222.036 79.3476C226.724 84.5965 232.062 88.9299 236.818 91.4306C239.199 92.6825 241.29 93.3987 242.981 93.623C244.661 93.8456 245.697 93.559 246.336 93.1327C254.656 87.5857 259.781 77.0779 261.553 66.2431C262.431 60.8807 262.451 55.6203 261.706 51.1239C260.95 46.5699 259.462 43.1028 257.595 41.0087C255.96 39.1736 253.15 38.0318 249.027 37.7948Z" fill="black"/>
<path d="M101.325 173.897C101.325 180.12 96.6799 185.165 90.9504 185.165C85.2208 185.165 80.5762 180.12 80.5762 173.897C80.5762 167.674 85.2208 162.629 90.9504 162.629C96.6799 162.629 101.325 167.674 101.325 173.897Z" fill="black"/>
<path d="M210.253 173.897C210.253 180.12 205.609 185.165 199.879 185.165C194.15 185.165 189.505 180.12 189.505 173.897C189.505 167.674 194.15 162.629 199.879 162.629C205.609 162.629 210.253 167.674 210.253 173.897Z" fill="black"/>
<path d="M145.316 29.4623C243.026 29.6828 259.149 106.997 259.416 161.604C259.471 172.856 269.272 188.75 264.199 209.749C255.187 247.063 179.611 263.121 145.106 261.997C110.6 263.12 35.0247 247.063 26.0119 209.749C20.9399 188.75 30.7411 172.856 30.7961 161.604C31.0631 106.997 47.1863 29.6825 144.897 29.4623V29.4603C144.966 29.4603 145.036 29.4612 145.106 29.4613C145.176 29.4612 145.246 29.4603 145.316 29.4603V29.4623Z" fill="#888886"/>
<path d="M97.1752 256.871C97.5902 194.589 52.7391 172.872 30.2617 169.799C25.0746 177.653 22.5932 204.116 26.6307 212.311C35.9675 231.262 47.3791 241.505 97.1752 256.871Z" fill="#E8B2B4"/>
<path d="M192.687 256.871C192.272 194.589 237.123 172.872 259.601 169.799C264.788 177.653 267.269 204.116 263.232 212.311C253.895 231.262 242.483 241.505 192.687 256.871Z" fill="#E8B2B4"/>
<path d="M241.036 78.6068C242.746 77.7058 244.863 78.3615 245.764 80.0717C259.312 105.785 262.793 136.298 262.917 161.587C262.928 163.953 263.459 166.711 264.297 170.075C265.091 173.264 266.231 177.238 267.143 181.245C269.026 189.511 270.315 199.334 267.601 210.572C264.005 225.46 251.057 236.758 235.341 245.018C219.522 253.331 200.158 258.967 182.323 262.198C164.25 266.373 135.252 267.146 107.964 262.212C90.1082 258.984 70.7124 253.343 54.8718 245.018C39.1556 236.758 26.2074 225.46 22.611 210.572C19.8968 199.334 21.1866 189.511 23.069 181.245C23.9815 177.238 25.121 173.264 25.9157 170.075C26.7537 166.711 27.284 163.953 27.2956 161.587C27.4192 136.298 30.9004 105.785 44.4479 80.0717C45.349 78.3615 47.4663 77.7058 49.1765 78.6068C50.8863 79.5079 51.542 81.6243 50.6413 83.3344C37.8633 107.587 34.417 136.777 34.2956 161.621C34.2796 164.881 33.5642 168.329 32.7077 171.767C31.808 175.378 30.8046 178.801 29.8942 182.799C28.1309 190.543 27.0568 199.166 29.4147 208.928C32.2932 220.845 42.995 230.868 58.1286 238.822C73.1378 246.71 91.7919 252.175 109.21 255.324C135.77 260.125 163.845 259.303 180.834 255.359L181.003 255.324C198.42 252.175 217.074 246.71 232.084 238.822C247.217 230.868 257.919 220.845 260.798 208.928C263.156 199.166 262.081 190.543 260.318 182.799C259.408 178.801 258.404 175.378 257.505 171.767C256.648 168.329 255.933 164.881 255.917 161.621C255.795 136.777 252.349 107.587 239.571 83.3344C238.67 81.6243 239.326 79.5078 241.036 78.6068ZM145.407 25.9633C177.988 26.0512 202.004 34.5624 219.515 48.2113C221.04 49.3996 221.312 51.5989 220.124 53.1234C218.935 54.648 216.736 54.921 215.212 53.7328C199.124 41.1938 176.672 33.0331 145.308 32.9623C145.288 32.9622 145.268 32.9607 145.248 32.9603C145.186 32.9605 145.325 32.9611 145.109 32.9613H145.101C144.879 32.9611 145.03 32.9605 144.964 32.9603C144.944 32.9607 144.924 32.9622 144.904 32.9623C113.54 33.0331 91.088 41.1938 75.0007 53.7328C73.4761 54.9211 71.2769 54.648 70.0886 53.1234C68.9003 51.5988 69.1724 49.3996 70.697 48.2113C88.2082 34.5625 112.223 26.0513 144.804 25.9633C144.835 25.9625 144.865 25.9603 144.896 25.9603C144.945 25.9603 144.991 25.9611 145.025 25.9613H145.186C145.22 25.9611 145.267 25.9603 145.316 25.9603C145.346 25.9603 145.377 25.9625 145.407 25.9633Z" fill="black"/>
<path d="M110.206 182.092C110.206 188.315 105.431 193.36 99.541 193.36C93.6509 193.36 88.876 188.315 88.876 182.092C88.876 175.869 93.6509 170.824 99.541 170.824C105.431 170.824 110.206 175.869 110.206 182.092Z" fill="black"/>
<path d="M202.536 182.092C202.536 188.315 197.761 193.36 191.871 193.36C185.981 193.36 181.206 188.315 181.206 182.092C181.206 175.869 185.981 170.824 191.871 170.824C197.761 170.824 202.536 175.869 202.536 182.092Z" fill="black"/>
<path d="M115.864 196.945C115.449 188.75 123.299 184.994 127.276 184.14C144.29 180.453 159.609 182.604 165.142 184.14C169.983 185.336 174.997 189.57 174.997 196.945C174.997 206.164 166.179 213.847 146.468 213.847C126.757 213.847 116.383 207.189 115.864 196.945Z" fill="#D5D5D5"/>
<path d="M171.497 196.945C171.497 191.484 167.897 188.426 164.303 187.539C164.27 187.531 164.237 187.521 164.205 187.512C159.164 186.112 144.422 184.006 128.018 187.561L128.011 187.562C126.471 187.893 124.083 188.83 122.205 190.444C120.418 191.981 119.22 193.99 119.36 196.768C119.552 200.545 121.479 203.768 125.714 206.203C130.099 208.724 136.933 210.347 146.468 210.347C155.934 210.347 162.308 208.493 166.2 205.93C169.967 203.451 171.497 200.283 171.497 196.945ZM178.497 196.945C178.497 202.827 175.619 208.11 170.049 211.777C164.605 215.361 156.713 217.347 146.468 217.347C136.292 217.347 128.084 215.641 122.225 212.272C116.215 208.817 112.697 203.589 112.369 197.122C112.095 191.705 114.614 187.739 117.642 185.136C120.576 182.612 124.097 181.245 126.534 180.72C144.156 176.901 160.054 179.095 166.078 180.768L166.077 180.769C172.136 182.306 178.497 187.705 178.497 196.945Z" fill="black"/>
<path d="M137.635 198.994C137.635 201.54 136.241 203.603 134.522 203.603C132.804 203.603 131.41 201.54 131.41 198.994C131.41 196.448 132.804 194.384 134.522 194.384C136.241 194.384 137.635 196.448 137.635 198.994Z" fill="black"/>
<path d="M160.458 198.994C160.458 201.54 159.065 203.603 157.346 203.603C155.627 203.603 154.233 201.54 154.233 198.994C154.233 196.448 155.627 194.384 157.346 194.384C159.065 194.384 160.458 196.448 160.458 198.994Z" fill="black"/>
</svg>
