<svg width="420" height="420" viewBox="0 0 420 420" fill="none" xmlns="http://www.w3.org/2000/svg">
<path d="M139.513 37.9638C176.313 27.1638 202.18 48.4638 210.513 60.4638C217.514 46.9639 245.014 27.9638 282.014 37.9638C313.014 46.3422 327.514 81.4639 328.514 96.9639C327.68 104.131 326.414 127.464 314.014 163.464C334.514 180.464 338.514 213.464 336.514 244.964C353.514 262.464 373.513 389.464 210.513 383.964C47.5131 378.464 68.5132 291.464 82.0132 244.964C81.2132 212.164 92.347 176.964 102.014 163.464L88.5137 96.9639C89.5137 83.7972 102.713 48.7638 139.513 37.9638Z" fill="white" stroke="#A5A5A5" stroke-width="4" stroke-linecap="round" stroke-linejoin="round" stroke-dasharray="8 8"/>
<path d="M211.35 143.565C301.85 143.772 316.783 216.294 317.031 267.516C317.082 278.071 326.16 292.979 321.462 312.677C313.114 347.678 243.115 362.74 211.155 361.686C179.196 362.74 109.197 347.678 100.849 312.677C96.151 292.979 105.228 278.071 105.279 267.516C105.526 216.294 120.46 143.772 210.961 143.565V143.563C211.026 143.563 211.09 143.564 211.154 143.564C211.219 143.564 211.285 143.563 211.35 143.563V143.565Z" fill="#FDF7D6"/>
<path d="M113.621 115.463C109.491 92.0438 128.457 69.1241 151.56 65.0505C174.663 60.9769 200.324 76.0275 204.453 99.4469L206.682 154.02C208.972 187.97 196.159 205.845 182.958 208.172L171.006 210.28C157.805 212.608 144.219 198.139 130.191 167.507L113.621 115.463Z" fill="#FDF7D6"/>
<path d="M307.895 115.095C312.096 91.2696 293.255 68.0328 270.221 63.9713C247.187 59.9099 221.535 75.3011 217.334 99.1261L214.921 154.619C212.519 189.144 225.239 207.273 238.401 209.594L250.317 211.695C263.479 214.016 277.083 199.258 291.183 168.066L307.895 115.095Z" fill="#FDF7D6"/>
<path d="M132.957 124.568C129.32 103.941 140.175 84.7863 154.467 82.2664C168.758 79.7464 185.51 94.0336 189.147 114.66L192.99 162.394C195.946 192.129 188.72 207.157 180.554 208.596L173.16 209.9C164.994 211.34 155.834 198.102 145.672 170.737L132.957 124.568Z" fill="#FFD0A4"/>
<path d="M289.072 124.942C292.712 104.302 281.303 85.0374 266.436 82.416C251.569 79.7946 234.26 93.9952 230.62 114.636L226.951 162.433C224.08 192.204 231.69 207.309 240.185 208.806L247.876 210.163C256.371 211.661 265.8 198.46 276.173 171.112L289.072 124.942Z" fill="#FFD0A4"/>
<path d="M170.604 279.046C170.604 284.884 166.302 289.616 160.995 289.616C155.689 289.616 151.387 284.884 151.387 279.046C151.387 273.209 155.689 268.477 160.995 268.477C166.302 268.477 170.604 273.209 170.604 279.046Z" fill="black"/>
<path d="M271.496 279.046C271.496 284.884 267.194 289.616 261.887 289.616C256.58 289.616 252.278 284.884 252.278 279.046C252.278 273.209 256.58 268.477 261.887 268.477C267.194 268.477 271.496 273.209 271.496 279.046Z" fill="black"/>
<path d="M152.263 63.077C175.791 59.5369 201.457 74.6862 205.592 98.1391L207.758 153.675C210.001 187.682 197.196 205.871 183.808 208.721L183.17 208.845L181.954 201.952C186.057 201.228 191.186 197.898 195.203 190.107C199.205 182.346 201.853 170.499 200.774 154.136L200.764 153.948L198.616 98.9319C194.964 79.8458 172.974 66.5182 152.36 70.1529C131.744 73.7881 115.636 93.8368 118.736 113.023L135.399 165.028C142.401 180.121 149.042 190.638 155.189 197.026C161.381 203.459 166.072 204.752 169.628 204.125L170.843 211.019L170.205 211.119C156.792 212.956 143.032 198.24 128.869 167.585L111.91 114.658C107.709 90.8327 127.318 67.4606 151.145 63.2592L152.263 63.077ZM181.954 201.952L183.17 208.845L170.843 211.019L169.628 204.125L181.954 201.952Z" fill="black"/>
<path d="M269.094 63.077C245.565 59.5369 219.9 74.6862 215.764 98.1391L213.598 153.675C211.355 187.682 224.16 205.871 237.548 208.721L238.187 208.845L239.402 201.952C235.3 201.228 230.17 197.898 226.153 190.107C222.152 182.346 219.503 170.499 220.583 154.136L220.593 153.948L222.741 98.9319C226.393 79.8458 248.382 66.5182 268.996 70.1529C289.612 73.7881 305.721 93.8368 302.62 113.023L285.958 165.028C278.955 180.121 272.315 190.638 266.167 197.026C259.976 203.459 255.285 204.752 251.729 204.125L250.513 211.019L251.151 211.119C264.565 212.956 278.325 198.24 292.488 167.585L309.446 114.658C313.647 90.8327 294.039 67.4606 270.212 63.2592L269.094 63.077ZM239.402 201.952L238.187 208.845L250.513 211.019L251.729 204.125L239.402 201.952Z" fill="black"/>
<path d="M211.35 143.565C301.851 143.772 316.784 216.294 317.032 267.516C317.083 278.071 326.16 292.98 321.462 312.677C313.114 347.678 243.113 362.74 211.155 361.686C179.195 362.739 109.197 347.678 100.849 312.677C96.151 292.98 105.228 278.071 105.28 267.516C105.527 216.294 120.46 143.772 210.961 143.565V143.563C211.026 143.563 211.09 143.564 211.155 143.564C211.22 143.564 211.285 143.563 211.35 143.563V143.565Z" fill="#FDF7D6"/>
<path d="M166.761 356.877C167.145 298.456 125.603 278.085 104.784 275.203C99.9798 282.569 97.6814 307.392 101.421 315.079C110.069 332.855 120.639 342.464 166.761 356.877Z" fill="#FFD5CA"/>
<path d="M255.227 356.877C254.842 298.456 296.384 278.085 317.203 275.203C322.008 282.569 324.306 307.392 320.566 315.079C311.918 332.855 301.349 342.464 255.227 356.877Z" fill="#FFD5CA"/>
<path d="M149.022 156.042C150.65 155.001 152.814 155.477 153.856 157.105C154.897 158.734 154.421 160.899 152.792 161.94C116.723 185.002 108.956 230.924 108.779 267.533C108.765 270.613 108.098 273.865 107.304 277.091C106.468 280.489 105.542 283.685 104.698 287.435C103.068 294.685 102.079 302.745 104.254 311.865C106.914 323.017 116.844 332.412 130.936 339.872C144.907 347.268 162.267 352.378 178.434 355.299C188.988 357.206 202.31 357.887 214.599 357.74C226.926 357.592 237.888 356.614 243.748 355.326L243.877 355.299C260.044 352.378 277.405 347.267 291.376 339.871C305.467 332.411 315.398 323.017 318.058 311.865C320.233 302.745 319.243 294.685 317.612 287.435C316.769 283.685 315.844 280.489 315.008 277.091C314.214 273.865 313.546 270.613 313.531 267.533C313.355 230.924 305.588 185.002 269.519 161.94C267.89 160.899 267.414 158.734 268.455 157.105C269.497 155.476 271.662 155.001 273.29 156.042C312.664 181.218 320.353 230.652 320.531 267.499C320.542 269.696 321.029 272.266 321.805 275.418C322.538 278.4 323.597 282.141 324.443 285.9C326.189 293.667 327.389 302.911 324.866 313.489C321.5 327.604 309.339 338.282 294.651 346.058C279.866 353.885 261.791 359.169 245.2 362.173C238.631 363.61 227.134 364.59 214.683 364.74C202.16 364.89 188.349 364.205 177.189 362.188C160.576 359.186 142.468 353.897 127.66 346.058C112.972 338.282 100.811 327.604 97.4445 313.489C94.9217 302.911 96.1218 293.667 97.8683 285.9C98.7135 282.141 99.7726 278.4 100.506 275.418C101.282 272.266 101.769 269.696 101.779 267.499C101.957 230.652 109.647 181.218 149.022 156.042ZM211.449 140.066C217.131 140.082 222.535 140.377 227.672 140.932C229.594 141.14 230.984 142.866 230.777 144.788C230.569 146.709 228.842 148.099 226.92 147.891C222.014 147.361 216.826 147.077 211.342 147.065C211.322 147.065 211.302 147.063 211.282 147.063C211.228 147.063 211.374 147.064 211.159 147.064H211.152C210.935 147.064 211.085 147.063 211.027 147.063C211.008 147.063 210.988 147.065 210.969 147.065C204.104 147.081 197.704 147.521 191.738 148.338C189.823 148.601 188.058 147.261 187.796 145.346C187.534 143.431 188.873 141.666 190.788 141.404C197.062 140.544 203.748 140.086 210.871 140.066C210.901 140.065 210.931 140.063 210.961 140.063C211.007 140.063 211.052 140.064 211.083 140.064H211.229C211.26 140.064 211.304 140.063 211.35 140.063C211.383 140.063 211.416 140.065 211.449 140.066Z" fill="black"/>
<path d="M178.831 285.772C178.831 291.61 174.408 296.342 168.952 296.342C163.497 296.342 159.074 291.61 159.074 285.772C159.074 279.935 163.497 275.203 168.952 275.203C174.408 275.203 178.831 279.935 178.831 285.772Z" fill="black"/>
<path d="M264.77 285.772C264.77 291.61 260.347 296.342 254.892 296.342C249.436 296.342 245.014 291.61 245.014 285.772C245.014 279.935 249.436 275.203 254.892 275.203C260.347 275.203 264.77 279.935 264.77 285.772Z" fill="black"/>
<path d="M191.789 295.354C193.602 294.888 195.449 295.932 196.001 297.699C196.008 297.715 196.02 297.744 196.042 297.782C196.117 297.916 196.293 298.183 196.648 298.486C197.305 299.048 198.95 300.049 202.662 300.049C206.374 300.049 208.018 299.048 208.675 298.486C209.03 298.183 209.206 297.916 209.281 297.782C209.311 297.728 209.326 297.694 209.329 297.686C209.327 297.692 209.321 297.709 209.311 297.738C209.306 297.753 209.301 297.772 209.295 297.794C209.291 297.805 209.288 297.818 209.285 297.831C209.283 297.837 209.281 297.844 209.279 297.851C209.278 297.854 209.277 297.858 209.276 297.861C209.276 297.863 209.275 297.865 209.275 297.866C209.639 296.462 210.831 295.427 212.273 295.266C213.712 295.104 215.101 295.846 215.768 297.13C215.766 297.125 215.764 297.121 215.762 297.117C215.758 297.109 215.754 297.102 215.751 297.097C215.744 297.085 215.74 297.077 215.738 297.073C215.734 297.066 215.738 297.074 215.751 297.094C215.776 297.135 215.835 297.226 215.932 297.351C216.127 297.602 216.465 297.981 216.975 298.374C217.952 299.126 219.708 300.049 222.665 300.049C225.621 300.049 227.378 299.126 228.354 298.374C228.864 297.981 229.202 297.602 229.397 297.351C229.494 297.226 229.553 297.135 229.579 297.094C229.591 297.074 229.596 297.066 229.591 297.073C229.589 297.077 229.585 297.085 229.579 297.097C229.576 297.102 229.571 297.109 229.567 297.117C229.565 297.121 229.563 297.125 229.561 297.13C230.449 295.421 232.552 294.75 234.266 295.631C235.985 296.514 236.662 298.625 235.779 300.344L232.667 298.744C235.638 300.272 235.772 300.343 235.777 300.348C235.777 300.348 235.776 300.35 235.775 300.352C235.774 300.354 235.773 300.357 235.771 300.36C235.768 300.366 235.765 300.372 235.761 300.378C235.755 300.39 235.748 300.404 235.74 300.419C235.724 300.449 235.704 300.483 235.682 300.522C235.638 300.6 235.582 300.697 235.512 300.808C235.373 301.03 235.181 301.314 234.928 301.64C234.425 302.289 233.675 303.111 232.627 303.919C230.485 305.569 227.24 307.049 222.665 307.049C218.228 307.049 215.045 305.655 212.903 304.066C210.743 305.776 207.473 307.049 202.662 307.049C197.607 307.049 194.25 305.647 192.098 303.807C191.049 302.909 190.368 301.975 189.937 301.208C189.723 300.826 189.572 300.487 189.466 300.215C189.414 300.079 189.372 299.959 189.34 299.858C189.324 299.808 189.31 299.762 189.298 299.722C189.293 299.702 189.288 299.683 189.283 299.665C189.28 299.656 189.278 299.647 189.276 299.639C189.275 299.635 189.274 299.631 189.273 299.627C189.273 299.625 189.271 299.622 189.271 299.621C189.271 299.618 189.292 299.61 192.66 298.744L189.27 299.615C188.789 297.743 189.917 295.836 191.789 295.354ZM196.048 297.868C196.047 297.867 196.047 297.863 196.047 297.861C196.046 297.858 196.045 297.854 196.044 297.851C196.042 297.844 196.04 297.837 196.039 297.831C196.035 297.818 196.031 297.805 196.028 297.794C196.022 297.772 196.016 297.753 196.011 297.738C196.011 297.736 196.01 297.733 196.009 297.731C196.023 297.777 196.036 297.822 196.048 297.868Z" fill="black"/>
<path d="M215.785 288.339C217.552 287.554 219.619 288.35 220.404 290.116C221.19 291.882 220.394 293.951 218.628 294.736L214.304 296.658C213.441 297.041 212.46 297.06 211.583 296.709L206.778 294.788C204.984 294.07 204.111 292.032 204.828 290.238C205.546 288.443 207.583 287.57 209.378 288.288L212.811 289.662L215.785 288.339Z" fill="black"/>
</svg>
