<svg width="281" height="277" viewBox="0 0 281 277" fill="none" xmlns="http://www.w3.org/2000/svg">
<path d="M7.23965 150.698C7.23965 22.1977 95.0731 -2.8025 142.74 2.6975C221.74 -1.30236 273.74 58.6974 271.24 150.698C292.24 208.698 271.239 274.198 136.239 274.198C12.0126 274.198 -10.261 212.198 7.23965 150.698Z" fill="white" stroke="#A5A5A5" stroke-width="4" stroke-linecap="round" stroke-linejoin="round" stroke-dasharray="8 8"/>
<path d="M140.225 25.6995C234.411 25.9147 249.952 101.39 250.21 154.698C250.263 165.682 259.71 181.198 254.821 201.698C246.133 238.124 173.284 253.799 140.023 252.702C106.763 253.799 33.9131 238.124 25.2252 201.698C20.3359 181.198 29.7826 165.682 29.8356 154.698C30.0929 101.389 45.6348 25.9145 139.821 25.6995V25.6975C139.888 25.6975 139.955 25.6984 140.022 25.6985C140.09 25.6984 140.158 25.6975 140.225 25.6975V25.6995Z" fill="#FDF7D6"/>
<path d="M97.8203 166.698C97.8203 172.773 93.3432 177.698 87.8203 177.698C82.2975 177.698 77.8203 172.773 77.8203 166.698C77.8203 160.622 82.2975 155.698 87.8203 155.698C93.3432 155.698 97.8203 160.622 97.8203 166.698Z" fill="black"/>
<path d="M202.82 166.698C202.82 172.773 198.343 177.698 192.82 177.698C187.297 177.698 182.82 172.773 182.82 166.698C182.82 160.622 187.297 155.698 192.82 155.698C198.343 155.698 202.82 160.622 202.82 166.698Z" fill="black"/>
<path d="M140.161 25.6995C234.347 25.9147 249.889 101.39 250.146 154.698C250.199 165.682 259.646 181.198 254.757 201.698C246.069 238.124 173.219 253.799 139.959 252.702C106.698 253.799 33.8487 238.124 25.1608 201.698C20.2715 181.198 29.7181 165.682 29.7711 154.698C30.0285 101.389 45.5704 25.9145 139.757 25.6995V25.6975C139.824 25.6975 139.891 25.6984 139.958 25.6985C140.025 25.6984 140.093 25.6975 140.161 25.6975V25.6995Z" fill="#FDF7D6"/>
<path d="M109.234 233.734C81.2206 236.739 43.4138 216.962 26.7393 206.698C30.7393 228.477 82.221 252.135 139.248 253.637C196.275 255.139 259.742 220.222 253.239 202.198C223.078 233.734 190.272 233.734 171.763 233.734C153.254 233.734 149.253 228.102 139.248 228.477C129.243 228.853 126.242 233.734 109.234 233.734Z" fill="#F0E9C2"/>
<path d="M93.6746 247.698C94.0746 186.898 50.8412 165.698 29.1746 162.698C24.1745 170.364 21.7826 196.198 25.6745 204.198C34.6746 222.698 45.6746 232.698 93.6746 247.698Z" fill="#FFD5CA"/>
<path d="M185.741 247.698C185.341 186.898 228.575 165.698 250.241 162.698C255.241 170.364 257.633 196.198 253.741 204.198C244.741 222.698 233.741 232.698 185.741 247.698Z" fill="#FFD5CA"/>
<path d="M140.263 22.2004C188.425 22.3357 216.999 41.8082 233.359 68.4573C249.554 94.8364 253.517 127.81 253.646 154.681C253.658 156.986 254.168 159.674 254.976 162.956C255.741 166.067 256.84 169.95 257.72 173.862C259.535 181.934 260.779 191.531 258.161 202.509C255.739 212.664 248.912 221.099 239.962 227.965C231.004 234.837 219.679 240.327 207.744 244.569C183.957 253.021 157.061 256.746 139.958 256.202C122.855 256.745 95.9594 253.021 72.1729 244.569C60.2378 240.327 48.914 234.837 39.9561 227.965C31.0057 221.099 24.178 212.664 21.7559 202.509C19.1376 191.531 20.383 181.934 22.1983 173.862C23.0778 169.95 24.177 166.067 24.9424 162.956C25.7499 159.674 26.2603 156.986 26.2715 154.681C26.4012 127.81 30.3633 94.8364 46.5576 68.4573C62.9177 41.8082 91.4924 22.3357 139.654 22.2004C139.688 22.1995 139.723 22.1975 139.757 22.1975C139.804 22.1975 139.849 22.1983 139.882 22.1985H140.035C140.068 22.1983 140.114 22.1975 140.161 22.1975C140.195 22.1975 140.229 22.1995 140.263 22.2004ZM139.962 29.1985H139.954C139.733 29.1982 139.886 29.1977 139.824 29.1975C139.804 29.1979 139.785 29.1994 139.765 29.1995C93.7977 29.3044 67.5346 47.6678 52.5235 72.1194C37.336 96.8584 33.3991 128.277 33.2715 154.714C33.2561 157.902 32.565 161.273 31.7393 164.629C30.8713 168.157 29.9049 171.494 29.0274 175.397C27.3284 182.953 26.2946 191.365 28.5654 200.886C30.4873 208.943 36.0244 216.128 44.2158 222.411C52.3999 228.689 62.996 233.879 74.5166 237.973C97.5881 246.171 123.68 249.737 139.844 249.204H140.074C156.238 249.737 182.329 246.171 205.4 237.973C216.921 233.879 227.517 228.689 235.701 222.411C243.893 216.128 249.43 208.943 251.352 200.886C253.622 191.365 252.589 182.953 250.89 175.397C250.012 171.494 249.046 168.157 248.178 164.629C247.352 161.273 246.662 157.902 246.646 154.714C246.519 128.277 242.581 96.8593 227.394 72.1204C212.382 47.6686 186.119 29.3045 140.152 29.1995C140.132 29.1994 140.113 29.1979 140.093 29.1975C140.035 29.1977 140.176 29.1982 139.962 29.1985Z" fill="black"/>
<path d="M104.3 173.698C104.3 179.773 99.6973 184.698 94.0196 184.698C88.3419 184.698 83.7393 179.773 83.7393 173.698C83.7393 167.622 88.3419 162.698 94.0196 162.698C99.6973 162.698 104.3 167.622 104.3 173.698Z" fill="black"/>
<path d="M193.739 173.698C193.739 179.773 189.137 184.698 183.459 184.698C177.781 184.698 173.179 179.773 173.179 173.698C173.179 167.622 177.781 162.698 183.459 162.698C189.137 162.698 193.739 167.622 193.739 173.698Z" fill="black"/>
<path d="M117.822 191.808C119.638 191.341 121.486 192.388 122.035 194.16C122.043 194.178 122.06 194.215 122.089 194.266C122.174 194.418 122.367 194.71 122.751 195.037C123.465 195.648 125.212 196.697 129.102 196.697C132.992 196.697 134.739 195.648 135.453 195.037C135.836 194.709 136.03 194.418 136.115 194.266C136.15 194.204 136.167 194.164 136.173 194.152C136.585 192.834 137.737 191.874 139.121 191.719C140.56 191.558 141.949 192.299 142.616 193.583C142.614 193.579 142.612 193.574 142.61 193.57C142.606 193.563 142.602 193.556 142.599 193.55C142.593 193.539 142.589 193.532 142.588 193.529C142.59 193.532 142.595 193.541 142.603 193.555C142.632 193.601 142.696 193.7 142.8 193.834C143.01 194.104 143.37 194.508 143.912 194.925C144.952 195.726 146.81 196.697 149.92 196.697C153.029 196.697 154.888 195.726 155.927 194.925C156.469 194.508 156.83 194.104 157.039 193.834C157.143 193.7 157.207 193.601 157.236 193.555C157.25 193.533 157.255 193.523 157.253 193.529C157.251 193.532 157.246 193.539 157.24 193.55C157.237 193.556 157.233 193.563 157.229 193.57C157.227 193.574 157.226 193.579 157.223 193.583C158.111 191.875 160.214 191.203 161.928 192.084C163.647 192.968 164.325 195.078 163.441 196.797L160.329 195.197C163.29 196.72 163.433 196.796 163.439 196.801C163.439 196.802 163.438 196.804 163.437 196.805C163.436 196.808 163.435 196.811 163.433 196.814C163.43 196.819 163.427 196.825 163.423 196.831C163.417 196.844 163.409 196.858 163.401 196.873C163.385 196.903 163.366 196.939 163.343 196.979C163.298 197.058 163.241 197.156 163.17 197.27C163.027 197.497 162.83 197.789 162.571 198.123C162.053 198.791 161.281 199.637 160.2 200.47C157.995 202.169 154.648 203.697 149.92 203.697C145.273 203.697 141.962 202.22 139.757 200.557C137.539 202.346 134.147 203.697 129.102 203.697C123.869 203.697 120.41 202.247 118.201 200.358C117.123 199.435 116.425 198.477 115.984 197.692C115.765 197.301 115.61 196.954 115.503 196.677C115.449 196.538 115.406 196.416 115.374 196.314C115.358 196.263 115.344 196.217 115.333 196.176C115.327 196.156 115.321 196.136 115.316 196.118C115.314 196.109 115.311 196.1 115.309 196.092C115.308 196.088 115.307 196.084 115.306 196.08C115.306 196.078 115.305 196.075 115.304 196.074C115.304 196.072 115.326 196.063 118.693 195.197L115.303 196.069C114.822 194.196 115.95 192.289 117.822 191.808ZM122.081 194.321C122.08 194.321 122.08 194.316 122.08 194.315C122.079 194.311 122.078 194.307 122.077 194.304C122.075 194.297 122.074 194.291 122.072 194.284C122.068 194.271 122.064 194.259 122.061 194.248L122.081 194.321ZM136.159 194.194C136.154 194.208 136.149 194.226 136.142 194.248C136.139 194.259 136.136 194.271 136.132 194.284C136.131 194.291 136.128 194.297 136.127 194.304C136.126 194.307 136.125 194.311 136.124 194.315C136.123 194.316 136.123 194.318 136.123 194.32C136.137 194.263 136.155 194.208 136.173 194.153C136.17 194.159 136.166 194.172 136.159 194.194Z" fill="black"/>
</svg>
