<svg width="420" height="420" viewBox="0 0 420 420" fill="none" xmlns="http://www.w3.org/2000/svg">
<path d="M263.709 50.2315C257.713 48.2172 242.221 59.2961 228.729 85.4825C222.899 81.118 206.742 77.9287 188.752 85.4823C181.755 75.5785 164.965 50.6343 155.77 50.2315C140.279 49.5527 126.287 66.8497 117.792 98.5755C87.8085 96.964 71.9843 112.676 67.82 118.215C62.8228 122.915 58.8249 141.582 82.8114 178.645C71.6177 186.3 68.1531 219.771 67.82 235.55C45.6659 281.712 55.8268 369 210.239 369C373.147 369 373.147 278.355 350.16 235.55C351.16 211.378 346.162 187.206 342.665 174.113C362.654 154.473 357.157 120.733 356.157 118.215C355.158 115.697 347.162 97.0647 301.188 98.5755C294.692 65.8424 269.706 52.2459 263.709 50.2315Z" fill="white" stroke="#A5A5A5" stroke-width="4" stroke-linecap="round" stroke-linejoin="round" stroke-dasharray="8 8"/>
<path d="M87.9033 133.511C93.2403 116.511 130.24 123.338 141.57 124.453C161.834 135.289 147.409 189.421 132.172 188.347C109.125 186.723 81.6245 153.511 87.9033 133.511Z" fill="#FDF7D6"/>
<path d="M330.557 133.511C325.22 116.511 288.221 123.338 276.89 124.453C256.626 135.289 271.051 189.421 286.288 188.347C309.336 186.723 336.836 153.511 330.557 133.511Z" fill="#FDF7D6"/>
<path d="M87.9035 136.011C84.3035 150.811 98.0701 167.511 105.403 174.011C123.003 174.011 131.403 152.344 133.403 141.511C124.07 137.677 101.903 131.211 87.9035 136.011Z" fill="#FFD0A4"/>
<path d="M332.814 136.011C336.414 150.811 322.647 167.511 315.314 174.011C297.714 174.011 289.314 152.344 287.314 141.511C296.647 137.677 318.814 131.211 332.814 136.011Z" fill="#FFD0A4"/>
<path d="M157.42 81.1639C166.156 81.7912 166.903 96.5106 182.403 110.011C176.004 129.211 153.34 129.003 142.808 126.499C128.685 100.365 146.499 80.3796 157.42 81.1639Z" fill="#AA865D"/>
<path d="M263.002 81.1639C254.265 81.7912 253.518 96.5106 238.018 110.011C244.953 118.003 262.582 132.49 277.614 126.499C291.737 100.365 273.923 80.3796 263.002 81.1639Z" fill="#AA865D"/>
<path d="M210.116 108.013C309.407 108.239 325.791 187.684 326.062 243.795C326.118 255.358 336.078 271.689 330.923 293.267C321.765 331.609 244.967 348.108 209.903 346.954C174.84 348.108 98.0421 331.609 88.8834 293.267C83.7291 271.689 93.6877 255.358 93.7436 243.795C94.0149 187.684 110.399 108.239 209.69 108.013V108.011C209.761 108.011 209.832 108.012 209.902 108.012C209.974 108.012 210.045 108.011 210.116 108.011V108.013Z" fill="#FDF7D6"/>
<path d="M95.6636 121.511C90.6526 123.486 86.3175 126.878 84.5644 132.462C82.696 138.414 83.4179 145.048 85.622 151.431C87.8364 157.843 91.6351 164.275 96.3271 170.031C105.591 181.396 119.032 190.93 131.927 191.838C134.94 192.051 137.658 190.869 139.919 189.125C142.169 187.39 144.163 184.956 145.888 182.193C149.34 176.661 152.065 169.238 153.615 161.559C155.165 153.88 155.599 145.653 154.231 138.502C152.871 131.395 149.598 124.776 143.221 121.366L143.067 121.289C142.704 121.118 142.313 121.01 141.913 120.97C136.578 120.445 124.022 118.404 112.403 118.69C106.567 118.834 100.615 119.559 95.6636 121.511ZM91.243 134.559C92.1584 131.643 94.449 129.514 98.2303 128.023C102.071 126.509 107.078 125.823 112.575 125.688C123.174 125.427 134.289 127.191 140.469 127.856C143.921 129.971 146.255 134.06 147.356 139.816C148.506 145.828 148.181 153.1 146.753 160.173C145.326 167.246 142.853 173.833 139.949 178.487C138.495 180.817 137.02 182.521 135.644 183.583C134.279 184.636 133.214 184.912 132.418 184.855C122.266 184.14 110.432 176.256 101.753 165.609C97.4739 160.359 94.135 154.636 92.2388 149.145C90.3323 143.625 89.972 138.608 91.243 134.559Z" fill="black"/>
<path d="M322.797 121.511C327.808 123.486 332.143 126.878 333.896 132.462C335.764 138.414 335.043 145.048 332.838 151.431C330.624 157.843 326.825 164.275 322.133 170.031C312.87 181.396 299.429 190.93 286.533 191.838C283.521 192.051 280.802 190.869 278.541 189.125C276.291 187.39 274.297 184.956 272.573 182.193C269.121 176.661 266.396 169.238 264.846 161.559C263.296 153.88 262.861 145.653 264.229 138.502C265.589 131.395 268.863 124.776 275.24 121.366L275.394 121.289C275.757 121.118 276.147 121.01 276.548 120.97C281.883 120.445 294.439 118.404 306.057 118.69C311.893 118.834 317.845 119.559 322.797 121.511ZM327.217 134.559C326.302 131.643 324.011 129.514 320.23 128.023C316.389 126.509 311.382 125.823 305.885 125.688C295.287 125.427 284.172 127.191 277.992 127.856C274.54 129.971 272.206 134.06 271.104 139.816C269.954 145.828 270.279 153.1 271.707 160.173C273.135 167.246 275.607 173.833 278.511 178.487C279.966 180.817 281.44 182.521 282.817 183.583C284.182 184.636 285.246 184.912 286.042 184.855C296.195 184.14 308.029 176.256 316.708 165.609C320.987 160.359 324.325 154.636 326.222 149.145C328.128 143.625 328.488 138.608 327.217 134.559Z" fill="black"/>
<path d="M157.67 77.6725C160.996 77.9114 163.458 79.546 165.408 81.6708C167.245 83.6725 168.828 86.3373 170.389 88.98C173.606 94.4267 177.422 101.031 184.702 107.371C186.16 108.641 186.312 110.852 185.042 112.309C183.773 113.767 181.562 113.92 180.104 112.65C171.884 105.491 167.577 97.985 164.361 92.5402C162.705 89.7372 161.495 87.7601 160.25 86.4036C159.119 85.1703 158.21 84.7298 157.168 84.655C155.516 84.5365 153.159 85.2117 150.602 87.0719C148.095 88.8954 145.645 91.6903 143.856 95.293C140.329 102.398 139.343 112.727 145.886 124.835C146.805 126.535 146.172 128.659 144.471 129.578C142.77 130.497 140.647 129.863 139.728 128.162C132.148 114.136 133.007 101.406 137.586 92.1807C139.851 87.6185 143.02 83.9309 146.483 81.4111C149.896 78.9283 153.862 77.399 157.67 77.6725Z" fill="black"/>
<path d="M151.85 96.6318C151.088 94.8553 149.031 94.0325 147.254 94.7939L136.754 99.2939C134.978 100.055 134.155 102.113 134.916 103.89C135.678 105.666 137.735 106.489 139.512 105.728L150.012 101.228C151.789 100.466 152.611 98.4084 151.85 96.6318Z" fill="black"/>
<path d="M151.85 106.632C151.088 104.855 149.031 104.033 147.254 104.794L136.754 109.294C134.978 110.055 134.155 112.113 134.916 113.89C135.678 115.666 137.735 116.489 139.512 115.728L150.012 111.228C151.789 110.466 152.611 108.408 151.85 106.632Z" fill="black"/>
<path d="M262.751 77.6725C259.424 77.9114 256.962 79.546 255.012 81.6708C253.176 83.6725 251.593 86.3373 250.032 88.98C246.815 94.4267 242.998 101.031 235.718 107.371C234.261 108.641 234.109 110.852 235.378 112.309C236.647 113.767 238.859 113.92 240.316 112.65C248.536 105.491 252.844 97.985 256.06 92.5402C257.715 89.7372 258.925 87.7601 260.17 86.4036C261.302 85.1703 262.211 84.7298 263.253 84.655C264.905 84.5365 267.261 85.2117 269.818 87.0719C272.325 88.8954 274.776 91.6903 276.564 95.293C280.091 102.398 281.077 112.727 274.534 124.835C273.615 126.535 274.249 128.659 275.949 129.578C277.65 130.497 279.774 129.863 280.693 128.162C288.272 114.136 287.414 101.406 282.834 92.1807C280.569 87.6185 277.401 83.9309 273.937 81.4111C270.524 78.9283 266.559 77.399 262.751 77.6725Z" fill="black"/>
<path d="M268.571 96.6318C269.332 94.8553 271.39 94.0325 273.166 94.7939L283.666 99.2939C285.443 100.055 286.266 102.113 285.504 103.89C284.743 105.666 282.685 106.489 280.908 105.728L270.408 101.228C268.632 100.466 267.809 98.4084 268.571 96.6318Z" fill="black"/>
<path d="M268.571 106.632C269.332 104.855 271.39 104.033 273.166 104.794L283.666 109.294C285.443 110.055 286.266 112.113 285.504 113.89C284.743 115.666 282.685 116.489 280.908 115.728L270.408 111.228C268.632 110.466 267.809 108.408 268.571 106.632Z" fill="black"/>
<path d="M210.084 107.549C309.44 107.776 325.835 187.394 326.106 243.628C326.162 255.216 336.128 271.583 330.971 293.208C321.806 331.633 244.957 348.169 209.871 347.012C174.785 348.169 97.9359 331.633 88.7714 293.208C83.614 271.583 93.5795 255.216 93.6356 243.628C93.9071 187.394 110.302 107.776 209.658 107.549V107.547C209.729 107.547 209.8 107.548 209.871 107.548C209.942 107.548 210.013 107.547 210.084 107.547V107.549Z" fill="#FDF7D6"/>
<path d="M144.803 319.982C133.782 309.54 141.404 281.198 156.903 279.51C172.402 277.823 184.903 257.511 210.903 257.51C236.903 257.51 239.903 272.232 258.903 276.51C277.903 280.789 284.346 304.437 277.903 315.01C269.85 328.227 247.981 342.011 213.255 342.011C176.706 342.011 160.593 334.943 144.803 319.982Z" fill="#FDFFFF"/>
<path d="M275.903 336.51C267.903 272.01 304.792 254.293 327.717 251.01C331.42 259.01 335.021 286.758 330.903 295.51C321.38 315.752 302.403 327.51 275.903 336.51Z" fill="#FFD5CA"/>
<path d="M146.403 337.01C155.403 284.01 114.839 254.293 91.9141 251.01C88.2107 259.01 84.6099 286.758 88.7278 295.51C98.2506 315.752 115.903 325.51 146.403 337.01Z" fill="#FFD5CA"/>
<path d="M307.46 158.242C309.175 157.35 311.289 158.016 312.181 159.731C325.943 186.183 329.481 217.579 329.607 243.611C329.618 246.066 330.162 248.921 331.015 252.386C331.825 255.679 332.981 259.76 333.908 263.886C335.82 272.388 337.128 282.479 334.375 294.02C330.731 309.297 317.599 320.917 301.613 329.425C285.511 337.996 265.791 343.805 247.636 347.129C236.597 349.15 221.354 349.805 207.184 349.642C193.02 349.48 179.575 348.497 172.107 347.129C153.951 343.805 134.232 337.996 118.129 329.425C102.143 320.917 89.0111 309.297 85.3673 294.02C82.6147 282.479 83.9224 272.388 85.8341 263.886C86.7619 259.76 87.9175 255.679 88.7277 252.386C89.5801 248.921 90.124 246.066 90.1359 243.611C90.2616 217.579 93.8 186.183 107.562 159.731C108.454 158.016 110.568 157.35 112.282 158.242C113.997 159.134 114.664 161.248 113.772 162.962C100.765 187.964 97.2594 218.05 97.1359 243.645C97.1198 246.983 96.3961 250.52 95.5255 254.058C94.6127 257.768 93.589 261.304 92.6632 265.421C90.8678 273.406 89.7719 282.312 92.1769 292.396C95.1169 304.723 106.034 315.059 121.417 323.247C136.684 331.372 155.655 337.001 173.367 340.244C180.254 341.504 193.235 342.481 207.264 342.642C221.285 342.803 236 342.143 246.375 340.244C264.087 337.001 283.059 331.372 298.325 323.247C313.709 315.059 324.626 304.723 327.566 292.396C329.971 282.312 328.875 273.406 327.079 265.421C326.153 261.304 325.13 257.768 324.217 254.058C323.346 250.52 322.623 246.983 322.607 243.645C322.483 218.05 318.978 187.964 305.971 162.962C305.079 161.248 305.745 159.134 307.46 158.242ZM210.175 104.05C243.306 104.14 267.719 112.906 285.514 126.953C287.031 128.15 287.29 130.351 286.093 131.869C284.895 133.386 282.694 133.645 281.177 132.448C264.807 119.526 241.969 111.122 210.076 111.049C210.056 111.049 210.036 111.048 210.016 111.047C209.952 111.048 210.093 111.048 209.874 111.048H209.866C209.64 111.048 209.795 111.048 209.726 111.047C209.706 111.048 209.686 111.049 209.666 111.049C177.773 111.122 154.936 119.526 138.566 132.448C137.048 133.645 134.847 133.386 133.65 131.869C132.452 130.351 132.711 128.15 134.229 126.953C152.024 112.906 176.436 104.141 209.567 104.05C209.597 104.05 209.628 104.047 209.658 104.047C209.707 104.047 209.754 104.048 209.788 104.048H209.953C209.988 104.048 210.035 104.047 210.084 104.047C210.114 104.047 210.145 104.05 210.175 104.05Z" fill="black"/>
<path d="M176.964 262.011C176.964 268.086 172.361 273.011 166.684 273.011C161.006 273.011 156.403 268.086 156.403 262.011C156.403 255.936 161.006 251.011 166.684 251.011C172.361 251.011 176.964 255.936 176.964 262.011Z" fill="black"/>
<path d="M266.404 262.011C266.404 268.086 261.801 273.011 256.123 273.011C250.445 273.011 245.843 268.086 245.843 262.011C245.843 255.936 250.445 251.011 256.123 251.011C261.801 251.011 266.404 255.936 266.404 262.011Z" fill="black"/>
<path d="M190.486 274.121C192.302 273.654 194.15 274.702 194.698 276.474C194.706 276.491 194.723 276.528 194.752 276.579C194.837 276.731 195.031 277.023 195.414 277.351C196.128 277.961 197.875 279.011 201.766 279.011C205.656 279.011 207.402 277.961 208.116 277.351C208.5 277.023 208.693 276.731 208.778 276.579C208.813 276.517 208.831 276.477 208.836 276.465C209.249 275.147 210.401 274.187 211.784 274.032C213.223 273.871 214.612 274.613 215.279 275.896C215.277 275.892 215.276 275.888 215.274 275.884C215.269 275.876 215.266 275.869 215.263 275.863C215.257 275.852 215.253 275.845 215.251 275.842C215.253 275.845 215.258 275.854 215.267 275.868C215.296 275.914 215.36 276.013 215.464 276.147C215.673 276.417 216.034 276.821 216.575 277.238C217.615 278.039 219.473 279.011 222.583 279.011C225.693 279.011 227.551 278.039 228.591 277.238C229.133 276.821 229.493 276.417 229.702 276.147C229.806 276.013 229.871 275.914 229.9 275.868C229.913 275.846 229.919 275.837 229.916 275.842C229.914 275.845 229.91 275.852 229.903 275.863C229.9 275.869 229.897 275.876 229.893 275.884C229.891 275.888 229.889 275.892 229.887 275.896C230.775 274.188 232.878 273.516 234.592 274.397C236.311 275.281 236.988 277.391 236.105 279.11L232.992 277.511C235.954 279.033 236.097 279.109 236.103 279.114C236.102 279.115 236.101 279.117 236.101 279.118C236.099 279.121 236.098 279.124 236.097 279.127C236.094 279.133 236.09 279.138 236.087 279.144C236.08 279.157 236.073 279.171 236.065 279.186C236.048 279.217 236.029 279.252 236.007 279.292C235.962 279.371 235.904 279.469 235.833 279.583C235.691 279.81 235.494 280.102 235.235 280.436C234.717 281.104 233.944 281.95 232.863 282.783C230.659 284.482 227.312 286.011 222.583 286.011C217.936 286.011 214.626 284.533 212.42 282.87C210.203 284.66 206.81 286.011 201.766 286.011C196.533 286.011 193.074 284.56 190.864 282.671C189.786 281.749 189.088 280.79 188.648 280.005C188.428 279.614 188.274 279.267 188.166 278.99C188.112 278.851 188.07 278.729 188.037 278.627C188.021 278.576 188.008 278.53 187.996 278.489C187.99 278.469 187.984 278.449 187.98 278.432C187.977 278.423 187.975 278.413 187.973 278.405C187.972 278.401 187.971 278.397 187.97 278.393C187.969 278.392 187.968 278.389 187.968 278.388C187.967 278.385 187.989 278.376 191.357 277.511L187.967 278.382C187.486 276.51 188.613 274.602 190.486 274.121ZM194.744 276.635C194.744 276.634 194.744 276.63 194.743 276.628C194.742 276.624 194.741 276.62 194.74 276.617C194.739 276.61 194.737 276.604 194.736 276.598C194.732 276.585 194.728 276.572 194.725 276.561L194.744 276.635ZM208.822 276.507C208.818 276.521 208.812 276.539 208.806 276.561C208.803 276.572 208.8 276.585 208.796 276.598C208.794 276.604 208.792 276.61 208.79 276.617C208.789 276.621 208.788 276.624 208.787 276.628C208.787 276.629 208.787 276.631 208.786 276.633C208.801 276.576 208.819 276.521 208.836 276.466C208.834 276.472 208.829 276.486 208.822 276.507Z" fill="black"/>
</svg>
