<svg width="306" height="323" viewBox="0 0 306 323" fill="none" xmlns="http://www.w3.org/2000/svg">
<path d="M206.627 2.23176C200.63 0.217425 185.139 11.2964 171.647 37.4827C165.817 33.1183 149.659 29.929 131.669 37.4826C124.673 27.5788 107.882 2.63458 98.6875 2.23171C83.1963 1.55296 69.2042 18.85 60.709 50.5757C30.726 48.9643 14.9017 64.6761 10.7375 70.2155C5.74026 74.9156 1.74242 93.5818 25.7288 130.646C14.5352 138.3 11.0706 171.772 10.7375 187.551C-11.4166 233.712 -1.25576 321 153.157 321C316.065 321 316.065 230.355 293.078 187.551C294.077 163.379 289.08 139.206 285.582 126.113C305.571 106.474 300.074 72.7334 299.075 70.2155C298.075 67.6976 290.079 49.065 244.105 50.5757C237.609 17.8426 212.623 4.24609 206.627 2.23176Z" fill="white" stroke="#A5A5A5" stroke-width="4" stroke-linecap="round" stroke-linejoin="round" stroke-dasharray="8 8"/>
<path d="M30.8208 85.511C36.1578 68.511 73.1574 75.3386 84.4878 76.4536C104.751 87.2889 90.3267 141.421 75.0899 140.347C52.042 138.724 24.5419 105.511 30.8208 85.511Z" fill="#FDF7D6"/>
<path d="M273.475 85.511C268.138 68.511 231.138 75.3386 219.808 76.4536C199.544 87.2889 213.969 141.421 229.206 140.347C252.253 138.724 279.753 105.511 273.475 85.511Z" fill="#FDF7D6"/>
<path d="M30.8209 88.011C27.2209 102.811 40.9876 119.511 48.3209 126.011C65.921 126.011 74.3209 104.344 76.3209 93.511C66.9876 89.6776 44.8209 83.211 30.8209 88.011Z" fill="#FFD0A4"/>
<path d="M275.731 88.011C279.331 102.811 265.565 119.511 258.231 126.011C240.631 126.011 232.231 104.344 230.231 93.511C239.565 89.6776 261.731 83.211 275.731 88.011Z" fill="#FFD0A4"/>
<path d="M100.337 33.1641C109.074 33.7915 109.821 48.5109 125.321 62.0109C118.921 81.2108 96.2572 81.0031 85.7253 78.4992C71.6022 52.3648 89.4161 32.3799 100.337 33.1641Z" fill="#AA865D"/>
<path d="M205.919 33.1641C197.183 33.7915 196.435 48.5109 180.935 62.0109C187.871 70.0031 205.499 84.4898 220.531 78.4992C234.654 52.3648 216.84 32.3799 205.919 33.1641Z" fill="#AA865D"/>
<path d="M153.034 60.013C252.325 60.2396 268.708 139.684 268.98 195.795C269.036 207.358 278.995 223.689 273.841 245.267C264.682 283.609 187.884 300.108 152.821 298.955C117.758 300.109 40.9596 283.609 31.8009 245.267C26.6465 223.689 36.6052 207.358 36.6611 195.795C36.9324 139.684 53.3166 60.2394 152.608 60.013V60.011C152.678 60.011 152.749 60.0119 152.82 60.012C152.891 60.0119 152.963 60.011 153.034 60.011V60.013Z" fill="#FDF7D6"/>
<path d="M38.5811 73.5112C33.5701 75.4866 29.235 78.8785 27.4819 84.4625C25.6135 90.414 26.3354 97.0487 28.5395 103.431C30.7539 109.843 34.5526 116.275 39.2446 122.031C48.5081 133.396 61.9491 142.93 74.8444 143.839C77.8573 144.051 80.5759 142.87 82.8369 141.125C85.0868 139.39 87.0809 136.956 88.8051 134.193C92.2572 128.661 94.9821 121.239 96.5322 113.559C98.0822 105.88 98.5166 97.6531 97.1485 90.5018C95.7889 83.3949 92.5151 76.7765 86.1381 73.3666L85.9842 73.2897C85.6213 73.118 85.2306 73.0098 84.8302 72.9704C79.4953 72.4454 66.9392 70.4045 55.3205 70.6903C49.4845 70.8338 43.5327 71.5592 38.5811 73.5112ZM34.1604 86.5595C35.0758 83.6436 37.3664 81.5139 41.1477 80.0231C44.9886 78.509 49.9957 77.8233 55.4929 77.6881C66.0912 77.4275 77.206 79.1911 83.3862 79.8561C86.8383 81.9713 89.1723 86.0603 90.2735 91.8166C91.4237 97.8286 91.0987 105.1 89.671 112.173C88.2433 119.247 85.7708 125.833 82.8665 130.487C81.4122 132.818 79.9375 134.522 78.5613 135.583C77.1964 136.636 76.1319 136.912 75.3358 136.856C65.1833 136.14 53.3492 128.256 44.6704 117.609C40.3914 112.359 37.0524 106.636 35.1563 101.146C33.2498 95.625 32.8895 90.608 34.1604 86.5595Z" fill="black"/>
<path d="M265.714 73.5112C270.725 75.4866 275.06 78.8785 276.814 84.4625C278.682 90.414 277.96 97.0487 275.756 103.431C273.542 109.843 269.743 116.275 265.051 122.031C255.787 133.396 242.346 142.93 229.451 143.839C226.438 144.051 223.719 142.87 221.458 141.125C219.209 139.39 217.214 136.956 215.49 134.193C212.038 128.661 209.313 121.239 207.763 113.559C206.213 105.88 205.779 97.6531 207.147 90.5018C208.506 83.3949 211.78 76.7765 218.157 73.3666L218.311 73.2897C218.674 73.118 219.065 73.0098 219.465 72.9704C224.8 72.4454 237.356 70.4045 248.975 70.6903C254.811 70.8338 260.763 71.5592 265.714 73.5112ZM270.135 86.5595C269.22 83.6436 266.929 81.5139 263.148 80.0231C259.307 78.509 254.3 77.8233 248.802 77.6881C238.204 77.4275 227.089 79.1911 220.909 79.8561C217.457 81.9713 215.123 86.0603 214.022 91.8166C212.872 97.8286 213.197 105.1 214.624 112.173C216.052 119.247 218.525 125.833 221.429 130.487C222.883 132.818 224.358 134.522 225.734 135.583C227.099 136.636 228.164 136.912 228.96 136.856C239.112 136.14 250.946 128.256 259.625 117.609C263.904 112.359 267.243 106.636 269.139 101.146C271.046 95.625 271.406 90.608 270.135 86.5595Z" fill="black"/>
<path d="M100.587 29.6728C103.914 29.9117 106.376 31.5462 108.326 33.671C110.162 35.6727 111.745 38.3376 113.306 40.9802C116.523 46.4269 120.34 53.0308 127.62 59.3713C129.077 60.6408 129.229 62.8518 127.96 64.3094C126.69 65.7669 124.479 65.92 123.022 64.6507C114.802 57.4912 110.494 49.9853 107.278 44.5404C105.623 41.7375 104.413 39.7604 103.168 38.4039C102.036 37.1705 101.127 36.73 100.085 36.6552C98.4332 36.5367 96.0765 37.2119 93.5194 39.0721C91.0128 40.8957 88.5622 43.6906 86.7738 47.2933C83.247 54.3978 82.2606 64.7268 88.8037 76.8348C89.7227 78.5353 89.089 80.6589 87.3885 81.5779C85.6879 82.4969 83.5643 81.8633 82.6454 80.1627C75.0658 66.1367 75.9244 53.4061 80.5038 44.1809C82.7686 39.6187 85.9372 35.9311 89.4007 33.4114C92.8135 30.9286 96.779 29.3993 100.587 29.6728Z" fill="black"/>
<path d="M94.7674 48.6321C94.0058 46.8555 91.9483 46.0328 90.1717 46.7942L79.6716 51.2942C77.8951 52.0557 77.0723 54.1132 77.8338 55.8899C78.5953 57.6664 80.6528 58.4892 82.4295 57.7278L92.9295 53.2278C94.706 52.4662 95.5288 50.4087 94.7674 48.6321Z" fill="black"/>
<path d="M94.7674 58.6321C94.0058 56.8555 91.9483 56.0328 90.1717 56.7942L79.6716 61.2942C77.8951 62.0557 77.0723 64.1132 77.8338 65.8899C78.5953 67.6664 80.6528 68.4892 82.4295 67.7278L92.9295 63.2278C94.706 62.4662 95.5288 60.4087 94.7674 58.6321Z" fill="black"/>
<path d="M205.668 29.6728C202.342 29.9117 199.88 31.5462 197.93 33.671C196.093 35.6727 194.51 38.3376 192.949 40.9802C189.732 46.4269 185.916 53.0308 178.636 59.3713C177.178 60.6408 177.026 62.8518 178.295 64.3094C179.565 65.7669 181.776 65.92 183.234 64.6507C191.454 57.4912 195.761 49.9853 198.977 44.5404C200.633 41.7375 201.843 39.7604 203.087 38.4039C204.219 37.1705 205.128 36.73 206.17 36.6552C207.822 36.5367 210.179 37.2119 212.736 39.0721C215.243 40.8957 217.693 43.6906 219.482 47.2933C223.008 54.3978 223.995 64.7268 217.452 76.8348C216.533 78.5353 217.166 80.6589 218.867 81.5779C220.567 82.4969 222.691 81.8633 223.61 80.1627C231.19 66.1367 230.331 53.4061 225.752 44.1809C223.487 39.6187 220.318 35.9311 216.855 33.4114C213.442 30.9286 209.476 29.3993 205.668 29.6728Z" fill="black"/>
<path d="M211.488 48.6321C212.25 46.8555 214.307 46.0328 216.084 46.7942L226.584 51.2942C228.36 52.0557 229.183 54.1132 228.422 55.8899C227.66 57.6664 225.603 58.4892 223.826 57.7278L213.326 53.2278C211.549 52.4662 210.727 50.4087 211.488 48.6321Z" fill="black"/>
<path d="M211.488 58.6321C212.25 56.8555 214.307 56.0328 216.084 56.7942L226.584 61.2942C228.36 62.0557 229.183 64.1132 228.422 65.8899C227.66 67.6664 225.603 68.4892 223.826 67.7278L213.326 63.2278C211.549 62.4662 210.727 60.4087 211.488 58.6321Z" fill="black"/>
<path d="M153.001 59.5496C252.358 59.7763 268.752 139.395 269.024 195.629C269.08 207.216 279.045 223.583 273.888 245.208C264.723 283.633 187.875 300.169 152.788 299.012C117.702 300.169 40.8534 283.633 31.6888 245.208C26.5315 223.583 36.497 207.216 36.5531 195.629C36.8245 139.395 53.2195 59.7764 152.576 59.5496V59.5476C152.647 59.5476 152.718 59.5485 152.788 59.5486C152.859 59.5485 152.93 59.5476 153.001 59.5476V59.5496Z" fill="#FDF7D6"/>
<path d="M87.7209 271.983C76.6998 261.54 84.3219 233.199 99.8206 231.511C115.319 229.823 127.821 209.511 153.821 209.511C179.821 209.511 182.821 224.232 201.821 228.511C220.821 232.79 227.263 256.437 220.821 267.011C212.767 280.228 190.898 294.011 156.173 294.011C119.624 294.011 103.51 286.943 87.7209 271.983Z" fill="#FDFFFF"/>
<path d="M218.821 288.511C210.821 224.011 247.709 206.293 270.634 203.011C274.338 211.011 277.938 238.758 273.821 247.511C264.298 267.752 245.321 279.511 218.821 288.511Z" fill="#FFD5CA"/>
<path d="M89.3207 289.011C98.3207 236.011 57.7566 206.293 34.8315 203.011C31.1282 211.011 27.5274 238.758 31.6453 247.511C41.168 267.752 58.8207 277.511 89.3207 289.011Z" fill="#FFD5CA"/>
<path d="M250.378 110.242C252.092 109.35 254.206 110.017 255.098 111.731C268.86 138.183 272.398 169.579 272.524 195.611C272.536 198.067 273.08 200.922 273.932 204.386C274.742 207.68 275.898 211.76 276.826 215.886C278.738 224.388 280.045 234.479 277.293 246.02C273.649 261.298 260.517 272.917 244.531 281.426C228.428 289.996 208.709 295.806 190.553 299.13C179.515 301.151 164.272 301.805 150.101 301.642C135.938 301.48 122.492 300.497 115.024 299.13C96.8686 295.806 77.1493 289.996 61.0465 281.426C45.0609 272.917 31.9286 261.298 28.2848 246.02C25.5322 234.479 26.8399 224.388 28.7516 215.886C29.6794 211.76 30.835 207.68 31.6452 204.386C32.4976 200.922 33.0415 198.067 33.0534 195.611C33.1791 169.579 36.7175 138.183 50.4791 111.731C51.3714 110.017 53.4851 109.35 55.1998 110.242C56.9145 111.134 57.5812 113.248 56.6891 114.963C43.682 139.965 40.1769 170.051 40.0534 195.645C40.0372 198.983 39.3136 202.52 38.443 206.058C37.5302 209.769 36.5065 213.304 35.5807 217.422C33.7853 225.406 32.6893 234.312 35.0944 244.396C38.0344 256.723 48.951 267.059 64.3346 275.247C79.6012 283.373 98.573 289.001 116.285 292.244C123.171 293.505 136.153 294.482 150.181 294.642C164.203 294.803 178.917 294.144 189.293 292.244C207.005 289.001 225.976 283.373 241.243 275.247C256.626 267.059 267.543 256.723 270.483 244.396C272.888 234.312 271.792 225.406 269.997 217.422C269.071 213.304 268.047 209.769 267.134 206.058C266.264 202.52 265.54 198.983 265.524 195.645C265.401 170.051 261.895 139.965 248.888 114.963C247.996 113.248 248.663 111.134 250.378 110.242ZM153.092 56.0505C186.223 56.1407 210.636 64.9062 228.431 78.9529C229.948 80.1505 230.208 82.3516 229.01 83.8689C227.813 85.386 225.612 85.6453 224.094 84.448C207.724 71.5262 184.887 63.1225 152.994 63.0496C152.974 63.0495 152.953 63.048 152.933 63.0476C152.869 63.0478 153.011 63.0483 152.792 63.0486H152.784C152.558 63.0483 152.712 63.0478 152.643 63.0476C152.623 63.048 152.604 63.0495 152.584 63.0496C120.691 63.1224 97.853 71.5262 81.4831 84.448C79.9658 85.6455 77.7646 85.3861 76.567 83.8689C75.3694 82.3516 75.6289 80.1505 77.1461 78.9529C94.941 64.9064 119.354 56.1408 152.484 56.0505C152.514 56.0498 152.545 56.0476 152.576 56.0476C152.625 56.0476 152.672 56.0483 152.706 56.0486H152.871C152.905 56.0483 152.952 56.0476 153.002 56.0476C153.032 56.0476 153.062 56.0498 153.092 56.0505Z" fill="black"/>
<path d="M119.882 214.011C119.882 220.086 115.279 225.011 109.601 225.011C103.923 225.011 99.3208 220.086 99.3208 214.011C99.3208 207.936 103.923 203.011 109.601 203.011C115.279 203.011 119.882 207.936 119.882 214.011Z" fill="black"/>
<path d="M209.321 214.011C209.321 220.086 204.718 225.011 199.041 225.011C193.363 225.011 188.76 220.086 188.76 214.011C188.76 207.936 193.363 203.011 199.041 203.011C204.718 203.011 209.321 207.936 209.321 214.011Z" fill="black"/>
<path d="M133.403 226.121C135.219 225.655 137.068 226.702 137.616 228.474C137.624 228.492 137.641 228.528 137.67 228.579C137.755 228.731 137.948 229.023 138.332 229.351C139.046 229.961 140.793 231.011 144.683 231.011C148.574 231.011 150.32 229.961 151.034 229.351C151.417 229.023 151.611 228.731 151.696 228.579C151.731 228.517 151.749 228.477 151.754 228.465C152.166 227.147 153.318 226.188 154.702 226.032C156.141 225.871 157.53 226.613 158.197 227.897C158.195 227.892 158.193 227.888 158.191 227.884C158.187 227.876 158.183 227.869 158.18 227.863C158.174 227.852 158.17 227.845 158.169 227.842C158.171 227.845 158.176 227.855 158.184 227.868C158.213 227.914 158.277 228.013 158.382 228.148C158.591 228.417 158.951 228.821 159.493 229.238C160.533 230.04 162.391 231.011 165.501 231.011C168.611 231.011 170.469 230.04 171.508 229.238C172.05 228.821 172.411 228.417 172.62 228.148C172.724 228.013 172.788 227.914 172.817 227.868C172.831 227.846 172.837 227.837 172.834 227.842C172.832 227.845 172.827 227.852 172.821 227.863C172.818 227.869 172.814 227.876 172.81 227.884C172.808 227.888 172.807 227.892 172.804 227.897C173.692 226.188 175.795 225.517 177.509 226.398C179.229 227.281 179.906 229.391 179.022 231.111L175.91 229.511C178.871 231.033 179.014 231.109 179.02 231.114C179.02 231.115 179.019 231.117 179.018 231.118C179.017 231.121 179.016 231.124 179.014 231.127C179.011 231.133 179.008 231.138 179.005 231.145C178.998 231.157 178.99 231.172 178.982 231.187C178.966 231.217 178.947 231.253 178.924 231.292C178.88 231.372 178.822 231.47 178.751 231.583C178.608 231.81 178.411 232.102 178.152 232.437C177.634 233.104 176.862 233.951 175.781 234.783C173.576 236.482 170.229 238.011 165.501 238.011C160.854 238.011 157.543 236.533 155.338 234.87C153.12 236.66 149.728 238.011 144.683 238.011C139.45 238.011 135.991 236.56 133.782 234.671C132.704 233.749 132.006 232.791 131.565 232.005C131.346 231.614 131.191 231.268 131.084 230.99C131.03 230.852 130.987 230.729 130.955 230.627C130.939 230.576 130.925 230.53 130.914 230.489C130.908 230.469 130.902 230.45 130.897 230.432C130.895 230.423 130.892 230.414 130.89 230.405C130.889 230.401 130.888 230.398 130.887 230.394C130.887 230.392 130.886 230.389 130.885 230.388C130.885 230.385 130.907 230.376 134.274 229.511L130.884 230.382C130.403 228.51 131.531 226.602 133.403 226.121ZM137.662 228.635C137.662 228.634 137.661 228.63 137.661 228.628C137.66 228.625 137.659 228.621 137.658 228.617C137.656 228.611 137.655 228.604 137.653 228.598C137.649 228.585 137.645 228.573 137.642 228.562L137.662 228.635ZM151.74 228.507C151.735 228.521 151.73 228.54 151.723 228.562C151.72 228.573 151.717 228.585 151.714 228.598C151.712 228.604 151.709 228.611 151.708 228.617C151.707 228.621 151.706 228.625 151.705 228.628C151.704 228.629 151.704 228.632 151.704 228.633C151.718 228.577 151.736 228.521 151.754 228.466C151.751 228.472 151.747 228.486 151.74 228.507Z" fill="black"/>
</svg>
