<svg width="420" height="420" viewBox="0 0 420 420" fill="none" xmlns="http://www.w3.org/2000/svg">
<path d="M77.2416 222.698C77.2416 94.1977 165.075 69.1975 212.742 74.6975C291.742 70.6976 343.742 130.697 341.242 222.698C362.242 280.698 341.241 346.198 206.241 346.198C82.0146 346.198 59.741 284.198 77.2416 222.698Z" fill="white" stroke="#A5A5A5" stroke-width="4" stroke-linecap="round" stroke-linejoin="round" stroke-dasharray="8 8"/>
<path d="M210.226 97.6995C304.412 97.9147 319.953 173.39 320.211 226.698C320.264 237.682 329.711 253.198 324.822 273.698C316.134 310.124 243.285 325.799 210.024 324.702C176.764 325.799 103.914 310.124 95.2262 273.698C90.3369 253.198 99.7835 237.682 99.8366 226.698C100.094 173.389 115.636 97.9145 209.822 97.6995V97.6975C209.889 97.6975 209.956 97.6984 210.023 97.6985C210.091 97.6984 210.159 97.6975 210.226 97.6975V97.6995Z" fill="#FDF7D6"/>
<path d="M167.822 238.698C167.822 244.773 163.345 249.698 157.822 249.698C152.299 249.698 147.822 244.773 147.822 238.698C147.822 232.622 152.299 227.698 157.822 227.698C163.345 227.698 167.822 232.622 167.822 238.698Z" fill="black"/>
<path d="M272.822 238.698C272.822 244.773 268.345 249.698 262.822 249.698C257.299 249.698 252.822 244.773 252.822 238.698C252.822 232.622 257.299 227.698 262.822 227.698C268.345 227.698 272.822 232.622 272.822 238.698Z" fill="black"/>
<path d="M210.163 97.6995C304.349 97.9147 319.891 173.39 320.148 226.698C320.201 237.682 329.648 253.198 324.758 273.698C316.071 310.124 243.221 325.799 209.961 324.702C176.7 325.799 103.851 310.124 95.1627 273.698C90.2734 253.198 99.7201 237.682 99.7731 226.698C100.03 173.389 115.572 97.9145 209.758 97.6995V97.6975C209.826 97.6975 209.893 97.6984 209.96 97.6985C210.027 97.6984 210.095 97.6975 210.163 97.6975V97.6995Z" fill="#FDF7D6"/>
<path d="M179.236 305.734C151.223 308.739 113.416 288.962 96.7412 278.698C100.741 300.477 152.223 324.135 209.25 325.637C266.277 327.139 329.744 292.222 323.241 274.198C293.08 305.734 260.274 305.734 241.765 305.734C223.256 305.734 219.255 300.102 209.25 300.477C199.245 300.853 196.244 305.734 179.236 305.734Z" fill="#F0E9C2"/>
<path d="M163.677 319.698C164.077 258.898 120.843 237.698 99.1765 234.698C94.1765 242.364 91.7846 268.198 95.6765 276.198C104.677 294.698 115.677 304.698 163.677 319.698Z" fill="#FFD5CA"/>
<path d="M255.744 319.698C255.344 258.898 298.578 237.698 320.244 234.698C325.244 242.364 327.636 268.198 323.744 276.198C314.744 294.698 303.744 304.698 255.744 319.698Z" fill="#FFD5CA"/>
<path d="M210.265 94.2004C258.427 94.3357 287.001 113.808 303.361 140.457C319.556 166.836 323.519 199.81 323.648 226.681C323.66 228.986 324.17 231.674 324.978 234.956C325.743 238.067 326.842 241.95 327.722 245.862C329.537 253.934 330.781 263.531 328.163 274.509C325.741 284.664 318.914 293.099 309.964 299.965C301.006 306.837 289.681 312.327 277.746 316.569C253.959 325.021 227.063 328.746 209.96 328.202C192.857 328.745 165.961 325.021 142.175 316.569C130.24 312.327 118.916 306.837 109.958 299.965C101.008 293.099 94.18 284.664 91.7578 274.509C89.1395 263.531 90.385 253.934 92.2002 245.862C93.0798 241.95 94.179 238.067 94.9444 234.956C95.7519 231.674 96.2623 228.986 96.2735 226.681C96.4032 199.81 100.365 166.836 116.56 140.457C132.92 113.808 161.494 94.3357 209.656 94.2004C209.69 94.1995 209.725 94.1975 209.759 94.1975C209.806 94.1975 209.851 94.1983 209.884 94.1985H210.037C210.07 94.1983 210.116 94.1975 210.163 94.1975C210.197 94.1975 210.231 94.1995 210.265 94.2004ZM209.964 101.198H209.956C209.735 101.198 209.887 101.198 209.826 101.198C209.806 101.198 209.787 101.199 209.767 101.199C163.8 101.304 137.537 119.668 122.525 144.119C107.338 168.858 103.401 200.277 103.273 226.714C103.258 229.902 102.567 233.273 101.741 236.629C100.873 240.157 99.9068 243.494 99.0293 247.397C97.3303 254.953 96.2965 263.365 98.5674 272.886C100.489 280.943 106.026 288.128 114.218 294.411C122.402 300.689 132.998 305.879 144.519 309.973C167.59 318.171 193.682 321.737 209.846 321.204H210.076C226.24 321.737 252.331 318.171 275.402 309.973C286.923 305.879 297.519 300.689 305.703 294.411C313.895 288.128 319.432 280.943 321.354 272.886C323.624 263.365 322.591 254.953 320.892 247.397C320.014 243.494 319.048 240.157 318.18 236.629C317.354 233.273 316.664 229.902 316.648 226.714C316.521 200.277 312.583 168.859 297.396 144.12C282.384 119.669 256.121 101.305 210.154 101.199C210.134 101.199 210.115 101.198 210.095 101.198C210.037 101.198 210.178 101.198 209.964 101.198Z" fill="black"/>
<path d="M174.302 245.698C174.302 251.773 169.699 256.698 164.022 256.698C158.344 256.698 153.741 251.773 153.741 245.698C153.741 239.622 158.344 234.698 164.022 234.698C169.699 234.698 174.302 239.622 174.302 245.698Z" fill="black"/>
<path d="M263.741 245.698C263.741 251.773 259.139 256.698 253.461 256.698C247.783 256.698 243.181 251.773 243.181 245.698C243.181 239.622 247.783 234.698 253.461 234.698C259.139 234.698 263.741 239.622 263.741 245.698Z" fill="black"/>
<path d="M187.824 263.808C189.64 263.341 191.488 264.388 192.037 266.16C192.045 266.178 192.062 266.215 192.09 266.266C192.176 266.418 192.369 266.71 192.753 267.037C193.467 267.648 195.214 268.697 199.104 268.697C202.994 268.697 204.741 267.648 205.455 267.037C205.838 266.709 206.032 266.418 206.117 266.266C206.152 266.204 206.169 266.164 206.174 266.152C206.587 264.834 207.739 263.874 209.123 263.719C210.562 263.558 211.951 264.299 212.618 265.583C212.616 265.579 212.614 265.574 212.612 265.57C212.608 265.563 212.604 265.556 212.601 265.55C212.595 265.539 212.591 265.532 212.59 265.529C212.592 265.532 212.597 265.541 212.605 265.555C212.634 265.601 212.698 265.7 212.802 265.834C213.012 266.104 213.372 266.508 213.914 266.925C214.954 267.726 216.812 268.697 219.922 268.697C223.031 268.697 224.89 267.726 225.929 266.925C226.471 266.508 226.832 266.104 227.041 265.834C227.145 265.7 227.209 265.601 227.238 265.555C227.252 265.533 227.257 265.523 227.255 265.529C227.253 265.532 227.248 265.539 227.242 265.55C227.239 265.556 227.235 265.563 227.231 265.57C227.229 265.574 227.228 265.579 227.225 265.583C228.113 263.875 230.216 263.203 231.93 264.084C233.649 264.968 234.327 267.078 233.443 268.797L230.331 267.197C233.292 268.72 233.435 268.796 233.441 268.801C233.441 268.802 233.44 268.804 233.439 268.805C233.438 268.808 233.437 268.811 233.435 268.814C233.432 268.819 233.429 268.825 233.425 268.831C233.419 268.844 233.411 268.858 233.403 268.873C233.387 268.903 233.368 268.939 233.345 268.979C233.3 269.058 233.243 269.156 233.172 269.27C233.029 269.497 232.832 269.789 232.573 270.123C232.055 270.791 231.283 271.637 230.202 272.47C227.997 274.169 224.65 275.697 219.922 275.697C215.275 275.697 211.964 274.22 209.758 272.557C207.541 274.346 204.149 275.697 199.104 275.697C193.871 275.697 190.412 274.247 188.203 272.358C187.125 271.435 186.427 270.477 185.986 269.692C185.767 269.301 185.612 268.954 185.505 268.677C185.451 268.538 185.408 268.416 185.376 268.314C185.36 268.263 185.346 268.217 185.335 268.176C185.329 268.156 185.323 268.136 185.318 268.118C185.316 268.109 185.313 268.1 185.311 268.092C185.31 268.088 185.309 268.084 185.308 268.08C185.308 268.078 185.307 268.075 185.306 268.074C185.306 268.072 185.328 268.063 188.695 267.197L185.305 268.069C184.824 266.196 185.952 264.289 187.824 263.808ZM192.083 266.321C192.082 266.321 192.082 266.316 192.082 266.315C192.081 266.311 192.08 266.307 192.079 266.304C192.077 266.297 192.076 266.291 192.074 266.284C192.07 266.271 192.066 266.259 192.063 266.248L192.083 266.321ZM206.161 266.194C206.156 266.208 206.151 266.226 206.144 266.248C206.141 266.259 206.138 266.271 206.134 266.284C206.133 266.291 206.13 266.297 206.129 266.304C206.128 266.307 206.127 266.311 206.126 266.315C206.125 266.316 206.125 266.318 206.125 266.32C206.139 266.263 206.157 266.208 206.174 266.153C206.172 266.159 206.167 266.172 206.161 266.194Z" fill="black"/>
</svg>
