<svg width="420" height="420" viewBox="0 0 420 420" fill="none" xmlns="http://www.w3.org/2000/svg">
<path d="M152.318 104.564C162.318 36.9644 204.818 54.3977 224.818 71.5644C235.818 64.5643 252.818 71.5644 253.818 86.0645C277.018 77.6645 281.153 99.0645 282.319 111.564C303.653 121.898 349.818 163.764 347.818 242.564C376.818 328.064 306.319 364.564 213.818 364.564C107.776 364.564 38.3192 311.064 74.818 235.064C79.318 149.564 100.818 128.064 152.318 104.564Z" fill="white" stroke="#A5A5A5" stroke-width="4" stroke-linecap="round" stroke-linejoin="round" stroke-dasharray="8 8"/>
<path d="M191.552 77.8829C170.335 82.5211 163.852 106.292 172.692 123.105L255.204 125.424C268.17 112.09 255.793 97.5952 242.827 102.233C242.827 91.7974 226.914 83.1008 217.484 93.5368C217.877 87.1593 204.518 75.0484 191.552 77.8829Z" fill="#F76363"/>
<path d="M209.879 115.221C305.83 115.435 321.662 190.403 321.925 243.353C321.979 254.264 331.603 269.675 326.622 290.037C317.772 326.219 243.557 341.789 209.673 340.7C175.789 341.789 101.574 326.219 92.7232 290.037C87.7423 269.675 97.366 254.264 97.42 243.353C97.6822 190.403 113.515 115.435 209.467 115.221V115.219C209.535 115.219 209.604 115.22 209.672 115.22C209.741 115.22 209.81 115.219 209.879 115.219V115.221Z" fill="#FDF7D6"/>
<path d="M166.812 252.989C166.812 259.188 162.243 264.214 156.607 264.214C150.97 264.214 146.401 259.188 146.401 252.989C146.401 246.789 150.97 241.763 156.607 241.763C162.243 241.763 166.812 246.789 166.812 252.989Z" fill="black"/>
<path d="M273.966 252.989C273.966 259.188 269.397 264.214 263.761 264.214C258.125 264.214 253.556 259.188 253.556 252.989C253.556 246.789 258.125 241.763 263.761 241.763C269.397 241.763 273.966 246.789 273.966 252.989Z" fill="black"/>
<path d="M190.681 76.506C198.401 74.8094 205.948 77.613 211.34 81.4435C214.065 83.3792 216.391 85.6783 218.042 88.0353C218.394 88.5381 218.729 89.0668 219.037 89.6134C224.123 86.6599 229.925 86.8467 234.715 88.8771C239.48 90.8967 243.708 94.9584 245.281 100.019C251.805 99.2295 257.891 102.161 261.194 107.216C265.321 113.531 264.639 122.273 257.263 129.899C255.919 131.288 253.703 131.325 252.314 129.982C250.924 128.638 250.888 126.422 252.232 125.032C257.753 119.324 257.363 114.15 255.334 111.044C253.156 107.711 248.566 105.789 243.62 107.568C242.548 107.953 241.355 107.793 240.423 107.138C239.491 106.482 238.936 105.414 238.936 104.275C238.936 100.836 236.202 97.1098 231.983 95.3214C227.978 93.6242 223.35 94.001 219.83 97.9171C218.835 99.0244 217.247 99.381 215.874 98.8058C214.501 98.2304 213.642 96.8493 213.734 95.3634C213.76 94.9233 213.513 93.7704 212.309 92.0509C211.175 90.4321 209.446 88.6843 207.285 87.1495C202.907 84.039 197.36 82.2041 192.183 83.3419C182.915 85.3787 176.91 91.5544 174.127 99.17C171.312 106.874 171.836 115.996 175.774 123.525C176.669 125.237 176.007 127.351 174.294 128.247C172.581 129.143 170.466 128.481 169.57 126.769C164.715 117.484 164.065 106.313 167.552 96.7687C171.071 87.1363 178.844 79.1073 190.681 76.506Z" fill="black"/>
<path d="M210.086 115.281C306.037 115.495 321.87 190.463 322.132 243.413C322.186 254.324 331.81 269.735 326.829 290.097C317.979 326.279 243.764 341.848 209.88 340.759C175.996 341.848 101.781 326.279 92.9303 290.097C87.9493 269.735 97.573 254.324 97.627 243.413C97.8892 190.463 113.722 115.494 209.674 115.281V115.279C209.742 115.279 209.81 115.28 209.879 115.28C209.948 115.28 210.017 115.279 210.086 115.279V115.281Z" fill="#FDF7D6"/>
<path d="M162.729 336.671C163.138 274.624 119.017 252.989 96.9062 249.927C91.8036 257.751 89.3626 284.114 93.3343 292.279C102.519 311.158 113.745 321.363 162.729 336.671Z" fill="#FFD5CA"/>
<path d="M256.686 336.671C256.277 274.624 300.398 252.989 322.509 249.927C327.611 257.751 330.052 284.114 326.081 292.279C316.896 311.158 305.67 321.363 256.686 336.671Z" fill="#FFD5CA"/>
<path d="M210.186 111.782C259.191 111.915 288.282 131.227 304.954 157.706C321.461 183.922 325.5 216.694 325.633 243.395C325.644 245.67 326.161 248.33 326.983 251.59C327.762 254.675 328.883 258.539 329.779 262.424C331.63 270.45 332.901 280.001 330.228 290.928C327.755 301.042 320.789 309.422 311.683 316.233C302.565 323.053 291.038 328.502 278.888 332.711C254.667 341.103 227.282 344.799 209.88 344.259C192.477 344.799 165.093 341.103 140.872 332.711C128.722 328.502 117.194 323.053 108.076 316.233C98.9702 309.422 92.0041 301.042 89.5302 290.928C86.8573 280.001 88.1294 270.45 89.9804 262.424C90.8764 258.539 91.998 254.675 92.7763 251.59C93.5988 248.33 94.1156 245.67 94.1268 243.395C94.2591 216.694 98.2977 183.922 114.805 157.706C131.477 131.227 160.567 111.915 209.572 111.782C209.606 111.781 209.64 111.779 209.674 111.779C209.721 111.779 209.767 111.78 209.8 111.78H209.959C209.992 111.78 210.038 111.779 210.086 111.779C210.119 111.779 210.153 111.781 210.186 111.782ZM209.883 118.78H209.875C209.657 118.78 209.803 118.779 209.741 118.779C209.721 118.779 209.701 118.781 209.682 118.781C162.792 118.885 136.016 137.156 120.728 161.435C105.265 185.993 101.257 217.181 101.127 243.43C101.111 246.61 100.405 249.969 99.5634 253.303C98.6777 256.813 97.6946 260.12 96.8007 263.997C95.0716 271.494 94.0221 279.83 96.33 289.265C98.2814 297.242 103.911 304.377 112.268 310.627C120.613 316.869 131.418 322.028 143.163 326.097C166.681 334.245 193.28 337.791 209.767 337.261H209.992C226.479 337.791 253.078 334.245 276.596 326.097C288.341 322.028 299.145 316.869 307.49 310.627C315.848 304.377 321.478 297.242 323.43 289.265C325.737 279.83 324.687 271.494 322.958 263.997C322.064 260.121 321.082 256.813 320.196 253.303C319.355 249.969 318.648 246.61 318.633 243.43C318.503 217.181 314.493 185.993 299.03 161.435C283.743 137.156 256.967 118.885 210.078 118.781C210.058 118.781 210.038 118.779 210.017 118.779C209.959 118.779 210.094 118.78 209.883 118.78Z" fill="black"/>
<path d="M174.527 254.009C174.527 260.209 169.83 265.235 164.036 265.235C158.242 265.235 153.545 260.209 153.545 254.009C153.545 247.809 158.242 242.784 164.036 242.784C169.83 242.784 174.527 247.809 174.527 254.009Z" fill="black"/>
<path d="M265.802 254.009C265.802 260.209 261.105 265.235 255.311 265.235C249.516 265.235 244.819 260.209 244.819 254.009C244.819 247.809 249.516 242.784 255.311 242.784C261.105 242.784 265.802 247.809 265.802 254.009Z" fill="black"/>
<path d="M182.589 272.889C181.963 273.97 182.015 274.253 182.119 275.44C182.332 276.541 182.801 276.919 183.65 277.401C193.213 282.83 202.574 284.718 210.929 284.621C222.007 284.493 231.317 280.877 236.985 277.401C237.829 276.883 238.757 276.196 238.757 275.44C238.757 274.684 238.546 273.97 238.002 272.889C234.505 265.943 225.9 256.05 210.929 256.05C195.958 256.05 186.608 265.943 182.589 272.889Z" fill="#FCB86F"/>
<path d="M210.929 259.55C197.75 259.55 189.387 268.201 185.686 274.528C194.566 279.497 203.199 281.21 210.889 281.121C221.104 281.003 229.697 277.704 234.921 274.557C234.906 274.527 234.892 274.495 234.875 274.462C231.734 268.221 224.117 259.55 210.929 259.55ZM242.258 275.44C242.258 277.253 241.183 278.475 240.638 279.009C240.011 279.624 239.295 280.09 238.815 280.384C232.678 284.147 222.757 287.984 210.969 288.12C202.038 288.224 192.06 286.2 181.922 280.445C181.457 280.181 180.661 279.717 179.986 278.927C179.242 278.058 178.871 277.078 178.683 276.106C178.66 275.986 178.643 275.866 178.632 275.745C178.597 275.347 178.491 274.475 178.618 273.614C178.769 272.596 179.18 271.793 179.56 271.136C183.931 263.582 194.245 252.55 210.929 252.55C227.682 252.55 237.277 263.665 241.128 271.315C241.786 272.622 242.258 273.905 242.258 275.44Z" fill="black"/>
</svg>
