<svg width="292" height="283" viewBox="0 0 292 283" fill="none" xmlns="http://www.w3.org/2000/svg">
<path d="M84.5241 17.4602C132.924 -10.5398 189.357 5.79358 211.524 17.4602C223.857 9.62698 266.524 8.33114 277.024 20.4604C300.224 47.2604 285.358 83.6271 274.024 99.4604C277.191 98.2938 281.224 113.36 282.024 164.96C316.524 260.46 208.024 280.46 144.524 280.96C81.0242 281.46 17.5239 254.46 6.02386 215.96C-3.17614 185.16 5.35772 164.294 12.0245 156.46C11.0245 153.96 7.72415 137.46 14.5242 101.46C-7.87585 61.0604 7.02415 28.627 14.5242 17.4602C21.6908 12.1269 45.7241 4.66025 84.5241 17.4602Z" fill="white" stroke="#A5A5A5" stroke-width="4" stroke-linecap="round" stroke-linejoin="round" stroke-dasharray="8 8"/>
<path d="M44.4861 92.0446C25.6551 79.4885 22.6818 45.7588 32.5557 34.6797C35.8141 31.0237 40.3686 34.0225 46.7477 34.4265C51.0436 34.6985 56.7339 31.5546 61.2715 32.8676C70.7622 35.6137 79.7483 39.9319 83.908 42.8747C95.8382 61.8256 56.9352 100.345 44.4861 92.0446Z" fill="#FDF7D6"/>
<path d="M263.208 34.6798C253.166 23.4118 220.957 36.4358 211.856 42.8748C199.925 61.8257 238.829 100.345 251.278 92.0447C270.109 79.4886 273.082 45.7589 263.208 34.6798Z" fill="#FDF7D6"/>
<path d="M148.315 25.4624C246.025 25.683 262.148 102.997 262.415 157.604C262.47 168.857 272.271 184.75 267.199 205.75C258.186 243.064 182.611 259.121 148.106 257.998C113.601 259.121 38.0251 243.064 29.0122 205.75C23.9399 184.75 33.74 168.857 33.795 157.604C34.062 102.997 50.1854 25.6828 147.896 25.4624V25.4604C147.965 25.4604 148.035 25.4614 148.104 25.4614C148.175 25.4614 148.245 25.4604 148.315 25.4604V25.4624Z" fill="#FDF7D6"/>
<path d="M59.4467 28.7452C54.0401 27.3722 48.4025 26.5154 43.3354 26.8067C38.3103 27.0956 33.3285 28.5527 29.9428 32.3516C27.231 35.3946 25.4858 39.5663 24.5132 44.0899C23.5321 48.6526 23.2847 53.8098 23.7573 59.0664C24.2793 64.8729 25.6879 70.9017 28.0483 76.502C31.1167 83.7818 35.8683 90.5049 42.5454 94.9571C45.018 96.6056 47.9202 96.9314 50.7036 96.5625C53.4759 96.195 56.3745 95.115 59.2046 93.627C64.8711 90.6477 70.8476 85.7228 75.9497 80.0108C81.0506 74.3 85.4752 67.5803 87.8335 60.8819C90.1774 54.2243 90.6538 47.0193 86.8706 41.0098L86.7749 40.8662C86.5444 40.5373 86.2587 40.2501 85.9301 40.0176C80.9567 36.4991 70.2128 31.4791 59.4467 28.7452ZM43.7378 33.795C47.8184 33.5604 52.685 34.25 57.7231 35.5293C67.3856 37.983 76.8544 42.3869 81.2866 45.3223C83.1311 48.7267 83.106 53.2319 81.2309 58.5577C79.2613 64.1521 75.4186 70.0973 70.729 75.3477C66.0405 80.5966 60.7029 84.93 55.9468 87.4307C53.5656 88.6826 51.475 89.3989 49.7837 89.6231C48.1039 89.8457 47.0675 89.5591 46.4282 89.1328C41.1815 85.6345 37.188 80.1618 34.4995 73.7832C32.4412 68.8999 31.1914 63.583 30.729 58.4395C30.3096 53.7744 30.5446 49.3339 31.3559 45.5606C32.1757 41.7484 33.5332 38.8448 35.1694 37.0088C36.8048 35.1738 39.6151 34.032 43.7378 33.795Z" fill="black"/>
<path d="M236.318 28.7452C241.725 27.3722 247.362 26.5154 252.429 26.8067C257.454 27.0956 262.436 28.5527 265.822 32.3516C268.892 35.797 270.735 40.7002 271.611 45.9785C272.496 51.3147 272.447 57.3488 271.461 63.3731C269.508 75.3118 263.731 87.9481 253.219 94.9571C250.747 96.6056 247.844 96.9314 245.061 96.5625C242.289 96.195 239.39 95.115 236.56 93.627C230.894 90.6477 224.917 85.7228 219.815 80.0108C214.714 74.3 210.289 67.5803 207.931 60.8819C205.587 54.2243 205.111 47.0193 208.894 41.0098L208.99 40.8662C209.22 40.5373 209.506 40.2501 209.835 40.0176C214.808 36.4991 225.552 31.4791 236.318 28.7452ZM252.027 33.795C247.946 33.5604 243.08 34.25 238.042 35.5293C228.379 37.983 218.91 42.3869 214.478 45.3223C212.634 48.7267 212.659 53.2319 214.534 58.5577C216.503 64.1521 220.346 70.0973 225.036 75.3477C229.724 80.5966 235.062 84.93 239.818 87.4307C242.199 88.6826 244.29 89.3989 245.981 89.6231C247.661 89.8457 248.697 89.5591 249.336 89.1328C257.656 83.5858 262.781 73.0781 264.553 62.2432C265.431 56.8808 265.451 51.6204 264.706 47.1241C263.95 42.57 262.462 39.1029 260.595 37.0088C258.96 35.1738 256.15 34.032 252.027 33.795Z" fill="black"/>
<path d="M104.325 169.897C104.325 176.12 99.6799 181.165 93.9504 181.165C88.2208 181.165 83.5762 176.12 83.5762 169.897C83.5762 163.674 88.2208 158.629 93.9504 158.629C99.6799 158.629 104.325 163.674 104.325 169.897Z" fill="black"/>
<path d="M213.253 169.897C213.253 176.12 208.609 181.165 202.879 181.165C197.15 181.165 192.505 176.12 192.505 169.897C192.505 163.674 197.15 158.629 202.879 158.629C208.609 158.629 213.253 163.674 213.253 169.897Z" fill="black"/>
<path d="M148.316 25.4624C246.026 25.6829 262.149 102.997 262.416 157.604C262.471 168.856 272.272 184.75 267.199 205.75C258.187 243.063 182.611 259.121 148.106 257.998C113.6 259.12 38.0247 243.063 29.0119 205.75C23.9399 184.75 33.7411 168.856 33.7961 157.604C34.0631 102.997 50.1863 25.6826 147.897 25.4624V25.4604C147.966 25.4604 148.036 25.4613 148.106 25.4614C148.176 25.4613 148.246 25.4604 148.316 25.4604V25.4624Z" fill="#FDF7D6"/>
<path d="M100.175 252.871C100.59 190.589 55.7391 168.872 33.2617 165.799C28.0746 173.653 25.5932 200.116 29.6307 208.311C38.9675 227.262 50.3791 237.505 100.175 252.871Z" fill="#FFD5CA"/>
<path d="M195.687 252.871C195.272 190.589 240.123 168.872 262.601 165.799C267.788 173.653 270.269 200.116 266.232 208.311C256.895 227.262 245.483 237.505 195.687 252.871Z" fill="#FFD5CA"/>
<path d="M244.036 74.6069C245.746 73.7059 247.863 74.3616 248.764 76.0718C262.312 101.785 265.793 132.298 265.917 157.587C265.928 159.954 266.459 162.711 267.297 166.075C268.091 169.264 269.231 173.238 270.143 177.245C272.026 185.511 273.315 195.335 270.601 206.572C267.005 221.46 254.057 232.758 238.341 241.018C222.522 249.332 203.158 254.968 185.323 258.198C167.25 262.373 138.252 263.146 110.964 258.212C93.1082 254.984 73.7124 249.343 57.8718 241.018C42.1556 232.758 29.2074 221.46 25.611 206.572C22.8968 195.335 24.1866 185.511 26.069 177.245C26.9815 173.238 28.121 169.264 28.9157 166.075C29.7537 162.711 30.284 159.954 30.2956 157.587C30.4192 132.298 33.9004 101.785 47.4479 76.0718C48.349 74.3616 50.4663 73.7059 52.1765 74.6069C53.8863 75.508 54.542 77.6245 53.6413 79.3345C40.8633 103.587 37.417 132.778 37.2956 157.622C37.2796 160.881 36.5642 164.33 35.7077 167.767C34.808 171.378 33.8046 174.801 32.8942 178.799C31.1309 186.543 30.0568 195.166 32.4147 204.928C35.2932 216.845 45.995 226.868 61.1286 234.822C76.1378 242.71 94.7919 248.175 112.21 251.324C138.77 256.125 166.845 255.303 183.834 251.359L184.003 251.324C201.42 248.175 220.074 242.71 235.084 234.822C250.217 226.868 260.919 216.845 263.798 204.928C266.156 195.166 265.081 186.543 263.318 178.799C262.408 174.801 261.404 171.378 260.505 167.767C259.648 164.33 258.933 160.881 258.917 157.622C258.795 132.778 255.349 103.587 242.571 79.3345C241.67 77.6244 242.326 75.508 244.036 74.6069ZM148.407 21.9634C180.988 22.0513 205.004 30.5625 222.515 44.2114C224.04 45.3997 224.312 47.599 223.124 49.1235C221.935 50.6481 219.736 50.9212 218.212 49.7329C202.124 37.1939 179.672 29.0332 148.308 28.9624C148.288 28.9624 148.268 28.9608 148.248 28.9604C148.186 28.9606 148.325 28.9612 148.109 28.9614H148.101C147.879 28.9612 148.03 28.9606 147.964 28.9604C147.944 28.9608 147.924 28.9624 147.904 28.9624C116.54 29.0332 94.088 37.1939 78.0007 49.7329C76.4761 50.9212 74.2769 50.6481 73.0886 49.1235C71.9003 47.5989 72.1724 45.3997 73.697 44.2114C91.2082 30.5626 115.223 22.0514 147.804 21.9634C147.835 21.9626 147.865 21.9605 147.896 21.9604C147.945 21.9604 147.991 21.9612 148.025 21.9614H148.186C148.22 21.9612 148.267 21.9604 148.316 21.9604C148.346 21.9605 148.377 21.9626 148.407 21.9634Z" fill="black"/>
<path d="M113.206 178.092C113.206 184.315 108.431 189.36 102.541 189.36C96.6509 189.36 91.876 184.315 91.876 178.092C91.876 171.869 96.6509 166.824 102.541 166.824C108.431 166.824 113.206 171.869 113.206 178.092Z" fill="black"/>
<path d="M205.536 178.092C205.536 184.315 200.761 189.36 194.871 189.36C188.981 189.36 184.206 184.315 184.206 178.092C184.206 171.869 188.981 166.824 194.871 166.824C200.761 166.824 205.536 171.869 205.536 178.092Z" fill="black"/>
<path d="M118.864 192.945C118.449 184.75 126.299 180.994 130.276 180.141C147.29 176.453 162.609 178.604 168.142 180.141C172.983 181.336 177.997 185.57 177.997 192.945C177.997 202.165 169.179 209.847 149.468 209.847C129.757 209.847 119.383 203.189 118.864 192.945Z" fill="#FBE7B6"/>
<path d="M174.497 192.945C174.497 187.484 170.897 184.426 167.303 183.539C167.27 183.531 167.237 183.522 167.205 183.513C162.164 182.113 147.422 180.006 131.018 183.561L131.011 183.562C129.471 183.893 127.083 184.83 125.205 186.444C123.418 187.981 122.22 189.99 122.36 192.768C122.552 196.545 124.479 199.768 128.714 202.203C133.099 204.724 139.933 206.348 149.468 206.348C158.934 206.348 165.308 204.493 169.2 201.931C172.967 199.451 174.497 196.283 174.497 192.945ZM181.497 192.945C181.497 198.827 178.619 204.111 173.049 207.777C167.605 211.361 159.713 213.348 149.468 213.348C139.292 213.348 131.084 211.641 125.225 208.272C119.215 204.817 115.697 199.589 115.369 193.122C115.095 187.705 117.614 183.739 120.642 181.136C123.576 178.613 127.097 177.245 129.534 176.721C147.156 172.901 163.054 175.095 169.078 176.768L169.077 176.769C175.136 178.306 181.497 183.705 181.497 192.945Z" fill="black"/>
<path d="M140.635 194.994C140.635 197.54 139.241 199.604 137.522 199.604C135.804 199.604 134.41 197.54 134.41 194.994C134.41 192.448 135.804 190.384 137.522 190.384C139.241 190.384 140.635 192.448 140.635 194.994Z" fill="black"/>
<path d="M163.458 194.994C163.458 197.54 162.065 199.604 160.346 199.604C158.627 199.604 157.233 197.54 157.233 194.994C157.233 192.448 158.627 190.384 160.346 190.384C162.065 190.384 163.458 192.448 163.458 194.994Z" fill="black"/>
</svg>
