<svg width="420" height="420" viewBox="0 0 420 420" fill="none" xmlns="http://www.w3.org/2000/svg">
<path d="M148.528 85.4602C196.928 57.4602 253.361 73.7936 275.528 85.4602C287.861 77.627 330.528 76.3311 341.028 88.4604C364.228 115.26 349.362 151.627 338.028 167.46C341.195 166.294 345.228 181.36 346.028 232.96C380.528 328.46 272.028 348.46 208.528 348.96C145.028 349.46 81.5278 322.46 70.0278 283.96C60.8278 253.16 69.3616 232.294 76.0284 224.46C75.0284 221.96 71.7281 205.46 78.5281 169.46C56.1281 129.06 71.0281 96.627 78.5281 85.4602C85.6947 80.1269 109.728 72.6602 148.528 85.4602Z" fill="white" stroke="#A5A5A5" stroke-width="4" stroke-linecap="round" stroke-linejoin="round" stroke-dasharray="8 8"/>
<path d="M108.49 160.045C89.659 147.489 86.6857 113.759 96.5596 102.68C99.818 99.0237 104.372 102.022 110.752 102.426C115.048 102.699 120.738 99.5546 125.275 100.868C134.766 103.614 143.752 107.932 147.912 110.875C159.842 129.826 120.939 168.345 108.49 160.045Z" fill="#FDF7D6"/>
<path d="M327.212 102.68C317.17 91.4118 284.961 104.436 275.86 110.875C263.929 129.826 302.832 168.345 315.281 160.045C334.112 147.489 337.086 113.759 327.212 102.68Z" fill="#FDF7D6"/>
<path d="M212.319 93.4624C310.029 93.683 326.152 170.997 326.419 225.604C326.474 236.857 336.275 252.75 331.203 273.75C322.19 311.064 246.615 327.121 212.109 325.998C177.604 327.121 102.029 311.064 93.0161 273.75C87.9438 252.75 97.7439 236.857 97.7989 225.604C98.0659 170.997 114.189 93.6828 211.9 93.4624V93.4604C211.969 93.4604 212.039 93.4614 212.108 93.4614C212.178 93.4614 212.249 93.4604 212.319 93.4604V93.4624Z" fill="#FDF7D6"/>
<path d="M123.451 96.7452C118.044 95.3722 112.406 94.5154 107.339 94.8067C102.314 95.0956 97.3324 96.5527 93.9468 100.352C91.2349 103.395 89.4897 107.566 88.5171 112.09C87.536 116.653 87.2886 121.81 87.7612 127.066C88.2832 132.873 89.6918 138.902 92.0522 144.502C95.1206 151.782 99.8722 158.505 106.549 162.957C109.022 164.606 111.924 164.931 114.707 164.563C117.48 164.195 120.378 163.115 123.208 161.627C128.875 158.648 134.852 153.723 139.954 148.011C145.055 142.3 149.479 135.58 151.837 128.882C154.181 122.224 154.658 115.019 150.874 109.01L150.779 108.866C150.548 108.537 150.263 108.25 149.934 108.018C144.961 104.499 134.217 99.4791 123.451 96.7452ZM107.742 101.795C111.822 101.56 116.689 102.25 121.727 103.529C131.389 105.983 140.858 110.387 145.29 113.322C147.135 116.727 147.11 121.232 145.235 126.558C143.265 132.152 139.423 138.097 134.733 143.348C130.044 148.597 124.707 152.93 119.951 155.431C117.57 156.683 115.479 157.399 113.788 157.623C112.108 157.846 111.071 157.559 110.432 157.133C105.185 153.634 101.192 148.162 98.5034 141.783C96.4451 136.9 95.1953 131.583 94.7329 126.439C94.3135 121.774 94.5485 117.334 95.3598 113.561C96.1796 109.748 97.5371 106.845 99.1733 105.009C100.809 103.174 103.619 102.032 107.742 101.795Z" fill="black"/>
<path d="M300.322 96.7452C305.728 95.3722 311.366 94.5154 316.433 94.8067C321.458 95.0956 326.44 96.5527 329.826 100.352C332.896 103.797 334.739 108.7 335.615 113.979C336.5 119.315 336.451 125.349 335.465 131.373C333.512 143.312 327.735 155.948 317.223 162.957C314.751 164.606 311.848 164.931 309.065 164.563C306.293 164.195 303.394 163.115 300.564 161.627C294.897 158.648 288.921 153.723 283.819 148.011C278.718 142.3 274.293 135.58 271.935 128.882C269.591 122.224 269.115 115.019 272.898 109.01L272.994 108.866C273.224 108.537 273.51 108.25 273.838 108.018C278.812 104.499 289.556 99.4791 300.322 96.7452ZM316.031 101.795C311.95 101.56 307.084 102.25 302.045 103.529C292.383 105.983 282.914 110.387 278.482 113.322C276.637 116.727 276.663 121.232 278.538 126.558C280.507 132.152 284.35 138.097 289.04 143.348C293.728 148.597 299.066 152.93 303.822 155.431C306.203 156.683 308.294 157.399 309.985 157.623C311.665 157.846 312.701 157.559 313.34 157.133C321.66 151.586 326.784 141.078 328.557 130.243C329.434 124.881 329.455 119.62 328.709 115.124C327.954 110.57 326.465 107.103 324.599 105.009C322.964 103.174 320.153 102.032 316.031 101.795Z" fill="black"/>
<path d="M168.328 237.897C168.328 244.12 163.684 249.165 157.954 249.165C152.225 249.165 147.58 244.12 147.58 237.897C147.58 231.674 152.225 226.629 157.954 226.629C163.684 226.629 168.328 231.674 168.328 237.897Z" fill="black"/>
<path d="M277.257 237.897C277.257 244.12 272.612 249.165 266.883 249.165C261.153 249.165 256.509 244.12 256.509 237.897C256.509 231.674 261.153 226.629 266.883 226.629C272.612 226.629 277.257 231.674 277.257 237.897Z" fill="black"/>
<path d="M212.32 93.4624C310.029 93.6829 326.153 170.997 326.42 225.604C326.475 236.856 336.275 252.75 331.203 273.75C322.191 311.063 246.615 327.121 212.11 325.998C177.604 327.12 102.029 311.063 93.0158 273.75C87.9438 252.75 97.745 236.856 97.8 225.604C98.067 170.997 114.19 93.6826 211.901 93.4624V93.4604C211.97 93.4604 212.04 93.4613 212.11 93.4614C212.179 93.4613 212.25 93.4604 212.32 93.4604V93.4624Z" fill="#FDF7D6"/>
<path d="M164.179 320.871C164.594 258.589 119.743 236.872 97.2656 233.799C92.0785 241.653 89.5971 268.116 93.6346 276.311C102.971 295.262 114.383 305.505 164.179 320.871Z" fill="#FFD5CA"/>
<path d="M259.691 320.871C259.276 258.589 304.127 236.872 326.604 233.799C331.792 241.653 334.273 268.116 330.235 276.311C320.899 295.262 309.487 305.505 259.691 320.871Z" fill="#FFD5CA"/>
<path d="M308.04 142.607C309.75 141.706 311.867 142.362 312.768 144.072C326.316 169.785 329.797 200.298 329.921 225.587C329.932 227.954 330.463 230.711 331.3 234.075C332.095 237.264 333.235 241.238 334.147 245.245C336.03 253.511 337.319 263.335 334.605 274.572C331.009 289.46 318.061 300.758 302.344 309.018C286.526 317.332 267.162 322.968 249.327 326.198C231.254 330.373 202.256 331.146 174.967 326.212C157.112 322.984 137.716 317.343 121.876 309.018C106.16 300.758 93.2113 289.46 89.6149 274.572C86.9007 263.335 88.1905 253.511 90.0729 245.245C90.9854 241.238 92.1249 237.264 92.9196 234.075C93.7576 230.711 94.2879 227.954 94.2995 225.587C94.4231 200.298 97.9043 169.785 111.452 144.072C112.353 142.362 114.47 141.706 116.18 142.607C117.89 143.508 118.546 145.624 117.645 147.334C104.867 171.587 101.421 200.778 101.3 225.622C101.284 228.881 100.568 232.33 99.7116 235.767C98.8119 239.378 97.8086 242.801 96.8981 246.799C95.1348 254.543 94.0607 263.166 96.4186 272.928C99.2971 284.845 109.999 294.868 125.133 302.822C140.142 310.71 158.796 316.175 176.214 319.324C202.774 324.125 230.849 323.303 247.838 319.359L248.007 319.324C265.424 316.175 284.078 310.71 299.088 302.822C314.221 294.868 324.923 284.845 327.801 272.928C330.159 263.166 329.085 254.543 327.322 246.799C326.412 242.801 325.408 239.378 324.508 235.767C323.652 232.33 322.937 228.881 322.921 225.622C322.799 200.778 319.353 171.587 306.575 147.334C305.674 145.624 306.33 143.508 308.04 142.607ZM212.411 89.9634C244.992 90.0513 269.008 98.5625 286.519 112.211C288.044 113.4 288.316 115.599 287.128 117.124C285.939 118.648 283.74 118.921 282.216 117.733C266.128 105.194 243.676 97.0332 212.312 96.9624C212.292 96.9624 212.272 96.9608 212.252 96.9604C212.19 96.9606 212.329 96.9612 212.113 96.9614H212.105C211.882 96.9612 212.034 96.9606 211.967 96.9604C211.948 96.9608 211.928 96.9624 211.908 96.9624C180.544 97.0332 158.092 105.194 142.005 117.733C140.48 118.921 138.281 118.648 137.092 117.124C135.904 115.599 136.176 113.4 137.701 112.211C155.212 98.5626 179.227 90.0514 211.808 89.9634C211.839 89.9626 211.869 89.9605 211.9 89.9604C211.949 89.9604 211.995 89.9612 212.029 89.9614H212.19C212.224 89.9612 212.271 89.9604 212.32 89.9604C212.35 89.9605 212.381 89.9626 212.411 89.9634Z" fill="black"/>
<path d="M177.21 246.092C177.21 252.315 172.435 257.36 166.545 257.36C160.655 257.36 155.88 252.315 155.88 246.092C155.88 239.869 160.655 234.824 166.545 234.824C172.435 234.824 177.21 239.869 177.21 246.092Z" fill="black"/>
<path d="M269.54 246.092C269.54 252.315 264.765 257.36 258.875 257.36C252.985 257.36 248.21 252.315 248.21 246.092C248.21 239.869 252.985 234.824 258.875 234.824C264.765 234.824 269.54 239.869 269.54 246.092Z" fill="black"/>
<path d="M182.868 260.945C182.453 252.75 190.303 248.994 194.28 248.141C211.294 244.453 226.613 246.604 232.146 248.141C236.987 249.336 242.001 253.57 242.001 260.945C242.001 270.165 233.183 277.847 213.472 277.847C193.761 277.847 183.387 271.189 182.868 260.945Z" fill="#FBE7B6"/>
<path d="M238.501 260.945C238.501 255.484 234.901 252.426 231.307 251.539C231.274 251.531 231.241 251.522 231.209 251.513C226.168 250.113 211.426 248.006 195.021 251.561L195.015 251.562C193.475 251.893 191.087 252.83 189.209 254.444C187.422 255.981 186.224 257.99 186.364 260.768C186.556 264.545 188.483 267.768 192.718 270.203C197.103 272.724 203.937 274.348 213.472 274.348C222.938 274.348 229.311 272.493 233.204 269.931C236.971 267.451 238.501 264.283 238.501 260.945ZM245.501 260.945C245.501 266.827 242.623 272.111 237.053 275.777C231.609 279.361 223.717 281.348 213.472 281.348C203.296 281.348 195.087 279.641 189.228 276.272C183.219 272.817 179.7 267.589 179.373 261.122C179.099 255.705 181.618 251.739 184.645 249.136C187.58 246.613 191.101 245.245 193.538 244.721C211.16 240.901 227.057 243.095 233.082 244.768L233.081 244.769C239.14 246.306 245.501 251.705 245.501 260.945Z" fill="black"/>
<path d="M204.639 262.994C204.639 265.54 203.245 267.604 201.526 267.604C199.807 267.604 198.414 265.54 198.414 262.994C198.414 260.448 199.807 258.384 201.526 258.384C203.245 258.384 204.639 260.448 204.639 262.994Z" fill="black"/>
<path d="M227.462 262.994C227.462 265.54 226.068 267.604 224.35 267.604C222.631 267.604 221.237 265.54 221.237 262.994C221.237 260.448 222.631 258.384 224.35 258.384C226.068 258.384 227.462 260.448 227.462 262.994Z" fill="black"/>
</svg>
