<svg width="420" height="420" viewBox="0 0 420 420" fill="none" xmlns="http://www.w3.org/2000/svg">
<path d="M67.6613 79.3985C96.0613 40.9985 136.495 63.3985 153.161 79.3985C189.162 59.3986 238.161 54.8984 276.161 79.3985C303.161 32.3985 350.661 62.3985 365.161 93.3985C379.661 124.398 369.161 160.399 350.661 169.399C360.261 184.599 351.994 216.732 350.661 230.898C354.161 234.065 358.761 238.498 365.161 248.898C373.161 261.898 361.161 275.898 361.161 285.898C361.161 295.898 365.161 325.898 330.661 331.398C233.661 395.398 131.661 349.898 94.1611 331.398C58.1611 319.898 63.1611 305.898 63.1611 296.398C63.1611 286.898 55.6611 275.898 51.6611 265.898C47.6611 255.898 54.6611 248.898 67.6613 230.898C67.6613 208.398 71.6611 188.898 77.1611 169.399C54.1611 166.899 32.1613 127.398 67.6613 79.3985Z" fill="white" stroke="#A5A5A5" stroke-width="4" stroke-linecap="round" stroke-linejoin="round" stroke-dasharray="8 8"/>
<path d="M338.177 95.5561C345.463 102.08 356.404 122.941 342.424 144.45C322.528 162.195 295.838 152.878 290.057 147.037L290.053 147.041C290.022 147.007 289.991 146.972 289.959 146.936C289.926 146.902 289.892 146.869 289.86 146.835L289.864 146.831C284.383 140.672 273.746 115.346 294.371 93.3682C307.493 79.3864 332.055 87.7924 338.177 95.5561Z" fill="#FDF7D6"/>
<path d="M86.8876 96.0293C74.6397 106.272 68.7544 130.098 83.7809 146.063C102.063 162.195 131.309 155.997 137.374 149.887L137.378 149.891C137.411 149.855 137.444 149.818 137.477 149.781C137.512 149.745 137.548 149.711 137.581 149.675L137.577 149.671C143.328 143.227 155.966 119.022 134.326 96.0293C119.3 80.0637 96.1484 85.8389 86.8876 96.0293Z" fill="#FDF7D6"/>
<path d="M92.0135 147.341C83.8402 142.622 80.2323 134.405 79.4111 126.001C78.5739 117.434 80.7233 109.525 83.0494 106.198C83.1651 106.032 83.2662 105.857 83.3517 105.674C85.0701 101.996 90.8446 96.1803 98.6831 92.6214C106.372 89.1305 115.292 88.1465 123.465 92.8654L124.518 93.4899C135.21 100.003 140.223 108.433 142.27 116.32C142.755 118.191 144.666 119.315 146.537 118.829C148.408 118.343 149.531 116.433 149.046 114.563C146.523 104.84 140.278 94.6962 127.575 87.1597L126.965 86.8033C116.232 80.6066 104.806 82.1549 95.7895 86.2485C87.0666 90.2089 79.8726 96.8765 77.1437 102.438C73.6911 107.582 71.5135 117.147 72.4452 126.682C73.4081 136.537 77.7805 147.207 88.5135 153.403C101.627 160.975 113.759 161.365 123.594 158.646C125.457 158.131 126.55 156.203 126.035 154.34C125.52 152.477 123.591 151.384 121.728 151.899C113.621 154.14 103.432 153.934 92.0135 147.341Z" fill="black"/>
<path d="M334.801 146.115C342.135 141.881 345.268 134.105 345.765 125.846C346.268 117.476 343.985 109.591 341.632 106.177C341.526 106.024 341.432 105.861 341.352 105.693C339.573 101.949 333.886 96.0287 326.386 92.2795C318.985 88.5799 310.684 87.4054 303.349 91.6396L302.391 92.2085C292.671 98.1544 288.269 106.146 286.609 113.785C286.199 115.674 284.335 116.873 282.446 116.463C280.557 116.052 279.359 114.188 279.769 112.299C281.829 102.819 287.416 92.9656 299.279 85.9113L299.849 85.5774C309.967 79.7361 320.922 81.7231 329.515 86.0185C337.88 90.1999 344.837 96.9647 347.55 102.437C350.933 107.523 353.313 116.931 352.752 126.266C352.175 135.855 348.419 146.336 338.301 152.178C326.047 159.253 314.506 159.21 305.119 156.207C303.278 155.618 302.263 153.648 302.852 151.807C303.441 149.966 305.411 148.951 307.252 149.54C314.938 151.999 324.411 152.114 334.801 146.115Z" fill="black"/>
<path d="M167.127 243.39C167.127 249.923 162.312 255.22 156.373 255.22C150.433 255.22 145.618 249.923 145.618 243.39C145.618 236.857 150.433 231.56 156.373 231.56C162.312 231.56 167.127 236.857 167.127 243.39Z" fill="black"/>
<path d="M280.048 243.39C280.048 249.923 275.233 255.22 269.293 255.22C263.354 255.22 258.539 249.923 258.539 243.39C258.539 236.857 263.354 231.56 269.293 231.56C275.233 231.56 280.048 236.857 280.048 243.39Z" fill="black"/>
<path d="M211.797 91.7539V91.756C178.63 91.8317 154.532 100.585 137.109 114.338C126.829 121.145 115.338 138.683 110.877 146.601C97.2322 172.829 93.6415 204.169 93.5144 230.485C93.4883 235.899 91.3406 242.335 89.5274 249.843C88.6756 253.369 79.4296 257.131 78.9801 261.135C78.2982 267.206 86.8397 273.833 88.5563 281.03C89.7286 285.945 85.4318 294.016 88.5563 298.237C91.3306 301.985 101.343 301.956 105.328 305.169C122.553 319.056 149.648 328.005 174.156 332.492C186.276 334.948 218.387 338.387 249.872 332.492C274.381 328.005 301.475 319.056 318.7 305.169C321.413 302.981 332.485 300.672 334.659 298.237C339.277 293.068 333.967 287.339 335.472 281.03C337.189 273.833 344.79 267.206 344.108 261.135C343.659 257.131 335.353 253.369 334.501 249.843C332.688 242.335 330.54 235.899 330.514 230.485C330.387 204.169 326.796 172.829 313.151 146.601C308.712 136.777 293.813 120.999 286.919 114.338C269.497 100.585 245.398 91.8318 212.232 91.756V91.7539C212.159 91.7539 212.086 91.7549 212.013 91.755C211.941 91.7549 211.869 91.7539 211.797 91.7539Z" fill="#FDF7D6"/>
<path d="M164.976 330.5C165.406 265.114 118.912 242.315 95.6106 239.088C92.6989 243.553 89.158 252.531 78.9415 260.597C77.7881 268.996 87.239 275.472 89.158 279.417C91.555 284.344 85.6775 292.738 89.158 297.162C92.2843 301.135 97.3323 301.987 103.139 305.228C116.971 312.948 137.015 323.51 164.976 330.5Z" fill="#FFD5CA"/>
<path d="M259.52 330.5C259.09 265.114 305.585 242.315 328.886 239.088C331.798 243.553 335.339 252.531 345.555 260.597C346.708 268.996 337.258 275.472 335.339 279.417C332.942 284.344 338.819 292.738 335.339 297.162C332.212 301.135 327.164 301.987 321.358 305.228C307.525 312.948 287.482 323.51 259.52 330.5Z" fill="#FFD5CA"/>
<path d="M194.551 93.9042C207.886 90.0328 218.031 92.2911 221.437 93.9042C221.8 97.8816 222.132 102.439 222.392 107.324C231.94 106.977 244.772 108.574 244.806 117.002C244.84 125.353 232.362 126.488 222.925 125.795C222.933 128.934 222.897 132.082 222.804 135.19C231.358 135.528 240.41 137.788 240.438 144.864C240.468 152.401 230.31 154.061 221.391 153.805C219.605 166.933 216.044 176.534 209.607 176.713C203.087 176.894 199.133 167.169 196.849 153.772C187.742 154.157 176.933 152.638 176.963 144.864C176.992 137.74 186.167 135.498 194.772 135.183C194.566 132.105 194.411 128.986 194.301 125.875C185.05 126.375 173.639 124.989 173.671 117.002C173.703 109.14 184.873 107.222 194.123 107.281C194.193 102.419 194.346 97.8783 194.551 93.9042Z" fill="#978752"/>
<path d="M131.638 248.767C134.649 241.884 107.082 238.013 92.9221 236.938L89.6958 246.616C102.422 250.201 128.627 255.65 131.638 248.767Z" fill="#978752"/>
<path d="M128.887 275.061C129.45 267.57 102.156 273.044 88.4384 276.718L88.5988 286.919C101.794 286.088 128.325 282.553 128.887 275.061Z" fill="#978752"/>
<path d="M292.106 248.767C289.095 241.884 316.662 238.013 330.822 236.938L334.048 246.616C321.322 250.201 295.117 255.65 292.106 248.767Z" fill="#978752"/>
<path d="M294.856 275.061C294.294 267.57 321.588 273.044 335.305 276.718L335.145 286.919C321.95 286.088 295.419 282.553 294.856 275.061Z" fill="#978752"/>
<path d="M311.535 143.496C313.25 142.604 315.364 143.271 316.256 144.985C330.278 171.939 333.886 203.933 334.014 230.468C334.025 232.762 334.491 235.408 335.242 238.569C335.615 240.136 336.044 241.774 336.503 243.525C336.959 245.264 337.441 247.106 337.903 249.021C337.877 248.911 337.95 249.228 338.781 250.064C339.546 250.834 340.516 251.629 341.707 252.63C342.811 253.558 344.111 254.669 345.163 255.863C346.173 257.01 347.353 258.666 347.586 260.744C347.845 263.054 347.296 265.22 346.531 267.107C345.771 268.984 344.697 270.819 343.675 272.488C341.482 276.07 339.572 278.929 338.877 281.842C338.353 284.04 338.999 285.978 339.668 289.388C340.281 292.516 340.725 296.702 337.27 300.569C336.146 301.827 334.352 302.682 333.007 303.258C331.484 303.91 329.692 304.534 328.014 305.107C326.28 305.7 324.665 306.24 323.295 306.77C321.81 307.344 321.096 307.733 320.897 307.894C303.012 322.313 275.266 331.393 250.566 335.922C241.862 337.91 226.531 339.004 211.605 339.077C196.792 339.15 181.666 338.223 173.373 335.905C148.696 331.371 120.995 322.296 103.132 307.894C102.635 307.493 101.746 307.051 100.322 306.582C98.9214 306.121 97.3693 305.745 95.6153 305.293C93.9511 304.864 92.0954 304.364 90.4513 303.685C88.8548 303.025 87.0027 302.021 85.7433 300.319C84.3963 298.5 83.9759 296.428 83.9054 294.594C83.8357 292.782 84.0998 290.922 84.3741 289.308C84.672 287.555 84.9617 286.182 85.1388 284.765C85.3122 283.377 85.2969 282.452 85.1515 281.842C84.4816 279.034 82.433 276.228 79.9786 272.635C78.8454 270.976 77.6357 269.139 76.7687 267.258C75.8985 265.37 75.2325 263.145 75.5021 260.744L75.5606 260.338C75.9168 258.339 77.1717 256.784 78.1876 255.738C79.3394 254.553 80.7675 253.45 81.9845 252.524C83.2956 251.527 84.375 250.725 85.2179 249.952C86.1614 249.087 86.1779 248.802 86.1251 249.021C86.5875 247.106 87.07 245.264 87.5255 243.525C87.9842 241.774 88.4137 240.136 88.7862 238.569C89.538 235.408 90.0037 232.762 90.0148 230.468C90.1429 203.933 93.7502 171.939 107.773 144.985C108.665 143.271 110.778 142.604 112.492 143.496C114.207 144.388 114.875 146.502 113.983 148.217C100.715 173.72 97.1407 204.405 97.0148 230.502C96.9997 233.622 96.3777 236.901 95.5958 240.188C95.2016 241.846 94.7526 243.563 94.298 245.299C93.84 247.047 93.3739 248.825 92.9298 250.664C92.4511 252.646 90.9925 254.155 89.9493 255.111C88.805 256.161 87.3849 257.211 86.2218 258.096C84.9647 259.052 83.9429 259.86 83.2081 260.616C82.6193 261.222 82.4785 261.532 82.4542 261.578C82.3965 262.209 82.549 263.076 83.1261 264.328C83.7224 265.622 84.6276 267.029 85.7589 268.686C87.8337 271.723 90.9141 275.829 91.961 280.218C92.4017 282.066 92.2899 283.993 92.0851 285.633C91.8838 287.243 91.5137 289.073 91.2745 290.48C91.0118 292.026 90.8605 293.282 90.9005 294.324C90.9397 295.344 91.1541 295.865 91.3692 296.155C91.4971 296.328 91.9379 296.725 93.1231 297.215C94.261 297.685 95.6778 298.081 97.3614 298.515C98.9553 298.925 100.827 299.378 102.511 299.933C104.172 300.479 106.03 301.238 107.525 302.444C123.558 315.37 148.844 324.045 172.503 328.619L174.787 329.049L174.952 329.084C175.007 329.097 175.062 329.11 175.116 329.126C182.31 331.178 196.639 332.15 211.57 332.077C226.441 332.004 241.188 330.9 249.086 329.081C249.137 329.069 249.189 329.058 249.241 329.049C273.543 324.6 299.954 315.787 316.503 302.444C317.66 301.512 319.348 300.791 320.77 300.241C322.306 299.647 324.104 299.046 325.749 298.483C327.449 297.902 329.004 297.357 330.253 296.822C331.68 296.212 332.086 295.864 332.049 295.905C333.211 294.604 333.31 293.34 332.799 290.734C332.343 288.41 331.087 284.328 332.067 280.218C333.089 275.934 335.838 271.881 337.704 268.833C338.712 267.187 339.518 265.776 340.044 264.478C340.566 263.19 340.712 262.252 340.63 261.525C340.638 261.601 340.611 261.286 339.911 260.491C339.253 259.744 338.338 258.943 337.203 257.989C336.155 257.109 334.862 256.052 333.816 254.999C332.837 254.014 331.551 252.538 331.099 250.664C330.655 248.825 330.188 247.047 329.731 245.299C329.276 243.563 328.827 241.846 328.433 240.188C327.651 236.901 327.029 233.622 327.014 230.502C326.888 204.405 323.314 173.72 310.046 148.217C309.154 146.502 309.821 144.388 311.535 143.496ZM212.322 88.2568C246.087 88.3485 270.96 97.2814 289.088 111.591C290.605 112.788 290.865 114.99 289.667 116.507C288.469 118.024 286.268 118.283 284.751 117.085C268.048 103.9 244.75 95.3302 212.224 95.2559C212.204 95.2558 212.183 95.2543 212.163 95.2539C212.096 95.2541 212.239 95.2546 212.018 95.2549H212.009C211.781 95.2546 211.937 95.2541 211.864 95.2539C211.845 95.2543 211.825 95.2558 211.805 95.2559C179.278 95.3301 155.98 103.901 139.277 117.085C137.76 118.283 135.559 118.024 134.361 116.507C133.164 114.99 133.423 112.788 134.941 111.591C153.068 97.2816 177.941 88.3486 211.705 88.2568C211.736 88.2561 211.766 88.2539 211.797 88.2539C211.847 88.2539 211.895 88.2546 211.93 88.2549H212.098C212.133 88.2546 212.181 88.2539 212.232 88.2539C212.262 88.2539 212.292 88.2561 212.322 88.2568Z" fill="black"/>
<path d="M175.258 251.994C175.258 258.527 170.308 263.823 164.202 263.823C158.096 263.823 153.146 258.527 153.146 251.994C153.146 245.46 158.096 240.164 164.202 240.164C170.308 240.164 175.258 245.46 175.258 251.994Z" fill="black"/>
<path d="M271.445 251.994C271.445 258.527 266.495 263.823 260.389 263.823C254.283 263.823 249.333 258.527 249.333 251.994C249.333 245.46 254.283 240.164 260.389 240.164C266.495 240.164 271.445 245.46 271.445 251.994Z" fill="black"/>
<path d="M177.882 268.125C177.882 259.216 186.686 251.994 197.547 251.994C208.408 251.994 206.457 254.01 212.296 254.01C218.135 254.01 216.184 251.994 227.045 251.994C237.905 251.994 246.71 259.216 246.71 268.125C246.71 277.034 237.905 284.257 227.045 284.257C216.184 284.257 215.983 280.224 212.296 280.224C208.609 280.224 208.408 284.257 197.547 284.257C186.686 284.257 177.882 277.034 177.882 268.125Z" fill="white"/>
<path d="M212.74 273.232C214.929 273.313 216.633 273.988 217.93 274.681C218.516 274.995 219.076 275.346 219.396 275.543C219.775 275.777 220.033 275.934 220.304 276.08C221.021 276.467 222.617 277.256 227.045 277.256V284.256L226.058 284.245C216.168 284.008 215.868 280.224 212.296 280.224C208.609 280.224 208.408 284.256 197.547 284.256V277.256C201.974 277.256 203.571 276.467 204.288 276.08C204.558 275.934 204.817 275.777 205.195 275.543C205.516 275.346 206.075 274.995 206.662 274.681C208.046 273.941 209.891 273.224 212.296 273.224L212.74 273.232ZM239.71 268.125C239.71 264.315 235.4 258.994 227.045 258.994C222.109 258.994 220.628 259.446 219.891 259.678C218.479 260.123 216.474 261.01 212.296 261.01C208.117 261.01 206.111 260.123 204.7 259.678C203.963 259.446 202.482 258.994 197.547 258.994C189.192 258.994 184.882 264.315 184.882 268.125C184.882 271.936 189.192 277.256 197.547 277.256V284.256C186.856 284.256 178.158 277.258 177.889 268.542L177.882 268.125C177.882 259.216 186.686 251.994 197.547 251.994C208.068 251.994 206.566 253.886 211.771 254.004L212.296 254.01C218.135 254.01 216.184 251.994 227.045 251.994L227.552 251.999C238.178 252.219 246.71 259.355 246.71 268.125L246.703 268.542C246.434 277.258 237.736 284.256 227.045 284.256V277.256C235.4 277.256 239.71 271.936 239.71 268.125Z" fill="black"/>
<path d="M205.603 261.521C210.97 264.611 212.515 264.57 217.19 261.521C223.085 257.677 215.97 255.22 211.701 255.22C207.433 255.22 200.237 258.432 205.603 261.521Z" fill="black"/>
</svg>
