<svg width="384" height="277" viewBox="0 0 384 277" fill="none" xmlns="http://www.w3.org/2000/svg">
<path d="M136.046 13.2193C151.646 2.81935 181.879 2.71955 195.046 2.21955C211.046 0.78015 231.546 5.21935 249.546 13.2193C263.046 13.2193 303.546 37.7193 322.546 52.2193C341.546 66.7193 386.046 90.7194 381.546 143.719C377.946 186.119 345.546 195.886 327.546 195.219C331.879 224.219 305.046 271.219 195.046 274.719C80.546 278.363 56.2126 226.053 59.0459 200.719C35.5459 197.386 -3.45399 178.119 2.54601 131.719C10.046 73.7194 101.546 9.21935 136.046 13.2193Z" fill="white" stroke="#A5A5A5" stroke-width="4" stroke-linecap="round" stroke-linejoin="round" stroke-dasharray="8 8"/>
<path d="M191.513 23.7214C286.225 23.9407 301.854 100.83 302.112 155.137C302.166 166.328 311.666 182.134 306.749 203.018C298.013 240.127 224.757 256.096 191.31 254.979C157.864 256.096 84.6072 240.127 75.8708 203.018C70.9542 182.134 80.4536 166.328 80.5069 155.137C80.7657 100.83 96.3944 23.9405 191.107 23.7214V23.7194C191.174 23.7194 191.242 23.7203 191.309 23.7204C191.377 23.7203 191.445 23.7194 191.513 23.7194V23.7214Z" fill="#FDF7D6"/>
<path d="M75.294 177.09C37.3386 182.657 11.6244 151.786 30.2533 114.337C39.2052 96.3409 58.2496 81.5668 75.2939 71.3208C95.22 59.3424 114.767 35.3896 138.553 35.3896L75.294 177.09Z" fill="#FDF7D6"/>
<path d="M308.798 177.09C346.753 182.657 372.467 151.786 353.839 114.337C344.887 96.3409 325.842 81.5668 308.798 71.3208C288.872 59.3424 269.324 35.3896 245.539 35.3896L308.798 177.09Z" fill="#FDF7D6"/>
<path d="M191.513 23.7213C286.226 23.9404 301.854 100.83 302.113 155.137C302.166 166.328 311.666 182.134 306.75 203.018C298.013 240.127 224.757 256.096 191.31 254.979C157.864 256.096 84.6072 240.127 75.8707 203.018C70.9541 182.134 80.454 166.328 80.5074 155.137C80.7662 100.83 96.3945 23.9403 191.107 23.7213V23.7194C191.175 23.7194 191.243 23.7203 191.31 23.7203C191.378 23.7203 191.446 23.7194 191.513 23.7194V23.7213Z" fill="#FDF7D6"/>
<path d="M144.85 249.88C145.252 187.941 101.777 166.343 79.9891 163.287C74.9612 171.097 72.5559 197.415 76.4695 205.565C85.5198 224.412 96.5813 234.599 144.85 249.88Z" fill="#FFD5CA"/>
<path d="M237.432 249.88C237.029 187.941 280.504 166.343 302.292 163.287C307.32 171.097 309.725 197.415 305.812 205.565C296.761 224.412 285.7 234.599 237.432 249.88Z" fill="#FFD5CA"/>
<path d="M138.553 31.8896C140.486 31.8896 142.053 33.4567 142.053 35.3896C142.053 37.3226 140.486 38.8896 138.553 38.8896C127.824 38.8897 117.761 44.2985 107.527 51.6992C102.426 55.3881 97.4742 59.4233 92.4004 63.4062C87.3817 67.346 82.2782 71.2055 77.0967 74.3203C60.1842 84.4872 41.8748 98.8321 33.3867 115.896C24.549 133.662 26.4471 149.282 34.3467 159.734C42.288 170.242 56.8395 176.259 74.7861 173.627C76.6987 173.346 78.4763 174.669 78.7569 176.582C79.0373 178.495 77.7143 180.272 75.8018 180.553C55.7934 183.487 38.5102 176.853 28.7627 163.955C18.9737 151.002 17.3282 132.461 27.1192 112.778C36.5348 93.8502 56.3144 78.6465 73.4902 68.3213C78.2715 65.447 83.0844 61.8205 88.0781 57.9004C93.0169 54.0234 98.175 49.8239 103.425 46.0273C113.893 38.4572 125.496 31.8897 138.553 31.8896Z" fill="black"/>
<path d="M245.539 31.8896C243.606 31.8896 242.039 33.4567 242.039 35.3896C242.039 37.3226 243.606 38.8896 245.539 38.8896C256.267 38.8897 266.331 44.2985 276.564 51.6992C281.665 55.3881 286.618 59.4233 291.691 63.4062C296.71 67.346 301.814 71.2055 306.995 74.3203C323.908 84.4872 342.217 98.8321 350.705 115.896C359.543 133.662 357.645 149.282 349.745 159.734C341.804 170.242 327.252 176.259 309.306 173.627C307.393 173.346 305.615 174.669 305.335 176.582C305.055 178.495 306.378 180.272 308.29 180.553C328.298 183.487 345.582 176.853 355.329 163.955C365.118 151.002 366.764 132.461 356.973 112.778C347.557 93.8502 327.777 78.6465 310.602 68.3213C305.82 65.447 301.007 61.8205 296.014 57.9004C291.075 54.0234 285.917 49.8239 280.667 46.0273C270.199 38.4572 258.596 31.8897 245.539 31.8896Z" fill="black"/>
<path d="M295.781 101.817C297.66 101.363 299.551 102.517 300.006 104.395C304.188 121.679 305.538 139.386 305.613 155.121C305.625 157.483 306.141 160.232 306.953 163.577C307.724 166.752 308.827 170.699 309.712 174.684C311.536 182.901 312.784 192.658 310.156 203.82C306.657 218.685 293.998 229.972 278.631 238.214C263.17 246.506 244.262 252.106 226.901 255.29C218.609 257.194 205.539 258.039 192.378 258.008C179.124 257.978 165.386 257.06 155.783 255.302C138.405 252.121 119.469 246.517 103.989 238.214C88.6217 229.972 75.9635 218.685 72.4639 203.82C69.8361 192.658 71.0845 182.901 72.9082 174.684C73.7926 170.699 74.8958 166.752 75.667 163.577C76.4793 160.232 76.9955 157.483 77.0068 155.121C77.0818 139.386 78.4319 121.679 82.6142 104.395C83.0691 102.517 84.9603 101.363 86.8389 101.817C88.7175 102.272 89.8724 104.163 89.418 106.042C85.4034 122.632 84.0802 139.761 84.0068 155.154C83.9914 158.387 83.2999 161.811 82.4697 165.229C81.5984 168.817 80.6246 172.225 79.7422 176.201C78.032 183.906 76.9885 192.494 79.2773 202.216C82.0846 214.14 92.546 224.134 107.297 232.046C121.935 239.897 140.117 245.318 157.044 248.417C166.073 250.07 179.35 250.979 192.394 251.008C205.48 251.038 217.941 250.182 225.417 248.45L225.576 248.417C242.503 245.318 260.685 239.897 275.323 232.046C290.074 224.134 300.535 214.14 303.343 202.216C305.632 192.494 304.588 183.906 302.878 176.201C301.995 172.225 301.022 168.817 300.15 165.229C299.32 161.811 298.629 158.387 298.613 155.154C298.54 139.761 297.217 122.632 293.202 106.042C292.748 104.163 293.903 102.272 295.781 101.817ZM191.611 20.2223C214.181 20.2851 232.574 24.3079 247.482 31.7985C249.21 32.6663 249.906 34.7695 249.038 36.4967C248.17 38.2238 246.067 38.921 244.34 38.0533C230.602 31.1508 213.306 27.2718 191.505 27.2213C191.485 27.2213 191.465 27.2197 191.445 27.2194C191.384 27.2195 191.535 27.2201 191.314 27.2203H191.306C191.084 27.2201 191.237 27.2195 191.174 27.2194C191.154 27.2197 191.135 27.2213 191.115 27.2213C169.347 27.2717 153.144 31.1386 139.382 38.0533C137.655 38.921 135.55 38.2239 134.683 36.4967C133.815 34.7696 134.512 32.6663 136.239 31.7985C151.123 24.3202 168.408 20.2853 191.008 20.2223C191.041 20.2214 191.073 20.2194 191.106 20.2194C191.154 20.2194 191.201 20.2201 191.233 20.2203H191.387C191.42 20.2201 191.466 20.2194 191.514 20.2194C191.546 20.2194 191.579 20.2214 191.611 20.2223Z" fill="black"/>
<path d="M154.464 175.512C154.464 181.701 149.835 186.718 144.126 186.718C138.416 186.718 133.788 181.701 133.788 175.512C133.788 169.323 138.416 164.306 144.126 164.306C149.835 164.306 154.464 169.323 154.464 175.512Z" fill="black"/>
<path d="M244.403 175.512C244.403 181.701 239.775 186.718 234.065 186.718C228.356 186.718 223.728 181.701 223.728 175.512C223.728 169.323 228.356 164.306 234.065 164.306C239.775 164.306 244.403 169.323 244.403 175.512Z" fill="black"/>
<path d="M168.076 185.873C169.895 185.411 171.742 186.466 172.283 188.242C172.29 188.259 172.309 188.302 172.344 188.365C172.433 188.527 172.632 188.83 173.021 189.166C173.744 189.793 175.499 190.859 179.403 190.859C183.308 190.859 185.063 189.793 185.786 189.166C186.175 188.83 186.374 188.527 186.464 188.365C186.509 188.282 186.528 188.234 186.528 188.234C186.528 188.234 186.523 188.247 186.514 188.275C186.51 188.289 186.505 188.306 186.499 188.328C186.496 188.338 186.492 188.35 186.489 188.363C186.487 188.369 186.485 188.376 186.483 188.383C186.482 188.386 186.481 188.39 186.48 188.393C186.48 188.395 186.48 188.398 186.479 188.399V188.4C186.839 186.988 188.036 185.947 189.484 185.787C190.928 185.626 192.32 186.375 192.983 187.666C192.981 187.662 192.98 187.658 192.978 187.655C192.974 187.647 192.971 187.641 192.968 187.635C192.962 187.624 192.958 187.618 192.957 187.615C192.959 187.618 192.965 187.628 192.974 187.644C193.005 187.693 193.07 187.795 193.177 187.934C193.39 188.212 193.755 188.626 194.302 189.053C195.351 189.872 197.218 190.859 200.338 190.859C203.457 190.859 205.324 189.872 206.374 189.053C206.92 188.627 207.285 188.212 207.498 187.934C207.604 187.795 207.671 187.693 207.701 187.644C207.716 187.62 207.722 187.609 207.719 187.615C207.717 187.617 207.713 187.624 207.707 187.635C207.704 187.641 207.701 187.647 207.697 187.655C207.695 187.659 207.693 187.663 207.69 187.667C207.689 187.669 207.688 187.671 207.687 187.672C208.565 185.955 210.668 185.271 212.388 186.144C214.112 187.019 214.8 189.125 213.926 190.849L210.805 189.265L213.924 190.853L213.918 190.865C213.915 190.87 213.911 190.876 213.908 190.882C213.901 190.895 213.895 190.909 213.887 190.924C213.87 190.954 213.851 190.99 213.829 191.03C213.784 191.11 213.726 191.209 213.655 191.324C213.513 191.553 213.317 191.849 213.057 192.188C212.54 192.865 211.765 193.724 210.68 194.571C208.467 196.298 205.1 197.859 200.338 197.859C195.662 197.859 192.332 196.353 190.118 194.664C187.893 196.481 184.48 197.859 179.403 197.859C174.133 197.859 170.654 196.378 168.437 194.457C167.356 193.521 166.659 192.55 166.22 191.757C166.001 191.362 165.848 191.012 165.741 190.734C165.688 190.594 165.645 190.472 165.613 190.37C165.597 190.319 165.584 190.273 165.572 190.232C165.566 190.212 165.561 190.193 165.556 190.175C165.554 190.166 165.552 190.157 165.55 190.149C165.549 190.145 165.548 190.141 165.547 190.137C165.546 190.135 165.546 190.132 165.546 190.131C165.551 190.127 165.695 190.087 168.936 189.265L165.544 190.125C165.069 188.252 166.202 186.348 168.076 185.873ZM172.327 188.4C172.327 188.399 172.326 188.395 172.326 188.393C172.325 188.39 172.324 188.386 172.323 188.383C172.321 188.376 172.32 188.369 172.318 188.363C172.315 188.35 172.311 188.338 172.308 188.328C172.302 188.306 172.297 188.289 172.293 188.275C172.292 188.273 172.29 188.271 172.29 188.269C172.303 188.312 172.316 188.356 172.327 188.4Z" fill="black"/>
<path d="M183.808 182.488C188.858 185.396 190.312 185.357 194.712 182.488C200.26 178.87 193.564 176.557 189.547 176.557C185.53 176.557 178.757 179.58 183.808 182.488Z" fill="black"/>
</svg>
