<svg width="337" height="320" viewBox="0 0 337 320" fill="none" xmlns="http://www.w3.org/2000/svg">
<path d="M182.72 45.0776H162.22C162.22 32.9109 154.92 10.1778 141.72 4.57782C125.22 -2.42212 109.72 4.57782 97.7197 26.5778C90.9197 26.1778 80.8864 34.7444 76.7197 39.0778C68.8864 37.4111 51.3197 35.8778 43.7197 43.0778C29.2197 55.0778 32.7197 93.5778 47.2197 139.578C43.6197 156.778 41.7198 181.078 41.2199 191.078L36.7199 216.078C24.0532 214.244 -0.580115 215.978 2.21989 237.578C5.71989 264.578 21.7199 260.578 41.2199 260.578C70.7199 295.078 100.22 315.078 177.72 317.078C255.22 319.078 290.72 284.578 309.22 260.578C337.22 260.078 336.72 237.578 332.22 226.078C328.62 216.878 315.387 218.578 309.22 220.578C309.22 218.078 308.32 209.278 304.72 194.078C306.22 177.578 303.22 154.578 297.72 134.578C321.22 112.578 310.72 51.0778 303.22 43.0778C295.72 35.0778 296.72 37.0778 267.22 43.0778C262.82 31.4778 251.053 24.5778 245.72 22.5778C242.553 15.9112 231.32 2.97782 211.72 4.57782C192.12 6.17782 182.553 31.2443 182.72 45.0776Z" fill="white" stroke="#A5A5A5" stroke-width="4" stroke-linecap="round" stroke-linejoin="round" stroke-dasharray="8 8"/>
<path d="M281.22 62.2333C270.329 58.4459 244.493 75.001 235.72 81.3133C224.22 99.8912 261.72 137.653 273.72 129.515C291.872 117.206 294.834 66.9675 281.22 62.2333Z" fill="#FDF7D6"/>
<path d="M66.0396 62.2333C76.9307 58.4459 102.766 75.001 111.54 81.3133C123.04 99.8912 85.5398 137.653 73.5398 129.515C55.3879 117.206 52.4258 66.9675 66.0396 62.2333Z" fill="#FDF7D6"/>
<path d="M173.624 64.2437C267.809 64.4598 283.351 140.252 283.608 193.785C283.661 204.816 293.109 220.396 288.219 240.983C279.532 277.562 206.682 293.303 173.422 292.202C140.161 293.303 67.3115 277.562 58.6237 240.983C53.7344 220.396 63.181 204.816 63.234 193.785C63.4914 140.252 79.0332 64.4596 173.219 64.2437V64.2417C173.286 64.2417 173.354 64.2426 173.421 64.2427C173.488 64.2426 173.556 64.2417 173.624 64.2417V64.2437Z" fill="#FDF7D6"/>
<path d="M269.828 59.3528C274.103 58.1841 278.619 57.6234 282.371 58.9279C285.032 59.8537 287.034 61.8054 288.498 64.0901C289.96 66.3703 291.012 69.1661 291.746 72.1858C293.214 78.228 293.545 85.7398 292.869 93.344C292.19 100.967 290.479 108.893 287.712 115.78C284.972 122.6 281.043 128.779 275.685 132.412C273.263 134.055 270.418 134.377 267.703 134.011C265.002 133.647 262.189 132.58 259.453 131.116C253.972 128.186 248.2 123.347 243.278 117.742C238.355 112.137 234.087 105.544 231.812 98.9719C229.552 92.4434 229.09 85.3751 232.745 79.4709C232.986 79.0802 233.303 78.7413 233.676 78.4729C238.161 75.2461 246.978 69.4179 256.113 64.8547C260.675 62.5757 265.428 60.5552 269.828 59.3528ZM280.071 65.5393C278.377 64.9502 275.579 65.0383 271.673 66.1057C267.891 67.1393 263.595 68.9421 259.241 71.1174C250.936 75.2659 242.823 80.5635 238.373 83.7199C236.599 87.0466 236.618 91.4599 238.426 96.6819C240.323 102.161 244.023 107.983 248.537 113.123C253.052 118.264 258.187 122.501 262.753 124.943C265.04 126.165 267.036 126.858 268.638 127.074C270.226 127.288 271.178 127.01 271.756 126.618C275.473 124.098 278.722 119.381 281.217 113.171C283.685 107.029 285.267 99.7911 285.896 92.7238C286.527 85.638 286.182 78.9326 284.944 73.8391C284.325 71.291 283.516 69.2887 282.605 67.8674C281.697 66.4507 280.812 65.7972 280.071 65.5393Z" fill="black"/>
<path d="M77.4332 59.3528C73.1574 58.1841 68.6416 57.6234 64.8902 58.9279C62.2286 59.8537 60.2269 61.8054 58.7623 64.0901C57.3006 66.3703 56.2491 69.1661 55.5152 72.1858C54.0469 78.228 53.7153 85.7398 54.3922 93.344C55.0708 100.967 56.7813 108.893 59.5484 115.78C62.2883 122.6 66.2173 128.779 71.5758 132.412C73.998 134.055 76.843 134.377 79.5582 134.011C82.2584 133.647 85.0715 132.58 87.8082 131.116C93.2888 128.186 99.0604 123.347 103.983 117.742C108.906 112.137 113.174 105.544 115.449 98.9719C117.709 92.4434 118.171 85.3751 114.516 79.4709C114.274 79.0802 113.958 78.7413 113.585 78.4729C109.1 75.2461 100.283 69.4179 91.1481 64.8547C86.5859 62.5757 81.8327 60.5552 77.4332 59.3528ZM67.19 65.5393C68.8841 64.9502 71.6822 65.0383 75.5875 66.1057C79.3693 67.1393 83.6655 68.9421 88.0201 71.1174C96.3248 75.2659 104.438 80.5635 108.887 83.7199C110.662 87.0466 110.642 91.4599 108.835 96.6819C106.938 102.161 103.238 107.983 98.7232 113.123C94.2085 118.264 89.0736 122.501 84.5074 124.943C82.2209 126.165 80.2251 126.858 78.6227 127.074C77.0352 127.288 76.0822 127.01 75.5045 126.618C71.7874 124.098 68.5387 119.381 66.0436 113.171C63.5756 107.029 61.994 99.7911 61.3648 92.7238C60.734 85.638 61.0792 78.9326 62.317 73.8391C62.9362 71.291 63.7448 69.2887 64.6559 67.8674C65.5641 66.4507 66.4484 65.7972 67.19 65.5393Z" fill="black"/>
<path d="M131.221 205.836C131.221 211.936 126.744 216.882 121.221 216.882C115.698 216.882 111.221 211.936 111.221 205.836C111.221 199.735 115.698 194.789 121.221 194.789C126.744 194.789 131.221 199.735 131.221 205.836Z" fill="black"/>
<path d="M236.221 205.836C236.221 211.936 231.744 216.882 226.221 216.882C220.698 216.882 216.221 211.936 216.221 205.836C216.221 199.735 220.698 194.789 226.221 194.789C231.744 194.789 236.221 199.735 236.221 205.836Z" fill="black"/>
<path d="M173.624 64.2437C267.81 64.4594 283.352 140.252 283.609 193.785C283.662 204.816 293.11 220.397 288.22 240.983C279.532 277.563 206.682 293.304 173.421 292.203C140.161 293.303 67.3114 277.562 58.6236 240.983C53.7343 220.397 63.1819 204.816 63.2349 193.785C63.4923 140.252 79.034 64.4595 173.22 64.2437V64.2417C173.287 64.2417 173.354 64.2426 173.421 64.2427C173.489 64.2426 173.556 64.2417 173.624 64.2417V64.2437Z" fill="#FDF7D6"/>
<path d="M125.22 287.176C125.62 226.12 82.3861 204.831 60.7195 201.819C55.7195 209.518 53.3275 235.46 57.2194 243.493C66.2195 262.071 77.2195 272.113 125.22 287.176Z" fill="#FFD5CA"/>
<path d="M217.287 287.176C216.887 226.12 260.121 204.831 281.787 201.819C286.787 209.518 289.179 235.46 285.287 243.493C276.287 262.071 265.287 272.113 217.287 287.176Z" fill="#FFD5CA"/>
<path d="M265.853 112.349C267.569 111.46 269.682 112.13 270.571 113.846C283.634 139.061 286.99 168.977 287.109 193.768C287.12 196.086 287.631 198.789 288.438 202.085C289.204 205.211 290.303 209.108 291.182 213.036C292.997 221.141 294.242 230.773 291.625 241.792C288.155 256.402 275.654 267.496 260.481 275.606C245.22 283.763 226.544 289.291 209.345 292.46C190.563 296.949 159.877 296.577 137.586 292.478C120.362 289.311 101.648 283.777 86.361 275.606C71.1885 267.496 58.6886 256.402 55.2185 241.792C52.6014 230.773 53.8451 221.141 55.6599 213.036C56.5394 209.108 57.6383 205.211 58.404 202.085C59.2116 198.789 59.7229 196.086 59.7341 193.768C59.8533 168.977 63.2084 139.061 76.2712 113.846C77.1605 112.13 79.2727 111.46 80.989 112.349C82.705 113.238 83.3752 115.351 82.486 117.067C70.1731 140.834 66.8512 169.446 66.7341 193.801C66.7187 196.998 66.0286 200.381 65.2028 203.751C64.3353 207.293 63.3685 210.646 62.4909 214.565C60.7915 222.155 59.7568 230.607 62.029 240.174C64.8002 251.841 75.0967 261.648 89.6609 269.432C104.111 277.155 122.075 282.509 138.852 285.593C160.524 289.578 190.243 289.854 207.805 285.633L207.991 285.593C224.769 282.509 242.732 277.155 257.181 269.432C271.746 261.648 282.043 251.841 284.814 240.174C287.086 230.607 286.052 222.155 284.352 214.565C283.475 210.646 282.507 207.293 281.639 203.751C280.814 200.381 280.124 196.998 280.109 193.801C279.992 169.446 276.669 140.834 264.356 117.067C263.467 115.351 264.137 113.238 265.853 112.349ZM173.716 60.7446C205.156 60.8316 228.341 69.1866 245.247 82.5874C246.761 83.7882 247.016 85.9897 245.815 87.5044C244.614 89.0192 242.413 89.2735 240.898 88.0728C225.418 75.8016 203.812 67.813 173.615 67.7437C173.595 67.7436 173.575 67.7421 173.555 67.7417C173.497 67.7419 173.64 67.7424 173.425 67.7427H173.417C173.195 67.7424 173.349 67.7419 173.287 67.7417C173.267 67.7421 173.247 67.7436 173.227 67.7437C143.03 67.8129 121.425 75.8016 105.944 88.0728C104.429 89.2734 102.228 89.0192 101.027 87.5044C99.8264 85.9896 100.082 83.7881 101.596 82.5874C118.502 69.1868 141.686 60.8317 173.126 60.7446C173.157 60.7438 173.188 60.7417 173.219 60.7417C173.267 60.7417 173.312 60.7424 173.344 60.7427H173.498C173.531 60.7424 173.576 60.7417 173.624 60.7417C173.654 60.7417 173.685 60.7438 173.716 60.7446Z" fill="black"/>
<path d="M62.808 224.726C71.8432 220.742 81.0762 220.781 88.8158 222.351C96.5274 223.915 102.981 227.04 106.684 229.55C108.284 230.635 108.702 232.81 107.618 234.41C106.533 236.01 104.356 236.428 102.756 235.344C99.7923 233.335 94.1958 230.584 87.4242 229.211C80.6806 227.844 72.9968 227.883 65.6322 231.13C55.424 235.631 47.0516 239.137 40.3695 240.913C33.8248 242.653 27.8275 243.041 23.222 239.839C21.6352 238.736 21.2429 236.555 22.3461 234.968C23.4495 233.381 25.631 232.989 27.2181 234.092C29.1127 235.409 32.3655 235.797 38.5707 234.148C44.6385 232.535 52.5164 229.263 62.808 224.726Z" fill="black"/>
<path d="M277.131 224.726C268.096 220.742 258.863 220.781 251.124 222.351C243.412 223.915 236.958 227.04 233.256 229.55C231.656 230.635 231.238 232.81 232.322 234.41C233.406 236.01 235.583 236.428 237.183 235.344C240.147 233.335 245.744 230.584 252.515 229.211C259.259 227.844 266.943 227.883 274.307 231.13C284.515 235.631 292.888 239.137 299.57 240.913C306.115 242.653 312.112 243.041 316.717 239.839C318.304 238.736 318.697 236.555 317.593 234.968C316.49 233.381 314.308 232.989 312.721 234.092C310.827 235.409 307.574 235.797 301.369 234.148C295.301 232.535 287.423 229.263 277.131 224.726Z" fill="black"/>
<path d="M129.398 25.0776C146.177 25.0776 145.478 68.1471 142.682 83.1177C134.292 90.7182 121.708 92.1001 114.018 83.1177V64.462C107.726 64.462 97.9378 63.771 97.2387 54.0977C96.6794 46.359 108.658 43.5031 114.018 43.7334C113.552 38.2058 115.975 25.0776 129.398 25.0776Z" fill="#A2978A"/>
<path d="M129.399 21.5776C135.431 21.5776 139.488 25.5608 142.042 30.4097C144.582 35.2312 146.048 41.5709 146.855 48.0513C148.473 61.0551 147.585 75.9277 146.122 83.7603C145.982 84.5124 145.598 85.1977 145.031 85.7114C135.683 94.1804 120.733 96.342 111.359 85.394C110.817 84.7599 110.518 83.9525 110.518 83.1177V67.8647C107.888 67.7004 104.896 67.2665 102.187 66.1392C100.116 65.2773 98.0845 63.9625 96.5138 61.9536C94.9246 59.9211 93.9673 57.3818 93.7481 54.3501C93.3053 48.2222 97.9515 44.5842 101.946 42.7476C104.716 41.4743 107.832 40.7174 110.552 40.3989C110.804 37.416 111.635 33.8568 113.446 30.6226C116.214 25.6821 121.27 21.5776 129.399 21.5776ZM129.399 28.5776C124.104 28.5776 121.236 31.038 119.553 34.0435C117.738 37.2835 117.318 41.2168 117.505 43.439C117.589 44.441 117.239 45.4312 116.543 46.1567C115.847 46.8823 114.872 47.2731 113.867 47.23C111.715 47.1376 107.936 47.6974 104.87 49.1069C101.676 50.5754 100.613 52.2347 100.73 53.8452C100.86 55.6499 101.388 56.8245 102.027 57.6421C102.685 58.4832 103.625 59.1562 104.875 59.6763C107.493 60.7655 110.886 60.9624 114.018 60.9624C115.951 60.9624 117.518 62.5294 117.518 64.4624V81.7466C123.354 87.5429 132.454 87.007 139.447 81.2837C140.658 73.8442 141.355 60.5394 139.908 48.9155C139.142 42.7574 137.81 37.3941 135.85 33.6724C133.904 29.9781 131.755 28.5776 129.399 28.5776Z" fill="black"/>
<path d="M143.72 51.2019C145.653 51.2019 147.22 52.7689 147.22 54.7019C147.22 56.6349 145.653 58.2019 143.72 58.2019H130.22C128.287 58.2019 126.72 56.6349 126.72 54.7019C126.72 52.7689 128.287 51.2019 130.22 51.2019H143.72Z" fill="black"/>
<path d="M143.72 65.7629C145.653 65.7629 147.22 67.3299 147.22 69.2629C147.22 71.1959 145.653 72.7629 143.72 72.7629H132.22C130.287 72.7629 128.72 71.1959 128.72 69.2629C128.72 67.3299 130.287 65.7629 132.22 65.7629H143.72Z" fill="black"/>
<path d="M220.041 27.0859C203.262 27.0859 203.961 70.1554 206.758 85.126C215.147 92.7265 227.731 94.1084 235.422 85.126V66.4703C241.714 66.4703 251.502 65.7793 252.201 56.106C252.76 48.3673 240.782 45.5114 235.422 45.7417C235.888 40.2141 233.464 27.0859 220.041 27.0859Z" fill="#A2978A"/>
<path d="M220.041 23.5859C214.008 23.5859 209.952 27.5691 207.397 32.418C204.857 37.2395 203.391 43.5792 202.585 50.0596C200.966 63.0634 201.854 77.936 203.317 85.7686C203.458 86.5207 203.841 87.206 204.408 87.7197C213.756 96.1887 228.707 98.3503 238.08 87.4023C238.623 86.7682 238.922 85.9608 238.922 85.126V69.873C241.552 69.7087 244.544 69.2748 247.253 68.1475C249.324 67.2856 251.355 65.9708 252.926 63.9619C254.515 61.9294 255.472 59.3901 255.691 56.3584C256.134 50.2305 251.488 46.5925 247.493 44.7559C244.723 43.4826 241.607 42.7257 238.888 42.4072C238.636 39.4243 237.805 35.8651 235.993 32.6309C233.226 27.6904 228.169 23.5859 220.041 23.5859ZM220.041 30.5859C225.336 30.5859 228.203 33.0463 229.887 36.0518C231.701 39.2918 232.122 43.2251 231.934 45.4473C231.85 46.4493 232.2 47.4395 232.896 48.165C233.593 48.8906 234.568 49.2815 235.572 49.2383C237.724 49.1459 241.503 49.7057 244.569 51.1152C247.763 52.5837 248.826 54.243 248.71 55.8535C248.579 57.6582 248.051 58.8328 247.412 59.6504C246.754 60.4915 245.814 61.1645 244.564 61.6846C241.947 62.7738 238.554 62.9707 235.422 62.9707C233.489 62.9707 231.922 64.5377 231.922 66.4707V83.7549C226.085 89.5512 216.986 89.0153 209.992 83.292C208.782 75.8525 208.084 62.5477 209.531 50.9238C210.298 44.7657 211.629 39.4024 213.59 35.6807C215.536 31.9864 217.684 30.5859 220.041 30.5859Z" fill="black"/>
<path d="M207.22 51.2017C205.287 51.2017 203.72 52.7687 203.72 54.7017C203.72 56.6347 205.287 58.2017 207.22 58.2017H220.72C222.653 58.2017 224.22 56.6347 224.22 54.7017C224.22 52.7687 222.653 51.2017 220.72 51.2017H207.22Z" fill="black"/>
<path d="M207.22 65.7627C205.287 65.7627 203.72 67.3297 203.72 69.2627C203.72 71.1957 205.287 72.7627 207.22 72.7627H218.72C220.653 72.7627 222.22 71.1957 222.22 69.2627C222.22 67.3297 220.653 65.7627 218.72 65.7627H207.22Z" fill="black"/>
<path d="M139.78 208.848C139.78 214.949 135.178 219.894 129.5 219.894C123.822 219.894 119.22 214.949 119.22 208.848C119.22 202.747 123.822 197.802 129.5 197.802C135.178 197.802 139.78 202.747 139.78 208.848Z" fill="black"/>
<path d="M229.22 208.848C229.22 214.949 224.617 219.894 218.94 219.894C213.262 219.894 208.659 214.949 208.659 208.848C208.659 202.747 213.262 197.802 218.94 197.802C224.617 197.802 229.22 202.747 229.22 208.848Z" fill="black"/>
<path d="M153.304 219.014C155.121 218.549 156.97 219.599 157.516 221.372C157.524 221.389 157.541 221.428 157.571 221.482C157.657 221.636 157.852 221.931 158.236 222.26C158.951 222.874 160.695 223.926 164.582 223.926C168.469 223.926 170.213 222.874 170.928 222.26C171.311 221.931 171.505 221.636 171.592 221.482C171.628 221.417 171.645 221.375 171.65 221.364C172.061 220.043 173.216 219.081 174.601 218.926C176.042 218.765 177.432 219.509 178.098 220.795C178.096 220.791 178.094 220.787 178.093 220.784C178.088 220.776 178.085 220.769 178.082 220.763C178.076 220.752 178.072 220.745 178.07 220.742C178.072 220.745 178.078 220.755 178.087 220.769C178.116 220.816 178.181 220.915 178.285 221.05C178.495 221.322 178.855 221.728 179.397 222.147C180.437 222.952 182.293 223.926 185.399 223.926C188.505 223.926 190.361 222.952 191.401 222.147C191.943 221.728 192.304 221.322 192.513 221.05C192.618 220.915 192.684 220.816 192.713 220.769C192.722 220.755 192.726 220.745 192.728 220.742C192.727 220.745 192.723 220.752 192.717 220.763C192.714 220.768 192.711 220.775 192.708 220.782C193.597 219.082 195.692 218.414 197.403 219.29C199.124 220.17 199.804 222.279 198.924 224L195.808 222.405C198.924 223.999 198.923 224.002 198.922 224.003L198.916 224.015C198.913 224.021 198.909 224.027 198.906 224.034C198.899 224.046 198.892 224.06 198.884 224.075C198.867 224.105 198.848 224.14 198.826 224.18C198.781 224.26 198.723 224.358 198.652 224.472C198.51 224.7 198.313 224.993 198.054 225.329C197.537 225.998 196.766 226.847 195.685 227.683C193.481 229.389 190.132 230.926 185.399 230.926C180.753 230.926 177.443 229.443 175.237 227.775C173.02 229.57 169.626 230.926 164.582 230.926C159.345 230.926 155.885 229.468 153.676 227.571C152.598 226.645 151.901 225.684 151.461 224.897C151.242 224.505 151.087 224.158 150.98 223.88C150.927 223.742 150.885 223.619 150.852 223.517C150.836 223.466 150.823 223.42 150.811 223.379C150.805 223.359 150.8 223.34 150.795 223.322C150.792 223.313 150.79 223.305 150.788 223.296C150.787 223.292 150.786 223.288 150.785 223.284C150.784 223.282 150.783 223.279 150.783 223.278C150.785 223.274 150.874 223.249 154.173 222.405L150.782 223.273C150.303 221.4 151.432 219.494 153.304 219.014ZM171.637 221.405C171.632 221.419 171.627 221.438 171.621 221.459C171.618 221.47 171.615 221.482 171.611 221.495C171.609 221.501 171.607 221.508 171.605 221.515C171.604 221.519 171.603 221.522 171.602 221.526C171.617 221.471 171.634 221.417 171.651 221.364C171.649 221.369 171.644 221.382 171.637 221.405ZM157.557 221.515C157.556 221.508 157.554 221.501 157.553 221.495C157.549 221.482 157.546 221.47 157.543 221.459C157.537 221.438 157.531 221.419 157.526 221.405C157.524 221.399 157.523 221.394 157.521 221.389C157.534 221.431 157.546 221.473 157.557 221.515Z" fill="black"/>
</svg>
