<svg width="420" height="420" viewBox="0 0 420 420" fill="none" xmlns="http://www.w3.org/2000/svg">
<path d="M154.119 85.2685C169.719 74.8685 199.953 74.7687 213.119 74.2687C229.119 72.8293 249.619 77.2685 267.619 85.2685C281.119 85.2685 321.619 109.769 340.619 124.269C359.619 138.769 404.119 162.769 399.619 215.769C396.019 258.169 363.619 267.935 345.619 267.269C349.952 296.269 323.119 343.269 213.119 346.769C98.6192 350.412 74.2859 298.102 77.1191 272.769C53.6191 269.435 14.6193 250.169 20.6193 203.769C28.1193 145.769 119.619 81.2685 154.119 85.2685Z" fill="white" stroke="#A5A5A5" stroke-width="4" stroke-linecap="round" stroke-linejoin="round" stroke-dasharray="8 8"/>
<path d="M209.587 95.7705C304.299 95.9899 319.927 172.879 320.186 227.186C320.239 238.377 329.739 254.183 324.823 275.067C316.086 312.176 242.83 328.145 209.383 327.028C175.937 328.145 102.68 312.176 93.944 275.067C89.0274 254.183 98.5268 238.377 98.5801 227.186C98.8389 172.879 114.468 95.9897 209.18 95.7705V95.7686C209.247 95.7686 209.315 95.7695 209.382 95.7695C209.45 95.7695 209.519 95.7686 209.587 95.7686V95.7705Z" fill="#FDF7D6"/>
<path d="M93.3673 249.139C55.4118 254.706 29.6976 223.835 48.3265 186.386C57.2785 168.39 76.3228 153.616 93.3671 143.37C113.293 131.392 132.841 107.439 156.626 107.439L93.3673 249.139Z" fill="#FDF7D6"/>
<path d="M326.871 249.139C364.826 254.706 390.541 223.835 371.912 186.386C362.96 168.39 343.915 153.616 326.871 143.37C306.945 131.392 287.398 107.439 263.612 107.439L326.871 249.139Z" fill="#FDF7D6"/>
<path d="M209.587 95.7705C304.299 95.9896 319.928 172.879 320.186 227.187C320.24 238.377 329.74 254.183 324.823 275.067C316.087 312.176 242.83 328.145 209.383 327.028C175.937 328.145 102.68 312.176 93.944 275.067C89.0274 254.183 98.5273 238.377 98.5807 227.187C98.8395 172.879 114.468 95.9895 209.18 95.7705V95.7686C209.248 95.7686 209.316 95.7695 209.383 95.7695C209.451 95.7695 209.519 95.7686 209.587 95.7686V95.7705Z" fill="#FDF7D6"/>
<path d="M162.923 321.929C163.325 259.99 119.85 238.393 98.0623 235.336C93.0344 243.147 90.6291 269.464 94.5428 277.614C103.593 296.461 114.655 306.648 162.923 321.929Z" fill="#FFD5CA"/>
<path d="M255.505 321.929C255.103 259.99 298.578 238.393 320.365 235.336C325.393 243.147 327.799 269.464 323.885 277.614C314.835 296.461 303.773 306.648 255.505 321.929Z" fill="#FFD5CA"/>
<path d="M156.626 103.939C158.559 103.939 160.126 105.506 160.126 107.439C160.126 109.372 158.559 110.939 156.626 110.939C145.898 110.939 135.834 116.348 125.601 123.748C120.5 127.437 115.547 131.472 110.474 135.455C105.455 139.395 100.351 143.255 95.1699 146.37C78.2574 156.536 59.9481 170.881 51.46 187.945C42.6223 205.711 44.5203 221.331 52.4199 231.784C60.3612 242.291 74.9127 248.308 92.8594 245.676C94.7719 245.396 96.5496 246.719 96.8301 248.631C97.1105 250.544 95.7875 252.321 93.875 252.602C73.8666 255.536 56.5835 248.902 46.836 236.004C37.0469 223.051 35.4014 204.51 45.1924 184.828C54.6081 165.899 74.3876 150.696 91.5635 140.37C96.3448 137.496 101.158 133.87 106.151 129.95C111.09 126.073 116.248 121.873 121.498 118.077C131.966 110.506 143.569 103.939 156.626 103.939Z" fill="black"/>
<path d="M263.612 103.939C261.679 103.939 260.112 105.506 260.112 107.439C260.112 109.372 261.679 110.939 263.612 110.939C274.341 110.939 284.404 116.348 294.638 123.748C299.739 127.437 304.691 131.472 309.765 135.455C314.783 139.395 319.887 143.255 325.068 146.37C341.981 156.536 360.29 170.881 368.778 187.945C377.616 205.711 375.718 221.331 367.818 231.784C359.877 242.291 345.326 248.308 327.379 245.676C325.466 245.396 323.689 246.719 323.408 248.631C323.128 250.544 324.451 252.321 326.363 252.602C346.372 255.536 363.655 248.902 373.402 236.004C383.191 223.051 384.837 204.51 375.046 184.828C365.63 165.899 345.851 150.696 328.675 140.37C323.893 137.496 319.081 133.87 314.087 129.95C309.148 126.073 303.99 121.873 298.74 118.077C288.272 110.506 276.669 103.939 263.612 103.939Z" fill="black"/>
<path d="M313.854 173.866C315.733 173.412 317.624 174.566 318.079 176.444C322.261 193.728 323.612 211.435 323.687 227.17C323.698 229.532 324.214 232.281 325.026 235.626C325.797 238.801 326.901 242.749 327.785 246.733C329.609 254.95 330.857 264.707 328.229 275.869C324.73 290.734 312.072 302.022 296.704 310.264C281.244 318.555 262.335 324.155 244.975 327.339C236.682 329.243 223.612 330.088 210.451 330.058C197.197 330.027 183.459 329.11 173.856 327.352C156.478 324.17 137.542 318.566 122.062 310.264C106.695 302.022 94.0367 290.734 90.5371 275.869C87.9094 264.707 89.1578 254.95 90.9814 246.733C91.8659 242.749 92.9691 238.801 93.7402 235.626C94.5525 232.281 95.0688 229.532 95.0801 227.17C95.155 211.435 96.5051 193.728 100.687 176.444C101.142 174.566 103.034 173.412 104.912 173.866C106.791 174.321 107.946 176.212 107.491 178.091C103.477 194.681 102.153 211.811 102.08 227.203C102.065 230.436 101.373 233.86 100.543 237.278C99.6716 240.866 98.6979 244.274 97.8154 248.25C96.1052 255.955 95.0617 264.543 97.3506 274.266C100.158 286.189 110.619 296.183 125.37 304.095C140.009 311.946 158.191 317.367 175.117 320.466C184.147 322.119 197.424 323.028 210.467 323.058C223.553 323.088 236.014 322.231 243.49 320.499L243.649 320.466C260.576 317.367 278.758 311.946 293.396 304.095C308.147 296.183 318.609 286.189 321.416 274.266C323.705 264.543 322.661 255.955 320.951 248.25C320.069 244.274 319.095 240.866 318.224 237.278C317.393 233.86 316.702 230.436 316.687 227.203C316.613 211.811 315.29 194.681 311.275 178.091C310.821 176.212 311.976 174.321 313.854 173.866ZM209.685 92.2715C232.255 92.3343 250.648 96.3571 265.556 103.848C267.283 104.716 267.979 106.819 267.111 108.546C266.243 110.273 264.14 110.97 262.413 110.103C248.675 103.2 231.379 99.321 209.578 99.2705C209.558 99.2705 209.538 99.2689 209.519 99.2686C209.458 99.2687 209.608 99.2693 209.388 99.2695H209.379C209.157 99.2693 209.311 99.2687 209.247 99.2686C209.228 99.2689 209.208 99.2705 209.188 99.2705C187.421 99.3209 171.217 103.188 157.455 110.103C155.728 110.97 153.624 110.273 152.756 108.546C151.888 106.819 152.585 104.715 154.312 103.848C169.196 96.3694 186.481 92.3345 209.081 92.2715C209.114 92.2706 209.147 92.2686 209.18 92.2686C209.228 92.2686 209.274 92.2693 209.307 92.2695H209.46C209.493 92.2693 209.539 92.2686 209.587 92.2686C209.62 92.2686 209.652 92.2706 209.685 92.2715Z" fill="black"/>
<path d="M172.537 247.561C172.537 253.75 167.909 258.767 162.199 258.767C156.49 258.767 151.861 253.75 151.861 247.561C151.861 241.372 156.49 236.355 162.199 236.355C167.909 236.355 172.537 241.372 172.537 247.561Z" fill="black"/>
<path d="M262.476 247.561C262.476 253.75 257.848 258.767 252.139 258.767C246.429 258.767 241.801 253.75 241.801 247.561C241.801 241.372 246.429 236.355 252.139 236.355C257.848 236.355 262.476 241.372 262.476 247.561Z" fill="black"/>
<path d="M186.149 257.922C187.968 257.461 189.815 258.515 190.356 260.291C190.363 260.308 190.382 260.351 190.417 260.414C190.507 260.576 190.706 260.879 191.095 261.216C191.817 261.842 193.572 262.908 197.476 262.908C201.381 262.908 203.136 261.842 203.859 261.216C204.248 260.879 204.447 260.576 204.537 260.414C204.583 260.332 204.601 260.283 204.601 260.283C204.601 260.283 204.596 260.297 204.588 260.324C204.583 260.338 204.578 260.355 204.572 260.377C204.569 260.387 204.566 260.399 204.562 260.412C204.561 260.418 204.558 260.426 204.556 260.432C204.556 260.436 204.554 260.439 204.554 260.442C204.553 260.444 204.553 260.447 204.553 260.448V260.449C204.913 259.038 206.109 257.997 207.557 257.836C209.002 257.675 210.393 258.424 211.056 259.716C211.054 259.712 211.053 259.707 211.052 259.704C211.048 259.696 211.044 259.69 211.041 259.684C211.035 259.674 211.032 259.667 211.03 259.664C211.032 259.668 211.038 259.678 211.048 259.693C211.078 259.742 211.144 259.845 211.25 259.983C211.463 260.262 211.828 260.676 212.375 261.102C213.424 261.921 215.291 262.908 218.411 262.908C221.531 262.908 223.398 261.921 224.447 261.102C224.994 260.676 225.358 260.262 225.571 259.983C225.677 259.845 225.744 259.742 225.774 259.693C225.789 259.669 225.795 259.659 225.792 259.664C225.79 259.667 225.786 259.673 225.78 259.684C225.777 259.69 225.774 259.696 225.77 259.704C225.768 259.708 225.766 259.712 225.763 259.717C225.763 259.718 225.761 259.72 225.761 259.722C226.638 258.004 228.741 257.32 230.462 258.193C232.185 259.068 232.873 261.175 231.999 262.898L228.878 261.314L231.997 262.902L231.991 262.914C231.988 262.919 231.984 262.925 231.981 262.931C231.975 262.944 231.968 262.958 231.96 262.973C231.944 263.004 231.924 263.039 231.902 263.079C231.857 263.159 231.799 263.258 231.728 263.373C231.586 263.602 231.39 263.898 231.131 264.237C230.613 264.914 229.838 265.773 228.754 266.62C226.54 268.348 223.174 269.908 218.411 269.908C213.735 269.908 210.406 268.402 208.191 266.713C205.966 268.531 202.553 269.908 197.476 269.908C192.206 269.908 188.727 268.427 186.511 266.507C185.43 265.57 184.732 264.599 184.293 263.806C184.074 263.412 183.921 263.062 183.814 262.783C183.761 262.644 183.718 262.521 183.686 262.419C183.67 262.368 183.657 262.322 183.645 262.281C183.64 262.261 183.634 262.242 183.63 262.224C183.627 262.216 183.625 262.206 183.623 262.198C183.622 262.194 183.621 262.19 183.62 262.186C183.619 262.184 183.619 262.181 183.619 262.18C183.625 262.176 183.769 262.137 187.01 261.314L183.617 262.175C183.142 260.301 184.276 258.397 186.149 257.922ZM190.4 260.449C190.4 260.448 190.4 260.444 190.399 260.442C190.398 260.439 190.397 260.436 190.396 260.432C190.394 260.426 190.393 260.418 190.391 260.412C190.388 260.399 190.385 260.387 190.382 260.377C190.376 260.355 190.37 260.338 190.366 260.324C190.365 260.322 190.364 260.32 190.363 260.318C190.376 260.361 190.389 260.405 190.4 260.449Z" fill="black"/>
<path d="M201.881 254.537C206.932 257.445 208.386 257.407 212.786 254.537C218.334 250.919 211.638 248.606 207.62 248.606C203.603 248.606 196.83 251.629 201.881 254.537Z" fill="black"/>
</svg>
