<svg width="420" height="420" viewBox="0 0 420 420" fill="none" xmlns="http://www.w3.org/2000/svg">
<path d="M240.284 96.8392C218.684 84.0392 187.951 91.5058 175.284 96.8392C155.784 58.3392 63.2839 13.8391 15.7836 100.339C-23.2976 186.401 36.2837 237.339 73.284 237.339C70.784 246.672 65.184 268.539 62.784 281.339C59.784 297.339 49.784 372.839 210.784 374.839C339.584 376.439 364.784 309.839 357.284 281.339L344.284 240.839C350.951 242.506 369.784 239.639 391.784 214.839C426.284 178.839 432.95 100.339 371.284 62.8393C297.284 17.8392 253.784 74.8392 240.284 96.8392Z" fill="white" stroke="#A5A5A5" stroke-width="4" stroke-linecap="round" stroke-linejoin="round" stroke-dasharray="8 8"/>
<path d="M52.8083 99.1875C65.5945 84.1941 114.381 65.4891 144.291 94.9622C187.364 137.407 165.151 186.317 153.704 198.212L153.712 198.22C153.645 198.285 153.575 198.349 153.506 198.415C153.439 198.483 153.374 198.553 153.308 198.618L153.3 198.61C141.228 209.89 91.5939 231.779 48.5204 189.334C18.6106 159.861 37.5927 111.787 52.8083 99.1875Z" fill="#FDF7D6"/>
<path d="M367.759 99.3342C382.864 112.027 401.707 160.457 372.016 190.149C329.257 232.908 279.985 210.857 268.001 199.494L267.993 199.501C267.927 199.435 267.863 199.366 267.797 199.297C267.728 199.23 267.658 199.166 267.592 199.1L267.6 199.092C256.237 187.109 234.186 137.837 276.945 95.0776C306.636 65.3862 355.066 84.2297 367.759 99.3342Z" fill="#FDF7D6"/>
<path d="M78.62 123.706C86.8331 114.377 118.17 102.738 137.382 121.077C165.05 147.487 150.782 177.92 143.429 185.321L143.434 185.326C143.391 185.367 143.346 185.406 143.302 185.447C143.259 185.49 143.217 185.533 143.174 185.574L143.169 185.569C135.415 192.587 103.533 206.207 75.8657 179.797C56.6536 161.458 68.8465 131.546 78.62 123.706Z" fill="#FFD0A4"/>
<path d="M350.801 120.706C342.588 111.377 311.251 99.7379 292.038 118.077C264.371 144.487 278.639 174.92 285.992 182.321L285.987 182.326C286.03 182.367 286.075 182.406 286.119 182.447C286.162 182.49 286.204 182.533 286.246 182.574L286.251 182.569C294.006 189.587 325.888 203.207 353.555 176.797C372.767 158.458 360.574 128.546 350.801 120.706Z" fill="#FFD0A4"/>
<path d="M357.58 198.985C374.5 189.216 381.799 172.261 383.446 155.409C385.108 138.393 380.919 122.327 375.874 115.11C375.758 114.945 375.657 114.77 375.571 114.587C371.844 106.609 360.025 94.9479 344.458 87.88C329.04 80.8801 310.708 78.7238 293.787 88.4928L292.728 89.112C270.686 102.185 260.277 119.421 256.067 135.642C255.582 137.513 253.671 138.636 251.8 138.151C249.929 137.665 248.806 135.754 249.292 133.883C253.944 115.955 265.457 97.1516 289.15 83.0961L290.287 82.4306C309.767 71.1838 330.607 73.9032 347.352 81.5058C363.794 88.9711 377.033 101.477 381.781 111.35C387.958 120.398 392.169 138.117 390.413 156.09C388.624 174.392 380.559 193.8 361.08 205.047C336.616 219.171 314.158 219.836 296.022 214.823C294.159 214.308 293.066 212.38 293.581 210.517C294.096 208.654 296.024 207.561 297.887 208.076C314.296 212.612 334.811 212.13 357.58 198.985Z" fill="black"/>
<path d="M63.6714 198.985C46.7511 189.216 39.4521 172.261 37.8054 155.409C36.1429 138.393 40.332 122.327 45.3774 115.11C45.4931 114.945 45.5941 114.77 45.6796 114.587C49.4067 106.609 61.2261 94.9479 76.7932 87.88C92.2106 80.8801 110.543 78.7238 127.464 88.4928L128.523 89.112C150.565 102.185 160.974 119.421 165.184 135.642C165.669 137.513 167.58 138.636 169.451 138.151C171.322 137.665 172.445 135.754 171.959 133.883C167.307 115.955 155.794 97.1516 132.101 83.0961L130.964 82.4306C111.484 71.1838 90.6441 73.9032 73.8993 81.5058C57.4568 88.9711 44.2177 101.477 39.47 111.35C33.2931 120.398 29.0821 138.117 30.8382 156.09C32.6267 174.392 40.6915 193.8 60.1714 205.047C84.6351 219.171 107.093 219.836 125.229 214.823C127.092 214.308 128.185 212.38 127.67 210.517C127.155 208.654 125.227 207.561 123.364 208.076C106.955 212.612 86.4398 212.13 63.6714 198.985Z" fill="black"/>
<path d="M213.115 121.385C307.301 121.6 322.843 197.075 323.1 250.383C323.153 261.368 332.6 276.883 327.71 297.383C319.023 333.809 246.173 349.484 212.913 348.388C179.652 349.484 106.803 333.809 98.1148 297.383C93.2255 276.883 102.673 261.368 102.726 250.383C102.983 197.075 118.525 121.6 212.71 121.385V121.383C212.778 121.383 212.845 121.384 212.913 121.384C212.98 121.384 213.047 121.383 213.115 121.383V121.385Z" fill="#FDF7D6"/>
<path d="M166.71 343.383C167.11 282.583 123.877 261.383 102.21 258.383C97.2102 266.05 94.8183 291.883 98.7102 299.883C107.71 318.383 118.71 328.383 166.71 343.383Z" fill="#FFD5CA"/>
<path d="M258.778 343.383C258.378 282.583 301.611 261.383 323.278 258.383C328.278 266.05 330.67 291.883 326.778 299.883C317.778 318.383 306.778 328.383 258.778 343.383Z" fill="#FFD5CA"/>
<path d="M316.788 197.984C318.666 197.523 320.561 198.673 321.021 200.55C325.183 217.526 326.526 234.916 326.601 250.366C326.612 252.671 327.122 255.359 327.93 258.642C328.695 261.753 329.794 265.635 330.674 269.547C332.489 277.62 333.734 287.216 331.115 298.195C327.626 312.824 315.015 323.911 299.741 331.997C284.371 340.134 265.574 345.63 248.315 348.755C241.497 350.247 229.664 351.289 216.76 351.455C203.786 351.623 189.424 350.909 177.588 348.77C160.308 345.647 141.478 340.147 126.084 331.997C110.81 323.911 98.1993 312.824 94.71 298.195C92.0917 287.216 93.3371 277.62 95.1524 269.547C96.0319 265.635 97.1311 261.753 97.8965 258.642C98.704 255.359 99.2144 252.671 99.2256 250.366C99.3002 234.916 100.643 217.526 104.805 200.55C105.265 198.673 107.16 197.523 109.037 197.984C110.914 198.444 112.063 200.339 111.604 202.216C107.614 218.49 106.299 235.296 106.226 250.4C106.21 253.587 105.519 256.958 104.693 260.315C103.825 263.843 102.859 267.18 101.981 271.082C100.282 278.638 99.2487 287.05 101.52 296.572C104.302 308.238 114.682 318.041 129.359 325.811C143.917 333.517 161.999 338.84 178.833 341.882C190.066 343.912 203.941 344.62 216.669 344.456C229.434 344.292 240.742 343.254 246.863 341.907C246.906 341.898 246.95 341.89 246.993 341.882C263.827 338.84 281.909 333.517 296.466 325.811C311.143 318.041 321.523 308.238 324.306 296.572C326.577 287.05 325.543 278.638 323.844 271.082C322.966 267.18 322 263.843 321.132 260.315C320.306 256.958 319.616 253.587 319.601 250.4C319.528 235.296 318.212 218.49 314.223 202.216C313.763 200.339 314.911 198.444 316.788 197.984ZM213.209 117.886C248.592 117.984 273.495 128.513 290.751 144.841C292.155 146.17 292.216 148.384 290.888 149.788C289.559 151.192 287.344 151.254 285.939 149.925C270.172 135.006 247.058 124.963 213.106 124.885C213.087 124.885 213.067 124.883 213.047 124.883C212.988 124.883 213.134 124.884 212.917 124.884H212.909C212.691 124.884 212.838 124.883 212.778 124.883C212.759 124.883 212.739 124.885 212.719 124.885C178.767 124.963 155.653 135.006 139.886 149.925C138.482 151.254 136.266 151.192 134.938 149.788C133.609 148.384 133.671 146.169 135.075 144.841C152.331 128.513 177.233 117.984 212.615 117.886C212.647 117.885 212.679 117.883 212.711 117.883C212.758 117.883 212.803 117.884 212.836 117.884H212.989C213.022 117.884 213.068 117.883 213.115 117.883C213.147 117.883 213.178 117.885 213.209 117.886Z" fill="black"/>
<path d="M90.4232 280.252C92.3432 280.033 94.4492 280.019 96.4935 280.112C100.583 280.296 104.763 280.925 107.397 281.452C109.292 281.831 110.521 283.674 110.142 285.57C109.763 287.465 107.919 288.694 106.024 288.315C103.657 287.841 99.8372 287.27 96.1771 287.105C94.3465 287.022 92.6398 287.045 91.2161 287.207C89.7158 287.378 88.8702 287.669 88.5111 287.884C86.8536 288.879 84.7039 288.341 83.7093 286.684C82.7148 285.026 83.2521 282.877 84.9095 281.882C86.5504 280.898 88.5799 280.462 90.4232 280.252Z" fill="black"/>
<path d="M115.149 308.048C116.991 307.462 118.959 308.48 119.546 310.321C120.132 312.163 119.114 314.132 117.272 314.718C115.667 315.229 112.959 316.326 110.312 317.886C107.6 319.484 105.347 321.338 104.191 323.217C103.178 324.863 101.023 325.376 99.3766 324.363C97.7304 323.35 97.2171 321.195 98.2301 319.549C100.274 316.228 103.687 313.666 106.758 311.856C109.895 310.007 113.088 308.704 115.149 308.048Z" fill="black"/>
<path d="M334.498 280.252C332.578 280.033 330.472 280.019 328.427 280.112C324.338 280.296 320.157 280.925 317.524 281.452C315.629 281.831 314.4 283.674 314.779 285.57C315.158 287.465 317.002 288.694 318.897 288.315C321.264 287.841 325.084 287.27 328.744 287.105C330.574 287.022 332.281 287.045 333.705 287.207C335.205 287.378 336.051 287.669 336.41 287.884C338.067 288.879 340.217 288.341 341.212 286.684C342.206 285.026 341.669 282.877 340.011 281.882C338.37 280.898 336.341 280.462 334.498 280.252Z" fill="black"/>
<path d="M309.772 308.048C307.93 307.462 305.962 308.48 305.375 310.321C304.789 312.163 305.807 314.132 307.649 314.718C309.254 315.229 311.962 316.326 314.609 317.886C317.321 319.484 319.574 321.338 320.73 323.217C321.743 324.863 323.898 325.376 325.544 324.363C327.191 323.35 327.704 321.195 326.691 319.549C324.647 316.228 321.234 313.666 318.162 311.856C315.026 310.007 311.833 308.704 309.772 308.048Z" fill="black"/>
<path d="M178.271 270.383C178.271 276.458 173.669 281.383 167.991 281.383C162.313 281.383 157.71 276.458 157.71 270.383C157.71 264.308 162.313 259.383 167.991 259.383C173.669 259.383 178.271 264.308 178.271 270.383Z" fill="black"/>
<path d="M267.711 270.383C267.711 276.458 263.108 281.383 257.43 281.383C251.753 281.383 247.15 276.458 247.15 270.383C247.15 264.308 251.753 259.383 257.43 259.383C263.108 259.383 267.711 264.308 267.711 270.383Z" fill="black"/>
<path d="M191.793 280.493C193.609 280.027 195.457 281.074 196.006 282.846C196.013 282.864 196.031 282.9 196.059 282.951C196.144 283.103 196.338 283.395 196.721 283.723C197.436 284.334 199.182 285.383 203.073 285.383C206.963 285.383 208.709 284.334 209.423 283.723C209.807 283.395 210 283.103 210.086 282.951C210.12 282.889 210.138 282.849 210.143 282.837C210.556 281.519 211.708 280.56 213.091 280.404C214.53 280.243 215.919 280.985 216.587 282.269C216.584 282.264 216.583 282.26 216.581 282.256C216.577 282.248 216.573 282.241 216.57 282.236C216.564 282.224 216.56 282.217 216.558 282.214C216.56 282.218 216.565 282.227 216.574 282.24C216.603 282.287 216.667 282.385 216.771 282.52C216.98 282.789 217.341 283.193 217.882 283.611C218.922 284.412 220.78 285.383 223.89 285.383C227 285.383 228.858 284.412 229.898 283.611C230.44 283.193 230.8 282.789 231.009 282.52C231.114 282.385 231.178 282.287 231.207 282.24C231.221 282.218 231.226 282.209 231.223 282.214C231.222 282.217 231.217 282.224 231.211 282.236C231.208 282.241 231.204 282.248 231.2 282.256C231.198 282.26 231.196 282.264 231.194 282.269C232.082 280.56 234.185 279.889 235.899 280.77C237.618 281.653 238.295 283.763 237.412 285.483L234.299 283.883C237.261 285.405 237.404 285.481 237.41 285.487C237.41 285.487 237.409 285.489 237.408 285.49C237.406 285.493 237.405 285.496 237.404 285.499C237.401 285.505 237.397 285.511 237.394 285.517C237.388 285.529 237.38 285.544 237.372 285.559C237.355 285.589 237.337 285.625 237.314 285.664C237.269 285.744 237.211 285.842 237.14 285.955C236.998 286.182 236.801 286.475 236.542 286.809C236.024 287.477 235.251 288.323 234.171 289.155C231.966 290.854 228.619 292.383 223.89 292.383C219.244 292.383 215.933 290.905 213.727 289.242C211.51 291.032 208.117 292.383 203.073 292.383C197.84 292.383 194.381 290.932 192.172 289.043C191.093 288.121 190.396 287.163 189.955 286.377C189.735 285.986 189.581 285.64 189.473 285.362C189.42 285.224 189.377 285.101 189.344 284.999C189.328 284.948 189.315 284.902 189.303 284.862C189.298 284.841 189.292 284.822 189.287 284.804C189.284 284.795 189.282 284.786 189.28 284.778C189.279 284.774 189.278 284.77 189.277 284.766C189.276 284.764 189.275 284.761 189.275 284.76C189.274 284.757 189.297 284.748 192.664 283.883L189.274 284.754C188.793 282.882 189.921 280.974 191.793 280.493ZM196.051 283.007C196.051 283.006 196.051 283.002 196.05 283C196.05 282.997 196.048 282.993 196.048 282.989C196.046 282.983 196.044 282.976 196.043 282.97C196.039 282.957 196.035 282.945 196.032 282.934L196.051 283.007ZM210.13 282.879C210.125 282.894 210.119 282.912 210.113 282.934C210.11 282.945 210.107 282.957 210.103 282.97C210.101 282.976 210.099 282.983 210.097 282.989C210.096 282.993 210.095 282.997 210.094 283C210.094 283.002 210.094 283.004 210.093 283.005C210.108 282.949 210.126 282.893 210.143 282.838C210.141 282.845 210.136 282.858 210.13 282.879Z" fill="black"/>
<path d="M207.488 277.242C212.478 280.115 213.914 280.078 218.262 277.242C223.743 273.668 217.128 271.383 213.158 271.383C209.189 271.383 202.498 274.369 207.488 277.242Z" fill="black"/>
</svg>
