<svg width="404" height="400" viewBox="0 0 404 400" fill="none" xmlns="http://www.w3.org/2000/svg">
<path d="M44.0286 97.4075C56.8147 82.414 105.601 63.7091 135.511 93.1821C178.584 135.627 156.371 184.537 144.924 196.432L144.932 196.44C144.866 196.505 144.795 196.569 144.726 196.635C144.659 196.703 144.595 196.773 144.528 196.838L144.52 196.83C132.448 208.11 82.8141 229.999 39.7406 187.554C9.83086 158.081 28.813 110.007 44.0286 97.4075Z" fill="#FDF7D6"/>
<path d="M358.979 97.5542C374.084 110.247 392.928 158.677 363.236 188.369C320.477 231.128 271.205 209.077 259.221 197.713L259.214 197.721C259.148 197.655 259.084 197.586 259.017 197.517C258.948 197.45 258.878 197.386 258.812 197.32L258.82 197.312C247.457 185.329 225.406 136.057 268.165 93.2975C297.856 63.6061 346.287 82.4497 358.979 97.5542Z" fill="#FDF7D6"/>
<path d="M69.8403 121.926C78.0533 112.597 109.391 100.958 128.603 119.297C156.27 145.707 142.002 176.14 134.649 183.541L134.654 183.546C134.612 183.587 134.566 183.626 134.522 183.667C134.479 183.71 134.437 183.753 134.395 183.794L134.39 183.789C126.636 190.807 94.7536 204.427 67.0859 178.017C47.8739 159.678 60.0667 129.766 69.8403 121.926Z" fill="#FFD0A4"/>
<path d="M342.021 118.926C333.808 109.597 302.471 97.9579 283.259 116.297C255.591 142.707 269.86 173.14 277.212 180.541L277.207 180.546C277.25 180.587 277.295 180.626 277.339 180.667C277.383 180.71 277.424 180.753 277.467 180.794L277.472 180.789C285.226 187.807 317.108 201.427 344.775 175.017C363.987 156.678 351.795 126.766 342.021 118.926Z" fill="#FFD0A4"/>
<path d="M243.899 132.983C248.401 115.637 259.641 97.3163 283.257 83.6815C319.658 62.6657 361.603 93.4324 369.962 111.325C381.278 127.511 386.95 179.219 350.55 200.235C326.934 213.87 305.447 214.444 288.174 209.67" stroke="#474847" stroke-width="7" stroke-linecap="round" stroke-linejoin="round"/>
<path d="M159.793 132.983C155.291 115.637 144.051 97.3163 120.434 83.6815C84.0338 62.6657 42.0893 93.4324 33.73 111.325C22.414 127.511 16.7416 179.219 53.1421 200.235C76.7583 213.87 98.2447 214.444 115.517 209.67" stroke="#474847" stroke-width="7" stroke-linecap="round" stroke-linejoin="round"/>
<path d="M204.334 119.605C298.521 119.82 314.062 195.295 314.32 248.603C314.373 259.588 323.82 275.103 318.931 295.603C310.243 332.029 237.393 347.704 204.132 346.608C170.872 347.704 98.0221 332.029 89.3345 295.603C84.4452 275.103 93.8928 259.588 93.9458 248.603C94.2031 195.295 109.745 119.82 203.931 119.605V119.603C203.998 119.603 204.065 119.604 204.132 119.604C204.2 119.604 204.267 119.603 204.334 119.603V119.605Z" fill="#FDF7D6"/>
<path d="M157.93 341.603C158.33 280.803 115.097 259.603 93.4304 256.603C88.4304 264.27 86.0385 290.103 89.9304 298.103C98.9304 316.603 109.93 326.603 157.93 341.603Z" fill="#FFD5CA"/>
<path d="M249.998 341.603C249.598 280.803 292.832 259.603 314.498 256.603C319.498 264.27 321.89 290.103 317.998 298.103C308.998 316.603 297.998 326.603 249.998 341.603Z" fill="#FFD5CA"/>
<path d="M128.701 145.603C145.219 129.973 169.241 119.684 203.931 119.605V119.603C203.998 119.603 204.066 119.604 204.133 119.604C204.2 119.604 204.268 119.603 204.335 119.603V119.605C239.025 119.684 263.047 129.973 279.565 145.603M99.424 199.603C95.3483 216.228 94.0192 233.326 93.9455 248.603C93.8924 259.588 84.4458 275.103 89.3351 295.603C95.6069 321.899 135.316 337.381 169.431 343.546C192.5 347.715 225.904 346.39 238.835 343.546C272.95 337.381 312.659 321.899 318.931 295.603C323.82 275.103 314.373 259.588 314.32 248.603C314.247 233.326 312.918 216.228 308.842 199.603" stroke="#474847" stroke-width="7" stroke-linecap="round" stroke-linejoin="round"/>
<path d="M97.9307 283.103C92.9307 282.103 81.9307 280.703 77.9307 283.103" stroke="#474847" stroke-width="7" stroke-linecap="round" stroke-linejoin="round"/>
<path d="M107.431 309.603C103.764 310.77 95.6307 314.403 92.4307 319.603" stroke="#474847" stroke-width="7" stroke-linecap="round" stroke-linejoin="round"/>
<path d="M309.431 283.103C314.431 282.103 325.431 280.703 329.431 283.103" stroke="#474847" stroke-width="7" stroke-linecap="round" stroke-linejoin="round"/>
<path d="M299.931 309.603C303.597 310.77 311.731 314.403 314.931 319.603" stroke="#474847" stroke-width="7" stroke-linecap="round" stroke-linejoin="round"/>
<ellipse cx="159.211" cy="268.603" rx="10.2804" ry="11" fill="#474847"/>
<ellipse cx="248.65" cy="268.603" rx="10.2804" ry="11" fill="#474847"/>
<path d="M183.884 282.103C183.884 282.103 185.169 287.103 194.293 287.103C203.416 287.103 204.702 282.103 204.702 282.103C204.702 282.103 207.272 287.103 215.11 287.103C222.949 287.103 225.519 282.103 225.519 282.103" stroke="#474847" stroke-width="7" stroke-linecap="round" stroke-linejoin="round"/>
<path d="M198.708 275.462C203.698 278.335 205.135 278.298 209.482 275.462C214.963 271.888 208.348 269.603 204.378 269.603C200.409 269.603 193.718 272.589 198.708 275.462Z" fill="#474847"/>
</svg>
