<svg width="420" height="420" viewBox="0 0 420 420" fill="none" xmlns="http://www.w3.org/2000/svg">
<path d="M201.306 76.6525C217.015 76.6525 244.216 60.2175 255.852 52C275.052 52 279.852 86.3641 279.852 103.546C292.943 111.017 321.307 133.577 330.034 164.057C434.762 197.674 395.489 267.149 354.034 294.043C330.034 368 231.852 368 210.034 368C188.215 368 100.941 368 72.5775 303.007C-19.0593 258.184 35.4874 175.262 83.4876 164.057C94.3967 105.787 181.67 76.6525 201.306 76.6525Z" fill="white" stroke="#A5A5A5" stroke-width="4" stroke-linecap="round" stroke-linejoin="round" stroke-dasharray="8 8"/>
<path d="M56.6556 206.174C64.2107 197.315 93.0374 186.263 110.71 203.678C136.162 228.757 123.036 257.657 116.273 264.686L116.277 264.69C116.238 264.729 116.196 264.766 116.156 264.806C116.116 264.846 116.078 264.887 116.038 264.925L116.034 264.921C108.901 271.586 79.5731 284.52 54.122 259.44C36.449 242.025 47.6651 213.619 56.6556 206.174Z" fill="#FDF7D6"/>
<path d="M356.042 205.313C365.014 212.852 376.206 241.617 358.57 259.253C333.173 284.65 303.908 271.552 296.79 264.803L296.786 264.808C296.746 264.768 296.708 264.727 296.669 264.686C296.628 264.647 296.586 264.609 296.547 264.569L296.552 264.565C289.803 257.447 276.705 228.182 302.102 202.785C319.738 185.149 348.503 196.341 356.042 205.313Z" fill="#FDF7D6"/>
<path d="M348.908 216.486C355.636 222.141 364.031 243.715 350.804 256.941C331.756 275.989 309.807 266.166 304.469 261.104L304.465 261.108C304.436 261.078 304.408 261.047 304.378 261.016C304.347 260.987 304.316 260.958 304.287 260.929L304.29 260.925C299.228 255.587 289.405 233.638 308.453 214.59C321.68 201.364 343.254 209.758 348.908 216.486Z" fill="#FEFFEC"/>
<path d="M67.8046 216.486C61.076 222.141 52.6818 243.715 65.9083 256.941C84.9561 275.989 106.905 266.166 112.244 261.104L112.247 261.108C112.276 261.078 112.305 261.047 112.335 261.016C112.365 260.987 112.396 260.958 112.426 260.929L112.422 260.925C117.484 255.587 127.307 233.638 108.259 214.59C95.0329 201.364 73.4588 209.758 67.8046 216.486Z" fill="#FEFFEC"/>
<path d="M208.764 114.706C303.865 114.923 319.558 191.132 319.818 244.959C319.871 256.05 329.411 271.716 324.474 292.416C315.702 329.196 242.144 345.024 208.559 343.917C174.976 345.024 101.418 329.196 92.6452 292.416C87.7083 271.716 97.2468 256.05 97.3003 244.959C97.5602 191.132 113.253 114.923 208.355 114.706V114.704C208.423 114.704 208.491 114.705 208.559 114.705C208.627 114.705 208.695 114.704 208.764 114.704V114.706Z" fill="#FDF7D6"/>
<path d="M348.857 264.057C358.501 258.489 362.729 248.803 363.689 238.979C364.665 228.991 362.173 219.711 359.389 215.73C359.274 215.564 359.173 215.389 359.087 215.206C357.031 210.805 350.24 204.007 341.102 199.858C332.114 195.777 321.612 194.596 311.968 200.164L311.348 200.526C298.449 208.176 292.421 218.208 289.983 227.603C289.498 229.473 287.587 230.597 285.716 230.111C283.845 229.626 282.721 227.715 283.207 225.844C286.088 214.742 293.218 203.143 307.769 194.51L308.468 194.101C320.671 187.056 333.681 188.8 343.996 193.484C354.016 198.033 362.226 205.683 365.295 211.97C369.206 217.772 371.726 228.707 370.656 239.66C369.554 250.935 364.56 263.074 352.357 270.12C337.335 278.793 323.467 279.229 312.236 276.124C310.373 275.609 309.28 273.681 309.795 271.819C310.31 269.955 312.239 268.862 314.102 269.377C323.605 272.004 335.53 271.752 348.857 264.057Z" fill="black"/>
<path d="M340.408 233.975C328.847 231.307 317.613 235.043 313.263 237.312C311.55 238.206 310.885 240.32 311.779 242.034C312.673 243.747 314.788 244.412 316.501 243.518C319.893 241.749 329.392 238.618 338.833 240.796C340.717 241.231 342.596 240.056 343.031 238.172C343.465 236.289 342.291 234.41 340.408 233.975Z" fill="black"/>
<path d="M71.7608 233.975C83.3215 231.307 94.5555 235.043 98.9053 237.312C100.619 238.206 101.283 240.32 100.39 242.034C99.4955 243.747 97.3808 244.412 95.667 243.518C92.2755 241.749 82.7764 238.618 73.335 240.796C71.4515 241.231 69.5724 240.056 69.1377 238.172C68.7033 236.289 69.8774 234.41 71.7608 233.975Z" fill="black"/>
<path d="M63.6454 264.057C54.0016 258.489 49.7738 248.803 48.8138 238.979C47.8379 228.991 50.3298 219.711 53.1131 215.73C53.2288 215.564 53.3299 215.389 53.4153 215.206C55.4714 210.805 62.2623 204.007 71.4002 199.858C80.3883 195.777 90.8906 194.596 100.535 200.164L101.154 200.526C114.054 208.176 120.081 218.208 122.519 227.603C123.005 229.473 124.916 230.597 126.787 230.111C128.658 229.626 129.781 227.715 129.296 225.844C126.414 214.742 119.284 203.143 104.733 194.51L104.035 194.101C91.831 187.056 78.8219 188.8 68.5062 193.484C58.4863 198.033 50.2766 205.683 47.2074 211.97C43.2963 217.772 40.7764 228.707 41.8466 239.66C42.9484 250.935 47.942 263.074 60.1454 270.12C75.1676 278.793 89.0356 279.229 100.266 276.124C102.129 275.609 103.222 273.681 102.707 271.819C102.192 269.955 100.264 268.862 98.4006 269.377C88.8972 272.004 76.9721 271.752 63.6454 264.057Z" fill="black"/>
<path d="M208.764 114.706C303.866 114.923 319.559 191.132 319.819 244.959C319.873 256.05 329.411 271.717 324.474 292.416C315.702 329.197 242.14 345.025 208.557 343.917C174.972 345.023 101.417 329.195 92.645 292.416C87.7082 271.717 97.2476 256.05 97.3013 244.959C97.5611 191.132 113.254 114.923 208.356 114.706V114.704C208.424 114.704 208.491 114.705 208.559 114.705C208.627 114.705 208.696 114.704 208.764 114.704V114.706Z" fill="#FEFFEC"/>
<path d="M206.337 210.123C155.346 171.249 121.52 233.347 110.413 260.104C99.306 299.484 121.52 315.135 139.19 333.31C77.092 310.086 90.2184 267.677 97.2865 248.998C95.7719 231.832 101.325 107.131 206.337 113.694C215.872 114.29 226.531 113.694 247.917 93.4998C254.804 107.131 249.755 113.694 247.917 120.762C313.377 140.894 318.648 197.664 319.931 248.998C337.601 300.998 302.261 326.242 272.474 333.31C319.426 314.63 305.29 269.192 302.261 256.57C299.232 243.949 259.852 164.685 206.337 210.123Z" fill="#FDF7D6"/>
<path d="M161.909 338.863C162.313 277.472 118.659 256.066 96.7816 253.036C91.733 260.778 89.3178 286.862 93.2475 294.94C102.335 313.62 113.442 323.717 161.909 338.863Z" fill="#FFD5CA"/>
<path d="M254.872 338.863C254.468 277.472 298.122 256.066 319.999 253.036C325.048 260.778 327.463 286.862 323.533 294.94C314.446 313.62 303.339 323.717 254.872 338.863Z" fill="#FFD5CA"/>
<path d="M245.324 90.9627C246.151 90.1767 247.315 89.84 248.442 90.072C249.643 90.3196 250.628 91.1778 251.036 92.3347C252.599 96.761 254.101 102.152 254.446 107.371C254.681 110.904 254.4 114.657 253.013 118.011C281.91 127.984 299.378 147.882 309.635 170.828C320.332 194.758 323.208 222.014 323.319 244.942C323.33 247.274 323.846 249.992 324.661 253.306C325.435 256.45 326.545 260.367 327.433 264.316C329.265 272.465 330.52 282.149 327.878 293.227C324.375 307.914 311.759 319.065 296.445 327.216C281.056 335.406 262.226 340.96 244.878 344.148C216.696 351.754 184.901 347.343 172.279 344.155C154.92 340.968 136.075 335.412 120.675 327.216C105.361 319.065 92.7432 307.914 89.2404 293.227C86.5983 282.149 87.8544 272.465 89.6867 264.316C90.5748 260.367 91.6839 256.45 92.4572 253.306C93.2727 249.992 93.7897 247.274 93.801 244.942C93.9319 217.813 97.9327 184.526 114.279 157.898C130.792 131.001 159.633 111.342 208.253 111.206C208.287 111.205 208.321 111.204 208.356 111.204C208.403 111.204 208.449 111.205 208.482 111.205H208.637C208.67 111.205 208.716 111.204 208.764 111.204C208.784 111.204 208.805 111.204 208.825 111.205C211.903 111.208 216.583 110.866 222.613 108.276C228.707 105.659 236.352 100.672 245.163 91.1257L245.324 90.9627ZM246.132 100.164C238.429 107.656 231.439 112.104 225.376 114.708C218.207 117.787 212.508 118.214 208.756 118.206C208.736 118.206 208.716 118.204 208.695 118.204C208.636 118.204 208.782 118.205 208.564 118.205H208.556C208.337 118.205 208.485 118.204 208.423 118.204C208.403 118.204 208.383 118.206 208.363 118.206C161.938 118.312 135.409 136.86 120.245 161.56C104.905 186.548 100.93 218.279 100.801 244.975C100.785 248.19 100.089 251.589 99.2551 254.978C98.3791 258.539 97.4019 261.911 96.5158 265.852C94.7998 273.484 93.7555 281.983 96.05 291.603C98.849 303.339 109.251 313.205 123.963 321.036C138.102 328.561 155.571 333.849 172.054 336.993L173.646 337.29L173.878 337.342C185.783 340.371 216.465 344.609 243.188 337.355L243.474 337.29C260.418 334.188 278.56 328.804 293.155 321.036C307.868 313.205 318.27 303.339 321.07 291.603C323.364 281.983 322.319 273.484 320.603 265.852C319.717 261.911 318.74 258.539 317.864 254.978C317.031 251.589 316.334 248.19 316.319 244.975C316.21 222.479 313.371 196.339 303.244 173.685C293.174 151.156 275.92 132.09 246.731 123.341C245.588 122.998 244.698 122.096 244.37 120.949C244.043 119.802 244.322 118.566 245.112 117.672C246.985 115.548 247.751 112.21 247.461 107.834C247.297 105.349 246.802 102.732 246.132 100.164Z" fill="black"/>
<path d="M173.582 265.153C173.582 271.287 168.935 276.26 163.202 276.26C157.469 276.26 152.821 271.287 152.821 265.153C152.821 259.019 157.469 254.046 163.202 254.046C168.935 254.046 173.582 259.019 173.582 265.153Z" fill="black"/>
<path d="M263.447 265.153C263.447 271.287 258.8 276.26 253.067 276.26C247.334 276.26 242.687 271.287 242.687 265.153C242.687 259.019 247.334 254.046 253.067 254.046C258.8 254.046 263.447 259.019 263.447 265.153Z" fill="black"/>
<path d="M187.244 275.395C189.061 274.928 190.91 275.976 191.458 277.749C191.466 277.768 191.484 277.806 191.514 277.861C191.602 278.017 191.8 278.315 192.19 278.649C192.919 279.272 194.69 280.333 198.625 280.333C202.56 280.333 204.332 279.272 205.06 278.649C205.45 278.315 205.648 278.017 205.736 277.861C205.777 277.787 205.795 277.743 205.798 277.738C205.796 277.74 205.791 277.754 205.783 277.781C205.778 277.795 205.773 277.813 205.766 277.835C205.763 277.846 205.76 277.858 205.757 277.871C205.755 277.878 205.752 277.884 205.751 277.891C205.75 277.894 205.749 277.898 205.748 277.902C205.747 277.903 205.747 277.907 205.747 277.908V277.908C206.11 276.503 207.303 275.468 208.746 275.306C210.187 275.145 211.578 275.889 212.244 277.177C212.243 277.175 212.242 277.172 212.241 277.17C212.239 277.166 212.236 277.161 212.234 277.158C212.23 277.15 212.226 277.144 212.223 277.138C212.217 277.127 212.213 277.119 212.212 277.117C212.208 277.111 212.215 277.12 212.229 277.144C212.259 277.191 212.324 277.292 212.43 277.429C212.643 277.703 213.009 278.113 213.558 278.536C214.614 279.35 216.497 280.333 219.645 280.333C222.793 280.333 224.676 279.35 225.732 278.536C226.281 278.113 226.647 277.703 226.86 277.429C226.966 277.292 227.032 277.191 227.062 277.144C227.077 277.121 227.082 277.111 227.079 277.117C227.077 277.119 227.073 277.127 227.067 277.138C227.064 277.144 227.06 277.15 227.056 277.158C227.054 277.161 227.052 277.166 227.049 277.17C227.048 277.172 227.048 277.175 227.047 277.177C227.932 275.463 230.039 274.789 231.756 275.671C233.475 276.555 234.152 278.665 233.268 280.384L230.155 278.784C233.152 280.325 233.263 280.384 233.266 280.388C233.266 280.389 233.265 280.391 233.264 280.392C233.263 280.395 233.261 280.398 233.259 280.401C233.257 280.406 233.254 280.412 233.251 280.418C233.244 280.431 233.236 280.445 233.228 280.46C233.212 280.491 233.192 280.526 233.17 280.566C233.124 280.645 233.066 280.744 232.995 280.859C232.852 281.087 232.653 281.382 232.392 281.718C231.871 282.39 231.093 283.243 230.005 284.081C227.784 285.792 224.412 287.333 219.645 287.333C214.946 287.333 211.604 285.834 209.382 284.153C207.151 285.962 203.728 287.333 198.625 287.333C193.347 287.333 189.864 285.87 187.64 283.969C186.555 283.041 185.852 282.077 185.409 281.286C185.188 280.893 185.032 280.544 184.924 280.266C184.871 280.127 184.829 280.004 184.797 279.902C184.78 279.851 184.766 279.804 184.755 279.763C184.749 279.743 184.743 279.723 184.738 279.705C184.736 279.696 184.733 279.687 184.731 279.679C184.73 279.675 184.729 279.671 184.728 279.667C184.728 279.665 184.726 279.662 184.726 279.661C184.726 279.659 184.748 279.65 188.115 278.784L184.725 279.656C184.244 277.783 185.372 275.876 187.244 275.395ZM191.503 277.908C191.502 277.908 191.502 277.903 191.502 277.902C191.501 277.898 191.5 277.894 191.499 277.891C191.497 277.884 191.496 277.878 191.494 277.871C191.49 277.858 191.487 277.846 191.484 277.835C191.478 277.813 191.472 277.795 191.467 277.781C191.466 277.777 191.465 277.775 191.465 277.772C191.478 277.817 191.491 277.862 191.503 277.908Z" fill="black"/>
<path d="M203.083 272.079C208.121 274.98 209.572 274.942 213.962 272.079C219.496 268.47 212.816 266.163 208.809 266.163C204.801 266.163 198.045 269.178 203.083 272.079Z" fill="black"/>
</svg>
