<svg width="327" height="314" viewBox="0 0 327 314" fill="none" xmlns="http://www.w3.org/2000/svg">
<path d="M20.5407 26.3985C48.9407 -12.0015 89.374 10.3985 106.041 26.3985C142.041 6.39857 191.04 1.8984 229.04 26.3985C256.04 -20.6015 303.54 9.39846 318.04 40.3985C332.54 71.3985 322.04 107.399 303.54 116.399C313.141 131.599 304.874 163.732 303.54 177.898C307.04 181.065 311.641 185.498 318.04 195.898C326.04 208.898 314.041 222.898 314.041 232.898C314.041 242.898 318.041 272.898 283.541 278.398C186.541 342.398 84.5405 296.898 47.0405 278.398C11.0405 266.898 16.0405 252.898 16.0405 243.398C16.0405 233.898 8.54049 222.898 4.54049 212.898C0.540488 202.898 7.54046 195.898 20.5407 177.898C20.5407 155.398 24.5405 135.898 30.0405 116.399C7.04053 113.899 -14.9593 74.3985 20.5407 26.3985Z" fill="white" stroke="#A5A5A5" stroke-width="4" stroke-linecap="round" stroke-linejoin="round" stroke-dasharray="8 8"/>
<path d="M291.057 42.5561C298.342 49.0801 309.284 69.9415 295.303 91.4501C275.407 109.195 248.717 99.8779 242.937 94.0373L242.933 94.0414C242.901 94.0074 242.87 93.9715 242.838 93.9363C242.805 93.9019 242.771 93.8691 242.739 93.8352L242.743 93.8312C237.262 87.6717 226.625 62.3461 247.251 40.3682C260.372 26.3864 284.934 34.7924 291.057 42.5561Z" fill="#FDF7D6"/>
<path d="M39.767 43.0293C27.5191 53.2721 21.6338 77.0975 36.6603 93.0632C54.9427 109.195 84.1886 102.997 90.2534 96.8866L90.2574 96.8908C90.2908 96.8553 90.3231 96.8178 90.3569 96.7808C90.3916 96.7449 90.427 96.7106 90.4604 96.6751L90.4564 96.6709C96.2071 90.2271 108.846 66.0215 87.2058 43.0293C72.1793 27.0637 49.0278 32.8389 39.767 43.0293Z" fill="#FDF7D6"/>
<path d="M44.8929 94.3413C36.7196 89.6223 33.1117 81.4054 32.2905 73.0014C31.4533 64.4336 33.6027 56.5248 35.9288 53.1976C36.0445 53.0322 36.1456 52.857 36.2311 52.6741C37.9494 48.9961 43.724 43.1803 51.5625 39.6214C59.2513 36.1305 68.1712 35.1465 76.3446 39.8654L77.397 40.4899C88.0893 47.0026 93.1022 55.4327 95.1493 63.3202C95.6348 65.1912 97.5457 66.3147 99.4168 65.8291C101.287 65.3434 102.411 63.4333 101.925 61.5625C99.402 51.84 93.1577 41.6962 80.4542 34.1597L79.8447 33.8033C69.1116 27.6066 57.6852 29.1549 48.6689 33.2485C39.946 37.2089 32.752 43.8765 30.0231 49.4384C26.5705 54.5825 24.3929 64.1469 25.3246 73.6819C26.2875 83.537 30.6599 94.2067 41.3929 100.403C54.5068 107.975 66.6383 108.365 76.4735 105.646C78.3363 105.131 79.429 103.203 78.9143 101.34C78.3993 99.4772 76.4709 98.3841 74.6077 98.8991C66.5 101.14 56.3113 100.934 44.8929 94.3413Z" fill="black"/>
<path d="M287.681 93.1154C295.014 88.881 298.148 81.1047 298.644 72.8456C299.148 64.4759 296.864 56.5907 294.511 53.1774C294.406 53.0238 294.312 52.8613 294.232 52.6928C292.452 48.9488 286.765 43.0287 279.265 39.2795C271.864 35.5799 263.563 34.4054 256.229 38.6396L255.271 39.2085C245.551 45.1544 241.149 53.146 239.489 60.7852C239.078 62.674 237.214 63.8731 235.325 63.4629C233.436 63.0524 232.238 61.188 232.648 59.2991C234.708 49.819 240.295 39.9656 252.158 32.9113L252.729 32.5774C262.847 26.7361 273.802 28.7231 282.395 33.0185C290.759 37.1999 297.716 43.9647 300.429 49.4372C303.812 54.5229 306.193 63.9306 305.631 73.2658C305.055 82.8551 301.298 93.336 291.181 99.1776C278.926 106.253 267.385 106.21 257.999 103.207C256.158 102.618 255.142 100.648 255.731 98.8067C256.32 96.9658 258.291 95.951 260.132 96.54C267.818 98.9988 277.29 99.1143 287.681 93.1154Z" fill="black"/>
<path d="M120.007 190.39C120.007 196.923 115.192 202.22 109.252 202.22C103.313 202.22 98.498 196.923 98.498 190.39C98.498 183.857 103.313 178.56 109.252 178.56C115.192 178.56 120.007 183.857 120.007 190.39Z" fill="black"/>
<path d="M232.927 190.39C232.927 196.923 228.112 202.22 222.173 202.22C216.233 202.22 211.418 196.923 211.418 190.39C211.418 183.857 216.233 178.56 222.173 178.56C228.112 178.56 232.927 183.857 232.927 190.39Z" fill="black"/>
<path d="M164.676 38.7539V38.756C131.51 38.8317 107.411 47.5852 89.9882 61.338C79.708 68.145 68.2171 85.6829 63.7567 93.601C50.1115 119.829 46.5209 151.169 46.3938 177.485C46.3677 182.899 44.22 189.335 42.4068 196.843C41.555 200.369 32.309 204.131 31.8595 208.135C31.1776 214.206 39.7191 220.833 41.4357 228.03C42.608 232.945 38.3112 241.016 41.4357 245.237C44.21 248.985 54.2224 248.956 58.2077 252.169C75.4324 266.056 102.527 275.005 127.036 279.492C139.155 281.948 171.266 285.387 202.751 279.492C227.26 275.005 254.355 266.056 271.579 252.169C274.292 249.981 285.364 247.672 287.539 245.237C292.156 240.068 286.847 234.339 288.351 228.03C290.068 220.833 297.669 214.206 296.988 208.135C296.538 204.131 288.232 200.369 287.38 196.843C285.567 189.335 283.419 182.899 283.393 177.485C283.266 151.169 279.675 119.829 266.03 93.601C261.591 83.7767 246.693 67.9989 239.799 61.338C222.376 47.5852 198.277 38.8318 165.111 38.756V38.7539C165.038 38.7539 164.965 38.7549 164.893 38.755C164.82 38.7549 164.748 38.7539 164.676 38.7539Z" fill="#FDF7D6"/>
<path d="M117.856 277.5C118.286 212.114 71.7911 189.315 48.49 186.088C45.5783 190.553 42.0374 199.531 31.8209 207.597C30.6675 215.996 40.1184 222.472 42.0374 226.417C44.4344 231.344 38.5569 239.738 42.0374 244.162C45.1637 248.135 50.2117 248.987 56.0181 252.228C69.8506 259.948 89.8944 270.51 117.856 277.5Z" fill="#FFD5CA"/>
<path d="M212.4 277.5C211.969 212.114 258.464 189.315 281.765 186.088C284.677 190.553 288.218 199.531 298.435 207.597C299.588 215.996 290.137 222.472 288.218 226.417C285.821 231.344 291.699 239.738 288.218 244.162C285.092 248.135 280.044 248.987 274.237 252.228C260.405 259.948 240.361 270.51 212.4 277.5Z" fill="#FFD5CA"/>
<path d="M147.43 40.9042C160.765 37.0328 170.91 39.2911 174.316 40.9042C174.68 44.8816 175.012 49.4388 175.272 54.3241C184.819 53.9773 197.652 55.5744 197.686 64.0019C197.719 72.3534 185.241 73.4878 175.804 72.7955C175.812 75.9336 175.776 79.0822 175.683 82.1898C184.237 82.5278 193.289 84.788 193.318 91.8645C193.348 99.4008 183.189 101.061 174.271 100.805C172.485 113.933 168.924 123.534 162.486 123.713C155.966 123.894 152.013 114.169 149.728 100.772C140.621 101.157 129.812 99.638 129.843 91.8645C129.871 84.74 139.047 82.4977 147.652 82.1834C147.446 79.1049 147.29 75.9856 147.18 72.8753C137.929 73.3748 126.518 71.9887 126.55 64.0019C126.582 56.1401 137.752 54.2217 147.003 54.281C147.073 49.419 147.225 44.8783 147.43 40.9042Z" fill="#978752"/>
<path d="M84.5172 195.767C87.5285 188.884 59.9614 185.013 45.8015 183.938L42.5752 193.616C55.3012 197.201 81.506 202.65 84.5172 195.767Z" fill="#978752"/>
<path d="M81.7666 222.061C82.329 214.57 55.0351 220.044 41.3178 223.718L41.4782 233.919C54.6733 233.088 81.2042 229.553 81.7666 222.061Z" fill="#978752"/>
<path d="M244.985 195.767C241.974 188.884 269.541 185.013 283.701 183.938L286.927 193.616C274.201 197.201 247.996 202.65 244.985 195.767Z" fill="#978752"/>
<path d="M247.736 222.061C247.173 214.57 274.467 220.044 288.185 223.718L288.024 233.919C274.829 233.088 248.298 229.553 247.736 222.061Z" fill="#978752"/>
<path d="M264.415 90.4961C266.129 89.604 268.243 90.2707 269.135 91.9854C283.158 118.939 286.765 150.933 286.893 177.468C286.904 179.762 287.37 182.408 288.122 185.569C288.494 187.136 288.924 188.774 289.382 190.525C289.838 192.264 290.32 194.106 290.783 196.021C290.756 195.911 290.829 196.228 291.661 197.064C292.425 197.834 293.396 198.629 294.587 199.63C295.691 200.558 296.991 201.669 298.043 202.863C299.053 204.01 300.232 205.666 300.465 207.744C300.725 210.054 300.176 212.22 299.411 214.107C298.65 215.984 297.576 217.819 296.554 219.488C294.361 223.07 292.451 225.929 291.756 228.842C291.232 231.04 291.879 232.978 292.547 236.388C293.161 239.516 293.604 243.702 290.149 247.569C289.025 248.827 287.232 249.682 285.886 250.258C284.363 250.91 282.572 251.534 280.893 252.107C279.159 252.7 277.545 253.24 276.174 253.77C274.689 254.344 273.976 254.733 273.776 254.894C255.891 269.313 228.145 278.393 203.445 282.922C194.742 284.91 179.41 286.004 164.484 286.077C149.672 286.15 134.546 285.223 126.253 282.905C101.575 278.371 73.8745 269.296 56.0113 254.894C55.5145 254.493 54.6257 254.051 53.2018 253.582C51.8008 253.121 50.2487 252.745 48.4947 252.293C46.8305 251.864 44.9748 251.364 43.3307 250.685C41.7342 250.025 39.8821 249.021 38.6227 247.319C37.2757 245.5 36.8553 243.428 36.7848 241.594C36.7151 239.782 36.9792 237.922 37.2535 236.308C37.5514 234.555 37.8411 233.182 38.0182 231.765C38.1916 230.377 38.1763 229.452 38.0309 228.842C37.361 226.034 35.3124 223.228 32.858 219.635C31.7248 217.976 30.5151 216.139 29.6481 214.258C28.7779 212.37 28.1119 210.145 28.3815 207.744L28.44 207.338C28.7962 205.339 30.0511 203.784 31.067 202.738C32.2188 201.553 33.6469 200.45 34.8639 199.524C36.175 198.527 37.2544 197.725 38.0973 196.952C39.0408 196.087 39.0573 195.802 39.0045 196.021C39.4669 194.106 39.9494 192.264 40.4049 190.525C40.8636 188.774 41.2931 187.136 41.6656 185.569C42.4174 182.408 42.8831 179.762 42.8941 177.468C43.0223 150.933 46.6296 118.939 60.652 91.9854C61.5441 90.2709 63.657 89.6043 65.3717 90.4961C67.0865 91.3882 67.754 93.502 66.8619 95.2168C53.5941 120.72 50.0201 151.405 49.8941 177.502C49.8791 180.622 49.2571 183.901 48.4752 187.188C48.081 188.846 47.632 190.563 47.1773 192.299C46.7194 194.047 46.2533 195.825 45.8092 197.664C45.3305 199.646 43.8719 201.155 42.8287 202.111C41.6844 203.161 40.2643 204.211 39.1012 205.096C37.844 206.052 36.8223 206.86 36.0875 207.616C35.4986 208.222 35.3579 208.532 35.3336 208.578C35.2759 209.209 35.4284 210.076 36.0055 211.328C36.6017 212.622 37.507 214.029 38.6383 215.686C40.7131 218.723 43.7935 222.829 44.8404 227.218C45.2811 229.066 45.1693 230.993 44.9645 232.633C44.7632 234.243 44.3931 236.073 44.1539 237.48C43.8912 239.026 43.7399 240.282 43.7799 241.324C43.8191 242.344 44.0335 242.865 44.2486 243.155C44.3765 243.328 44.8173 243.725 46.0025 244.215C47.1404 244.685 48.5572 245.081 50.2408 245.515C51.8347 245.925 53.7064 246.378 55.3902 246.933C57.0512 247.479 58.9091 248.238 60.4049 249.444C76.4369 262.37 101.724 271.045 125.382 275.619L127.667 276.049L127.832 276.084C127.887 276.097 127.941 276.11 127.996 276.126C135.189 278.178 149.518 279.15 164.45 279.077C179.32 279.004 194.067 277.9 201.965 276.081C202.017 276.069 202.069 276.058 202.121 276.049C226.422 271.6 252.833 262.787 269.382 249.444C270.539 248.512 272.228 247.791 273.649 247.241C275.186 246.647 276.984 246.046 278.629 245.483C280.329 244.902 281.883 244.357 283.132 243.822C284.559 243.212 284.965 242.864 284.928 242.905C286.091 241.604 286.189 240.34 285.678 237.734C285.223 235.41 283.967 231.328 284.947 227.218C285.969 222.934 288.718 218.881 290.584 215.833C291.591 214.187 292.397 212.776 292.923 211.478C293.445 210.19 293.591 209.252 293.509 208.525C293.518 208.601 293.491 208.286 292.791 207.491C292.132 206.744 291.217 205.943 290.083 204.989C289.035 204.109 287.741 203.052 286.695 201.999C285.716 201.014 284.431 199.538 283.978 197.664C283.534 195.825 283.068 194.047 282.61 192.299C282.155 190.563 281.706 188.846 281.312 187.188C280.53 183.901 279.908 180.622 279.893 177.502C279.767 151.405 276.193 120.72 262.925 95.2168C262.033 93.5021 262.7 91.3883 264.415 90.4961ZM165.202 35.2568C198.966 35.3485 223.839 44.2814 241.967 58.5908C243.485 59.7885 243.744 61.9896 242.546 63.5068C241.349 65.0241 239.148 65.2826 237.63 64.085C220.928 50.9005 197.63 42.3302 165.103 42.2559C165.083 42.2558 165.063 42.2543 165.043 42.2539C164.975 42.2541 165.118 42.2546 164.897 42.2549H164.888C164.661 42.2546 164.816 42.2541 164.744 42.2539C164.724 42.2543 164.704 42.2558 164.684 42.2559C132.158 42.3301 108.86 50.9005 92.1568 64.085C90.6396 65.2826 88.4385 65.024 87.2408 63.5068C86.0432 61.9896 86.3027 59.7885 87.8199 58.5908C105.948 44.2816 130.821 35.3486 164.585 35.2568C164.615 35.2561 164.646 35.2539 164.676 35.2539C164.726 35.2539 164.774 35.2546 164.809 35.2549H164.977C165.013 35.2546 165.061 35.2539 165.111 35.2539C165.141 35.2539 165.172 35.2561 165.202 35.2568Z" fill="black"/>
<path d="M128.138 198.994C128.138 205.527 123.188 210.823 117.082 210.823C110.976 210.823 106.026 205.527 106.026 198.994C106.026 192.46 110.976 187.164 117.082 187.164C123.188 187.164 128.138 192.46 128.138 198.994Z" fill="black"/>
<path d="M224.324 198.994C224.324 205.527 219.374 210.823 213.268 210.823C207.162 210.823 202.212 205.527 202.212 198.994C202.212 192.46 207.162 187.164 213.268 187.164C219.374 187.164 224.324 192.46 224.324 198.994Z" fill="black"/>
<path d="M130.761 215.125C130.761 206.216 139.565 198.994 150.426 198.994C161.287 198.994 159.335 201.01 165.175 201.01C171.014 201.01 169.063 198.994 179.924 198.994C190.784 198.994 199.589 206.216 199.589 215.125C199.589 224.034 190.784 231.257 179.924 231.257C169.063 231.257 168.862 227.224 165.175 227.224C161.488 227.224 161.287 231.257 150.426 231.257C139.565 231.257 130.761 224.034 130.761 215.125Z" fill="white"/>
<path d="M165.619 220.232C167.808 220.313 169.512 220.988 170.809 221.681C171.395 221.995 171.955 222.346 172.275 222.543C172.654 222.777 172.912 222.934 173.183 223.08C173.9 223.467 175.496 224.256 179.924 224.256V231.256L178.937 231.245C169.047 231.008 168.747 227.224 165.175 227.224C161.488 227.224 161.287 231.256 150.426 231.256V224.256C154.853 224.256 156.45 223.467 157.167 223.08C157.437 222.934 157.696 222.777 158.074 222.543C158.395 222.346 158.954 221.995 159.541 221.681C160.924 220.941 162.77 220.224 165.175 220.224L165.619 220.232ZM192.589 215.125C192.589 211.315 188.279 205.994 179.924 205.994C174.988 205.994 173.507 206.446 172.77 206.678C171.358 207.123 169.353 208.01 165.175 208.01C160.996 208.01 158.99 207.123 157.579 206.678C156.842 206.446 155.361 205.994 150.426 205.994C142.071 205.994 137.761 211.315 137.761 215.125C137.761 218.936 142.071 224.256 150.426 224.256V231.256C139.735 231.256 131.037 224.258 130.768 215.542L130.761 215.125C130.761 206.216 139.565 198.994 150.426 198.994C160.947 198.994 159.445 200.886 164.649 201.004L165.175 201.01C171.014 201.01 169.063 198.994 179.924 198.994L180.431 198.999C191.057 199.219 199.589 206.355 199.589 215.125L199.582 215.542C199.313 224.258 190.615 231.256 179.924 231.256V224.256C188.279 224.256 192.589 218.936 192.589 215.125Z" fill="black"/>
<path d="M158.483 208.521C163.849 211.611 165.394 211.57 170.069 208.521C175.964 204.677 168.85 202.22 164.581 202.22C160.312 202.22 153.116 205.432 158.483 208.521Z" fill="black"/>
</svg>
