<svg width="378" height="320" viewBox="0 0 378 320" fill="none" xmlns="http://www.w3.org/2000/svg">
<path d="M180.214 26.6525C195.923 26.6525 223.123 10.2175 234.76 2C253.96 2 258.76 36.3641 258.76 53.5461C271.851 61.0165 300.215 83.5773 308.942 114.057C413.67 147.674 374.397 217.149 332.942 244.043C308.942 318 210.76 318 188.942 318C167.123 318 79.8484 318 51.4852 253.007C-40.1516 208.184 14.3951 125.262 62.3953 114.057C73.3045 55.7872 160.578 26.6525 180.214 26.6525Z" fill="white" stroke="#A5A5A5" stroke-width="4" stroke-linecap="round" stroke-linejoin="round" stroke-dasharray="8 8"/>
<path d="M35.5634 156.174C43.1184 147.315 71.9451 136.263 89.6182 153.678C115.069 178.757 101.944 207.657 95.1803 214.686L95.1849 214.69C95.1457 214.729 95.1041 214.766 95.0632 214.806C95.0235 214.846 94.9855 214.887 94.9462 214.925L94.9415 214.921C87.8086 221.586 58.4808 234.52 33.0297 209.44C15.3567 192.025 26.5728 163.619 35.5634 156.174Z" fill="#FDF7D6"/>
<path d="M334.95 155.313C343.921 162.852 355.114 191.617 337.478 209.253C312.081 234.65 282.816 221.552 275.698 214.803L275.693 214.808C275.654 214.768 275.616 214.727 275.576 214.686C275.536 214.647 275.494 214.609 275.455 214.569L275.46 214.565C268.71 207.447 255.613 178.182 281.01 152.785C298.645 135.149 327.411 146.341 334.95 155.313Z" fill="#FDF7D6"/>
<path d="M327.816 166.486C334.544 172.141 342.938 193.715 329.712 206.941C310.664 225.989 288.715 216.166 283.377 211.104L283.373 211.108C283.344 211.078 283.315 211.047 283.285 211.016C283.255 210.987 283.224 210.958 283.194 210.929L283.198 210.925C278.136 205.587 268.313 183.638 287.361 164.59C300.587 151.364 322.161 159.758 327.816 166.486Z" fill="#FEFFEC"/>
<path d="M46.7123 166.486C39.9837 172.141 31.5895 193.715 44.8161 206.941C63.8638 225.989 85.8129 216.166 91.1512 211.104L91.1547 211.108C91.1841 211.078 91.2126 211.047 91.2423 211.016C91.2729 210.987 91.304 210.958 91.3334 210.929L91.3299 210.925C96.3918 205.587 106.215 183.638 87.1672 164.59C73.9406 151.364 52.3665 159.758 46.7123 166.486Z" fill="#FEFFEC"/>
<path d="M187.671 64.706C282.773 64.9233 298.466 141.132 298.725 194.959C298.779 206.05 308.318 221.716 303.382 242.416C294.609 279.196 221.051 295.024 187.467 293.917C153.883 295.024 80.3252 279.196 71.5529 242.416C66.616 221.716 76.1545 206.05 76.2081 194.959C76.4679 141.132 92.1609 64.9231 187.263 64.706V64.704C187.331 64.704 187.399 64.7049 187.466 64.705C187.534 64.7049 187.603 64.704 187.671 64.704V64.706Z" fill="#FDF7D6"/>
<path d="M327.765 214.057C337.409 208.489 341.636 198.803 342.596 188.979C343.572 178.991 341.08 169.711 338.297 165.73C338.181 165.564 338.08 165.389 337.995 165.206C335.939 160.805 329.148 154.007 320.01 149.858C311.022 145.777 300.52 144.596 290.876 150.164L290.256 150.526C277.356 158.176 271.329 168.208 268.891 177.603C268.405 179.473 266.494 180.597 264.623 180.111C262.752 179.626 261.629 177.715 262.114 175.844C264.996 164.742 272.126 153.143 286.677 144.51L287.376 144.101C299.579 137.056 312.588 138.8 322.904 143.484C332.924 148.033 341.134 155.683 344.203 161.97C348.114 167.772 350.634 178.707 349.564 189.66C348.462 200.935 343.468 213.074 331.265 220.12C316.243 228.793 302.375 229.229 291.144 226.124C289.281 225.609 288.188 223.681 288.703 221.819C289.218 219.955 291.146 218.862 293.01 219.377C302.513 222.004 314.438 221.752 327.765 214.057Z" fill="black"/>
<path d="M319.315 183.975C307.755 181.307 296.521 185.043 292.171 187.312C290.457 188.206 289.793 190.32 290.687 192.034C291.581 193.747 293.695 194.412 295.409 193.518C298.801 191.749 308.3 188.618 317.741 190.796C319.625 191.231 321.504 190.056 321.938 188.172C322.373 186.289 321.199 184.41 319.315 183.975Z" fill="black"/>
<path d="M50.6685 183.975C62.2293 181.307 73.4632 185.043 77.813 187.312C79.5265 188.206 80.1912 190.32 79.2974 192.034C78.4032 193.747 76.2885 194.412 74.5747 193.518C71.1832 191.749 61.6841 188.618 52.2427 190.796C50.3592 191.231 48.4801 190.056 48.0454 188.172C47.611 186.289 48.7851 184.41 50.6685 183.975Z" fill="black"/>
<path d="M42.5531 214.057C32.9093 208.489 28.6815 198.803 27.7215 188.979C26.7456 178.991 29.2375 169.711 32.0208 165.73C32.1365 165.564 32.2376 165.389 32.3231 165.206C34.3791 160.805 41.17 154.007 50.3079 149.858C59.2961 145.777 69.7983 144.596 79.4423 150.164L80.062 150.526C92.9616 158.176 98.9889 168.208 101.427 177.603C101.913 179.473 103.823 180.597 105.694 180.111C107.565 179.626 108.689 177.715 108.203 175.844C105.322 164.742 98.1919 153.143 83.641 144.51L82.9423 144.101C70.7387 137.056 57.7296 138.8 47.414 143.484C37.394 148.033 29.1843 155.683 26.1151 161.97C22.204 167.772 19.6841 178.707 20.7543 189.66C21.8561 200.935 26.8497 213.074 39.0532 220.12C54.0753 228.793 67.9433 229.229 79.1741 226.124C81.037 225.609 82.1298 223.681 81.6149 221.819C81.0999 219.955 79.1715 218.862 77.3083 219.377C67.8049 222.004 55.8798 221.752 42.5531 214.057Z" fill="black"/>
<path d="M187.672 64.7059C282.774 64.9233 298.467 141.132 298.727 194.959C298.78 206.05 308.319 221.717 303.382 242.416C294.609 279.197 221.048 295.025 187.465 293.917C153.88 295.023 80.3249 279.195 71.5528 242.416C66.6159 221.717 76.1553 206.05 76.209 194.959C76.4688 141.132 92.1615 64.9231 187.264 64.7059V64.704C187.331 64.704 187.399 64.7049 187.467 64.705C187.535 64.7049 187.604 64.704 187.672 64.704V64.7059Z" fill="#FEFFEC"/>
<path d="M185.245 160.123C134.253 121.249 100.428 183.347 89.3207 210.104C78.2137 249.484 100.428 265.135 118.098 283.31C55.9997 260.086 69.1261 217.677 76.1942 198.998C74.6796 181.832 80.2331 57.131 185.245 63.6943C194.78 64.2902 205.439 63.6943 226.825 43.4998C233.711 57.1311 228.663 63.6943 226.825 70.7623C292.285 90.8943 297.555 147.664 298.839 198.998C316.509 250.998 281.169 276.242 251.382 283.31C298.334 264.63 284.198 219.192 281.169 206.57C278.139 193.949 238.76 114.685 185.245 160.123Z" fill="#FDF7D6"/>
<path d="M140.817 288.863C141.221 227.472 97.5667 206.066 75.6893 203.036C70.6407 210.778 68.2255 236.862 72.1553 244.94C81.2428 263.62 92.3498 273.717 140.817 288.863Z" fill="#FFD5CA"/>
<path d="M233.78 288.863C233.376 227.472 277.029 206.066 298.907 203.036C303.955 210.778 306.371 236.862 302.441 244.94C293.353 263.62 282.246 273.717 233.78 288.863Z" fill="#FFD5CA"/>
<path d="M224.232 40.9627C225.059 40.1767 226.223 39.84 227.349 40.072C228.551 40.3196 229.536 41.1778 229.944 42.3347C231.506 46.761 233.008 52.1522 233.354 57.3709C233.588 60.9044 233.308 64.6567 231.921 68.0115C260.818 77.9837 278.286 97.8824 288.543 120.828C299.24 144.758 302.116 172.014 302.226 194.942C302.238 197.274 302.754 199.992 303.569 203.306C304.342 206.45 305.452 210.367 306.341 214.316C308.173 222.465 309.428 232.149 306.786 243.227C303.283 257.914 290.666 269.065 275.352 277.216C259.963 285.406 241.134 290.96 223.786 294.148C195.604 301.754 163.809 297.343 151.186 294.155C133.828 290.968 114.982 285.412 99.5827 277.216C84.2685 269.065 71.6509 257.914 68.1481 243.227C65.5061 232.149 66.7621 222.465 68.5944 214.316C69.4825 210.367 70.5916 206.45 71.3649 203.306C72.1804 199.992 72.6974 197.274 72.7087 194.942C72.8396 167.813 76.8404 134.526 93.1872 107.898C109.7 81.0005 138.541 61.3422 187.161 61.2058C187.195 61.2048 187.229 61.2039 187.263 61.2039C187.311 61.2039 187.356 61.2046 187.389 61.2048H187.545C187.578 61.2046 187.624 61.2039 187.672 61.2039C187.692 61.2039 187.713 61.2045 187.733 61.2048C190.811 61.2079 195.491 60.8664 201.521 58.2761C207.615 55.6587 215.259 50.6717 224.071 41.1257L224.232 40.9627ZM225.04 50.1638C217.337 57.6558 210.347 62.1035 204.284 64.7078C197.115 67.787 191.415 68.2144 187.664 68.2058C187.644 68.2058 187.623 68.2042 187.603 68.2039C187.544 68.204 187.69 68.2046 187.471 68.2048H187.464C187.244 68.2046 187.393 68.204 187.331 68.2039C187.311 68.2042 187.291 68.2058 187.271 68.2058C140.846 68.3119 114.317 86.86 99.153 111.56C83.813 136.548 79.8376 168.279 79.7087 194.975C79.6932 198.19 78.9965 201.589 78.1628 204.978C77.2868 208.539 76.3096 211.911 75.4235 215.852C73.7075 223.484 72.6632 231.983 74.9577 241.603C77.7567 253.339 88.1587 263.205 102.871 271.036C117.01 278.561 134.479 283.849 150.962 286.993L152.553 287.29L152.786 287.342C164.691 290.371 195.373 294.609 222.095 287.355L222.382 287.29C239.326 284.188 257.468 278.804 272.063 271.036C286.775 263.205 297.178 253.339 299.977 241.603C302.272 231.983 301.226 223.484 299.51 215.852C298.624 211.911 297.648 208.539 296.772 204.978C295.938 201.589 295.242 198.19 295.226 194.975C295.118 172.479 292.278 146.339 282.152 123.685C272.081 101.156 254.828 82.09 225.638 73.3406C224.495 72.998 223.606 72.0963 223.278 70.949C222.95 69.8017 223.23 68.5663 224.019 67.6716C225.893 65.5483 226.659 62.2098 226.369 57.8337C226.204 55.3494 225.71 52.732 225.04 50.1638Z" fill="black"/>
<path d="M152.49 215.153C152.49 221.287 147.842 226.26 142.109 226.26C136.376 226.26 131.729 221.287 131.729 215.153C131.729 209.019 136.376 204.046 142.109 204.046C147.842 204.046 152.49 209.019 152.49 215.153Z" fill="black"/>
<path d="M242.355 215.153C242.355 221.287 237.708 226.26 231.975 226.26C226.242 226.26 221.594 221.287 221.594 215.153C221.594 209.019 226.242 204.046 231.975 204.046C237.708 204.046 242.355 209.019 242.355 215.153Z" fill="black"/>
<path d="M166.152 225.395C167.968 224.928 169.818 225.976 170.365 227.749C170.373 227.768 170.392 227.806 170.422 227.861C170.51 228.017 170.708 228.315 171.098 228.649C171.826 229.272 173.598 230.333 177.532 230.333C181.467 230.333 183.24 229.272 183.968 228.649C184.358 228.315 184.556 228.017 184.644 227.861C184.685 227.787 184.703 227.743 184.705 227.738C184.704 227.74 184.699 227.754 184.691 227.781C184.686 227.795 184.68 227.813 184.674 227.835C184.671 227.846 184.668 227.858 184.664 227.871C184.663 227.878 184.66 227.884 184.658 227.891C184.657 227.894 184.656 227.898 184.655 227.902C184.655 227.903 184.655 227.907 184.654 227.908V227.908C185.018 226.503 186.211 225.468 187.653 225.306C189.095 225.145 190.486 225.889 191.152 227.177C191.15 227.175 191.15 227.172 191.149 227.17C191.146 227.166 191.144 227.161 191.142 227.158C191.138 227.15 191.134 227.144 191.131 227.138C191.125 227.127 191.121 227.119 191.119 227.117C191.116 227.111 191.122 227.12 191.137 227.144C191.167 227.191 191.232 227.292 191.338 227.429C191.551 227.703 191.917 228.113 192.466 228.536C193.522 229.35 195.405 230.333 198.553 230.333C201.701 230.333 203.584 229.35 204.64 228.536C205.189 228.113 205.555 227.703 205.768 227.429C205.874 227.292 205.94 227.191 205.97 227.144C205.984 227.121 205.99 227.111 205.986 227.117C205.985 227.119 205.981 227.127 205.975 227.138C205.972 227.144 205.968 227.15 205.964 227.158C205.962 227.161 205.96 227.166 205.957 227.17C205.956 227.172 205.955 227.175 205.954 227.177C206.84 225.463 208.947 224.789 210.663 225.671C212.382 226.555 213.059 228.665 212.176 230.384L209.063 228.784C212.059 230.325 212.171 230.384 212.174 230.388C212.174 230.389 212.173 230.391 212.172 230.392C212.171 230.395 212.169 230.398 212.167 230.401C212.164 230.406 212.162 230.412 212.158 230.418C212.152 230.431 212.144 230.445 212.136 230.46C212.12 230.491 212.1 230.526 212.077 230.566C212.032 230.645 211.974 230.744 211.903 230.859C211.759 231.087 211.561 231.382 211.3 231.718C210.779 232.39 210.001 233.243 208.912 234.081C206.692 235.792 203.32 237.333 198.553 237.333C193.854 237.333 190.512 235.834 188.29 234.153C186.059 235.962 182.636 237.333 177.532 237.333C172.255 237.333 168.771 235.87 166.548 233.969C165.463 233.041 164.76 232.077 164.317 231.286C164.096 230.893 163.94 230.544 163.832 230.266C163.778 230.127 163.737 230.004 163.704 229.902C163.688 229.851 163.674 229.804 163.662 229.763C163.656 229.743 163.651 229.723 163.646 229.705C163.643 229.696 163.641 229.687 163.639 229.679C163.638 229.675 163.637 229.671 163.636 229.667C163.635 229.665 163.634 229.662 163.634 229.661C163.633 229.659 163.656 229.65 167.023 228.784L163.633 229.656C163.152 227.783 164.279 225.876 166.152 225.395ZM170.41 227.908C170.41 227.908 170.41 227.903 170.409 227.902C170.408 227.898 170.407 227.894 170.406 227.891C170.405 227.884 170.403 227.878 170.402 227.871C170.398 227.858 170.395 227.846 170.392 227.835C170.385 227.813 170.38 227.795 170.375 227.781C170.374 227.777 170.373 227.775 170.372 227.772C170.386 227.817 170.398 227.862 170.41 227.908Z" fill="black"/>
<path d="M181.991 222.079C187.029 224.98 188.48 224.942 192.869 222.079C198.404 218.47 191.724 216.163 187.716 216.163C183.708 216.163 176.952 219.178 181.991 222.079Z" fill="black"/>
</svg>
