<svg width="420" height="420" viewBox="0 0 420 420" fill="none" xmlns="http://www.w3.org/2000/svg">
<path d="M224.72 95.1094H204.22C204.22 82.9427 196.92 60.2095 183.72 54.6096C167.22 47.6096 151.72 54.6096 139.72 76.6095C132.92 76.2095 122.886 84.7762 118.72 89.1095C110.886 87.4428 93.3197 85.9095 85.7197 93.1095C71.2197 105.109 74.7197 143.609 89.2197 189.609C85.6197 206.809 83.7198 231.109 83.2199 241.109L78.7199 266.109C66.0532 264.276 41.4199 266.009 44.2199 287.609C47.7199 314.609 63.7199 310.609 83.2199 310.609C112.72 345.109 142.22 365.109 219.72 367.109C297.22 369.109 332.72 334.609 351.22 310.609C379.22 310.109 378.72 287.609 374.22 276.109C370.62 266.91 357.387 268.609 351.22 270.609C351.22 268.109 350.32 259.309 346.72 244.109C348.22 227.609 345.22 204.609 339.72 184.609C363.22 162.609 352.72 101.109 345.22 93.1095C337.72 85.1095 338.72 87.1095 309.22 93.1095C304.82 81.5095 293.053 74.6095 287.72 72.6096C284.553 65.9429 273.32 53.0096 253.72 54.6096C234.12 56.2096 224.553 81.276 224.72 95.1094Z" fill="white" stroke="#A5A5A5" stroke-width="4" stroke-linecap="round" stroke-linejoin="round" stroke-dasharray="8 8"/>
<path d="M323.22 112.265C312.329 108.478 286.493 125.033 277.72 131.345C266.22 149.923 303.72 187.684 315.72 179.547C333.872 167.238 336.834 116.999 323.22 112.265Z" fill="#FDF7D6"/>
<path d="M108.04 112.265C118.931 108.478 144.766 125.033 153.54 131.345C165.04 149.923 127.54 187.684 115.54 179.547C97.3879 167.238 94.4258 116.999 108.04 112.265Z" fill="#FDF7D6"/>
<path d="M215.625 114.275C309.81 114.492 325.352 190.284 325.609 243.817C325.662 254.847 335.11 270.428 330.22 291.014C321.533 327.594 248.683 343.335 215.423 342.234C182.162 343.335 109.313 327.594 100.625 291.014C95.7354 270.428 105.182 254.847 105.235 243.817C105.492 190.284 121.034 114.491 215.22 114.275V114.273C215.287 114.273 215.355 114.274 215.422 114.274C215.489 114.274 215.557 114.273 215.625 114.273V114.275Z" fill="#FDF7D6"/>
<path d="M311.828 109.384C316.103 108.216 320.619 107.655 324.371 108.96C327.032 109.885 329.034 111.837 330.498 114.122C331.96 116.402 333.012 119.198 333.746 122.217C335.214 128.26 335.545 135.772 334.869 143.376C334.19 150.998 332.479 158.925 329.712 165.812C326.972 172.631 323.043 178.81 317.685 182.444C315.263 184.087 312.418 184.409 309.703 184.043C307.002 183.679 304.189 182.612 301.453 181.148C295.972 178.218 290.2 173.379 285.278 167.774C280.355 162.169 276.087 155.575 273.812 149.004C271.552 142.475 271.09 135.407 274.745 129.503C274.986 129.112 275.303 128.773 275.676 128.505C280.161 125.278 288.978 119.45 298.113 114.886C302.675 112.607 307.428 110.587 311.828 109.384ZM322.071 115.571C320.377 114.982 317.579 115.07 313.673 116.137C309.891 117.171 305.595 118.974 301.241 121.149C292.936 125.298 284.823 130.595 280.373 133.752C278.599 137.078 278.618 141.492 280.426 146.714C282.323 152.193 286.023 158.015 290.537 163.155C295.052 168.295 300.187 172.533 304.753 174.974C307.04 176.197 309.036 176.89 310.638 177.106C312.226 177.32 313.178 177.042 313.756 176.65C317.473 174.129 320.722 169.413 323.217 163.203C325.685 157.06 327.267 149.823 327.896 142.756C328.527 135.67 328.182 128.964 326.944 123.871C326.325 121.323 325.516 119.32 324.605 117.899C323.697 116.482 322.812 115.829 322.071 115.571Z" fill="black"/>
<path d="M119.433 109.384C115.157 108.216 110.642 107.655 106.89 108.96C104.229 109.885 102.227 111.837 100.762 114.122C99.3006 116.402 98.2491 119.198 97.5152 122.217C96.0469 128.26 95.7153 135.772 96.3922 143.376C97.0708 150.998 98.7813 158.925 101.548 165.812C104.288 172.631 108.217 178.81 113.576 182.444C115.998 184.087 118.843 184.409 121.558 184.043C124.258 183.679 127.072 182.612 129.808 181.148C135.289 178.218 141.06 173.379 145.983 167.774C150.906 162.169 155.174 155.575 157.449 149.004C159.709 142.475 160.171 135.407 156.516 129.503C156.274 129.112 155.958 128.773 155.585 128.505C151.1 125.278 142.283 119.45 133.148 114.886C128.586 112.607 123.833 110.587 119.433 109.384ZM109.19 115.571C110.884 114.982 113.682 115.07 117.588 116.137C121.369 117.171 125.665 118.974 130.02 121.149C138.325 125.298 146.438 130.595 150.887 133.752C152.662 137.078 152.642 141.492 150.835 146.714C148.938 152.193 145.238 158.015 140.723 163.155C136.208 168.295 131.074 172.533 126.507 174.974C124.221 176.197 122.225 176.89 120.623 177.106C119.035 177.32 118.082 177.042 117.504 176.65C113.787 174.129 110.539 169.413 108.044 163.203C105.576 157.06 103.994 149.823 103.365 142.756C102.734 135.67 103.079 128.964 104.317 123.871C104.936 121.323 105.745 119.32 106.656 117.899C107.564 116.482 108.448 115.829 109.19 115.571Z" fill="black"/>
<path d="M173.221 255.867C173.221 261.968 168.744 266.914 163.221 266.914C157.698 266.914 153.221 261.968 153.221 255.867C153.221 249.767 157.698 244.821 163.221 244.821C168.744 244.821 173.221 249.767 173.221 255.867Z" fill="black"/>
<path d="M278.221 255.867C278.221 261.968 273.744 266.914 268.221 266.914C262.698 266.914 258.221 261.968 258.221 255.867C258.221 249.767 262.698 244.821 268.221 244.821C273.744 244.821 278.221 249.767 278.221 255.867Z" fill="black"/>
<path d="M215.624 114.275C309.81 114.491 325.352 190.284 325.609 243.816C325.662 254.847 335.11 270.428 330.22 291.015C321.532 327.594 248.682 343.336 215.421 342.234C182.161 343.335 109.311 327.594 100.624 291.015C95.7343 270.428 105.182 254.847 105.235 243.816C105.492 190.284 121.034 114.491 215.22 114.275V114.273C215.287 114.273 215.354 114.274 215.421 114.274C215.489 114.274 215.556 114.273 215.624 114.273V114.275Z" fill="#FDF7D6"/>
<path d="M167.22 337.208C167.62 276.152 124.386 254.863 102.719 251.85C97.7195 259.549 95.3275 285.491 99.2194 293.525C108.219 312.103 119.219 322.145 167.22 337.208Z" fill="#FFD5CA"/>
<path d="M259.287 337.208C258.887 276.152 302.121 254.863 323.787 251.85C328.787 259.549 331.179 285.491 327.287 293.525C318.287 312.103 307.287 322.145 259.287 337.208Z" fill="#FFD5CA"/>
<path d="M307.853 162.381C309.569 161.492 311.682 162.162 312.571 163.878C325.634 189.092 328.99 219.009 329.109 243.8C329.12 246.118 329.631 248.821 330.438 252.117C331.204 255.243 332.303 259.139 333.182 263.067C334.997 271.172 336.242 280.804 333.625 291.823C330.155 306.434 317.654 317.528 302.481 325.638C287.22 333.795 268.544 339.323 251.345 342.492C232.563 346.98 201.877 346.608 179.586 342.51C162.362 339.343 143.648 333.809 128.361 325.638C113.189 317.528 100.689 306.434 97.2185 291.823C94.6014 280.804 95.8451 271.172 97.6599 263.067C98.5394 259.139 99.6383 255.243 100.404 252.117C101.212 248.821 101.723 246.118 101.734 243.8C101.853 219.009 105.208 189.092 118.271 163.878C119.16 162.162 121.273 161.492 122.989 162.381C124.705 163.27 125.375 165.382 124.486 167.099C112.173 190.866 108.851 219.477 108.734 243.833C108.719 247.03 108.029 250.413 107.203 253.783C106.335 257.324 105.368 260.678 104.491 264.597C102.791 272.186 101.757 280.639 104.029 290.206C106.8 301.873 117.097 311.679 131.661 319.464C146.111 327.187 164.075 332.54 180.852 335.625C202.524 339.609 232.243 339.886 249.805 335.665L249.991 335.625C266.769 332.54 284.732 327.187 299.181 319.464C313.746 311.679 324.043 301.873 326.814 290.206C329.086 280.639 328.052 272.186 326.352 264.597C325.475 260.678 324.507 257.324 323.639 253.783C322.814 250.413 322.124 247.03 322.109 243.833C321.992 219.477 318.669 190.866 306.356 167.099C305.467 165.382 306.137 163.27 307.853 162.381ZM215.716 110.776C247.156 110.863 270.341 119.218 287.247 132.619C288.761 133.82 289.016 136.021 287.815 137.536C286.614 139.051 284.413 139.305 282.898 138.104C267.418 125.833 245.812 117.845 215.615 117.775C215.595 117.775 215.575 117.774 215.555 117.773C215.497 117.774 215.64 117.774 215.425 117.774H215.417C215.195 117.774 215.349 117.774 215.287 117.773C215.267 117.774 215.247 117.775 215.227 117.775C185.03 117.845 163.425 125.833 147.944 138.104C146.429 139.305 144.228 139.051 143.027 137.536C141.826 136.021 142.082 133.82 143.596 132.619C160.502 119.219 183.686 110.863 215.126 110.776C215.157 110.776 215.188 110.773 215.219 110.773C215.267 110.773 215.312 110.774 215.344 110.774H215.498C215.531 110.774 215.576 110.773 215.624 110.773C215.654 110.773 215.685 110.776 215.716 110.776Z" fill="black"/>
<path d="M104.808 274.757C113.843 270.774 123.076 270.813 130.816 272.382C138.527 273.946 144.981 277.072 148.684 279.582C150.284 280.666 150.702 282.842 149.618 284.442C148.533 286.042 146.356 286.46 144.756 285.376C141.792 283.367 136.196 280.616 129.424 279.243C122.681 277.875 114.997 277.915 107.632 281.162C97.424 285.662 89.0516 289.169 82.3695 290.945C75.8248 292.685 69.8275 293.073 65.222 289.871C63.6352 288.767 63.2429 286.587 64.3461 285C65.4495 283.413 67.631 283.02 69.2181 284.124C71.1127 285.441 74.3655 285.829 80.5707 284.179C86.6385 282.566 94.5164 279.295 104.808 274.757Z" fill="black"/>
<path d="M319.131 274.757C310.096 270.774 300.863 270.813 293.124 272.382C285.412 273.946 278.958 277.072 275.256 279.582C273.656 280.666 273.238 282.842 274.322 284.442C275.406 286.042 277.583 286.46 279.183 285.376C282.147 283.367 287.744 280.616 294.515 279.243C301.259 277.875 308.943 277.915 316.307 281.162C326.515 285.662 334.888 289.169 341.57 290.945C348.115 292.685 354.112 293.073 358.717 289.871C360.304 288.767 360.697 286.587 359.593 285C358.49 283.413 356.308 283.02 354.721 284.124C352.827 285.441 349.574 285.829 343.369 284.179C337.301 282.566 329.423 279.295 319.131 274.757Z" fill="black"/>
<path d="M171.398 75.1094C188.177 75.1094 187.478 118.179 184.682 133.149C176.292 140.75 163.708 142.132 156.018 133.149V114.494C149.726 114.494 139.938 113.803 139.239 104.129C138.679 96.3907 150.658 93.5348 156.018 93.7651C155.552 88.2375 157.975 75.1094 171.398 75.1094Z" fill="#A2978A"/>
<path d="M171.399 71.6094C177.431 71.6094 181.488 75.5925 184.042 80.4414C186.582 85.2629 188.048 91.6027 188.855 98.083C190.473 111.087 189.585 125.959 188.122 133.792C187.982 134.544 187.598 135.229 187.031 135.743C177.683 144.212 162.733 146.374 153.359 135.426C152.817 134.792 152.518 133.984 152.518 133.149V117.896C149.888 117.732 146.896 117.298 144.187 116.171C142.116 115.309 140.085 113.994 138.514 111.985C136.925 109.953 135.967 107.414 135.748 104.382C135.305 98.2539 139.952 94.6159 143.946 92.7793C146.716 91.506 149.832 90.7491 152.552 90.4307C152.804 87.4477 153.635 83.8885 155.446 80.6543C158.214 75.7138 163.27 71.6094 171.399 71.6094ZM171.399 78.6094C166.104 78.6094 163.236 81.0697 161.553 84.0752C159.738 87.3152 159.318 91.2485 159.505 93.4707C159.589 94.4727 159.239 95.463 158.543 96.1885C157.847 96.914 156.872 97.3049 155.867 97.2617C153.715 97.1693 149.936 97.7291 146.87 99.1387C143.676 100.607 142.613 102.266 142.73 103.877C142.86 105.682 143.388 106.856 144.027 107.674C144.685 108.515 145.625 109.188 146.875 109.708C149.493 110.797 152.886 110.994 156.018 110.994C157.951 110.994 159.518 112.561 159.518 114.494V131.778C165.354 137.575 174.454 137.039 181.447 131.315C182.658 123.876 183.355 110.571 181.908 98.9473C181.142 92.7891 179.81 87.4258 177.85 83.7041C175.904 80.0098 173.755 78.6094 171.399 78.6094Z" fill="black"/>
<path d="M185.72 101.234C187.653 101.234 189.22 102.801 189.22 104.734C189.22 106.667 187.653 108.234 185.72 108.234H172.22C170.287 108.234 168.72 106.667 168.72 104.734C168.72 102.801 170.287 101.234 172.22 101.234H185.72Z" fill="black"/>
<path d="M185.72 115.795C187.653 115.795 189.22 117.362 189.22 119.295C189.22 121.228 187.653 122.795 185.72 122.795H174.22C172.287 122.795 170.72 121.228 170.72 119.295C170.72 117.362 172.287 115.795 174.22 115.795H185.72Z" fill="black"/>
<path d="M262.041 77.1177C245.262 77.1177 245.961 120.187 248.758 135.158C257.147 142.758 269.731 144.14 277.422 135.158V116.502C283.714 116.502 293.502 115.811 294.201 106.138C294.76 98.399 282.782 95.5431 277.422 95.7734C277.888 90.2458 275.464 77.1177 262.041 77.1177Z" fill="#A2978A"/>
<path d="M262.041 73.6177C256.008 73.6177 251.952 77.6008 249.397 82.4497C246.857 87.2712 245.391 93.611 244.585 100.091C242.966 113.095 243.854 127.968 245.317 135.8C245.458 136.552 245.841 137.238 246.408 137.751C255.756 146.22 270.707 148.382 280.08 137.434C280.623 136.8 280.922 135.993 280.922 135.158V119.905C283.552 119.74 286.544 119.306 289.253 118.179C291.324 117.317 293.355 116.003 294.926 113.994C296.515 111.961 297.472 109.422 297.691 106.39C298.134 100.262 293.488 96.6242 289.493 94.7876C286.723 93.5143 283.607 92.7574 280.888 92.439C280.636 89.456 279.805 85.8968 277.993 82.6626C275.226 77.7221 270.169 73.6177 262.041 73.6177ZM262.041 80.6177C267.336 80.6177 270.203 83.078 271.887 86.0835C273.701 89.3235 274.122 93.2568 273.934 95.479C273.85 96.481 274.2 97.4713 274.896 98.1968C275.593 98.9223 276.568 99.3132 277.572 99.27C279.724 99.1776 283.503 99.7374 286.569 101.147C289.763 102.615 290.826 104.275 290.71 105.885C290.579 107.69 290.051 108.864 289.412 109.682C288.754 110.523 287.814 111.196 286.564 111.716C283.947 112.806 280.554 113.002 277.422 113.002C275.489 113.002 273.922 114.569 273.922 116.502V133.787C268.085 139.583 258.986 139.047 251.992 133.324C250.782 125.884 250.084 112.579 251.531 100.956C252.298 94.7974 253.629 89.4341 255.59 85.7124C257.536 82.0181 259.684 80.6177 262.041 80.6177Z" fill="black"/>
<path d="M249.22 101.233C247.287 101.233 245.72 102.8 245.72 104.733C245.72 106.666 247.287 108.233 249.22 108.233H262.72C264.653 108.233 266.22 106.666 266.22 104.733C266.22 102.8 264.653 101.233 262.72 101.233H249.22Z" fill="black"/>
<path d="M249.22 115.794C247.287 115.794 245.72 117.361 245.72 119.294C245.72 121.227 247.287 122.794 249.22 122.794H260.72C262.653 122.794 264.22 121.227 264.22 119.294C264.22 117.361 262.653 115.794 260.72 115.794H249.22Z" fill="black"/>
<path d="M181.78 258.88C181.78 264.981 177.178 269.926 171.5 269.926C165.822 269.926 161.22 264.981 161.22 258.88C161.22 252.779 165.822 247.833 171.5 247.833C177.178 247.833 181.78 252.779 181.78 258.88Z" fill="black"/>
<path d="M271.22 258.88C271.22 264.981 266.617 269.926 260.94 269.926C255.262 269.926 250.659 264.981 250.659 258.88C250.659 252.779 255.262 247.833 260.94 247.833C266.617 247.833 271.22 252.779 271.22 258.88Z" fill="black"/>
<path d="M195.304 269.046C197.121 268.581 198.97 269.63 199.516 271.403C199.524 271.421 199.541 271.46 199.571 271.514C199.657 271.668 199.852 271.962 200.236 272.292C200.951 272.905 202.695 273.958 206.582 273.958C210.469 273.958 212.213 272.905 212.928 272.292C213.311 271.962 213.505 271.668 213.592 271.514C213.628 271.449 213.645 271.407 213.65 271.396C214.061 270.075 215.216 269.113 216.601 268.958C218.042 268.797 219.432 269.541 220.098 270.827C220.096 270.823 220.094 270.819 220.093 270.815C220.088 270.808 220.085 270.801 220.082 270.795C220.076 270.784 220.072 270.776 220.07 270.773C220.072 270.777 220.078 270.786 220.087 270.801C220.116 270.848 220.181 270.947 220.285 271.082C220.495 271.354 220.855 271.76 221.397 272.179C222.437 272.983 224.293 273.958 227.399 273.958C230.505 273.958 232.361 272.983 233.401 272.179C233.943 271.76 234.304 271.354 234.513 271.082C234.618 270.947 234.684 270.848 234.713 270.801C234.722 270.787 234.726 270.777 234.728 270.773C234.727 270.776 234.723 270.784 234.717 270.795C234.714 270.8 234.711 270.807 234.708 270.813C235.597 269.114 237.692 268.445 239.403 269.321C241.124 270.202 241.804 272.311 240.924 274.031L237.808 272.437C240.924 274.031 240.923 274.033 240.922 274.035L240.916 274.047C240.913 274.053 240.909 274.059 240.906 274.065C240.899 274.078 240.892 274.091 240.884 274.106C240.867 274.137 240.848 274.172 240.826 274.212C240.781 274.291 240.723 274.39 240.652 274.504C240.51 274.732 240.313 275.025 240.054 275.36C239.537 276.03 238.766 276.879 237.685 277.715C235.481 279.421 232.132 280.958 227.399 280.958C222.753 280.958 219.443 279.475 217.237 277.807C215.02 279.602 211.626 280.958 206.582 280.958C201.345 280.958 197.885 279.5 195.676 277.603C194.598 276.677 193.901 275.716 193.461 274.929C193.242 274.537 193.087 274.19 192.98 273.912C192.927 273.773 192.885 273.651 192.852 273.549C192.836 273.498 192.823 273.452 192.811 273.411C192.805 273.391 192.8 273.371 192.795 273.354C192.792 273.345 192.79 273.336 192.788 273.328C192.787 273.324 192.786 273.319 192.785 273.315C192.784 273.314 192.783 273.311 192.783 273.31C192.785 273.306 192.874 273.281 196.173 272.437L192.782 273.305C192.303 271.432 193.432 269.525 195.304 269.046ZM213.637 271.437C213.632 271.451 213.627 271.469 213.621 271.491C213.618 271.502 213.615 271.514 213.611 271.526C213.609 271.533 213.607 271.54 213.605 271.547C213.604 271.55 213.603 271.554 213.602 271.558C213.617 271.503 213.634 271.449 213.651 271.396C213.649 271.401 213.644 271.414 213.637 271.437ZM199.557 271.547C199.556 271.54 199.554 271.533 199.553 271.526C199.549 271.514 199.546 271.502 199.543 271.491C199.537 271.469 199.531 271.451 199.526 271.437C199.524 271.431 199.523 271.426 199.521 271.421C199.534 271.463 199.546 271.504 199.557 271.547Z" fill="black"/>
</svg>
