<svg width="337" height="320" viewBox="0 0 337 320" fill="none" xmlns="http://www.w3.org/2000/svg">
<path d="M182.72 45.0776H162.22C162.22 32.9109 154.92 10.1778 141.72 4.57782C125.22 -2.42212 109.72 4.57782 97.7197 26.5778C90.9197 26.1778 80.8864 34.7444 76.7197 39.0778C68.8864 37.4111 51.3197 35.8778 43.7197 43.0778C29.2197 55.0778 32.7197 93.5778 47.2197 139.578C43.6197 156.778 41.7198 181.078 41.2199 191.078L36.7199 216.078C24.0532 214.244 -0.580115 215.978 2.21989 237.578C5.71989 264.578 21.7199 260.578 41.2199 260.578C70.7199 295.078 100.22 315.078 177.72 317.078C255.22 319.078 290.72 284.578 309.22 260.578C337.22 260.078 336.72 237.578 332.22 226.078C328.62 216.878 315.387 218.578 309.22 220.578C309.22 218.078 308.32 209.278 304.72 194.078C306.22 177.578 303.22 154.578 297.72 134.578C321.22 112.578 310.72 51.0778 303.22 43.0778C295.72 35.0778 296.72 37.0778 267.22 43.0778C262.82 31.4778 251.053 24.5778 245.72 22.5778C242.553 15.9112 231.32 2.97782 211.72 4.57782C192.12 6.17782 182.553 31.2443 182.72 45.0776Z" fill="white" stroke="#A5A5A5" stroke-width="4" stroke-linecap="round" stroke-linejoin="round" stroke-dasharray="8 8"/>
<path d="M280.22 63.2333C269.329 59.4459 243.493 76.001 234.72 82.3133C223.22 100.891 260.72 138.653 272.72 130.515C290.872 118.206 293.834 67.9675 280.22 63.2333Z" fill="#FFD8D4"/>
<path d="M65.0396 63.2333C75.9307 59.4459 101.766 76.001 110.54 82.3133C122.04 100.891 84.5398 138.653 72.5398 130.515C54.3879 118.206 51.4258 67.9675 65.0396 63.2333Z" fill="#FFD8D4"/>
<path d="M172.624 65.2437C266.809 65.4598 282.351 141.252 282.608 194.785C282.661 205.816 292.109 221.396 287.219 241.983C278.532 278.562 205.682 294.303 172.422 293.202C139.161 294.303 66.3115 278.562 57.6237 241.983C52.7344 221.396 62.181 205.816 62.234 194.785C62.4914 141.252 78.0332 65.4596 172.219 65.2437V65.2417C172.286 65.2417 172.354 65.2426 172.421 65.2427C172.488 65.2426 172.556 65.2417 172.624 65.2417V65.2437Z" fill="#FFD8D4"/>
<path d="M268.828 60.3528C273.103 59.1841 277.619 58.6234 281.371 59.9279C284.032 60.8537 286.034 62.8054 287.498 65.0901C288.96 67.3703 290.012 70.1661 290.746 73.1858C292.214 79.228 292.545 86.7398 291.869 94.344C291.19 101.967 289.479 109.893 286.712 116.78C283.972 123.6 280.043 129.779 274.685 133.412C272.263 135.055 269.418 135.377 266.703 135.011C264.002 134.647 261.189 133.58 258.453 132.116C252.972 129.186 247.2 124.347 242.278 118.742C237.355 113.137 233.087 106.544 230.812 99.9719C228.552 93.4434 228.09 86.3751 231.745 80.4709C231.986 80.0802 232.303 79.7413 232.676 79.4729C237.161 76.2461 245.978 70.4179 255.113 65.8547C259.675 63.5757 264.428 61.5552 268.828 60.3528ZM279.071 66.5393C277.377 65.9502 274.579 66.0383 270.673 67.1057C266.891 68.1393 262.595 69.9421 258.241 72.1174C249.936 76.2659 241.823 81.5635 237.373 84.7199C235.599 88.0466 235.618 92.4599 237.426 97.6819C239.323 103.161 243.023 108.983 247.537 114.123C252.052 119.264 257.187 123.501 261.753 125.943C264.04 127.165 266.036 127.858 267.638 128.074C269.226 128.288 270.178 128.01 270.756 127.618C274.473 125.098 277.722 120.381 280.217 114.171C282.685 108.029 284.267 100.791 284.896 93.7238C285.527 86.638 285.182 79.9326 283.944 74.8391C283.325 72.291 282.516 70.2887 281.605 68.8674C280.697 67.4507 279.812 66.7972 279.071 66.5393Z" fill="black"/>
<path d="M76.4332 60.3528C72.1574 59.1841 67.6416 58.6234 63.8902 59.9279C61.2286 60.8537 59.2269 62.8054 57.7623 65.0901C56.3006 67.3703 55.2491 70.1661 54.5152 73.1858C53.0469 79.228 52.7153 86.7398 53.3922 94.344C54.0708 101.967 55.7813 109.893 58.5484 116.78C61.2883 123.6 65.2173 129.779 70.5758 133.412C72.998 135.055 75.843 135.377 78.5582 135.011C81.2584 134.647 84.0715 133.58 86.8082 132.116C92.2888 129.186 98.0604 124.347 102.983 118.742C107.906 113.137 112.174 106.544 114.449 99.9719C116.709 93.4434 117.171 86.3751 113.516 80.4709C113.274 80.0802 112.958 79.7413 112.585 79.4729C108.1 76.2461 99.2829 70.4179 90.1481 65.8547C85.5859 63.5757 80.8327 61.5552 76.4332 60.3528ZM66.19 66.5393C67.8841 65.9502 70.6822 66.0383 74.5875 67.1057C78.3693 68.1393 82.6655 69.9421 87.0201 72.1174C95.3248 76.2659 103.438 81.5635 107.887 84.7199C109.662 88.0466 109.642 92.4599 107.835 97.6819C105.938 103.161 102.238 108.983 97.7232 114.123C93.2085 119.264 88.0736 123.501 83.5074 125.943C81.2209 127.165 79.2251 127.858 77.6227 128.074C76.0352 128.288 75.0822 128.01 74.5045 127.618C70.7874 125.098 67.5387 120.381 65.0436 114.171C62.5756 108.029 60.994 100.791 60.3648 93.7238C59.734 86.638 60.0792 79.9326 61.317 74.8391C61.9362 72.291 62.7448 70.2887 63.6559 68.8674C64.5641 67.4507 65.4484 66.7972 66.19 66.5393Z" fill="black"/>
<path d="M130.22 206.836C130.22 212.936 125.743 217.882 120.22 217.882C114.697 217.882 110.22 212.936 110.22 206.836C110.22 200.735 114.697 195.789 120.22 195.789C125.743 195.789 130.22 200.735 130.22 206.836Z" fill="black"/>
<path d="M235.22 206.836C235.22 212.936 230.743 217.882 225.22 217.882C219.697 217.882 215.22 212.936 215.22 206.836C215.22 200.735 219.697 195.789 225.22 195.789C230.743 195.789 235.22 200.735 235.22 206.836Z" fill="black"/>
<path d="M172.625 65.2437C266.811 65.4597 282.353 141.252 282.61 194.785C282.663 205.816 292.11 221.397 287.22 241.983C278.532 278.562 205.683 294.304 172.423 293.203C139.162 294.304 66.3127 278.562 57.6247 241.983C52.7354 221.397 62.182 205.816 62.235 194.785C62.4924 141.252 78.0344 65.4597 172.22 65.2437V65.2417C172.288 65.2417 172.355 65.2426 172.423 65.2427C172.49 65.2426 172.557 65.2417 172.625 65.2417V65.2437Z" fill="#FFD8D4"/>
<path d="M124.22 288.176C124.62 227.12 81.3861 205.831 59.7195 202.819C54.7195 210.518 52.3275 236.46 56.2194 244.493C65.2195 263.071 76.2195 273.113 124.22 288.176Z" fill="#FFA6A8"/>
<path d="M216.287 288.176C215.887 227.12 259.121 205.831 280.787 202.819C285.787 210.518 288.179 236.46 284.287 244.493C275.287 263.071 264.287 273.113 216.287 288.176Z" fill="#FFA6A8"/>
<path d="M264.853 113.349C266.569 112.46 268.682 113.13 269.571 114.846C282.634 140.061 285.99 169.977 286.109 194.768C286.12 197.086 286.631 199.789 287.438 203.085C288.204 206.211 289.303 210.108 290.182 214.036C291.997 222.141 293.242 231.773 290.625 242.792C287.155 257.402 274.654 268.496 259.481 276.606C244.22 284.763 225.544 290.291 208.345 293.46C189.563 297.949 158.877 297.577 136.586 293.478C119.362 290.311 100.648 284.777 85.361 276.606C70.1885 268.496 57.6886 257.402 54.2185 242.792C51.6014 231.773 52.8451 222.141 54.6599 214.036C55.5394 210.108 56.6383 206.211 57.404 203.085C58.2116 199.789 58.7229 197.086 58.7341 194.768C58.8533 169.977 62.2084 140.061 75.2712 114.846C76.1605 113.13 78.2727 112.46 79.989 113.349C81.705 114.238 82.3752 116.351 81.486 118.067C69.1731 141.834 65.8512 170.446 65.7341 194.801C65.7187 197.998 65.0286 201.381 64.2028 204.751C63.3353 208.293 62.3685 211.646 61.4909 215.565C59.7915 223.155 58.7568 231.607 61.029 241.174C63.8002 252.841 74.0967 262.648 88.6609 270.432C103.111 278.155 121.075 283.509 137.852 286.593C159.524 290.578 189.243 290.854 206.805 286.633L206.991 286.593C223.769 283.509 241.732 278.155 256.181 270.432C270.746 262.648 281.043 252.841 283.814 241.174C286.086 231.607 285.052 223.155 283.352 215.565C282.475 211.646 281.507 208.293 280.639 204.751C279.814 201.381 279.124 197.998 279.109 194.801C278.992 170.446 275.669 141.834 263.356 118.067C262.467 116.351 263.137 114.238 264.853 113.349ZM172.716 61.7446C204.156 61.8316 227.341 70.1866 244.247 83.5874C245.761 84.7882 246.016 86.9897 244.815 88.5044C243.614 90.0192 241.413 90.2735 239.898 89.0728C224.418 76.8016 202.812 68.813 172.615 68.7437C172.595 68.7436 172.575 68.7421 172.555 68.7417C172.497 68.7419 172.64 68.7424 172.425 68.7427H172.417C172.195 68.7424 172.349 68.7419 172.287 68.7417C172.267 68.7421 172.247 68.7436 172.227 68.7437C142.03 68.8129 120.425 76.8016 104.944 89.0728C103.429 90.2734 101.228 90.0192 100.027 88.5044C98.8264 86.9896 99.0816 84.7881 100.596 83.5874C117.502 70.1868 140.686 61.8317 172.126 61.7446C172.157 61.7438 172.188 61.7417 172.219 61.7417C172.267 61.7417 172.312 61.7424 172.344 61.7427H172.498C172.531 61.7424 172.576 61.7417 172.624 61.7417C172.654 61.7417 172.685 61.7438 172.716 61.7446Z" fill="black"/>
<path d="M61.808 225.726C70.8432 221.742 80.0762 221.781 87.8158 223.351C95.5274 224.915 101.981 228.04 105.684 230.55C107.284 231.635 107.702 233.81 106.618 235.41C105.533 237.01 103.356 237.428 101.756 236.344C98.7923 234.335 93.1958 231.584 86.4242 230.211C79.6806 228.844 71.9968 228.883 64.6322 232.13C54.424 236.631 46.0516 240.137 39.3695 241.913C32.8248 243.653 26.8275 244.041 22.222 240.839C20.6352 239.736 20.2429 237.555 21.3461 235.968C22.4495 234.381 24.631 233.989 26.2181 235.092C28.1127 236.409 31.3655 236.797 37.5707 235.148C43.6385 233.535 51.5164 230.263 61.808 225.726Z" fill="black"/>
<path d="M276.131 225.726C267.096 221.742 257.863 221.781 250.124 223.351C242.412 224.915 235.958 228.04 232.256 230.55C230.656 231.635 230.238 233.81 231.322 235.41C232.406 237.01 234.583 237.428 236.183 236.344C239.147 234.335 244.744 231.584 251.515 230.211C258.259 228.844 265.943 228.883 273.307 232.13C283.515 236.631 291.888 240.137 298.57 241.913C305.115 243.653 311.112 244.041 315.717 240.839C317.304 239.736 317.697 237.555 316.593 235.968C315.49 234.381 313.308 233.989 311.721 235.092C309.827 236.409 306.574 236.797 300.369 235.148C294.301 233.535 286.423 230.263 276.131 225.726Z" fill="black"/>
<path d="M128.398 26.0776C145.177 26.0776 144.478 69.1471 141.682 84.1177C133.292 91.7182 120.708 93.1001 113.018 84.1177V65.462C106.726 65.462 96.9378 64.771 96.2387 55.0977C95.6794 47.359 107.658 44.5031 113.018 44.7334C112.552 39.2058 114.975 26.0776 128.398 26.0776Z" fill="#F9E0B9"/>
<path d="M128.399 22.5776C134.431 22.5776 138.488 26.5608 141.042 31.4097C143.582 36.2312 145.048 42.5709 145.855 49.0513C147.473 62.0551 146.585 76.9277 145.122 84.7603C144.982 85.5124 144.598 86.1977 144.031 86.7114C134.683 95.1804 119.733 97.342 110.359 86.394C109.817 85.7599 109.518 84.9525 109.518 84.1177V68.8647C106.888 68.7004 103.896 68.2665 101.187 67.1392C99.1156 66.2773 97.0845 64.9625 95.5138 62.9536C93.9246 60.9211 92.9673 58.3818 92.7481 55.3501C92.3053 49.2222 96.9515 45.5842 100.946 43.7476C103.716 42.4743 106.832 41.7174 109.552 41.3989C109.804 38.416 110.635 34.8568 112.446 31.6226C115.214 26.6821 120.27 22.5776 128.399 22.5776ZM128.399 29.5776C123.104 29.5776 120.236 32.038 118.553 35.0435C116.738 38.2835 116.318 42.2168 116.505 44.439C116.589 45.441 116.239 46.4312 115.543 47.1567C114.847 47.8823 113.872 48.2731 112.867 48.23C110.715 48.1376 106.936 48.6974 103.87 50.1069C100.676 51.5754 99.6133 53.2347 99.7296 54.8452C99.86 56.6499 100.388 57.8245 101.027 58.6421C101.685 59.4832 102.625 60.1562 103.875 60.6763C106.493 61.7655 109.886 61.9624 113.018 61.9624C114.951 61.9624 116.518 63.5294 116.518 65.4624V82.7466C122.354 88.5429 131.454 88.007 138.447 82.2837C139.658 74.8442 140.355 61.5394 138.908 49.9155C138.142 43.7574 136.81 38.3941 134.85 34.6724C132.904 30.9781 130.755 29.5776 128.399 29.5776Z" fill="black"/>
<path d="M142.72 52.2019C144.653 52.2019 146.22 53.7689 146.22 55.7019C146.22 57.6349 144.653 59.2019 142.72 59.2019H129.22C127.287 59.2019 125.72 57.6349 125.72 55.7019C125.72 53.7689 127.287 52.2019 129.22 52.2019H142.72Z" fill="black"/>
<path d="M142.72 66.7629C144.653 66.7629 146.22 68.3299 146.22 70.2629C146.22 72.1959 144.653 73.7629 142.72 73.7629H131.22C129.287 73.7629 127.72 72.1959 127.72 70.2629C127.72 68.3299 129.287 66.7629 131.22 66.7629H142.72Z" fill="black"/>
<path d="M219.041 28.0859C202.262 28.0859 202.961 71.1554 205.758 86.126C214.147 93.7265 226.731 95.1084 234.422 86.126V67.4703C240.714 67.4703 250.502 66.7793 251.201 57.106C251.76 49.3673 239.782 46.5114 234.422 46.7417C234.888 41.2141 232.464 28.0859 219.041 28.0859Z" fill="#F9E0B9"/>
<path d="M219.041 24.5859C213.008 24.5859 208.952 28.5691 206.397 33.418C203.857 38.2395 202.391 44.5792 201.585 51.0596C199.966 64.0634 200.854 78.936 202.317 86.7686C202.458 87.5207 202.841 88.206 203.408 88.7197C212.756 97.1887 227.707 99.3503 237.08 88.4023C237.623 87.7682 237.922 86.9608 237.922 86.126V70.873C240.552 70.7087 243.544 70.2748 246.253 69.1475C248.324 68.2856 250.355 66.9708 251.926 64.9619C253.515 62.9294 254.472 60.3901 254.691 57.3584C255.134 51.2305 250.488 47.5925 246.493 45.7559C243.723 44.4826 240.607 43.7257 237.888 43.4072C237.636 40.4243 236.805 36.8651 234.993 33.6309C232.226 28.6904 227.169 24.5859 219.041 24.5859ZM219.041 31.5859C224.336 31.5859 227.203 34.0463 228.887 37.0518C230.701 40.2918 231.122 44.2251 230.934 46.4473C230.85 47.4493 231.2 48.4395 231.896 49.165C232.593 49.8906 233.568 50.2815 234.572 50.2383C236.724 50.1459 240.503 50.7057 243.569 52.1152C246.763 53.5837 247.826 55.243 247.71 56.8535C247.579 58.6582 247.051 59.8328 246.412 60.6504C245.754 61.4915 244.814 62.1645 243.564 62.6846C240.947 63.7738 237.554 63.9707 234.422 63.9707C232.489 63.9707 230.922 65.5377 230.922 67.4707V84.7549C225.085 90.5512 215.986 90.0153 208.992 84.292C207.782 76.8525 207.084 63.5477 208.531 51.9238C209.298 45.7657 210.629 40.4024 212.59 36.6807C214.536 32.9864 216.684 31.5859 219.041 31.5859Z" fill="black"/>
<path d="M206.22 52.2017C204.287 52.2017 202.72 53.7687 202.72 55.7017C202.72 57.6347 204.287 59.2017 206.22 59.2017H219.72C221.653 59.2017 223.22 57.6347 223.22 55.7017C223.22 53.7687 221.653 52.2017 219.72 52.2017H206.22Z" fill="black"/>
<path d="M206.22 66.7627C204.287 66.7627 202.72 68.3297 202.72 70.2627C202.72 72.1957 204.287 73.7627 206.22 73.7627H217.72C219.653 73.7627 221.22 72.1957 221.22 70.2627C221.22 68.3297 219.653 66.7627 217.72 66.7627H206.22Z" fill="black"/>
<path d="M138.78 209.848C138.78 215.949 134.178 220.894 128.5 220.894C122.822 220.894 118.22 215.949 118.22 209.848C118.22 203.747 122.822 198.802 128.5 198.802C134.178 198.802 138.78 203.747 138.78 209.848Z" fill="black"/>
<path d="M228.22 209.848C228.22 215.949 223.617 220.894 217.94 220.894C212.262 220.894 207.659 215.949 207.659 209.848C207.659 203.747 212.262 198.802 217.94 198.802C223.617 198.802 228.22 203.747 228.22 209.848Z" fill="black"/>
<path d="M152.304 220.014C154.121 219.549 155.97 220.599 156.516 222.372C156.524 222.389 156.541 222.428 156.571 222.482C156.657 222.636 156.852 222.931 157.236 223.26C157.951 223.874 159.695 224.926 163.582 224.926C167.469 224.926 169.213 223.874 169.928 223.26C170.311 222.931 170.505 222.636 170.592 222.482C170.628 222.417 170.645 222.375 170.65 222.364C171.061 221.043 172.216 220.081 173.601 219.926C175.042 219.765 176.432 220.509 177.098 221.795C177.096 221.791 177.094 221.787 177.093 221.784C177.088 221.776 177.085 221.769 177.082 221.763C177.076 221.752 177.072 221.745 177.07 221.742C177.072 221.745 177.078 221.755 177.087 221.769C177.116 221.816 177.181 221.915 177.285 222.05C177.495 222.322 177.855 222.728 178.397 223.147C179.437 223.952 181.293 224.926 184.399 224.926C187.505 224.926 189.361 223.952 190.401 223.147C190.943 222.728 191.304 222.322 191.513 222.05C191.618 221.915 191.684 221.816 191.713 221.769C191.722 221.755 191.726 221.745 191.728 221.742C191.727 221.745 191.723 221.752 191.717 221.763C191.714 221.768 191.711 221.775 191.708 221.782C192.597 220.082 194.692 219.414 196.403 220.29C198.124 221.17 198.804 223.279 197.924 225L194.808 223.405C197.924 224.999 197.923 225.002 197.922 225.003L197.916 225.015C197.913 225.021 197.909 225.027 197.906 225.034C197.899 225.046 197.892 225.06 197.884 225.075C197.867 225.105 197.848 225.14 197.826 225.18C197.781 225.26 197.723 225.358 197.652 225.472C197.51 225.7 197.313 225.993 197.054 226.329C196.537 226.998 195.766 227.847 194.685 228.683C192.481 230.389 189.132 231.926 184.399 231.926C179.753 231.926 176.443 230.443 174.237 228.775C172.02 230.57 168.626 231.926 163.582 231.926C158.345 231.926 154.885 230.468 152.676 228.571C151.598 227.645 150.901 226.684 150.461 225.897C150.242 225.505 150.087 225.158 149.98 224.88C149.927 224.742 149.885 224.619 149.852 224.517C149.836 224.466 149.823 224.42 149.811 224.379C149.805 224.359 149.8 224.34 149.795 224.322C149.792 224.313 149.79 224.305 149.788 224.296C149.787 224.292 149.786 224.288 149.785 224.284C149.784 224.282 149.783 224.279 149.783 224.278C149.785 224.274 149.874 224.249 153.173 223.405L149.782 224.273C149.303 222.4 150.432 220.494 152.304 220.014ZM170.637 222.405C170.632 222.419 170.627 222.438 170.621 222.459C170.618 222.47 170.615 222.482 170.611 222.495C170.609 222.501 170.607 222.508 170.605 222.515C170.604 222.519 170.603 222.522 170.602 222.526C170.617 222.471 170.634 222.417 170.651 222.364C170.649 222.369 170.644 222.382 170.637 222.405ZM156.557 222.515C156.556 222.508 156.554 222.501 156.553 222.495C156.549 222.482 156.546 222.47 156.543 222.459C156.537 222.438 156.531 222.419 156.526 222.405C156.524 222.399 156.523 222.394 156.521 222.389C156.534 222.431 156.546 222.473 156.557 222.515Z" fill="black"/>
</svg>
