<svg width="420" height="420" viewBox="0 0 420 420" fill="none" xmlns="http://www.w3.org/2000/svg">
<path d="M154.119 85.2685C169.719 74.8685 199.953 74.7687 213.119 74.2687C229.119 72.8293 249.619 77.2685 267.619 85.2685C281.119 85.2685 321.619 109.769 340.619 124.269C359.619 138.769 404.119 162.769 399.619 215.769C396.019 258.169 363.619 267.935 345.619 267.269C349.952 296.269 323.119 343.269 213.119 346.769C98.6192 350.412 74.2859 298.102 77.1191 272.769C53.6191 269.435 14.6193 250.169 20.6193 203.769C28.1193 145.769 119.619 81.2685 154.119 85.2685Z" fill="white" stroke="#A5A5A5" stroke-width="4" stroke-linecap="round" stroke-linejoin="round" stroke-dasharray="8 8"/>
<path d="M209.587 96.7705C304.299 96.9899 319.927 173.879 320.186 228.186C320.239 239.377 329.739 255.183 324.823 276.067C316.086 313.176 242.83 329.145 209.383 328.028C175.937 329.145 102.68 313.176 93.944 276.067C89.0274 255.183 98.5268 239.377 98.5801 228.186C98.8389 173.879 114.468 96.9897 209.18 96.7705V96.7686C209.247 96.7686 209.315 96.7695 209.382 96.7695C209.45 96.7695 209.519 96.7686 209.587 96.7686V96.7705Z" fill="#FFD8D4"/>
<path d="M93.3673 250.139C55.4118 255.706 29.6976 224.835 48.3265 187.386C57.2785 169.39 76.3228 154.616 93.3671 144.37C113.293 132.391 132.841 108.439 156.626 108.439L93.3673 250.139Z" fill="#FFD8D4"/>
<path d="M326.871 250.139C364.826 255.706 390.541 224.835 371.912 187.386C362.96 169.39 343.915 154.616 326.871 144.37C306.945 132.391 287.398 108.439 263.612 108.439L326.871 250.139Z" fill="#FFD8D4"/>
<path d="M209.587 96.7705C304.3 96.9892 319.928 173.879 320.187 228.187C320.241 239.377 329.74 255.183 324.824 276.067C316.087 313.177 242.829 329.145 209.383 328.028C175.937 329.145 102.68 313.176 93.944 276.067C89.0274 255.183 98.5273 239.377 98.5807 228.187C98.8394 173.879 114.468 96.9894 209.181 96.7705V96.7686C209.249 96.7686 209.316 96.7695 209.383 96.7695C209.451 96.7695 209.519 96.7686 209.587 96.7686V96.7705Z" fill="#FFD8D4"/>
<path d="M162.923 322.93C163.325 260.99 119.85 239.393 98.0623 236.336C93.0344 244.147 90.6291 270.464 94.5428 278.614C103.593 297.461 114.655 307.648 162.923 322.93Z" fill="#FFA6A8"/>
<path d="M255.505 322.93C255.103 260.99 298.578 239.393 320.365 236.336C325.393 244.147 327.799 270.464 323.885 278.614C314.835 297.461 303.773 307.648 255.505 322.93Z" fill="#FFA6A8"/>
<path d="M156.626 104.939C158.559 104.939 160.126 106.506 160.126 108.439C160.126 110.372 158.559 111.939 156.626 111.939C145.898 111.939 135.834 117.348 125.601 124.748C120.5 128.437 115.547 132.472 110.474 136.455C105.455 140.395 100.351 144.255 95.1699 147.369C78.2574 157.536 59.9481 171.881 51.46 188.945C42.6223 206.711 44.5203 222.331 52.4199 232.783C60.3612 243.291 74.9127 249.308 92.8594 246.676C94.7719 246.396 96.5496 247.719 96.8301 249.631C97.1105 251.544 95.7875 253.321 93.875 253.602C73.8666 256.536 56.5835 249.902 46.836 237.004C37.0469 224.051 35.4014 205.51 45.1924 185.827C54.6081 166.899 74.3876 151.696 91.5635 141.37C96.3448 138.496 101.158 134.87 106.151 130.949C111.09 127.072 116.248 122.873 121.498 119.076C131.966 111.506 143.569 104.939 156.626 104.939Z" fill="black"/>
<path d="M263.612 104.939C261.679 104.939 260.112 106.506 260.112 108.439C260.112 110.372 261.679 111.939 263.612 111.939C274.341 111.939 284.404 117.348 294.638 124.748C299.739 128.437 304.691 132.472 309.765 136.455C314.783 140.395 319.887 144.255 325.068 147.369C341.981 157.536 360.29 171.881 368.778 188.945C377.616 206.711 375.718 222.331 367.818 232.783C359.877 243.291 345.326 249.308 327.379 246.676C325.466 246.396 323.689 247.719 323.408 249.631C323.128 251.544 324.451 253.321 326.363 253.602C346.372 256.536 363.655 249.902 373.402 237.004C383.191 224.051 384.837 205.51 375.046 185.827C365.63 166.899 345.851 151.696 328.675 141.37C323.893 138.496 319.081 134.87 314.087 130.949C309.148 127.072 303.99 122.873 298.74 119.076C288.272 111.506 276.669 104.939 263.612 104.939Z" fill="black"/>
<path d="M313.854 174.866C315.733 174.412 317.624 175.566 318.079 177.444C322.261 194.728 323.612 212.435 323.687 228.17C323.698 230.532 324.214 233.281 325.026 236.626C325.797 239.801 326.901 243.749 327.785 247.733C329.609 255.95 330.857 265.707 328.229 276.869C324.73 291.734 312.072 303.022 296.704 311.264C281.244 319.555 262.335 325.155 244.975 328.339C236.682 330.243 223.612 331.088 210.451 331.058C197.197 331.027 183.459 330.11 173.856 328.352C156.478 325.17 137.542 319.566 122.062 311.264C106.695 303.022 94.0367 291.734 90.5371 276.869C87.9094 265.707 89.1578 255.95 90.9814 247.733C91.8659 243.749 92.9691 239.801 93.7402 236.626C94.5525 233.281 95.0688 230.532 95.0801 228.17C95.155 212.435 96.5051 194.728 100.687 177.444C101.142 175.566 103.034 174.412 104.912 174.866C106.791 175.321 107.946 177.212 107.491 179.091C103.477 195.681 102.153 212.811 102.08 228.203C102.065 231.436 101.373 234.86 100.543 238.278C99.6716 241.866 98.6979 245.274 97.8154 249.25C96.1052 256.955 95.0617 265.543 97.3506 275.266C100.158 287.189 110.619 297.183 125.37 305.095C140.009 312.946 158.191 318.367 175.117 321.466C184.147 323.119 197.424 324.028 210.467 324.058C223.553 324.088 236.014 323.231 243.49 321.499L243.649 321.466C260.576 318.367 278.758 312.946 293.396 305.095C308.147 297.183 318.609 287.189 321.416 275.266C323.705 265.543 322.661 256.955 320.951 249.25C320.069 245.274 319.095 241.866 318.224 238.278C317.393 234.86 316.702 231.436 316.687 228.203C316.613 212.811 315.29 195.681 311.275 179.091C310.821 177.212 311.976 175.321 313.854 174.866ZM209.685 93.2715C232.255 93.3343 250.648 97.3571 265.556 104.848C267.283 105.716 267.979 107.819 267.111 109.546C266.243 111.273 264.14 111.97 262.413 111.103C248.675 104.2 231.379 100.321 209.578 100.271C209.558 100.27 209.538 100.269 209.519 100.269C209.458 100.269 209.608 100.269 209.388 100.27H209.379C209.157 100.269 209.311 100.269 209.247 100.269C209.228 100.269 209.208 100.27 209.188 100.271C187.421 100.321 171.217 104.188 157.455 111.103C155.728 111.97 153.624 111.273 152.756 109.546C151.888 107.819 152.585 105.715 154.312 104.848C169.196 97.3694 186.481 93.3345 209.081 93.2715C209.114 93.2706 209.147 93.2686 209.18 93.2686C209.228 93.2686 209.274 93.2693 209.307 93.2695H209.46C209.493 93.2693 209.539 93.2686 209.587 93.2686C209.62 93.2686 209.652 93.2706 209.685 93.2715Z" fill="black"/>
<path d="M172.537 248.561C172.537 254.75 167.909 259.767 162.199 259.767C156.49 259.767 151.861 254.75 151.861 248.561C151.861 242.372 156.49 237.355 162.199 237.355C167.909 237.355 172.537 242.372 172.537 248.561Z" fill="black"/>
<path d="M262.476 248.561C262.476 254.75 257.848 259.767 252.139 259.767C246.429 259.767 241.801 254.75 241.801 248.561C241.801 242.372 246.429 237.355 252.139 237.355C257.848 237.355 262.476 242.372 262.476 248.561Z" fill="black"/>
<path d="M186.149 258.921C187.968 258.46 189.815 259.515 190.356 261.291C190.363 261.308 190.382 261.351 190.417 261.414C190.507 261.576 190.706 261.878 191.095 262.215C191.817 262.842 193.572 263.908 197.476 263.908C201.381 263.908 203.136 262.842 203.859 262.215C204.248 261.879 204.447 261.576 204.537 261.414C204.583 261.331 204.601 261.283 204.601 261.283C204.601 261.283 204.596 261.296 204.588 261.324C204.583 261.338 204.578 261.355 204.572 261.377C204.569 261.387 204.566 261.399 204.562 261.412C204.561 261.418 204.558 261.425 204.556 261.432C204.556 261.435 204.554 261.439 204.554 261.442C204.553 261.444 204.553 261.447 204.553 261.448V261.449C204.913 260.037 206.109 258.996 207.557 258.836C209.002 258.675 210.393 259.424 211.056 260.715C211.054 260.711 211.053 260.707 211.052 260.704C211.048 260.696 211.044 260.69 211.041 260.684C211.035 260.673 211.032 260.666 211.03 260.664C211.032 260.667 211.038 260.677 211.048 260.693C211.078 260.742 211.144 260.844 211.25 260.983C211.463 261.261 211.828 261.675 212.375 262.102C213.424 262.921 215.291 263.908 218.411 263.908C221.531 263.908 223.398 262.921 224.447 262.102C224.994 261.675 225.358 261.261 225.571 260.983C225.677 260.844 225.744 260.742 225.774 260.693C225.789 260.669 225.795 260.658 225.792 260.664C225.79 260.666 225.786 260.673 225.78 260.684C225.777 260.69 225.774 260.696 225.77 260.704C225.768 260.708 225.766 260.712 225.763 260.716C225.763 260.718 225.761 260.72 225.761 260.721C226.638 259.004 228.741 258.32 230.462 259.193C232.185 260.068 232.873 262.174 231.999 263.898L228.878 262.314L231.997 263.902L231.991 263.914C231.988 263.919 231.984 263.925 231.981 263.931C231.975 263.944 231.968 263.958 231.96 263.973C231.944 264.003 231.924 264.039 231.902 264.079C231.857 264.159 231.799 264.258 231.728 264.373C231.586 264.602 231.39 264.898 231.131 265.237C230.613 265.914 229.838 266.773 228.754 267.62C226.54 269.347 223.174 270.908 218.411 270.908C213.735 270.908 210.406 269.402 208.191 267.712C205.966 269.53 202.553 270.908 197.476 270.908C192.206 270.908 188.727 269.427 186.511 267.506C185.43 266.57 184.732 265.599 184.293 264.806C184.074 264.411 183.921 264.061 183.814 263.783C183.761 263.643 183.718 263.521 183.686 263.419C183.67 263.368 183.657 263.321 183.645 263.281C183.64 263.261 183.634 263.242 183.63 263.224C183.627 263.215 183.625 263.206 183.623 263.198C183.622 263.194 183.621 263.19 183.62 263.186C183.619 263.184 183.619 263.181 183.619 263.18C183.625 263.176 183.769 263.136 187.01 262.314L183.617 263.174C183.142 261.301 184.276 259.397 186.149 258.921ZM190.4 261.449C190.4 261.448 190.4 261.444 190.399 261.442C190.398 261.439 190.397 261.435 190.396 261.432C190.394 261.425 190.393 261.418 190.391 261.412C190.388 261.399 190.385 261.387 190.382 261.377C190.376 261.355 190.37 261.338 190.366 261.324C190.365 261.322 190.364 261.32 190.363 261.318C190.376 261.361 190.389 261.405 190.4 261.449Z" fill="black"/>
<path d="M201.881 255.537C206.932 258.445 208.386 258.406 212.786 255.537C218.334 251.919 211.638 249.606 207.62 249.606C203.603 249.606 196.83 252.629 201.881 255.537Z" fill="black"/>
</svg>
