<svg width="420" height="420" viewBox="0 0 420 420" fill="none" xmlns="http://www.w3.org/2000/svg">
<path d="M224.72 95.1094H204.22C204.22 82.9427 196.92 60.2095 183.72 54.6096C167.22 47.6096 151.72 54.6096 139.72 76.6095C132.92 76.2095 122.886 84.7762 118.72 89.1095C110.886 87.4428 93.3197 85.9095 85.7197 93.1095C71.2197 105.109 74.7197 143.609 89.2197 189.609C85.6197 206.809 83.7198 231.109 83.2199 241.109L78.7199 266.109C66.0532 264.276 41.4199 266.009 44.2199 287.609C47.7199 314.609 63.7199 310.609 83.2199 310.609C112.72 345.109 142.22 365.109 219.72 367.109C297.22 369.109 332.72 334.609 351.22 310.609C379.22 310.109 378.72 287.609 374.22 276.109C370.62 266.91 357.387 268.609 351.22 270.609C351.22 268.109 350.32 259.309 346.72 244.109C348.22 227.609 345.22 204.609 339.72 184.609C363.22 162.609 352.72 101.109 345.22 93.1095C337.72 85.1095 338.72 87.1095 309.22 93.1095C304.82 81.5095 293.053 74.6095 287.72 72.6096C284.553 65.9429 273.32 53.0096 253.72 54.6096C234.12 56.2096 224.553 81.276 224.72 95.1094Z" fill="white" stroke="#A5A5A5" stroke-width="4" stroke-linecap="round" stroke-linejoin="round" stroke-dasharray="8 8"/>
<path d="M322.22 113.265C311.329 109.478 285.493 126.033 276.72 132.345C265.22 150.923 302.72 188.684 314.72 180.547C332.872 168.238 335.834 117.999 322.22 113.265Z" fill="#FFD8D4"/>
<path d="M107.04 113.265C117.931 109.478 143.766 126.033 152.54 132.345C164.04 150.923 126.54 188.684 114.54 180.547C96.3879 168.238 93.4258 117.999 107.04 113.265Z" fill="#FFD8D4"/>
<path d="M214.625 115.275C308.81 115.492 324.352 191.284 324.609 244.817C324.662 255.847 334.11 271.428 329.22 292.014C320.533 328.594 247.683 344.335 214.423 343.234C181.162 344.335 108.313 328.594 99.6247 292.014C94.7354 271.428 104.182 255.847 104.235 244.817C104.492 191.284 120.034 115.491 214.22 115.275V115.273C214.287 115.273 214.355 115.274 214.422 115.274C214.489 115.274 214.557 115.273 214.625 115.273V115.275Z" fill="#FFD8D4"/>
<path d="M310.828 110.384C315.103 109.216 319.619 108.655 323.371 109.96C326.032 110.885 328.034 112.837 329.498 115.122C330.96 117.402 332.012 120.198 332.746 123.217C334.214 129.26 334.545 136.772 333.869 144.376C333.19 151.998 331.479 159.925 328.712 166.812C325.972 173.631 322.043 179.81 316.685 183.444C314.263 185.087 311.418 185.409 308.703 185.043C306.002 184.679 303.189 183.612 300.453 182.148C294.972 179.218 289.2 174.379 284.278 168.774C279.355 163.169 275.087 156.575 272.812 150.004C270.552 143.475 270.09 136.407 273.745 130.503C273.986 130.112 274.303 129.773 274.676 129.505C279.161 126.278 287.978 120.45 297.113 115.886C301.675 113.607 306.428 111.587 310.828 110.384ZM321.071 116.571C319.377 115.982 316.579 116.07 312.673 117.137C308.891 118.171 304.595 119.974 300.241 122.149C291.936 126.298 283.823 131.595 279.373 134.752C277.599 138.078 277.618 142.492 279.426 147.714C281.323 153.193 285.023 159.015 289.537 164.155C294.052 169.295 299.187 173.533 303.753 175.974C306.04 177.197 308.036 177.89 309.638 178.106C311.226 178.32 312.178 178.042 312.756 177.65C316.473 175.129 319.722 170.413 322.217 164.203C324.685 158.06 326.267 150.823 326.896 143.756C327.527 136.67 327.182 129.964 325.944 124.871C325.325 122.323 324.516 120.32 323.605 118.899C322.697 117.482 321.812 116.829 321.071 116.571Z" fill="black"/>
<path d="M118.433 110.384C114.157 109.216 109.642 108.655 105.89 109.96C103.229 110.885 101.227 112.837 99.7623 115.122C98.3006 117.402 97.2491 120.198 96.5152 123.217C95.0469 129.26 94.7153 136.772 95.3922 144.376C96.0708 151.998 97.7813 159.925 100.548 166.812C103.288 173.631 107.217 179.81 112.576 183.444C114.998 185.087 117.843 185.409 120.558 185.043C123.258 184.679 126.072 183.612 128.808 182.148C134.289 179.218 140.06 174.379 144.983 168.774C149.906 163.169 154.174 156.575 156.449 150.004C158.709 143.475 159.171 136.407 155.516 130.503C155.274 130.112 154.958 129.773 154.585 129.505C150.1 126.278 141.283 120.45 132.148 115.886C127.586 113.607 122.833 111.587 118.433 110.384ZM108.19 116.571C109.884 115.982 112.682 116.07 116.588 117.137C120.369 118.171 124.665 119.974 129.02 122.149C137.325 126.298 145.438 131.595 149.887 134.752C151.662 138.078 151.642 142.492 149.835 147.714C147.938 153.193 144.238 159.015 139.723 164.155C135.208 169.295 130.074 173.533 125.507 175.974C123.221 177.197 121.225 177.89 119.623 178.106C118.035 178.32 117.082 178.042 116.504 177.65C112.787 175.129 109.539 170.413 107.044 164.203C104.576 158.06 102.994 150.823 102.365 143.756C101.734 136.67 102.079 129.964 103.317 124.871C103.936 122.323 104.745 120.32 105.656 118.899C106.564 117.482 107.448 116.829 108.19 116.571Z" fill="black"/>
<path d="M172.22 256.867C172.22 262.968 167.743 267.914 162.22 267.914C156.697 267.914 152.22 262.968 152.22 256.867C152.22 250.767 156.697 245.821 162.22 245.821C167.743 245.821 172.22 250.767 172.22 256.867Z" fill="black"/>
<path d="M277.22 256.867C277.22 262.968 272.743 267.914 267.22 267.914C261.697 267.914 257.22 262.968 257.22 256.867C257.22 250.767 261.697 245.821 267.22 245.821C272.743 245.821 277.22 250.767 277.22 256.867Z" fill="black"/>
<path d="M214.625 115.275C308.811 115.491 324.353 191.284 324.61 244.816C324.663 255.847 334.11 271.428 329.22 292.015C320.532 328.594 247.683 344.335 214.423 343.234C181.162 344.335 108.313 328.594 99.6247 292.015C94.7354 271.428 104.182 255.847 104.235 244.816C104.492 191.284 120.034 115.491 214.22 115.275V115.273C214.288 115.273 214.355 115.274 214.423 115.274C214.49 115.274 214.557 115.273 214.625 115.273V115.275Z" fill="#FFD8D4"/>
<path d="M166.22 338.208C166.62 277.152 123.386 255.863 101.719 252.85C96.7195 260.549 94.3275 286.491 98.2194 294.525C107.219 313.103 118.219 323.145 166.22 338.208Z" fill="#FFA6A8"/>
<path d="M258.287 338.208C257.887 277.152 301.121 255.863 322.787 252.85C327.787 260.549 330.179 286.491 326.287 294.525C317.287 313.103 306.287 323.145 258.287 338.208Z" fill="#FFA6A8"/>
<path d="M306.853 163.381C308.569 162.492 310.682 163.162 311.571 164.878C324.634 190.092 327.99 220.009 328.109 244.8C328.12 247.118 328.631 249.821 329.438 253.117C330.204 256.243 331.303 260.139 332.182 264.067C333.997 272.172 335.242 281.804 332.625 292.823C329.155 307.434 316.654 318.528 301.481 326.638C286.22 334.795 267.544 340.323 250.345 343.492C231.563 347.98 200.877 347.608 178.586 343.51C161.362 340.343 142.648 334.809 127.361 326.638C112.189 318.528 99.6886 307.434 96.2185 292.823C93.6014 281.804 94.8451 272.172 96.6599 264.067C97.5394 260.139 98.6383 256.243 99.404 253.117C100.212 249.821 100.723 247.118 100.734 244.8C100.853 220.009 104.208 190.092 117.271 164.878C118.16 163.162 120.273 162.492 121.989 163.381C123.705 164.27 124.375 166.382 123.486 168.099C111.173 191.866 107.851 220.477 107.734 244.833C107.719 248.03 107.029 251.413 106.203 254.783C105.335 258.324 104.368 261.678 103.491 265.597C101.791 273.186 100.757 281.639 103.029 291.206C105.8 302.873 116.097 312.679 130.661 320.464C145.111 328.187 163.075 333.54 179.852 336.625C201.524 340.609 231.243 340.886 248.805 336.665L248.991 336.625C265.769 333.54 283.732 328.187 298.181 320.464C312.746 312.679 323.043 302.873 325.814 291.206C328.086 281.639 327.052 273.186 325.352 265.597C324.475 261.678 323.507 258.324 322.639 254.783C321.814 251.413 321.124 248.03 321.109 244.833C320.992 220.477 317.669 191.866 305.356 168.099C304.467 166.382 305.137 164.27 306.853 163.381ZM214.716 111.776C246.156 111.863 269.341 120.218 286.247 133.619C287.761 134.82 288.016 137.021 286.815 138.536C285.614 140.051 283.413 140.305 281.898 139.104C266.418 126.833 244.812 118.845 214.615 118.775C214.595 118.775 214.575 118.774 214.555 118.773C214.497 118.774 214.64 118.774 214.425 118.774H214.417C214.195 118.774 214.349 118.774 214.287 118.773C214.267 118.774 214.247 118.775 214.227 118.775C184.03 118.845 162.425 126.833 146.944 139.104C145.429 140.305 143.228 140.051 142.027 138.536C140.826 137.021 141.082 134.82 142.596 133.619C159.502 120.219 182.686 111.863 214.126 111.776C214.157 111.776 214.188 111.773 214.219 111.773C214.267 111.773 214.312 111.774 214.344 111.774H214.498C214.531 111.774 214.576 111.773 214.624 111.773C214.654 111.773 214.685 111.776 214.716 111.776Z" fill="black"/>
<path d="M103.808 275.757C112.843 271.774 122.076 271.813 129.816 273.382C137.527 274.946 143.981 278.072 147.684 280.582C149.284 281.666 149.702 283.842 148.618 285.442C147.533 287.042 145.356 287.46 143.756 286.376C140.792 284.367 135.196 281.616 128.424 280.243C121.681 278.875 113.997 278.915 106.632 282.162C96.424 286.662 88.0516 290.169 81.3695 291.945C74.8248 293.685 68.8275 294.073 64.222 290.871C62.6352 289.767 62.2429 287.587 63.3461 286C64.4495 284.413 66.631 284.02 68.2181 285.124C70.1127 286.441 73.3655 286.829 79.5707 285.179C85.6385 283.566 93.5164 280.295 103.808 275.757Z" fill="black"/>
<path d="M318.131 275.757C309.096 271.774 299.863 271.813 292.124 273.382C284.412 274.946 277.958 278.072 274.256 280.582C272.656 281.666 272.238 283.842 273.322 285.442C274.406 287.042 276.583 287.46 278.183 286.376C281.147 284.367 286.744 281.616 293.515 280.243C300.259 278.875 307.943 278.915 315.307 282.162C325.515 286.662 333.888 290.169 340.57 291.945C347.115 293.685 353.112 294.073 357.717 290.871C359.304 289.767 359.697 287.587 358.593 286C357.49 284.413 355.308 284.02 353.721 285.124C351.827 286.441 348.574 286.829 342.369 285.179C336.301 283.566 328.423 280.295 318.131 275.757Z" fill="black"/>
<path d="M170.398 76.1094C187.177 76.1094 186.478 119.179 183.682 134.149C175.292 141.75 162.708 143.132 155.018 134.149V115.494C148.726 115.494 138.938 114.803 138.239 105.129C137.679 97.3907 149.658 94.5348 155.018 94.7651C154.552 89.2375 156.975 76.1094 170.398 76.1094Z" fill="#F9E0B9"/>
<path d="M170.399 72.6094C176.431 72.6094 180.488 76.5925 183.042 81.4414C185.582 86.2629 187.048 92.6027 187.855 99.083C189.473 112.087 188.585 126.959 187.122 134.792C186.982 135.544 186.598 136.229 186.031 136.743C176.683 145.212 161.733 147.374 152.359 136.426C151.817 135.792 151.518 134.984 151.518 134.149V118.896C148.888 118.732 145.896 118.298 143.187 117.171C141.116 116.309 139.085 114.994 137.514 112.985C135.925 110.953 134.967 108.414 134.748 105.382C134.305 99.2539 138.952 95.6159 142.946 93.7793C145.716 92.506 148.832 91.7491 151.552 91.4307C151.804 88.4477 152.635 84.8885 154.446 81.6543C157.214 76.7138 162.27 72.6094 170.399 72.6094ZM170.399 79.6094C165.104 79.6094 162.236 82.0697 160.553 85.0752C158.738 88.3152 158.318 92.2485 158.505 94.4707C158.589 95.4727 158.239 96.463 157.543 97.1885C156.847 97.914 155.872 98.3049 154.867 98.2617C152.715 98.1693 148.936 98.7291 145.87 100.139C142.676 101.607 141.613 103.266 141.73 104.877C141.86 106.682 142.388 107.856 143.027 108.674C143.685 109.515 144.625 110.188 145.875 110.708C148.493 111.797 151.886 111.994 155.018 111.994C156.951 111.994 158.518 113.561 158.518 115.494V132.778C164.354 138.575 173.454 138.039 180.447 132.315C181.658 124.876 182.355 111.571 180.908 99.9473C180.142 93.7891 178.81 88.4258 176.85 84.7041C174.904 81.0098 172.755 79.6094 170.399 79.6094Z" fill="black"/>
<path d="M184.72 102.234C186.653 102.234 188.22 103.801 188.22 105.734C188.22 107.667 186.653 109.234 184.72 109.234H171.22C169.287 109.234 167.72 107.667 167.72 105.734C167.72 103.801 169.287 102.234 171.22 102.234H184.72Z" fill="black"/>
<path d="M184.72 116.795C186.653 116.795 188.22 118.362 188.22 120.295C188.22 122.228 186.653 123.795 184.72 123.795H173.22C171.287 123.795 169.72 122.228 169.72 120.295C169.72 118.362 171.287 116.795 173.22 116.795H184.72Z" fill="black"/>
<path d="M261.041 78.1177C244.262 78.1177 244.961 121.187 247.758 136.158C256.147 143.758 268.731 145.14 276.422 136.158V117.502C282.714 117.502 292.502 116.811 293.201 107.138C293.76 99.399 281.782 96.5431 276.422 96.7734C276.888 91.2458 274.464 78.1177 261.041 78.1177Z" fill="#F9E0B9"/>
<path d="M261.041 74.6177C255.008 74.6177 250.952 78.6008 248.397 83.4497C245.857 88.2712 244.391 94.611 243.585 101.091C241.966 114.095 242.854 128.968 244.317 136.8C244.458 137.552 244.841 138.238 245.408 138.751C254.756 147.22 269.707 149.382 279.08 138.434C279.623 137.8 279.922 136.993 279.922 136.158V120.905C282.552 120.74 285.544 120.306 288.253 119.179C290.324 118.317 292.355 117.003 293.926 114.994C295.515 112.961 296.472 110.422 296.691 107.39C297.134 101.262 292.488 97.6242 288.493 95.7876C285.723 94.5143 282.607 93.7574 279.888 93.439C279.636 90.456 278.805 86.8968 276.993 83.6626C274.226 78.7221 269.169 74.6177 261.041 74.6177ZM261.041 81.6177C266.336 81.6177 269.203 84.078 270.887 87.0835C272.701 90.3235 273.122 94.2568 272.934 96.479C272.85 97.481 273.2 98.4713 273.896 99.1968C274.593 99.9223 275.568 100.313 276.572 100.27C278.724 100.178 282.503 100.737 285.569 102.147C288.763 103.615 289.826 105.275 289.71 106.885C289.579 108.69 289.051 109.864 288.412 110.682C287.754 111.523 286.814 112.196 285.564 112.716C282.947 113.806 279.554 114.002 276.422 114.002C274.489 114.002 272.922 115.569 272.922 117.502V134.787C267.085 140.583 257.986 140.047 250.992 134.324C249.782 126.884 249.084 113.579 250.531 101.956C251.298 95.7974 252.629 90.4341 254.59 86.7124C256.536 83.0181 258.684 81.6177 261.041 81.6177Z" fill="black"/>
<path d="M248.22 102.233C246.287 102.233 244.72 103.8 244.72 105.733C244.72 107.666 246.287 109.233 248.22 109.233H261.72C263.653 109.233 265.22 107.666 265.22 105.733C265.22 103.8 263.653 102.233 261.72 102.233H248.22Z" fill="black"/>
<path d="M248.22 116.794C246.287 116.794 244.72 118.361 244.72 120.294C244.72 122.227 246.287 123.794 248.22 123.794H259.72C261.653 123.794 263.22 122.227 263.22 120.294C263.22 118.361 261.653 116.794 259.72 116.794H248.22Z" fill="black"/>
<path d="M180.78 259.88C180.78 265.981 176.178 270.926 170.5 270.926C164.822 270.926 160.22 265.981 160.22 259.88C160.22 253.779 164.822 248.833 170.5 248.833C176.178 248.833 180.78 253.779 180.78 259.88Z" fill="black"/>
<path d="M270.22 259.88C270.22 265.981 265.617 270.926 259.94 270.926C254.262 270.926 249.659 265.981 249.659 259.88C249.659 253.779 254.262 248.833 259.94 248.833C265.617 248.833 270.22 253.779 270.22 259.88Z" fill="black"/>
<path d="M194.304 270.046C196.121 269.581 197.97 270.63 198.516 272.403C198.524 272.421 198.541 272.46 198.571 272.514C198.657 272.668 198.852 272.962 199.236 273.292C199.951 273.905 201.695 274.958 205.582 274.958C209.469 274.958 211.213 273.905 211.928 273.292C212.311 272.962 212.505 272.668 212.592 272.514C212.628 272.449 212.645 272.407 212.65 272.396C213.061 271.075 214.216 270.113 215.601 269.958C217.042 269.797 218.432 270.541 219.098 271.827C219.096 271.823 219.094 271.819 219.093 271.815C219.088 271.808 219.085 271.801 219.082 271.795C219.076 271.784 219.072 271.776 219.07 271.773C219.072 271.777 219.078 271.786 219.087 271.801C219.116 271.848 219.181 271.947 219.285 272.082C219.495 272.354 219.855 272.76 220.397 273.179C221.437 273.983 223.293 274.958 226.399 274.958C229.505 274.958 231.361 273.983 232.401 273.179C232.943 272.76 233.304 272.354 233.513 272.082C233.618 271.947 233.684 271.848 233.713 271.801C233.722 271.787 233.726 271.777 233.728 271.773C233.727 271.776 233.723 271.784 233.717 271.795C233.714 271.8 233.711 271.807 233.708 271.813C234.597 270.114 236.692 269.445 238.403 270.321C240.124 271.202 240.804 273.311 239.924 275.031L236.808 273.437C239.924 275.031 239.923 275.033 239.922 275.035L239.916 275.047C239.913 275.053 239.909 275.059 239.906 275.065C239.899 275.078 239.892 275.091 239.884 275.106C239.867 275.137 239.848 275.172 239.826 275.212C239.781 275.291 239.723 275.39 239.652 275.504C239.51 275.732 239.313 276.025 239.054 276.36C238.537 277.03 237.766 277.879 236.685 278.715C234.481 280.421 231.132 281.958 226.399 281.958C221.753 281.958 218.443 280.475 216.237 278.807C214.02 280.602 210.626 281.958 205.582 281.958C200.345 281.958 196.885 280.5 194.676 278.603C193.598 277.677 192.901 276.716 192.461 275.929C192.242 275.537 192.087 275.19 191.98 274.912C191.927 274.773 191.885 274.651 191.852 274.549C191.836 274.498 191.823 274.452 191.811 274.411C191.805 274.391 191.8 274.371 191.795 274.354C191.792 274.345 191.79 274.336 191.788 274.328C191.787 274.324 191.786 274.319 191.785 274.315C191.784 274.314 191.783 274.311 191.783 274.31C191.785 274.306 191.874 274.281 195.173 273.437L191.782 274.305C191.303 272.432 192.432 270.525 194.304 270.046ZM212.637 272.437C212.632 272.451 212.627 272.469 212.621 272.491C212.618 272.502 212.615 272.514 212.611 272.526C212.609 272.533 212.607 272.54 212.605 272.547C212.604 272.55 212.603 272.554 212.602 272.558C212.617 272.503 212.634 272.449 212.651 272.396C212.649 272.401 212.644 272.414 212.637 272.437ZM198.557 272.547C198.556 272.54 198.554 272.533 198.553 272.526C198.549 272.514 198.546 272.502 198.543 272.491C198.537 272.469 198.531 272.451 198.526 272.437C198.524 272.431 198.523 272.426 198.521 272.421C198.534 272.463 198.546 272.504 198.557 272.547Z" fill="black"/>
</svg>
