<svg width="302" height="308" viewBox="0 0 302 308" fill="none" xmlns="http://www.w3.org/2000/svg">
<path d="M105.633 20.3536L79.298 28.6761C63.5981 22.8063 29.2608 7.60146 17.5113 14.2308C2.82434 22.5176 6.87615 62.0018 17.5113 108.096C5.35657 125.913 7.35673 159.025 8.87615 173.354C-11.0441 216.513 5.28682 306.479 152.987 305.731C310.998 304.931 311.082 215.823 288.46 173.354C290.993 152.637 291.46 131.92 281.331 108.096C303.615 77.5392 300.615 31.84 288.46 14.2308C278.737 0.14347 237.544 17.9366 219.987 29.6761C215.423 32.7279 210.461 27.8116 188.987 20.3536C164.987 -8.76922 119.476 1.01804 105.633 20.3536Z" fill="white" stroke="#A5A5A5" stroke-width="4" stroke-linecap="round" stroke-linejoin="round" stroke-dasharray="8 8"/>
<path d="M264.433 39.5886C252.795 35.5799 225.187 53.1021 215.812 59.7832C203.524 79.4463 243.596 119.414 256.419 110.801C275.816 97.7732 278.981 44.5994 264.433 39.5886Z" fill="#FFD8D4"/>
<path d="M36.4147 39.5886C47.8588 35.5799 75.0064 53.1021 84.2252 59.7832C96.3092 79.4463 56.905 119.414 44.2957 110.801C25.2221 97.7732 22.1095 44.5994 36.4147 39.5886Z" fill="#FFD8D4"/>
<path d="M150.714 41.0016C250.41 41.2291 266.86 121.006 267.132 177.352C267.189 188.963 277.189 205.362 272.014 227.031C262.818 265.533 185.706 282.102 150.5 280.943C115.293 282.102 38.1817 265.533 28.9856 227.031C23.8103 205.362 33.8096 188.963 33.8657 177.352C34.1381 121.006 50.5892 41.2289 150.286 41.0016V40.9995C150.357 40.9995 150.428 41.0005 150.499 41.0005C150.57 41.0005 150.642 40.9995 150.714 40.9995V41.0016Z" fill="#FFD8D4"/>
<path d="M252.331 36.7348C256.886 35.5017 261.643 34.9263 265.573 36.2797C271.036 38.1616 273.956 44.0943 275.445 50.1635C277.008 56.5352 277.363 64.4656 276.641 72.5014C275.917 80.5561 274.092 88.9286 271.143 96.1987C268.221 103.402 264.042 109.897 258.371 113.706C255.849 115.4 252.881 115.739 250.025 115.358C247.182 114.978 244.207 113.861 241.298 112.321C235.474 109.236 229.328 104.136 224.08 98.2172C218.833 92.2997 214.287 85.3432 211.866 78.4164C209.459 71.5314 208.981 64.1105 212.844 57.9282L212.939 57.7846C213.168 57.4549 213.453 57.1667 213.781 56.933C218.567 53.5225 227.977 47.3625 237.722 42.5405C242.59 40.1319 247.653 38.0012 252.331 36.7348ZM263.294 42.8979C261.404 42.2471 258.347 42.3581 254.16 43.4916C250.095 44.592 245.487 46.5079 240.827 48.8139C231.91 53.2257 223.204 58.8617 218.452 62.2035C216.499 65.792 216.526 70.5345 218.473 76.1069C220.51 81.9347 224.48 88.1183 229.317 93.5737C234.154 99.0285 239.663 103.534 244.575 106.135C247.034 107.438 249.197 108.185 250.952 108.419C252.693 108.652 253.784 108.355 254.467 107.896C258.494 105.191 261.985 100.154 264.657 93.5668C267.302 87.0462 268.996 79.3689 269.67 71.8754C270.345 64.3632 269.976 57.2462 268.647 51.8315C267.244 46.1143 265.104 43.5214 263.294 42.8979Z" fill="black"/>
<path d="M48.3453 36.7388C43.8609 35.5043 39.1535 34.921 35.2574 36.2857C32.5056 37.2497 30.4323 39.2826 28.9107 41.6734C27.3912 44.0611 26.2943 46.9957 25.5269 50.1763C23.9914 56.5409 23.6423 64.4652 24.3521 72.4966C25.0636 80.5464 26.8571 88.9133 29.7555 96.1793C32.6261 103.376 36.7342 109.874 42.3219 113.691C44.8226 115.399 47.7685 115.74 50.5982 115.356C53.4114 114.974 56.3488 113.853 59.2135 112.31C64.95 109.22 70.9979 104.115 76.1588 98.1959C81.3204 92.2762 85.7888 85.3205 88.1676 78.399C90.5311 71.5221 90.9994 64.1209 87.2076 57.9507L87.1139 57.8062C86.8872 57.4751 86.6045 57.1848 86.2789 56.9488C81.5713 53.5372 72.316 47.3747 62.7281 42.5504C57.9392 40.1407 52.9543 38.0077 48.3453 36.7388ZM37.5719 42.8921C39.3977 42.2526 42.3756 42.3557 46.4879 43.4879C50.4758 44.5857 55.0008 46.4993 59.5816 48.8043C68.3417 53.2121 76.8965 58.843 81.5689 62.1841C83.495 65.7845 83.465 70.5442 81.5475 76.1236C79.5426 81.9571 75.6375 88.1418 70.8824 93.5953C66.1266 99.0495 60.7146 103.551 55.8941 106.147C53.4805 107.447 51.3648 108.188 49.6568 108.42C47.9654 108.65 46.9217 108.356 46.2701 107.911C42.321 105.213 38.8878 100.18 36.2574 93.5855C33.6548 87.0608 31.9875 79.3788 31.3248 71.8804C30.6604 64.3636 31.0235 57.2398 32.3316 51.8179C32.986 49.1057 33.8432 46.9623 34.817 45.4322C35.7887 43.9052 36.7476 43.1809 37.5719 42.8921Z" fill="black"/>
<path d="M109.417 191.999C109.417 198.074 104.94 202.999 99.417 202.999C93.8941 202.999 89.417 198.074 89.417 191.999C89.417 185.924 93.8941 180.999 99.417 180.999C104.94 180.999 109.417 185.924 109.417 191.999Z" fill="black"/>
<path d="M214.417 191.999C214.417 198.074 209.94 202.999 204.417 202.999C198.894 202.999 194.417 198.074 194.417 191.999C194.417 185.924 198.894 180.999 204.417 180.999C209.94 180.999 214.417 185.924 214.417 191.999Z" fill="black"/>
<path d="M150.755 41.2378C250.417 41.4652 266.863 121.329 267.135 177.737C267.192 189.36 277.188 205.778 272.014 227.47C262.821 266.014 185.735 282.6 150.541 281.44C115.346 282.6 38.2613 266.014 29.0681 227.47C23.8945 205.778 33.8909 189.36 33.947 177.737C34.2193 121.329 50.6651 41.4652 150.328 41.2378V41.2358C150.399 41.2358 150.47 41.2367 150.541 41.2368C150.612 41.2367 150.683 41.2358 150.755 41.2358V41.2378Z" fill="#FFD8D4"/>
<path d="M85.817 252.971C74.796 242.529 82.4181 214.187 97.9168 212.499C113.415 210.811 125.917 190.499 151.917 190.499C177.917 190.499 180.917 205.22 199.917 209.499C218.917 213.778 225.359 237.426 218.917 247.999C210.864 261.216 188.994 274.999 154.269 274.999C117.72 274.999 101.606 267.932 85.817 252.971Z" fill="#FDFFFF"/>
<path d="M215.916 270.999C215.493 204.477 245.805 187.282 268.73 183.999C272.433 191.999 276.034 219.746 271.916 228.499C262.393 248.74 243.416 256.499 215.916 270.999Z" fill="#FFA6A8"/>
<path d="M83.4164 269.999C83.8396 203.477 55.8523 187.282 32.9272 183.999C29.2239 191.999 25.6231 219.746 29.741 228.499C39.2638 248.74 55.9164 255.499 83.4164 269.999Z" fill="#FFA6A8"/>
<path d="M248.428 91.8901C250.143 90.9982 252.257 91.6655 253.149 93.3804C266.956 119.926 270.507 151.433 270.633 177.559C270.645 180.025 271.191 182.892 272.046 186.37C272.86 189.676 274.019 193.771 274.95 197.912C276.868 206.443 278.179 216.568 275.418 228.149C271.763 243.476 258.591 255.136 242.551 263.675C226.426 272.26 206.686 278.082 188.499 281.421C167.083 286.622 132.301 285.048 112.607 281.442C94.3901 278.106 74.6043 272.277 58.4478 263.675C42.4084 255.136 29.2365 243.476 25.5816 228.149C22.8202 216.568 24.1314 206.443 26.0493 197.912C26.9803 193.771 28.1395 189.676 28.9527 186.37C29.808 182.892 30.3539 180.025 30.3658 177.559C30.4919 151.433 34.0429 119.926 47.8501 93.3804C48.7421 91.6655 50.855 90.9983 52.5699 91.8901C54.2847 92.7821 54.952 94.895 54.0601 96.6099C41.0069 121.706 37.4897 151.904 37.3658 177.593C37.3496 180.942 36.6241 184.49 35.7505 188.042C34.8348 191.765 33.8074 195.314 32.8784 199.447C31.0767 207.462 29.9763 216.402 32.3902 226.525C35.3416 238.902 46.3005 249.278 61.7378 257.497C77.0581 265.653 96.0955 271.302 113.869 274.557C133.067 278.073 166.839 279.506 186.931 274.599L187.13 274.557C204.904 271.302 223.941 265.653 239.261 257.497C254.699 249.278 265.658 238.902 268.609 226.525C271.023 216.402 269.922 207.462 268.121 199.447C267.192 195.314 266.164 191.765 265.249 188.042C264.375 184.49 263.649 180.942 263.633 177.593C263.509 151.904 259.992 121.706 246.939 96.6099C246.047 94.8951 246.714 92.7822 248.428 91.8901ZM150.805 37.5024C184.047 37.5931 208.541 46.39 226.394 60.4858C227.911 61.6837 228.17 63.8847 226.972 65.4019C225.774 66.919 223.573 67.1778 222.056 65.98C205.628 53.0092 182.71 44.5746 150.706 44.5015C150.685 44.5014 150.665 44.4999 150.645 44.4995C150.58 44.4997 150.722 44.5002 150.502 44.5005H150.495C150.268 44.5002 150.423 44.4997 150.353 44.4995C150.333 44.4999 150.313 44.5014 150.293 44.5015C118.289 44.5746 95.3714 53.0093 78.9429 65.98C77.4258 67.1778 75.2247 66.9188 74.0269 65.4019C72.8291 63.8847 73.0879 61.6837 74.605 60.4858C92.4584 46.39 116.952 37.593 150.194 37.5024C150.224 37.5017 150.255 37.4995 150.286 37.4995C150.335 37.4995 150.382 37.5002 150.417 37.5005H150.582C150.616 37.5002 150.664 37.4995 150.713 37.4995C150.744 37.4995 150.775 37.5017 150.805 37.5024Z" fill="black"/>
<path d="M114.734 40.8346C140.459 14.8719 169.317 30.0168 180.53 40.8346C195.866 65.9598 161.824 111.499 149.859 111.499C139.965 111.499 126.607 93.1788 119.682 80.0928C118.099 83.4428 119.682 89.5147 122.155 94.2257C106.16 86.3741 95.5448 60.202 114.734 40.8346Z" fill="#F0998F"/>
<path d="M112.248 38.3713C125.935 24.5577 140.726 21.5218 153.627 23.5861C165.92 25.5531 176.294 32.1006 182.384 37.7697L182.96 38.3156L183.116 38.4758C183.266 38.6409 183.401 38.8199 183.518 39.0109C187.919 46.2213 188.651 54.6943 187.348 63.0168C186.045 71.34 182.672 79.7845 178.491 87.2922C174.306 94.8072 169.219 101.548 164.337 106.458C161.9 108.91 159.445 110.976 157.112 112.451C154.868 113.871 152.344 114.999 149.859 114.999C146.352 114.999 142.951 113.406 139.939 111.302C136.874 109.161 133.851 106.238 131.024 103.009C129.045 100.748 127.121 98.2866 125.302 95.756C125.142 96.0854 124.929 96.3935 124.664 96.6662C123.607 97.7516 121.972 98.0348 120.613 97.3674C111.588 92.9373 104.306 83.5115 101.837 72.6223C99.3319 61.5694 101.77 48.9469 112.248 38.3713ZM152.521 30.4982C141.759 28.7764 129.259 31.1492 117.221 43.298C108.51 52.0897 106.66 62.2366 108.664 71.0744C109.842 76.2712 112.349 80.9947 115.598 84.7189C115.441 82.6426 115.627 80.4812 116.517 78.5969C117.083 77.3991 118.277 76.6241 119.602 76.5939C120.927 76.5639 122.155 77.2842 122.775 78.4553C126.142 84.8164 131.066 92.4299 136.29 98.3976C138.905 101.384 141.509 103.86 143.948 105.563C146.439 107.303 148.418 107.999 149.859 107.999C150.365 107.999 151.522 107.704 153.37 106.535C155.129 105.423 157.177 103.733 159.373 101.524C163.761 97.1105 168.47 90.8963 172.374 83.8859C176.283 76.868 179.292 69.2157 180.432 61.9338C181.545 54.8234 180.843 48.325 177.769 43.0402C172.494 38.0745 163.267 32.2176 152.521 30.4982Z" fill="black"/>
<path d="M112.248 38.3713C125.935 24.5577 140.726 21.5218 153.627 23.5861C165.92 25.5531 176.294 32.1006 182.384 37.7697L182.96 38.3156L183.116 38.4758C183.266 38.6409 183.401 38.8199 183.518 39.0109C187.919 46.2213 188.651 54.6943 187.348 63.0168C186.045 71.34 182.672 79.7845 178.491 87.2922C174.306 94.8072 169.219 101.548 164.337 106.458C161.9 108.91 159.445 110.976 157.112 112.451C154.868 113.871 152.344 114.999 149.859 114.999C146.352 114.999 142.951 113.406 139.939 111.302C136.874 109.161 133.851 106.238 131.024 103.009C129.045 100.748 127.121 98.2866 125.302 95.756C125.142 96.0854 124.929 96.3935 124.664 96.6662C123.607 97.7516 121.972 98.0348 120.613 97.3674C111.588 92.9373 104.306 83.5115 101.837 72.6223C99.3319 61.5694 101.77 48.9469 112.248 38.3713ZM152.521 30.4982C141.759 28.7764 129.259 31.1492 117.221 43.298C108.51 52.0897 106.66 62.2366 108.664 71.0744C109.842 76.2712 112.349 80.9947 115.598 84.7189C115.441 82.6426 115.627 80.4812 116.517 78.5969C117.083 77.3991 118.277 76.6241 119.602 76.5939C120.927 76.5639 122.155 77.2842 122.775 78.4553C126.142 84.8164 131.066 92.4299 136.29 98.3976C138.905 101.384 141.509 103.86 143.948 105.563C146.439 107.303 148.418 107.999 149.859 107.999C150.365 107.999 151.522 107.704 153.37 106.535C155.129 105.423 157.177 103.733 159.373 101.524C163.761 97.1105 168.47 90.8963 172.374 83.8859C176.283 76.868 179.292 69.2157 180.432 61.9338C181.545 54.8234 180.843 48.325 177.769 43.0402C172.494 38.0745 163.267 32.2176 152.521 30.4982Z" fill="black"/>
<path d="M116.977 195.999C116.977 202.074 112.375 206.999 106.697 206.999C101.019 206.999 96.4165 202.074 96.4165 195.999C96.4165 189.924 101.019 184.999 106.697 184.999C112.375 184.999 116.977 189.924 116.977 195.999Z" fill="black"/>
<path d="M206.416 195.999C206.416 202.074 201.814 206.999 196.136 206.999C190.458 206.999 185.855 202.074 185.855 195.999C185.855 189.924 190.458 184.999 196.136 184.999C201.814 184.999 206.416 189.924 206.416 195.999Z" fill="black"/>
<path d="M130.499 208.11C132.315 207.643 134.163 208.69 134.712 210.462C134.719 210.48 134.737 210.516 134.765 210.568C134.85 210.719 135.044 211.011 135.427 211.339C136.142 211.95 137.888 212.999 141.779 212.999C145.669 212.999 147.415 211.95 148.13 211.339C148.513 211.011 148.707 210.719 148.792 210.568C148.826 210.506 148.844 210.465 148.849 210.453C149.262 209.135 150.414 208.176 151.798 208.021C153.236 207.859 154.625 208.601 155.293 209.885C155.29 209.881 155.289 209.876 155.287 209.872C155.283 209.864 155.279 209.857 155.276 209.852C155.27 209.841 155.266 209.833 155.264 209.83C155.266 209.834 155.271 209.843 155.28 209.857C155.309 209.903 155.373 210.002 155.477 210.136C155.686 210.406 156.047 210.809 156.589 211.227C157.628 212.028 159.486 212.999 162.596 212.999C165.706 212.999 167.564 212.028 168.604 211.227C169.146 210.809 169.506 210.406 169.715 210.136C169.82 210.002 169.884 209.903 169.913 209.857C169.927 209.834 169.932 209.825 169.929 209.83C169.928 209.833 169.923 209.841 169.917 209.852C169.914 209.857 169.91 209.864 169.906 209.872C169.904 209.876 169.902 209.881 169.9 209.885C170.788 208.176 172.891 207.505 174.605 208.386C176.324 209.27 177.001 211.38 176.118 213.099L173.006 211.499C175.967 213.021 176.11 213.097 176.116 213.103C176.116 213.103 176.115 213.105 176.114 213.107C176.113 213.109 176.111 213.113 176.11 213.115C176.107 213.121 176.104 213.127 176.1 213.133C176.094 213.146 176.086 213.16 176.078 213.175C176.062 213.205 176.043 213.241 176.02 213.28C175.975 213.36 175.917 213.458 175.846 213.571C175.704 213.799 175.507 214.091 175.248 214.425C174.73 215.093 173.957 215.939 172.877 216.772C170.672 218.471 167.325 219.999 162.596 219.999C157.95 219.999 154.639 218.522 152.433 216.859C150.216 218.648 146.824 219.999 141.779 219.999C136.546 219.999 133.087 218.549 130.878 216.659C129.799 215.737 129.102 214.779 128.661 213.993C128.441 213.603 128.287 213.256 128.179 212.979C128.126 212.84 128.083 212.717 128.05 212.615C128.034 212.565 128.021 212.518 128.009 212.478C128.004 212.457 127.998 212.438 127.993 212.42C127.99 212.411 127.988 212.402 127.986 212.394C127.985 212.39 127.984 212.386 127.983 212.382C127.983 212.38 127.981 212.377 127.981 212.376C127.981 212.373 128.003 212.365 131.37 211.499L127.98 212.37C127.499 210.498 128.627 208.591 130.499 208.11ZM134.757 210.623C134.757 210.622 134.757 210.618 134.757 210.616C134.756 210.613 134.754 210.609 134.754 210.606C134.752 210.599 134.75 210.592 134.749 210.586C134.745 210.573 134.741 210.561 134.738 210.55L134.757 210.623ZM148.836 210.495C148.831 210.51 148.825 210.528 148.819 210.55C148.816 210.561 148.813 210.573 148.809 210.586C148.808 210.592 148.805 210.599 148.803 210.606C148.802 210.609 148.801 210.613 148.8 210.616C148.8 210.618 148.8 210.62 148.799 210.621C148.814 210.565 148.832 210.51 148.849 210.454C148.847 210.461 148.842 210.474 148.836 210.495Z" fill="black"/>
</svg>
