<svg width="327" height="314" viewBox="0 0 327 314" fill="none" xmlns="http://www.w3.org/2000/svg">
<path d="M20.5407 26.3985C48.9407 -12.0015 89.374 10.3985 106.041 26.3985C142.041 6.39857 191.04 1.8984 229.04 26.3985C256.04 -20.6015 303.54 9.39846 318.04 40.3985C332.54 71.3985 322.04 107.399 303.54 116.399C313.141 131.599 304.874 163.732 303.54 177.898C307.04 181.065 311.641 185.498 318.04 195.898C326.04 208.898 314.041 222.898 314.041 232.898C314.041 242.898 318.041 272.898 283.541 278.398C186.541 342.398 84.5405 296.898 47.0405 278.398C11.0405 266.898 16.0405 252.898 16.0405 243.398C16.0405 233.898 8.54049 222.898 4.54049 212.898C0.540488 202.898 7.54046 195.898 20.5407 177.898C20.5407 155.398 24.5405 135.898 30.0405 116.399C7.04053 113.899 -14.9593 74.3985 20.5407 26.3985Z" fill="white" stroke="#A5A5A5" stroke-width="4" stroke-linecap="round" stroke-linejoin="round" stroke-dasharray="8 8"/>
<path d="M292.395 41.6576C299.681 48.1817 310.623 69.043 296.642 90.5517C276.746 108.296 250.056 98.9795 244.276 93.1389L244.272 93.1429C244.24 93.109 244.209 93.0731 244.177 93.0378C244.144 93.0035 244.11 92.9707 244.078 92.9367L244.082 92.9327C238.601 86.7732 227.964 61.4476 248.59 39.4697C261.711 25.488 286.273 33.894 292.395 41.6576Z" fill="#FFD8D4"/>
<path d="M41.1059 42.1308C28.8579 52.3737 22.9727 76.1991 37.9991 92.1647C56.2816 108.296 85.5275 102.098 91.5923 95.9881L91.5962 95.9924C91.6296 95.9569 91.6619 95.9193 91.6957 95.8824C91.7305 95.8465 91.7658 95.8121 91.7992 95.7767L91.7953 95.7724C97.546 89.3287 110.185 65.1231 88.5446 42.1308C73.5181 26.1653 50.3667 31.9404 41.1059 42.1308Z" fill="#FFD8D4"/>
<path d="M46.2313 93.4428C38.0579 88.7239 34.4501 80.507 33.6289 72.1029C32.7917 63.5351 34.9411 55.6264 37.2672 52.2992C37.3829 52.1338 37.484 51.9586 37.5695 51.7757C39.2878 48.0976 45.0623 42.2818 52.9009 38.7229C60.5896 35.2321 69.5096 34.2481 77.683 38.967L78.7354 39.5915C89.4277 46.1042 94.4406 54.5342 96.4877 62.4218C96.9732 64.2928 98.8841 65.4163 100.755 64.9307C102.626 64.445 103.749 62.5349 103.264 60.6641C100.74 50.9415 94.4961 40.7977 81.7925 33.2612L81.183 32.9048C70.45 26.7081 59.0236 28.2564 50.0073 32.3501C41.2843 36.3105 34.0904 42.9781 31.3615 48.54C27.9089 53.684 25.7313 63.2485 26.663 72.7834C27.6259 82.6386 31.9982 93.3083 42.7313 99.505C55.8452 107.076 67.9767 107.466 77.8119 104.748C79.6747 104.233 80.7674 102.305 80.2526 100.442C79.7376 98.5788 77.8092 97.4857 75.9461 98.0007C67.8384 100.242 57.6497 100.035 46.2313 93.4428Z" fill="black"/>
<path d="M289.019 92.217C296.353 87.9825 299.487 80.2063 299.983 71.9472C300.486 63.5774 298.203 55.6922 295.85 52.279C295.744 52.1254 295.651 51.9629 295.571 51.7944C293.791 48.0504 288.104 42.1302 280.604 38.3811C273.203 34.6815 264.902 33.507 257.568 37.7411L256.61 38.3101C246.89 44.256 242.488 52.2476 240.827 59.8868C240.417 61.7755 238.553 62.9747 236.664 62.5644C234.775 62.154 233.577 60.2896 233.987 58.4007C236.047 48.9206 241.634 39.0672 253.497 32.0129L254.068 31.679C264.185 25.8377 275.141 27.8247 283.733 32.1201C292.098 36.3015 299.055 43.0663 301.768 48.5387C305.151 53.6245 307.531 63.0321 306.97 72.3674C306.394 81.9566 302.637 92.4375 292.519 98.2791C280.265 105.354 268.724 105.311 259.337 102.308C257.496 101.719 256.481 99.7493 257.07 97.9082C257.659 96.0673 259.63 95.0526 261.471 95.6416C269.157 98.1003 278.629 98.2158 289.019 92.217Z" fill="black"/>
<path d="M121.345 189.492C121.345 196.025 116.53 201.321 110.591 201.321C104.651 201.321 99.8364 196.025 99.8364 189.492C99.8364 182.958 104.651 177.662 110.591 177.662C116.53 177.662 121.345 182.958 121.345 189.492Z" fill="black"/>
<path d="M234.266 189.492C234.266 196.025 229.451 201.321 223.512 201.321C217.572 201.321 212.757 196.025 212.757 189.492C212.757 182.958 217.572 177.662 223.512 177.662C229.451 177.662 234.266 182.958 234.266 189.492Z" fill="black"/>
<path d="M166.015 37.8555V37.8576C132.848 37.9333 108.75 46.6867 91.327 60.4396C81.0469 67.2466 69.556 84.7845 65.0956 92.7026C51.4504 118.931 47.8597 150.27 47.7327 176.586C47.7066 182 45.5589 188.437 43.7456 195.944C42.8939 199.47 33.6479 203.233 33.1983 207.236C32.5165 213.308 41.0579 219.934 42.7746 227.132C43.9469 232.047 39.6501 240.118 42.7746 244.339C45.5489 248.087 55.5612 248.057 59.5466 251.27C76.7712 265.158 103.866 274.106 128.375 278.593C140.494 281.05 172.605 284.488 204.09 278.593C228.599 274.106 255.694 265.158 272.918 251.27C275.631 249.083 286.703 246.773 288.878 244.339C293.495 239.17 288.186 233.44 289.69 227.132C291.407 219.934 299.008 213.308 298.326 207.236C297.877 203.233 289.571 199.47 288.719 195.944C286.906 188.437 284.758 182 284.732 176.586C284.605 150.27 281.014 118.931 267.369 92.7026C262.93 82.8783 248.032 67.1005 241.138 60.4396C223.715 46.6868 199.616 37.9334 166.45 37.8576V37.8555C166.377 37.8555 166.304 37.8564 166.231 37.8565C166.159 37.8564 166.087 37.8555 166.015 37.8555Z" fill="#FFD8D4"/>
<path d="M119.195 276.602C119.625 211.215 73.13 188.416 49.8289 185.19C46.9171 189.655 43.3763 198.633 33.1597 206.699C32.0064 215.098 41.4572 221.574 43.3763 225.519C45.7733 230.446 39.8957 238.84 43.3763 243.263C46.5026 247.236 51.5506 248.088 57.357 251.329C71.1895 259.049 91.2332 269.611 119.195 276.602Z" fill="#FFA6A8"/>
<path d="M213.739 276.602C213.308 211.215 259.803 188.416 283.104 185.19C286.016 189.655 289.557 198.633 299.773 206.699C300.927 215.098 291.476 221.574 289.557 225.519C287.16 230.446 293.037 238.84 289.557 243.263C286.431 247.236 281.383 248.088 275.576 251.329C261.744 259.049 241.7 269.611 213.739 276.602Z" fill="#FFA6A8"/>
<path d="M148.769 40.0058C162.104 36.1344 172.249 38.3927 175.655 40.0058C176.019 43.9832 176.35 48.5403 176.611 53.4256C186.158 53.0789 198.991 54.6759 199.025 63.1035C199.058 71.4549 186.58 72.5894 177.143 71.897C177.151 75.0352 177.115 78.1838 177.022 81.2913C185.576 81.6294 194.628 83.8896 194.657 90.966C194.686 98.5024 184.528 100.163 175.61 99.9066C173.824 113.035 170.263 122.635 163.825 122.814C157.305 122.995 153.351 113.27 151.067 99.8741C141.96 100.259 131.151 98.7395 131.182 90.966C131.21 83.8416 140.386 81.5992 148.99 81.285C148.785 78.2064 148.629 75.0871 148.519 71.9768C139.268 72.4764 127.857 71.0903 127.889 63.1035C127.921 55.2417 139.091 53.3233 148.341 53.3826C148.412 48.5206 148.564 43.9798 148.769 40.0058Z" fill="#986161"/>
<path d="M85.8561 194.869C88.8673 187.986 61.3003 184.114 47.1404 183.039L43.9141 192.718C56.6401 196.303 82.8449 201.752 85.8561 194.869Z" fill="#986161"/>
<path d="M83.1055 221.163C83.6679 213.671 56.3739 219.146 42.6566 222.819L42.8171 233.02C56.0122 232.189 82.543 228.654 83.1055 221.163Z" fill="#986161"/>
<path d="M246.324 194.869C243.313 187.986 270.88 184.114 285.04 183.039L288.266 192.718C275.54 196.303 249.335 201.752 246.324 194.869Z" fill="#986161"/>
<path d="M249.075 221.163C248.512 213.671 275.806 219.146 289.524 222.819L289.363 233.02C276.168 232.189 249.637 228.654 249.075 221.163Z" fill="#986161"/>
<path d="M265.754 89.5977C267.468 88.7056 269.582 89.3723 270.474 91.0869C284.497 118.04 288.104 150.034 288.232 176.569C288.243 178.863 288.709 181.51 289.461 184.671C289.833 186.237 290.263 187.876 290.721 189.627C291.177 191.366 291.659 193.208 292.122 195.122C292.095 195.012 292.168 195.329 293 196.166C293.764 196.935 294.734 197.731 295.925 198.731C297.03 199.659 298.33 200.771 299.381 201.965C300.391 203.111 301.571 204.768 301.804 206.846C302.064 209.155 301.515 211.322 300.75 213.209C299.989 215.086 298.915 216.921 297.893 218.59C295.7 222.172 293.79 225.03 293.095 227.943C292.571 230.142 293.218 232.079 293.886 235.489C294.5 238.618 294.943 242.803 291.488 246.671C290.364 247.929 288.571 248.784 287.225 249.359C285.702 250.011 283.911 250.635 282.232 251.209C280.498 251.802 278.883 252.341 277.513 252.871C276.028 253.446 275.315 253.834 275.115 253.995C257.23 268.415 229.484 277.494 204.784 282.023C196.081 284.011 180.749 285.105 165.823 285.179C151.011 285.251 135.885 284.325 127.591 282.007C102.914 277.472 75.2134 268.397 57.3502 253.995C56.8533 253.595 55.9646 253.152 54.5406 252.684C53.1397 252.223 51.5876 251.847 49.8336 251.395C48.1694 250.966 46.3137 250.465 44.6695 249.786C43.073 249.127 41.221 248.122 39.9615 246.421C38.6145 244.601 38.1942 242.529 38.1236 240.695C38.054 238.883 38.318 237.023 38.5924 235.409C38.8903 233.657 39.18 232.283 39.357 230.866C39.5305 229.478 39.5152 228.553 39.3697 227.943C38.6999 225.135 36.6513 222.329 34.1969 218.736C33.0637 217.077 31.854 215.241 30.9869 213.359C30.1168 211.472 29.4507 209.246 29.7203 206.846L29.7789 206.439C30.135 204.441 31.39 202.885 32.4059 201.84C33.5577 200.654 34.9858 199.552 36.2027 198.626C37.5138 197.629 38.5932 196.827 39.4361 196.054C40.3797 195.188 40.3962 194.904 40.3434 195.122C40.8058 193.208 41.2883 191.366 41.7438 189.627C42.2025 187.876 42.6319 186.237 43.0045 184.671C43.7563 181.51 44.2219 178.863 44.233 176.569C44.3611 150.034 47.9685 118.04 61.9908 91.0869C62.883 89.3724 64.9959 88.7058 66.7106 89.5977C68.4254 90.4898 69.0929 92.6035 68.2008 94.3184C54.933 119.821 51.359 150.506 51.233 176.604C51.2179 179.723 50.596 183.002 49.8141 186.29C49.4198 187.948 48.9709 189.665 48.5162 191.4C48.0583 193.149 47.5922 194.927 47.1481 196.766C46.6693 198.748 45.2107 200.256 44.1676 201.213C43.0233 202.262 41.6031 203.313 40.44 204.197C39.1829 205.153 38.1612 205.962 37.4264 206.718C36.8375 207.324 36.6968 207.634 36.6725 207.68C36.6148 208.311 36.7673 209.178 37.3443 210.43C37.9406 211.723 38.8459 213.131 39.9772 214.787C42.052 217.824 45.1323 221.93 46.1793 226.319C46.62 228.167 46.5082 230.095 46.3033 231.734C46.1021 233.345 45.732 235.175 45.4928 236.582C45.2301 238.127 45.0787 239.384 45.1188 240.426C45.158 241.446 45.3724 241.966 45.5875 242.257C45.7153 242.429 46.1561 242.827 47.3414 243.316C48.4793 243.786 49.8961 244.182 51.5797 244.616C53.1735 245.027 55.0453 245.48 56.7291 246.034C58.3901 246.581 60.2479 247.34 61.7438 248.546C77.7758 261.471 103.063 270.146 126.721 274.721L129.005 275.15L129.171 275.186C129.225 275.198 129.28 275.212 129.335 275.228C136.528 277.28 150.857 278.252 165.789 278.179C180.659 278.106 195.406 277.002 203.304 275.183C203.356 275.171 203.408 275.16 203.46 275.15C227.761 270.701 254.172 261.888 270.721 248.546C271.878 247.613 273.566 246.893 274.988 246.343C276.525 245.748 278.322 245.147 279.967 244.585C281.667 244.004 283.222 243.458 284.471 242.924C285.898 242.313 286.304 241.966 286.267 242.007C287.43 240.706 287.528 239.442 287.017 236.836C286.562 234.512 285.305 230.429 286.286 226.319C287.308 222.036 290.056 217.982 291.922 214.935C292.93 213.289 293.736 211.877 294.262 210.579C294.784 209.291 294.93 208.353 294.848 207.627C294.857 207.703 294.829 207.387 294.129 206.593C293.471 205.845 292.556 205.045 291.421 204.091C290.374 203.21 289.08 202.153 288.034 201.101C287.055 200.116 285.77 198.639 285.317 196.766C284.873 194.927 284.407 193.149 283.949 191.4C283.494 189.665 283.045 187.948 282.651 186.29C281.869 183.002 281.247 179.723 281.232 176.604C281.106 150.506 277.532 119.821 264.264 94.3184C263.372 92.6036 264.039 90.4899 265.754 89.5977ZM166.541 34.3584C200.305 34.45 225.178 43.383 243.306 57.6924C244.823 58.89 245.083 61.0912 243.885 62.6084C242.688 64.1257 240.487 64.3842 238.969 63.1865C222.267 50.0021 198.968 41.4318 166.442 41.3574C166.422 41.3574 166.402 41.3559 166.381 41.3555C166.314 41.3556 166.457 41.3562 166.236 41.3564H166.227C165.999 41.3562 166.155 41.3556 166.083 41.3555C166.063 41.3558 166.043 41.3574 166.023 41.3574C133.496 41.4317 110.199 50.0021 93.4957 63.1865C91.9785 64.3842 89.7774 64.1256 88.5797 62.6084C87.382 61.0911 87.6415 58.89 89.1588 57.6924C107.287 43.3831 132.16 34.4501 165.923 34.3584C165.954 34.3576 165.985 34.3555 166.015 34.3555C166.065 34.3555 166.113 34.3562 166.148 34.3564H166.316C166.351 34.3562 166.4 34.3555 166.45 34.3555C166.48 34.3555 166.51 34.3576 166.541 34.3584Z" fill="black"/>
<path d="M129.477 198.095C129.477 204.629 124.527 209.925 118.421 209.925C112.315 209.925 107.365 204.629 107.365 198.095C107.365 191.562 112.315 186.265 118.421 186.265C124.527 186.265 129.477 191.562 129.477 198.095Z" fill="black"/>
<path d="M225.663 198.095C225.663 204.629 220.713 209.925 214.607 209.925C208.501 209.925 203.551 204.629 203.551 198.095C203.551 191.562 208.501 186.265 214.607 186.265C220.713 186.265 225.663 191.562 225.663 198.095Z" fill="black"/>
<path d="M132.1 214.227C132.1 205.318 140.904 198.095 151.765 198.095C162.625 198.095 160.674 200.112 166.514 200.112C172.353 200.112 170.402 198.095 181.262 198.095C192.123 198.095 200.928 205.318 200.928 214.227C200.928 223.136 192.123 230.358 181.262 230.358C170.402 230.358 170.201 226.325 166.514 226.325C162.826 226.325 162.625 230.358 151.765 230.358C140.904 230.358 132.1 223.136 132.1 214.227Z" fill="white"/>
<path d="M166.958 219.333C169.147 219.415 170.85 220.089 172.147 220.783C172.734 221.096 173.294 221.447 173.614 221.645C173.992 221.879 174.251 222.035 174.521 222.181C175.239 222.568 176.835 223.358 181.263 223.358V230.358L180.275 230.346C170.386 230.11 170.086 226.326 166.514 226.326C162.826 226.326 162.625 230.358 151.765 230.358V223.358C156.192 223.358 157.789 222.568 158.506 222.181C158.776 222.035 159.035 221.879 159.413 221.645C159.734 221.447 160.293 221.096 160.88 220.783C162.263 220.043 164.109 219.326 166.514 219.326L166.958 219.333ZM193.928 214.227C193.928 210.417 189.618 205.095 181.263 205.095C176.327 205.095 174.846 205.547 174.108 205.78C172.697 206.225 170.692 207.112 166.514 207.112C162.335 207.112 160.329 206.225 158.918 205.78C158.181 205.547 156.7 205.095 151.765 205.095C143.409 205.095 139.1 210.417 139.1 214.227C139.1 218.037 143.41 223.358 151.765 223.358V230.358C141.074 230.358 132.376 223.36 132.106 214.643L132.1 214.227C132.1 205.318 140.904 198.095 151.765 198.095C162.286 198.095 160.784 199.988 165.988 200.106L166.514 200.112C172.353 200.112 170.402 198.095 181.263 198.095L181.77 198.1C192.396 198.321 200.928 205.457 200.928 214.227L200.921 214.643C200.652 223.36 191.954 230.358 181.263 230.358V223.358C189.618 223.358 193.927 218.037 193.928 214.227Z" fill="black"/>
<path d="M159.822 207.623C165.188 210.713 166.733 210.672 171.408 207.623C177.303 203.779 170.188 201.322 165.92 201.322C161.651 201.322 154.455 204.533 159.822 207.623Z" fill="black"/>
</svg>
