<svg width="420" height="420" viewBox="0 0 420 420" fill="none" xmlns="http://www.w3.org/2000/svg">
<path d="M67.6613 79.3985C96.0613 40.9985 136.495 63.3985 153.161 79.3985C189.162 59.3986 238.161 54.8984 276.161 79.3985C303.161 32.3985 350.661 62.3985 365.161 93.3985C379.661 124.398 369.161 160.399 350.661 169.399C360.261 184.599 351.994 216.732 350.661 230.898C354.161 234.065 358.761 238.498 365.161 248.898C373.161 261.898 361.161 275.898 361.161 285.898C361.161 295.898 365.161 325.898 330.661 331.398C233.661 395.398 131.661 349.898 94.1611 331.398C58.1611 319.898 63.1611 305.898 63.1611 296.398C63.1611 286.898 55.6611 275.898 51.6611 265.898C47.6611 255.898 54.6611 248.898 67.6613 230.898C67.6613 208.398 71.6611 188.898 77.1611 169.399C54.1611 166.899 32.1613 127.398 67.6613 79.3985Z" fill="white" stroke="#A5A5A5" stroke-width="4" stroke-linecap="round" stroke-linejoin="round" stroke-dasharray="8 8"/>
<path d="M339.516 94.6576C346.802 101.182 357.743 122.043 343.763 143.552C323.867 161.296 297.177 151.979 291.396 146.139L291.392 146.143C291.361 146.109 291.33 146.073 291.298 146.038C291.264 146.003 291.231 145.971 291.199 145.937L291.203 145.933C285.721 139.773 275.085 114.448 295.71 92.4697C308.832 78.488 333.393 86.894 339.516 94.6576Z" fill="#FFD8D4"/>
<path d="M88.2265 95.1308C75.9785 105.374 70.0933 129.199 85.1197 145.165C103.402 161.296 132.648 155.098 138.713 148.988L138.717 148.992C138.75 148.957 138.783 148.919 138.816 148.882C138.851 148.846 138.886 148.812 138.92 148.777L138.916 148.772C144.667 142.329 157.305 118.123 135.665 95.1308C120.639 79.1653 97.4873 84.9404 88.2265 95.1308Z" fill="#FFD8D4"/>
<path d="M93.3519 146.443C85.1785 141.724 81.5707 133.507 80.7495 125.103C79.9123 116.535 82.0617 108.626 84.3878 105.299C84.5035 105.134 84.6046 104.959 84.6901 104.776C86.4084 101.098 92.1829 95.2818 100.021 91.7229C107.71 88.2321 116.63 87.2481 124.804 91.967L125.856 92.5915C136.548 99.1042 141.561 107.534 143.608 115.422C144.094 117.293 146.005 118.416 147.876 117.931C149.746 117.445 150.87 115.535 150.384 113.664C147.861 103.942 141.617 93.7977 128.913 86.2612L128.304 85.9048C117.571 79.7081 106.144 81.2564 97.1279 85.3501C88.405 89.3105 81.211 95.9781 78.4821 101.54C75.0295 106.684 72.8519 116.249 73.7836 125.783C74.7465 135.639 79.1189 146.308 89.8519 152.505C102.966 160.076 115.097 160.466 124.932 157.748C126.795 157.233 127.888 155.305 127.373 153.442C126.858 151.579 124.93 150.486 123.067 151.001C114.959 153.242 104.77 153.035 93.3519 146.443Z" fill="black"/>
<path d="M336.14 145.217C343.474 140.983 346.607 133.206 347.104 124.947C347.607 116.577 345.323 108.692 342.971 105.279C342.865 105.125 342.771 104.963 342.691 104.794C340.912 101.05 335.224 95.1302 327.724 91.3811C320.324 87.6815 312.022 86.507 304.688 90.7411L303.73 91.3101C294.01 97.256 289.608 105.248 287.948 112.887C287.538 114.776 285.674 115.975 283.785 115.564C281.896 115.154 280.697 113.29 281.108 111.401C283.168 101.921 288.755 92.0672 300.618 85.0129L301.188 84.679C311.306 78.8377 322.261 80.8247 330.854 85.1201C339.219 89.3015 346.176 96.0663 348.889 101.539C352.272 106.624 354.652 116.032 354.091 125.367C353.514 134.957 349.758 145.438 339.64 151.279C327.385 158.354 315.845 158.311 306.458 155.308C304.617 154.719 303.602 152.749 304.191 150.908C304.78 149.067 306.75 148.053 308.591 148.642C316.277 151.1 325.75 151.216 336.14 145.217Z" fill="black"/>
<path d="M168.466 242.492C168.466 249.025 163.651 254.321 157.711 254.321C151.772 254.321 146.957 249.025 146.957 242.492C146.957 235.958 151.772 230.662 157.711 230.662C163.651 230.662 168.466 235.958 168.466 242.492Z" fill="black"/>
<path d="M281.387 242.492C281.387 249.025 276.572 254.321 270.632 254.321C264.693 254.321 259.878 249.025 259.878 242.492C259.878 235.958 264.693 230.662 270.632 230.662C276.572 230.662 281.387 235.958 281.387 242.492Z" fill="black"/>
<path d="M213.136 90.8555V90.8576C179.969 90.9333 155.87 99.6867 138.448 113.44C128.167 120.247 116.677 137.785 112.216 145.703C98.571 171.931 94.9803 203.27 94.8533 229.586C94.8272 235 92.6795 241.437 90.8662 248.944C90.0145 252.47 80.7685 256.233 80.3189 260.236C79.6371 266.308 88.1785 272.934 89.8952 280.132C91.0675 285.047 86.7707 293.118 89.8952 297.339C92.6695 301.087 102.682 301.057 106.667 304.27C123.892 318.158 150.986 327.106 175.495 331.593C187.615 334.05 219.726 337.488 251.211 331.593C275.719 327.106 302.814 318.158 320.039 304.27C322.752 302.083 333.824 299.773 335.998 297.339C340.616 292.17 335.306 286.44 336.811 280.132C338.528 272.934 346.129 266.308 345.447 260.236C344.997 256.233 336.692 252.47 335.84 248.944C334.027 241.437 331.879 235 331.853 229.586C331.726 203.27 328.135 171.931 314.49 145.703C310.05 135.878 295.152 120.1 288.258 113.44C270.835 99.6868 246.737 90.9334 213.57 90.8576V90.8555C213.498 90.8555 213.425 90.8564 213.352 90.8565C213.28 90.8564 213.208 90.8555 213.136 90.8555Z" fill="#FFD8D4"/>
<path d="M166.315 329.602C166.745 264.215 120.251 241.416 96.9495 238.19C94.0377 242.655 90.4969 251.633 80.2803 259.699C79.127 268.098 88.5778 274.574 90.4969 278.519C92.8939 283.446 87.0163 291.84 90.4969 296.263C93.6232 300.236 98.6712 301.088 104.478 304.329C118.31 312.049 138.354 322.611 166.315 329.602Z" fill="#FFA6A8"/>
<path d="M260.859 329.602C260.429 264.215 306.924 241.416 330.225 238.19C333.137 242.655 336.677 251.633 346.894 259.699C348.047 268.098 338.596 274.574 336.677 278.519C334.28 283.446 340.158 291.84 336.677 296.263C333.551 300.236 328.503 301.088 322.697 304.329C308.864 312.049 288.82 322.611 260.859 329.602Z" fill="#FFA6A8"/>
<path d="M195.889 93.0058C209.225 89.1344 219.37 91.3927 222.775 93.0058C223.139 96.9832 223.471 101.54 223.731 106.426C233.278 106.079 246.111 107.676 246.145 116.103C246.179 124.455 233.701 125.589 224.264 124.897C224.272 128.035 224.235 131.184 224.143 134.291C232.697 134.629 241.749 136.89 241.777 143.966C241.807 151.502 231.648 153.163 222.73 152.907C220.944 166.035 217.383 175.635 210.946 175.814C204.425 175.995 200.472 166.27 198.187 152.874C189.081 153.259 178.272 151.74 178.302 143.966C178.331 136.842 187.506 134.599 196.111 134.285C195.905 131.206 195.75 128.087 195.64 124.977C186.389 125.476 174.978 124.09 175.01 116.103C175.041 108.242 186.212 106.323 195.462 106.383C195.532 101.521 195.684 96.9798 195.889 93.0058Z" fill="#986161"/>
<path d="M132.977 247.869C135.988 240.986 108.421 237.114 94.261 236.039L91.0347 245.718C103.761 249.303 129.965 254.752 132.977 247.869Z" fill="#986161"/>
<path d="M130.226 274.163C130.789 266.671 103.495 272.146 89.7772 275.819L89.9377 286.02C103.133 285.189 129.664 281.654 130.226 274.163Z" fill="#986161"/>
<path d="M293.445 247.869C290.433 240.986 318 237.114 332.16 236.039L335.387 245.718C322.661 249.303 296.456 254.752 293.445 247.869Z" fill="#986161"/>
<path d="M296.195 274.163C295.633 266.671 322.927 272.146 336.644 275.819L336.484 286.02C323.289 285.189 296.758 281.654 296.195 274.163Z" fill="#986161"/>
<path d="M312.874 142.598C314.589 141.706 316.703 142.372 317.595 144.087C331.617 171.04 335.225 203.034 335.353 229.569C335.364 231.863 335.829 234.51 336.581 237.671C336.954 239.237 337.383 240.876 337.842 242.627C338.297 244.366 338.78 246.208 339.242 248.122C339.216 248.012 339.289 248.329 340.12 249.166C340.885 249.935 341.855 250.731 343.046 251.731C344.15 252.659 345.45 253.771 346.502 254.965C347.512 256.111 348.692 257.768 348.925 259.846C349.184 262.155 348.635 264.322 347.87 266.209C347.109 268.086 346.036 269.921 345.014 271.59C342.821 275.172 340.911 278.03 340.216 280.943C339.692 283.142 340.338 285.079 341.007 288.489C341.62 291.618 342.063 295.803 338.608 299.671C337.484 300.929 335.691 301.784 334.346 302.359C332.822 303.011 331.031 303.635 329.353 304.209C327.619 304.802 326.004 305.341 324.634 305.871C323.149 306.446 322.435 306.834 322.235 306.995C304.351 321.415 276.604 330.494 251.904 335.023C243.201 337.011 227.87 338.105 212.943 338.179C198.131 338.251 183.005 337.325 174.712 335.007C150.035 330.472 122.334 321.397 104.471 306.995C103.974 306.595 103.085 306.152 101.661 305.684C100.26 305.223 98.7082 304.847 96.9542 304.395C95.29 303.966 93.4343 303.465 91.7901 302.786C90.1936 302.127 88.3416 301.122 87.0821 299.421C85.7351 297.601 85.3148 295.529 85.2442 293.695C85.1746 291.883 85.4386 290.023 85.713 288.409C86.0109 286.657 86.3006 285.283 86.4776 283.866C86.6511 282.478 86.6358 281.553 86.4903 280.943C85.8205 278.135 83.7719 275.329 81.3175 271.736C80.1843 270.077 78.9746 268.241 78.1075 266.359C77.2374 264.472 76.5713 262.246 76.8409 259.846L76.8995 259.439C77.2556 257.441 78.5106 255.885 79.5265 254.84C80.6783 253.654 82.1064 252.552 83.3233 251.626C84.6344 250.629 85.7138 249.827 86.5567 249.054C87.5003 248.188 87.5168 247.904 87.464 248.122C87.9264 246.208 88.4089 244.366 88.8644 242.627C89.3231 240.876 89.7525 239.237 90.1251 237.671C90.8769 234.51 91.3425 231.863 91.3536 229.569C91.4817 203.034 95.0891 171.04 109.111 144.087C110.004 142.372 112.117 141.706 113.831 142.598C115.546 143.49 116.214 145.604 115.321 147.318C102.054 172.821 98.4796 203.506 98.3536 229.604C98.3385 232.723 97.7166 236.002 96.9347 239.29C96.5405 240.948 96.0915 242.665 95.6368 244.4C95.1789 246.149 94.7128 247.927 94.2687 249.766C93.7899 251.748 92.3314 253.256 91.2882 254.213C90.1439 255.262 88.7237 256.313 87.5606 257.197C86.3035 258.153 85.2818 258.962 84.547 259.718C83.9581 260.324 83.8174 260.634 83.7931 260.68C83.7354 261.311 83.8879 262.178 84.4649 263.43C85.0612 264.723 85.9665 266.131 87.0978 267.787C89.1726 270.824 92.2529 274.93 93.2999 279.319C93.7406 281.167 93.6288 283.095 93.4239 284.734C93.2227 286.345 92.8526 288.175 92.6134 289.582C92.3507 291.127 92.1993 292.384 92.2394 293.426C92.2786 294.446 92.493 294.966 92.7081 295.257C92.8359 295.429 93.2767 295.827 94.462 296.316C95.5999 296.786 97.0167 297.182 98.7003 297.616C100.294 298.027 102.166 298.48 103.85 299.034C105.511 299.581 107.369 300.34 108.864 301.546C124.896 314.471 150.183 323.146 173.842 327.721L176.126 328.15L176.291 328.186C176.346 328.198 176.401 328.212 176.455 328.228C183.648 330.28 197.978 331.252 212.909 331.179C227.78 331.106 242.526 330.002 250.425 328.183C250.476 328.171 250.528 328.16 250.58 328.15C274.882 323.701 301.293 314.888 317.842 301.546C318.999 300.613 320.687 299.893 322.109 299.343C323.645 298.748 325.443 298.147 327.088 297.585C328.788 297.004 330.343 296.458 331.592 295.924C333.019 295.313 333.425 294.966 333.388 295.007C334.55 293.706 334.649 292.442 334.138 289.836C333.682 287.512 332.426 283.429 333.406 279.319C334.428 275.036 337.177 270.982 339.043 267.935C340.051 266.289 340.857 264.877 341.383 263.579C341.905 262.291 342.05 261.353 341.969 260.627C341.977 260.703 341.95 260.387 341.25 259.593C340.592 258.845 339.677 258.045 338.542 257.091C337.494 256.21 336.201 255.153 335.154 254.101C334.176 253.116 332.89 251.639 332.438 249.766C331.993 247.927 331.527 246.149 331.069 244.4C330.615 242.665 330.166 240.948 329.772 239.29C328.99 236.002 328.368 232.723 328.353 229.604C328.227 203.506 324.653 172.821 311.385 147.318C310.493 145.604 311.16 143.49 312.874 142.598ZM213.661 87.3584C247.425 87.45 272.299 96.383 290.427 110.692C291.944 111.89 292.204 114.091 291.006 115.608C289.808 117.126 287.607 117.384 286.09 116.187C269.387 103.002 246.089 94.4318 213.563 94.3574C213.542 94.3574 213.522 94.3559 213.502 94.3555C213.435 94.3556 213.577 94.3562 213.357 94.3564H213.348C213.12 94.3562 213.275 94.3556 213.203 94.3555C213.183 94.3558 213.164 94.3574 213.144 94.3574C180.617 94.4317 157.319 103.002 140.616 116.187C139.099 117.384 136.898 117.126 135.7 115.608C134.503 114.091 134.762 111.89 136.279 110.692C154.407 96.3831 179.28 87.4501 213.044 87.3584C213.075 87.3576 213.105 87.3555 213.136 87.3555C213.186 87.3555 213.234 87.3562 213.269 87.3564H213.437C213.472 87.3562 213.52 87.3555 213.57 87.3555C213.601 87.3555 213.631 87.3576 213.661 87.3584Z" fill="black"/>
<path d="M176.597 251.095C176.597 257.629 171.647 262.925 165.541 262.925C159.435 262.925 154.485 257.629 154.485 251.095C154.485 244.562 159.435 239.265 165.541 239.265C171.647 239.265 176.597 244.562 176.597 251.095Z" fill="black"/>
<path d="M272.784 251.095C272.784 257.629 267.834 262.925 261.728 262.925C255.622 262.925 250.672 257.629 250.672 251.095C250.672 244.562 255.622 239.265 261.728 239.265C267.834 239.265 272.784 244.562 272.784 251.095Z" fill="black"/>
<path d="M179.221 267.227C179.221 258.318 188.025 251.095 198.886 251.095C209.747 251.095 207.795 253.112 213.635 253.112C219.474 253.112 217.523 251.095 228.384 251.095C239.244 251.095 248.049 258.318 248.049 267.227C248.049 276.136 239.244 283.358 228.384 283.358C217.523 283.358 217.322 279.325 213.635 279.325C209.947 279.325 209.747 283.358 198.886 283.358C188.025 283.358 179.221 276.136 179.221 267.227Z" fill="white"/>
<path d="M214.079 272.333C216.268 272.415 217.972 273.089 219.269 273.783C219.855 274.096 220.415 274.447 220.735 274.645C221.114 274.879 221.372 275.035 221.643 275.181C222.36 275.568 223.956 276.358 228.384 276.358V283.358L227.396 283.346C217.507 283.11 217.207 279.326 213.635 279.326C209.948 279.326 209.746 283.358 198.886 283.358V276.358C203.313 276.358 204.91 275.568 205.627 275.181C205.897 275.035 206.156 274.879 206.534 274.645C206.855 274.447 207.414 274.096 208.001 273.783C209.384 273.043 211.23 272.326 213.635 272.326L214.079 272.333ZM241.049 267.227C241.049 263.417 236.739 258.095 228.384 258.095C223.448 258.095 221.967 258.547 221.229 258.78C219.818 259.225 217.813 260.112 213.635 260.112C209.456 260.112 207.45 259.225 206.039 258.78C205.302 258.547 203.821 258.095 198.886 258.095C190.531 258.095 186.221 263.417 186.221 267.227C186.221 271.037 190.531 276.358 198.886 276.358V283.358C188.195 283.358 179.497 276.36 179.228 267.643L179.221 267.227C179.221 258.318 188.025 251.095 198.886 251.095C209.407 251.095 207.905 252.988 213.109 253.106L213.635 253.112C219.474 253.112 217.523 251.095 228.384 251.095L228.891 251.1C239.517 251.321 248.049 258.457 248.049 267.227L248.042 267.643C247.773 276.36 239.075 283.358 228.384 283.358V276.358C236.739 276.358 241.049 271.037 241.049 267.227Z" fill="black"/>
<path d="M206.942 260.623C212.309 263.713 213.853 263.672 218.529 260.623C224.424 256.779 217.309 254.322 213.04 254.322C208.772 254.322 201.576 257.533 206.942 260.623Z" fill="black"/>
</svg>
