<svg width="419" height="333" viewBox="0 0 419 333" fill="none" xmlns="http://www.w3.org/2000/svg">
<path d="M239.213 52.8299C217.613 40.0299 186.88 47.4966 174.213 52.8299C154.713 14.33 62.2131 -30.1702 14.7128 56.3298C-24.3684 142.391 35.2129 193.33 72.2132 193.33C69.7132 202.663 64.1132 224.53 61.7132 237.33C58.7132 253.33 48.7132 328.83 209.713 330.83C338.513 332.43 363.713 265.83 356.213 237.33L343.213 196.83C349.88 198.497 368.713 195.63 390.713 170.83C425.213 134.83 431.879 56.3298 370.213 18.83C296.213 -26.17 252.713 30.8299 239.213 52.8299Z" fill="white" stroke="#A5A5A5" stroke-width="4" stroke-linecap="round" stroke-linejoin="round" stroke-dasharray="8 8"/>
<path d="M50.7375 55.1783C63.5237 40.1848 112.31 21.4798 142.22 50.9529C185.293 93.3976 163.08 142.307 151.633 154.203L151.641 154.211C151.575 154.276 151.504 154.34 151.435 154.406C151.368 154.474 151.304 154.543 151.237 154.609L151.229 154.601C139.157 165.881 89.5231 187.77 46.4496 145.325C16.5398 115.852 35.5219 67.7778 50.7375 55.1783Z" fill="#FFD8D4"/>
<path d="M365.688 55.325C380.793 68.0178 399.637 116.448 369.945 146.14C327.186 188.899 277.914 166.847 265.93 155.484L265.922 155.492C265.856 155.426 265.793 155.356 265.726 155.288C265.657 155.221 265.587 155.157 265.521 155.091L265.529 155.083C254.166 143.1 232.115 93.8274 274.874 51.0683C304.565 21.3769 352.996 40.2204 365.688 55.325Z" fill="#FFD8D4"/>
<path d="M76.5492 79.6966C84.7623 70.3673 116.099 58.7286 135.312 77.0674C162.979 103.477 148.711 133.91 141.358 141.312L141.363 141.317C141.321 141.357 141.275 141.397 141.231 141.438C141.188 141.481 141.146 141.524 141.104 141.564L141.099 141.56C133.345 148.578 101.463 162.198 73.7949 135.788C54.5828 117.449 66.7757 87.5363 76.5492 79.6966Z" fill="#F76363"/>
<path d="M348.73 76.6966C340.517 67.3673 309.18 55.7286 289.968 74.0674C262.3 100.477 276.569 130.91 283.921 138.312L283.916 138.317C283.959 138.357 284.004 138.397 284.048 138.438C284.092 138.481 284.133 138.524 284.176 138.564L284.181 138.56C291.935 145.578 323.817 159.198 351.484 132.788C370.696 114.449 358.504 84.5363 348.73 76.6966Z" fill="#F76363"/>
<path d="M355.509 154.975C372.429 145.206 379.728 128.251 381.375 111.4C383.037 94.3841 378.848 78.3176 373.803 71.101C373.687 70.9355 373.586 70.7604 373.501 70.5775C369.773 62.5998 357.954 50.9387 342.387 43.8707C326.97 36.8709 308.637 34.7145 291.716 44.4835L290.657 45.1027C268.616 58.1761 258.206 75.412 253.996 91.633C253.511 93.5038 251.601 94.6267 249.73 94.1414C247.859 93.6559 246.735 91.745 247.221 89.874C251.874 71.9454 263.386 53.1423 287.079 39.0868L288.216 38.4213C307.696 27.1746 328.536 29.8939 345.281 37.4965C361.723 44.9619 374.962 57.4674 379.71 67.3408C385.887 76.389 390.098 94.1079 388.342 112.08C386.553 130.383 378.489 149.791 359.009 161.037C334.545 175.162 312.088 175.827 293.951 170.813C292.088 170.299 290.995 168.371 291.51 166.508C292.025 164.645 293.953 163.552 295.816 164.067C312.225 168.603 332.74 168.121 355.509 154.975Z" fill="black"/>
<path d="M61.6006 154.975C44.6803 145.206 37.3813 128.251 35.7346 111.4C34.0721 94.3841 38.2612 78.3176 43.3066 71.101C43.4223 70.9355 43.5233 70.7604 43.6088 70.5775C47.3359 62.5998 59.1553 50.9387 74.7224 43.8707C90.1398 36.8709 108.473 34.7145 125.393 44.4835L126.452 45.1027C148.494 58.1761 158.903 75.412 163.113 91.633C163.599 93.5038 165.509 94.6267 167.38 94.1414C169.251 93.6559 170.374 91.745 169.889 89.874C165.236 71.9454 153.724 53.1423 130.03 39.0868L128.893 38.4213C109.413 27.1746 88.5733 29.8939 71.8285 37.4965C55.386 44.9619 42.1469 57.4674 37.3992 67.3408C31.2223 76.389 27.0113 94.1079 28.7674 112.08C30.5559 130.383 38.6207 149.791 58.1006 161.037C82.5643 175.162 105.022 175.827 123.158 170.813C125.021 170.299 126.114 168.371 125.599 166.508C125.084 164.645 123.156 163.552 121.293 164.067C104.884 168.603 84.369 168.121 61.6006 154.975Z" fill="black"/>
<path d="M211.043 77.3757C305.23 77.5906 320.772 153.066 321.029 206.374C321.082 217.358 330.529 232.874 325.64 253.374C316.952 289.8 244.102 305.475 210.841 304.379C177.581 305.475 104.731 289.8 96.0435 253.374C91.1542 232.874 100.602 217.358 100.655 206.374C100.912 153.066 116.454 77.5907 210.64 77.3757V77.3738C210.707 77.3738 210.774 77.3747 210.841 77.3748C210.909 77.3747 210.976 77.3738 211.043 77.3738V77.3757Z" fill="#FFD8D4"/>
<path d="M164.639 299.374C165.039 238.574 121.806 217.374 100.139 214.374C95.1394 222.04 92.7475 247.874 96.6394 255.874C105.639 274.374 116.639 284.374 164.639 299.374Z" fill="#FFA6A8"/>
<path d="M256.707 299.374C256.307 238.574 299.541 217.374 321.207 214.374C326.207 222.04 328.599 247.874 324.707 255.874C315.707 274.374 304.707 284.374 256.707 299.374Z" fill="#FFA6A8"/>
<path d="M314.717 153.974C316.595 153.514 318.49 154.663 318.951 156.541C323.112 173.517 324.455 190.907 324.53 206.357C324.541 208.662 325.051 211.35 325.859 214.633C326.624 217.744 327.723 221.626 328.603 225.538C330.418 233.611 331.663 243.207 329.044 254.185C325.555 268.815 312.945 279.902 297.67 287.988C282.3 296.125 263.503 301.621 246.245 304.746C239.426 306.238 227.593 307.28 214.689 307.446C201.715 307.613 187.353 306.899 175.517 304.76C158.237 301.638 139.407 296.138 124.013 287.988C108.739 279.902 96.1285 268.815 92.6392 254.185C90.0209 243.207 91.2663 233.611 93.0816 225.538C93.9611 221.626 95.0603 217.744 95.8257 214.633C96.6332 211.35 97.1436 208.662 97.1548 206.357C97.2294 190.907 98.5723 173.517 102.734 156.541C103.194 154.663 105.089 153.514 106.966 153.974C108.844 154.435 109.993 156.33 109.533 158.207C105.543 174.481 104.228 191.287 104.155 206.39C104.139 209.578 103.448 212.949 102.623 216.305C101.755 219.833 100.788 223.171 99.9107 227.073C98.2117 234.629 97.1779 243.041 99.4487 252.562C102.231 264.228 112.612 274.032 127.289 281.802C141.846 289.508 159.928 294.831 176.762 297.873C187.996 299.903 201.87 300.611 214.598 300.447C227.364 300.283 238.671 299.244 244.792 297.898C244.835 297.889 244.879 297.881 244.922 297.873C261.756 294.831 279.838 289.508 294.395 281.802C309.072 274.032 319.452 264.228 322.235 252.562C324.506 243.041 323.472 234.629 321.773 227.073C320.895 223.171 319.929 219.833 319.061 216.305C318.235 212.949 317.545 209.578 317.53 206.39C317.457 191.287 316.142 174.481 312.152 158.207C311.692 156.33 312.84 154.435 314.717 153.974ZM211.138 73.8767C246.521 73.9745 271.424 84.5037 288.68 100.832C290.084 102.16 290.145 104.375 288.817 105.779C287.488 107.183 285.273 107.244 283.869 105.916C268.102 90.9969 244.987 80.9533 211.036 80.8757C211.016 80.8757 210.996 80.8742 210.976 80.8738C210.917 80.8739 211.064 80.8745 210.846 80.8748H210.838C210.62 80.8745 210.767 80.8739 210.708 80.8738C210.688 80.8742 210.668 80.8757 210.648 80.8757C176.696 80.9533 153.582 90.9968 137.815 105.916C136.411 107.244 134.195 107.183 132.867 105.779C131.539 104.375 131.6 102.16 133.004 100.832C150.261 84.5039 175.163 73.9748 210.544 73.8767C210.576 73.8759 210.608 73.8738 210.64 73.8738C210.688 73.8738 210.733 73.8745 210.765 73.8748H210.918C210.951 73.8745 210.997 73.8738 211.044 73.8738C211.076 73.8738 211.107 73.8759 211.138 73.8767Z" fill="black"/>
<path d="M88.3524 236.243C90.2724 236.024 92.3784 236.01 94.4227 236.102C98.5124 236.287 102.693 236.916 105.326 237.442C107.221 237.821 108.45 239.665 108.071 241.56C107.692 243.456 105.848 244.685 103.953 244.306C101.586 243.832 97.7664 243.261 94.1063 243.096C92.2757 243.013 90.569 243.036 89.1453 243.198C87.645 243.369 86.7994 243.659 86.4403 243.875C84.7828 244.869 82.6331 244.332 81.6385 242.675C80.644 241.017 81.1813 238.867 82.8387 237.873C84.4796 236.888 86.5091 236.453 88.3524 236.243Z" fill="black"/>
<path d="M113.078 264.039C114.92 263.453 116.888 264.47 117.475 266.312C118.061 268.154 117.043 270.122 115.201 270.709C113.596 271.22 110.888 272.317 108.241 273.877C105.53 275.475 103.276 277.329 102.12 279.208C101.107 280.854 98.952 281.367 97.3058 280.354C95.6595 279.341 95.1463 277.186 96.1593 275.54C98.2031 272.218 101.616 269.656 104.688 267.846C107.824 265.998 111.017 264.695 113.078 264.039Z" fill="black"/>
<path d="M332.427 236.243C330.507 236.024 328.401 236.01 326.357 236.102C322.267 236.287 318.087 236.916 315.453 237.442C313.558 237.821 312.329 239.665 312.708 241.56C313.087 243.456 314.931 244.685 316.826 244.306C319.193 243.832 323.013 243.261 326.673 243.096C328.504 243.013 330.21 243.036 331.634 243.198C333.134 243.369 333.98 243.659 334.339 243.875C335.997 244.869 338.146 244.332 339.141 242.675C340.135 241.017 339.598 238.867 337.941 237.873C336.3 236.888 334.27 236.453 332.427 236.243Z" fill="black"/>
<path d="M307.701 264.039C305.859 263.453 303.891 264.47 303.305 266.312C302.719 268.154 303.736 270.122 305.578 270.709C307.183 271.22 309.891 272.317 312.538 273.877C315.25 275.475 317.503 277.329 318.659 279.208C319.672 280.854 321.827 281.367 323.474 280.354C325.12 279.341 325.633 277.186 324.62 275.54C322.576 272.218 319.163 269.656 316.092 267.846C312.955 265.998 309.762 264.695 307.701 264.039Z" fill="black"/>
<path d="M176.2 226.374C176.2 232.449 171.598 237.374 165.92 237.374C160.242 237.374 155.64 232.449 155.64 226.374C155.64 220.299 160.242 215.374 165.92 215.374C171.598 215.374 176.2 220.299 176.2 226.374Z" fill="black"/>
<path d="M265.64 226.374C265.64 232.449 261.037 237.374 255.359 237.374C249.682 237.374 245.079 232.449 245.079 226.374C245.079 220.299 249.682 215.374 255.359 215.374C261.037 215.374 265.64 220.299 265.64 226.374Z" fill="black"/>
<path d="M189.722 236.484C191.538 236.017 193.386 237.065 193.935 238.837C193.943 238.854 193.96 238.891 193.988 238.942C194.074 239.094 194.267 239.386 194.651 239.714C195.365 240.324 197.111 241.374 201.002 241.374C204.892 241.374 206.638 240.324 207.353 239.714C207.736 239.386 207.93 239.094 208.015 238.942C208.05 238.88 208.067 238.84 208.072 238.828C208.485 237.51 209.637 236.55 211.021 236.395C212.46 236.234 213.848 236.976 214.516 238.259C214.513 238.255 214.512 238.251 214.51 238.247C214.506 238.239 214.502 238.232 214.499 238.226C214.493 238.215 214.489 238.208 214.487 238.205C214.49 238.208 214.494 238.217 214.503 238.231C214.532 238.277 214.596 238.376 214.7 238.51C214.909 238.78 215.27 239.184 215.812 239.601C216.851 240.402 218.71 241.374 221.819 241.374C224.929 241.374 226.787 240.402 227.827 239.601C228.369 239.184 228.73 238.78 228.939 238.51C229.043 238.376 229.107 238.277 229.136 238.231C229.15 238.209 229.155 238.2 229.153 238.205C229.151 238.208 229.146 238.215 229.14 238.226C229.137 238.232 229.133 238.239 229.129 238.247C229.127 238.251 229.125 238.255 229.123 238.259C230.011 236.551 232.114 235.879 233.828 236.76C235.547 237.644 236.224 239.754 235.341 241.473L232.229 239.874C235.19 241.396 235.333 241.472 235.339 241.477C235.339 241.478 235.338 241.48 235.337 241.481C235.336 241.484 235.335 241.487 235.333 241.49C235.33 241.496 235.327 241.501 235.323 241.508C235.317 241.52 235.309 241.534 235.301 241.549C235.285 241.58 235.266 241.615 235.243 241.655C235.198 241.734 235.141 241.832 235.069 241.946C234.927 242.173 234.73 242.465 234.471 242.799C233.953 243.467 233.18 244.313 232.1 245.146C229.895 246.845 226.548 248.374 221.819 248.374C217.173 248.374 213.862 246.896 211.656 245.233C209.439 247.023 206.047 248.374 201.002 248.374C195.769 248.374 192.31 246.923 190.101 245.034C189.022 244.112 188.325 243.154 187.884 242.368C187.665 241.977 187.51 241.63 187.403 241.353C187.349 241.214 187.306 241.092 187.274 240.99C187.257 240.939 187.244 240.893 187.233 240.852C187.227 240.832 187.221 240.812 187.216 240.795C187.214 240.786 187.211 240.776 187.209 240.768C187.208 240.764 187.207 240.76 187.206 240.757C187.206 240.755 187.205 240.752 187.204 240.751C187.204 240.748 187.226 240.739 190.593 239.874L187.203 240.745C186.722 238.873 187.85 236.965 189.722 236.484ZM193.981 238.998C193.98 238.997 193.98 238.993 193.98 238.991C193.979 238.987 193.978 238.984 193.977 238.98C193.975 238.973 193.974 238.967 193.972 238.961C193.968 238.948 193.964 238.935 193.961 238.924L193.981 238.998ZM208.059 238.87C208.054 238.884 208.048 238.902 208.042 238.924C208.039 238.935 208.036 238.948 208.032 238.961C208.031 238.967 208.028 238.973 208.027 238.98C208.026 238.984 208.025 238.987 208.024 238.991C208.023 238.992 208.023 238.995 208.023 238.996C208.037 238.939 208.055 238.884 208.072 238.829C208.07 238.835 208.065 238.849 208.059 238.87Z" fill="black"/>
<path d="M205.417 233.233C210.407 236.106 211.844 236.068 216.191 233.233C221.672 229.658 215.057 227.374 211.087 227.374C207.118 227.374 200.427 230.36 205.417 233.233Z" fill="black"/>
</svg>
