<svg width="384" height="277" viewBox="0 0 384 277" fill="none" xmlns="http://www.w3.org/2000/svg">
<path d="M136.046 13.2192C151.646 2.81923 181.879 2.71943 195.046 2.21943C211.046 0.780028 231.546 5.21923 249.546 13.2192C263.046 13.2192 303.546 37.7192 322.546 52.2192C341.546 66.7192 386.046 90.7192 381.546 143.719C377.946 186.119 345.546 195.886 327.546 195.219C331.879 224.219 305.046 271.219 195.046 274.719C80.546 278.362 56.2126 226.053 59.0459 200.719C35.5459 197.386 -3.45399 178.119 2.54601 131.719C10.046 73.7192 101.546 9.21923 136.046 13.2192Z" fill="white" stroke="#A5A5A5" stroke-width="4" stroke-linecap="round" stroke-linejoin="round" stroke-dasharray="8 8"/>
<path d="M191.513 24.7212C286.225 24.9405 301.854 101.83 302.112 156.137C302.166 167.328 311.666 183.134 306.749 204.018C298.013 241.127 224.757 257.096 191.31 255.979C157.864 257.096 84.6072 241.127 75.8708 204.018C70.9542 183.134 80.4536 167.328 80.5069 156.137C80.7657 101.83 96.3944 24.9403 191.107 24.7212V24.7192C191.174 24.7192 191.242 24.7202 191.309 24.7202C191.377 24.7202 191.445 24.7192 191.513 24.7192V24.7212Z" fill="#FFD8D4"/>
<path d="M75.294 178.09C37.3386 183.656 11.6244 152.786 30.2533 115.337C39.2052 97.3407 58.2496 82.5665 75.2939 72.3205C95.22 60.3421 114.767 36.3894 138.553 36.3894L75.294 178.09Z" fill="#FFD8D4"/>
<path d="M308.798 178.09C346.753 183.656 372.467 152.786 353.839 115.337C344.887 97.3407 325.842 82.5665 308.798 72.3205C288.872 60.3421 269.324 36.3894 245.539 36.3894L308.798 178.09Z" fill="#FFD8D4"/>
<path d="M191.513 24.7212C286.226 24.9399 301.855 101.83 302.114 156.137C302.167 167.328 311.667 183.134 306.751 204.018C298.014 241.127 224.756 257.096 191.31 255.979C157.864 257.096 84.6069 241.127 75.8707 204.018C70.9541 183.134 80.454 167.328 80.5074 156.137C80.7662 101.83 96.3952 24.9401 191.108 24.7212V24.7192C191.175 24.7192 191.243 24.7201 191.31 24.7202C191.378 24.7201 191.446 24.7192 191.513 24.7192V24.7212Z" fill="#FFD8D4"/>
<path d="M144.85 250.88C145.252 188.941 101.777 167.343 79.9891 164.287C74.9612 172.097 72.5559 198.415 76.4695 206.565C85.5198 225.412 96.5813 235.599 144.85 250.88Z" fill="#FFA6A8"/>
<path d="M237.432 250.88C237.029 188.941 280.504 167.343 302.292 164.287C307.32 172.097 309.725 198.415 305.812 206.565C296.761 225.412 285.7 235.599 237.432 250.88Z" fill="#FFA6A8"/>
<path d="M138.553 32.8894C140.486 32.8894 142.053 34.4564 142.053 36.3894C142.053 38.3224 140.486 39.8894 138.553 39.8894C127.824 39.8894 117.761 45.2983 107.527 52.699C102.426 56.3878 97.4742 60.423 92.4004 64.406C87.3817 68.3458 82.2782 72.2052 77.0967 75.3201C60.1842 85.4869 41.8748 99.8318 33.3867 116.895C24.549 134.662 26.4471 150.281 34.3467 160.734C42.288 171.242 56.8395 177.259 74.7861 174.627C76.6987 174.346 78.4763 175.669 78.7569 177.582C79.0373 179.494 77.7143 181.272 75.8018 181.552C55.7934 184.487 38.5102 177.852 28.7627 164.955C18.9737 152.002 17.3282 133.461 27.1192 113.778C36.5348 94.8499 56.3144 79.6462 73.4902 69.321C78.2715 66.4468 83.0844 62.8203 88.0781 58.9001C93.0169 55.0231 98.175 50.8237 103.425 47.0271C113.893 39.457 125.496 32.8894 138.553 32.8894Z" fill="black"/>
<path d="M245.539 32.8894C243.606 32.8894 242.039 34.4564 242.039 36.3894C242.039 38.3224 243.606 39.8894 245.539 39.8894C256.267 39.8894 266.331 45.2983 276.564 52.699C281.665 56.3878 286.618 60.423 291.691 64.406C296.71 68.3458 301.814 72.2052 306.995 75.3201C323.908 85.4869 342.217 99.8318 350.705 116.895C359.543 134.662 357.645 150.281 349.745 160.734C341.804 171.242 327.252 177.259 309.306 174.627C307.393 174.346 305.615 175.669 305.335 177.582C305.055 179.494 306.378 181.272 308.29 181.552C328.298 184.487 345.582 177.852 355.329 164.955C365.118 152.002 366.764 133.461 356.973 113.778C347.557 94.8499 327.777 79.6462 310.602 69.321C305.82 66.4468 301.007 62.8203 296.014 58.9001C291.075 55.0231 285.917 50.8237 280.667 47.0271C270.199 39.457 258.596 32.8894 245.539 32.8894Z" fill="black"/>
<path d="M295.781 102.817C297.66 102.362 299.551 103.517 300.006 105.395C304.188 122.679 305.538 140.386 305.613 156.121C305.625 158.483 306.141 161.232 306.953 164.577C307.724 167.752 308.827 171.699 309.712 175.684C311.536 183.901 312.784 193.658 310.156 204.82C306.657 219.685 293.998 230.972 278.631 239.214C263.17 247.506 244.262 253.106 226.901 256.29C218.609 258.194 205.539 259.038 192.378 259.008C179.124 258.978 165.386 258.06 155.783 256.302C138.405 253.121 119.469 247.516 103.989 239.214C88.6217 230.972 75.9635 219.685 72.4639 204.82C69.8361 193.658 71.0845 183.901 72.9082 175.684C73.7926 171.699 74.8958 167.752 75.667 164.577C76.4793 161.232 76.9955 158.483 77.0068 156.121C77.0818 140.386 78.4319 122.679 82.6142 105.395C83.0691 103.517 84.9603 102.362 86.8389 102.817C88.7175 103.271 89.8724 105.163 89.418 107.042C85.4034 123.631 84.0802 140.761 84.0068 156.154C83.9914 159.387 83.2999 162.81 82.4697 166.229C81.5984 169.817 80.6246 173.225 79.7422 177.201C78.032 184.906 76.9885 193.494 79.2773 203.216C82.0846 215.14 92.546 225.134 107.297 233.045C121.935 240.896 140.117 246.318 157.044 249.417C166.073 251.07 179.35 251.978 192.394 252.008C205.48 252.038 217.941 251.182 225.417 249.45L225.576 249.417C242.503 246.318 260.685 240.896 275.323 233.045C290.074 225.134 300.535 215.14 303.343 203.216C305.632 193.494 304.588 184.906 302.878 177.201C301.995 173.225 301.022 169.817 300.15 166.229C299.32 162.81 298.629 159.387 298.613 156.154C298.54 140.761 297.217 123.631 293.202 107.042C292.748 105.163 293.903 103.271 295.781 102.817ZM191.611 21.2222C214.181 21.2849 232.574 25.3078 247.482 32.7983C249.21 33.6662 249.906 35.7694 249.038 37.4966C248.17 39.2237 246.067 39.9209 244.34 39.0532C230.602 32.1507 213.306 28.2717 191.505 28.2212C191.485 28.2211 191.465 28.2196 191.445 28.2192C191.384 28.2194 191.535 28.22 191.314 28.2202H191.306C191.084 28.22 191.237 28.2194 191.174 28.2192C191.154 28.2196 191.135 28.2211 191.115 28.2212C169.347 28.2716 153.144 32.1385 139.382 39.0532C137.655 39.9209 135.55 39.2237 134.683 37.4966C133.815 35.7694 134.512 33.6661 136.239 32.7983C151.123 25.3201 168.408 21.2852 191.008 21.2222C191.041 21.2213 191.073 21.2192 191.106 21.2192C191.154 21.2192 191.201 21.22 191.233 21.2202H191.387C191.42 21.22 191.466 21.2192 191.514 21.2192C191.546 21.2192 191.579 21.2213 191.611 21.2222Z" fill="black"/>
<path d="M154.464 176.512C154.464 182.701 149.835 187.718 144.126 187.718C138.416 187.718 133.788 182.701 133.788 176.512C133.788 170.323 138.416 165.306 144.126 165.306C149.835 165.306 154.464 170.323 154.464 176.512Z" fill="black"/>
<path d="M244.403 176.512C244.403 182.701 239.775 187.718 234.065 187.718C228.356 187.718 223.728 182.701 223.728 176.512C223.728 170.323 228.356 165.306 234.065 165.306C239.775 165.306 244.403 170.323 244.403 176.512Z" fill="black"/>
<path d="M168.076 186.872C169.895 186.411 171.742 187.466 172.283 189.241C172.29 189.258 172.309 189.301 172.344 189.364C172.433 189.526 172.632 189.829 173.021 190.166C173.744 190.792 175.499 191.858 179.403 191.858C183.308 191.858 185.063 190.792 185.786 190.166C186.175 189.829 186.374 189.526 186.464 189.364C186.509 189.282 186.528 189.233 186.528 189.233C186.528 189.234 186.523 189.247 186.514 189.274C186.51 189.288 186.505 189.306 186.499 189.327C186.496 189.338 186.492 189.35 186.489 189.362C186.487 189.369 186.485 189.376 186.483 189.383C186.482 189.386 186.481 189.389 186.48 189.393C186.48 189.394 186.48 189.398 186.479 189.399V189.399C186.839 187.988 188.036 186.947 189.484 186.786C190.928 186.626 192.32 187.375 192.983 188.666C192.981 188.662 192.98 188.658 192.978 188.654C192.974 188.647 192.971 188.64 192.968 188.635C192.962 188.624 192.958 188.617 192.957 188.614C192.959 188.618 192.965 188.628 192.974 188.644C193.005 188.693 193.07 188.795 193.177 188.934C193.39 189.212 193.755 189.626 194.302 190.053C195.351 190.872 197.218 191.858 200.338 191.858C203.457 191.858 205.324 190.872 206.374 190.053C206.92 189.626 207.285 189.212 207.498 188.934C207.604 188.795 207.671 188.693 207.701 188.644C207.716 188.62 207.722 188.609 207.719 188.614C207.717 188.617 207.713 188.624 207.707 188.635C207.704 188.64 207.701 188.647 207.697 188.654C207.695 188.658 207.693 188.663 207.69 188.667C207.689 188.669 207.688 188.67 207.687 188.672C208.565 186.955 210.668 186.271 212.388 187.144C214.112 188.018 214.8 190.125 213.926 191.849L210.805 190.265L213.924 191.853L213.918 191.864C213.915 191.87 213.911 191.876 213.908 191.882C213.901 191.894 213.895 191.909 213.887 191.924C213.87 191.954 213.851 191.989 213.829 192.029C213.784 192.109 213.726 192.208 213.655 192.323C213.513 192.553 213.317 192.849 213.057 193.188C212.54 193.864 211.765 194.724 210.68 195.57C208.467 197.298 205.1 198.858 200.338 198.858C195.662 198.858 192.332 197.353 190.118 195.663C187.893 197.481 184.48 198.858 179.403 198.858C174.133 198.858 170.654 197.378 168.437 195.457C167.356 194.521 166.659 193.55 166.22 192.757C166.001 192.362 165.848 192.012 165.741 191.733C165.688 191.594 165.645 191.471 165.613 191.369C165.597 191.318 165.584 191.272 165.572 191.232C165.566 191.211 165.561 191.192 165.556 191.175C165.554 191.166 165.552 191.157 165.55 191.149C165.549 191.145 165.548 191.141 165.547 191.137C165.546 191.135 165.546 191.132 165.546 191.131C165.551 191.127 165.695 191.087 168.936 190.265L165.544 191.125C165.069 189.252 166.202 187.347 168.076 186.872ZM172.327 189.399C172.327 189.399 172.326 189.394 172.326 189.393C172.325 189.389 172.324 189.386 172.323 189.383C172.321 189.376 172.32 189.369 172.318 189.362C172.315 189.35 172.311 189.338 172.308 189.327C172.302 189.306 172.297 189.288 172.293 189.274C172.292 189.272 172.29 189.271 172.29 189.269C172.303 189.312 172.316 189.355 172.327 189.399Z" fill="black"/>
<path d="M183.808 183.487C188.858 186.395 190.312 186.357 194.712 183.487C200.26 179.869 193.564 177.557 189.547 177.557C185.53 177.557 178.757 180.58 183.808 183.487Z" fill="black"/>
</svg>
