<svg width="420" height="420" viewBox="0 0 420 420" fill="none" xmlns="http://www.w3.org/2000/svg">
<path d="M158.682 66.5093C183.082 52.9093 201.182 60.8426 207.182 66.5093C219.182 62.5093 245.082 56.9093 252.682 66.5093C279.082 61.7093 304.015 88.5093 313.182 102.509C345.682 114.176 409.182 143.909 403.182 169.509C397.182 195.109 374.015 206.843 363.182 209.509C366.015 217.843 368.982 237.409 358.182 249.009C372.682 288.509 330.182 306.009 327.682 314.509C325.182 323.009 316.182 342.509 261.182 347.509C221.182 372.709 176.182 358.009 158.682 347.509C138.682 347.509 95.8816 339.209 84.6816 306.009C45.6816 293.009 54.6816 241.009 60.1816 216.509C49.1816 214.509 14.1816 179.009 17.1816 162.509C19.5816 149.309 75.1816 117.009 102.682 102.509C111.182 96.1759 134.282 80.1093 158.682 66.5093Z" fill="white" stroke="#A5A5A5" stroke-width="4" stroke-linecap="round" stroke-linejoin="round" stroke-dasharray="8 8"/>
<path d="M60.0269 158.954C72.5313 151.92 113.991 124.503 127.062 115.357C143.654 120.345 129.99 197.362 99.7969 197.362C90.5266 197.362 74.7126 194.751 64.897 187.438C55.6267 180.532 41.9939 169.098 60.0269 158.954Z" fill="#FFF5EB"/>
<path d="M359.329 160.979C346.978 153.945 306.024 126.527 293.111 117.382C276.723 122.37 290.219 199.387 320.045 199.387C329.202 199.387 344.823 196.776 354.519 189.463C363.676 182.557 377.143 171.122 359.329 160.979Z" fill="#FFF5EB"/>
<path d="M167.184 235.834C167.184 241.984 162.652 246.97 157.06 246.97C151.469 246.97 146.936 241.984 146.936 235.834C146.936 229.683 151.469 224.697 157.06 224.697C162.652 224.697 167.184 229.683 167.184 235.834Z" fill="#474847"/>
<path d="M273.488 235.834C273.488 241.984 268.955 246.97 263.363 246.97C257.772 246.97 253.239 241.984 253.239 235.834C253.239 229.683 257.772 224.697 263.363 224.697C268.955 224.697 273.488 229.683 273.488 235.834Z" fill="#474847"/>
<path d="M124.426 115.872C125.239 115.401 126.21 115.275 127.12 115.528C128.09 115.798 128.897 116.473 129.335 117.38C133.155 125.303 133.696 134.461 132.29 143.507C130.881 152.568 127.485 161.751 123.136 169.957C118.789 178.161 113.413 185.536 107.923 190.942C102.6 196.184 96.5518 200.187 90.8502 200.355C72.3048 200.9 62.5197 192.106 58.8161 188.094C55.5562 184.562 52.4793 180 50.8883 175.661C50.0959 173.5 49.5792 171.146 49.7868 168.885C50.005 166.508 51.0464 164.187 53.3063 162.605C57.4167 159.727 102.38 130.281 124.266 115.971L124.426 115.872ZM124.505 124.18C101.579 139.175 61.1027 165.691 57.32 168.339C57.0489 168.529 56.824 168.801 56.7575 169.525C56.6804 170.364 56.86 171.617 57.4596 173.252C58.6528 176.506 61.145 180.297 63.9596 183.346C66.7981 186.421 74.7687 193.824 90.6442 193.358C93.548 193.272 97.9408 190.949 103.011 185.955C107.914 181.127 112.883 174.358 116.952 166.68C121.019 159.004 124.108 150.565 125.373 142.432C126.396 135.852 126.202 129.624 124.505 124.18Z" fill="black"/>
<path d="M297.242 115.872C296.43 115.401 295.459 115.275 294.549 115.528C293.578 115.798 292.771 116.473 292.334 117.38C288.514 125.303 287.972 134.461 289.379 143.507C290.788 152.568 294.184 161.751 298.532 169.957C302.879 178.161 308.255 185.536 313.746 190.942C319.068 196.184 325.117 200.187 330.818 200.355C349.364 200.9 359.149 192.106 362.852 188.094C366.112 184.562 369.189 180 370.78 175.661C371.573 173.5 372.089 171.146 371.882 168.885C371.663 166.508 370.622 164.187 368.362 162.605C364.252 159.727 319.289 130.281 297.402 115.971L297.242 115.872ZM297.164 124.18C320.09 139.175 360.566 165.691 364.348 168.339C364.62 168.529 364.844 168.801 364.911 169.525C364.988 170.364 364.808 171.617 364.209 173.252C363.016 176.506 360.523 180.297 357.709 183.346C354.87 186.421 346.9 193.824 331.024 193.358C328.12 193.272 323.728 190.949 318.657 185.955C313.755 181.127 308.785 174.358 304.717 166.68C300.65 159.004 297.56 150.565 296.296 142.432C295.273 135.852 295.466 129.624 297.164 124.18Z" fill="black"/>
<path d="M211.225 94.8177C218.284 88.9252 236.815 80.6759 254.464 94.8177C272.113 94.8181 309.175 118.078 309.175 139.477C316.235 150.642 348.885 185.997 336.531 236.238C342.708 270.662 322.412 288.34 309.175 289.271C309.175 306.948 274.76 319.973 254.464 312.531C243.875 322.207 221.226 323.385 211.225 322.765C201.224 323.385 178.574 322.207 167.985 312.531C147.689 319.974 113.274 306.948 113.274 289.271C100.037 288.34 79.7413 270.663 85.9184 236.238C73.5643 185.997 106.214 150.642 113.274 139.477C113.274 118.078 150.336 94.8177 167.985 94.8177C185.634 80.6761 204.165 88.9252 211.225 94.8177Z" fill="white"/>
<path d="M172.557 168.002C177.381 172.167 185.209 175.934 196.586 175.378C199.755 180.37 218.236 188.689 229.853 179.815C236.22 181.359 254.392 181.946 259.102 171.404C259.102 178.152 262.746 181.201 273.68 189.799C282.129 196.442 292.074 197.009 294.802 200.891C301.342 210.2 304.49 218.105 307.108 228.623C309.956 240.067 310.926 251.651 310.986 262.12C311.035 270.545 311.551 276.806 307.108 292.529C300.318 316.556 279.368 321.143 254.509 319.435C246.385 324.631 242.831 330.981 215.921 330.981C203.605 331.323 176.825 327.277 168.194 319.435C151.174 322.902 126.942 317.013 116.058 295.06C111.614 279.337 110.652 270.545 110.7 262.12C110.755 252.665 111.551 242.3 113.803 231.951C115.957 222.054 119.44 212.171 124.877 203.11C129.786 194.929 131.108 204.458 151.174 189.799C171.24 175.14 168.071 175.378 171.975 168.168C172.169 168.112 172.363 168.058 172.557 168.002Z" fill="#FFF5EB"/>
<path d="M256.783 318.852C256.378 257.297 313.816 240.39 335.751 237.353C340.813 245.114 335.683 275.318 327.146 280.38C322.275 283.268 318.54 286.455 309.935 289.492C306.897 307.715 273.738 325.855 256.783 318.852Z" fill="#FFCACC"/>
<path d="M166.656 318.852C167.061 257.297 109.624 240.39 87.6881 237.353C82.626 245.114 87.7564 275.318 96.2937 280.38C101.164 283.268 104.899 286.455 113.505 289.492C116.542 307.715 149.701 325.855 166.656 318.852Z" fill="#FFCACC"/>
<path d="M333.346 180.908C335.182 180.303 337.161 181.301 337.765 183.137C342.7 198.117 344.941 216.086 340.102 236.399C345.767 269.721 327.61 289.195 312.406 292.403C311.637 296.829 309.278 301.017 306.145 304.697C302.267 309.251 296.966 313.317 291.101 316.505C280.188 322.437 266.405 325.788 255.227 322.602C252.192 324.963 248.592 326.751 244.842 328.111C231.807 335.595 217.867 337.111 205.844 336.027C193.922 334.952 183.675 331.305 177.666 328.132C173.894 326.77 170.272 324.976 167.22 322.602C156.043 325.788 142.26 322.437 131.346 316.505C125.482 313.317 120.181 309.251 116.303 304.697C113.17 301.017 110.811 296.829 110.042 292.403C94.8385 289.195 76.6824 269.722 82.3464 236.401C77.5073 216.087 79.7475 198.117 84.6823 183.137C85.2871 181.301 87.2663 180.303 89.1023 180.908C90.9382 181.512 91.9366 183.492 91.3318 185.328C86.6794 199.45 84.6141 216.318 89.3171 235.451C89.4341 235.926 89.4495 236.422 89.363 236.905C83.4664 269.778 102.823 285.093 113.519 285.845C115.352 285.974 116.774 287.499 116.774 289.336C116.774 292.624 118.394 296.356 121.633 300.159C124.842 303.927 129.414 307.487 134.69 310.355C145.408 316.181 157.977 318.621 166.779 315.392C168.006 314.942 169.382 315.213 170.346 316.095C172.677 318.225 175.823 319.97 179.515 321.356L180.26 321.628L180.505 321.726C180.585 321.761 180.664 321.8 180.741 321.841C185.915 324.613 195.365 328.054 206.473 329.055C217.55 330.054 230.057 328.61 241.601 321.9L241.888 321.75C241.986 321.705 242.087 321.664 242.188 321.628C246.203 320.201 249.617 318.367 252.102 316.095L252.288 315.937C253.238 315.182 254.519 314.97 255.669 315.392C264.471 318.621 277.04 316.181 287.759 310.355C293.034 307.487 297.606 303.927 300.815 300.159C304.053 296.356 305.674 292.624 305.675 289.336C305.675 287.499 307.096 285.974 308.929 285.845C319.626 285.092 338.982 269.777 333.086 236.905C332.999 236.422 333.015 235.926 333.132 235.451C337.834 216.318 335.769 199.45 331.117 185.328C330.512 183.492 331.51 181.512 333.346 180.908ZM305.675 139.494C305.674 135.142 303.776 130.385 300.271 125.533C296.785 120.707 291.886 116.037 286.355 111.943C280.834 107.855 274.787 104.419 269.096 102.015C263.346 99.5863 258.214 98.3198 254.464 98.3197C253.668 98.3197 252.896 98.0487 252.275 97.5511C236.459 84.8738 219.858 92.1714 213.467 97.5072C212.169 98.5915 210.28 98.5914 208.981 97.5072C202.591 92.1715 185.99 84.8739 170.174 97.5511C169.553 98.0488 168.781 98.3196 167.985 98.3197C164.235 98.3197 159.102 99.5854 153.352 102.014C147.661 104.418 141.615 107.855 136.093 111.943C130.563 116.037 125.663 120.707 122.177 125.533C118.672 130.385 116.774 135.142 116.774 139.494C116.774 141.427 115.206 142.994 113.273 142.994C111.34 142.993 109.774 141.426 109.774 139.494C109.774 133.142 112.508 126.964 116.504 121.433C120.518 115.875 125.988 110.715 131.928 106.317C137.879 101.912 144.407 98.1936 150.629 95.5658C156.295 93.1723 161.926 91.591 166.74 91.3519C184.273 78.0323 202.419 84.4016 211.224 90.4427C220.03 84.4017 238.175 78.0327 255.708 91.3519C260.522 91.591 266.153 93.1722 271.82 95.5658C278.042 98.1937 284.57 101.912 290.52 106.317C296.461 110.715 301.93 115.875 305.945 121.433C309.94 126.964 312.674 133.142 312.675 139.494C312.675 141.427 311.108 142.994 309.175 142.994C307.242 142.993 305.675 141.426 305.675 139.494Z" fill="black"/>
<path d="M161.981 139.189C162.238 137.273 163.999 135.929 165.915 136.186C167.831 136.443 169.175 138.205 168.918 140.12C168.177 145.643 168.863 153.811 173.071 160.368C177.111 166.662 184.737 172.016 199.149 171.644L199.321 171.643C200.183 171.663 201.01 172.001 201.64 172.595C210.821 181.245 223.237 181.138 229.18 175.988L229.358 175.844C230.264 175.156 231.454 174.949 232.546 175.301C235.106 176.126 240.582 176.785 245.656 176.169C248.171 175.864 250.328 175.274 251.891 174.424C253.41 173.598 254.143 172.666 254.413 171.655C254.912 169.787 256.831 168.678 258.698 169.177C260.566 169.676 261.676 171.594 261.177 173.461C260.272 176.848 257.902 179.124 255.235 180.574C252.611 182.001 249.497 182.755 246.5 183.118C241.458 183.73 236.012 183.315 232.251 182.46C223.12 188.926 208.461 187.769 197.915 178.66C182.214 178.702 172.548 172.511 167.181 164.15C161.824 155.804 161.089 145.829 161.981 139.189Z" fill="black"/>
<path d="M171.024 167.709C171.745 165.916 173.783 165.047 175.576 165.768C177.37 166.489 178.24 168.527 177.519 170.32C173.511 180.289 162.716 188.697 151.772 195.049C140.635 201.513 128.489 206.325 120.655 208.799C118.811 209.381 116.845 208.359 116.263 206.516C115.681 204.672 116.704 202.706 118.547 202.124C125.991 199.774 137.647 195.153 148.258 188.994C159.062 182.724 167.963 175.32 171.024 167.709Z" fill="black"/>
<path d="M255.585 170.007C257.273 169.066 259.406 169.672 260.347 171.36C263.037 176.187 268.272 183.266 275.066 188.598C281.867 193.934 289.77 197.186 298.084 195.454C299.976 195.06 301.83 196.275 302.225 198.167C302.619 200.059 301.404 201.913 299.512 202.308C288.387 204.625 278.405 200.115 270.745 194.104C263.079 188.089 257.278 180.235 254.231 174.769C253.29 173.08 253.897 170.948 255.585 170.007Z" fill="black"/>
<path d="M175.851 254.057C175.851 260.208 171.191 265.194 165.443 265.194C159.695 265.194 155.035 260.208 155.035 254.057C155.035 247.907 159.695 242.921 165.443 242.921C171.191 242.921 175.851 247.907 175.851 254.057Z" fill="#474847"/>
<path d="M266.4 254.057C266.4 260.208 261.741 265.194 255.992 265.194C250.244 265.194 245.584 260.208 245.584 254.057C245.584 247.907 250.244 242.921 255.992 242.921C261.741 242.921 266.4 247.907 266.4 254.057Z" fill="#474847"/>
<path d="M189.551 264.335C191.368 263.868 193.218 264.916 193.765 266.69C193.773 266.708 193.791 266.748 193.822 266.803C193.91 266.961 194.11 267.26 194.503 267.596C195.235 268.222 197.014 269.287 200.961 269.287C204.908 269.287 206.686 268.222 207.419 267.596C207.811 267.261 208.01 266.961 208.098 266.803C208.143 266.724 208.161 266.678 208.161 266.678C208.16 266.679 208.155 266.694 208.146 266.722C208.142 266.736 208.136 266.754 208.13 266.776C208.126 266.787 208.123 266.799 208.12 266.812C208.118 266.818 208.117 266.825 208.115 266.831C208.114 266.835 208.113 266.839 208.112 266.842C208.112 266.844 208.11 266.847 208.11 266.848V266.849C208.473 265.444 209.666 264.408 211.109 264.246C212.552 264.085 213.945 264.831 214.61 266.121C214.61 266.121 214.609 266.119 214.608 266.117C214.607 266.115 214.605 266.113 214.604 266.111C214.602 266.106 214.599 266.102 214.597 266.098C214.593 266.09 214.59 266.084 214.587 266.078C214.581 266.067 214.577 266.06 214.576 266.057C214.578 266.061 214.583 266.07 214.592 266.085C214.622 266.133 214.689 266.234 214.796 266.371C215.009 266.647 215.376 267.059 215.927 267.484C216.987 268.3 218.878 269.287 222.037 269.287C225.195 269.287 227.086 268.3 228.146 267.484C228.698 267.059 229.064 266.647 229.278 266.371C229.384 266.234 229.451 266.133 229.481 266.085C229.49 266.07 229.496 266.061 229.498 266.057L229.481 266.09C230.375 264.397 232.467 263.734 234.174 264.612C235.893 265.495 236.571 267.605 235.688 269.325L232.575 267.725C235.604 269.282 235.685 269.325 235.686 269.328C235.686 269.329 235.684 269.331 235.683 269.332C235.682 269.335 235.681 269.338 235.679 269.341C235.676 269.347 235.673 269.352 235.67 269.359C235.663 269.371 235.656 269.386 235.648 269.401C235.632 269.431 235.612 269.466 235.59 269.506C235.544 269.586 235.485 269.685 235.414 269.799C235.27 270.028 235.072 270.323 234.81 270.66C234.288 271.334 233.508 272.188 232.418 273.029C230.193 274.743 226.814 276.287 222.037 276.287C217.323 276.287 213.973 274.783 211.747 273.096C209.512 274.911 206.08 276.287 200.961 276.287C195.671 276.287 192.18 274.821 189.953 272.916C188.865 271.986 188.162 271.02 187.717 270.229C187.496 269.835 187.341 269.485 187.233 269.206C187.179 269.067 187.137 268.945 187.104 268.842C187.088 268.791 187.074 268.744 187.062 268.703C187.056 268.683 187.05 268.664 187.046 268.646C187.043 268.637 187.041 268.628 187.039 268.619C187.038 268.615 187.037 268.612 187.036 268.608C187.035 268.606 187.034 268.603 187.034 268.602C187.033 268.599 187.056 268.59 190.423 267.725L187.033 268.596C186.552 266.724 187.679 264.816 189.551 264.335ZM193.81 266.849C193.81 266.848 193.81 266.844 193.809 266.842C193.808 266.839 193.807 266.835 193.806 266.831C193.805 266.825 193.803 266.818 193.801 266.812C193.798 266.799 193.795 266.787 193.792 266.776C193.785 266.754 193.78 266.736 193.775 266.722C193.774 266.719 193.773 266.715 193.772 266.712C193.786 266.757 193.798 266.803 193.81 266.849Z" fill="black"/>
<path d="M205.43 261.002C210.482 263.91 211.937 263.872 216.338 261.002C221.887 257.383 215.19 255.07 211.171 255.07C207.153 255.07 200.378 258.093 205.43 261.002Z" fill="#474847"/>
</svg>
