<svg width="391" height="307" viewBox="0 0 391 307" fill="none" xmlns="http://www.w3.org/2000/svg">
<path d="M143.682 9.43749C168.082 -4.16251 186.182 3.77082 192.182 9.43749C204.182 5.43749 230.082 -0.162503 237.682 9.43749C264.082 4.63748 289.015 31.4375 298.182 45.4375C330.682 57.1042 394.182 86.8375 388.182 112.438C382.182 138.038 359.015 149.771 348.182 152.438C351.015 160.771 353.982 180.337 343.182 191.938C357.682 231.438 315.182 248.938 312.682 257.438C310.182 265.938 301.182 285.438 246.182 290.438C206.182 315.638 161.182 300.938 143.682 290.438C123.682 290.438 80.8816 282.138 69.6816 248.938C30.6816 235.938 39.6816 183.938 45.1816 159.438C34.1816 157.438 -0.818358 121.938 2.18164 105.438C4.58164 92.2375 60.1816 59.9375 87.6816 45.4375C96.1816 39.1042 119.282 23.0375 143.682 9.43749Z" fill="white" stroke="#A5A5A5" stroke-width="4" stroke-linecap="round" stroke-linejoin="round" stroke-dasharray="8 8"/>
<path d="M45.0269 101.882C57.5313 94.8481 98.9907 67.4308 112.062 58.2852C128.654 63.2737 114.99 140.291 84.7969 140.291C75.5266 140.291 59.7126 137.679 49.897 130.366C40.6267 123.46 26.9939 112.026 45.0269 101.882Z" fill="#FFF5EB"/>
<path d="M344.329 103.907C331.978 96.873 291.024 69.4557 278.111 60.3101C261.723 65.2986 275.219 142.315 305.045 142.315C314.202 142.315 329.823 139.704 339.519 132.391C348.676 125.485 362.143 114.051 344.329 103.907Z" fill="#FFF5EB"/>
<path d="M152.184 178.762C152.184 184.913 147.652 189.899 142.06 189.899C136.469 189.899 131.936 184.913 131.936 178.762C131.936 172.611 136.469 167.625 142.06 167.625C147.652 167.625 152.184 172.611 152.184 178.762Z" fill="#474847"/>
<path d="M258.488 178.762C258.488 184.913 253.955 189.899 248.363 189.899C242.772 189.899 238.239 184.913 238.239 178.762C238.239 172.611 242.772 167.625 248.363 167.625C253.955 167.625 258.488 172.611 258.488 178.762Z" fill="#474847"/>
<path d="M109.426 58.8004C110.239 58.3294 111.21 58.2036 112.12 58.4566C113.09 58.7265 113.897 59.4012 114.335 60.3082C118.155 68.2315 118.696 77.3897 117.29 86.4352C115.881 95.4964 112.485 104.679 108.136 112.885C103.789 121.09 98.413 128.464 92.9225 133.871C87.6002 139.112 81.5518 143.115 75.8502 143.283C57.3048 143.828 47.5197 135.034 43.8161 131.022C40.5562 127.491 37.4793 122.928 35.8883 118.589C35.0959 116.428 34.5792 114.074 34.7868 111.813C35.005 109.437 36.0464 107.115 38.3063 105.533C42.4167 102.656 87.3798 73.2094 109.266 58.899L109.426 58.8004ZM109.505 67.108C86.5789 82.1028 46.1027 108.619 42.32 111.267C42.0489 111.457 41.824 111.729 41.7575 112.453C41.6804 113.292 41.86 114.545 42.4596 116.18C43.6528 119.434 46.145 123.225 48.9596 126.274C51.7981 129.349 59.7687 136.753 75.6442 136.286C78.548 136.2 82.9408 133.877 88.0114 128.883C92.9139 124.055 97.8834 117.286 101.952 109.608C106.019 101.933 109.108 93.4934 110.373 85.36C111.396 78.7806 111.202 72.5527 109.505 67.108Z" fill="black"/>
<path d="M282.242 58.8004C281.43 58.3294 280.459 58.2036 279.549 58.4566C278.578 58.7265 277.771 59.4012 277.334 60.3082C273.514 68.2315 272.972 77.3897 274.379 86.4352C275.788 95.4964 279.184 104.679 283.532 112.885C287.879 121.09 293.255 128.464 298.746 133.871C304.068 139.112 310.117 143.115 315.818 143.283C334.364 143.828 344.149 135.034 347.852 131.022C351.112 127.491 354.189 122.928 355.78 118.589C356.573 116.428 357.089 114.074 356.882 111.813C356.663 109.437 355.622 107.115 353.362 105.533C349.252 102.656 304.289 73.2094 282.402 58.899L282.242 58.8004ZM282.164 67.108C305.09 82.1028 345.566 108.619 349.348 111.267C349.62 111.457 349.844 111.729 349.911 112.453C349.988 113.292 349.808 114.545 349.209 116.18C348.016 119.434 345.523 123.225 342.709 126.274C339.87 129.349 331.9 136.753 316.024 136.286C313.12 136.2 308.728 133.877 303.657 128.883C298.755 124.055 293.785 117.286 289.717 109.608C285.65 101.933 282.56 93.4934 281.296 85.36C280.273 78.7806 280.466 72.5527 282.164 67.108Z" fill="black"/>
<path d="M196.225 37.7459C203.284 31.8535 221.815 23.6041 239.464 37.7459C257.113 37.7463 294.175 61.0061 294.175 82.405C301.235 93.5699 333.885 128.925 321.531 179.166C327.708 213.591 307.412 231.268 294.175 232.199C294.175 249.876 259.76 262.902 239.464 255.459C228.875 265.135 206.226 266.313 196.225 265.693C186.224 266.313 163.574 265.135 152.985 255.459C132.689 262.902 98.2739 249.876 98.2739 232.199C85.0374 231.268 64.7413 213.591 70.9184 179.166C58.5643 128.925 91.2144 93.5698 98.2739 82.405C98.2741 61.0059 135.336 37.7459 152.985 37.7459C170.634 23.6043 189.165 31.8535 196.225 37.7459Z" fill="white"/>
<path d="M157.557 110.931C162.381 115.095 170.209 118.862 181.586 118.307C184.755 123.298 203.236 131.618 214.853 122.744C221.22 124.287 239.392 124.874 244.102 114.332C244.102 121.08 247.746 124.129 258.68 132.727C267.129 139.37 277.074 139.937 279.802 143.82C286.342 153.128 289.49 161.033 292.108 171.551C294.956 182.995 295.926 194.579 295.986 205.048C296.035 213.473 296.551 219.734 292.108 235.457C285.318 259.484 264.368 264.071 239.509 262.363C231.385 267.559 227.831 273.909 200.921 273.909C188.605 274.252 161.825 270.205 153.194 262.363C136.174 265.83 111.942 259.941 101.058 237.988C96.6142 222.265 95.6522 213.473 95.7004 205.048C95.7545 195.593 96.5514 185.228 98.8033 174.879C100.957 164.982 104.44 155.099 109.877 146.038C114.786 137.857 116.108 147.386 136.174 132.727C156.24 118.068 153.071 118.307 156.975 111.096C157.169 111.04 157.363 110.986 157.557 110.931Z" fill="#FFF5EB"/>
<path d="M241.783 261.78C241.378 200.225 298.816 183.318 320.751 180.281C325.813 188.043 320.683 218.246 312.146 223.308C307.275 226.196 303.54 229.383 294.935 232.42C291.897 250.643 258.738 268.783 241.783 261.78Z" fill="#FFCACC"/>
<path d="M151.656 261.78C152.061 200.225 94.6237 183.318 72.6881 180.281C67.626 188.043 72.7564 218.246 81.2937 223.308C86.1641 226.196 89.8992 229.383 98.5047 232.42C101.542 250.643 134.701 268.783 151.656 261.78Z" fill="#FFCACC"/>
<path d="M318.346 123.836C320.182 123.231 322.161 124.23 322.765 126.065C327.7 141.045 329.941 159.014 325.102 179.327C330.767 212.65 312.61 232.123 297.406 235.331C296.637 239.757 294.278 243.946 291.145 247.625C287.267 252.179 281.966 256.246 276.101 259.433C265.188 265.365 251.405 268.716 240.227 265.53C237.192 267.891 233.592 269.68 229.842 271.039C216.807 278.524 202.867 280.039 190.844 278.955C178.922 277.88 168.675 274.233 162.666 271.06C158.894 269.699 155.272 267.904 152.22 265.53C141.043 268.716 127.26 265.366 116.346 259.433C110.482 256.246 105.181 252.179 101.303 247.625C98.1704 243.945 95.8107 239.757 95.0417 235.331C79.8385 232.123 61.6824 212.65 67.3464 179.329C62.5073 159.015 64.7475 141.046 69.6823 126.065C70.2871 124.229 72.2663 123.231 74.1023 123.836C75.9382 124.441 76.9366 126.42 76.3318 128.256C71.6794 142.378 69.6141 159.246 74.3171 178.379C74.4341 178.855 74.4495 179.351 74.363 179.833C68.4664 212.706 87.8225 228.021 98.5193 228.773C100.352 228.902 101.774 230.427 101.774 232.265C101.774 235.553 103.394 239.284 106.633 243.087C109.842 246.856 114.414 250.415 119.69 253.283C130.408 259.109 142.977 261.549 151.779 258.32C153.006 257.87 154.382 258.142 155.346 259.023C157.677 261.153 160.823 262.898 164.515 264.284L165.26 264.557L165.505 264.654C165.585 264.69 165.664 264.728 165.741 264.769C170.915 267.541 180.365 270.982 191.473 271.983C202.55 272.982 215.057 271.539 226.601 264.828L226.888 264.679C226.986 264.633 227.087 264.593 227.188 264.557C231.203 263.129 234.617 261.295 237.102 259.023L237.288 258.865C238.238 258.111 239.519 257.898 240.669 258.32C249.471 261.549 262.04 259.109 272.759 253.283C278.034 250.415 282.606 246.856 285.815 243.087C289.053 239.284 290.674 235.553 290.675 232.265C290.675 230.427 292.096 228.902 293.929 228.773C304.626 228.021 323.982 212.706 318.086 179.833C317.999 179.351 318.015 178.855 318.132 178.379C322.834 159.247 320.769 142.378 316.117 128.256C315.512 126.42 316.51 124.441 318.346 123.836ZM290.675 82.4217C290.674 78.0704 288.776 73.313 285.271 68.4608C281.785 63.6355 276.886 58.9655 271.355 54.871C265.834 50.7836 259.787 47.347 254.096 44.9432C248.346 42.5146 243.214 41.248 239.464 41.2479C238.668 41.2479 237.896 40.977 237.275 40.4794C221.459 27.802 204.858 35.0996 198.467 40.4354C197.169 41.5197 195.28 41.5196 193.981 40.4354C187.591 35.0997 170.99 27.8021 155.174 40.4794C154.553 40.977 153.781 41.2479 152.985 41.2479C149.235 41.2479 144.102 42.5136 138.352 44.9423C132.661 47.346 126.615 50.7835 121.093 54.871C115.563 58.9655 110.663 63.6354 107.177 68.4608C103.672 73.313 101.774 78.0703 101.774 82.4217C101.774 84.3547 100.206 85.9218 98.2732 85.9217C96.3404 85.9215 94.7741 84.3546 94.7741 82.4217C94.7742 76.0703 97.5083 69.8919 101.504 64.3612C105.518 58.8036 110.988 53.6429 116.928 49.245C122.879 44.8399 129.407 41.1219 135.629 38.494C141.295 36.1006 146.926 34.5192 151.74 34.2801C169.273 20.9605 187.419 27.3298 196.224 33.371C205.03 27.3299 223.175 20.9609 240.708 34.2801C245.522 34.5192 251.153 36.1004 256.82 38.494C263.042 41.1219 269.57 44.8399 275.52 49.245C281.461 53.6429 286.93 58.8037 290.945 64.3612C294.94 69.8919 297.674 76.0704 297.675 82.4217C297.675 84.3547 296.108 85.9217 294.175 85.9217C292.242 85.9216 290.675 84.3547 290.675 82.4217Z" fill="black"/>
<path d="M146.981 82.117C147.238 80.2013 148.999 78.8569 150.915 79.114C152.831 79.3713 154.175 81.1328 153.918 83.0486C153.177 88.5711 153.863 96.7391 158.071 103.297C162.111 109.59 169.737 114.944 184.149 114.572L184.321 114.571C185.183 114.591 186.01 114.929 186.64 115.523C195.821 124.173 208.237 124.066 214.18 118.916L214.358 118.772C215.264 118.085 216.454 117.877 217.546 118.229C220.106 119.054 225.582 119.713 230.656 119.097C233.171 118.792 235.328 118.202 236.891 117.352C238.41 116.526 239.143 115.595 239.413 114.583C239.912 112.715 241.831 111.606 243.698 112.105C245.566 112.604 246.676 114.522 246.177 116.389C245.272 119.776 242.902 122.053 240.235 123.503C237.611 124.929 234.497 125.683 231.5 126.047C226.458 126.659 221.012 126.243 217.251 125.388C208.12 131.855 193.461 130.697 182.915 121.589C167.214 121.63 157.548 115.44 152.181 107.078C146.824 98.7324 146.089 88.7568 146.981 82.117Z" fill="black"/>
<path d="M156.024 110.637C156.745 108.844 158.783 107.975 160.576 108.696C162.37 109.417 163.24 111.455 162.519 113.249C158.511 123.218 147.716 131.625 136.772 137.977C125.635 144.441 113.489 149.253 105.655 151.727C103.811 152.309 101.845 151.287 101.263 149.444C100.681 147.601 101.704 145.634 103.547 145.052C110.991 142.702 122.647 138.081 133.258 131.922C144.062 125.652 152.963 118.249 156.024 110.637Z" fill="black"/>
<path d="M240.585 112.935C242.273 111.994 244.406 112.6 245.347 114.289C248.037 119.115 253.272 126.194 260.066 131.526C266.867 136.863 274.77 140.114 283.084 138.382C284.976 137.988 286.83 139.203 287.225 141.095C287.619 142.988 286.404 144.842 284.512 145.236C273.387 147.553 263.405 143.043 255.745 137.033C248.079 131.017 242.278 123.163 239.231 117.697C238.29 116.008 238.897 113.876 240.585 112.935Z" fill="black"/>
<path d="M160.851 196.986C160.851 203.136 156.191 208.122 150.443 208.122C144.695 208.122 140.035 203.136 140.035 196.986C140.035 190.835 144.695 185.849 150.443 185.849C156.191 185.849 160.851 190.835 160.851 196.986Z" fill="#474847"/>
<path d="M251.4 196.986C251.4 203.136 246.741 208.122 240.992 208.122C235.244 208.122 230.584 203.136 230.584 196.986C230.584 190.835 235.244 185.849 240.992 185.849C246.741 185.849 251.4 190.835 251.4 196.986Z" fill="#474847"/>
<path d="M174.551 207.263C176.368 206.797 178.218 207.845 178.765 209.618C178.773 209.636 178.791 209.676 178.822 209.731C178.91 209.889 179.11 210.189 179.503 210.524C180.235 211.15 182.014 212.216 185.961 212.216C189.908 212.216 191.686 211.15 192.419 210.524C192.811 210.189 193.01 209.889 193.098 209.731C193.143 209.652 193.161 209.606 193.161 209.606C193.16 209.607 193.155 209.622 193.146 209.65C193.142 209.664 193.136 209.682 193.13 209.704C193.126 209.715 193.123 209.727 193.12 209.74C193.118 209.746 193.117 209.753 193.115 209.76C193.114 209.763 193.113 209.767 193.112 209.77C193.112 209.772 193.11 209.775 193.11 209.776V209.777C193.473 208.372 194.666 207.336 196.109 207.175C197.552 207.013 198.945 207.759 199.61 209.05C199.61 209.049 199.609 209.047 199.608 209.046C199.607 209.043 199.605 209.041 199.604 209.039C199.602 209.034 199.599 209.03 199.597 209.026C199.593 209.019 199.59 209.012 199.587 209.007C199.581 208.996 199.577 208.988 199.576 208.985C199.578 208.989 199.583 208.999 199.592 209.013C199.622 209.061 199.689 209.162 199.796 209.3C200.009 209.575 200.376 209.987 200.927 210.412C201.987 211.229 203.878 212.216 207.037 212.216C210.195 212.216 212.086 211.229 213.146 210.412C213.698 209.987 214.064 209.575 214.278 209.3C214.384 209.162 214.451 209.061 214.481 209.013C214.49 208.999 214.496 208.989 214.498 208.985L214.481 209.018C215.375 207.325 217.467 206.663 219.174 207.54C220.893 208.423 221.571 210.534 220.688 212.253L217.575 210.653C220.604 212.21 220.685 212.254 220.686 212.257C220.686 212.257 220.684 212.259 220.683 212.261C220.682 212.263 220.681 212.266 220.679 212.269C220.676 212.275 220.673 212.281 220.67 212.287C220.663 212.299 220.656 212.314 220.648 212.329C220.632 212.359 220.612 212.395 220.59 212.434C220.544 212.514 220.485 212.613 220.414 212.727C220.27 212.956 220.072 213.251 219.81 213.589C219.288 214.262 218.508 215.116 217.418 215.957C215.193 217.671 211.814 219.216 207.037 219.216C202.323 219.216 198.973 217.711 196.747 216.024C194.512 217.839 191.08 219.216 185.961 219.216C180.671 219.216 177.18 217.749 174.953 215.845C173.865 214.915 173.162 213.949 172.717 213.157C172.496 212.763 172.341 212.414 172.233 212.135C172.179 211.995 172.137 211.873 172.104 211.77C172.088 211.719 172.074 211.673 172.062 211.632C172.056 211.611 172.05 211.592 172.046 211.574C172.043 211.565 172.041 211.556 172.039 211.548C172.038 211.544 172.037 211.54 172.036 211.536C172.035 211.534 172.034 211.531 172.034 211.53C172.033 211.527 172.056 211.518 175.423 210.653L172.033 211.524C171.552 209.652 172.679 207.745 174.551 207.263ZM178.81 209.777C178.81 209.776 178.81 209.772 178.809 209.77C178.808 209.767 178.807 209.763 178.806 209.76C178.805 209.753 178.803 209.746 178.801 209.74C178.798 209.727 178.795 209.715 178.792 209.704C178.785 209.682 178.78 209.664 178.775 209.65C178.774 209.647 178.773 209.643 178.772 209.64C178.786 209.686 178.798 209.731 178.81 209.777Z" fill="black"/>
<path d="M190.43 203.93C195.482 206.839 196.937 206.8 201.338 203.93C206.887 200.311 200.19 197.998 196.171 197.998C192.153 197.998 185.378 201.021 190.43 203.93Z" fill="#474847"/>
</svg>
