<svg width="420" height="420" viewBox="0 0 420 420" fill="none" xmlns="http://www.w3.org/2000/svg">
<path d="M139.513 37.9638C176.313 27.1638 202.18 48.4638 210.513 60.4638C217.514 46.9639 245.014 27.9638 282.014 37.9638C313.014 46.3422 327.514 81.4639 328.514 96.9639C327.68 104.131 326.414 127.464 314.014 163.464C334.514 180.464 338.514 213.464 336.514 244.964C353.514 262.464 373.513 389.464 210.513 383.964C47.5131 378.464 68.5132 291.464 82.0132 244.964C81.2132 212.164 92.347 176.964 102.014 163.464L88.5137 96.9639C89.5137 83.7972 102.713 48.7638 139.513 37.9638Z" fill="white" stroke="#A5A5A5" stroke-width="4" stroke-linecap="round" stroke-linejoin="round" stroke-dasharray="8 8"/>
<path d="M211.363 138.529C301.864 138.736 316.797 211.257 317.044 262.48C317.095 273.035 326.173 287.943 321.475 307.641C313.128 342.642 243.128 357.703 211.169 356.65C179.21 357.704 109.211 342.642 100.863 307.641C96.1647 287.943 105.242 273.035 105.293 262.48C105.54 211.257 120.474 138.735 210.975 138.529V138.527C211.039 138.527 211.104 138.528 211.168 138.528C211.233 138.528 211.298 138.527 211.363 138.527V138.529Z" fill="white"/>
<path d="M113.634 110.427C109.505 87.0076 128.471 64.0879 151.574 60.0143C174.676 55.9407 200.338 70.9914 204.467 94.4108L206.696 148.984C208.985 182.934 196.173 200.809 182.972 203.136L171.02 205.244C157.818 207.571 144.232 193.102 130.205 162.471L113.634 110.427Z" fill="white"/>
<path d="M307.909 110.058C312.11 86.233 293.268 62.9962 270.235 58.9347C247.201 54.8732 221.548 70.2645 217.347 94.0895L214.934 149.582C212.532 184.107 225.252 202.236 238.414 204.557L250.33 206.658C263.492 208.979 277.096 194.221 291.197 163.029L307.909 110.058Z" fill="white"/>
<path d="M132.971 119.532C129.334 98.9052 140.189 79.7502 154.48 77.2302C168.772 74.7103 185.523 88.9975 189.16 109.624L193.003 157.358C195.959 187.093 188.734 202.12 180.567 203.56L173.174 204.864C165.008 206.304 155.847 193.066 145.686 165.701L132.971 119.532Z" fill="#FACDC8"/>
<path d="M289.086 119.906C292.725 99.2657 281.317 80.0013 266.45 77.3799C251.583 74.7585 234.274 88.9591 230.634 109.6L226.964 157.397C224.094 187.168 231.703 202.272 240.199 203.77L247.89 205.126C256.385 206.624 265.814 193.423 276.187 166.076L289.086 119.906Z" fill="#FACDC8"/>
<path d="M170.618 274.011C170.618 279.848 166.316 284.58 161.009 284.58C155.702 284.58 151.4 279.848 151.4 274.011C151.4 268.173 155.702 263.441 161.009 263.441C166.316 263.441 170.618 268.173 170.618 274.011Z" fill="#474847"/>
<path d="M271.509 274.011C271.509 279.848 267.207 284.58 261.901 284.58C256.594 284.58 252.292 279.848 252.292 274.011C252.292 268.173 256.594 263.441 261.901 263.441C267.207 263.441 271.509 268.173 271.509 274.011Z" fill="#474847"/>
<path d="M152.276 58.0408C175.805 54.5008 201.47 69.6501 205.606 93.103L207.772 148.639C210.015 182.646 197.21 200.835 183.822 203.685L183.183 203.809L181.968 196.916C186.071 196.192 191.2 192.862 195.217 185.071C199.218 177.309 201.867 165.462 200.788 149.1L200.777 148.912L198.63 93.8958C194.978 74.8096 172.988 61.4821 152.374 65.1168C131.758 68.7519 115.649 88.8007 118.75 107.987L135.412 159.992C142.415 175.085 149.055 185.602 155.203 191.99C161.395 198.423 166.085 199.716 169.641 199.089L170.857 205.983L170.219 206.082C156.805 207.92 143.045 193.204 128.882 162.549L111.924 109.622C107.723 85.7966 127.331 62.4245 151.158 58.2231L152.276 58.0408ZM181.968 196.916L183.183 203.809L170.857 205.983L169.641 199.089L181.968 196.916Z" fill="black"/>
<path d="M269.107 58.0408C245.579 54.5008 219.913 69.6501 215.778 93.103L213.612 148.639C211.369 182.646 224.174 200.835 237.562 203.685L238.2 203.809L239.416 196.916C235.313 196.192 230.184 192.862 226.167 185.071C222.165 177.309 219.517 165.462 220.596 149.1L220.606 148.912L222.754 93.8958C226.406 74.8096 248.396 61.4821 269.01 65.1168C289.626 68.7519 305.734 88.8007 302.634 107.987L285.972 159.992C278.969 175.085 272.328 185.602 266.181 191.99C259.989 198.423 255.298 199.716 251.742 199.089L250.527 205.983L251.165 206.082C264.579 207.92 278.338 193.204 292.502 162.549L309.46 109.622C313.661 85.7966 294.053 62.4245 270.226 58.2231L269.107 58.0408ZM239.416 196.916L238.2 203.809L250.527 205.983L251.742 199.089L239.416 196.916Z" fill="black"/>
<path d="M211.364 138.529C301.864 138.736 316.798 211.258 317.045 262.48C317.096 273.035 326.174 287.943 321.476 307.641C313.128 342.642 243.127 357.704 211.168 356.65C179.209 357.703 109.211 342.641 100.863 307.641C96.1647 287.943 105.242 273.035 105.293 262.48C105.541 211.258 120.474 138.736 210.975 138.529V138.527C211.039 138.527 211.104 138.528 211.168 138.528C211.233 138.528 211.299 138.527 211.364 138.527V138.529Z" fill="white"/>
<path d="M166.774 351.841C167.159 293.42 125.617 273.049 104.798 270.167C99.9935 277.533 97.6951 302.356 101.435 310.043C110.083 327.819 120.652 337.428 166.774 351.841Z" fill="#FFCACC"/>
<path d="M255.24 351.841C254.856 293.42 296.398 273.049 317.217 270.167C322.021 277.533 324.32 302.356 320.58 310.043C311.932 327.819 301.362 337.428 255.24 351.841Z" fill="#FFCACC"/>
<path d="M149.035 151.006C150.664 149.965 152.828 150.441 153.869 152.069C154.911 153.697 154.434 155.863 152.806 156.904C116.736 179.966 108.97 225.888 108.793 262.497C108.778 265.577 108.111 268.829 107.318 272.055C106.482 275.453 105.555 278.649 104.712 282.399C103.082 289.649 102.093 297.708 104.268 306.829C106.928 317.981 116.858 327.376 130.949 334.835C144.921 342.232 162.281 347.342 178.447 350.263C189.001 352.17 202.324 352.851 214.612 352.704C226.939 352.555 237.902 351.578 243.762 350.29L243.891 350.263C260.058 347.342 277.418 342.231 291.39 334.834C305.481 327.375 315.412 317.98 318.071 306.829C320.247 297.708 319.256 289.649 317.626 282.399C316.783 278.649 315.858 275.453 315.022 272.055C314.228 268.829 313.56 265.577 313.545 262.497C313.368 225.888 305.602 179.966 269.532 156.904C267.904 155.863 267.428 153.697 268.469 152.069C269.51 150.44 271.675 149.965 273.304 151.006C312.678 176.182 320.367 225.616 320.545 262.462C320.556 264.66 321.043 267.23 321.819 270.382C322.552 273.363 323.611 277.105 324.456 280.864C326.203 288.631 327.403 297.875 324.88 308.453C321.513 322.568 309.352 333.246 294.664 341.022C279.88 348.849 261.805 354.133 245.214 357.137C238.645 358.574 227.148 359.554 214.696 359.704C202.174 359.854 188.363 359.169 177.202 357.152C160.59 354.15 142.482 348.861 127.674 341.022C112.986 333.246 100.825 322.568 97.4582 308.453C94.9354 297.875 96.1355 288.631 97.882 280.864C98.7272 277.105 99.7863 273.363 100.52 270.382C101.295 267.23 101.783 264.66 101.793 262.462C101.971 225.615 109.661 176.182 149.035 151.006ZM211.463 135.03C217.145 135.046 222.548 135.341 227.686 135.896C229.607 136.104 230.998 137.83 230.79 139.751C230.582 141.673 228.856 143.063 226.934 142.855C222.028 142.325 216.84 142.041 211.356 142.029C211.336 142.029 211.316 142.027 211.296 142.027C211.241 142.027 211.388 142.028 211.173 142.028H211.165C210.949 142.028 211.099 142.027 211.041 142.027C211.022 142.027 211.002 142.029 210.983 142.029C204.117 142.045 197.717 142.485 191.752 143.302C189.837 143.565 188.072 142.225 187.81 140.31C187.547 138.395 188.887 136.63 190.802 136.368C197.075 135.508 203.761 135.049 210.885 135.03C210.915 135.029 210.945 135.027 210.975 135.027C211.021 135.027 211.065 135.028 211.097 135.028H211.242C211.274 135.028 211.317 135.027 211.363 135.027C211.397 135.027 211.43 135.029 211.463 135.03Z" fill="black"/>
<path d="M178.844 280.736C178.844 286.574 174.422 291.306 168.966 291.306C163.51 291.306 159.088 286.574 159.088 280.736C159.088 274.899 163.51 270.167 168.966 270.167C174.422 270.167 178.844 274.899 178.844 280.736Z" fill="#474847"/>
<path d="M264.784 280.736C264.784 286.574 260.361 291.306 254.905 291.306C249.45 291.306 245.027 286.574 245.027 280.736C245.027 274.899 249.45 270.167 254.905 270.167C260.361 270.167 264.784 274.899 264.784 280.736Z" fill="#474847"/>
<path d="M191.802 290.318C193.616 289.852 195.463 290.895 196.014 292.663C196.022 292.679 196.034 292.708 196.055 292.746C196.13 292.879 196.307 293.147 196.662 293.45C197.319 294.012 198.964 295.013 202.675 295.013C206.387 295.013 208.032 294.012 208.689 293.45C209.044 293.147 209.22 292.879 209.295 292.746C209.325 292.692 209.339 292.658 209.342 292.65C209.34 292.655 209.334 292.672 209.325 292.702C209.32 292.717 209.315 292.736 209.308 292.758C209.305 292.769 209.302 292.782 209.298 292.795C209.297 292.801 209.294 292.808 209.293 292.814C209.292 292.818 209.291 292.822 209.29 292.825C209.289 292.826 209.289 292.829 209.289 292.83C209.653 291.426 210.845 290.391 212.287 290.229C213.726 290.068 215.115 290.81 215.782 292.094C215.78 292.089 215.778 292.085 215.776 292.081C215.772 292.073 215.767 292.066 215.764 292.061C215.758 292.049 215.754 292.041 215.752 292.037C215.748 292.03 215.752 292.038 215.764 292.058C215.79 292.099 215.849 292.189 215.946 292.314C216.141 292.566 216.479 292.945 216.989 293.338C217.965 294.09 219.722 295.013 222.678 295.013C225.635 295.013 227.391 294.09 228.368 293.338C228.878 292.945 229.216 292.566 229.411 292.314C229.508 292.189 229.567 292.098 229.592 292.058C229.605 292.038 229.609 292.03 229.605 292.037C229.603 292.041 229.599 292.049 229.592 292.061C229.589 292.066 229.585 292.073 229.581 292.081C229.579 292.085 229.577 292.089 229.575 292.094C230.463 290.385 232.566 289.714 234.28 290.595C235.999 291.478 236.676 293.588 235.793 295.308L232.68 293.708C235.652 295.235 235.786 295.307 235.791 295.311C235.79 295.312 235.789 295.314 235.789 295.315C235.787 295.318 235.786 295.321 235.785 295.324C235.782 295.33 235.778 295.336 235.775 295.342C235.769 295.354 235.762 295.368 235.754 295.383C235.738 295.413 235.718 295.447 235.696 295.486C235.652 295.564 235.596 295.66 235.526 295.771C235.387 295.993 235.194 296.278 234.942 296.603C234.439 297.253 233.689 298.075 232.64 298.883C230.499 300.533 227.254 302.013 222.678 302.013C218.242 302.013 215.058 300.619 212.917 299.03C210.757 300.74 207.487 302.013 202.675 302.013C197.621 302.013 194.264 300.611 192.112 298.77C191.062 297.873 190.381 296.939 189.951 296.172C189.737 295.79 189.585 295.451 189.48 295.179C189.427 295.043 189.386 294.923 189.354 294.822C189.338 294.772 189.324 294.726 189.312 294.686C189.306 294.665 189.301 294.646 189.297 294.629C189.294 294.62 189.292 294.611 189.29 294.602C189.289 294.599 189.288 294.595 189.287 294.591C189.286 294.589 189.285 294.586 189.285 294.585C189.284 294.582 189.306 294.573 192.673 293.708L189.284 294.579C188.803 292.707 189.93 290.799 191.802 290.318ZM196.061 292.832C196.061 292.831 196.061 292.827 196.06 292.825C196.059 292.822 196.058 292.818 196.057 292.814C196.056 292.808 196.054 292.801 196.052 292.795C196.049 292.782 196.045 292.769 196.042 292.758C196.035 292.736 196.03 292.717 196.025 292.702C196.024 292.7 196.024 292.697 196.023 292.695C196.037 292.74 196.049 292.786 196.061 292.832Z" fill="black"/>
<path d="M215.799 283.303C217.565 282.519 219.633 283.314 220.418 285.08C221.203 286.846 220.408 288.915 218.642 289.7L214.318 291.622C213.455 292.005 212.474 292.024 211.597 291.674L206.792 289.752C204.997 289.034 204.124 286.997 204.842 285.202C205.56 283.407 207.597 282.534 209.392 283.252L212.824 284.626L215.799 283.303Z" fill="black"/>
</svg>
