<svg width="279" height="354" viewBox="0 0 279 354" fill="none" xmlns="http://www.w3.org/2000/svg">
<path d="M68.5093 4.96284C105.309 -5.83716 131.176 15.4628 139.509 27.4628C146.51 13.9629 174.01 -5.03716 211.01 4.96284C242.01 13.3412 256.51 48.4629 257.51 63.9629C256.676 71.1296 255.41 94.4629 243.01 130.463C263.51 147.463 267.51 180.463 265.51 211.963C282.51 229.463 302.509 356.463 139.509 350.963C-23.4908 345.463 -2.49068 258.463 11.0093 211.963C10.2093 179.163 21.3431 143.963 31.0098 130.463L17.5098 63.9629C18.5098 50.7962 31.7093 15.7628 68.5093 4.96284Z" fill="white" stroke="#A5A5A5" stroke-width="4" stroke-linecap="round" stroke-linejoin="round" stroke-dasharray="8 8"/>
<path d="M140.359 105.528C230.86 105.735 245.793 178.256 246.041 229.479C246.091 240.034 255.169 254.942 250.471 274.64C242.124 309.641 172.124 324.702 140.165 323.649C108.206 324.703 38.2067 309.641 29.8588 274.64C25.1608 254.942 34.2378 240.034 34.2888 229.479C34.536 178.256 49.4698 105.734 139.971 105.528V105.526C140.035 105.526 140.1 105.527 140.164 105.527C140.229 105.527 140.294 105.526 140.359 105.526V105.528Z" fill="white"/>
<path d="M42.6304 77.4261C38.5009 54.0067 57.4672 31.087 80.5697 27.0133C103.672 22.9397 129.334 37.9904 133.463 61.4098L135.692 115.983C137.981 149.933 125.169 167.808 111.968 170.135L100.016 172.243C86.8145 174.57 73.2286 160.101 59.2012 129.47L42.6304 77.4261Z" fill="white"/>
<path d="M236.905 77.057C241.106 53.232 222.264 29.9952 199.231 25.9337C176.197 21.8723 150.544 37.2635 146.343 61.0885L143.93 116.581C141.529 151.107 154.248 169.235 167.41 171.556L179.326 173.657C192.489 175.978 206.092 161.22 220.193 130.028L236.905 77.057Z" fill="white"/>
<path d="M61.9672 86.5307C58.3302 65.9042 69.1852 46.7492 83.4765 44.2293C97.7678 41.7093 114.52 55.9965 118.157 76.623L121.999 124.357C124.956 154.092 117.73 169.119 109.563 170.559L102.17 171.863C94.0037 173.303 84.8434 160.065 74.682 132.7L61.9672 86.5307Z" fill="#FACDC8"/>
<path d="M218.082 86.9053C221.721 66.2647 210.313 47.0003 195.446 44.3789C180.579 41.7575 163.27 55.9581 159.63 76.5987L155.96 124.396C153.09 154.167 160.7 169.271 169.195 170.769L176.886 172.125C185.381 173.623 194.81 160.422 205.183 133.075L218.082 86.9053Z" fill="#FACDC8"/>
<path d="M99.614 241.01C99.614 246.847 95.312 251.579 90.0052 251.579C84.6985 251.579 80.3965 246.847 80.3965 241.01C80.3965 235.172 84.6985 230.44 90.0052 230.44C95.312 230.44 99.614 235.172 99.614 241.01Z" fill="#474847"/>
<path d="M200.506 241.01C200.506 246.847 196.204 251.579 190.897 251.579C185.59 251.579 181.288 246.847 181.288 241.01C181.288 235.172 185.59 230.44 190.897 230.44C196.204 230.44 200.506 235.172 200.506 241.01Z" fill="#474847"/>
<path d="M81.2725 25.0398C104.801 21.4998 130.466 36.6491 134.602 60.102L136.768 115.638C139.011 149.645 126.206 167.834 112.818 170.684L112.179 170.808L110.964 163.915C115.067 163.191 120.196 159.861 124.213 152.07C128.214 144.308 130.863 132.461 129.784 116.099L129.773 115.911L127.626 60.8948C123.974 41.8087 101.984 28.4811 81.3699 32.1158C60.7538 35.751 44.6455 55.7997 47.7457 74.9857L64.4084 126.991C71.4108 142.084 78.0515 152.601 84.199 158.989C90.3907 165.422 95.0814 166.715 98.6375 166.088L99.853 172.982L99.2151 173.081C85.8013 174.919 72.0414 160.203 57.8783 129.548L40.9201 76.6206C36.7191 52.7956 56.3273 29.4235 80.1544 25.2221L81.2725 25.0398ZM110.964 163.915L112.179 170.808L99.853 172.982L98.6375 166.088L110.964 163.915Z" fill="black"/>
<path d="M198.103 25.0398C174.575 21.4998 148.91 36.6491 144.774 60.102L142.608 115.638C140.365 149.645 153.17 167.834 166.558 170.684L167.196 170.808L168.412 163.915C164.309 163.191 159.18 159.861 155.163 152.07C151.162 144.308 148.513 132.461 149.592 116.099L149.603 115.911L151.75 60.8948C155.402 41.8087 177.392 28.4811 198.006 32.1158C218.622 35.751 234.73 55.7997 231.63 74.9857L214.968 126.991C207.965 142.084 201.324 152.601 195.177 158.989C188.985 165.422 184.295 166.715 180.738 166.088L179.523 172.982L180.161 173.081C193.575 174.919 207.335 160.203 221.498 129.548L238.456 76.6206C242.657 52.7956 223.049 29.4235 199.222 25.2221L198.103 25.0398ZM168.412 163.915L167.196 170.808L179.523 172.982L180.738 166.088L168.412 163.915Z" fill="black"/>
<path d="M140.36 105.528C230.86 105.735 245.794 178.257 246.041 229.479C246.092 240.034 255.17 254.942 250.472 274.64C242.124 309.641 172.123 324.703 140.164 323.649C108.205 324.702 38.2068 309.641 29.8587 274.64C25.1608 254.942 34.2382 240.034 34.2894 229.479C34.5366 178.257 49.4702 105.735 139.971 105.528V105.526C140.035 105.526 140.1 105.527 140.164 105.527C140.229 105.527 140.295 105.526 140.36 105.526V105.528Z" fill="white"/>
<path d="M95.7704 318.84C96.1547 260.419 54.6129 240.048 33.7939 237.166C28.9895 244.532 26.6912 269.355 30.4308 277.042C39.0787 294.818 49.6484 304.427 95.7704 318.84Z" fill="#FFCACC"/>
<path d="M184.236 318.84C183.852 260.419 225.394 240.048 246.213 237.166C251.017 244.532 253.316 269.355 249.576 277.042C240.928 294.818 230.358 304.427 184.236 318.84Z" fill="#FFCACC"/>
<path d="M78.0314 118.005C79.6599 116.964 81.824 117.44 82.8654 119.068C83.9067 120.696 83.4305 122.862 81.8019 123.903C45.7323 146.965 37.9659 192.887 37.7892 229.496C37.7743 232.576 37.1074 235.828 36.3136 239.054C35.4776 242.452 34.5513 245.648 33.7082 249.398C32.0779 256.648 31.0886 264.707 33.2638 273.828C35.9236 284.98 45.8542 294.375 59.9455 301.834C73.9169 309.231 91.2766 314.341 107.444 317.262C117.997 319.169 131.32 319.85 143.609 319.703C155.936 319.555 166.898 318.577 172.758 317.289L172.887 317.262C189.054 314.341 206.414 309.23 220.386 301.833C234.477 294.374 244.408 284.979 247.068 273.828C249.243 264.707 248.252 256.648 246.622 249.398C245.779 245.648 244.854 242.452 244.018 239.054C243.224 235.828 242.556 232.576 242.541 229.496C242.364 192.887 234.598 146.965 198.528 123.903C196.9 122.862 196.424 120.696 197.465 119.068C198.506 117.439 200.671 116.964 202.3 118.005C241.674 143.181 249.363 192.615 249.541 229.461C249.552 231.659 250.039 234.229 250.815 237.381C251.548 240.362 252.607 244.104 253.452 247.863C255.199 255.63 256.399 264.874 253.876 275.452C250.51 289.567 238.349 300.245 223.66 308.021C208.876 315.848 190.801 321.132 174.21 324.136C167.641 325.573 156.144 326.553 143.693 326.703C131.17 326.853 117.359 326.168 106.198 324.151C89.586 321.149 71.478 315.86 56.6701 308.021C41.9818 300.245 29.8208 289.567 26.4543 275.452C23.9315 264.874 25.1316 255.63 26.8781 247.863C27.7233 244.104 28.7824 240.362 29.5158 237.381C30.2914 234.229 30.7786 231.659 30.7892 229.461C30.9671 192.615 38.657 143.181 78.0314 118.005ZM140.459 102.029C146.141 102.045 151.544 102.34 156.682 102.895C158.603 103.103 159.994 104.829 159.786 106.75C159.579 108.672 157.852 110.062 155.93 109.854C151.024 109.324 145.836 109.04 140.352 109.028C140.332 109.028 140.312 109.026 140.292 109.026C140.237 109.026 140.384 109.027 140.169 109.027H140.161C139.945 109.027 140.095 109.026 140.037 109.026C140.018 109.026 139.998 109.028 139.979 109.028C133.114 109.044 126.714 109.484 120.748 110.301C118.833 110.564 117.068 109.224 116.806 107.309C116.543 105.394 117.883 103.629 119.798 103.367C126.071 102.507 132.757 102.048 139.881 102.029C139.911 102.028 139.941 102.026 139.971 102.026C140.017 102.026 140.062 102.027 140.093 102.027H140.238C140.27 102.027 140.314 102.026 140.36 102.026C140.393 102.026 140.426 102.028 140.459 102.029Z" fill="black"/>
<path d="M107.84 247.735C107.84 253.573 103.418 258.305 97.9621 258.305C92.5066 258.305 88.084 253.573 88.084 247.735C88.084 241.898 92.5066 237.166 97.9621 237.166C103.418 237.166 107.84 241.898 107.84 247.735Z" fill="#474847"/>
<path d="M193.78 247.735C193.78 253.573 189.357 258.305 183.902 258.305C178.446 258.305 174.023 253.573 174.023 247.735C174.023 241.898 178.446 237.166 183.902 237.166C189.357 237.166 193.78 241.898 193.78 247.735Z" fill="#474847"/>
<path d="M120.798 257.317C122.612 256.851 124.459 257.895 125.01 259.662C125.018 259.678 125.03 259.707 125.051 259.745C125.126 259.878 125.303 260.146 125.658 260.449C126.315 261.011 127.96 262.012 131.672 262.012C135.383 262.012 137.028 261.011 137.685 260.449C138.04 260.146 138.216 259.879 138.291 259.745C138.321 259.691 138.335 259.657 138.339 259.649C138.337 259.654 138.33 259.671 138.321 259.701C138.316 259.716 138.311 259.735 138.304 259.757C138.301 259.768 138.298 259.781 138.295 259.794C138.293 259.8 138.291 259.807 138.289 259.813C138.288 259.817 138.287 259.821 138.286 259.824C138.285 259.826 138.285 259.828 138.285 259.829C138.649 258.425 139.841 257.39 141.283 257.228C142.722 257.067 144.111 257.809 144.778 259.093C144.776 259.088 144.774 259.084 144.772 259.08C144.768 259.072 144.764 259.065 144.76 259.06C144.754 259.048 144.75 259.04 144.748 259.036C144.744 259.029 144.748 259.037 144.76 259.057C144.786 259.098 144.845 259.189 144.942 259.313C145.137 259.565 145.475 259.944 145.985 260.337C146.961 261.089 148.718 262.012 151.674 262.012C154.631 262.012 156.388 261.089 157.364 260.337C157.874 259.944 158.212 259.565 158.407 259.313C158.504 259.188 158.563 259.098 158.589 259.057C158.601 259.037 158.605 259.029 158.601 259.036C158.599 259.04 158.595 259.048 158.589 259.06C158.585 259.065 158.581 259.072 158.577 259.08C158.575 259.084 158.573 259.088 158.571 259.093C159.459 257.384 161.562 256.713 163.276 257.594C164.995 258.477 165.672 260.587 164.789 262.307L161.676 260.707C164.648 262.235 164.782 262.306 164.787 262.311C164.786 262.311 164.786 262.313 164.785 262.314C164.783 262.317 164.782 262.32 164.781 262.323C164.778 262.329 164.774 262.335 164.771 262.341C164.765 262.353 164.758 262.367 164.75 262.382C164.734 262.412 164.714 262.446 164.692 262.485C164.648 262.563 164.592 262.659 164.522 262.77C164.383 262.992 164.19 263.277 163.938 263.602C163.435 264.252 162.685 265.074 161.636 265.882C159.495 267.532 156.25 269.012 151.674 269.012C147.238 269.012 144.054 267.618 141.913 266.029C139.753 267.739 136.483 269.012 131.672 269.012C126.617 269.012 123.26 267.61 121.108 265.769C120.058 264.872 119.378 263.938 118.947 263.171C118.733 262.789 118.582 262.45 118.476 262.178C118.424 262.042 118.382 261.922 118.35 261.821C118.334 261.771 118.32 261.725 118.308 261.685C118.303 261.664 118.297 261.645 118.293 261.628C118.29 261.619 118.288 261.61 118.286 261.602C118.285 261.598 118.284 261.594 118.283 261.59C118.282 261.588 118.281 261.585 118.281 261.584C118.28 261.581 118.302 261.573 121.67 260.707L118.28 261.578C117.799 259.706 118.926 257.798 120.798 257.317ZM125.057 259.831C125.057 259.83 125.057 259.826 125.056 259.824C125.055 259.821 125.054 259.817 125.053 259.813C125.052 259.807 125.05 259.8 125.048 259.794C125.045 259.781 125.041 259.768 125.038 259.757C125.031 259.735 125.026 259.716 125.021 259.701C125.02 259.699 125.02 259.696 125.019 259.694C125.033 259.739 125.045 259.785 125.057 259.831Z" fill="black"/>
<path d="M144.795 250.302C146.561 249.518 148.629 250.313 149.414 252.079C150.199 253.845 149.404 255.914 147.638 256.699L143.314 258.621C142.451 259.004 141.47 259.023 140.593 258.673L135.788 256.751C133.994 256.033 133.12 253.996 133.838 252.201C134.556 250.406 136.593 249.533 138.388 250.251L141.82 251.625L144.795 250.302Z" fill="black"/>
</svg>
