<svg width="420" height="420" viewBox="0 0 420 420" fill="none" xmlns="http://www.w3.org/2000/svg">
<path d="M77.2416 222.698C77.2416 94.1977 165.075 69.1975 212.742 74.6975C291.742 70.6976 343.742 130.697 341.242 222.698C362.242 280.698 341.241 346.198 206.241 346.198C82.0146 346.198 59.741 284.198 77.2416 222.698Z" fill="white" stroke="#A5A5A5" stroke-width="4" stroke-linecap="round" stroke-linejoin="round" stroke-dasharray="8 8"/>
<path d="M209.227 95.6992C303.413 95.9145 318.954 171.389 319.212 224.697C319.265 235.682 328.712 251.197 323.823 271.697C315.135 308.123 242.286 323.798 209.025 322.702C175.765 323.799 102.915 308.123 94.2272 271.697C89.3379 251.197 98.7845 235.682 98.8376 224.697C99.0949 171.389 114.637 95.9143 208.823 95.6992V95.6973C208.89 95.6973 208.957 95.6982 209.024 95.6982C209.092 95.6982 209.16 95.6973 209.227 95.6973V95.6992Z" fill="white"/>
<path d="M166.822 236.697C166.822 242.772 162.345 247.697 156.822 247.697C151.299 247.697 146.822 242.772 146.822 236.697C146.822 230.622 151.299 225.697 156.822 225.697C162.345 225.697 166.822 230.622 166.822 236.697Z" fill="#474847"/>
<path d="M271.822 236.697C271.822 242.772 267.345 247.697 261.822 247.697C256.299 247.697 251.822 242.772 251.822 236.697C251.822 230.622 256.299 225.697 261.822 225.697C267.345 225.697 271.822 230.622 271.822 236.697Z" fill="#474847"/>
<path d="M209.163 95.6992C303.349 95.9145 318.891 171.389 319.148 224.697C319.201 235.682 328.648 251.197 323.758 271.697C315.071 308.123 242.221 323.798 208.961 322.702C175.7 323.799 102.851 308.123 94.1627 271.697C89.2734 251.197 98.7201 235.682 98.7731 224.697C99.0304 171.389 114.572 95.9143 208.758 95.6992V95.6973C208.826 95.6973 208.893 95.6982 208.96 95.6982C209.027 95.6982 209.095 95.6973 209.163 95.6973V95.6992Z" fill="white"/>
<path d="M178.236 303.734C150.223 306.738 112.416 286.961 95.7412 276.697C99.7412 298.477 151.223 322.134 208.25 323.636C265.277 325.139 328.744 290.222 322.241 272.197C292.08 303.734 259.274 303.734 240.765 303.734C222.256 303.734 218.255 298.102 208.25 298.477C198.245 298.853 195.244 303.734 178.236 303.734Z" fill="#F6F3F3"/>
<path d="M162.677 317.697C163.077 256.897 119.843 235.697 98.1765 232.697C93.1765 240.364 90.7846 266.197 94.6765 274.197C103.677 292.697 114.677 302.697 162.677 317.697Z" fill="#FFCACC"/>
<path d="M254.743 317.697C254.343 256.897 297.577 235.697 319.243 232.697C324.243 240.364 326.635 266.197 322.743 274.197C313.743 292.697 302.743 302.697 254.743 317.697Z" fill="#FFCACC"/>
<path d="M209.265 92.2002C257.427 92.3355 286.001 111.808 302.361 138.457C318.556 164.836 322.519 197.81 322.648 224.681C322.66 226.985 323.17 229.674 323.978 232.956C324.743 236.067 325.842 239.95 326.722 243.861C328.537 251.934 329.781 261.53 327.163 272.509C324.741 282.664 317.914 291.099 308.964 297.965C300.006 304.836 288.681 310.327 276.746 314.568C252.959 323.021 226.063 326.745 208.96 326.202C191.857 326.745 164.961 323.021 141.175 314.568C129.24 310.327 117.916 304.836 108.958 297.965C100.008 291.099 93.18 282.664 90.7578 272.509C88.1395 261.53 89.385 251.934 91.2002 243.861C92.0798 239.95 93.179 236.067 93.9444 232.956C94.7519 229.674 95.2623 226.985 95.2735 224.681C95.4032 197.81 99.3652 164.836 115.56 138.457C131.92 111.808 160.494 92.3355 208.656 92.2002C208.69 92.1992 208.725 92.1973 208.759 92.1973C208.806 92.1973 208.851 92.198 208.884 92.1982H209.037C209.07 92.198 209.116 92.1973 209.163 92.1973C209.197 92.1973 209.231 92.1992 209.265 92.2002ZM208.964 99.1982H208.956C208.735 99.198 208.887 99.1974 208.826 99.1973C208.806 99.1976 208.787 99.1992 208.767 99.1992C162.8 99.3042 136.537 117.668 121.525 142.119C106.338 166.858 102.401 198.276 102.273 224.714C102.258 227.901 101.567 231.272 100.741 234.629C99.8733 238.157 98.9068 241.494 98.0293 245.396C96.3303 252.952 95.2965 261.364 97.5674 270.886C99.4893 278.943 105.026 286.127 113.218 292.411C121.402 298.689 131.998 303.879 143.519 307.973C166.59 316.171 192.682 319.737 208.846 319.204H209.076C225.24 319.737 251.331 316.171 274.402 307.973C285.923 303.879 296.519 298.689 304.703 292.411C312.895 286.127 318.432 278.943 320.354 270.886C322.624 261.364 321.591 252.952 319.892 245.396C319.014 241.494 318.048 238.157 317.18 234.629C316.354 231.272 315.664 227.901 315.648 224.714C315.521 198.276 311.583 166.859 296.396 142.12C281.384 117.668 255.121 99.3043 209.154 99.1992C209.134 99.1992 209.115 99.1976 209.095 99.1973C209.037 99.1974 209.178 99.198 208.964 99.1982Z" fill="black"/>
<path d="M173.302 243.697C173.302 249.772 168.699 254.697 163.022 254.697C157.344 254.697 152.741 249.772 152.741 243.697C152.741 237.622 157.344 232.697 163.022 232.697C168.699 232.697 173.302 237.622 173.302 243.697Z" fill="#474847"/>
<path d="M262.741 243.697C262.741 249.772 258.139 254.697 252.461 254.697C246.783 254.697 242.181 249.772 242.181 243.697C242.181 237.622 246.783 232.697 252.461 232.697C258.139 232.697 262.741 237.622 262.741 243.697Z" fill="#474847"/>
<path d="M186.824 261.808C188.64 261.341 190.488 262.388 191.037 264.16C191.045 264.178 191.062 264.214 191.09 264.266C191.176 264.417 191.369 264.709 191.753 265.037C192.467 265.648 194.214 266.697 198.104 266.697C201.994 266.697 203.741 265.648 204.455 265.037C204.838 264.709 205.032 264.417 205.117 264.266C205.152 264.204 205.169 264.163 205.174 264.151C205.587 262.833 206.739 261.874 208.123 261.719C209.562 261.557 210.951 262.299 211.618 263.583C211.616 263.579 211.614 263.574 211.612 263.57C211.608 263.562 211.604 263.555 211.601 263.55C211.595 263.539 211.591 263.531 211.59 263.528C211.592 263.532 211.597 263.541 211.605 263.555C211.634 263.601 211.698 263.7 211.802 263.834C212.012 264.104 212.372 264.507 212.914 264.925C213.954 265.726 215.812 266.697 218.922 266.697C222.031 266.697 223.89 265.726 224.929 264.925C225.471 264.507 225.832 264.104 226.041 263.834C226.145 263.7 226.209 263.601 226.238 263.555C226.252 263.532 226.257 263.523 226.255 263.528C226.253 263.531 226.248 263.539 226.242 263.55C226.239 263.555 226.235 263.562 226.231 263.57C226.229 263.574 226.228 263.579 226.225 263.583C227.113 261.874 229.216 261.203 230.93 262.084C232.649 262.968 233.327 265.078 232.443 266.797L229.331 265.197C232.292 266.719 232.435 266.795 232.441 266.801C232.441 266.801 232.44 266.803 232.439 266.805C232.438 266.807 232.437 266.811 232.435 266.813C232.432 266.819 232.429 266.825 232.425 266.831C232.419 266.844 232.411 266.858 232.403 266.873C232.387 266.903 232.368 266.939 232.345 266.978C232.3 267.058 232.243 267.156 232.172 267.269C232.029 267.497 231.832 267.789 231.573 268.123C231.055 268.791 230.283 269.637 229.202 270.47C226.997 272.169 223.65 273.697 218.922 273.697C214.275 273.697 210.964 272.22 208.758 270.557C206.541 272.346 203.149 273.697 198.104 273.697C192.871 273.697 189.412 272.247 187.203 270.357C186.125 269.435 185.427 268.477 184.986 267.691C184.767 267.301 184.612 266.954 184.505 266.677C184.451 266.538 184.408 266.415 184.376 266.313C184.36 266.263 184.346 266.216 184.335 266.176C184.329 266.155 184.323 266.136 184.318 266.118C184.316 266.109 184.313 266.1 184.311 266.092C184.31 266.088 184.309 266.084 184.308 266.08C184.308 266.078 184.307 266.075 184.306 266.074C184.306 266.071 184.328 266.063 187.695 265.197L184.305 266.068C183.824 264.196 184.952 262.289 186.824 261.808ZM191.083 264.321C191.082 264.32 191.082 264.316 191.082 264.314C191.081 264.311 191.08 264.307 191.079 264.304C191.077 264.297 191.076 264.29 191.074 264.284C191.07 264.271 191.066 264.259 191.063 264.248L191.083 264.321ZM205.161 264.193C205.156 264.208 205.151 264.226 205.144 264.248C205.141 264.259 205.138 264.271 205.134 264.284C205.133 264.29 205.13 264.297 205.129 264.304C205.128 264.307 205.127 264.311 205.126 264.314C205.125 264.316 205.125 264.318 205.125 264.319C205.139 264.263 205.157 264.208 205.174 264.152C205.172 264.159 205.167 264.172 205.161 264.193Z" fill="black"/>
</svg>
