<svg width="420" height="420" viewBox="0 0 420 420" fill="none" xmlns="http://www.w3.org/2000/svg">
<path d="M263.709 50.2315C257.713 48.2172 242.221 59.2961 228.729 85.4825C222.899 81.118 206.742 77.9287 188.752 85.4823C181.755 75.5785 164.965 50.6343 155.77 50.2315C140.279 49.5527 126.287 66.8497 117.792 98.5755C87.8085 96.964 71.9843 112.676 67.82 118.215C62.8228 122.915 58.8249 141.582 82.8114 178.645C71.6177 186.3 68.1531 219.771 67.82 235.55C45.6659 281.712 55.8268 369 210.239 369C373.147 369 373.147 278.355 350.16 235.55C351.16 211.378 346.162 187.206 342.665 174.113C362.654 154.473 357.157 120.733 356.157 118.215C355.158 115.697 347.162 97.0647 301.188 98.5755C294.692 65.8424 269.706 52.2459 263.709 50.2315Z" fill="white" stroke="#A5A5A5" stroke-width="4" stroke-linecap="round" stroke-linejoin="round" stroke-dasharray="8 8"/>
<path d="M88.6826 131.676C94.0196 114.676 131.019 121.503 142.35 122.618C162.613 133.453 148.188 187.585 132.952 186.512C109.904 184.888 82.4038 151.676 88.6826 131.676Z" fill="white"/>
<path d="M331.336 131.676C325.999 114.676 289 121.503 277.669 122.618C257.406 133.453 271.831 187.585 287.067 186.512C310.115 184.888 337.615 151.676 331.336 131.676Z" fill="white"/>
<path d="M88.6828 134.176C85.0828 148.976 98.8494 165.676 106.183 172.176C123.783 172.176 132.183 150.509 134.183 139.676C124.849 135.842 102.683 129.376 88.6828 134.176Z" fill="#FACDC8"/>
<path d="M333.593 134.176C337.193 148.976 323.426 165.676 316.093 172.176C298.493 172.176 290.093 150.509 288.093 139.676C297.426 135.842 319.593 129.376 333.593 134.176Z" fill="#FCD0D6"/>
<path d="M158.199 79.3289C166.936 79.9563 167.683 94.6757 183.183 108.176C176.783 127.376 154.119 127.168 143.587 124.664C129.464 98.5296 147.278 78.5447 158.199 79.3289Z" fill="#EBD1B2"/>
<path d="M263.781 79.3289C255.044 79.9563 254.297 94.6757 238.797 108.176C245.732 116.168 263.36 130.655 278.392 124.664C292.516 98.5296 274.702 78.5447 263.781 79.3289Z" fill="#EBD1B2"/>
<path d="M210.896 106.178C310.187 106.404 326.57 185.849 326.841 241.96C326.897 253.523 336.857 269.854 331.703 291.432C322.544 329.774 245.746 346.273 210.683 345.119C175.62 346.273 98.8214 329.774 89.6627 291.432C84.5084 269.854 94.467 253.523 94.5229 241.96C94.7942 185.849 111.178 106.404 210.47 106.178V106.176C210.54 106.176 210.611 106.177 210.682 106.177C210.753 106.177 210.825 106.176 210.896 106.176V106.178Z" fill="white"/>
<path d="M96.4434 119.676C91.4324 121.651 87.0973 125.043 85.3442 130.627C83.4758 136.579 84.1977 143.213 86.4018 149.596C88.6162 156.008 92.4149 162.44 97.1069 168.196C106.37 179.561 119.811 189.095 132.707 190.003C135.72 190.215 138.438 189.034 140.699 187.29C142.949 185.554 144.943 183.12 146.667 180.358C150.12 174.826 152.844 167.403 154.394 159.724C155.945 152.044 156.379 143.818 155.011 136.666C153.651 129.559 150.377 122.941 144 119.531L143.847 119.454C143.484 119.283 143.093 119.174 142.692 119.135C137.358 118.61 124.802 116.569 113.183 116.855C107.347 116.998 101.395 117.724 96.4434 119.676ZM92.0228 132.724C92.9382 129.808 95.2287 127.678 99.01 126.188C102.851 124.674 107.858 123.988 113.355 123.853C123.954 123.592 135.068 125.356 141.249 126.021C144.701 128.136 147.035 132.225 148.136 137.981C149.286 143.993 148.961 151.264 147.533 158.338C146.106 165.411 143.633 171.997 140.729 176.652C139.275 178.982 137.8 180.686 136.424 181.748C135.059 182.801 133.994 183.076 133.198 183.02C123.046 182.305 111.211 174.421 102.533 163.773C98.2537 158.524 94.9147 152.801 93.0186 147.31C91.1121 141.79 90.7518 136.773 92.0228 132.724Z" fill="black"/>
<path d="M323.577 119.676C328.588 121.651 332.923 125.043 334.676 130.627C336.544 136.579 335.822 143.213 333.618 149.596C331.404 156.008 327.605 162.44 322.913 168.196C313.65 179.561 300.209 189.095 287.313 190.003C284.3 190.215 281.582 189.034 279.321 187.29C277.071 185.554 275.077 183.12 273.353 180.358C269.9 174.826 267.176 167.403 265.626 159.724C264.075 152.044 263.641 143.818 265.009 136.666C266.369 129.559 269.643 122.941 276.02 119.531L276.173 119.454C276.536 119.283 276.927 119.174 277.328 119.135C282.662 118.61 295.218 116.569 306.837 116.855C312.673 116.998 318.625 117.724 323.577 119.676ZM327.997 132.724C327.082 129.808 324.791 127.678 321.01 126.188C317.169 124.674 312.162 123.988 306.665 123.853C296.067 123.592 284.952 125.356 278.772 126.021C275.319 128.136 272.985 132.225 271.884 137.981C270.734 143.993 271.059 151.264 272.487 158.338C273.914 165.411 276.387 171.997 279.291 176.652C280.746 178.982 282.22 180.686 283.596 181.748C284.961 182.801 286.026 183.076 286.822 183.02C296.974 182.305 308.809 174.421 317.487 163.773C321.766 158.524 325.105 152.801 327.001 147.31C328.908 141.79 329.268 136.773 327.997 132.724Z" fill="black"/>
<path d="M158.451 75.8373C161.777 76.0762 164.239 77.7108 166.189 79.8356C168.026 81.8373 169.609 84.5021 171.169 87.1448C174.386 92.5915 178.203 99.1954 185.483 105.536C186.94 106.805 187.092 109.016 185.823 110.474C184.554 111.931 182.343 112.085 180.885 110.815C172.665 103.656 168.357 96.1498 165.141 90.705C163.486 87.902 162.276 85.9249 161.031 84.5684C159.899 83.3351 158.99 82.8946 157.949 82.8198C156.296 82.7013 153.94 83.3765 151.383 85.2366C148.876 87.0602 146.425 89.8551 144.637 93.4578C141.11 100.562 140.124 110.891 146.667 122.999C147.586 124.7 146.952 126.823 145.252 127.742C143.551 128.661 141.428 128.028 140.509 126.327C132.929 112.301 133.788 99.5707 138.367 90.3455C140.632 85.7833 143.8 82.0956 147.264 79.5759C150.677 77.0931 154.642 75.5638 158.451 75.8373Z" fill="black"/>
<path d="M152.63 94.7966C151.869 93.0201 149.811 92.1973 148.034 92.9587L137.534 97.4587C135.758 98.2202 134.935 100.278 135.697 102.054C136.458 103.831 138.516 104.654 140.292 103.892L150.792 99.3923C152.569 98.6308 153.392 96.5732 152.63 94.7966Z" fill="black"/>
<path d="M152.63 104.797C151.869 103.02 149.811 102.197 148.034 102.959L137.534 107.459C135.758 108.22 134.935 110.278 135.697 112.054C136.458 113.831 138.516 114.654 140.292 113.892L150.792 109.392C152.569 108.631 153.392 106.573 152.63 104.797Z" fill="black"/>
<path d="M263.53 75.8373C260.204 76.0762 257.742 77.7108 255.792 79.8356C253.955 81.8373 252.372 84.5021 250.812 87.1448C247.595 92.5915 243.778 99.1954 236.498 105.536C235.041 106.805 234.888 109.016 236.158 110.474C237.427 111.931 239.638 112.085 241.096 110.815C249.316 103.656 253.624 96.1498 256.84 90.705C258.495 87.902 259.705 85.9249 260.95 84.5684C262.082 83.3351 262.991 82.8946 264.032 82.8198C265.684 82.7013 268.041 83.3765 270.598 85.2366C273.105 87.0602 275.555 89.8551 277.344 93.4578C280.871 100.562 281.857 110.891 275.314 122.999C274.395 124.7 275.029 126.823 276.729 127.742C278.43 128.661 280.553 128.028 281.472 126.327C289.052 112.301 288.193 99.5707 283.614 90.3455C281.349 85.7833 278.18 82.0956 274.717 79.5759C271.304 77.0931 267.339 75.5638 263.53 75.8373Z" fill="black"/>
<path d="M269.35 94.7966C270.112 93.0201 272.169 92.1973 273.946 92.9587L284.446 97.4587C286.223 98.2202 287.045 100.278 286.284 102.054C285.522 103.831 283.465 104.654 281.688 103.892L271.188 99.3923C269.412 98.6308 268.589 96.5732 269.35 94.7966Z" fill="black"/>
<path d="M269.35 104.797C270.112 103.02 272.169 102.197 273.946 102.959L284.446 107.459C286.223 108.22 287.045 110.278 286.284 112.054C285.522 113.831 283.465 114.654 281.688 113.892L271.188 109.392C269.412 108.631 268.589 106.573 269.35 104.797Z" fill="black"/>
<path d="M210.864 105.714C310.22 105.941 326.615 185.559 326.886 241.793C326.942 253.381 336.907 269.748 331.749 291.373C322.585 329.798 245.736 346.334 210.65 345.177C175.563 346.333 98.7157 329.798 89.5512 291.373C84.3937 269.748 94.3593 253.381 94.4154 241.793C94.6869 185.559 111.082 105.941 210.438 105.714V105.712C210.509 105.712 210.58 105.713 210.651 105.713C210.722 105.713 210.793 105.712 210.864 105.712V105.714Z" fill="white"/>
<path d="M145.583 318.147C134.562 307.705 142.184 279.363 157.682 277.675C173.181 275.987 185.682 255.675 211.682 255.675C237.682 255.675 240.682 270.396 259.682 274.675C278.682 278.954 285.125 302.602 278.682 313.175C270.629 326.392 248.76 340.175 214.035 340.175C177.486 340.175 161.372 333.108 145.583 318.147Z" fill="#EDEDED"/>
<path d="M276.682 334.676C268.682 270.176 305.571 252.458 328.496 249.176C332.199 257.176 335.8 284.923 331.682 293.676C322.16 313.917 303.182 325.676 276.682 334.676Z" fill="#FFCACC"/>
<path d="M147.182 335.176C156.182 282.176 115.618 252.458 92.6934 249.176C88.99 257.176 85.3892 284.923 89.5071 293.676C99.0299 313.917 116.682 323.676 147.182 335.176Z" fill="#FFCACC"/>
<path d="M308.239 156.407C309.954 155.515 312.068 156.181 312.96 157.896C326.722 184.348 330.26 215.744 330.386 241.776C330.398 244.231 330.942 247.086 331.794 250.551C332.604 253.844 333.76 257.925 334.688 262.051C336.599 270.553 337.907 280.644 335.154 292.185C331.511 307.462 318.378 319.082 302.393 327.59C286.29 336.161 266.571 341.97 248.415 345.294C237.376 347.315 222.133 347.97 207.963 347.807C193.8 347.645 180.354 346.662 172.886 345.294C154.73 341.97 135.011 336.161 118.908 327.59C102.923 319.082 89.7904 307.462 86.1466 292.185C83.394 280.644 84.7017 270.553 86.6134 262.051C87.5412 257.925 88.6968 253.844 89.507 250.551C90.3594 247.086 90.9033 244.231 90.9152 241.776C91.0409 215.744 94.5793 184.348 108.341 157.896C109.233 156.181 111.347 155.515 113.062 156.407C114.776 157.299 115.443 159.413 114.551 161.127C101.544 186.129 98.0387 216.215 97.9152 241.81C97.8991 245.148 97.1754 248.685 96.3048 252.223C95.392 255.933 94.3683 259.469 93.4425 263.586C91.6471 271.571 90.5512 280.477 92.9562 290.561C95.8962 302.888 106.813 313.224 122.196 321.412C137.463 329.537 156.435 335.166 174.147 338.409C181.033 339.669 194.015 340.646 208.043 340.807C222.065 340.968 236.779 340.308 247.154 338.409C264.866 335.166 283.838 329.537 299.105 321.412C314.488 313.224 325.405 302.888 328.345 290.561C330.75 280.477 329.654 271.571 327.859 263.586C326.933 259.469 325.909 255.933 324.996 252.223C324.126 248.685 323.402 245.148 323.386 241.81C323.262 216.215 319.757 186.129 306.75 161.127C305.858 159.413 306.525 157.299 308.239 156.407ZM210.954 102.215C244.085 102.305 268.498 111.071 286.293 125.118C287.81 126.315 288.07 128.516 286.872 130.034C285.675 131.551 283.473 131.81 281.956 130.613C265.586 117.691 242.748 109.287 210.856 109.214C210.835 109.214 210.815 109.213 210.795 109.212C210.731 109.213 210.873 109.213 210.653 109.213H210.646C210.419 109.213 210.574 109.213 210.505 109.212C210.485 109.213 210.465 109.214 210.445 109.214C178.552 109.287 155.715 117.691 139.345 130.613C137.828 131.81 135.626 131.551 134.429 130.034C133.231 128.516 133.491 126.315 135.008 125.118C152.803 111.071 177.216 102.306 210.346 102.215C210.376 102.215 210.407 102.212 210.438 102.212C210.487 102.212 210.533 102.213 210.568 102.213H210.733C210.767 102.213 210.814 102.212 210.863 102.212C210.894 102.212 210.924 102.215 210.954 102.215Z" fill="black"/>
<path d="M177.743 260.176C177.743 266.251 173.141 271.176 167.463 271.176C161.785 271.176 157.183 266.251 157.183 260.176C157.183 254.101 161.785 249.176 167.463 249.176C173.141 249.176 177.743 254.101 177.743 260.176Z" fill="#474847"/>
<path d="M267.183 260.176C267.183 266.251 262.58 271.176 256.902 271.176C251.225 271.176 246.622 266.251 246.622 260.176C246.622 254.101 251.225 249.176 256.902 249.176C262.58 249.176 267.183 254.101 267.183 260.176Z" fill="#474847"/>
<path d="M191.265 272.286C193.081 271.819 194.929 272.867 195.478 274.639C195.486 274.656 195.503 274.693 195.531 274.744C195.617 274.896 195.81 275.188 196.194 275.516C196.908 276.126 198.654 277.176 202.545 277.176C206.435 277.176 208.181 276.126 208.896 275.516C209.279 275.188 209.473 274.896 209.558 274.744C209.592 274.682 209.61 274.642 209.615 274.63C210.028 273.312 211.18 272.352 212.564 272.197C214.003 272.036 215.391 272.778 216.059 274.061C216.056 274.057 216.055 274.053 216.053 274.049C216.049 274.041 216.045 274.034 216.042 274.028C216.036 274.017 216.032 274.01 216.03 274.007C216.032 274.01 216.037 274.019 216.046 274.033C216.075 274.079 216.139 274.178 216.243 274.312C216.452 274.582 216.813 274.986 217.355 275.403C218.394 276.204 220.253 277.176 223.362 277.176C226.472 277.176 228.33 276.204 229.37 275.403C229.912 274.986 230.272 274.582 230.482 274.312C230.586 274.178 230.65 274.079 230.679 274.033C230.693 274.011 230.698 274.002 230.695 274.007C230.694 274.01 230.689 274.017 230.683 274.028C230.68 274.034 230.676 274.041 230.672 274.049C230.67 274.053 230.668 274.057 230.666 274.061C231.554 272.353 233.657 271.681 235.371 272.562C237.09 273.446 237.767 275.556 236.884 277.275L233.772 275.676C236.733 277.198 236.876 277.274 236.882 277.279C236.882 277.28 236.881 277.282 236.88 277.283C236.879 277.286 236.878 277.289 236.876 277.292C236.873 277.298 236.87 277.303 236.866 277.31C236.86 277.322 236.852 277.336 236.844 277.351C236.828 277.382 236.809 277.417 236.786 277.457C236.741 277.536 236.684 277.634 236.612 277.748C236.47 277.975 236.273 278.267 236.014 278.601C235.496 279.269 234.723 280.116 233.643 280.948C231.438 282.647 228.091 284.176 223.362 284.176C218.716 284.176 215.405 282.698 213.199 281.035C210.982 282.825 207.59 284.176 202.545 284.176C197.312 284.176 193.853 282.725 191.644 280.836C190.565 279.914 189.868 278.956 189.427 278.17C189.208 277.779 189.053 277.432 188.945 277.155C188.892 277.016 188.849 276.894 188.817 276.792C188.8 276.741 188.787 276.695 188.776 276.654C188.77 276.634 188.764 276.614 188.759 276.597C188.757 276.588 188.754 276.578 188.752 276.57C188.751 276.566 188.75 276.562 188.749 276.559C188.749 276.557 188.747 276.554 188.747 276.553C188.747 276.55 188.769 276.541 192.136 275.676L188.746 276.547C188.265 274.675 189.393 272.767 191.265 272.286ZM195.524 274.8C195.523 274.799 195.523 274.795 195.523 274.793C195.522 274.789 195.521 274.786 195.52 274.782C195.518 274.775 195.516 274.769 195.515 274.763C195.511 274.75 195.507 274.737 195.504 274.726L195.524 274.8ZM209.602 274.672C209.597 274.686 209.591 274.704 209.585 274.726C209.582 274.737 209.579 274.75 209.575 274.763C209.574 274.769 209.571 274.775 209.569 274.782C209.569 274.786 209.567 274.789 209.567 274.793C209.566 274.794 209.566 274.797 209.566 274.798C209.58 274.741 209.598 274.686 209.615 274.631C209.613 274.637 209.608 274.651 209.602 274.672Z" fill="black"/>
</svg>
