<svg width="281" height="277" viewBox="0 0 281 277" fill="none" xmlns="http://www.w3.org/2000/svg">
<path d="M7.23965 150.698C7.23965 22.1977 95.0731 -2.8025 142.74 2.6975C221.74 -1.30236 273.74 58.6974 271.24 150.698C292.24 208.698 271.239 274.198 136.239 274.198C12.0126 274.198 -10.261 212.198 7.23965 150.698Z" fill="white" stroke="#A5A5A5" stroke-width="4" stroke-linecap="round" stroke-linejoin="round" stroke-dasharray="8 8"/>
<path d="M139.225 23.6992C233.411 23.9145 248.952 99.3893 249.21 152.697C249.263 163.682 258.71 179.197 253.821 199.697C245.133 236.123 172.284 251.798 139.023 250.702C105.763 251.799 32.9131 236.123 24.2252 199.697C19.3359 179.197 28.7826 163.682 28.8356 152.697C29.0929 99.3892 44.6348 23.9143 138.821 23.6992V23.6973C138.888 23.6973 138.955 23.6982 139.022 23.6982C139.09 23.6982 139.158 23.6973 139.225 23.6973V23.6992Z" fill="white"/>
<path d="M96.8203 164.697C96.8203 170.772 92.3432 175.697 86.8203 175.697C81.2975 175.697 76.8203 170.772 76.8203 164.697C76.8203 158.622 81.2975 153.697 86.8203 153.697C92.3432 153.697 96.8203 158.622 96.8203 164.697Z" fill="#474847"/>
<path d="M201.82 164.697C201.82 170.772 197.343 175.697 191.82 175.697C186.297 175.697 181.82 170.772 181.82 164.697C181.82 158.622 186.297 153.697 191.82 153.697C197.343 153.697 201.82 158.622 201.82 164.697Z" fill="#474847"/>
<path d="M139.161 23.6992C233.347 23.9145 248.889 99.3893 249.146 152.697C249.199 163.682 258.646 179.197 253.757 199.697C245.069 236.123 172.219 251.798 138.959 250.702C105.698 251.799 32.8487 236.123 24.1608 199.697C19.2715 179.197 28.7181 163.682 28.7711 152.697C29.0285 99.3892 44.5704 23.9143 138.757 23.6992V23.6973C138.824 23.6973 138.891 23.6982 138.958 23.6982C139.025 23.6982 139.093 23.6973 139.161 23.6973V23.6992Z" fill="white"/>
<path d="M108.234 231.734C80.2206 234.738 42.4138 214.961 25.7393 204.697C29.7393 226.477 81.221 250.134 138.248 251.636C195.275 253.139 258.742 218.222 252.239 200.197C222.078 231.734 189.272 231.734 170.763 231.734C152.254 231.734 148.253 226.102 138.248 226.477C128.243 226.853 125.242 231.734 108.234 231.734Z" fill="#F6F3F3"/>
<path d="M92.6746 245.697C93.0746 184.897 49.8412 163.697 28.1746 160.697C23.1745 168.364 20.7826 194.197 24.6745 202.197C33.6746 220.697 44.6746 230.697 92.6746 245.697Z" fill="#FFCACC"/>
<path d="M184.741 245.697C184.341 184.897 227.575 163.697 249.241 160.697C254.241 168.364 256.633 194.197 252.741 202.197C243.741 220.697 232.741 230.697 184.741 245.697Z" fill="#FFCACC"/>
<path d="M139.263 20.2002C187.425 20.3355 215.999 39.808 232.359 66.457C248.554 92.8362 252.517 125.81 252.646 152.681C252.658 154.985 253.168 157.674 253.976 160.956C254.741 164.067 255.84 167.95 256.72 171.861C258.535 179.934 259.779 189.53 257.161 200.509C254.739 210.664 247.912 219.099 238.962 225.965C230.004 232.836 218.679 238.327 206.744 242.568C182.957 251.021 156.061 254.745 138.958 254.202C121.855 254.745 94.9594 251.021 71.1729 242.568C59.2378 238.327 47.914 232.836 38.9561 225.965C30.0057 219.099 23.178 210.664 20.7559 200.509C18.1376 189.53 19.383 179.934 21.1983 171.861C22.0778 167.95 23.177 164.067 23.9424 160.956C24.7499 157.674 25.2603 154.985 25.2715 152.681C25.4012 125.81 29.3633 92.8362 45.5576 66.457C61.9177 39.808 90.4924 20.3355 138.654 20.2002C138.688 20.1992 138.723 20.1973 138.757 20.1973C138.804 20.1973 138.849 20.198 138.882 20.1982H139.035C139.068 20.198 139.114 20.1973 139.161 20.1973C139.195 20.1973 139.229 20.1992 139.263 20.2002ZM138.962 27.1982H138.954C138.733 27.198 138.886 27.1974 138.824 27.1973C138.804 27.1976 138.785 27.1992 138.765 27.1992C92.7977 27.3042 66.5346 45.6676 51.5235 70.1191C36.336 94.8581 32.3991 126.276 32.2715 152.714C32.2561 155.901 31.565 159.272 30.7393 162.629C29.8713 166.157 28.9049 169.494 28.0274 173.396C26.3284 180.952 25.2946 189.364 27.5654 198.886C29.4873 206.943 35.0244 214.127 43.2158 220.411C51.3999 226.689 61.996 231.879 73.5166 235.973C96.5881 244.171 122.68 247.737 138.844 247.204H139.074C155.238 247.737 181.329 244.171 204.4 235.973C215.921 231.879 226.517 226.689 234.701 220.411C242.893 214.127 248.43 206.943 250.352 198.886C252.622 189.364 251.589 180.952 249.89 173.396C249.012 169.494 248.046 166.157 247.178 162.629C246.352 159.272 245.662 155.901 245.646 152.714C245.519 126.276 241.581 94.8591 226.394 70.1201C211.382 45.6684 185.119 27.3043 139.152 27.1992C139.132 27.1992 139.113 27.1976 139.093 27.1973C139.035 27.1974 139.176 27.198 138.962 27.1982Z" fill="black"/>
<path d="M103.3 171.697C103.3 177.772 98.6973 182.697 93.0196 182.697C87.3419 182.697 82.7393 177.772 82.7393 171.697C82.7393 165.622 87.3419 160.697 93.0196 160.697C98.6973 160.697 103.3 165.622 103.3 171.697Z" fill="#474847"/>
<path d="M192.739 171.697C192.739 177.772 188.137 182.697 182.459 182.697C176.781 182.697 172.179 177.772 172.179 171.697C172.179 165.622 176.781 160.697 182.459 160.697C188.137 160.697 192.739 165.622 192.739 171.697Z" fill="#474847"/>
<path d="M116.822 189.808C118.638 189.341 120.486 190.388 121.035 192.16C121.043 192.178 121.06 192.214 121.089 192.266C121.174 192.417 121.367 192.709 121.751 193.037C122.465 193.648 124.212 194.697 128.102 194.697C131.992 194.697 133.739 193.648 134.453 193.037C134.836 192.709 135.03 192.417 135.115 192.266C135.15 192.204 135.167 192.163 135.173 192.151C135.585 190.833 136.737 189.874 138.121 189.719C139.56 189.557 140.949 190.299 141.616 191.583C141.614 191.579 141.612 191.574 141.61 191.57C141.606 191.562 141.602 191.555 141.599 191.55C141.593 191.539 141.589 191.531 141.588 191.528C141.59 191.532 141.595 191.541 141.603 191.555C141.632 191.601 141.696 191.7 141.8 191.834C142.01 192.104 142.37 192.507 142.912 192.925C143.952 193.726 145.81 194.697 148.92 194.697C152.029 194.697 153.888 193.726 154.927 192.925C155.469 192.507 155.83 192.104 156.039 191.834C156.143 191.7 156.207 191.601 156.236 191.555C156.25 191.532 156.255 191.523 156.253 191.528C156.251 191.531 156.246 191.539 156.24 191.55C156.237 191.555 156.233 191.562 156.229 191.57C156.227 191.574 156.226 191.579 156.223 191.583C157.111 189.874 159.214 189.203 160.928 190.084C162.647 190.968 163.325 193.078 162.441 194.797L159.329 193.197C162.29 194.719 162.433 194.795 162.439 194.801C162.439 194.801 162.438 194.803 162.437 194.805C162.436 194.807 162.435 194.811 162.433 194.813C162.43 194.819 162.427 194.825 162.423 194.831C162.417 194.844 162.409 194.858 162.401 194.873C162.385 194.903 162.366 194.939 162.343 194.978C162.298 195.058 162.241 195.156 162.17 195.269C162.027 195.497 161.83 195.789 161.571 196.123C161.053 196.791 160.281 197.637 159.2 198.47C156.995 200.169 153.648 201.697 148.92 201.697C144.273 201.697 140.962 200.22 138.757 198.557C136.539 200.346 133.147 201.697 128.102 201.697C122.869 201.697 119.41 200.247 117.201 198.357C116.123 197.435 115.425 196.477 114.984 195.691C114.765 195.301 114.61 194.954 114.503 194.677C114.449 194.538 114.406 194.415 114.374 194.313C114.358 194.263 114.344 194.216 114.333 194.176C114.327 194.155 114.321 194.136 114.316 194.118C114.314 194.109 114.311 194.1 114.309 194.092C114.308 194.088 114.307 194.084 114.306 194.08C114.306 194.078 114.305 194.075 114.304 194.074C114.304 194.071 114.326 194.063 117.693 193.197L114.303 194.068C113.822 192.196 114.95 190.289 116.822 189.808ZM121.081 192.321C121.08 192.32 121.08 192.316 121.08 192.314C121.079 192.311 121.078 192.307 121.077 192.304C121.075 192.297 121.074 192.29 121.072 192.284C121.068 192.271 121.064 192.259 121.061 192.248L121.081 192.321ZM135.159 192.193C135.154 192.208 135.149 192.226 135.142 192.248C135.139 192.259 135.136 192.271 135.132 192.284C135.131 192.29 135.128 192.297 135.127 192.304C135.126 192.307 135.125 192.311 135.124 192.314C135.123 192.316 135.123 192.318 135.123 192.319C135.137 192.263 135.155 192.208 135.173 192.152C135.17 192.159 135.166 192.172 135.159 192.193Z" fill="black"/>
</svg>
