<svg width="306" height="323" viewBox="0 0 306 323" fill="none" xmlns="http://www.w3.org/2000/svg">
<path d="M206.627 2.23152C200.63 0.21718 185.139 11.2961 171.647 37.4825C165.817 33.118 149.659 29.9287 131.669 37.4823C124.673 27.5785 107.882 2.63433 98.6875 2.23146C83.1963 1.55272 69.2042 18.8497 60.709 50.5755C30.726 48.964 14.9017 64.6758 10.7375 70.2153C5.74026 74.9154 1.74242 93.5815 25.7288 130.645C14.5352 138.3 11.0706 171.771 10.7375 187.55C-11.4166 233.712 -1.25576 321 153.157 321C316.065 321 316.065 230.355 293.078 187.55C294.077 163.378 289.08 139.206 285.582 126.113C305.571 106.473 300.074 72.7332 299.075 70.2153C298.075 67.6973 290.079 49.0647 244.105 50.5755C237.609 17.8424 212.623 4.24585 206.627 2.23152Z" fill="white" stroke="#A5A5A5" stroke-width="4" stroke-linecap="round" stroke-linejoin="round" stroke-dasharray="8 8"/>
<path d="M31.6001 83.6755C36.9371 66.6755 73.9367 73.5031 85.2671 74.6181C105.531 85.4534 91.106 139.585 75.8692 138.512C52.8213 136.888 25.3212 103.676 31.6001 83.6755Z" fill="white"/>
<path d="M274.254 83.6755C268.917 66.6755 231.917 73.5031 220.587 74.6181C200.323 85.4534 214.748 139.585 229.985 138.512C253.033 136.888 280.533 103.676 274.254 83.6755Z" fill="white"/>
<path d="M31.6002 86.1755C28.0002 100.976 41.7669 117.676 49.1002 124.176C66.7003 124.176 75.1002 102.509 77.1002 91.6755C67.7669 87.8422 45.6002 81.3755 31.6002 86.1755Z" fill="#FACDC8"/>
<path d="M276.511 86.1755C280.111 100.976 266.344 117.676 259.011 124.176C241.411 124.176 233.011 102.509 231.011 91.6755C240.344 87.8422 262.511 81.3755 276.511 86.1755Z" fill="#FCD0D6"/>
<path d="M101.116 31.3289C109.853 31.9563 110.6 46.6757 126.1 60.1756C119.7 79.3756 97.0365 79.1679 86.5046 76.664C72.3814 50.5296 90.1954 30.5447 101.116 31.3289Z" fill="#EBD1B2"/>
<path d="M206.698 31.3289C197.961 31.9563 197.214 46.6757 181.714 60.1756C188.649 68.1679 206.278 82.6546 221.31 76.664C235.433 50.5296 217.619 30.5447 206.698 31.3289Z" fill="#EBD1B2"/>
<path d="M153.813 58.1778C253.104 58.4044 269.488 137.849 269.759 193.96C269.815 205.523 279.774 221.854 274.62 243.432C265.462 281.774 188.664 298.273 153.6 297.119C118.537 298.273 41.7389 281.774 32.5802 243.432C27.4258 221.854 37.3845 205.523 37.4404 193.96C37.7117 137.849 54.0959 58.4042 153.387 58.1778V58.1758C153.458 58.1758 153.529 58.1767 153.599 58.1768C153.67 58.1767 153.742 58.1758 153.813 58.1758V58.1778Z" fill="white"/>
<path d="M39.3609 71.6757C34.3498 73.6512 30.0148 77.0431 28.2617 82.6271C26.3933 88.5786 27.1152 95.2133 29.3193 101.596C31.5337 108.008 35.3324 114.44 40.0244 120.196C49.2878 131.561 62.7288 141.095 75.6242 142.003C78.6371 142.215 81.3557 141.034 83.6167 139.29C85.8666 137.554 87.8607 135.12 89.5849 132.358C93.037 126.826 95.7619 119.403 97.312 111.724C98.862 104.044 99.2964 95.8177 97.9283 88.6663C96.5687 81.5595 93.2949 74.9411 86.9178 71.5312L86.764 71.4542C86.401 71.2825 86.0104 71.1744 85.61 71.135C80.2751 70.6099 67.719 68.5691 56.1003 68.8548C50.2643 68.9984 44.3125 69.7237 39.3609 71.6757ZM34.9402 84.724C35.8556 81.8082 38.1462 79.6784 41.9275 78.1877C45.7684 76.6735 50.7755 75.9878 56.2727 75.8526C66.871 75.592 77.9858 77.3557 84.166 78.0207C87.6181 80.1358 89.9521 84.2248 91.0533 89.9812C92.2035 95.9932 91.8784 103.264 90.4508 110.338C89.0231 117.411 86.5506 123.997 83.6462 128.652C82.192 130.982 80.7173 132.686 79.3411 133.748C77.9762 134.801 76.9117 135.076 76.1156 135.02C65.9631 134.305 54.129 126.421 45.4501 115.773C41.1712 110.524 37.8322 104.801 35.9361 99.3102C34.0296 93.7895 33.6693 88.7725 34.9402 84.724Z" fill="black"/>
<path d="M266.494 71.6757C271.505 73.6512 275.84 77.0431 277.593 82.6271C279.462 88.5786 278.74 95.2133 276.536 101.596C274.321 108.008 270.523 114.44 265.831 120.196C256.567 131.561 243.126 141.095 230.231 142.003C227.218 142.215 224.499 141.034 222.238 139.29C219.988 137.554 217.994 135.12 216.27 132.358C212.818 126.826 210.093 119.403 208.543 111.724C206.993 104.044 206.559 95.8177 207.927 88.6663C209.286 81.5595 212.56 74.9411 218.937 71.5312L219.091 71.4542C219.454 71.2825 219.845 71.1744 220.245 71.135C225.58 70.6099 238.136 68.5691 249.755 68.8548C255.591 68.9984 261.543 69.7237 266.494 71.6757ZM270.915 84.724C269.999 81.8082 267.709 79.6784 263.927 78.1877C260.087 76.6735 255.079 75.9878 249.582 75.8526C238.984 75.592 227.869 77.3557 221.689 78.0207C218.237 80.1358 215.903 84.2248 214.802 89.9812C213.651 95.9932 213.977 103.264 215.404 110.338C216.832 117.411 219.304 123.997 222.209 128.652C223.663 130.982 225.138 132.686 226.514 133.748C227.879 134.801 228.943 135.076 229.739 135.02C239.892 134.305 251.726 126.421 260.405 115.773C264.684 110.524 268.023 104.801 269.919 99.3102C271.825 93.7895 272.186 88.7725 270.915 84.724Z" fill="black"/>
<path d="M101.368 27.8373C104.694 28.0762 107.156 29.7108 109.106 31.8356C110.943 33.8373 112.526 36.5021 114.087 39.1448C117.304 44.5915 121.12 51.1954 128.4 57.5359C129.858 58.8054 130.01 61.0163 128.741 62.4739C127.471 63.9315 125.26 64.0845 123.802 62.8152C115.582 55.6557 111.275 48.1498 108.059 42.705C106.403 39.902 105.193 37.9249 103.949 36.5684C102.817 35.3351 101.908 34.8946 100.866 34.8198C99.2139 34.7013 96.8573 35.3765 94.3002 37.2366C91.7935 39.0602 89.343 41.8551 87.5545 45.4578C84.0277 52.5624 83.0414 62.8913 89.5844 74.9993C90.5034 76.6998 89.8698 78.8234 88.1693 79.7425C86.4687 80.6614 84.3451 80.0278 83.4261 78.3273C75.8466 64.3013 76.7051 51.5707 81.2846 42.3455C83.5494 37.7833 86.7179 34.0956 90.1814 31.5759C93.5943 29.0931 97.5598 27.5638 101.368 27.8373Z" fill="black"/>
<path d="M95.5476 46.7966C94.7861 45.0201 92.7285 44.1973 90.9519 44.9587L80.4519 49.4587C78.6754 50.2202 77.8526 52.2778 78.614 54.0544C79.3756 55.831 81.4331 56.6537 83.2097 55.8923L93.7097 51.3923C95.4863 50.6308 96.309 48.5732 95.5476 46.7966Z" fill="black"/>
<path d="M95.5476 56.7966C94.7861 55.0201 92.7285 54.1973 90.9519 54.9587L80.4519 59.4587C78.6754 60.2202 77.8526 62.2778 78.614 64.0544C79.3756 65.831 81.4331 66.6537 83.2097 65.8923L93.7097 61.3923C95.4863 60.6308 96.309 58.5732 95.5476 56.7966Z" fill="black"/>
<path d="M206.448 27.8373C203.121 28.0762 200.659 29.7108 198.71 31.8356C196.873 33.8373 195.29 36.5021 193.729 39.1448C190.512 44.5915 186.695 51.1954 179.416 57.5359C177.958 58.8054 177.806 61.0163 179.075 62.4739C180.345 63.9315 182.556 64.0845 184.013 62.8152C192.234 55.6557 196.541 48.1498 199.757 42.705C201.413 39.902 202.622 37.9249 203.867 36.5684C204.999 35.3351 205.908 34.8946 206.95 34.8198C208.602 34.7013 210.959 35.3765 213.516 37.2366C216.022 39.0602 218.473 41.8551 220.261 45.4578C223.788 52.5624 224.775 62.8913 218.231 74.9993C217.312 76.6998 217.946 78.8234 219.647 79.7425C221.347 80.6614 223.471 80.0278 224.39 78.3273C231.969 64.3013 231.111 51.5707 226.531 42.3455C224.267 37.7833 221.098 34.0956 217.634 31.5759C214.222 29.0931 210.256 27.5638 206.448 27.8373Z" fill="black"/>
<path d="M212.268 46.7966C213.029 45.0201 215.087 44.1973 216.864 44.9587L227.364 49.4587C229.14 50.2202 229.963 52.2778 229.201 54.0544C228.44 55.831 226.382 56.6537 224.606 55.8923L214.106 51.3923C212.329 50.6308 211.506 48.5732 212.268 46.7966Z" fill="black"/>
<path d="M212.268 56.7966C213.029 55.0201 215.087 54.1973 216.864 54.9587L227.364 59.4587C229.14 60.2202 229.963 62.2778 229.201 64.0544C228.44 65.831 226.382 66.6537 224.606 65.8923L214.106 61.3923C212.329 60.6308 211.506 58.5732 212.268 56.7966Z" fill="black"/>
<path d="M153.781 57.7144C253.137 57.9413 269.532 137.559 269.804 193.793C269.86 205.381 279.824 221.748 274.667 243.373C265.502 281.798 188.653 298.334 153.567 297.177C118.481 298.333 41.6332 281.798 32.4686 243.373C27.3112 221.748 37.2768 205.381 37.3329 193.793C37.6043 137.559 53.9991 57.9411 153.355 57.7144V57.7124C153.426 57.7124 153.497 57.7133 153.568 57.7134C153.639 57.7133 153.71 57.7124 153.781 57.7124V57.7144Z" fill="white"/>
<path d="M88.5002 270.147C77.4791 259.705 85.1012 231.363 100.6 229.675C116.099 227.987 128.6 207.675 154.6 207.675C180.6 207.675 183.6 222.396 202.6 226.675C221.6 230.954 228.042 254.602 221.6 265.175C213.547 278.392 191.677 292.175 156.952 292.175C120.403 292.175 104.29 285.108 88.5002 270.147Z" fill="#EDEDED"/>
<path d="M219.6 286.676C211.6 222.176 248.489 204.458 271.414 201.176C275.117 209.176 278.718 236.923 274.6 245.676C265.077 265.917 246.1 277.676 219.6 286.676Z" fill="#FFCACC"/>
<path d="M90.1 287.176C99.1 234.176 58.5359 204.458 35.6108 201.176C31.9075 209.176 28.3067 236.923 32.4246 245.676C41.9473 265.917 59.6 275.676 90.1 287.176Z" fill="#FFCACC"/>
<path d="M251.157 108.407C252.872 107.515 254.985 108.181 255.878 109.896C269.639 136.348 273.178 167.744 273.303 193.776C273.315 196.231 273.859 199.086 274.712 202.551C275.522 205.844 276.677 209.925 277.605 214.051C279.517 222.553 280.825 232.644 278.072 244.185C274.428 259.462 261.296 271.082 245.31 279.59C229.207 288.161 209.488 293.97 191.333 297.294C180.294 299.315 165.051 299.97 150.881 299.807C136.717 299.645 123.271 298.662 115.803 297.294C97.6479 293.97 77.9286 288.161 61.8258 279.59C45.8402 271.082 32.7079 259.462 29.0641 244.185C26.3115 232.644 27.6192 222.553 29.5309 214.051C30.4587 209.925 31.6143 205.844 32.4245 202.551C33.2769 199.086 33.8208 196.231 33.8327 193.776C33.9584 167.744 37.4968 136.348 51.2584 109.896C52.1507 108.181 54.2644 107.515 55.9791 108.407C57.6938 109.299 58.3605 111.413 57.4684 113.127C44.4613 138.129 40.9562 168.215 40.8327 193.81C40.8165 197.148 40.0929 200.685 39.2223 204.223C38.3095 207.933 37.2858 211.469 36.36 215.586C34.5646 223.571 33.4686 232.477 35.8737 242.561C38.8137 254.888 49.7303 265.224 65.1139 273.412C80.3805 281.537 99.3522 287.166 117.064 290.409C123.95 291.669 136.932 292.646 150.961 292.807C164.982 292.968 179.696 292.308 190.072 290.409C207.784 287.166 226.755 281.537 242.022 273.412C257.406 265.224 268.322 254.888 271.262 242.561C273.667 232.477 272.571 223.571 270.776 215.586C269.85 211.469 268.827 207.933 267.914 204.223C267.043 200.685 266.319 197.148 266.303 193.81C266.18 168.215 262.675 138.129 249.668 113.127C248.775 111.413 249.442 109.299 251.157 108.407ZM153.872 54.2153C187.002 54.3055 211.416 63.071 229.211 77.1177C230.728 78.3153 230.987 80.5164 229.79 82.0337C228.592 83.5508 226.391 83.8101 224.874 82.6128C208.504 69.691 185.666 61.2872 153.773 61.2144C153.753 61.2143 153.733 61.2128 153.713 61.2124C153.649 61.2126 153.79 61.2131 153.571 61.2134H153.563C153.337 61.2131 153.491 61.2126 153.423 61.2124C153.403 61.2128 153.383 61.2143 153.363 61.2144C121.47 61.2872 98.6323 69.691 82.2623 82.6128C80.7451 83.8103 78.5439 83.5509 77.3463 82.0337C76.1487 80.5164 76.4082 78.3153 77.9254 77.1177C95.7203 63.0712 120.133 54.3056 153.263 54.2153C153.294 54.2146 153.325 54.2124 153.355 54.2124C153.404 54.2124 153.451 54.2131 153.485 54.2134H153.65C153.685 54.2131 153.732 54.2124 153.781 54.2124C153.811 54.2124 153.842 54.2146 153.872 54.2153Z" fill="black"/>
<path d="M120.661 212.176C120.661 218.251 116.058 223.176 110.38 223.176C104.703 223.176 100.1 218.251 100.1 212.176C100.1 206.101 104.703 201.176 110.38 201.176C116.058 201.176 120.661 206.101 120.661 212.176Z" fill="#474847"/>
<path d="M210.1 212.176C210.1 218.251 205.498 223.176 199.82 223.176C194.142 223.176 189.54 218.251 189.54 212.176C189.54 206.101 194.142 201.176 199.82 201.176C205.498 201.176 210.1 206.101 210.1 212.176Z" fill="#474847"/>
<path d="M134.182 224.286C135.998 223.819 137.847 224.867 138.395 226.639C138.403 226.656 138.42 226.693 138.449 226.744C138.534 226.896 138.728 227.188 139.111 227.516C139.825 228.126 141.572 229.176 145.463 229.176C149.353 229.176 151.099 228.126 151.813 227.516C152.196 227.188 152.39 226.896 152.475 226.744C152.51 226.682 152.528 226.642 152.533 226.63C152.945 225.312 154.098 224.352 155.481 224.197C156.92 224.036 158.309 224.778 158.976 226.061C158.974 226.057 158.972 226.053 158.97 226.049C158.966 226.041 158.963 226.034 158.96 226.028C158.954 226.017 158.95 226.01 158.948 226.007C158.95 226.01 158.955 226.019 158.964 226.033C158.992 226.079 159.057 226.178 159.161 226.312C159.37 226.582 159.731 226.986 160.272 227.403C161.312 228.204 163.17 229.176 166.28 229.176C169.39 229.176 171.248 228.204 172.288 227.403C172.829 226.986 173.19 226.582 173.399 226.312C173.503 226.178 173.567 226.079 173.596 226.033C173.61 226.011 173.616 226.002 173.613 226.007C173.611 226.01 173.606 226.017 173.6 226.028C173.597 226.034 173.594 226.041 173.59 226.049C173.587 226.053 173.586 226.057 173.584 226.061C174.472 224.353 176.574 223.681 178.289 224.562C180.008 225.446 180.685 227.556 179.801 229.275L176.689 227.676C179.651 229.198 179.793 229.274 179.799 229.279C179.799 229.28 179.798 229.282 179.798 229.283C179.796 229.286 179.795 229.289 179.794 229.292C179.791 229.298 179.787 229.303 179.784 229.31C179.777 229.322 179.77 229.336 179.761 229.351C179.745 229.382 179.726 229.417 179.704 229.457C179.659 229.536 179.601 229.634 179.53 229.748C179.388 229.975 179.19 230.267 178.931 230.601C178.414 231.269 177.641 232.116 176.56 232.948C174.355 234.647 171.009 236.176 166.28 236.176C161.633 236.176 158.323 234.698 156.117 233.035C153.9 234.825 150.507 236.176 145.463 236.176C140.229 236.176 136.771 234.725 134.561 232.836C133.483 231.914 132.785 230.956 132.344 230.17C132.125 229.779 131.97 229.432 131.863 229.155C131.809 229.016 131.766 228.894 131.734 228.792C131.718 228.741 131.705 228.695 131.693 228.654C131.687 228.634 131.681 228.614 131.676 228.597C131.674 228.588 131.672 228.578 131.67 228.57C131.669 228.566 131.668 228.562 131.667 228.559C131.666 228.557 131.665 228.554 131.665 228.553C131.664 228.55 131.686 228.541 135.053 227.676L131.664 228.547C131.183 226.675 132.31 224.767 134.182 224.286ZM138.441 226.8C138.441 226.799 138.441 226.795 138.44 226.793C138.439 226.789 138.438 226.786 138.437 226.782C138.435 226.775 138.434 226.769 138.432 226.763C138.429 226.75 138.425 226.737 138.422 226.726L138.441 226.8ZM152.519 226.672C152.515 226.686 152.509 226.704 152.503 226.726C152.499 226.737 152.496 226.75 152.493 226.763C152.491 226.769 152.489 226.775 152.487 226.782C152.486 226.786 152.485 226.789 152.484 226.793C152.484 226.794 152.483 226.797 152.483 226.798C152.498 226.741 152.516 226.686 152.533 226.631C152.53 226.637 152.526 226.651 152.519 226.672Z" fill="black"/>
</svg>
