<svg width="420" height="420" viewBox="0 0 420 420" fill="none" xmlns="http://www.w3.org/2000/svg">
<path d="M149.528 85.4602C197.928 57.4602 254.361 73.7936 276.528 85.4602C288.861 77.627 331.528 76.3311 342.028 88.4604C365.228 115.26 350.362 151.627 339.028 167.46C342.195 166.294 346.228 181.36 347.028 232.96C381.528 328.46 273.028 348.46 209.528 348.96C146.028 349.46 82.5278 322.46 71.0278 283.96C61.8278 253.16 70.3616 232.294 77.0284 224.46C76.0284 221.96 72.7281 205.46 79.5281 169.46C57.1281 129.06 72.0281 96.627 79.5281 85.4602C86.6947 80.1269 110.728 72.6602 149.528 85.4602Z" fill="white" stroke="#A5A5A5" stroke-width="4" stroke-linecap="round" stroke-linejoin="round" stroke-dasharray="8 8"/>
<path d="M106.49 160.044C87.659 147.488 84.6857 113.759 94.5596 102.68C97.818 99.0235 102.372 102.022 108.752 102.426C113.048 102.698 118.738 99.5545 123.275 100.867C132.766 103.614 141.752 107.932 145.912 110.875C157.842 129.825 118.939 168.345 106.49 160.044Z" fill="white"/>
<path d="M325.212 102.68C315.17 91.4118 282.961 104.436 273.86 110.875C261.929 129.826 300.832 168.345 313.281 160.045C332.112 147.489 335.086 113.759 325.212 102.68Z" fill="white"/>
<path d="M210.319 93.4624C308.029 93.683 324.152 170.997 324.419 225.604C324.474 236.857 334.275 252.75 329.203 273.75C320.19 311.064 244.615 327.121 210.109 325.998C175.604 327.121 100.029 311.064 91.0161 273.75C85.9438 252.75 95.7439 236.857 95.7989 225.604C96.0659 170.997 112.189 93.6828 209.9 93.4624V93.4604C209.969 93.4604 210.039 93.4614 210.108 93.4614C210.178 93.4614 210.249 93.4604 210.319 93.4604V93.4624Z" fill="white"/>
<path d="M121.451 96.7453C116.044 95.3723 110.406 94.5155 105.339 94.8068C100.314 95.0957 95.3324 96.5528 91.9468 100.352C89.2349 103.395 87.4897 107.566 86.5171 112.09C85.536 116.653 85.2886 121.81 85.7612 127.067C86.2832 132.873 87.6918 138.902 90.0522 144.502C93.1206 151.782 97.8722 158.505 104.549 162.957C107.022 164.606 109.924 164.932 112.707 164.563C115.48 164.195 118.378 163.115 121.208 161.627C126.875 158.648 132.852 153.723 137.954 148.011C143.055 142.3 147.479 135.58 149.837 128.882C152.181 122.224 152.658 115.019 148.874 109.01L148.779 108.866C148.548 108.537 148.263 108.25 147.934 108.018C142.961 104.499 132.217 99.4792 121.451 96.7453ZM105.742 101.795C109.822 101.561 114.689 102.25 119.727 103.529C129.389 105.983 138.858 110.387 143.29 113.322C145.135 116.727 145.11 121.232 143.235 126.558C141.265 132.152 137.423 138.097 132.733 143.348C128.044 148.597 122.707 152.93 117.951 155.431C115.57 156.683 113.479 157.399 111.788 157.623C110.108 157.846 109.071 157.559 108.432 157.133C103.185 153.635 99.1919 148.162 96.5034 141.783C94.4451 136.9 93.1953 131.583 92.7329 126.44C92.3135 121.775 92.5485 117.334 93.3598 113.561C94.1796 109.748 95.5371 106.845 97.1733 105.009C98.8088 103.174 101.619 102.032 105.742 101.795Z" fill="black"/>
<path d="M298.322 96.7453C303.728 95.3723 309.366 94.5155 314.433 94.8068C319.458 95.0957 324.44 96.5528 327.826 100.352C330.896 103.797 332.739 108.7 333.615 113.979C334.5 119.315 334.451 125.349 333.465 131.373C331.512 143.312 325.735 155.948 315.223 162.957C312.751 164.606 309.848 164.932 307.065 164.563C304.293 164.195 301.394 163.115 298.564 161.627C292.897 158.648 286.921 153.723 281.819 148.011C276.718 142.3 272.293 135.58 269.935 128.882C267.591 122.224 267.115 115.019 270.898 109.01L270.994 108.866C271.224 108.537 271.51 108.25 271.838 108.018C276.812 104.499 287.556 99.4792 298.322 96.7453ZM314.031 101.795C309.95 101.561 305.084 102.25 300.045 103.529C290.383 105.983 280.914 110.387 276.482 113.322C274.637 116.727 274.663 121.232 276.538 126.558C278.507 132.152 282.35 138.097 287.04 143.348C291.728 148.597 297.066 152.93 301.822 155.431C304.203 156.683 306.294 157.399 307.985 157.623C309.665 157.846 310.701 157.559 311.34 157.133C319.66 151.586 324.784 141.078 326.557 130.243C327.434 124.881 327.455 119.621 326.709 115.124C325.954 110.57 324.465 107.103 322.599 105.009C320.964 103.174 318.153 102.032 314.031 101.795Z" fill="black"/>
<path d="M166.328 237.897C166.328 244.12 161.684 249.165 155.954 249.165C150.225 249.165 145.58 244.12 145.58 237.897C145.58 231.674 150.225 226.629 155.954 226.629C161.684 226.629 166.328 231.674 166.328 237.897Z" fill="#474847"/>
<path d="M275.257 237.897C275.257 244.12 270.612 249.165 264.883 249.165C259.153 249.165 254.509 244.12 254.509 237.897C254.509 231.674 259.153 226.629 264.883 226.629C270.612 226.629 275.257 231.674 275.257 237.897Z" fill="#474847"/>
<path d="M210.32 93.4624C308.029 93.6829 324.153 170.997 324.42 225.604C324.475 236.856 334.275 252.75 329.203 273.75C320.191 311.063 244.615 327.121 210.11 325.998C175.604 327.12 100.029 311.063 91.0158 273.75C85.9438 252.75 95.745 236.856 95.8 225.604C96.067 170.997 112.19 93.6826 209.901 93.4624V93.4604C209.97 93.4604 210.04 93.4613 210.11 93.4614C210.179 93.4613 210.25 93.4604 210.32 93.4604V93.4624Z" fill="white"/>
<path d="M162.179 320.871C162.594 258.589 117.743 236.872 95.2656 233.799C90.0785 241.653 87.5971 268.116 91.6346 276.311C100.971 295.262 112.383 305.505 162.179 320.871Z" fill="#FFCACC"/>
<path d="M257.691 320.871C257.276 258.589 302.127 236.872 324.604 233.799C329.792 241.653 332.273 268.116 328.235 276.311C318.899 295.262 307.487 305.505 257.691 320.871Z" fill="#FFCACC"/>
<path d="M306.04 142.607C307.75 141.706 309.867 142.362 310.768 144.072C324.316 169.785 327.797 200.298 327.921 225.587C327.932 227.954 328.463 230.711 329.3 234.075C330.095 237.264 331.235 241.238 332.147 245.245C334.03 253.511 335.319 263.335 332.605 274.572C329.009 289.46 316.061 300.758 300.344 309.018C284.526 317.332 265.162 322.968 247.327 326.198C229.254 330.373 200.256 331.146 172.967 326.212C155.112 322.984 135.716 317.343 119.876 309.018C104.16 300.758 91.2113 289.46 87.6149 274.572C84.9007 263.335 86.1905 253.511 88.0729 245.245C88.9854 241.238 90.1249 237.264 90.9196 234.075C91.7576 230.711 92.2879 227.954 92.2995 225.587C92.4231 200.298 95.9043 169.785 109.452 144.072C110.353 142.362 112.47 141.706 114.18 142.607C115.89 143.508 116.546 145.624 115.645 147.334C102.867 171.587 99.421 200.778 99.2995 225.622C99.2836 228.881 98.5681 232.33 97.7116 235.767C96.8119 239.378 95.8086 242.801 94.8981 246.799C93.1348 254.543 92.0607 263.166 94.4186 272.928C97.2971 284.845 107.999 294.868 123.133 302.822C138.142 310.71 156.796 316.175 174.214 319.324C200.774 324.125 228.849 323.303 245.838 319.359L246.007 319.324C263.424 316.175 282.078 310.71 297.088 302.822C312.221 294.868 322.923 284.845 325.801 272.928C328.159 263.166 327.085 254.543 325.322 246.799C324.412 242.801 323.408 239.378 322.508 235.767C321.652 232.33 320.937 228.881 320.921 225.622C320.799 200.778 317.353 171.587 304.575 147.334C303.674 145.624 304.33 143.508 306.04 142.607ZM210.411 89.9634C242.992 90.0513 267.008 98.5625 284.519 112.211C286.044 113.4 286.316 115.599 285.128 117.124C283.939 118.648 281.74 118.921 280.216 117.733C264.128 105.194 241.676 97.0332 210.312 96.9624C210.292 96.9624 210.272 96.9608 210.252 96.9604C210.19 96.9606 210.329 96.9612 210.113 96.9614H210.105C209.882 96.9612 210.034 96.9606 209.967 96.9604C209.948 96.9608 209.928 96.9624 209.908 96.9624C178.544 97.0332 156.092 105.194 140.005 117.733C138.48 118.921 136.281 118.648 135.092 117.124C133.904 115.599 134.176 113.4 135.701 112.211C153.212 98.5626 177.227 90.0514 209.808 89.9634C209.839 89.9626 209.869 89.9605 209.9 89.9604C209.949 89.9604 209.995 89.9612 210.029 89.9614H210.19C210.224 89.9612 210.271 89.9604 210.32 89.9604C210.35 89.9605 210.381 89.9626 210.411 89.9634Z" fill="black"/>
<path d="M175.21 246.092C175.21 252.315 170.435 257.36 164.545 257.36C158.655 257.36 153.88 252.315 153.88 246.092C153.88 239.869 158.655 234.824 164.545 234.824C170.435 234.824 175.21 239.869 175.21 246.092Z" fill="#474847"/>
<path d="M267.54 246.092C267.54 252.315 262.765 257.36 256.875 257.36C250.985 257.36 246.21 252.315 246.21 246.092C246.21 239.869 250.985 234.824 256.875 234.824C262.765 234.824 267.54 239.869 267.54 246.092Z" fill="#474847"/>
<path d="M180.868 260.945C180.453 252.75 188.303 248.994 192.28 248.141C209.294 244.453 224.613 246.604 230.146 248.141C234.987 249.336 240.001 253.57 240.001 260.945C240.001 270.165 231.183 277.847 211.472 277.847C191.761 277.847 181.387 271.189 180.868 260.945Z" fill="#E9E9E9"/>
<path d="M236.501 260.945C236.501 255.484 232.901 252.426 229.307 251.539C229.274 251.531 229.241 251.522 229.209 251.513C224.168 250.113 209.426 248.006 193.021 251.562L193.015 251.563C191.475 251.893 189.087 252.83 187.209 254.444C185.422 255.981 184.224 257.991 184.364 260.769C184.556 264.545 186.483 267.768 190.718 270.203C195.103 272.725 201.937 274.348 211.472 274.348C220.938 274.348 227.311 272.493 231.204 269.931C234.971 267.451 236.501 264.283 236.501 260.945ZM243.501 260.945C243.501 266.827 240.623 272.111 235.053 275.777C229.609 279.361 221.717 281.348 211.472 281.348C201.296 281.348 193.087 279.641 187.228 276.272C181.219 272.817 177.7 267.589 177.373 261.122C177.099 255.705 179.618 251.739 182.645 249.136C185.58 246.613 189.101 245.245 191.538 244.721C209.16 240.901 225.057 243.095 231.082 244.769L231.081 244.77C237.14 246.306 243.501 251.705 243.501 260.945Z" fill="black"/>
<path d="M202.639 262.994C202.639 265.54 201.245 267.604 199.526 267.604C197.807 267.604 196.414 265.54 196.414 262.994C196.414 260.448 197.807 258.384 199.526 258.384C201.245 258.384 202.639 260.448 202.639 262.994Z" fill="#474847"/>
<path d="M225.462 262.994C225.462 265.54 224.068 267.604 222.35 267.604C220.631 267.604 219.237 265.54 219.237 262.994C219.237 260.448 220.631 258.384 222.35 258.384C224.068 258.384 225.462 260.448 225.462 262.994Z" fill="#474847"/>
</svg>
