<svg width="292" height="283" viewBox="0 0 292 283" fill="none" xmlns="http://www.w3.org/2000/svg">
<path d="M84.5241 17.4602C132.924 -10.5398 189.357 5.79358 211.524 17.4602C223.857 9.62698 266.524 8.33114 277.024 20.4604C300.224 47.2604 285.358 83.6271 274.024 99.4604C277.191 98.2938 281.224 113.36 282.024 164.96C316.524 260.46 208.024 280.46 144.524 280.96C81.0242 281.46 17.5239 254.46 6.02386 215.96C-3.17614 185.16 5.35772 164.294 12.0245 156.46C11.0245 153.96 7.72415 137.46 14.5242 101.46C-7.87585 61.0604 7.02415 28.627 14.5242 17.4602C21.6908 12.1269 45.7241 4.66025 84.5241 17.4602Z" fill="white" stroke="#A5A5A5" stroke-width="4" stroke-linecap="round" stroke-linejoin="round" stroke-dasharray="8 8"/>
<path d="M41.4861 92.0445C22.6551 79.4884 19.6818 45.7587 29.5557 34.6796C32.8141 31.0235 37.3686 34.0223 43.7477 34.4263C48.0436 34.6984 53.7339 31.5545 58.2715 32.8674C67.7622 35.6136 76.7483 39.9318 80.908 42.8746C92.8382 61.8255 53.9352 100.345 41.4861 92.0445Z" fill="white"/>
<path d="M260.208 34.6798C250.166 23.4118 217.957 36.4358 208.856 42.8748C196.925 61.8257 235.829 100.345 248.278 92.0447C267.109 79.4886 270.082 45.7589 260.208 34.6798Z" fill="white"/>
<path d="M145.315 25.4624C243.025 25.683 259.148 102.997 259.415 157.604C259.47 168.857 269.271 184.75 264.199 205.75C255.186 243.064 179.611 259.121 145.106 257.998C110.601 259.121 35.0251 243.064 26.0122 205.75C20.9399 184.75 30.74 168.857 30.795 157.604C31.062 102.997 47.1854 25.6828 144.896 25.4624V25.4604C144.965 25.4604 145.035 25.4614 145.104 25.4614C145.175 25.4614 145.245 25.4604 145.315 25.4604V25.4624Z" fill="white"/>
<path d="M56.4467 28.7453C51.0401 27.3723 45.4025 26.5155 40.3354 26.8068C35.3103 27.0957 30.3285 28.5528 26.9428 32.3517C24.231 35.3947 22.4858 39.5664 21.5132 44.09C20.5321 48.6527 20.2847 53.81 20.7573 59.0666C21.2793 64.873 22.6879 70.9018 25.0483 76.5021C28.1167 83.782 32.8683 90.5051 39.5454 94.9572C42.018 96.6057 44.9202 96.9316 47.7036 96.5627C50.4759 96.1951 53.3745 95.1151 56.2046 93.6271C61.8711 90.6478 67.8476 85.7229 72.9497 80.0109C78.0506 74.3001 82.4752 67.5804 84.8335 60.882C87.1774 54.2244 87.6538 47.0194 83.8706 41.0099L83.7749 40.8664C83.5444 40.5374 83.2587 40.2502 82.9301 40.0177C77.9567 36.4993 67.2128 31.4792 56.4467 28.7453ZM40.7378 33.7951C44.8184 33.5605 49.685 34.2501 54.7231 35.5295C64.3856 37.9831 73.8544 42.387 78.2866 45.3224C80.1311 48.7269 80.106 53.232 78.2309 58.5578C76.2613 64.1522 72.4186 70.0975 67.729 75.3478C63.0405 80.5967 57.7029 84.9302 52.9468 87.4308C50.5656 88.6828 48.475 89.399 46.7837 89.6232C45.1039 89.8458 44.0675 89.5593 43.4282 89.133C38.1815 85.6346 34.188 80.1619 31.4995 73.7834C29.4412 68.9 28.1914 63.5831 27.729 58.4396C27.3096 53.7745 27.5446 49.3341 28.3559 45.5607C29.1757 41.7485 30.5332 38.8449 32.1694 37.0089C33.8048 35.1739 36.6151 34.0321 40.7378 33.7951Z" fill="black"/>
<path d="M233.318 28.7453C238.725 27.3723 244.362 26.5155 249.429 26.8068C254.454 27.0957 259.436 28.5528 262.822 32.3517C265.892 35.7971 267.735 40.7003 268.611 45.9787C269.496 51.3148 269.447 57.349 268.461 63.3732C266.508 75.312 260.731 87.9482 250.219 94.9572C247.747 96.6057 244.844 96.9316 242.061 96.5627C239.289 96.1951 236.39 95.1151 233.56 93.6271C227.894 90.6478 221.917 85.7229 216.815 80.0109C211.714 74.3001 207.289 67.5804 204.931 60.882C202.587 54.2244 202.111 47.0194 205.894 41.0099L205.99 40.8664C206.22 40.5374 206.506 40.2502 206.835 40.0177C211.808 36.4993 222.552 31.4792 233.318 28.7453ZM249.027 33.7951C244.946 33.5605 240.08 34.2501 235.042 35.5295C225.379 37.9831 215.91 42.387 211.478 45.3224C209.634 48.7269 209.659 53.232 211.534 58.5578C213.503 64.1522 217.346 70.0975 222.036 75.3478C226.724 80.5967 232.062 84.9302 236.818 87.4308C239.199 88.6828 241.29 89.399 242.981 89.6232C244.661 89.8458 245.697 89.5593 246.336 89.133C254.656 83.5859 259.781 73.0782 261.553 62.2433C262.431 56.8809 262.451 51.6206 261.706 47.1242C260.95 42.5702 259.462 39.1031 257.595 37.0089C255.96 35.1739 253.15 34.0321 249.027 33.7951Z" fill="black"/>
<path d="M101.325 169.897C101.325 176.12 96.6799 181.165 90.9504 181.165C85.2208 181.165 80.5762 176.12 80.5762 169.897C80.5762 163.674 85.2208 158.629 90.9504 158.629C96.6799 158.629 101.325 163.674 101.325 169.897Z" fill="#474847"/>
<path d="M210.253 169.897C210.253 176.12 205.609 181.165 199.879 181.165C194.15 181.165 189.505 176.12 189.505 169.897C189.505 163.674 194.15 158.629 199.879 158.629C205.609 158.629 210.253 163.674 210.253 169.897Z" fill="#474847"/>
<path d="M145.316 25.4624C243.026 25.6829 259.149 102.997 259.416 157.604C259.471 168.856 269.272 184.75 264.199 205.75C255.187 243.063 179.611 259.121 145.106 257.998C110.6 259.12 35.0247 243.063 26.0119 205.75C20.9399 184.75 30.7411 168.856 30.7961 157.604C31.0631 102.997 47.1863 25.6826 144.897 25.4624V25.4604C144.966 25.4604 145.036 25.4613 145.106 25.4614C145.176 25.4613 145.246 25.4604 145.316 25.4604V25.4624Z" fill="white"/>
<path d="M97.1752 252.871C97.5902 190.589 52.7391 168.872 30.2617 165.799C25.0746 173.653 22.5932 200.116 26.6307 208.311C35.9675 227.262 47.3791 237.505 97.1752 252.871Z" fill="#FFCACC"/>
<path d="M192.687 252.871C192.272 190.589 237.123 168.872 259.601 165.799C264.788 173.653 267.269 200.116 263.232 208.311C253.895 227.262 242.483 237.505 192.687 252.871Z" fill="#FFCACC"/>
<path d="M241.036 74.6069C242.746 73.7059 244.863 74.3616 245.764 76.0718C259.312 101.785 262.793 132.298 262.917 157.587C262.928 159.954 263.459 162.711 264.297 166.075C265.091 169.264 266.231 173.238 267.143 177.245C269.026 185.511 270.315 195.335 267.601 206.572C264.005 221.46 251.057 232.758 235.341 241.018C219.522 249.332 200.158 254.968 182.323 258.198C164.25 262.373 135.252 263.146 107.964 258.212C90.1082 254.984 70.7124 249.343 54.8718 241.018C39.1556 232.758 26.2074 221.46 22.611 206.572C19.8968 195.335 21.1866 185.511 23.069 177.245C23.9815 173.238 25.121 169.264 25.9157 166.075C26.7537 162.711 27.284 159.954 27.2956 157.587C27.4192 132.298 30.9004 101.785 44.4479 76.0718C45.349 74.3616 47.4663 73.7059 49.1765 74.6069C50.8863 75.508 51.542 77.6245 50.6413 79.3345C37.8633 103.587 34.417 132.778 34.2956 157.622C34.2796 160.881 33.5642 164.33 32.7077 167.767C31.808 171.378 30.8046 174.801 29.8942 178.799C28.1309 186.543 27.0568 195.166 29.4147 204.928C32.2932 216.845 42.995 226.868 58.1286 234.822C73.1378 242.71 91.7919 248.175 109.21 251.324C135.77 256.125 163.845 255.303 180.834 251.359L181.003 251.324C198.42 248.175 217.074 242.71 232.084 234.822C247.217 226.868 257.919 216.845 260.798 204.928C263.156 195.166 262.081 186.543 260.318 178.799C259.408 174.801 258.404 171.378 257.505 167.767C256.648 164.33 255.933 160.881 255.917 157.622C255.795 132.778 252.349 103.587 239.571 79.3345C238.67 77.6244 239.326 75.508 241.036 74.6069ZM145.407 21.9634C177.988 22.0513 202.004 30.5625 219.515 44.2114C221.04 45.3997 221.312 47.599 220.124 49.1235C218.935 50.6481 216.736 50.9212 215.212 49.7329C199.124 37.1939 176.672 29.0332 145.308 28.9624C145.288 28.9624 145.268 28.9608 145.248 28.9604C145.186 28.9606 145.325 28.9612 145.109 28.9614H145.101C144.879 28.9612 145.03 28.9606 144.964 28.9604C144.944 28.9608 144.924 28.9624 144.904 28.9624C113.54 29.0332 91.088 37.1939 75.0007 49.7329C73.4761 50.9212 71.2769 50.6481 70.0886 49.1235C68.9003 47.5989 69.1724 45.3997 70.697 44.2114C88.2082 30.5626 112.223 22.0514 144.804 21.9634C144.835 21.9626 144.865 21.9605 144.896 21.9604C144.945 21.9604 144.991 21.9612 145.025 21.9614H145.186C145.22 21.9612 145.267 21.9604 145.316 21.9604C145.346 21.9605 145.377 21.9626 145.407 21.9634Z" fill="black"/>
<path d="M110.206 178.092C110.206 184.315 105.431 189.36 99.541 189.36C93.6509 189.36 88.876 184.315 88.876 178.092C88.876 171.869 93.6509 166.824 99.541 166.824C105.431 166.824 110.206 171.869 110.206 178.092Z" fill="#474847"/>
<path d="M202.536 178.092C202.536 184.315 197.761 189.36 191.871 189.36C185.981 189.36 181.206 184.315 181.206 178.092C181.206 171.869 185.981 166.824 191.871 166.824C197.761 166.824 202.536 171.869 202.536 178.092Z" fill="#474847"/>
<path d="M115.864 192.945C115.449 184.75 123.299 180.994 127.276 180.141C144.29 176.453 159.609 178.604 165.142 180.141C169.983 181.336 174.997 185.57 174.997 192.945C174.997 202.165 166.179 209.847 146.468 209.847C126.757 209.847 116.383 203.189 115.864 192.945Z" fill="#E9E9E9"/>
<path d="M171.497 192.945C171.497 187.484 167.897 184.426 164.303 183.539C164.27 183.531 164.237 183.522 164.205 183.513C159.164 182.113 144.422 180.006 128.018 183.562L128.011 183.563C126.471 183.893 124.083 184.83 122.205 186.444C120.418 187.981 119.22 189.991 119.36 192.769C119.552 196.545 121.479 199.768 125.714 202.203C130.099 204.725 136.933 206.348 146.468 206.348C155.934 206.348 162.308 204.493 166.2 201.931C169.967 199.451 171.497 196.283 171.497 192.945ZM178.497 192.945C178.497 198.827 175.619 204.111 170.049 207.777C164.605 211.361 156.713 213.348 146.468 213.348C136.292 213.348 128.084 211.641 122.225 208.272C116.215 204.817 112.697 199.589 112.369 193.122C112.095 187.705 114.614 183.739 117.642 181.136C120.576 178.613 124.097 177.245 126.534 176.721C144.156 172.901 160.054 175.095 166.078 176.769L166.077 176.77C172.136 178.306 178.497 183.705 178.497 192.945Z" fill="black"/>
<path d="M137.635 194.994C137.635 197.54 136.241 199.604 134.522 199.604C132.804 199.604 131.41 197.54 131.41 194.994C131.41 192.448 132.804 190.384 134.522 190.384C136.241 190.384 137.635 192.448 137.635 194.994Z" fill="#474847"/>
<path d="M160.458 194.994C160.458 197.54 159.065 199.604 157.346 199.604C155.627 199.604 154.233 197.54 154.233 194.994C154.233 192.448 155.627 190.384 157.346 190.384C159.065 190.384 160.458 192.448 160.458 194.994Z" fill="#474847"/>
</svg>
