<svg width="400" height="400" viewBox="0 0 400 400" fill="none" xmlns="http://www.w3.org/2000/svg">
<path d="M199.85 125.565C290.35 125.772 305.283 198.294 305.531 249.516C305.582 260.071 314.66 274.979 309.962 294.677C301.614 329.678 231.615 344.74 199.655 343.686C167.696 344.74 97.697 329.678 89.349 294.677C84.651 274.979 93.728 260.071 93.779 249.516C94.0263 198.294 108.96 125.772 199.461 125.565V125.563C199.526 125.563 199.59 125.564 199.654 125.564C199.719 125.564 199.785 125.563 199.85 125.563V125.565Z" fill="#D7F5F2"/>
<path d="M102.121 97.4631C97.9912 74.0437 116.957 51.124 140.06 47.0504C163.163 42.9768 188.824 58.0274 192.953 81.4469L195.182 136.02C197.472 169.97 184.659 187.845 171.458 190.172L159.506 192.28C146.305 194.608 132.719 180.139 118.691 149.507L102.121 97.4631Z" fill="#D7F5F2"/>
<path d="M296.395 97.0946C300.596 73.2695 281.755 50.0327 258.721 45.9713C235.687 41.9098 210.035 57.301 205.834 81.1261L203.421 136.619C201.019 171.144 213.739 189.273 226.901 191.594L238.817 193.695C251.979 196.015 265.583 181.258 279.683 150.066L296.395 97.0946Z" fill="#D7F5F2"/>
<path d="M121.457 106.568C117.82 85.9413 128.675 66.7862 142.967 64.2663C157.258 61.7464 174.01 76.0336 177.647 96.6601L181.49 144.394C184.446 174.129 177.22 189.156 169.054 190.596L161.66 191.9C153.494 193.34 144.334 180.102 134.172 152.737L121.457 106.568Z" fill="#FCD0D6"/>
<path d="M277.572 106.942C281.212 86.3019 269.803 67.0375 254.936 64.4161C240.069 61.7947 222.76 75.9953 219.12 96.6359L215.451 144.433C212.58 174.204 220.19 189.309 228.685 190.807L236.376 192.163C244.871 193.661 254.3 180.46 264.673 153.112L277.572 106.942Z" fill="#FCD0D6"/>
<ellipse cx="149.495" cy="261.046" rx="9.60874" ry="10.5696" fill="#474847"/>
<ellipse cx="250.387" cy="261.046" rx="9.60874" ry="10.5696" fill="#474847"/>
<path d="M140.252 48.7061C162.47 44.7885 186.67 59.0772 190.603 80.5193L192.761 135.812L192.766 135.905C193.876 152.723 191.179 165.244 186.813 173.711C182.44 182.194 176.517 186.437 171.062 187.399L158.736 189.572C153.554 190.486 147.76 188.303 141.167 181.454C134.598 174.629 127.733 163.642 120.634 148.308L103.819 95.8286C100.177 74.3321 118.032 52.6241 140.252 48.7061Z" stroke="#474847" stroke-width="7" stroke-linecap="round" stroke-linejoin="round"/>
<path d="M258.104 48.7061C235.886 44.7885 211.687 59.0772 207.753 80.5193L205.596 135.812L205.59 135.905C204.481 152.723 207.177 165.244 211.543 173.711C215.917 182.194 221.839 186.437 227.294 187.399L239.621 189.572C244.803 190.486 250.597 188.303 257.189 181.454C263.758 174.629 270.623 163.642 277.723 148.308L294.537 95.8286C298.18 74.3321 280.324 52.6241 258.104 48.7061Z" stroke="#474847" stroke-width="7" stroke-linecap="round" stroke-linejoin="round"/>
<path d="M199.85 125.565C290.351 125.772 305.285 198.294 305.532 249.516C305.583 260.071 314.66 274.98 309.962 294.677C301.614 329.678 231.614 344.74 199.655 343.686C167.696 344.739 97.6978 329.678 89.3496 294.677C84.6517 274.98 93.7291 260.071 93.7803 249.516C94.0275 198.294 108.961 125.772 199.462 125.565V125.563C199.526 125.563 199.591 125.564 199.655 125.564C199.72 125.564 199.785 125.563 199.85 125.563V125.565Z" fill="#D7F5F2"/>
<path d="M155.261 338.877C155.645 280.456 114.103 260.086 93.2842 257.203C88.4798 264.57 86.1815 289.392 89.9211 297.079C98.569 314.855 109.139 324.464 155.261 338.877Z" fill="#FFD9D9"/>
<path d="M243.727 338.877C243.342 280.456 284.884 260.086 305.703 257.203C310.507 264.57 312.806 289.392 309.066 297.079C300.418 314.855 289.849 324.464 243.727 338.877Z" fill="#FFD9D9"/>
<path d="M139.407 140.991C101.685 165.11 93.9563 212.788 93.779 249.516C93.728 260.071 84.651 274.979 89.349 294.677C95.3754 319.944 133.532 334.821 166.311 340.744C188.025 344.668 220.579 343.475 233 340.744C265.779 334.821 303.935 319.944 309.962 294.677C314.66 274.979 305.583 260.071 305.532 249.516C305.354 212.788 297.626 165.11 259.904 140.991M179.763 126.871C185.895 126.031 192.451 125.581 199.461 125.565V125.563C199.526 125.563 199.591 125.564 199.655 125.564C199.72 125.564 199.785 125.563 199.85 125.563V125.565C205.45 125.578 210.76 125.867 215.796 126.412" stroke="#474847" stroke-width="7" stroke-linecap="round" stroke-linejoin="round"/>
<ellipse cx="157.452" cy="267.772" rx="9.87815" ry="10.5696" fill="#474847"/>
<ellipse cx="243.392" cy="267.772" rx="9.87815" ry="10.5696" fill="#474847"/>
<path d="M181.16 280.744C181.16 280.744 182.395 285.549 191.162 285.549C199.929 285.549 201.163 280.744 201.163 280.744C201.163 280.744 203.633 285.549 211.165 285.549C218.697 285.549 221.167 280.744 221.167 280.744" stroke="#474847" stroke-width="7" stroke-linecap="round" stroke-linejoin="round"/>
<path d="M196.579 273.538L201.383 275.46L205.707 273.538" stroke="#474847" stroke-width="7" stroke-linecap="round" stroke-linejoin="round"/>
</svg>
