<svg width="420" height="420" viewBox="0 0 420 420" fill="none" xmlns="http://www.w3.org/2000/svg">
<path d="M77.2416 222.698C77.2416 94.1977 165.075 69.1975 212.742 74.6975C291.742 70.6976 343.742 130.697 341.242 222.698C362.242 280.698 341.241 346.198 206.241 346.198C82.0146 346.198 59.741 284.198 77.2416 222.698Z" fill="white" stroke="#A5A5A5" stroke-width="4" stroke-linecap="round" stroke-linejoin="round" stroke-dasharray="8 8"/>
<path d="M209.226 94.6995C303.412 94.9147 318.953 170.39 319.211 223.698C319.264 234.682 328.711 250.198 323.822 270.698C315.134 307.124 242.285 322.799 209.024 321.702C175.764 322.799 102.914 307.124 94.2262 270.698C89.3369 250.198 98.7835 234.682 98.8366 223.698C99.0939 170.389 114.636 94.9145 208.822 94.6995V94.6975C208.889 94.6975 208.956 94.6984 209.023 94.6985C209.091 94.6984 209.159 94.6975 209.226 94.6975V94.6995Z" fill="#D7F5F2"/>
<path d="M166.822 235.698C166.822 241.773 162.345 246.698 156.822 246.698C151.299 246.698 146.822 241.773 146.822 235.698C146.822 229.622 151.299 224.698 156.822 224.698C162.345 224.698 166.822 229.622 166.822 235.698Z" fill="#474847"/>
<path d="M271.822 235.698C271.822 241.773 267.345 246.698 261.822 246.698C256.299 246.698 251.822 241.773 251.822 235.698C251.822 229.622 256.299 224.698 261.822 224.698C267.345 224.698 271.822 229.622 271.822 235.698Z" fill="#474847"/>
<path d="M209.163 94.6995C303.349 94.9147 318.891 170.39 319.148 223.698C319.201 234.682 328.648 250.198 323.758 270.698C315.071 307.124 242.221 322.799 208.961 321.702C175.7 322.799 102.851 307.124 94.1627 270.698C89.2734 250.198 98.7201 234.682 98.7731 223.698C99.0304 170.389 114.572 94.9145 208.758 94.6995V94.6975C208.826 94.6975 208.893 94.6984 208.96 94.6985C209.027 94.6984 209.095 94.6975 209.163 94.6975V94.6995Z" fill="#D7F5F2"/>
<path d="M178.236 302.734C150.223 305.739 112.416 285.962 95.7412 275.698C99.7412 297.477 151.223 321.135 208.25 322.637C265.277 324.139 328.744 289.222 322.241 271.198C292.08 302.734 259.274 302.734 240.765 302.734C222.256 302.734 218.255 297.102 208.25 297.477C198.245 297.853 195.244 302.734 178.236 302.734Z" fill="#C5EBE9"/>
<path d="M162.677 316.698C163.077 255.898 119.843 234.698 98.1765 231.698C93.1765 239.364 90.7846 265.198 94.6765 273.198C103.677 291.698 114.677 301.698 162.677 316.698Z" fill="#FFD9D9"/>
<path d="M254.744 316.698C254.344 255.898 297.578 234.698 319.244 231.698C324.244 239.364 326.636 265.198 322.744 273.198C313.744 291.698 302.744 301.698 254.744 316.698Z" fill="#FFD9D9"/>
<path d="M209.265 91.2004C257.427 91.3357 286.001 110.808 302.361 137.457C318.556 163.836 322.519 196.81 322.648 223.681C322.66 225.986 323.17 228.674 323.978 231.956C324.743 235.067 325.842 238.95 326.722 242.862C328.537 250.934 329.781 260.531 327.163 271.509C324.741 281.664 317.914 290.099 308.964 296.965C300.006 303.837 288.681 309.327 276.746 313.569C252.959 322.021 226.063 325.746 208.96 325.202C191.857 325.745 164.961 322.021 141.175 313.569C129.24 309.327 117.916 303.837 108.958 296.965C100.008 290.099 93.18 281.664 90.7578 271.509C88.1395 260.531 89.385 250.934 91.2002 242.862C92.0798 238.95 93.179 235.067 93.9444 231.956C94.7519 228.674 95.2623 225.986 95.2735 223.681C95.4032 196.81 99.3652 163.836 115.56 137.457C131.92 110.808 160.494 91.3357 208.656 91.2004C208.69 91.1995 208.725 91.1975 208.759 91.1975C208.806 91.1975 208.851 91.1983 208.884 91.1985H209.037C209.07 91.1983 209.116 91.1975 209.163 91.1975C209.197 91.1975 209.231 91.1995 209.265 91.2004ZM208.964 98.1985H208.956C208.735 98.1982 208.887 98.1977 208.826 98.1975C208.806 98.1979 208.787 98.1994 208.767 98.1995C162.8 98.3044 136.537 116.668 121.525 141.119C106.338 165.858 102.401 197.277 102.273 223.714C102.258 226.902 101.567 230.273 100.741 233.629C99.8733 237.157 98.9068 240.494 98.0293 244.397C96.3303 251.953 95.2965 260.365 97.5674 269.886C99.4893 277.943 105.026 285.128 113.218 291.411C121.402 297.689 131.998 302.879 143.519 306.973C166.59 315.171 192.682 318.737 208.846 318.204H209.076C225.24 318.737 251.331 315.171 274.402 306.973C285.923 302.879 296.519 297.689 304.703 291.411C312.895 285.128 318.432 277.943 320.354 269.886C322.624 260.365 321.591 251.953 319.892 244.397C319.014 240.494 318.048 237.157 317.18 233.629C316.354 230.273 315.664 226.902 315.648 223.714C315.521 197.277 311.583 165.859 296.396 141.12C281.384 116.669 255.121 98.3045 209.154 98.1995C209.134 98.1994 209.115 98.1979 209.095 98.1975C209.037 98.1977 209.178 98.1982 208.964 98.1985Z" fill="black"/>
<path d="M173.302 242.698C173.302 248.773 168.699 253.698 163.022 253.698C157.344 253.698 152.741 248.773 152.741 242.698C152.741 236.622 157.344 231.698 163.022 231.698C168.699 231.698 173.302 236.622 173.302 242.698Z" fill="#474847"/>
<path d="M262.741 242.698C262.741 248.773 258.139 253.698 252.461 253.698C246.783 253.698 242.181 248.773 242.181 242.698C242.181 236.622 246.783 231.698 252.461 231.698C258.139 231.698 262.741 236.622 262.741 242.698Z" fill="#474847"/>
<path d="M186.824 260.808C188.64 260.341 190.488 261.388 191.037 263.16C191.045 263.178 191.062 263.215 191.09 263.266C191.176 263.418 191.369 263.71 191.753 264.037C192.467 264.648 194.214 265.697 198.104 265.697C201.994 265.697 203.741 264.648 204.455 264.037C204.838 263.709 205.032 263.418 205.117 263.266C205.152 263.204 205.169 263.164 205.174 263.152C205.587 261.834 206.739 260.874 208.123 260.719C209.562 260.558 210.951 261.299 211.618 262.583C211.616 262.579 211.614 262.574 211.612 262.57C211.608 262.563 211.604 262.556 211.601 262.55C211.595 262.539 211.591 262.532 211.59 262.529C211.592 262.532 211.597 262.541 211.605 262.555C211.634 262.601 211.698 262.7 211.802 262.834C212.012 263.104 212.372 263.508 212.914 263.925C213.954 264.726 215.812 265.697 218.922 265.697C222.031 265.697 223.89 264.726 224.929 263.925C225.471 263.508 225.832 263.104 226.041 262.834C226.145 262.7 226.209 262.601 226.238 262.555C226.252 262.533 226.257 262.523 226.255 262.529C226.253 262.532 226.248 262.539 226.242 262.55C226.239 262.556 226.235 262.563 226.231 262.57C226.229 262.574 226.228 262.579 226.225 262.583C227.113 260.875 229.216 260.203 230.93 261.084C232.649 261.968 233.327 264.078 232.443 265.797L229.331 264.197C232.292 265.72 232.435 265.796 232.441 265.801C232.441 265.802 232.44 265.804 232.439 265.805C232.438 265.808 232.437 265.811 232.435 265.814C232.432 265.819 232.429 265.825 232.425 265.831C232.419 265.844 232.411 265.858 232.403 265.873C232.387 265.903 232.368 265.939 232.345 265.979C232.3 266.058 232.243 266.156 232.172 266.27C232.029 266.497 231.832 266.789 231.573 267.123C231.055 267.791 230.283 268.637 229.202 269.47C226.997 271.169 223.65 272.697 218.922 272.697C214.275 272.697 210.964 271.22 208.758 269.557C206.541 271.346 203.149 272.697 198.104 272.697C192.871 272.697 189.412 271.247 187.203 269.358C186.125 268.435 185.427 267.477 184.986 266.692C184.767 266.301 184.612 265.954 184.505 265.677C184.451 265.538 184.408 265.416 184.376 265.314C184.36 265.263 184.346 265.217 184.335 265.176C184.329 265.156 184.323 265.136 184.318 265.118C184.316 265.109 184.313 265.1 184.311 265.092C184.31 265.088 184.309 265.084 184.308 265.08C184.308 265.078 184.307 265.075 184.306 265.074C184.306 265.072 184.328 265.063 187.695 264.197L184.305 265.069C183.824 263.196 184.952 261.289 186.824 260.808ZM191.083 263.321C191.082 263.321 191.082 263.316 191.082 263.315C191.081 263.311 191.08 263.307 191.079 263.304C191.077 263.297 191.076 263.291 191.074 263.284C191.07 263.271 191.066 263.259 191.063 263.248L191.083 263.321ZM205.161 263.194C205.156 263.208 205.151 263.226 205.144 263.248C205.141 263.259 205.138 263.271 205.134 263.284C205.133 263.291 205.13 263.297 205.129 263.304C205.128 263.307 205.127 263.311 205.126 263.315C205.125 263.316 205.125 263.318 205.125 263.32C205.139 263.263 205.157 263.208 205.174 263.153C205.172 263.159 205.167 263.172 205.161 263.194Z" fill="black"/>
</svg>
