<svg width="281" height="277" viewBox="0 0 281 277" fill="none" xmlns="http://www.w3.org/2000/svg">
<path d="M7.23965 150.698C7.23965 22.1977 95.0731 -2.8025 142.74 2.6975C221.74 -1.30236 273.74 58.6974 271.24 150.698C292.24 208.698 271.239 274.198 136.239 274.198C12.0126 274.198 -10.261 212.198 7.23965 150.698Z" fill="white" stroke="#A5A5A5" stroke-width="4" stroke-linecap="round" stroke-linejoin="round" stroke-dasharray="8 8"/>
<path d="M139.225 22.6995C233.411 22.9147 248.952 98.3896 249.21 151.698C249.263 162.682 258.71 178.198 253.821 198.698C245.133 235.124 172.284 250.799 139.023 249.702C105.763 250.799 32.9131 235.124 24.2252 198.698C19.3359 178.198 28.7826 162.682 28.8356 151.698C29.0929 98.3895 44.6348 22.9145 138.821 22.6995V22.6975C138.888 22.6975 138.955 22.6984 139.022 22.6985C139.09 22.6984 139.158 22.6975 139.225 22.6975V22.6995Z" fill="#D7F5F2"/>
<path d="M96.8203 163.698C96.8203 169.773 92.3432 174.698 86.8203 174.698C81.2975 174.698 76.8203 169.773 76.8203 163.698C76.8203 157.622 81.2975 152.698 86.8203 152.698C92.3432 152.698 96.8203 157.622 96.8203 163.698Z" fill="#474847"/>
<path d="M201.82 163.698C201.82 169.773 197.343 174.698 191.82 174.698C186.297 174.698 181.82 169.773 181.82 163.698C181.82 157.622 186.297 152.698 191.82 152.698C197.343 152.698 201.82 157.622 201.82 163.698Z" fill="#474847"/>
<path d="M139.161 22.6995C233.347 22.9147 248.889 98.3896 249.146 151.698C249.199 162.682 258.646 178.198 253.757 198.698C245.069 235.124 172.219 250.799 138.959 249.702C105.698 250.799 32.8487 235.124 24.1608 198.698C19.2715 178.198 28.7181 162.682 28.7711 151.698C29.0285 98.3895 44.5704 22.9145 138.757 22.6995V22.6975C138.824 22.6975 138.891 22.6984 138.958 22.6985C139.025 22.6984 139.093 22.6975 139.161 22.6975V22.6995Z" fill="#D7F5F2"/>
<path d="M108.234 230.734C80.2206 233.739 42.4138 213.962 25.7393 203.698C29.7393 225.477 81.221 249.135 138.248 250.637C195.275 252.139 258.742 217.222 252.239 199.198C222.078 230.734 189.272 230.734 170.763 230.734C152.254 230.734 148.253 225.102 138.248 225.477C128.243 225.853 125.242 230.734 108.234 230.734Z" fill="#C5EBE9"/>
<path d="M92.6746 244.698C93.0746 183.898 49.8412 162.698 28.1746 159.698C23.1745 167.364 20.7826 193.198 24.6745 201.198C33.6746 219.698 44.6746 229.698 92.6746 244.698Z" fill="#FFD9D9"/>
<path d="M184.741 244.698C184.341 183.898 227.575 162.698 249.241 159.698C254.241 167.364 256.633 193.198 252.741 201.198C243.741 219.698 232.741 229.698 184.741 244.698Z" fill="#FFD9D9"/>
<path d="M139.263 19.2004C187.425 19.3357 215.999 38.8082 232.359 65.4573C248.554 91.8364 252.517 124.81 252.646 151.681C252.658 153.986 253.168 156.674 253.976 159.956C254.741 163.067 255.84 166.95 256.72 170.862C258.535 178.934 259.779 188.531 257.161 199.509C254.739 209.664 247.912 218.099 238.962 224.965C230.004 231.837 218.679 237.327 206.744 241.569C182.957 250.021 156.061 253.746 138.958 253.202C121.855 253.745 94.9594 250.021 71.1729 241.569C59.2378 237.327 47.914 231.837 38.9561 224.965C30.0057 218.099 23.178 209.664 20.7559 199.509C18.1376 188.531 19.383 178.934 21.1983 170.862C22.0778 166.95 23.177 163.067 23.9424 159.956C24.7499 156.674 25.2603 153.986 25.2715 151.681C25.4012 124.81 29.3633 91.8364 45.5576 65.4573C61.9177 38.8082 90.4924 19.3357 138.654 19.2004C138.688 19.1995 138.723 19.1975 138.757 19.1975C138.804 19.1975 138.849 19.1983 138.882 19.1985H139.035C139.068 19.1983 139.114 19.1975 139.161 19.1975C139.195 19.1975 139.229 19.1995 139.263 19.2004ZM138.962 26.1985H138.954C138.733 26.1982 138.886 26.1977 138.824 26.1975C138.804 26.1979 138.785 26.1994 138.765 26.1995C92.7977 26.3044 66.5346 44.6678 51.5235 69.1194C36.336 93.8584 32.3991 125.277 32.2715 151.714C32.2561 154.902 31.565 158.273 30.7393 161.629C29.8713 165.157 28.9049 168.494 28.0274 172.397C26.3284 179.953 25.2946 188.365 27.5654 197.886C29.4873 205.943 35.0244 213.128 43.2158 219.411C51.3999 225.689 61.996 230.879 73.5166 234.973C96.5881 243.171 122.68 246.737 138.844 246.204H139.074C155.238 246.737 181.329 243.171 204.4 234.973C215.921 230.879 226.517 225.689 234.701 219.411C242.893 213.128 248.43 205.943 250.352 197.886C252.622 188.365 251.589 179.953 249.89 172.397C249.012 168.494 248.046 165.157 247.178 161.629C246.352 158.273 245.662 154.902 245.646 151.714C245.519 125.277 241.581 93.8593 226.394 69.1204C211.382 44.6686 185.119 26.3045 139.152 26.1995C139.132 26.1994 139.113 26.1979 139.093 26.1975C139.035 26.1977 139.176 26.1982 138.962 26.1985Z" fill="black"/>
<path d="M103.3 170.698C103.3 176.773 98.6973 181.698 93.0196 181.698C87.3419 181.698 82.7393 176.773 82.7393 170.698C82.7393 164.622 87.3419 159.698 93.0196 159.698C98.6973 159.698 103.3 164.622 103.3 170.698Z" fill="#474847"/>
<path d="M192.739 170.698C192.739 176.773 188.137 181.698 182.459 181.698C176.781 181.698 172.179 176.773 172.179 170.698C172.179 164.622 176.781 159.698 182.459 159.698C188.137 159.698 192.739 164.622 192.739 170.698Z" fill="#474847"/>
<path d="M116.822 188.808C118.638 188.341 120.486 189.388 121.035 191.16C121.043 191.178 121.06 191.215 121.089 191.266C121.174 191.418 121.367 191.71 121.751 192.037C122.465 192.648 124.212 193.697 128.102 193.697C131.992 193.697 133.739 192.648 134.453 192.037C134.836 191.709 135.03 191.418 135.115 191.266C135.15 191.204 135.167 191.164 135.173 191.152C135.585 189.834 136.737 188.874 138.121 188.719C139.56 188.558 140.949 189.299 141.616 190.583C141.614 190.579 141.612 190.574 141.61 190.57C141.606 190.563 141.602 190.556 141.599 190.55C141.593 190.539 141.589 190.532 141.588 190.529C141.59 190.532 141.595 190.541 141.603 190.555C141.632 190.601 141.696 190.7 141.8 190.834C142.01 191.104 142.37 191.508 142.912 191.925C143.952 192.726 145.81 193.697 148.92 193.697C152.029 193.697 153.888 192.726 154.927 191.925C155.469 191.508 155.83 191.104 156.039 190.834C156.143 190.7 156.207 190.601 156.236 190.555C156.25 190.533 156.255 190.523 156.253 190.529C156.251 190.532 156.246 190.539 156.24 190.55C156.237 190.556 156.233 190.563 156.229 190.57C156.227 190.574 156.226 190.579 156.223 190.583C157.111 188.875 159.214 188.203 160.928 189.084C162.647 189.968 163.325 192.078 162.441 193.797L159.329 192.197C162.29 193.72 162.433 193.796 162.439 193.801C162.439 193.802 162.438 193.804 162.437 193.805C162.436 193.808 162.435 193.811 162.433 193.814C162.43 193.819 162.427 193.825 162.423 193.831C162.417 193.844 162.409 193.858 162.401 193.873C162.385 193.903 162.366 193.939 162.343 193.979C162.298 194.058 162.241 194.156 162.17 194.27C162.027 194.497 161.83 194.789 161.571 195.123C161.053 195.791 160.281 196.637 159.2 197.47C156.995 199.169 153.648 200.697 148.92 200.697C144.273 200.697 140.962 199.22 138.757 197.557C136.539 199.346 133.147 200.697 128.102 200.697C122.869 200.697 119.41 199.247 117.201 197.358C116.123 196.435 115.425 195.477 114.984 194.692C114.765 194.301 114.61 193.954 114.503 193.677C114.449 193.538 114.406 193.416 114.374 193.314C114.358 193.263 114.344 193.217 114.333 193.176C114.327 193.156 114.321 193.136 114.316 193.118C114.314 193.109 114.311 193.1 114.309 193.092C114.308 193.088 114.307 193.084 114.306 193.08C114.306 193.078 114.305 193.075 114.304 193.074C114.304 193.072 114.326 193.063 117.693 192.197L114.303 193.069C113.822 191.196 114.95 189.289 116.822 188.808ZM121.081 191.321C121.08 191.321 121.08 191.316 121.08 191.315C121.079 191.311 121.078 191.307 121.077 191.304C121.075 191.297 121.074 191.291 121.072 191.284C121.068 191.271 121.064 191.259 121.061 191.248L121.081 191.321ZM135.159 191.194C135.154 191.208 135.149 191.226 135.142 191.248C135.139 191.259 135.136 191.271 135.132 191.284C135.131 191.291 135.128 191.297 135.127 191.304C135.126 191.307 135.125 191.311 135.124 191.315C135.123 191.316 135.123 191.318 135.123 191.32C135.137 191.263 135.155 191.208 135.173 191.153C135.17 191.159 135.166 191.172 135.159 191.194Z" fill="black"/>
</svg>
