<svg width="420" height="420" viewBox="0 0 420 420" fill="none" xmlns="http://www.w3.org/2000/svg">
<path d="M148.528 85.4602C196.928 57.4602 253.361 73.7936 275.528 85.4602C287.861 77.627 330.528 76.3311 341.028 88.4604C364.228 115.26 349.362 151.627 338.028 167.46C341.195 166.294 345.228 181.36 346.028 232.96C380.528 328.46 272.028 348.46 208.528 348.96C145.028 349.46 81.5278 322.46 70.0278 283.96C60.8278 253.16 69.3616 232.294 76.0284 224.46C75.0284 221.96 71.7281 205.46 78.5281 169.46C56.1281 129.06 71.0281 96.627 78.5281 85.4602C85.6947 80.1269 109.728 72.6602 148.528 85.4602Z" fill="white" stroke="#A5A5A5" stroke-width="4" stroke-linecap="round" stroke-linejoin="round" stroke-dasharray="8 8"/>
<path d="M107.49 163.045C88.659 150.489 85.6857 116.759 95.5596 105.68C98.818 102.024 103.372 105.023 109.752 105.427C114.048 105.699 119.738 102.555 124.275 103.868C133.766 106.614 142.752 110.932 146.912 113.875C158.842 132.826 119.939 171.345 107.49 163.045Z" fill="#D7F5F2"/>
<path d="M326.212 105.68C316.17 94.4118 283.961 107.436 274.86 113.875C262.929 132.826 301.832 171.345 314.281 163.045C333.112 150.489 336.086 116.759 326.212 105.68Z" fill="#D7F5F2"/>
<path d="M211.319 96.4624C309.029 96.683 325.152 173.997 325.419 228.604C325.474 239.857 335.275 255.75 330.203 276.75C321.19 314.064 245.615 330.121 211.109 328.998C176.604 330.121 101.029 314.064 92.0161 276.75C86.9438 255.75 96.7439 239.857 96.7989 228.604C97.0659 173.997 113.189 96.6828 210.9 96.4624V96.4604C210.969 96.4604 211.039 96.4614 211.108 96.4614C211.178 96.4614 211.249 96.4604 211.319 96.4604V96.4624Z" fill="#D7F5F2"/>
<path d="M122.451 99.745C117.044 98.3721 111.406 97.5152 106.339 97.8066C101.314 98.0955 96.3324 99.5526 92.9468 103.351C90.2349 106.394 88.4897 110.566 87.5171 115.09C86.536 119.652 86.2886 124.81 86.7612 130.066C87.2832 135.873 88.6918 141.902 91.0522 147.502C94.1206 154.782 98.8722 161.505 105.549 165.957C108.022 167.605 110.924 167.931 113.707 167.562C116.48 167.195 119.378 166.115 122.208 164.627C127.875 161.648 133.852 156.723 138.954 151.011C144.055 145.3 148.479 138.58 150.837 131.882C153.181 125.224 153.658 118.019 149.874 112.01L149.779 111.866C149.548 111.537 149.263 111.25 148.934 111.017C143.961 107.499 133.217 102.479 122.451 99.745ZM106.742 104.795C110.822 104.56 115.689 105.25 120.727 106.529C130.389 108.983 139.858 113.387 144.29 116.322C146.135 119.727 146.11 124.232 144.235 129.558C142.265 135.152 138.423 141.097 133.733 146.348C129.044 151.597 123.707 155.93 118.951 158.431C116.57 159.683 114.479 160.399 112.788 160.623C111.108 160.846 110.071 160.559 109.432 160.133C104.185 156.634 100.192 151.162 97.5034 144.783C95.4451 139.9 94.1953 134.583 93.7329 129.439C93.3135 124.774 93.5485 120.334 94.3598 116.56C95.1796 112.748 96.5371 109.845 98.1733 108.009C99.8088 106.174 102.619 105.032 106.742 104.795Z" fill="black"/>
<path d="M299.322 99.745C304.728 98.3721 310.366 97.5152 315.433 97.8066C320.458 98.0955 325.44 99.5526 328.826 103.351C331.896 106.797 333.739 111.7 334.615 116.978C335.5 122.315 335.451 128.349 334.465 134.373C332.512 146.312 326.735 158.948 316.223 165.957C313.751 167.605 310.848 167.931 308.065 167.562C305.293 167.195 302.394 166.115 299.564 164.627C293.897 161.648 287.921 156.723 282.819 151.011C277.718 145.3 273.293 138.58 270.935 131.882C268.591 125.224 268.115 118.019 271.898 112.01L271.994 111.866C272.224 111.537 272.51 111.25 272.838 111.017C277.812 107.499 288.556 102.479 299.322 99.745ZM315.031 104.795C310.95 104.56 306.084 105.25 301.045 106.529C291.383 108.983 281.914 113.387 277.482 116.322C275.637 119.727 275.663 124.232 277.538 129.558C279.507 135.152 283.35 141.097 288.04 146.348C292.728 151.597 298.066 155.93 302.822 158.431C305.203 159.683 307.294 160.399 308.985 160.623C310.665 160.846 311.701 160.559 312.34 160.133C320.66 154.586 325.784 144.078 327.557 133.243C328.434 127.881 328.455 122.62 327.709 118.124C326.954 113.57 325.465 110.103 323.599 108.009C321.964 106.174 319.153 105.032 315.031 104.795Z" fill="black"/>
<path d="M167.328 240.897C167.328 247.12 162.684 252.165 156.954 252.165C151.225 252.165 146.58 247.12 146.58 240.897C146.58 234.674 151.225 229.629 156.954 229.629C162.684 229.629 167.328 234.674 167.328 240.897Z" fill="#474847"/>
<path d="M276.257 240.897C276.257 247.12 271.612 252.165 265.883 252.165C260.153 252.165 255.509 247.12 255.509 240.897C255.509 234.674 260.153 229.629 265.883 229.629C271.612 229.629 276.257 234.674 276.257 240.897Z" fill="#474847"/>
<path d="M211.32 96.4624C309.029 96.6829 325.153 173.997 325.42 228.604C325.475 239.856 335.275 255.75 330.203 276.75C321.191 314.063 245.615 330.121 211.11 328.998C176.604 330.12 101.029 314.063 92.0158 276.75C86.9438 255.75 96.745 239.856 96.8 228.604C97.067 173.997 113.19 96.6826 210.901 96.4624V96.4604C210.97 96.4604 211.04 96.4613 211.11 96.4614C211.179 96.4613 211.25 96.4604 211.32 96.4604V96.4624Z" fill="#D7F5F2"/>
<path d="M163.179 323.871C163.594 261.589 118.743 239.872 96.2656 236.799C91.0785 244.653 88.5971 271.116 92.6346 279.311C101.971 298.262 113.383 308.505 163.179 323.871Z" fill="#FFD9D9"/>
<path d="M258.691 323.871C258.276 261.589 303.127 239.872 325.604 236.799C330.792 244.653 333.273 271.116 329.235 279.311C319.899 298.262 308.487 308.505 258.691 323.871Z" fill="#FFD9D9"/>
<path d="M307.04 145.607C308.75 144.706 310.867 145.362 311.768 147.072C325.316 172.785 328.797 203.298 328.921 228.587C328.932 230.954 329.463 233.711 330.3 237.075C331.095 240.264 332.235 244.238 333.147 248.245C335.03 256.511 336.319 266.335 333.605 277.572C330.009 292.46 317.061 303.758 301.344 312.018C285.526 320.332 266.162 325.968 248.327 329.198C230.254 333.373 201.256 334.146 173.967 329.212C156.112 325.984 136.716 320.343 120.876 312.018C105.16 303.758 92.2113 292.46 88.6149 277.572C85.9007 266.335 87.1905 256.511 89.0729 248.245C89.9854 244.238 91.1249 240.264 91.9196 237.075C92.7576 233.711 93.2879 230.954 93.2995 228.587C93.4231 203.298 96.9043 172.785 110.452 147.072C111.353 145.362 113.47 144.706 115.18 145.607C116.89 146.508 117.546 148.624 116.645 150.334C103.867 174.587 100.421 203.778 100.3 228.622C100.284 231.881 99.5681 235.33 98.7116 238.767C97.8119 242.378 96.8086 245.801 95.8981 249.799C94.1348 257.543 93.0607 266.166 95.4186 275.928C98.2971 287.845 108.999 297.868 124.133 305.822C139.142 313.71 157.796 319.175 175.214 322.324C201.774 327.125 229.849 326.303 246.838 322.359L247.007 322.324C264.424 319.175 283.078 313.71 298.088 305.822C313.221 297.868 323.923 287.845 326.801 275.928C329.159 266.166 328.085 257.543 326.322 249.799C325.412 245.801 324.408 242.378 323.508 238.767C322.652 235.33 321.937 231.881 321.921 228.622C321.799 203.778 318.353 174.587 305.575 150.334C304.674 148.624 305.33 146.508 307.04 145.607ZM211.411 92.9634C243.992 93.0513 268.008 101.563 285.519 115.211C287.044 116.4 287.316 118.599 286.128 120.124C284.939 121.648 282.74 121.921 281.216 120.733C265.128 108.194 242.676 100.033 211.312 99.9624C211.292 99.9624 211.272 99.9608 211.252 99.9604C211.19 99.9606 211.329 99.9612 211.113 99.9614H211.105C210.882 99.9612 211.034 99.9606 210.967 99.9604C210.948 99.9608 210.928 99.9624 210.908 99.9624C179.544 100.033 157.092 108.194 141.005 120.733C139.48 121.921 137.281 121.648 136.092 120.124C134.904 118.599 135.176 116.4 136.701 115.211C154.212 101.563 178.227 93.0514 210.808 92.9634C210.839 92.9626 210.869 92.9605 210.9 92.9604C210.949 92.9604 210.995 92.9612 211.029 92.9614H211.19C211.224 92.9612 211.271 92.9604 211.32 92.9604C211.35 92.9605 211.381 92.9626 211.411 92.9634Z" fill="black"/>
<path d="M176.21 249.092C176.21 255.315 171.435 260.36 165.545 260.36C159.655 260.36 154.88 255.315 154.88 249.092C154.88 242.869 159.655 237.824 165.545 237.824C171.435 237.824 176.21 242.869 176.21 249.092Z" fill="#474847"/>
<path d="M268.54 249.092C268.54 255.315 263.765 260.36 257.875 260.36C251.985 260.36 247.21 255.315 247.21 249.092C247.21 242.869 251.985 237.824 257.875 237.824C263.765 237.824 268.54 242.869 268.54 249.092Z" fill="#474847"/>
<path d="M181.868 263.945C181.453 255.75 189.303 251.994 193.28 251.141C210.294 247.453 225.613 249.604 231.146 251.141C235.987 252.336 241.001 256.57 241.001 263.945C241.001 273.165 232.183 280.847 212.472 280.847C192.761 280.847 182.387 274.189 181.868 263.945Z" fill="#BDE6E3"/>
<path d="M237.501 263.945C237.501 258.484 233.901 255.426 230.307 254.539C230.274 254.531 230.241 254.521 230.209 254.512C225.168 253.112 210.426 251.006 194.021 254.561L194.015 254.562C192.475 254.893 190.087 255.83 188.209 257.444C186.422 258.981 185.224 260.99 185.364 263.768C185.556 267.545 187.483 270.768 191.718 273.203C196.103 275.724 202.937 277.347 212.472 277.347C221.938 277.347 228.311 275.493 232.204 272.93C235.971 270.451 237.501 267.283 237.501 263.945ZM244.501 263.945C244.501 269.827 241.623 275.11 236.053 278.777C230.609 282.361 222.717 284.347 212.472 284.347C202.296 284.347 194.087 282.641 188.228 279.272C182.219 275.817 178.7 270.589 178.373 264.122C178.099 258.705 180.618 254.739 183.645 252.136C186.58 249.612 190.101 248.245 192.538 247.72C210.16 243.901 226.057 246.095 232.082 247.768L232.081 247.769C238.14 249.306 244.501 254.705 244.501 263.945Z" fill="black"/>
<path d="M203.639 265.994C203.639 268.54 202.245 270.604 200.526 270.604C198.807 270.604 197.414 268.54 197.414 265.994C197.414 263.448 198.807 261.384 200.526 261.384C202.245 261.384 203.639 263.448 203.639 265.994Z" fill="#474847"/>
<path d="M226.462 265.994C226.462 268.54 225.068 270.604 223.35 270.604C221.631 270.604 220.237 268.54 220.237 265.994C220.237 263.448 221.631 261.384 223.35 261.384C225.068 261.384 226.462 263.448 226.462 265.994Z" fill="#474847"/>
</svg>
