<svg width="292" height="283" viewBox="0 0 292 283" fill="none" xmlns="http://www.w3.org/2000/svg">
<path d="M84.5241 17.4602C132.924 -10.5398 189.357 5.79358 211.524 17.4602C223.857 9.62698 266.524 8.33114 277.024 20.4604C300.224 47.2604 285.358 83.6271 274.024 99.4604C277.191 98.2938 281.224 113.36 282.024 164.96C316.524 260.46 208.024 280.46 144.524 280.96C81.0242 281.46 17.5239 254.46 6.02386 215.96C-3.17614 185.16 5.35772 164.294 12.0245 156.46C11.0245 153.96 7.72415 137.46 14.5242 101.46C-7.87585 61.0604 7.02415 28.627 14.5242 17.4602C21.6908 12.1269 45.7241 4.66025 84.5241 17.4602Z" fill="white" stroke="#A5A5A5" stroke-width="4" stroke-linecap="round" stroke-linejoin="round" stroke-dasharray="8 8"/>
<path d="M43.4861 95.0447C24.6551 82.4887 21.6818 48.759 31.5557 37.6799C34.8141 34.0238 39.3686 37.0226 45.7477 37.4266C50.0436 37.6986 55.7339 34.5547 60.2715 35.8677C69.7622 38.6138 78.7483 42.932 82.908 45.8749C94.8382 64.8257 55.9352 103.345 43.4861 95.0447Z" fill="#D7F5F2"/>
<path d="M262.208 37.6798C252.166 26.4118 219.957 39.4358 210.856 45.8748C198.925 64.8257 237.829 103.345 250.278 95.0447C269.109 82.4886 272.082 48.7589 262.208 37.6798Z" fill="#D7F5F2"/>
<path d="M147.315 28.4624C245.025 28.683 261.148 105.997 261.415 160.604C261.47 171.857 271.271 187.75 266.199 208.75C257.186 246.064 181.611 262.121 147.106 260.998C112.601 262.121 37.0251 246.064 28.0122 208.75C22.9399 187.75 32.74 171.857 32.795 160.604C33.062 105.997 49.1854 28.6828 146.896 28.4624V28.4604C146.965 28.4604 147.035 28.4614 147.104 28.4614C147.175 28.4614 147.245 28.4604 147.315 28.4604V28.4624Z" fill="#D7F5F2"/>
<path d="M58.4467 31.745C53.0401 30.3721 47.4025 29.5152 42.3354 29.8066C37.3103 30.0955 32.3285 31.5526 28.9428 35.3515C26.231 38.3945 24.4858 42.5662 23.5132 47.0898C22.5321 51.6525 22.2847 56.8097 22.7573 62.0663C23.2793 67.8727 24.6879 73.9016 27.0483 79.5019C30.1167 86.7817 34.8683 93.5048 41.5454 97.9569C44.018 99.6054 46.9202 99.9313 49.7036 99.5624C52.4759 99.1949 55.3745 98.1148 58.2046 96.6269C63.8711 93.6475 69.8476 88.7227 74.9497 83.0107C80.0506 77.2999 84.4752 70.5802 86.8335 63.8817C89.1774 57.2242 89.6538 50.0192 85.8706 44.0097L85.7749 43.8661C85.5444 43.5372 85.2587 43.25 84.9301 43.0175C79.9567 39.499 69.2128 34.479 58.4467 31.745ZM42.7378 36.7948C46.8184 36.5603 51.685 37.2499 56.7231 38.5292C66.3856 40.9828 75.8544 45.3868 80.2866 48.3222C82.1311 51.7266 82.106 56.2318 80.2309 61.5575C78.2613 67.152 74.4186 73.0972 69.729 78.3476C65.0405 83.5965 59.7029 87.9299 54.9468 90.4306C52.5656 91.6825 50.475 92.3987 48.7837 92.623C47.1039 92.8456 46.0675 92.559 45.4282 92.1327C40.1815 88.6344 36.188 83.1617 33.4995 76.7831C31.4412 71.8998 30.1914 66.5828 29.729 61.4394C29.3096 56.7743 29.5446 52.3338 30.3559 48.5605C31.1757 44.7482 32.5332 41.8447 34.1694 40.0087C35.8048 38.1736 38.6151 37.0318 42.7378 36.7948Z" fill="black"/>
<path d="M235.318 31.745C240.725 30.3721 246.362 29.5152 251.429 29.8066C256.454 30.0955 261.436 31.5526 264.822 35.3515C267.892 38.7969 269.735 43.7001 270.611 48.9784C271.496 54.3146 271.447 60.3487 270.461 66.373C268.508 78.3117 262.731 90.948 252.219 97.9569C249.747 99.6054 246.844 99.9313 244.061 99.5624C241.289 99.1949 238.39 98.1148 235.56 96.6269C229.894 93.6475 223.917 88.7227 218.815 83.0107C213.714 77.2999 209.289 70.5802 206.931 63.8817C204.587 57.2242 204.111 50.0192 207.894 44.0097L207.99 43.8661C208.22 43.5372 208.506 43.25 208.835 43.0175C213.808 39.499 224.552 34.479 235.318 31.745ZM251.027 36.7948C246.946 36.5603 242.08 37.2499 237.042 38.5292C227.379 40.9828 217.91 45.3868 213.478 48.3222C211.634 51.7266 211.659 56.2318 213.534 61.5575C215.503 67.152 219.346 73.0972 224.036 78.3476C228.724 83.5965 234.062 87.9299 238.818 90.4306C241.199 91.6825 243.29 92.3987 244.981 92.623C246.661 92.8456 247.697 92.559 248.336 92.1327C256.656 86.5857 261.781 76.0779 263.553 65.2431C264.431 59.8807 264.451 54.6203 263.706 50.1239C262.95 45.5699 261.462 42.1028 259.595 40.0087C257.96 38.1736 255.15 37.0318 251.027 36.7948Z" fill="black"/>
<path d="M103.325 172.897C103.325 179.12 98.6799 184.165 92.9504 184.165C87.2208 184.165 82.5762 179.12 82.5762 172.897C82.5762 166.674 87.2208 161.629 92.9504 161.629C98.6799 161.629 103.325 166.674 103.325 172.897Z" fill="#474847"/>
<path d="M212.253 172.897C212.253 179.12 207.609 184.165 201.879 184.165C196.15 184.165 191.505 179.12 191.505 172.897C191.505 166.674 196.15 161.629 201.879 161.629C207.609 161.629 212.253 166.674 212.253 172.897Z" fill="#474847"/>
<path d="M147.316 28.4624C245.026 28.6829 261.149 105.997 261.416 160.604C261.471 171.856 271.272 187.75 266.199 208.75C257.187 246.063 181.611 262.121 147.106 260.998C112.6 262.12 37.0247 246.063 28.0119 208.75C22.9399 187.75 32.7411 171.856 32.7961 160.604C33.0631 105.997 49.1863 28.6826 146.897 28.4624V28.4604C146.966 28.4604 147.036 28.4613 147.106 28.4614C147.176 28.4613 147.246 28.4604 147.316 28.4604V28.4624Z" fill="#D7F5F2"/>
<path d="M99.1752 255.871C99.5902 193.589 54.7391 171.872 32.2617 168.799C27.0746 176.653 24.5932 203.116 28.6307 211.311C37.9675 230.262 49.3791 240.505 99.1752 255.871Z" fill="#FFD9D9"/>
<path d="M194.687 255.871C194.272 193.589 239.123 171.872 261.601 168.799C266.788 176.653 269.269 203.116 265.232 211.311C255.895 230.262 244.483 240.505 194.687 255.871Z" fill="#FFD9D9"/>
<path d="M243.036 77.6069C244.746 76.7059 246.863 77.3616 247.764 79.0718C261.312 104.785 264.793 135.298 264.917 160.587C264.928 162.954 265.459 165.711 266.297 169.075C267.091 172.264 268.231 176.238 269.143 180.245C271.026 188.511 272.315 198.335 269.601 209.572C266.005 224.46 253.057 235.758 237.341 244.018C221.522 252.332 202.158 257.968 184.323 261.198C166.25 265.373 137.252 266.146 109.964 261.212C92.1082 257.984 72.7124 252.343 56.8718 244.018C41.1556 235.758 28.2074 224.46 24.611 209.572C21.8968 198.335 23.1866 188.511 25.069 180.245C25.9815 176.238 27.121 172.264 27.9157 169.075C28.7537 165.711 29.284 162.954 29.2956 160.587C29.4192 135.298 32.9004 104.785 46.4479 79.0718C47.349 77.3616 49.4663 76.7059 51.1765 77.6069C52.8863 78.508 53.542 80.6245 52.6413 82.3345C39.8633 106.587 36.417 135.778 36.2956 160.622C36.2796 163.881 35.5642 167.33 34.7077 170.767C33.808 174.378 32.8046 177.801 31.8942 181.799C30.1309 189.543 29.0568 198.166 31.4147 207.928C34.2932 219.845 44.995 229.868 60.1286 237.822C75.1378 245.71 93.7919 251.175 111.21 254.324C137.77 259.125 165.845 258.303 182.834 254.359L183.003 254.324C200.42 251.175 219.074 245.71 234.084 237.822C249.217 229.868 259.919 219.845 262.798 207.928C265.156 198.166 264.081 189.543 262.318 181.799C261.408 177.801 260.404 174.378 259.505 170.767C258.648 167.33 257.933 163.881 257.917 160.622C257.795 135.778 254.349 106.587 241.571 82.3345C240.67 80.6244 241.326 78.508 243.036 77.6069ZM147.407 24.9634C179.988 25.0513 204.004 33.5625 221.515 47.2114C223.04 48.3997 223.312 50.599 222.124 52.1235C220.935 53.6481 218.736 53.9212 217.212 52.7329C201.124 40.1939 178.672 32.0332 147.308 31.9624C147.288 31.9624 147.268 31.9608 147.248 31.9604C147.186 31.9606 147.325 31.9612 147.109 31.9614H147.101C146.879 31.9612 147.03 31.9606 146.964 31.9604C146.944 31.9608 146.924 31.9624 146.904 31.9624C115.54 32.0332 93.088 40.1939 77.0007 52.7329C75.4761 53.9212 73.2769 53.6481 72.0886 52.1235C70.9003 50.5989 71.1724 48.3997 72.697 47.2114C90.2082 33.5626 114.223 25.0514 146.804 24.9634C146.835 24.9626 146.865 24.9605 146.896 24.9604C146.945 24.9604 146.991 24.9612 147.025 24.9614H147.186C147.22 24.9612 147.267 24.9604 147.316 24.9604C147.346 24.9605 147.377 24.9626 147.407 24.9634Z" fill="black"/>
<path d="M112.206 181.092C112.206 187.315 107.431 192.36 101.541 192.36C95.6509 192.36 90.876 187.315 90.876 181.092C90.876 174.869 95.6509 169.824 101.541 169.824C107.431 169.824 112.206 174.869 112.206 181.092Z" fill="#474847"/>
<path d="M204.536 181.092C204.536 187.315 199.761 192.36 193.871 192.36C187.981 192.36 183.206 187.315 183.206 181.092C183.206 174.869 187.981 169.824 193.871 169.824C199.761 169.824 204.536 174.869 204.536 181.092Z" fill="#474847"/>
<path d="M117.864 195.945C117.449 187.75 125.299 183.994 129.276 183.141C146.29 179.453 161.609 181.604 167.142 183.141C171.983 184.336 176.997 188.57 176.997 195.945C176.997 205.165 168.179 212.847 148.468 212.847C128.757 212.847 118.383 206.189 117.864 195.945Z" fill="#BDE6E3"/>
<path d="M173.497 195.945C173.497 190.484 169.897 187.426 166.303 186.539C166.27 186.531 166.237 186.521 166.205 186.512C161.164 185.112 146.422 183.006 130.018 186.561L130.011 186.562C128.471 186.893 126.083 187.83 124.205 189.444C122.418 190.981 121.22 192.99 121.36 195.768C121.552 199.545 123.479 202.768 127.714 205.203C132.099 207.724 138.933 209.347 148.468 209.347C157.934 209.347 164.308 207.493 168.2 204.93C171.967 202.451 173.497 199.283 173.497 195.945ZM180.497 195.945C180.497 201.827 177.619 207.11 172.049 210.777C166.605 214.361 158.713 216.347 148.468 216.347C138.292 216.347 130.084 214.641 124.225 211.272C118.215 207.817 114.697 202.589 114.369 196.122C114.095 190.705 116.614 186.739 119.642 184.136C122.576 181.612 126.097 180.245 128.534 179.72C146.156 175.901 162.054 178.095 168.078 179.768L168.077 179.769C174.136 181.306 180.497 186.705 180.497 195.945Z" fill="black"/>
<path d="M139.635 197.994C139.635 200.54 138.241 202.604 136.522 202.604C134.804 202.604 133.41 200.54 133.41 197.994C133.41 195.448 134.804 193.384 136.522 193.384C138.241 193.384 139.635 195.448 139.635 197.994Z" fill="#474847"/>
<path d="M162.458 197.994C162.458 200.54 161.065 202.604 159.346 202.604C157.627 202.604 156.233 200.54 156.233 197.994C156.233 195.448 157.627 193.384 159.346 193.384C161.065 193.384 162.458 195.448 162.458 197.994Z" fill="#474847"/>
</svg>
