<svg width="420" height="420" viewBox="0 0 420 420" fill="none" xmlns="http://www.w3.org/2000/svg">
<path d="M201.306 76.6525C217.015 76.6525 244.216 60.2175 255.852 52C275.052 52 279.852 86.3641 279.852 103.546C292.943 111.017 321.307 133.577 330.034 164.057C434.762 197.674 395.489 267.149 354.034 294.043C330.034 368 231.852 368 210.034 368C188.215 368 100.941 368 72.5775 303.007C-19.0593 258.184 35.4874 175.262 83.4876 164.057C94.3967 105.787 181.67 76.6525 201.306 76.6525Z" fill="white" stroke="#A5A5A5" stroke-width="4" stroke-linecap="round" stroke-linejoin="round" stroke-dasharray="8 8"/>
<path d="M57.6556 206.174C65.2107 197.315 94.0374 186.263 111.71 203.678C137.162 228.757 124.036 257.657 117.273 264.686L117.277 264.69C117.238 264.729 117.196 264.766 117.156 264.806C117.116 264.846 117.078 264.887 117.038 264.925L117.034 264.921C109.901 271.586 80.5731 284.52 55.122 259.44C37.449 242.025 48.6651 213.619 57.6556 206.174Z" fill="#888886"/>
<path d="M357.042 205.313C366.014 212.852 377.206 241.617 359.57 259.253C334.173 284.65 304.908 271.552 297.79 264.803L297.786 264.808C297.746 264.768 297.708 264.727 297.669 264.686C297.628 264.646 297.586 264.609 297.547 264.569L297.552 264.565C290.803 257.447 277.705 228.181 303.102 202.784C320.738 185.149 349.503 196.341 357.042 205.313Z" fill="#888886"/>
<path d="M349.908 216.486C356.636 222.141 365.031 243.715 351.804 256.941C332.756 275.989 310.807 266.166 305.469 261.104L305.465 261.108C305.436 261.078 305.408 261.047 305.378 261.016C305.347 260.987 305.316 260.958 305.287 260.929L305.29 260.925C300.228 255.587 290.405 233.638 309.453 214.59C322.68 201.364 344.254 209.758 349.908 216.486Z" fill="#F8EFE6"/>
<path d="M68.8046 216.486C62.076 222.141 53.6818 243.715 66.9083 256.941C85.9561 275.989 107.905 266.166 113.244 261.104L113.247 261.108C113.276 261.078 113.305 261.047 113.335 261.016C113.365 260.987 113.396 260.958 113.426 260.929L113.422 260.925C118.484 255.587 128.307 233.638 109.259 214.59C96.0329 201.364 74.4588 209.758 68.8046 216.486Z" fill="#F8EFE6"/>
<path d="M209.764 114.706C304.865 114.923 320.558 191.132 320.818 244.959C320.871 256.05 330.411 271.716 325.474 292.416C316.702 329.196 243.144 345.024 209.559 343.917C175.976 345.024 102.418 329.196 93.6452 292.416C88.7083 271.716 98.2468 256.05 98.3003 244.959C98.5602 191.132 114.253 114.923 209.355 114.706V114.704C209.423 114.704 209.491 114.705 209.559 114.705C209.627 114.705 209.695 114.704 209.764 114.704V114.706Z" fill="#888886"/>
<path d="M349.857 264.057C359.501 258.489 363.729 248.803 364.689 238.979C365.665 228.991 363.173 219.711 360.389 215.73C360.274 215.564 360.173 215.389 360.087 215.206C358.031 210.805 351.24 204.007 342.102 199.858C333.114 195.777 322.612 194.596 312.968 200.164L312.348 200.526C299.449 208.176 293.421 218.208 290.983 227.603C290.498 229.473 288.587 230.597 286.716 230.111C284.845 229.626 283.721 227.715 284.207 225.844C287.088 214.742 294.218 203.143 308.769 194.51L309.468 194.101C321.671 187.056 334.681 188.8 344.996 193.484C355.016 198.033 363.226 205.683 366.295 211.97C370.206 217.772 372.726 228.707 371.656 239.66C370.554 250.935 365.56 263.074 353.357 270.12C338.335 278.793 324.467 279.229 313.236 276.124C311.373 275.609 310.28 273.681 310.795 271.819C311.31 269.955 313.239 268.862 315.102 269.377C324.605 272.004 336.53 271.752 349.857 264.057Z" fill="black"/>
<path d="M341.408 233.975C329.847 231.307 318.613 235.043 314.263 237.312C312.55 238.206 311.885 240.32 312.779 242.034C313.673 243.747 315.788 244.412 317.501 243.518C320.893 241.749 330.392 238.618 339.833 240.796C341.717 241.231 343.596 240.056 344.031 238.172C344.465 236.289 343.291 234.41 341.408 233.975Z" fill="black"/>
<path d="M72.7613 233.975C84.322 231.307 95.556 235.043 99.9058 237.312C101.619 238.206 102.284 240.32 101.39 242.034C100.496 243.747 98.3813 244.412 96.6675 243.518C93.276 241.749 83.7769 238.618 74.3355 240.796C72.452 241.231 70.5729 240.056 70.1382 238.172C69.7038 236.289 70.8779 234.41 72.7613 233.975Z" fill="black"/>
<path d="M64.6459 264.057C55.0021 258.489 50.7743 248.803 49.8143 238.979C48.8384 228.991 51.3303 219.711 54.1136 215.73C54.2293 215.564 54.3304 215.389 54.4158 215.206C56.4719 210.805 63.2628 204.007 72.4007 199.858C81.3888 195.777 91.8911 194.596 101.535 200.164L102.155 200.526C115.054 208.176 121.082 218.208 123.52 227.603C124.005 229.473 125.916 230.597 127.787 230.111C129.658 229.626 130.782 227.715 130.296 225.844C127.415 214.742 120.285 203.143 105.734 194.51L105.035 194.101C92.8315 187.056 79.8224 188.8 69.5067 193.484C59.4867 198.033 51.2771 205.683 48.2079 211.97C44.2968 217.772 41.7769 228.707 42.8471 239.66C43.9488 250.935 48.9425 263.074 61.1459 270.12C76.168 278.793 90.036 279.229 101.267 276.124C103.13 275.609 104.223 273.681 103.708 271.819C103.193 269.955 101.264 268.862 99.4011 269.377C89.8977 272.004 77.9726 271.752 64.6459 264.057Z" fill="black"/>
<path d="M209.764 114.706C304.866 114.923 320.559 191.132 320.819 244.959C320.873 256.05 330.411 271.717 325.474 292.416C316.702 329.197 243.14 345.025 209.557 343.917C175.972 345.023 102.417 329.195 93.645 292.416C88.7082 271.717 98.2476 256.05 98.3013 244.959C98.5611 191.132 114.254 114.923 209.356 114.706V114.704C209.424 114.704 209.491 114.705 209.559 114.705C209.627 114.705 209.696 114.704 209.764 114.704V114.706Z" fill="#F8EFE6"/>
<path d="M207.337 210.123C156.346 171.249 122.52 233.347 111.413 260.104C100.306 299.484 122.52 315.135 140.19 333.31C78.092 310.086 91.2184 267.677 98.2865 248.998C96.7719 231.832 102.325 107.131 207.337 113.694C216.872 114.29 227.531 113.694 248.917 93.4998C255.804 107.131 250.755 113.694 248.917 120.762C314.377 140.894 319.648 197.664 320.931 248.998C338.601 300.998 303.261 326.242 273.474 333.31C320.426 314.63 306.29 269.192 303.261 256.57C300.232 243.949 260.852 164.685 207.337 210.123Z" fill="#888886"/>
<path d="M162.909 338.863C163.313 277.472 119.659 256.066 97.7816 253.036C92.733 260.778 90.3178 286.862 94.2475 294.94C103.335 313.62 114.442 323.717 162.909 338.863Z" fill="#E8B2B4"/>
<path d="M255.872 338.863C255.468 277.472 299.122 256.066 320.999 253.036C326.048 260.778 328.463 286.862 324.533 294.94C315.446 313.62 304.339 323.717 255.872 338.863Z" fill="#E8B2B4"/>
<path d="M246.324 90.9627C247.151 90.1767 248.315 89.84 249.442 90.072C250.643 90.3196 251.628 91.1778 252.036 92.3347C253.599 96.761 255.101 102.152 255.446 107.371C255.681 110.904 255.4 114.657 254.013 118.011C282.91 127.984 300.378 147.882 310.635 170.828C321.332 194.758 324.208 222.014 324.319 244.942C324.33 247.274 324.846 249.992 325.661 253.306C326.435 256.45 327.545 260.367 328.433 264.316C330.265 272.465 331.52 282.149 328.878 293.227C325.375 307.914 312.759 319.065 297.445 327.216C282.056 335.406 263.226 340.96 245.878 344.148C217.696 351.754 185.901 347.343 173.279 344.155C155.92 340.968 137.075 335.412 121.675 327.216C106.361 319.065 93.7432 307.914 90.2404 293.227C87.5983 282.149 88.8544 272.465 90.6867 264.316C91.5748 260.367 92.6839 256.45 93.4572 253.306C94.2727 249.992 94.7897 247.274 94.801 244.942C94.9319 217.813 98.9327 184.526 115.279 157.898C131.792 131.001 160.633 111.342 209.253 111.206C209.287 111.205 209.321 111.204 209.356 111.204C209.403 111.204 209.449 111.205 209.482 111.205H209.637C209.67 111.205 209.716 111.204 209.764 111.204C209.784 111.204 209.805 111.204 209.825 111.205C212.903 111.208 217.583 110.866 223.613 108.276C229.707 105.659 237.352 100.672 246.163 91.1257L246.324 90.9627ZM247.132 100.164C239.429 107.656 232.439 112.104 226.376 114.708C219.207 117.787 213.508 118.214 209.756 118.206C209.736 118.206 209.716 118.204 209.695 118.204C209.636 118.204 209.782 118.205 209.564 118.205H209.556C209.337 118.205 209.485 118.204 209.423 118.204C209.403 118.204 209.383 118.206 209.363 118.206C162.938 118.312 136.409 136.86 121.245 161.56C105.905 186.548 101.93 218.279 101.801 244.975C101.785 248.19 101.089 251.589 100.255 254.978C99.3791 258.539 98.4019 261.911 97.5158 265.852C95.7998 273.484 94.7555 281.983 97.05 291.603C99.849 303.339 110.251 313.205 124.963 321.036C139.102 328.561 156.571 333.849 173.054 336.993L174.646 337.29L174.878 337.342C186.783 340.371 217.465 344.609 244.188 337.355L244.474 337.29C261.418 334.188 279.56 328.804 294.155 321.036C308.868 313.205 319.27 303.339 322.07 291.603C324.364 281.983 323.319 273.484 321.603 265.852C320.717 261.911 319.74 258.539 318.864 254.978C318.031 251.589 317.334 248.19 317.319 244.975C317.21 222.479 314.371 196.339 304.244 173.685C294.174 151.156 276.92 132.09 247.731 123.341C246.588 122.998 245.698 122.096 245.37 120.949C245.043 119.802 245.322 118.566 246.112 117.672C247.985 115.548 248.751 112.21 248.461 107.834C248.297 105.349 247.802 102.732 247.132 100.164Z" fill="black"/>
<path d="M174.582 265.153C174.582 271.287 169.935 276.26 164.202 276.26C158.469 276.26 153.821 271.287 153.821 265.153C153.821 259.019 158.469 254.046 164.202 254.046C169.935 254.046 174.582 259.019 174.582 265.153Z" fill="black"/>
<path d="M264.447 265.153C264.447 271.287 259.8 276.26 254.067 276.26C248.334 276.26 243.687 271.287 243.687 265.153C243.687 259.019 248.334 254.046 254.067 254.046C259.8 254.046 264.447 259.019 264.447 265.153Z" fill="black"/>
<path d="M188.244 275.395C190.061 274.928 191.91 275.976 192.458 277.749C192.466 277.768 192.484 277.806 192.514 277.861C192.602 278.017 192.8 278.315 193.19 278.649C193.919 279.272 195.69 280.333 199.625 280.333C203.56 280.333 205.332 279.272 206.06 278.649C206.45 278.315 206.648 278.017 206.736 277.861C206.777 277.787 206.795 277.743 206.798 277.738C206.796 277.74 206.791 277.754 206.783 277.781C206.778 277.795 206.773 277.813 206.766 277.835C206.763 277.846 206.76 277.858 206.757 277.871C206.755 277.878 206.752 277.884 206.751 277.891C206.75 277.894 206.749 277.898 206.748 277.902C206.747 277.903 206.747 277.906 206.747 277.907V277.908C207.11 276.503 208.303 275.468 209.746 275.306C211.187 275.145 212.578 275.889 213.244 277.177C213.243 277.175 213.242 277.172 213.241 277.17C213.239 277.166 213.236 277.161 213.234 277.157C213.23 277.15 213.226 277.143 213.223 277.138C213.217 277.127 213.213 277.119 213.212 277.116C213.208 277.111 213.215 277.12 213.229 277.144C213.259 277.191 213.324 277.292 213.43 277.429C213.643 277.703 214.009 278.113 214.558 278.536C215.614 279.35 217.497 280.333 220.645 280.333C223.793 280.333 225.676 279.35 226.732 278.536C227.281 278.113 227.647 277.703 227.86 277.429C227.966 277.292 228.032 277.191 228.062 277.144C228.077 277.121 228.082 277.111 228.079 277.116C228.077 277.119 228.073 277.127 228.067 277.138C228.064 277.143 228.06 277.15 228.056 277.157C228.054 277.161 228.052 277.166 228.049 277.17C228.048 277.172 228.048 277.175 228.047 277.177C228.932 275.463 231.039 274.789 232.756 275.671C234.475 276.555 235.152 278.665 234.268 280.384L231.155 278.784C234.152 280.325 234.263 280.384 234.266 280.388C234.266 280.389 234.265 280.391 234.264 280.392C234.263 280.395 234.261 280.398 234.259 280.401C234.257 280.406 234.254 280.412 234.251 280.418C234.244 280.431 234.236 280.445 234.228 280.46C234.212 280.491 234.192 280.526 234.17 280.566C234.124 280.645 234.066 280.744 233.995 280.859C233.852 281.087 233.653 281.381 233.392 281.718C232.871 282.39 232.093 283.243 231.005 284.081C228.784 285.792 225.412 287.333 220.645 287.333C215.946 287.333 212.604 285.834 210.382 284.153C208.151 285.962 204.728 287.333 199.625 287.333C194.347 287.333 190.864 285.87 188.64 283.969C187.555 283.041 186.852 282.077 186.409 281.286C186.188 280.893 186.032 280.544 185.924 280.266C185.871 280.127 185.829 280.004 185.797 279.902C185.78 279.85 185.766 279.804 185.755 279.763C185.749 279.742 185.743 279.723 185.738 279.705C185.736 279.696 185.733 279.687 185.731 279.679C185.73 279.675 185.729 279.671 185.728 279.667C185.728 279.665 185.726 279.662 185.726 279.661C185.726 279.658 185.748 279.65 189.115 278.784L185.725 279.656C185.244 277.783 186.372 275.876 188.244 275.395ZM192.503 277.908C192.502 277.908 192.502 277.903 192.502 277.902C192.501 277.898 192.5 277.894 192.499 277.891C192.497 277.884 192.496 277.878 192.494 277.871C192.49 277.858 192.487 277.846 192.484 277.835C192.478 277.813 192.472 277.795 192.467 277.781C192.466 277.777 192.465 277.774 192.465 277.772C192.478 277.817 192.491 277.862 192.503 277.908Z" fill="black"/>
<path d="M204.083 272.079C209.121 274.98 210.572 274.942 214.962 272.079C220.496 268.47 213.816 266.163 209.809 266.163C205.801 266.163 199.045 269.178 204.083 272.079Z" fill="black"/>
</svg>
