<svg width="420" height="420" viewBox="0 0 420 420" fill="none" xmlns="http://www.w3.org/2000/svg">
<path d="M67.6613 79.3985C96.0613 40.9985 136.495 63.3985 153.161 79.3985C189.162 59.3986 238.161 54.8984 276.161 79.3985C303.161 32.3985 350.661 62.3985 365.161 93.3985C379.661 124.398 369.161 160.399 350.661 169.399C360.261 184.599 351.994 216.732 350.661 230.898C354.161 234.065 358.761 238.498 365.161 248.898C373.161 261.898 361.161 275.898 361.161 285.898C361.161 295.898 365.161 325.898 330.661 331.398C233.661 395.398 131.661 349.898 94.1611 331.398C58.1611 319.898 63.1611 305.898 63.1611 296.398C63.1611 286.898 55.6611 275.898 51.6611 265.898C47.6611 255.898 54.6611 248.898 67.6613 230.898C67.6613 208.398 71.6611 188.898 77.1611 169.399C54.1611 166.899 32.1613 127.398 67.6613 79.3985Z" fill="white" stroke="#A5A5A5" stroke-width="4" stroke-linecap="round" stroke-linejoin="round" stroke-dasharray="8 8"/>
<path d="M339.177 95.5561C346.463 102.08 357.404 122.941 343.424 144.45C323.528 162.195 296.838 152.878 291.057 147.037L291.053 147.041C291.022 147.007 290.991 146.972 290.959 146.936C290.926 146.902 290.892 146.869 290.86 146.835L290.864 146.831C285.383 140.672 274.746 115.346 295.371 93.3682C308.493 79.3864 333.055 87.7924 339.177 95.5561Z" fill="#888886"/>
<path d="M87.8876 96.0294C75.6397 106.272 69.7544 130.098 84.7809 146.063C103.063 162.195 132.309 155.997 138.374 149.887L138.378 149.891C138.411 149.855 138.444 149.818 138.477 149.781C138.512 149.745 138.548 149.711 138.581 149.675L138.577 149.671C144.328 143.227 156.966 119.022 135.326 96.0294C120.3 80.0638 97.1484 85.839 87.8876 96.0294Z" fill="#888886"/>
<path d="M93.0135 147.341C84.8402 142.622 81.2323 134.405 80.4111 126.001C79.5739 117.434 81.7233 109.525 84.0494 106.198C84.1651 106.032 84.2662 105.857 84.3517 105.674C86.0701 101.996 91.8446 96.1803 99.6831 92.6214C107.372 89.1305 116.292 88.1465 124.465 92.8654L125.518 93.4899C136.21 100.003 141.223 108.433 143.27 116.32C143.755 118.191 145.666 119.315 147.537 118.829C149.408 118.343 150.531 116.433 150.046 114.563C147.523 104.84 141.278 94.6962 128.575 87.1597L127.965 86.8033C117.232 80.6066 105.806 82.1549 96.7895 86.2485C88.0666 90.2089 80.8726 96.8765 78.1437 102.438C74.6911 107.582 72.5135 117.147 73.4452 126.682C74.4081 136.537 78.7805 147.207 89.5135 153.403C102.627 160.975 114.759 161.365 124.594 158.646C126.457 158.131 127.55 156.203 127.035 154.34C126.52 152.477 124.591 151.384 122.728 151.899C114.621 154.14 104.432 153.934 93.0135 147.341Z" fill="black"/>
<path d="M335.801 146.115C343.135 141.881 346.268 134.104 346.765 125.845C347.268 117.476 344.985 109.59 342.632 106.177C342.526 106.024 342.432 105.861 342.352 105.693C340.573 101.949 334.886 96.0284 327.386 92.2793C319.985 88.5797 311.684 87.4052 304.349 91.6393L303.391 92.2083C293.671 98.1541 289.269 106.146 287.609 113.785C287.199 115.674 285.335 116.873 283.446 116.463C281.557 116.052 280.359 114.188 280.769 112.299C282.829 102.819 288.416 92.9654 300.279 85.9111L300.849 85.5771C310.967 79.7359 321.922 81.7229 330.515 86.0183C338.88 90.1997 345.837 96.9645 348.55 102.437C351.933 107.523 354.313 116.93 353.752 126.266C353.175 135.855 349.419 146.336 339.301 152.177C327.047 159.253 315.506 159.209 306.119 156.206C304.278 155.617 303.263 153.647 303.852 151.806C304.441 149.966 306.411 148.951 308.252 149.54C315.938 151.999 325.411 152.114 335.801 146.115Z" fill="black"/>
<path d="M168.127 243.39C168.127 249.923 163.312 255.22 157.373 255.22C151.433 255.22 146.618 249.923 146.618 243.39C146.618 236.857 151.433 231.56 157.373 231.56C163.312 231.56 168.127 236.857 168.127 243.39Z" fill="black"/>
<path d="M281.048 243.39C281.048 249.923 276.233 255.22 270.293 255.22C264.354 255.22 259.539 249.923 259.539 243.39C259.539 236.857 264.354 231.56 270.293 231.56C276.233 231.56 281.048 236.857 281.048 243.39Z" fill="black"/>
<path d="M212.797 91.7539V91.756C179.63 91.8317 155.532 100.585 138.109 114.338C127.829 121.145 116.338 138.683 111.877 146.601C98.2322 172.829 94.6415 204.169 94.5144 230.485C94.4883 235.899 92.3406 242.335 90.5274 249.843C89.6756 253.369 80.4296 257.131 79.9801 261.135C79.2982 267.206 87.8397 273.833 89.5563 281.03C90.7286 285.945 86.4318 294.016 89.5563 298.237C92.3306 301.985 102.343 301.956 106.328 305.169C123.553 319.056 150.648 328.005 175.156 332.492C187.276 334.948 219.387 338.387 250.872 332.492C275.381 328.005 302.475 319.056 319.7 305.169C322.413 302.981 333.485 300.672 335.659 298.237C340.277 293.068 334.967 287.339 336.472 281.03C338.189 273.833 345.79 267.206 345.108 261.135C344.659 257.131 336.353 253.369 335.501 249.843C333.688 242.335 331.54 235.899 331.514 230.485C331.387 204.169 327.796 172.829 314.151 146.601C309.712 136.777 294.813 120.999 287.919 114.338C270.497 100.585 246.398 91.8318 213.232 91.756V91.7539C213.159 91.7539 213.086 91.7549 213.013 91.755C212.941 91.7549 212.869 91.7539 212.797 91.7539Z" fill="#888886"/>
<path d="M165.976 330.5C166.406 265.114 119.912 242.315 96.6106 239.088C93.6989 243.553 90.158 252.531 79.9415 260.597C78.7881 268.996 88.239 275.472 90.158 279.417C92.555 284.344 86.6775 292.738 90.158 297.162C93.2843 301.135 98.3323 301.987 104.139 305.228C117.971 312.948 138.015 323.51 165.976 330.5Z" fill="#E8B2B4"/>
<path d="M260.52 330.5C260.09 265.114 306.585 242.315 329.886 239.088C332.798 243.553 336.339 252.531 346.555 260.597C347.708 268.996 338.258 275.472 336.339 279.417C333.942 284.344 339.819 292.738 336.339 297.162C333.212 301.135 328.164 301.987 322.358 305.228C308.525 312.948 288.482 323.51 260.52 330.5Z" fill="#E8B2B4"/>
<path d="M195.551 93.9042C208.886 90.0328 219.031 92.2911 222.437 93.9042C222.8 97.8816 223.132 102.439 223.392 107.324C232.94 106.977 245.772 108.574 245.806 117.002C245.84 125.353 233.362 126.488 223.925 125.795C223.933 128.934 223.897 132.082 223.804 135.19C232.358 135.528 241.41 137.788 241.438 144.864C241.468 152.401 231.31 154.061 222.391 153.805C220.605 166.933 217.044 176.534 210.607 176.713C204.087 176.894 200.133 167.169 197.849 153.772C188.742 154.157 177.933 152.638 177.963 144.864C177.992 137.74 187.167 135.498 195.772 135.183C195.566 132.105 195.411 128.986 195.301 125.875C186.05 126.375 174.639 124.989 174.671 117.002C174.703 109.14 185.873 107.222 195.123 107.281C195.193 102.419 195.346 97.8783 195.551 93.9042Z" fill="black"/>
<path d="M132.638 248.767C135.649 241.884 108.082 238.013 93.9221 236.938L90.6958 246.616C103.422 250.201 129.627 255.65 132.638 248.767Z" fill="black"/>
<path d="M129.887 275.061C130.45 267.57 103.156 273.044 89.4384 276.718L89.5988 286.919C102.794 286.088 129.325 282.553 129.887 275.061Z" fill="black"/>
<path d="M293.106 248.767C290.095 241.884 317.662 238.013 331.822 236.938L335.048 246.616C322.322 250.201 296.117 255.65 293.106 248.767Z" fill="black"/>
<path d="M295.856 275.061C295.294 267.57 322.588 273.044 336.305 276.718L336.145 286.919C322.95 286.088 296.419 282.553 295.856 275.061Z" fill="black"/>
<path d="M312.535 143.496C314.25 142.604 316.364 143.271 317.256 144.985C331.278 171.939 334.886 203.933 335.014 230.468C335.025 232.762 335.491 235.408 336.242 238.569C336.615 240.136 337.044 241.774 337.503 243.525C337.959 245.264 338.441 247.106 338.903 249.021C338.877 248.911 338.95 249.228 339.781 250.064C340.546 250.834 341.516 251.629 342.707 252.63C343.811 253.558 345.111 254.669 346.163 255.863C347.173 257.01 348.353 258.666 348.586 260.744C348.845 263.054 348.296 265.22 347.531 267.107C346.771 268.984 345.697 270.819 344.675 272.488C342.482 276.07 340.572 278.929 339.877 281.842C339.353 284.04 339.999 285.978 340.668 289.388C341.281 292.516 341.725 296.702 338.27 300.569C337.146 301.827 335.352 302.682 334.007 303.258C332.484 303.91 330.692 304.534 329.014 305.107C327.28 305.7 325.665 306.24 324.295 306.77C322.81 307.344 322.096 307.733 321.897 307.894C304.012 322.313 276.266 331.393 251.566 335.922C242.862 337.91 227.531 339.004 212.605 339.077C197.792 339.15 182.666 338.223 174.373 335.905C149.696 331.371 121.995 322.296 104.132 307.894C103.635 307.493 102.746 307.051 101.322 306.582C99.9214 306.121 98.3693 305.745 96.6153 305.293C94.9511 304.864 93.0954 304.364 91.4513 303.685C89.8548 303.025 88.0027 302.021 86.7433 300.319C85.3963 298.5 84.9759 296.428 84.9054 294.594C84.8357 292.782 85.0998 290.922 85.3741 289.308C85.672 287.555 85.9617 286.182 86.1388 284.765C86.3122 283.377 86.2969 282.452 86.1515 281.842C85.4816 279.034 83.433 276.228 80.9786 272.635C79.8454 270.976 78.6357 269.139 77.7687 267.258C76.8985 265.37 76.2325 263.145 76.5021 260.744L76.5606 260.338C76.9168 258.339 78.1717 256.784 79.1876 255.738C80.3394 254.553 81.7675 253.45 82.9845 252.524C84.2956 251.527 85.375 250.725 86.2179 249.952C87.1614 249.087 87.1779 248.802 87.1251 249.021C87.5875 247.106 88.07 245.264 88.5255 243.525C88.9842 241.774 89.4137 240.136 89.7862 238.569C90.538 235.408 91.0037 232.762 91.0148 230.468C91.1429 203.933 94.7502 171.939 108.773 144.985C109.665 143.271 111.778 142.604 113.492 143.496C115.207 144.388 115.875 146.502 114.983 148.217C101.715 173.72 98.1407 204.405 98.0148 230.502C97.9997 233.622 97.3777 236.901 96.5958 240.188C96.2016 241.846 95.7526 243.563 95.298 245.299C94.84 247.047 94.3739 248.825 93.9298 250.664C93.4511 252.646 91.9925 254.155 90.9493 255.111C89.805 256.161 88.3849 257.211 87.2218 258.096C85.9647 259.052 84.9429 259.86 84.2081 260.616C83.6193 261.222 83.4785 261.532 83.4542 261.578C83.3965 262.209 83.549 263.076 84.1261 264.328C84.7224 265.622 85.6276 267.029 86.7589 268.686C88.8337 271.723 91.9141 275.829 92.961 280.218C93.4017 282.066 93.2899 283.993 93.0851 285.633C92.8838 287.243 92.5137 289.073 92.2745 290.48C92.0118 292.026 91.8605 293.282 91.9005 294.324C91.9397 295.344 92.1541 295.865 92.3692 296.155C92.4971 296.328 92.9379 296.725 94.1231 297.215C95.261 297.685 96.6778 298.081 98.3614 298.515C99.9553 298.925 101.827 299.378 103.511 299.933C105.172 300.479 107.03 301.238 108.525 302.444C124.558 315.37 149.844 324.045 173.503 328.619L175.787 329.049L175.952 329.084C176.007 329.097 176.062 329.11 176.116 329.126C183.31 331.178 197.639 332.15 212.57 332.077C227.441 332.004 242.188 330.9 250.086 329.081C250.137 329.069 250.189 329.058 250.241 329.049C274.543 324.6 300.954 315.787 317.503 302.444C318.66 301.512 320.348 300.791 321.77 300.241C323.306 299.647 325.104 299.046 326.749 298.483C328.449 297.902 330.004 297.357 331.253 296.822C332.68 296.212 333.086 295.864 333.049 295.905C334.211 294.604 334.31 293.34 333.799 290.734C333.343 288.41 332.087 284.328 333.067 280.218C334.089 275.934 336.838 271.881 338.704 268.833C339.712 267.187 340.518 265.776 341.044 264.478C341.566 263.19 341.712 262.252 341.63 261.525C341.638 261.601 341.611 261.286 340.911 260.491C340.253 259.744 339.338 258.943 338.203 257.989C337.155 257.109 335.862 256.052 334.816 254.999C333.837 254.014 332.551 252.538 332.099 250.664C331.655 248.825 331.188 247.047 330.731 245.299C330.276 243.563 329.827 241.846 329.433 240.188C328.651 236.901 328.029 233.622 328.014 230.502C327.888 204.405 324.314 173.72 311.046 148.217C310.154 146.502 310.821 144.388 312.535 143.496ZM213.322 88.2568C247.087 88.3485 271.96 97.2814 290.088 111.591C291.605 112.788 291.865 114.99 290.667 116.507C289.469 118.024 287.268 118.283 285.751 117.085C269.048 103.9 245.75 95.3302 213.224 95.2559C213.204 95.2558 213.183 95.2543 213.163 95.2539C213.096 95.2541 213.239 95.2546 213.018 95.2549H213.009C212.781 95.2546 212.937 95.2541 212.864 95.2539C212.845 95.2543 212.825 95.2558 212.805 95.2559C180.278 95.3301 156.98 103.901 140.277 117.085C138.76 118.283 136.559 118.024 135.361 116.507C134.164 114.99 134.423 112.788 135.941 111.591C154.068 97.2816 178.941 88.3486 212.705 88.2568C212.736 88.2561 212.766 88.2539 212.797 88.2539C212.847 88.2539 212.895 88.2546 212.93 88.2549H213.098C213.133 88.2546 213.181 88.2539 213.232 88.2539C213.262 88.2539 213.292 88.2561 213.322 88.2568Z" fill="black"/>
<path d="M176.258 251.993C176.258 258.527 171.308 263.823 165.202 263.823C159.096 263.823 154.146 258.527 154.146 251.993C154.146 245.46 159.096 240.164 165.202 240.164C171.308 240.164 176.258 245.46 176.258 251.993Z" fill="black"/>
<path d="M272.445 251.993C272.445 258.527 267.495 263.823 261.389 263.823C255.283 263.823 250.333 258.527 250.333 251.993C250.333 245.46 255.283 240.164 261.389 240.164C267.495 240.164 272.445 245.46 272.445 251.993Z" fill="black"/>
<path d="M178.882 268.125C178.882 259.216 187.686 251.994 198.547 251.994C209.408 251.994 207.457 254.01 213.296 254.01C219.135 254.01 217.184 251.994 228.045 251.994C238.905 251.994 247.71 259.216 247.71 268.125C247.71 277.034 238.905 284.257 228.045 284.257C217.184 284.257 216.983 280.224 213.296 280.224C209.609 280.224 209.408 284.257 198.547 284.257C187.686 284.257 178.882 277.034 178.882 268.125Z" fill="white"/>
<path d="M213.74 273.232C215.929 273.313 217.633 273.987 218.93 274.681C219.516 274.995 220.076 275.345 220.396 275.543C220.775 275.777 221.033 275.934 221.304 276.079C222.021 276.466 223.617 277.256 228.045 277.256V284.256L227.058 284.245C217.168 284.008 216.868 280.224 213.296 280.224C209.609 280.224 209.408 284.256 198.547 284.256V277.256C202.974 277.256 204.571 276.466 205.288 276.079C205.558 275.934 205.817 275.777 206.195 275.543C206.516 275.345 207.075 274.995 207.662 274.681C209.046 273.941 210.891 273.224 213.296 273.224L213.74 273.232ZM240.71 268.125C240.71 264.315 236.4 258.994 228.045 258.994C223.109 258.994 221.628 259.446 220.891 259.678C219.479 260.123 217.474 261.01 213.296 261.01C209.117 261.01 207.111 260.123 205.7 259.678C204.963 259.446 203.482 258.994 198.547 258.994C190.192 258.994 185.882 264.315 185.882 268.125C185.882 271.936 190.192 277.256 198.547 277.256V284.256C187.856 284.256 179.158 277.258 178.889 268.541L178.882 268.125C178.882 259.216 187.686 251.994 198.547 251.994C209.068 251.994 207.566 253.886 212.771 254.004L213.296 254.01C219.135 254.01 217.184 251.994 228.045 251.994L228.552 251.998C239.178 252.219 247.71 259.355 247.71 268.125L247.703 268.541C247.434 277.258 238.736 284.256 228.045 284.256V277.256C236.4 277.256 240.71 271.936 240.71 268.125Z" fill="black"/>
<path d="M206.603 261.521C211.97 264.611 213.515 264.57 218.19 261.521C224.085 257.677 216.97 255.22 212.701 255.22C208.433 255.22 201.237 258.432 206.603 261.521Z" fill="black"/>
</svg>
