<svg width="327" height="314" viewBox="0 0 327 314" fill="none" xmlns="http://www.w3.org/2000/svg">
<path d="M20.5407 26.3985C48.9407 -12.0015 89.374 10.3985 106.041 26.3985C142.041 6.39857 191.04 1.8984 229.04 26.3985C256.04 -20.6015 303.54 9.39846 318.04 40.3985C332.54 71.3985 322.04 107.399 303.54 116.399C313.141 131.599 304.874 163.732 303.54 177.898C307.04 181.065 311.641 185.498 318.04 195.898C326.04 208.898 314.041 222.898 314.041 232.898C314.041 242.898 318.041 272.898 283.541 278.398C186.541 342.398 84.5405 296.898 47.0405 278.398C11.0405 266.898 16.0405 252.898 16.0405 243.398C16.0405 233.898 8.54049 222.898 4.54049 212.898C0.540488 202.898 7.54046 195.898 20.5407 177.898C20.5407 155.398 24.5405 135.898 30.0405 116.399C7.04053 113.899 -14.9593 74.3985 20.5407 26.3985Z" fill="white" stroke="#A5A5A5" stroke-width="4" stroke-linecap="round" stroke-linejoin="round" stroke-dasharray="8 8"/>
<path d="M292.057 42.5561C299.342 49.0801 310.284 69.9415 296.303 91.4501C276.407 109.195 249.717 99.8779 243.937 94.0373L243.933 94.0414C243.901 94.0074 243.87 93.9715 243.838 93.9363C243.805 93.9019 243.771 93.8691 243.739 93.8352L243.743 93.8312C238.262 87.6717 227.625 62.3461 248.251 40.3682C261.372 26.3864 285.934 34.7924 292.057 42.5561Z" fill="#888886"/>
<path d="M40.767 43.0294C28.5191 53.2722 22.6338 77.0977 37.6603 93.0633C55.9427 109.195 85.1886 102.997 91.2534 96.8867L91.2574 96.8909C91.2908 96.8554 91.3231 96.8179 91.3569 96.781C91.3916 96.745 91.427 96.7107 91.4604 96.6752L91.4564 96.671C97.2071 90.2272 109.846 66.0217 88.2058 43.0294C73.1793 27.0638 50.0278 32.839 40.767 43.0294Z" fill="#888886"/>
<path d="M45.8929 94.3413C37.7196 89.6223 34.1117 81.4054 33.2905 73.0014C32.4533 64.4336 34.6027 56.5248 36.9288 53.1976C37.0445 53.0322 37.1456 52.857 37.2311 52.6741C38.9494 48.9961 44.724 43.1803 52.5625 39.6214C60.2513 36.1305 69.1712 35.1465 77.3446 39.8654L78.397 40.4899C89.0893 47.0026 94.1022 55.4327 96.1493 63.3202C96.6348 65.1912 98.5457 66.3147 100.417 65.8291C102.287 65.3434 103.411 63.4333 102.925 61.5625C100.402 51.84 94.1577 41.6962 81.4542 34.1597L80.8447 33.8033C70.1116 27.6066 58.6852 29.1549 49.6689 33.2485C40.946 37.2089 33.752 43.8765 31.0231 49.4384C27.5705 54.5825 25.3929 64.1469 26.3246 73.6819C27.2875 83.537 31.6599 94.2067 42.3929 100.403C55.5068 107.975 67.6383 108.365 77.4735 105.646C79.3363 105.131 80.429 103.203 79.9143 101.34C79.3993 99.4772 77.4709 98.3841 75.6077 98.8991C67.5 101.14 57.3113 100.934 45.8929 94.3413Z" fill="black"/>
<path d="M288.681 93.1151C296.014 88.8807 299.148 81.1045 299.644 72.8453C300.148 64.4756 297.864 56.5904 295.511 53.1772C295.406 53.0236 295.312 52.8611 295.232 52.6926C293.452 48.9486 287.765 43.0284 280.265 39.2793C272.864 35.5797 264.563 34.4052 257.229 38.6393L256.271 39.2083C246.551 45.1541 242.149 53.1457 240.489 60.785C240.078 62.6737 238.214 63.8728 236.325 63.4626C234.436 63.0522 233.238 61.1878 233.648 59.2989C235.708 49.8188 241.295 39.9654 253.158 32.9111L253.729 32.5771C263.847 26.7359 274.802 28.7229 283.395 33.0183C291.759 37.1997 298.716 43.9645 301.429 49.4369C304.812 54.5227 307.193 63.9303 306.631 73.2656C306.055 82.8548 302.298 93.3357 292.181 99.1773C279.926 106.253 268.385 106.209 258.999 103.206C257.158 102.617 256.142 100.647 256.731 98.8064C257.32 96.9655 259.291 95.9508 261.132 96.5398C268.818 98.9985 278.29 99.114 288.681 93.1151Z" fill="black"/>
<path d="M121.007 190.39C121.007 196.923 116.192 202.22 110.252 202.22C104.313 202.22 99.498 196.923 99.498 190.39C99.498 183.857 104.313 178.56 110.252 178.56C116.192 178.56 121.007 183.857 121.007 190.39Z" fill="black"/>
<path d="M233.927 190.39C233.927 196.923 229.112 202.22 223.173 202.22C217.233 202.22 212.418 196.923 212.418 190.39C212.418 183.857 217.233 178.56 223.173 178.56C229.112 178.56 233.927 183.857 233.927 190.39Z" fill="black"/>
<path d="M165.676 38.7539V38.756C132.51 38.8317 108.411 47.5852 90.9882 61.338C80.708 68.145 69.2171 85.6829 64.7567 93.601C51.1115 119.829 47.5209 151.169 47.3938 177.485C47.3677 182.899 45.22 189.335 43.4068 196.843C42.555 200.369 33.309 204.131 32.8595 208.135C32.1776 214.206 40.7191 220.833 42.4357 228.03C43.608 232.945 39.3112 241.016 42.4357 245.237C45.21 248.985 55.2224 248.956 59.2077 252.169C76.4324 266.056 103.527 275.005 128.036 279.492C140.155 281.948 172.266 285.387 203.751 279.492C228.26 275.005 255.355 266.056 272.579 252.169C275.292 249.981 286.364 247.672 288.539 245.237C293.156 240.068 287.847 234.339 289.351 228.03C291.068 220.833 298.669 214.206 297.988 208.135C297.538 204.131 289.232 200.369 288.38 196.843C286.567 189.335 284.419 182.899 284.393 177.485C284.266 151.169 280.675 119.829 267.03 93.601C262.591 83.7767 247.693 67.9989 240.799 61.338C223.376 47.5852 199.277 38.8318 166.111 38.756V38.7539C166.038 38.7539 165.965 38.7549 165.893 38.755C165.82 38.7549 165.748 38.7539 165.676 38.7539Z" fill="#888886"/>
<path d="M118.856 277.5C119.286 212.114 72.7911 189.315 49.49 186.088C46.5783 190.553 43.0374 199.531 32.8209 207.597C31.6675 215.996 41.1184 222.472 43.0374 226.417C45.4344 231.344 39.5569 239.738 43.0374 244.162C46.1637 248.135 51.2117 248.987 57.0181 252.228C70.8506 259.948 90.8944 270.51 118.856 277.5Z" fill="#E8B2B4"/>
<path d="M213.4 277.5C212.969 212.114 259.464 189.315 282.765 186.088C285.677 190.553 289.218 199.531 299.435 207.597C300.588 215.996 291.137 222.472 289.218 226.417C286.821 231.344 292.699 239.738 289.218 244.162C286.092 248.135 281.044 248.987 275.237 252.228C261.405 259.948 241.361 270.51 213.4 277.5Z" fill="#E8B2B4"/>
<path d="M148.43 40.9042C161.765 37.0328 171.91 39.2911 175.316 40.9042C175.68 44.8816 176.012 49.4388 176.272 54.3241C185.819 53.9773 198.652 55.5744 198.686 64.0019C198.719 72.3534 186.241 73.4878 176.804 72.7955C176.812 75.9336 176.776 79.0822 176.683 82.1898C185.237 82.5278 194.289 84.788 194.318 91.8645C194.348 99.4008 184.189 101.061 175.271 100.805C173.485 113.933 169.924 123.534 163.486 123.713C156.966 123.894 153.013 114.169 150.728 100.772C141.621 101.157 130.812 99.638 130.843 91.8645C130.871 84.74 140.047 82.4977 148.652 82.1834C148.446 79.1049 148.29 75.9856 148.18 72.8753C138.929 73.3748 127.518 71.9887 127.55 64.0019C127.582 56.1401 138.752 54.2217 148.003 54.281C148.073 49.419 148.225 44.8783 148.43 40.9042Z" fill="black"/>
<path d="M85.5172 195.767C88.5285 188.884 60.9614 185.013 46.8015 183.938L43.5752 193.616C56.3012 197.201 82.506 202.65 85.5172 195.767Z" fill="black"/>
<path d="M82.7666 222.061C83.329 214.57 56.0351 220.044 42.3178 223.718L42.4782 233.919C55.6733 233.088 82.2042 229.553 82.7666 222.061Z" fill="black"/>
<path d="M245.985 195.767C242.974 188.884 270.541 185.013 284.701 183.938L287.927 193.616C275.201 197.201 248.996 202.65 245.985 195.767Z" fill="black"/>
<path d="M248.736 222.061C248.173 214.57 275.467 220.044 289.185 223.718L289.024 233.919C275.829 233.088 249.298 229.553 248.736 222.061Z" fill="black"/>
<path d="M265.415 90.4961C267.129 89.604 269.243 90.2707 270.135 91.9854C284.158 118.939 287.765 150.933 287.893 177.468C287.904 179.762 288.37 182.408 289.122 185.569C289.494 187.136 289.924 188.774 290.382 190.525C290.838 192.264 291.32 194.106 291.783 196.021C291.756 195.911 291.829 196.228 292.661 197.064C293.425 197.834 294.396 198.629 295.587 199.63C296.691 200.558 297.991 201.669 299.043 202.863C300.053 204.01 301.232 205.666 301.465 207.744C301.725 210.054 301.176 212.22 300.411 214.107C299.65 215.984 298.576 217.819 297.554 219.488C295.361 223.07 293.451 225.929 292.756 228.842C292.232 231.04 292.879 232.978 293.547 236.388C294.161 239.516 294.604 243.702 291.149 247.569C290.025 248.827 288.232 249.682 286.886 250.258C285.363 250.91 283.572 251.534 281.893 252.107C280.159 252.7 278.545 253.24 277.174 253.77C275.689 254.344 274.976 254.733 274.776 254.894C256.891 269.313 229.145 278.393 204.445 282.922C195.742 284.91 180.41 286.004 165.484 286.077C150.672 286.15 135.546 285.223 127.253 282.905C102.575 278.371 74.8745 269.296 57.0113 254.894C56.5145 254.493 55.6257 254.051 54.2018 253.582C52.8008 253.121 51.2487 252.745 49.4947 252.293C47.8305 251.864 45.9748 251.364 44.3307 250.685C42.7342 250.025 40.8821 249.021 39.6227 247.319C38.2757 245.5 37.8553 243.428 37.7848 241.594C37.7151 239.782 37.9792 237.922 38.2535 236.308C38.5514 234.555 38.8411 233.182 39.0182 231.765C39.1916 230.377 39.1763 229.452 39.0309 228.842C38.361 226.034 36.3124 223.228 33.858 219.635C32.7248 217.976 31.5151 216.139 30.6481 214.258C29.7779 212.37 29.1119 210.145 29.3815 207.744L29.44 207.338C29.7962 205.339 31.0511 203.784 32.067 202.738C33.2188 201.553 34.6469 200.45 35.8639 199.524C37.175 198.527 38.2544 197.725 39.0973 196.952C40.0408 196.087 40.0573 195.802 40.0045 196.021C40.4669 194.106 40.9494 192.264 41.4049 190.525C41.8636 188.774 42.2931 187.136 42.6656 185.569C43.4174 182.408 43.8831 179.762 43.8941 177.468C44.0223 150.933 47.6296 118.939 61.652 91.9854C62.5441 90.2709 64.657 89.6043 66.3717 90.4961C68.0865 91.3882 68.754 93.502 67.8619 95.2168C54.5941 120.72 51.0201 151.405 50.8941 177.502C50.8791 180.622 50.2571 183.901 49.4752 187.188C49.081 188.846 48.632 190.563 48.1773 192.299C47.7194 194.047 47.2533 195.825 46.8092 197.664C46.3305 199.646 44.8719 201.155 43.8287 202.111C42.6844 203.161 41.2643 204.211 40.1012 205.096C38.844 206.052 37.8223 206.86 37.0875 207.616C36.4986 208.222 36.3579 208.532 36.3336 208.578C36.2759 209.209 36.4284 210.076 37.0055 211.328C37.6017 212.622 38.507 214.029 39.6383 215.686C41.7131 218.723 44.7935 222.829 45.8404 227.218C46.2811 229.066 46.1693 230.993 45.9645 232.633C45.7632 234.243 45.3931 236.073 45.1539 237.48C44.8912 239.026 44.7399 240.282 44.7799 241.324C44.8191 242.344 45.0335 242.865 45.2486 243.155C45.3765 243.328 45.8173 243.725 47.0025 244.215C48.1404 244.685 49.5572 245.081 51.2408 245.515C52.8347 245.925 54.7064 246.378 56.3902 246.933C58.0512 247.479 59.9091 248.238 61.4049 249.444C77.4369 262.37 102.724 271.045 126.382 275.619L128.667 276.049L128.832 276.084C128.887 276.097 128.941 276.11 128.996 276.126C136.189 278.178 150.518 279.15 165.45 279.077C180.32 279.004 195.067 277.9 202.965 276.081C203.017 276.069 203.069 276.058 203.121 276.049C227.422 271.6 253.833 262.787 270.382 249.444C271.539 248.512 273.228 247.791 274.649 247.241C276.186 246.647 277.984 246.046 279.629 245.483C281.329 244.902 282.883 244.357 284.132 243.822C285.559 243.212 285.965 242.864 285.928 242.905C287.091 241.604 287.189 240.34 286.678 237.734C286.223 235.41 284.967 231.328 285.947 227.218C286.969 222.934 289.718 218.881 291.584 215.833C292.591 214.187 293.397 212.776 293.923 211.478C294.445 210.19 294.591 209.252 294.509 208.525C294.518 208.601 294.491 208.286 293.791 207.491C293.132 206.744 292.217 205.943 291.083 204.989C290.035 204.109 288.741 203.052 287.695 201.999C286.716 201.014 285.431 199.538 284.978 197.664C284.534 195.825 284.068 194.047 283.61 192.299C283.155 190.563 282.706 188.846 282.312 187.188C281.53 183.901 280.908 180.622 280.893 177.502C280.767 151.405 277.193 120.72 263.925 95.2168C263.033 93.5021 263.7 91.3883 265.415 90.4961ZM166.202 35.2568C199.966 35.3485 224.839 44.2814 242.967 58.5908C244.485 59.7885 244.744 61.9896 243.546 63.5068C242.349 65.0241 240.148 65.2826 238.63 64.085C221.928 50.9005 198.63 42.3302 166.103 42.2559C166.083 42.2558 166.063 42.2543 166.043 42.2539C165.975 42.2541 166.118 42.2546 165.897 42.2549H165.888C165.661 42.2546 165.816 42.2541 165.744 42.2539C165.724 42.2543 165.704 42.2558 165.684 42.2559C133.158 42.3301 109.86 50.9005 93.1568 64.085C91.6396 65.2826 89.4385 65.024 88.2408 63.5068C87.0432 61.9896 87.3027 59.7885 88.8199 58.5908C106.948 44.2816 131.821 35.3486 165.585 35.2568C165.615 35.2561 165.646 35.2539 165.676 35.2539C165.726 35.2539 165.774 35.2546 165.809 35.2549H165.977C166.013 35.2546 166.061 35.2539 166.111 35.2539C166.141 35.2539 166.172 35.2561 166.202 35.2568Z" fill="black"/>
<path d="M129.138 198.993C129.138 205.527 124.188 210.823 118.082 210.823C111.976 210.823 107.026 205.527 107.026 198.993C107.026 192.46 111.976 187.164 118.082 187.164C124.188 187.164 129.138 192.46 129.138 198.993Z" fill="black"/>
<path d="M225.324 198.993C225.324 205.527 220.374 210.823 214.268 210.823C208.162 210.823 203.212 205.527 203.212 198.993C203.212 192.46 208.162 187.164 214.268 187.164C220.374 187.164 225.324 192.46 225.324 198.993Z" fill="black"/>
<path d="M131.761 215.125C131.761 206.216 140.565 198.994 151.426 198.994C162.287 198.994 160.335 201.01 166.175 201.01C172.014 201.01 170.063 198.994 180.924 198.994C191.784 198.994 200.589 206.216 200.589 215.125C200.589 224.034 191.784 231.257 180.924 231.257C170.063 231.257 169.862 227.224 166.175 227.224C162.488 227.224 162.287 231.257 151.426 231.257C140.565 231.257 131.761 224.034 131.761 215.125Z" fill="white"/>
<path d="M166.619 220.232C168.808 220.313 170.512 220.987 171.809 221.681C172.395 221.995 172.955 222.345 173.275 222.543C173.654 222.777 173.912 222.934 174.183 223.079C174.9 223.466 176.496 224.256 180.924 224.256V231.256L179.937 231.245C170.047 231.008 169.747 227.224 166.175 227.224C162.488 227.224 162.287 231.256 151.426 231.256V224.256C155.853 224.256 157.45 223.466 158.167 223.079C158.437 222.934 158.696 222.777 159.074 222.543C159.395 222.345 159.954 221.995 160.541 221.681C161.924 220.941 163.77 220.224 166.175 220.224L166.619 220.232ZM193.589 215.125C193.589 211.315 189.279 205.994 180.924 205.994C175.988 205.994 174.507 206.446 173.77 206.678C172.358 207.123 170.353 208.01 166.175 208.01C161.996 208.01 159.99 207.123 158.579 206.678C157.842 206.446 156.361 205.994 151.426 205.994C143.071 205.994 138.761 211.315 138.761 215.125C138.761 218.936 143.071 224.256 151.426 224.256V231.256C140.735 231.256 132.037 224.258 131.768 215.541L131.761 215.125C131.761 206.216 140.565 198.994 151.426 198.994C161.947 198.994 160.445 200.886 165.649 201.004L166.175 201.01C172.014 201.01 170.063 198.994 180.924 198.994L181.431 198.998C192.057 199.219 200.589 206.355 200.589 215.125L200.582 215.541C200.313 224.258 191.615 231.256 180.924 231.256V224.256C189.279 224.256 193.589 218.936 193.589 215.125Z" fill="black"/>
<path d="M159.483 208.521C164.849 211.611 166.394 211.57 171.069 208.521C176.964 204.677 169.85 202.22 165.581 202.22C161.312 202.22 154.116 205.432 159.483 208.521Z" fill="black"/>
</svg>
