<svg width="378" height="320" viewBox="0 0 378 320" fill="none" xmlns="http://www.w3.org/2000/svg">
<path d="M180.214 26.6525C195.923 26.6525 223.123 10.2175 234.76 2C253.96 2 258.76 36.3641 258.76 53.5461C271.851 61.0165 300.215 83.5773 308.942 114.057C413.67 147.674 374.397 217.149 332.942 244.043C308.942 318 210.76 318 188.942 318C167.123 318 79.8484 318 51.4852 253.007C-40.1516 208.184 14.3951 125.262 62.3953 114.057C73.3045 55.7872 160.578 26.6525 180.214 26.6525Z" fill="white" stroke="#A5A5A5" stroke-width="4" stroke-linecap="round" stroke-linejoin="round" stroke-dasharray="8 8"/>
<path d="M36.5634 156.174C44.1184 147.315 72.9451 136.263 90.6182 153.678C116.069 178.757 102.944 207.657 96.1803 214.686L96.1849 214.69C96.1457 214.729 96.1041 214.766 96.0632 214.806C96.0235 214.846 95.9855 214.887 95.9462 214.925L95.9415 214.921C88.8086 221.586 59.4808 234.52 34.0297 209.44C16.3567 192.025 27.5728 163.619 36.5634 156.174Z" fill="#888886"/>
<path d="M335.95 155.313C344.921 162.852 356.114 191.617 338.478 209.253C313.081 234.65 283.816 221.552 276.698 214.803L276.693 214.808C276.654 214.768 276.616 214.727 276.576 214.686C276.536 214.647 276.494 214.609 276.455 214.569L276.46 214.565C269.71 207.447 256.613 178.182 282.01 152.785C299.645 135.149 328.411 146.341 335.95 155.313Z" fill="#888886"/>
<path d="M328.816 166.486C335.544 172.141 343.938 193.715 330.712 206.941C311.664 225.989 289.715 216.166 284.377 211.104L284.373 211.108C284.344 211.078 284.315 211.047 284.285 211.016C284.255 210.987 284.224 210.958 284.194 210.929L284.198 210.925C279.136 205.587 269.313 183.638 288.361 164.59C301.587 151.364 323.161 159.758 328.816 166.486Z" fill="#F8EFE6"/>
<path d="M47.7123 166.486C40.9837 172.141 32.5895 193.715 45.8161 206.941C64.8638 225.989 86.8129 216.166 92.1512 211.104L92.1547 211.108C92.1841 211.078 92.2126 211.047 92.2423 211.016C92.2729 210.987 92.304 210.958 92.3334 210.929L92.3299 210.925C97.3918 205.587 107.215 183.638 88.1672 164.59C74.9406 151.364 53.3665 159.758 47.7123 166.486Z" fill="#F8EFE6"/>
<path d="M188.671 64.706C283.773 64.9233 299.466 141.132 299.725 194.959C299.779 206.05 309.318 221.716 304.382 242.416C295.609 279.196 222.051 295.024 188.467 293.917C154.883 295.024 81.3252 279.196 72.5529 242.416C67.616 221.716 77.1545 206.05 77.2081 194.959C77.4679 141.132 93.1609 64.9231 188.263 64.706V64.704C188.331 64.704 188.399 64.7049 188.466 64.705C188.534 64.7049 188.603 64.704 188.671 64.704V64.706Z" fill="#888886"/>
<path d="M328.765 214.057C338.409 208.489 342.636 198.803 343.596 188.979C344.572 178.991 342.08 169.711 339.297 165.73C339.181 165.564 339.08 165.389 338.995 165.206C336.939 160.805 330.148 154.007 321.01 149.858C312.022 145.777 301.52 144.596 291.876 150.164L291.256 150.526C278.356 158.176 272.329 168.208 269.891 177.603C269.405 179.473 267.494 180.597 265.623 180.111C263.752 179.626 262.629 177.715 263.114 175.844C265.996 164.742 273.126 153.143 287.677 144.51L288.376 144.101C300.579 137.056 313.588 138.8 323.904 143.484C333.924 148.033 342.134 155.683 345.203 161.97C349.114 167.772 351.634 178.707 350.564 189.66C349.462 200.935 344.468 213.074 332.265 220.12C317.243 228.793 303.375 229.229 292.144 226.124C290.281 225.609 289.188 223.681 289.703 221.819C290.218 219.955 292.146 218.862 294.01 219.377C303.513 222.004 315.438 221.752 328.765 214.057Z" fill="black"/>
<path d="M320.315 183.975C308.755 181.307 297.521 185.043 293.171 187.312C291.457 188.206 290.793 190.32 291.687 192.034C292.581 193.747 294.695 194.412 296.409 193.518C299.801 191.749 309.3 188.618 318.741 190.796C320.625 191.231 322.504 190.056 322.938 188.172C323.373 186.289 322.199 184.41 320.315 183.975Z" fill="black"/>
<path d="M51.669 183.975C63.2297 181.307 74.4637 185.043 78.8135 187.312C80.527 188.206 81.1917 190.32 80.2979 192.034C79.4037 193.747 77.289 194.412 75.5752 193.518C72.1837 191.749 62.6846 188.618 53.2432 190.796C51.3597 191.231 49.4806 190.056 49.0459 188.172C48.6115 186.289 49.7856 184.41 51.669 183.975Z" fill="black"/>
<path d="M43.5536 214.057C33.9098 208.489 29.682 198.803 28.722 188.979C27.7461 178.991 30.238 169.711 33.0213 165.73C33.137 165.564 33.2381 165.389 33.3236 165.206C35.3796 160.805 42.1705 154.007 51.3084 149.858C60.2966 145.777 70.7988 144.596 80.4428 150.164L81.0625 150.526C93.9621 158.176 99.9894 168.208 102.427 177.603C102.913 179.473 104.824 180.597 106.695 180.111C108.566 179.626 109.689 177.715 109.204 175.844C106.323 164.742 99.1924 153.143 84.6415 144.51L83.9428 144.101C71.7392 137.056 58.7301 138.8 48.4145 143.484C38.3945 148.033 30.1848 155.683 27.1156 161.97C23.2045 167.772 20.6846 178.707 21.7548 189.66C22.8566 200.935 27.8502 213.074 40.0536 220.12C55.0758 228.793 68.9438 229.229 80.1746 226.124C82.0375 225.609 83.1303 223.681 82.6154 221.819C82.1004 219.955 80.172 218.862 78.3088 219.377C68.8054 222.004 56.8803 221.752 43.5536 214.057Z" fill="black"/>
<path d="M188.672 64.7059C283.774 64.9233 299.467 141.132 299.727 194.959C299.78 206.05 309.319 221.717 304.382 242.416C295.609 279.197 222.048 295.025 188.465 293.917C154.88 295.023 81.3249 279.195 72.5528 242.416C67.6159 221.717 77.1553 206.05 77.209 194.959C77.4688 141.132 93.1615 64.9231 188.264 64.7059V64.704C188.331 64.704 188.399 64.7049 188.467 64.705C188.535 64.7049 188.604 64.704 188.672 64.704V64.7059Z" fill="#F8EFE6"/>
<path d="M186.245 160.123C135.253 121.249 101.428 183.347 90.3207 210.104C79.2137 249.484 101.428 265.135 119.098 283.31C56.9997 260.086 70.1261 217.677 77.1942 198.998C75.6796 181.832 81.2331 57.131 186.245 63.6943C195.78 64.2902 206.439 63.6943 227.825 43.4998C234.711 57.1311 229.663 63.6943 227.825 70.7623C293.285 90.8943 298.555 147.664 299.839 198.998C317.509 250.998 282.169 276.242 252.382 283.31C299.334 264.63 285.198 219.192 282.169 206.57C279.139 193.949 239.76 114.685 186.245 160.123Z" fill="#888886"/>
<path d="M141.817 288.863C142.221 227.472 98.5667 206.066 76.6893 203.036C71.6407 210.778 69.2255 236.862 73.1553 244.94C82.2428 263.62 93.3498 273.717 141.817 288.863Z" fill="#E8B2B4"/>
<path d="M234.78 288.863C234.376 227.472 278.029 206.066 299.907 203.036C304.955 210.778 307.371 236.862 303.441 244.94C294.353 263.62 283.246 273.717 234.78 288.863Z" fill="#E8B2B4"/>
<path d="M225.232 40.9627C226.059 40.1767 227.223 39.84 228.349 40.072C229.551 40.3196 230.536 41.1778 230.944 42.3347C232.506 46.761 234.008 52.1522 234.354 57.3709C234.588 60.9044 234.308 64.6567 232.921 68.0115C261.818 77.9837 279.286 97.8824 289.543 120.828C300.24 144.758 303.116 172.014 303.226 194.942C303.238 197.274 303.754 199.992 304.569 203.306C305.342 206.45 306.452 210.367 307.341 214.316C309.173 222.465 310.428 232.149 307.786 243.227C304.283 257.914 291.666 269.065 276.352 277.216C260.963 285.406 242.134 290.96 224.786 294.148C196.604 301.754 164.809 297.343 152.186 294.155C134.828 290.968 115.982 285.412 100.583 277.216C85.2685 269.065 72.6509 257.914 69.1481 243.227C66.5061 232.149 67.7621 222.465 69.5944 214.316C70.4825 210.367 71.5916 206.45 72.3649 203.306C73.1804 199.992 73.6974 197.274 73.7087 194.942C73.8396 167.813 77.8404 134.526 94.1872 107.898C110.7 81.0005 139.541 61.3422 188.161 61.2058C188.195 61.2048 188.229 61.2039 188.263 61.2039C188.311 61.2039 188.356 61.2046 188.389 61.2048H188.545C188.578 61.2046 188.624 61.2039 188.672 61.2039C188.692 61.2039 188.713 61.2045 188.733 61.2048C191.811 61.2079 196.491 60.8664 202.521 58.2761C208.615 55.6587 216.259 50.6717 225.071 41.1257L225.232 40.9627ZM226.04 50.1638C218.337 57.6558 211.347 62.1035 205.284 64.7078C198.115 67.787 192.415 68.2144 188.664 68.2058C188.644 68.2058 188.623 68.2042 188.603 68.2039C188.544 68.204 188.69 68.2046 188.471 68.2048H188.464C188.244 68.2046 188.393 68.204 188.331 68.2039C188.311 68.2042 188.291 68.2058 188.271 68.2058C141.846 68.3119 115.317 86.86 100.153 111.56C84.813 136.548 80.8376 168.279 80.7087 194.975C80.6932 198.19 79.9965 201.589 79.1628 204.978C78.2868 208.539 77.3096 211.911 76.4235 215.852C74.7075 223.484 73.6632 231.983 75.9577 241.603C78.7567 253.339 89.1587 263.205 103.871 271.036C118.01 278.561 135.479 283.849 151.962 286.993L153.553 287.29L153.786 287.342C165.691 290.371 196.373 294.609 223.095 287.355L223.382 287.29C240.326 284.188 258.468 278.804 273.063 271.036C287.775 263.205 298.178 253.339 300.977 241.603C303.272 231.983 302.226 223.484 300.51 215.852C299.624 211.911 298.648 208.539 297.772 204.978C296.938 201.589 296.242 198.19 296.226 194.975C296.118 172.479 293.278 146.339 283.152 123.685C273.081 101.156 255.828 82.09 226.638 73.3406C225.495 72.998 224.606 72.0963 224.278 70.949C223.95 69.8017 224.23 68.5663 225.019 67.6716C226.893 65.5483 227.659 62.2098 227.369 57.8337C227.204 55.3494 226.71 52.732 226.04 50.1638Z" fill="black"/>
<path d="M153.49 215.153C153.49 221.287 148.842 226.26 143.109 226.26C137.376 226.26 132.729 221.287 132.729 215.153C132.729 209.019 137.376 204.046 143.109 204.046C148.842 204.046 153.49 209.019 153.49 215.153Z" fill="black"/>
<path d="M243.355 215.153C243.355 221.287 238.708 226.26 232.975 226.26C227.242 226.26 222.594 221.287 222.594 215.153C222.594 209.019 227.242 204.046 232.975 204.046C238.708 204.046 243.355 209.019 243.355 215.153Z" fill="black"/>
<path d="M167.152 225.395C168.968 224.928 170.818 225.976 171.365 227.749C171.373 227.768 171.392 227.806 171.422 227.861C171.51 228.017 171.708 228.315 172.098 228.649C172.826 229.272 174.598 230.333 178.532 230.333C182.467 230.333 184.24 229.272 184.968 228.649C185.358 228.315 185.556 228.017 185.644 227.861C185.685 227.787 185.703 227.743 185.705 227.738C185.704 227.74 185.699 227.754 185.691 227.781C185.686 227.795 185.68 227.813 185.674 227.835C185.671 227.846 185.668 227.858 185.664 227.871C185.663 227.878 185.66 227.884 185.658 227.891C185.657 227.894 185.656 227.898 185.655 227.902C185.655 227.903 185.655 227.906 185.654 227.907V227.908C186.018 226.503 187.211 225.468 188.653 225.306C190.095 225.145 191.486 225.889 192.152 227.177C192.15 227.175 192.15 227.172 192.149 227.17C192.146 227.166 192.144 227.161 192.142 227.157C192.138 227.15 192.134 227.143 192.131 227.138C192.125 227.127 192.121 227.119 192.119 227.116C192.116 227.111 192.122 227.12 192.137 227.144C192.167 227.191 192.232 227.292 192.338 227.429C192.551 227.703 192.917 228.113 193.466 228.536C194.522 229.35 196.405 230.333 199.553 230.333C202.701 230.333 204.584 229.35 205.64 228.536C206.189 228.113 206.555 227.703 206.768 227.429C206.874 227.292 206.94 227.191 206.97 227.144C206.984 227.121 206.99 227.111 206.986 227.116C206.985 227.119 206.981 227.127 206.975 227.138C206.972 227.143 206.968 227.15 206.964 227.157C206.962 227.161 206.96 227.166 206.957 227.17C206.956 227.172 206.955 227.175 206.954 227.177C207.84 225.463 209.947 224.789 211.663 225.671C213.382 226.555 214.059 228.665 213.176 230.384L210.063 228.784C213.059 230.325 213.171 230.384 213.174 230.388C213.174 230.389 213.173 230.391 213.172 230.392C213.171 230.395 213.169 230.398 213.167 230.401C213.164 230.406 213.162 230.412 213.158 230.418C213.152 230.431 213.144 230.445 213.136 230.46C213.12 230.491 213.1 230.526 213.077 230.566C213.032 230.645 212.974 230.744 212.903 230.859C212.759 231.087 212.561 231.381 212.3 231.718C211.779 232.39 211.001 233.243 209.912 234.081C207.692 235.792 204.32 237.333 199.553 237.333C194.854 237.333 191.512 235.834 189.29 234.153C187.059 235.962 183.636 237.333 178.532 237.333C173.255 237.333 169.771 235.87 167.548 233.969C166.463 233.041 165.76 232.077 165.317 231.286C165.096 230.893 164.94 230.544 164.832 230.266C164.778 230.127 164.737 230.004 164.704 229.902C164.688 229.85 164.674 229.804 164.662 229.763C164.656 229.742 164.651 229.723 164.646 229.705C164.643 229.696 164.641 229.687 164.639 229.679C164.638 229.675 164.637 229.671 164.636 229.667C164.635 229.665 164.634 229.662 164.634 229.661C164.633 229.658 164.656 229.65 168.023 228.784L164.633 229.656C164.152 227.783 165.279 225.876 167.152 225.395ZM171.41 227.908C171.41 227.908 171.41 227.903 171.409 227.902C171.408 227.898 171.407 227.894 171.406 227.891C171.405 227.884 171.403 227.878 171.402 227.871C171.398 227.858 171.395 227.846 171.392 227.835C171.385 227.813 171.38 227.795 171.375 227.781C171.374 227.777 171.373 227.774 171.372 227.772C171.386 227.817 171.398 227.862 171.41 227.908Z" fill="black"/>
<path d="M182.991 222.079C188.029 224.98 189.48 224.942 193.869 222.079C199.404 218.47 192.724 216.163 188.716 216.163C184.708 216.163 177.952 219.178 182.991 222.079Z" fill="black"/>
</svg>
