<svg width="337" height="320" viewBox="0 0 337 320" fill="none" xmlns="http://www.w3.org/2000/svg">
<path d="M182.72 45.0778H162.22C162.22 32.9111 154.92 10.1779 141.72 4.57794C125.22 -2.422 109.72 4.57794 97.7197 26.5779C90.9197 26.1779 80.8864 34.7445 76.7197 39.0779C68.8864 37.4112 51.3197 35.8779 43.7197 43.0779C29.2197 55.0779 32.7197 93.5779 47.2197 139.578C43.6197 156.778 41.7198 181.078 41.2199 191.078L36.7199 216.078C24.0532 214.245 -0.580115 215.978 2.21989 237.578C5.71989 264.578 21.7199 260.578 41.2199 260.578C70.7199 295.078 100.22 315.078 177.72 317.078C255.22 319.078 290.72 284.578 309.22 260.578C337.22 260.078 336.72 237.578 332.22 226.078C328.62 216.878 315.387 218.578 309.22 220.578C309.22 218.078 308.32 209.278 304.72 194.078C306.22 177.578 303.22 154.578 297.72 134.578C321.22 112.578 310.72 51.0779 303.22 43.0779C295.72 35.0779 296.72 37.0779 267.22 43.0779C262.82 31.4779 251.053 24.5779 245.72 22.5779C242.553 15.9113 231.32 2.97794 211.72 4.57794C192.12 6.17794 182.553 31.2444 182.72 45.0778Z" fill="white" stroke="#A5A5A5" stroke-width="4" stroke-linecap="round" stroke-linejoin="round" stroke-dasharray="8 8"/>
<path d="M281.22 62.2336C270.329 58.4462 244.493 75.0013 235.72 81.3136C224.22 99.8914 261.72 137.653 273.72 129.516C291.872 117.207 294.834 66.9678 281.22 62.2336Z" fill="#888886"/>
<path d="M66.0396 62.2336C76.9307 58.4462 102.766 75.0013 111.54 81.3136C123.04 99.8914 85.5398 137.653 73.5398 129.516C55.3879 117.207 52.4258 66.9678 66.0396 62.2336Z" fill="#888886"/>
<path d="M173.624 64.2439C267.809 64.4601 283.351 140.253 283.608 193.785C283.661 204.816 293.109 220.397 288.219 240.983C279.532 277.562 206.682 293.303 173.422 292.203C140.161 293.303 67.3115 277.562 58.6237 240.983C53.7344 220.397 63.181 204.816 63.234 193.785C63.4914 140.253 79.0332 64.4599 173.219 64.2439V64.2419C173.286 64.2419 173.354 64.2428 173.421 64.2429C173.488 64.2428 173.556 64.2419 173.624 64.2419V64.2439Z" fill="#888886"/>
<path d="M269.827 59.3528C274.102 58.1841 278.618 57.6234 282.37 58.9279C285.031 59.8537 287.033 61.8054 288.497 64.0901C289.959 66.3703 291.011 69.1661 291.745 72.1858C293.213 78.228 293.544 85.7398 292.868 93.344C292.189 100.967 290.478 108.893 287.711 115.78C284.971 122.6 281.043 128.779 275.684 132.412C273.262 134.055 270.417 134.377 267.702 134.011C265.001 133.647 262.188 132.58 259.452 131.116C253.971 128.186 248.199 123.347 243.277 117.742C238.354 112.137 234.086 105.544 231.811 98.9719C229.551 92.4434 229.089 85.3751 232.744 79.4709C232.985 79.0802 233.302 78.7413 233.675 78.4729C238.16 75.2461 246.977 69.4179 256.112 64.8547C260.674 62.5757 265.427 60.5552 269.827 59.3528ZM280.07 65.5393C278.376 64.9502 275.578 65.0383 271.672 66.1057C267.89 67.1393 263.594 68.9421 259.24 71.1174C250.935 75.2659 242.822 80.5635 238.372 83.7199C236.598 87.0466 236.617 91.4599 238.425 96.6819C240.322 102.161 244.022 107.983 248.537 113.123C253.051 118.264 258.186 122.501 262.752 124.943C265.039 126.165 267.035 126.858 268.637 127.074C270.225 127.288 271.178 127.01 271.755 126.618C275.472 124.098 278.721 119.381 281.216 113.171C283.684 107.029 285.266 99.7911 285.895 92.7238C286.526 85.638 286.181 78.9326 284.943 73.8391C284.324 71.291 283.515 69.2887 282.604 67.8674C281.696 66.4507 280.811 65.7972 280.07 65.5393Z" fill="black"/>
<path d="M77.4322 59.3528C73.1564 58.1841 68.6406 57.6234 64.8893 58.9279C62.2276 59.8537 60.2259 61.8054 58.7613 64.0901C57.2996 66.3703 56.2481 69.1661 55.5143 72.1858C54.0459 78.228 53.7143 85.7398 54.3912 93.344C55.0698 100.967 56.7803 108.893 59.5475 115.78C62.2873 122.6 66.2163 128.779 71.5748 132.412C73.9971 134.055 76.842 134.377 79.5572 134.011C82.2574 133.647 85.0705 132.58 87.8072 131.116C93.2878 128.186 99.0595 123.347 103.982 117.742C108.905 112.137 113.173 105.544 115.448 98.9719C117.708 92.4434 118.17 85.3751 114.515 79.4709C114.273 79.0802 113.957 78.7413 113.584 78.4729C109.099 75.2461 100.282 69.4179 91.1471 64.8547C86.5849 62.5757 81.8317 60.5552 77.4322 59.3528ZM67.1891 65.5393C68.8832 64.9502 71.6812 65.0383 75.5865 66.1057C79.3684 67.1393 83.6645 68.9421 88.0191 71.1174C96.3239 75.2659 104.437 80.5635 108.886 83.7199C110.661 87.0466 110.641 91.4599 108.834 96.6819C106.937 102.161 103.237 107.983 98.7223 113.123C94.2075 118.264 89.0726 122.501 84.5065 124.943C82.2199 126.165 80.2241 126.858 78.6217 127.074C77.0342 127.288 76.0813 127.01 75.5035 126.618C71.7864 124.098 68.5378 119.381 66.0426 113.171C63.5746 107.029 61.993 99.7911 61.3639 92.7238C60.7331 85.638 61.0782 78.9326 62.316 73.8391C62.9353 71.291 63.7438 69.2887 64.6549 67.8674C65.5631 66.4507 66.4475 65.7972 67.1891 65.5393Z" fill="black"/>
<path d="M131.22 205.835C131.22 211.936 126.743 216.882 121.22 216.882C115.697 216.882 111.22 211.936 111.22 205.835C111.22 199.735 115.697 194.789 121.22 194.789C126.743 194.789 131.22 199.735 131.22 205.835Z" fill="black"/>
<path d="M236.22 205.835C236.22 211.936 231.743 216.882 226.22 216.882C220.697 216.882 216.22 211.936 216.22 205.835C216.22 199.735 220.697 194.789 226.22 194.789C231.743 194.789 236.22 199.735 236.22 205.835Z" fill="black"/>
<path d="M173.625 64.2439C267.811 64.4599 283.353 140.252 283.61 193.785C283.663 204.816 293.11 220.397 288.22 240.983C279.532 277.562 206.683 293.304 173.423 292.203C140.162 293.304 67.3126 277.562 58.6247 240.983C53.7354 220.397 63.182 204.816 63.235 193.785C63.4924 140.253 79.0346 64.4601 173.22 64.2439V64.2419C173.288 64.2419 173.355 64.2428 173.423 64.2429C173.49 64.2428 173.557 64.2419 173.625 64.2419V64.2439Z" fill="#888886"/>
<path d="M125.22 287.177C125.62 226.121 82.3861 204.831 60.7195 201.819C55.7195 209.518 53.3275 235.46 57.2194 243.493C66.2195 262.071 77.2195 272.113 125.22 287.177Z" fill="#E8B2B4"/>
<path d="M217.287 287.177C216.887 226.121 260.121 204.831 281.787 201.819C286.787 209.518 289.179 235.46 285.287 243.493C276.287 262.071 265.287 272.113 217.287 287.177Z" fill="#E8B2B4"/>
<path d="M265.853 112.349C267.569 111.46 269.682 112.13 270.571 113.846C283.634 139.061 286.99 168.978 287.109 193.768C287.12 196.087 287.631 198.789 288.438 202.086C289.204 205.211 290.303 209.108 291.182 213.036C292.997 221.141 294.242 230.773 291.625 241.792C288.155 256.402 275.654 267.497 260.481 275.606C245.22 283.763 226.544 289.291 209.345 292.461C190.563 296.949 159.877 296.577 137.586 292.478C120.362 289.312 101.648 283.777 86.361 275.606C71.1885 267.497 58.6886 256.402 55.2185 241.792C52.6014 230.773 53.8451 221.141 55.6599 213.036C56.5394 209.108 57.6383 205.211 58.404 202.086C59.2116 198.789 59.7229 196.087 59.7341 193.768C59.8533 168.978 63.2084 139.061 76.2712 113.846C77.1605 112.13 79.2727 111.46 80.989 112.349C82.705 113.239 83.3752 115.351 82.486 117.067C70.1731 140.835 66.8512 169.446 66.7341 193.802C66.7187 196.999 66.0286 200.381 65.2028 203.752C64.3353 207.293 63.3685 210.646 62.4909 214.565C60.7915 222.155 59.7568 230.607 62.029 240.175C64.8002 251.842 75.0967 261.648 89.6609 269.432C104.111 277.156 122.075 282.509 138.852 285.594C160.524 289.578 190.243 289.855 207.805 285.634L207.991 285.594C224.769 282.509 242.732 277.156 257.181 269.432C271.746 261.648 282.043 251.842 284.814 240.175C287.086 230.607 286.052 222.155 284.352 214.565C283.475 210.646 282.507 207.293 281.639 203.752C280.814 200.381 280.124 196.999 280.109 193.802C279.992 169.446 276.669 140.835 264.356 117.067C263.467 115.351 264.137 113.239 265.853 112.349ZM173.716 60.7449C205.156 60.8318 228.341 69.1868 245.247 82.5876C246.761 83.7885 247.016 85.9899 245.815 87.5046C244.614 89.0194 242.413 89.2737 240.898 88.073C225.418 75.8018 203.812 67.8132 173.615 67.7439C173.595 67.7438 173.575 67.7423 173.555 67.7419C173.497 67.7421 173.64 67.7427 173.425 67.7429H173.417C173.195 67.7427 173.349 67.7421 173.287 67.7419C173.267 67.7423 173.247 67.7439 173.227 67.7439C143.03 67.8131 121.425 75.8018 105.944 88.073C104.429 89.2737 102.228 89.0194 101.027 87.5046C99.8264 85.9898 100.082 83.7884 101.596 82.5876C118.502 69.1871 141.686 60.832 173.126 60.7449C173.157 60.7441 173.188 60.7419 173.219 60.7419C173.267 60.7419 173.312 60.7427 173.344 60.7429H173.498C173.531 60.7427 173.576 60.7419 173.624 60.7419C173.654 60.7419 173.685 60.7441 173.716 60.7449Z" fill="black"/>
<path d="M62.808 224.726C71.8432 220.743 81.0762 220.781 88.8158 222.351C96.5274 223.915 102.981 227.04 106.684 229.55C108.284 230.635 108.702 232.811 107.618 234.411C106.533 236.011 104.356 236.429 102.756 235.344C99.7923 233.335 94.1958 230.585 87.4242 229.211C80.6806 227.844 72.9968 227.884 65.6322 231.13C55.424 235.631 47.0516 239.137 40.3695 240.914C33.8248 242.653 27.8275 243.041 23.222 239.839C21.6352 238.736 21.2429 236.555 22.3461 234.968C23.4495 233.381 25.631 232.989 27.2181 234.092C29.1127 235.409 32.3655 235.797 38.5707 234.148C44.6385 232.535 52.5164 229.263 62.808 224.726Z" fill="black"/>
<path d="M277.131 224.726C268.096 220.743 258.863 220.781 251.124 222.351C243.412 223.915 236.958 227.04 233.256 229.55C231.656 230.635 231.238 232.811 232.322 234.411C233.406 236.011 235.583 236.429 237.183 235.344C240.147 233.335 245.744 230.585 252.515 229.211C259.259 227.844 266.943 227.884 274.307 231.13C284.515 235.631 292.888 239.137 299.57 240.914C306.115 242.653 312.112 243.041 316.717 239.839C318.304 238.736 318.697 236.555 317.593 234.968C316.49 233.381 314.308 232.989 312.721 234.092C310.827 235.409 307.574 235.797 301.369 234.148C295.301 232.535 287.423 229.263 277.131 224.726Z" fill="black"/>
<path d="M129.398 25.0778C146.177 25.0778 145.478 68.1472 142.682 83.1179C134.292 90.7184 121.708 92.1003 114.018 83.1179V64.4621C107.726 64.4621 97.9378 63.7712 97.2387 54.0978C96.6794 46.3591 108.658 43.5032 114.018 43.7335C113.552 38.2059 115.975 25.0778 129.398 25.0778Z" fill="#F9DFB9"/>
<path d="M129.399 21.5778C135.431 21.5778 139.488 25.5609 142.042 30.4098C144.582 35.2313 146.048 41.5711 146.855 48.0514C148.473 61.0552 147.585 75.9279 146.122 83.7604C145.982 84.5125 145.598 85.1978 145.031 85.7115C135.683 94.1806 120.733 96.3422 111.359 85.3942C110.817 84.76 110.518 83.9526 110.518 83.1178V67.8649C107.888 67.7005 104.896 67.2666 102.187 66.1393C100.116 65.2775 98.0845 63.9627 96.5138 61.9537C94.9246 59.9212 93.9673 57.3819 93.7481 54.3502C93.3053 48.2223 97.9515 44.5843 101.946 42.7477C104.716 41.4744 107.832 40.7175 110.552 40.399C110.804 37.4161 111.635 33.8569 113.446 30.6227C116.214 25.6822 121.27 21.5778 129.399 21.5778ZM129.399 28.5778C124.104 28.5778 121.236 31.0381 119.553 34.0436C117.738 37.2836 117.318 41.2169 117.505 43.4391C117.589 44.4411 117.239 45.4313 116.543 46.1569C115.847 46.8824 114.872 47.2733 113.867 47.2301C111.715 47.1377 107.936 47.6975 104.87 49.1071C101.676 50.5755 100.613 52.2348 100.73 53.8453C100.86 55.6501 101.388 56.8246 102.027 57.6422C102.685 58.4834 103.625 59.1563 104.875 59.6764C107.493 60.7656 110.886 60.9625 114.018 60.9625C115.951 60.9625 117.518 62.5295 117.518 64.4625V81.7467C123.354 87.543 132.454 87.0071 139.447 81.2838C140.658 73.8443 141.355 60.5395 139.908 48.9156C139.142 42.7575 137.81 37.3942 135.85 33.6725C133.904 29.9782 131.755 28.5778 129.399 28.5778Z" fill="black"/>
<path d="M143.72 51.2019C145.653 51.2019 147.22 52.7689 147.22 54.7019C147.22 56.6349 145.653 58.2019 143.72 58.2019H130.22C128.287 58.2019 126.72 56.6349 126.72 54.7019C126.72 52.7689 128.287 51.2019 130.22 51.2019H143.72Z" fill="black"/>
<path d="M143.72 65.7631C145.653 65.7631 147.22 67.3301 147.22 69.2631C147.22 71.1961 145.653 72.7631 143.72 72.7631H132.22C130.287 72.7631 128.72 71.1961 128.72 69.2631C128.72 67.3301 130.287 65.7631 132.22 65.7631H143.72Z" fill="black"/>
<path d="M220.041 27.0862C203.262 27.0862 203.961 70.1556 206.758 85.1263C215.147 92.7268 227.731 94.1087 235.422 85.1263V66.4705C241.714 66.4705 251.502 65.7796 252.201 56.1062C252.76 48.3676 240.782 45.5116 235.422 45.7419C235.888 40.2143 233.464 27.0862 220.041 27.0862Z" fill="#F9DFB9"/>
<path d="M220.041 23.5862C214.008 23.5862 209.952 27.5693 207.397 32.4182C204.857 37.2397 203.391 43.5795 202.585 50.0598C200.966 63.0637 201.854 77.9363 203.317 85.7688C203.458 86.5209 203.841 87.2063 204.408 87.72C213.756 96.189 228.707 98.3506 238.08 87.4026C238.623 86.7684 238.922 85.961 238.922 85.1262V69.8733C241.552 69.7089 244.544 69.275 247.253 68.1477C249.324 67.2859 251.355 65.9711 252.926 63.9622C254.515 61.9297 255.472 59.3903 255.691 56.3586C256.134 50.2308 251.488 46.5927 247.493 44.7561C244.723 43.4828 241.607 42.7259 238.888 42.4075C238.636 39.4245 237.805 35.8653 235.993 32.6311C233.226 27.6906 228.169 23.5862 220.041 23.5862ZM220.041 30.5862C225.336 30.5862 228.203 33.0465 229.887 36.052C231.701 39.292 232.122 43.2253 231.934 45.4475C231.85 46.4495 232.2 47.4398 232.896 48.1653C233.593 48.8908 234.568 49.2817 235.572 49.2385C237.724 49.1461 241.503 49.7059 244.569 51.1155C247.763 52.5839 248.826 54.2432 248.71 55.8538C248.579 57.6585 248.051 58.833 247.412 59.6506C246.754 60.4918 245.814 61.1648 244.564 61.6848C241.947 62.774 238.554 62.9709 235.422 62.9709C233.489 62.9709 231.922 64.538 231.922 66.4709V83.7551C226.085 89.5514 216.986 89.0155 209.992 83.2922C208.782 75.8527 208.084 62.5479 209.531 50.9241C210.298 44.766 211.629 39.4026 213.59 35.6809C215.536 31.9866 217.684 30.5862 220.041 30.5862Z" fill="black"/>
<path d="M207.22 51.202C205.287 51.202 203.72 52.769 203.72 54.702C203.72 56.635 205.287 58.202 207.22 58.202H220.72C222.653 58.202 224.22 56.635 224.22 54.702C224.22 52.769 222.653 51.202 220.72 51.202H207.22Z" fill="black"/>
<path d="M207.22 65.7631C205.287 65.7631 203.72 67.3301 203.72 69.2631C203.72 71.1961 205.287 72.7631 207.22 72.7631H218.72C220.653 72.7631 222.22 71.1961 222.22 69.2631C222.22 67.3301 220.653 65.7631 218.72 65.7631H207.22Z" fill="black"/>
<path d="M139.78 208.848C139.78 214.949 135.178 219.895 129.5 219.895C123.822 219.895 119.22 214.949 119.22 208.848C119.22 202.747 123.822 197.802 129.5 197.802C135.178 197.802 139.78 202.747 139.78 208.848Z" fill="black"/>
<path d="M229.22 208.848C229.22 214.949 224.617 219.895 218.94 219.895C213.262 219.895 208.659 214.949 208.659 208.848C208.659 202.747 213.262 197.802 218.94 197.802C224.617 197.802 229.22 202.747 229.22 208.848Z" fill="black"/>
<path d="M153.304 219.014C155.121 218.549 156.97 219.599 157.516 221.372C157.524 221.39 157.541 221.428 157.571 221.482C157.657 221.636 157.852 221.931 158.236 222.261C158.951 222.874 160.695 223.927 164.582 223.927C168.469 223.926 170.213 222.874 170.928 222.261C171.311 221.931 171.505 221.636 171.592 221.482C171.628 221.418 171.645 221.375 171.65 221.364C172.061 220.043 173.216 219.082 174.601 218.927C176.042 218.766 177.432 219.509 178.098 220.796C178.096 220.792 178.094 220.788 178.093 220.784C178.088 220.776 178.085 220.769 178.082 220.763C178.076 220.752 178.072 220.745 178.07 220.742C178.072 220.745 178.078 220.755 178.087 220.769C178.116 220.816 178.181 220.915 178.285 221.051C178.495 221.322 178.855 221.728 179.397 222.147C180.437 222.952 182.293 223.927 185.399 223.927C188.505 223.927 190.361 222.952 191.401 222.147C191.943 221.728 192.304 221.322 192.513 221.051C192.618 220.915 192.684 220.816 192.713 220.769C192.722 220.755 192.726 220.745 192.728 220.742C192.727 220.745 192.723 220.752 192.717 220.763C192.714 220.769 192.711 220.775 192.708 220.782C193.597 219.082 195.692 218.414 197.403 219.29C199.124 220.171 199.804 222.279 198.924 224L195.808 222.405C198.924 224 198.923 224.002 198.922 224.004L198.916 224.015C198.913 224.021 198.909 224.028 198.906 224.034C198.899 224.046 198.892 224.06 198.884 224.075C198.867 224.105 198.848 224.141 198.826 224.18C198.781 224.26 198.723 224.358 198.652 224.472C198.51 224.7 198.313 224.994 198.054 225.329C197.537 225.999 196.766 226.848 195.685 227.683C193.481 229.389 190.132 230.927 185.399 230.927C180.753 230.927 177.443 229.443 175.237 227.775C173.02 229.57 169.626 230.926 164.582 230.927C159.345 230.927 155.885 229.468 153.676 227.571C152.598 226.646 151.901 225.684 151.461 224.897C151.242 224.506 151.087 224.158 150.98 223.881C150.927 223.742 150.885 223.619 150.852 223.517C150.836 223.467 150.823 223.42 150.811 223.38C150.805 223.359 150.8 223.34 150.795 223.322C150.792 223.313 150.79 223.305 150.788 223.297C150.787 223.293 150.786 223.288 150.785 223.284C150.784 223.282 150.783 223.279 150.783 223.278C150.785 223.275 150.874 223.249 154.173 222.405L150.782 223.273C150.303 221.401 151.432 219.494 153.304 219.014ZM171.637 221.405C171.632 221.419 171.627 221.438 171.621 221.46C171.618 221.47 171.615 221.482 171.611 221.495C171.609 221.501 171.607 221.508 171.605 221.515C171.604 221.519 171.603 221.523 171.602 221.526C171.617 221.471 171.634 221.418 171.651 221.364C171.649 221.37 171.644 221.383 171.637 221.405ZM157.557 221.515C157.556 221.508 157.554 221.501 157.553 221.495C157.549 221.482 157.546 221.47 157.543 221.46C157.537 221.438 157.531 221.419 157.526 221.405C157.524 221.399 157.523 221.394 157.521 221.389C157.534 221.431 157.546 221.473 157.557 221.515Z" fill="black"/>
</svg>
