<svg width="400" height="400" viewBox="0 0 400 400" fill="none" xmlns="http://www.w3.org/2000/svg">
<path d="M78.9028 120.511C84.2398 103.511 121.239 110.338 132.57 111.453C152.834 122.289 138.409 176.42 123.172 175.347C100.124 173.723 72.624 140.511 78.9028 120.511Z" fill="#FFD8D4"/>
<path d="M321.557 120.511C316.22 103.511 279.221 110.338 267.89 111.453C247.626 122.289 262.051 176.42 277.288 175.347C300.336 173.723 327.836 140.511 321.557 120.511Z" fill="#FFD8D4"/>
<path d="M78.903 123.011C75.303 137.811 89.0696 154.511 96.403 161.011C114.003 161.011 122.403 139.344 124.403 128.511C115.07 124.677 92.903 118.211 78.903 123.011Z" fill="#F76363"/>
<path d="M323.814 123.011C327.414 137.811 313.647 154.511 306.314 161.011C288.714 161.011 280.314 139.344 278.314 128.511C287.647 124.677 309.814 118.211 323.814 123.011Z" fill="#F76363"/>
<path d="M148.419 68.1639C157.156 68.7912 157.903 83.5106 173.403 97.0106C167.003 116.211 144.339 116.003 133.807 113.499C119.684 87.3645 137.498 67.3796 148.419 68.1639Z" fill="#EBD1B2"/>
<path d="M254.002 68.1639C245.265 68.7912 244.518 83.5106 229.018 97.0106C235.953 105.003 253.582 119.49 268.614 113.499C282.737 87.3645 264.923 67.3796 254.002 68.1639Z" fill="#EBD1B2"/>
<path d="M201.116 95.0127C300.407 95.2393 316.791 174.683 317.062 230.795C317.118 242.357 327.078 258.689 321.923 280.267C312.765 318.609 235.967 335.108 200.903 333.954C165.84 335.108 89.0421 318.609 79.8834 280.267C74.7291 258.689 84.6877 242.357 84.7436 230.795C85.0149 174.683 101.399 95.2391 200.69 95.0127V95.0106C200.761 95.0106 200.832 95.0116 200.902 95.0116C200.974 95.0116 201.045 95.0106 201.116 95.0106V95.0127Z" fill="#FFD8D4"/>
<path d="M78.9038 120.511C84.2408 103.511 121.24 110.338 132.571 111.453C152.835 122.289 138.41 176.42 123.173 175.347C100.125 173.723 72.625 140.511 78.9038 120.511Z" stroke="#474847" stroke-width="7" stroke-linecap="round" stroke-linejoin="round"/>
<path d="M321.557 120.511C316.22 103.511 279.221 110.338 267.89 111.453C247.626 122.289 262.051 176.42 277.288 175.347C300.336 173.723 327.836 140.511 321.557 120.511Z" stroke="#474847" stroke-width="7" stroke-linecap="round" stroke-linejoin="round"/>
<path d="M173.403 97.0106C157.903 83.5106 157.156 68.7912 148.419 68.1639C137.498 67.3796 119.684 87.3645 133.807 113.499" stroke="#474847" stroke-width="7" stroke-linecap="round" stroke-linejoin="round"/>
<path d="M139.634 85.0106L129.134 89.5106" stroke="#474847" stroke-width="7" stroke-linecap="round" stroke-linejoin="round"/>
<path d="M139.634 95.0106L129.134 99.5106" stroke="#474847" stroke-width="7" stroke-linecap="round" stroke-linejoin="round"/>
<path d="M229.017 97.0106C244.517 83.5106 245.264 68.7912 254.001 68.1639C264.922 67.3796 282.736 87.3645 268.613 113.499" stroke="#474847" stroke-width="7" stroke-linecap="round" stroke-linejoin="round"/>
<path d="M262.787 85.0106L273.287 89.5106" stroke="#474847" stroke-width="7" stroke-linecap="round" stroke-linejoin="round"/>
<path d="M262.787 95.0106L273.287 99.5106" stroke="#474847" stroke-width="7" stroke-linecap="round" stroke-linejoin="round"/>
<path d="M201.084 94.5494C300.44 94.7761 316.835 174.394 317.106 230.629C317.163 242.216 327.128 258.583 321.971 280.208C312.806 318.633 235.957 335.169 200.871 334.012C165.785 335.169 88.937 318.633 79.7725 280.208C74.615 258.583 84.5796 242.216 84.6357 230.629C84.9072 174.394 101.302 94.7763 200.658 94.5494V94.5475C200.729 94.5475 200.8 94.5484 200.871 94.5485C200.942 94.5484 201.013 94.5475 201.084 94.5475V94.5494Z" fill="#FFD8D4"/>
<path d="M135.804 306.983C124.783 296.54 132.405 268.198 147.904 266.511C163.403 264.823 175.904 244.511 201.904 244.511C227.904 244.511 230.904 259.232 249.904 263.511C268.904 267.79 275.347 291.437 268.904 302.011C260.851 315.227 238.982 329.011 204.256 329.011C167.707 329.011 151.594 321.943 135.804 306.983Z" fill="#FDFFFF"/>
<path d="M266.904 323.511C258.904 259.011 295.792 241.293 318.717 238.011C322.421 246.011 326.021 273.758 321.904 282.511C312.381 302.752 293.404 314.511 266.904 323.511Z" fill="#FFA6A8"/>
<path d="M137.404 324.011C146.404 271.011 105.84 241.293 82.9146 238.011C79.2112 246.011 75.6104 273.758 79.7283 282.511C89.2511 302.752 106.904 312.511 137.404 324.011Z" fill="#FFA6A8"/>
<path d="M101.667 148.347C88.2821 174.074 84.7601 204.815 84.6354 230.628C84.5795 242.216 74.6144 258.583 79.772 280.208C86.3558 307.812 127.869 324.12 163.737 330.686C178.091 333.315 216.591 334.607 238.005 330.686C273.873 324.12 315.386 307.812 321.97 280.208C327.128 258.583 317.163 242.216 317.107 230.628C316.982 204.815 313.46 174.074 300.075 148.347M127.397 116.7C144.487 103.21 168.125 94.6238 200.658 94.5495V94.5475C200.729 94.5475 200.799 94.5484 200.87 94.5485C200.941 94.5484 201.013 94.5475 201.084 94.5475V94.5495C233.617 94.6239 257.255 103.21 274.345 116.7" stroke="#474847" stroke-width="7" stroke-linecap="round" stroke-linejoin="round"/>
<ellipse cx="157.684" cy="249.011" rx="10.2804" ry="11" fill="#474847"/>
<ellipse cx="247.123" cy="249.011" rx="10.2804" ry="11" fill="#474847"/>
<path d="M182.356 264.511C182.356 264.511 183.641 269.511 192.765 269.511C201.889 269.511 203.174 264.511 203.174 264.511C203.174 264.511 205.744 269.511 213.583 269.511C221.422 269.511 223.992 264.511 223.992 264.511" stroke="#474847" stroke-width="7" stroke-linecap="round" stroke-linejoin="round"/>
</svg>
