<svg width="306" height="323" viewBox="0 0 306 323" fill="none" xmlns="http://www.w3.org/2000/svg">
<path d="M206.627 2.23176C200.63 0.217425 185.139 11.2964 171.647 37.4827C165.817 33.1183 149.659 29.929 131.669 37.4826C124.673 27.5788 107.882 2.63458 98.6875 2.23171C83.1963 1.55296 69.2042 18.85 60.709 50.5757C30.726 48.9643 14.9017 64.6761 10.7375 70.2155C5.74026 74.9156 1.74242 93.5818 25.7288 130.646C14.5352 138.3 11.0706 171.772 10.7375 187.551C-11.4166 233.712 -1.25576 321 153.157 321C316.065 321 316.065 230.355 293.078 187.551C294.077 163.379 289.08 139.206 285.582 126.113C305.571 106.474 300.074 72.7334 299.075 70.2155C298.075 67.6976 290.079 49.065 244.105 50.5757C237.609 17.8426 212.623 4.24609 206.627 2.23176Z" fill="white" stroke="#A5A5A5" stroke-width="4" stroke-linecap="round" stroke-dasharray="8 8"/>
<path d="M31.6001 83.6758C36.9371 66.6758 73.9367 73.5034 85.2671 74.6184C105.531 85.4537 91.106 139.586 75.8692 138.512C52.8213 136.888 25.3212 103.676 31.6001 83.6758Z" fill="#FFD8D4"/>
<path d="M274.254 83.6758C268.917 66.6758 231.917 73.5034 220.587 74.6184C200.323 85.4537 214.748 139.586 229.985 138.512C253.033 136.888 280.533 103.676 274.254 83.6758Z" fill="#FFD8D4"/>
<path d="M31.6002 86.1758C28.0002 100.976 41.7669 117.676 49.1002 124.176C66.7003 124.176 75.1002 102.509 77.1002 91.6758C67.7669 87.8424 45.6002 81.3758 31.6002 86.1758Z" fill="#F76363"/>
<path d="M276.511 86.1758C280.111 100.976 266.344 117.676 259.011 124.176C241.411 124.176 233.011 102.509 231.011 91.6758C240.344 87.8424 262.511 81.3758 276.511 86.1758Z" fill="#F76363"/>
<path d="M101.116 31.3289C109.853 31.9563 110.6 46.6757 126.1 60.1756C119.7 79.3756 97.0365 79.1679 86.5046 76.664C72.3814 50.5296 90.1954 30.5447 101.116 31.3289Z" fill="#EBD1B2"/>
<path d="M206.698 31.3289C197.961 31.9563 197.214 46.6757 181.714 60.1756C188.649 68.1679 206.278 82.6546 221.31 76.664C235.433 50.5296 217.619 30.5447 206.698 31.3289Z" fill="#EBD1B2"/>
<path d="M153.813 58.1776C253.104 58.4042 269.488 137.848 269.759 193.96C269.815 205.522 279.774 221.854 274.62 243.432C265.462 281.774 188.664 298.273 153.6 297.119C118.537 298.273 41.7389 281.774 32.5802 243.432C27.4258 221.854 37.3845 205.522 37.4404 193.96C37.7117 137.848 54.0959 58.404 153.387 58.1776V58.1755C153.458 58.1755 153.529 58.1765 153.599 58.1766C153.67 58.1765 153.742 58.1755 153.813 58.1755V58.1776Z" fill="#FFD8D4"/>
<path d="M39.3604 71.676C34.3494 73.6514 30.0143 77.0433 28.2612 82.6273C26.3928 88.5788 27.1147 95.2135 29.3188 101.596C31.5332 108.008 35.3319 114.44 40.0239 120.196C49.2874 131.561 62.7283 141.095 75.6237 142.003C78.6366 142.216 81.3552 141.034 83.6162 139.29C85.8661 137.555 87.8602 135.121 89.5844 132.358C93.0365 126.826 95.7614 119.404 97.3115 111.724C98.8615 104.045 99.2959 95.8179 97.9278 88.6666C96.5682 81.5597 93.2944 74.9413 86.9174 71.5314L86.7635 71.4545C86.4006 71.2828 86.0099 71.1746 85.6095 71.1352C80.2746 70.6102 67.7185 68.5693 56.0998 68.8551C50.2638 68.9986 44.312 69.724 39.3604 71.676ZM34.9397 84.7243C35.8551 81.8084 38.1457 79.6787 41.927 78.1879C45.7679 76.6738 50.775 75.9881 56.2722 75.8529C66.8705 75.5923 77.9853 77.3559 84.1655 78.0209C87.6176 80.1361 89.9516 84.2251 91.0528 89.9814C92.203 95.9934 91.878 103.265 90.4503 110.338C89.0226 117.411 86.5501 123.998 83.6458 128.652C82.1915 130.982 80.7168 132.686 79.3406 133.748C77.9757 134.801 76.9112 135.077 76.1151 135.021C65.9626 134.305 54.1285 126.421 45.4497 115.774C41.1707 110.524 37.8317 104.801 35.9356 99.3104C34.0291 93.7898 33.6688 88.7728 34.9397 84.7243Z" fill="black"/>
<path d="M266.494 71.676C271.505 73.6514 275.84 77.0433 277.593 82.6273C279.461 88.5788 278.739 95.2135 276.535 101.596C274.321 108.008 270.522 114.44 265.83 120.196C256.567 131.561 243.126 141.095 230.23 142.003C227.217 142.216 224.499 141.034 222.238 139.29C219.988 137.555 217.994 135.121 216.27 132.358C212.817 126.826 210.093 119.404 208.543 111.724C206.992 104.045 206.558 95.8179 207.926 88.6666C209.286 81.5597 212.56 74.9413 218.937 71.5314L219.09 71.4545C219.453 71.2828 219.844 71.1746 220.245 71.1352C225.579 70.6102 238.135 68.5693 249.754 68.8551C255.59 68.9986 261.542 69.724 266.494 71.676ZM270.914 84.7243C269.999 81.8084 267.708 79.6787 263.927 78.1879C260.086 76.6738 255.079 75.9881 249.582 75.8529C238.984 75.5923 227.869 77.3559 221.689 78.0209C218.236 80.1361 215.902 84.2251 214.801 89.9814C213.651 95.9934 213.976 103.265 215.404 110.338C216.831 117.411 219.304 123.998 222.208 128.652C223.662 130.982 225.137 132.686 226.513 133.748C227.878 134.801 228.943 135.077 229.739 135.021C239.891 134.305 251.726 126.421 260.404 115.774C264.683 110.524 268.022 104.801 269.918 99.3104C271.825 93.7898 272.185 88.7728 270.914 84.7243Z" fill="black"/>
<path d="M101.367 27.8375C104.693 28.0765 107.155 29.711 109.105 31.8358C110.942 33.8375 112.525 36.5024 114.086 39.145C117.303 44.5917 121.12 51.1956 128.399 57.5361C129.857 58.8056 130.009 61.0166 128.74 62.4742C127.47 63.9317 125.259 64.0848 123.802 62.8155C115.581 55.656 111.274 48.1501 108.058 42.7052C106.402 39.9022 105.192 37.9252 103.948 36.5687C102.816 35.3353 101.907 34.8948 100.865 34.82C99.213 34.7015 96.8563 35.3767 94.2992 37.2369C91.7925 39.0605 89.342 41.8554 87.5536 45.4581C84.0268 52.5626 83.0404 62.8915 89.5835 74.9995C90.5025 76.7001 89.8688 78.8237 88.1683 79.7427C86.4677 80.6617 84.3441 80.0281 83.4251 78.3275C75.8456 64.3015 76.7041 51.5709 81.2836 42.3457C83.5484 37.7835 86.717 34.0959 90.1805 31.5762C93.5933 29.0934 97.5588 27.5641 101.367 27.8375Z" fill="black"/>
<path d="M95.5471 46.7969C94.7856 45.0203 92.7281 44.1976 90.9514 44.959L80.4514 49.459C78.6749 50.2205 77.8521 52.278 78.6135 54.0547C79.3751 55.8312 81.4326 56.654 83.2092 55.8926L93.7092 51.3926C95.4858 50.631 96.3085 48.5735 95.5471 46.7969Z" fill="black"/>
<path d="M95.5471 56.7969C94.7856 55.0203 92.7281 54.1976 90.9514 54.959L80.4514 59.459C78.6749 60.2205 77.8521 62.278 78.6135 64.0547C79.3751 65.8312 81.4326 66.654 83.2092 65.8926L93.7092 61.3926C95.4858 60.631 96.3085 58.5735 95.5471 56.7969Z" fill="black"/>
<path d="M206.447 27.8375C203.121 28.0765 200.659 29.711 198.709 31.8358C196.872 33.8375 195.289 36.5024 193.729 39.145C190.512 44.5917 186.695 51.1956 179.415 57.5361C177.958 58.8056 177.805 61.0166 179.075 62.4742C180.344 63.9317 182.555 64.0848 184.013 62.8155C192.233 55.656 196.541 48.1501 199.757 42.7052C201.412 39.9022 202.622 37.9252 203.867 36.5687C204.999 35.3353 205.908 34.8948 206.949 34.82C208.601 34.7015 210.958 35.3767 213.515 37.2369C216.022 39.0605 218.472 41.8554 220.261 45.4581C223.788 52.5626 224.774 62.8915 218.231 74.9995C217.312 76.7001 217.946 78.8237 219.646 79.7427C221.347 80.6617 223.47 80.0281 224.389 78.3275C231.969 64.3015 231.11 51.5709 226.531 42.3457C224.266 37.7835 221.097 34.0959 217.634 31.5762C214.221 29.0934 210.256 27.5641 206.447 27.8375Z" fill="black"/>
<path d="M212.267 46.7969C213.029 45.0203 215.086 44.1976 216.863 44.959L227.363 49.459C229.14 50.2205 229.962 52.278 229.201 54.0547C228.439 55.8312 226.382 56.654 224.605 55.8926L214.105 51.3926C212.329 50.631 211.506 48.5735 212.267 46.7969Z" fill="black"/>
<path d="M212.267 56.7969C213.029 55.0203 215.086 54.1976 216.863 54.959L227.363 59.459C229.14 60.2205 229.962 62.278 229.201 64.0547C228.439 65.8312 226.382 66.654 224.605 65.8926L214.105 61.3926C212.329 60.631 211.506 58.5735 212.267 56.7969Z" fill="black"/>
<path d="M153.781 57.7146C253.137 57.9415 269.532 137.56 269.804 193.794C269.86 205.381 279.824 221.748 274.667 243.373C265.502 281.799 188.653 298.334 153.567 297.177C118.481 298.334 41.6332 281.798 32.4686 243.373C27.3112 221.748 37.2768 205.381 37.3329 193.794C37.6044 137.56 53.999 57.9413 153.355 57.7146V57.7126C153.426 57.7126 153.497 57.7135 153.568 57.7136C153.639 57.7135 153.71 57.7126 153.781 57.7126V57.7146Z" fill="#FFD8D4"/>
<path d="M88.5002 270.148C77.4791 259.705 85.1012 231.364 100.6 229.676C116.099 227.988 128.6 207.676 154.6 207.676C180.6 207.676 183.6 222.397 202.6 226.676C221.6 230.955 228.042 254.602 221.6 265.176C213.547 278.393 191.677 292.176 156.952 292.176C120.403 292.176 104.29 285.108 88.5002 270.148Z" fill="#FDFFFF"/>
<path d="M219.6 286.676C211.6 222.176 248.489 204.458 271.414 201.176C275.117 209.176 278.718 236.923 274.6 245.676C265.077 265.917 246.1 277.676 219.6 286.676Z" fill="#FFA6A8"/>
<path d="M90.1 287.176C99.1 234.176 58.5359 204.458 35.6108 201.176C31.9075 209.176 28.3067 236.923 32.4246 245.676C41.9473 265.917 59.6 275.676 90.1 287.176Z" fill="#FFA6A8"/>
<path d="M251.157 108.407C252.872 107.515 254.985 108.182 255.878 109.896C269.639 136.348 273.178 167.744 273.303 193.776C273.315 196.232 273.859 199.087 274.712 202.552C275.522 205.845 276.677 209.925 277.605 214.052C279.517 222.553 280.825 232.644 278.072 244.185C274.428 259.463 261.296 271.082 245.31 279.591C229.207 288.161 209.488 293.971 191.333 297.295C180.294 299.316 165.051 299.97 150.881 299.807C136.717 299.645 123.271 298.662 115.803 297.295C97.6479 293.971 77.9286 288.161 61.8258 279.591C45.8402 271.082 32.7079 259.463 29.0641 244.185C26.3115 232.644 27.6192 222.553 29.5309 214.052C30.4587 209.925 31.6143 205.845 32.4245 202.552C33.2769 199.087 33.8208 196.232 33.8327 193.776C33.9584 167.744 37.4968 136.348 51.2584 109.896C52.1507 108.182 54.2644 107.515 55.9791 108.407C57.6938 109.299 58.3605 111.413 57.4684 113.128C44.4613 138.13 40.9562 168.216 40.8327 193.81C40.8165 197.148 40.0929 200.685 39.2223 204.223C38.3095 207.934 37.2858 211.47 36.36 215.587C34.5646 223.571 33.4686 232.477 35.8737 242.561C38.8137 254.888 49.7303 265.224 65.1139 273.412C80.3805 281.538 99.3522 287.166 117.064 290.409C123.95 291.67 136.932 292.647 150.961 292.807C164.982 292.968 179.696 292.309 190.072 290.409C207.784 287.166 226.755 281.538 242.022 273.412C257.406 265.224 268.322 254.888 271.262 242.561C273.667 232.477 272.571 223.571 270.776 215.587C269.85 211.47 268.827 207.934 267.914 204.223C267.043 200.685 266.319 197.148 266.303 193.81C266.18 168.216 262.675 138.13 249.668 113.128C248.775 111.413 249.442 109.299 251.157 108.407ZM153.872 54.2156C187.002 54.3057 211.416 63.0712 229.211 77.1179C230.728 78.3155 230.987 80.5167 229.79 82.0339C228.592 83.5511 226.391 83.8104 224.874 82.613C208.504 69.6913 185.666 61.2875 153.773 61.2146C153.753 61.2146 153.733 61.213 153.713 61.2126C153.649 61.2128 153.79 61.2134 153.571 61.2136H153.563C153.337 61.2134 153.491 61.2128 153.423 61.2126C153.403 61.213 153.383 61.2146 153.363 61.2146C121.47 61.2874 98.6323 69.6912 82.2623 82.613C80.7451 83.8105 78.5439 83.5511 77.3463 82.0339C76.1487 80.5167 76.4082 78.3156 77.9254 77.1179C95.7203 63.0714 120.133 54.3058 153.263 54.2156C153.294 54.2148 153.325 54.2126 153.355 54.2126C153.404 54.2126 153.451 54.2134 153.485 54.2136H153.65C153.685 54.2134 153.732 54.2126 153.781 54.2126C153.811 54.2126 153.842 54.2148 153.872 54.2156Z" fill="black"/>
<path d="M120.661 212.176C120.661 218.251 116.058 223.176 110.38 223.176C104.703 223.176 100.1 218.251 100.1 212.176C100.1 206.1 104.703 201.176 110.38 201.176C116.058 201.176 120.661 206.1 120.661 212.176Z" fill="black"/>
<path d="M210.1 212.176C210.1 218.251 205.498 223.176 199.82 223.176C194.142 223.176 189.54 218.251 189.54 212.176C189.54 206.1 194.142 201.176 199.82 201.176C205.498 201.176 210.1 206.1 210.1 212.176Z" fill="black"/>
<path d="M134.182 224.286C135.998 223.819 137.847 224.866 138.395 226.638C138.403 226.656 138.42 226.693 138.449 226.744C138.534 226.896 138.728 227.188 139.111 227.515C139.825 228.126 141.572 229.175 145.463 229.175C149.353 229.175 151.099 228.126 151.813 227.515C152.196 227.188 152.39 226.896 152.475 226.744C152.51 226.682 152.528 226.642 152.533 226.63C152.945 225.312 154.098 224.352 155.481 224.197C156.92 224.036 158.309 224.777 158.976 226.061C158.974 226.057 158.972 226.052 158.97 226.049C158.966 226.041 158.963 226.034 158.96 226.028C158.954 226.017 158.95 226.01 158.948 226.007C158.95 226.01 158.955 226.019 158.964 226.033C158.992 226.079 159.057 226.178 159.161 226.312C159.37 226.582 159.731 226.986 160.272 227.403C161.312 228.204 163.17 229.175 166.28 229.175C169.39 229.175 171.248 228.204 172.288 227.403C172.829 226.986 173.19 226.582 173.399 226.312C173.503 226.178 173.567 226.079 173.596 226.033C173.61 226.011 173.616 226.001 173.613 226.007C173.611 226.01 173.606 226.017 173.6 226.028C173.597 226.034 173.594 226.041 173.59 226.049C173.587 226.052 173.586 226.057 173.584 226.061C174.472 224.353 176.574 223.681 178.289 224.562C180.008 225.446 180.685 227.556 179.801 229.275L176.689 227.675C179.651 229.198 179.793 229.274 179.799 229.279C179.799 229.28 179.798 229.282 179.798 229.283C179.796 229.286 179.795 229.289 179.794 229.292C179.791 229.297 179.787 229.303 179.784 229.309C179.777 229.322 179.77 229.336 179.761 229.351C179.745 229.381 179.726 229.417 179.704 229.457C179.659 229.536 179.601 229.634 179.53 229.748C179.388 229.975 179.19 230.267 178.931 230.601C178.414 231.269 177.641 232.115 176.56 232.948C174.355 234.647 171.009 236.175 166.28 236.175C161.633 236.175 158.323 234.698 156.117 233.035C153.9 234.824 150.507 236.175 145.463 236.175C140.229 236.175 136.771 234.725 134.561 232.836C133.483 231.914 132.785 230.955 132.344 230.17C132.125 229.779 131.97 229.432 131.863 229.155C131.809 229.016 131.766 228.894 131.734 228.792C131.718 228.741 131.705 228.695 131.693 228.654C131.687 228.634 131.681 228.614 131.676 228.596C131.674 228.587 131.672 228.578 131.67 228.57C131.669 228.566 131.668 228.562 131.667 228.558C131.666 228.556 131.665 228.553 131.665 228.552C131.664 228.55 131.686 228.541 135.053 227.675L131.664 228.547C131.183 226.674 132.31 224.767 134.182 224.286ZM138.441 226.799C138.441 226.799 138.441 226.794 138.44 226.793C138.439 226.789 138.438 226.785 138.437 226.782C138.435 226.775 138.434 226.769 138.432 226.762C138.429 226.749 138.425 226.737 138.422 226.726L138.441 226.799ZM152.519 226.672C152.515 226.686 152.509 226.704 152.503 226.726C152.499 226.737 152.496 226.749 152.493 226.762C152.491 226.769 152.489 226.775 152.487 226.782C152.486 226.785 152.485 226.789 152.484 226.793C152.484 226.794 152.483 226.796 152.483 226.798C152.498 226.741 152.516 226.686 152.533 226.631C152.53 226.637 152.526 226.65 152.519 226.672Z" fill="black"/>
</svg>
