<svg width="420" height="420" viewBox="0 0 420 420" fill="none" xmlns="http://www.w3.org/2000/svg">
<path d="M77.2416 222.698C77.2416 94.1977 165.075 69.1975 212.742 74.6975C291.742 70.6976 343.742 130.697 341.242 222.698C362.242 280.698 341.241 346.198 206.241 346.198C82.0146 346.198 59.741 284.198 77.2416 222.698Z" fill="white" stroke="#A5A5A5" stroke-width="4" stroke-linecap="round" stroke-linejoin="round" stroke-dasharray="8 8"/>
<path d="M210.226 94.6995C304.412 94.9147 319.953 170.39 320.211 223.698C320.264 234.682 329.711 250.198 324.822 270.698C316.134 307.124 243.285 322.799 210.024 321.702C176.764 322.799 103.914 307.124 95.2262 270.698C90.3369 250.198 99.7835 234.682 99.8366 223.698C100.094 170.389 115.636 94.9145 209.822 94.6995V94.6975C209.889 94.6975 209.956 94.6984 210.023 94.6985C210.091 94.6984 210.159 94.6975 210.226 94.6975V94.6995Z" fill="#FFD8D4"/>
<path d="M167.822 235.698C167.822 241.773 163.345 246.698 157.822 246.698C152.299 246.698 147.822 241.773 147.822 235.698C147.822 229.622 152.299 224.698 157.822 224.698C163.345 224.698 167.822 229.622 167.822 235.698Z" fill="black"/>
<path d="M272.822 235.698C272.822 241.773 268.345 246.698 262.822 246.698C257.299 246.698 252.822 241.773 252.822 235.698C252.822 229.622 257.299 224.698 262.822 224.698C268.345 224.698 272.822 229.622 272.822 235.698Z" fill="black"/>
<path d="M210.163 94.6995C304.349 94.9147 319.891 170.39 320.148 223.698C320.201 234.682 329.648 250.198 324.758 270.698C316.071 307.124 243.221 322.799 209.961 321.702C176.7 322.799 103.851 307.124 95.1627 270.698C90.2734 250.198 99.7201 234.682 99.7731 223.698C100.03 170.389 115.572 94.9145 209.758 94.6995V94.6975C209.826 94.6975 209.893 94.6984 209.96 94.6985C210.027 94.6984 210.095 94.6975 210.163 94.6975V94.6995Z" fill="#FFD8D4"/>
<path d="M179.236 302.734C151.223 305.739 113.416 285.962 96.7412 275.698C100.741 297.477 152.223 321.135 209.25 322.637C266.277 324.139 329.744 289.222 323.241 271.198C293.08 302.734 260.274 302.734 241.765 302.734C223.256 302.734 219.255 297.102 209.25 297.477C199.245 297.853 196.244 302.734 179.236 302.734Z" fill="#F3C5C0"/>
<path d="M163.677 316.698C164.077 255.898 120.843 234.698 99.1765 231.698C94.1765 239.364 91.7846 265.198 95.6765 273.198C104.677 291.698 115.677 301.698 163.677 316.698Z" fill="#FFA6A8"/>
<path d="M255.744 316.698C255.344 255.898 298.578 234.698 320.244 231.698C325.244 239.364 327.636 265.198 323.744 273.198C314.744 291.698 303.744 301.698 255.744 316.698Z" fill="#FFA6A8"/>
<path d="M210.265 91.2004C258.427 91.3357 287.001 110.808 303.361 137.457C319.556 163.836 323.519 196.81 323.648 223.681C323.66 225.986 324.17 228.674 324.978 231.956C325.743 235.067 326.842 238.95 327.722 242.862C329.537 250.934 330.781 260.531 328.163 271.509C325.741 281.664 318.914 290.099 309.964 296.965C301.006 303.837 289.681 309.327 277.746 313.569C253.959 322.021 227.063 325.746 209.96 325.202C192.857 325.745 165.961 322.021 142.175 313.569C130.24 309.327 118.916 303.837 109.958 296.965C101.008 290.099 94.18 281.664 91.7578 271.509C89.1395 260.531 90.385 250.934 92.2002 242.862C93.0798 238.95 94.179 235.067 94.9444 231.956C95.7519 228.674 96.2623 225.986 96.2735 223.681C96.4032 196.81 100.365 163.836 116.56 137.457C132.92 110.808 161.494 91.3357 209.656 91.2004C209.69 91.1995 209.725 91.1975 209.759 91.1975C209.806 91.1975 209.851 91.1983 209.884 91.1985H210.037C210.07 91.1983 210.116 91.1975 210.163 91.1975C210.197 91.1975 210.231 91.1995 210.265 91.2004ZM209.964 98.1985H209.956C209.735 98.1982 209.887 98.1977 209.826 98.1975C209.806 98.1979 209.787 98.1994 209.767 98.1995C163.8 98.3044 137.537 116.668 122.525 141.119C107.338 165.858 103.401 197.277 103.273 223.714C103.258 226.902 102.567 230.273 101.741 233.629C100.873 237.157 99.9068 240.494 99.0293 244.397C97.3303 251.953 96.2965 260.365 98.5674 269.886C100.489 277.943 106.026 285.128 114.218 291.411C122.402 297.689 132.998 302.879 144.519 306.973C167.59 315.171 193.682 318.737 209.846 318.204H210.076C226.24 318.737 252.331 315.171 275.402 306.973C286.923 302.879 297.519 297.689 305.703 291.411C313.895 285.128 319.432 277.943 321.354 269.886C323.624 260.365 322.591 251.953 320.892 244.397C320.014 240.494 319.048 237.157 318.18 233.629C317.354 230.273 316.664 226.902 316.648 223.714C316.521 197.277 312.583 165.859 297.396 141.12C282.384 116.669 256.121 98.3045 210.154 98.1995C210.134 98.1994 210.115 98.1979 210.095 98.1975C210.037 98.1977 210.178 98.1982 209.964 98.1985Z" fill="black"/>
<path d="M174.302 242.698C174.302 248.773 169.699 253.698 164.022 253.698C158.344 253.698 153.741 248.773 153.741 242.698C153.741 236.622 158.344 231.698 164.022 231.698C169.699 231.698 174.302 236.622 174.302 242.698Z" fill="black"/>
<path d="M263.741 242.698C263.741 248.773 259.139 253.698 253.461 253.698C247.783 253.698 243.181 248.773 243.181 242.698C243.181 236.622 247.783 231.698 253.461 231.698C259.139 231.698 263.741 236.622 263.741 242.698Z" fill="black"/>
<path d="M187.824 260.808C189.64 260.341 191.488 261.388 192.037 263.16C192.045 263.178 192.062 263.215 192.09 263.266C192.176 263.418 192.369 263.71 192.753 264.037C193.467 264.648 195.214 265.697 199.104 265.697C202.994 265.697 204.741 264.648 205.455 264.037C205.838 263.709 206.032 263.418 206.117 263.266C206.152 263.204 206.169 263.164 206.174 263.152C206.587 261.834 207.739 260.874 209.123 260.719C210.562 260.558 211.951 261.299 212.618 262.583C212.616 262.579 212.614 262.574 212.612 262.57C212.608 262.563 212.604 262.556 212.601 262.55C212.595 262.539 212.591 262.532 212.59 262.529C212.592 262.532 212.597 262.541 212.605 262.555C212.634 262.601 212.698 262.7 212.802 262.834C213.012 263.104 213.372 263.508 213.914 263.925C214.954 264.726 216.812 265.697 219.922 265.697C223.031 265.697 224.89 264.726 225.929 263.925C226.471 263.508 226.832 263.104 227.041 262.834C227.145 262.7 227.209 262.601 227.238 262.555C227.252 262.533 227.257 262.523 227.255 262.529C227.253 262.532 227.248 262.539 227.242 262.55C227.239 262.556 227.235 262.563 227.231 262.57C227.229 262.574 227.228 262.579 227.225 262.583C228.113 260.875 230.216 260.203 231.93 261.084C233.649 261.968 234.327 264.078 233.443 265.797L230.331 264.197C233.292 265.72 233.435 265.796 233.441 265.801C233.441 265.802 233.44 265.804 233.439 265.805C233.438 265.808 233.437 265.811 233.435 265.814C233.432 265.819 233.429 265.825 233.425 265.831C233.419 265.844 233.411 265.858 233.403 265.873C233.387 265.903 233.368 265.939 233.345 265.979C233.3 266.058 233.243 266.156 233.172 266.27C233.029 266.497 232.832 266.789 232.573 267.123C232.055 267.791 231.283 268.637 230.202 269.47C227.997 271.169 224.65 272.697 219.922 272.697C215.275 272.697 211.964 271.22 209.758 269.557C207.541 271.346 204.149 272.697 199.104 272.697C193.871 272.697 190.412 271.247 188.203 269.358C187.125 268.435 186.427 267.477 185.986 266.692C185.767 266.301 185.612 265.954 185.505 265.677C185.451 265.538 185.408 265.416 185.376 265.314C185.36 265.263 185.346 265.217 185.335 265.176C185.329 265.156 185.323 265.136 185.318 265.118C185.316 265.109 185.313 265.1 185.311 265.092C185.31 265.088 185.309 265.084 185.308 265.08C185.308 265.078 185.307 265.075 185.306 265.074C185.306 265.072 185.328 265.063 188.695 264.197L185.305 265.069C184.824 263.196 185.952 261.289 187.824 260.808ZM192.083 263.321C192.082 263.321 192.082 263.316 192.082 263.315C192.081 263.311 192.08 263.307 192.079 263.304C192.077 263.297 192.076 263.291 192.074 263.284C192.07 263.271 192.066 263.259 192.063 263.248L192.083 263.321ZM206.161 263.194C206.156 263.208 206.151 263.226 206.144 263.248C206.141 263.259 206.138 263.271 206.134 263.284C206.133 263.291 206.13 263.297 206.129 263.304C206.128 263.307 206.127 263.311 206.126 263.315C206.125 263.316 206.125 263.318 206.125 263.32C206.139 263.263 206.157 263.208 206.174 263.153C206.172 263.159 206.167 263.172 206.161 263.194Z" fill="black"/>
</svg>
