<svg width="281" height="277" viewBox="0 0 281 277" fill="none" xmlns="http://www.w3.org/2000/svg">
<path d="M7.23965 150.698C7.23965 22.1977 95.0731 -2.8025 142.74 2.6975C221.74 -1.30236 273.74 58.6974 271.24 150.698C292.24 208.698 271.239 274.198 136.239 274.198C12.0126 274.198 -10.261 212.198 7.23965 150.698Z" fill="white" stroke="#A5A5A5" stroke-width="4" stroke-linecap="round" stroke-linejoin="round" stroke-dasharray="8 8"/>
<path d="M140.225 22.6995C234.411 22.9147 249.952 98.3896 250.21 151.698C250.263 162.682 259.71 178.198 254.821 198.698C246.133 235.124 173.284 250.799 140.023 249.702C106.763 250.799 33.9131 235.124 25.2252 198.698C20.3359 178.198 29.7826 162.682 29.8356 151.698C30.0929 98.3895 45.6348 22.9145 139.821 22.6995V22.6975C139.888 22.6975 139.955 22.6984 140.022 22.6985C140.09 22.6984 140.158 22.6975 140.225 22.6975V22.6995Z" fill="#FFD8D4"/>
<path d="M97.8203 163.698C97.8203 169.773 93.3432 174.698 87.8203 174.698C82.2975 174.698 77.8203 169.773 77.8203 163.698C77.8203 157.622 82.2975 152.698 87.8203 152.698C93.3432 152.698 97.8203 157.622 97.8203 163.698Z" fill="black"/>
<path d="M202.82 163.698C202.82 169.773 198.343 174.698 192.82 174.698C187.297 174.698 182.82 169.773 182.82 163.698C182.82 157.622 187.297 152.698 192.82 152.698C198.343 152.698 202.82 157.622 202.82 163.698Z" fill="black"/>
<path d="M140.161 22.6995C234.347 22.9147 249.889 98.3896 250.146 151.698C250.199 162.682 259.646 178.198 254.757 198.698C246.069 235.124 173.219 250.799 139.959 249.702C106.698 250.799 33.8487 235.124 25.1608 198.698C20.2715 178.198 29.7181 162.682 29.7711 151.698C30.0285 98.3895 45.5704 22.9145 139.757 22.6995V22.6975C139.824 22.6975 139.891 22.6984 139.958 22.6985C140.025 22.6984 140.093 22.6975 140.161 22.6975V22.6995Z" fill="#FFD8D4"/>
<path d="M109.234 230.734C81.2206 233.739 43.4138 213.962 26.7393 203.698C30.7393 225.477 82.221 249.135 139.248 250.637C196.275 252.139 259.742 217.222 253.239 199.198C223.078 230.734 190.272 230.734 171.763 230.734C153.254 230.734 149.253 225.102 139.248 225.477C129.243 225.853 126.242 230.734 109.234 230.734Z" fill="#F3C5C0"/>
<path d="M93.6746 244.698C94.0746 183.898 50.8412 162.698 29.1746 159.698C24.1745 167.364 21.7826 193.198 25.6745 201.198C34.6746 219.698 45.6746 229.698 93.6746 244.698Z" fill="#FFA6A8"/>
<path d="M185.741 244.698C185.341 183.898 228.575 162.698 250.241 159.698C255.241 167.364 257.633 193.198 253.741 201.198C244.741 219.698 233.741 229.698 185.741 244.698Z" fill="#FFA6A8"/>
<path d="M140.263 19.2004C188.425 19.3357 216.999 38.8082 233.359 65.4573C249.554 91.8364 253.517 124.81 253.646 151.681C253.658 153.986 254.168 156.674 254.976 159.956C255.741 163.067 256.84 166.95 257.72 170.862C259.535 178.934 260.779 188.531 258.161 199.509C255.739 209.664 248.912 218.099 239.962 224.965C231.004 231.837 219.679 237.327 207.744 241.569C183.957 250.021 157.061 253.746 139.958 253.202C122.855 253.745 95.9594 250.021 72.1729 241.569C60.2378 237.327 48.914 231.837 39.9561 224.965C31.0057 218.099 24.178 209.664 21.7559 199.509C19.1376 188.531 20.383 178.934 22.1983 170.862C23.0778 166.95 24.177 163.067 24.9424 159.956C25.7499 156.674 26.2603 153.986 26.2715 151.681C26.4012 124.81 30.3633 91.8364 46.5576 65.4573C62.9177 38.8082 91.4924 19.3357 139.654 19.2004C139.688 19.1995 139.723 19.1975 139.757 19.1975C139.804 19.1975 139.849 19.1983 139.882 19.1985H140.035C140.068 19.1983 140.114 19.1975 140.161 19.1975C140.195 19.1975 140.229 19.1995 140.263 19.2004ZM139.962 26.1985H139.954C139.733 26.1982 139.886 26.1977 139.824 26.1975C139.804 26.1979 139.785 26.1994 139.765 26.1995C93.7977 26.3044 67.5346 44.6678 52.5235 69.1194C37.336 93.8584 33.3991 125.277 33.2715 151.714C33.2561 154.902 32.565 158.273 31.7393 161.629C30.8713 165.157 29.9049 168.494 29.0274 172.397C27.3284 179.953 26.2946 188.365 28.5654 197.886C30.4873 205.943 36.0244 213.128 44.2158 219.411C52.3999 225.689 62.996 230.879 74.5166 234.973C97.5881 243.171 123.68 246.737 139.844 246.204H140.074C156.238 246.737 182.329 243.171 205.4 234.973C216.921 230.879 227.517 225.689 235.701 219.411C243.893 213.128 249.43 205.943 251.352 197.886C253.622 188.365 252.589 179.953 250.89 172.397C250.012 168.494 249.046 165.157 248.178 161.629C247.352 158.273 246.662 154.902 246.646 151.714C246.519 125.277 242.581 93.8593 227.394 69.1204C212.382 44.6686 186.119 26.3045 140.152 26.1995C140.132 26.1994 140.113 26.1979 140.093 26.1975C140.035 26.1977 140.176 26.1982 139.962 26.1985Z" fill="black"/>
<path d="M104.3 170.698C104.3 176.773 99.6973 181.698 94.0196 181.698C88.3419 181.698 83.7393 176.773 83.7393 170.698C83.7393 164.622 88.3419 159.698 94.0196 159.698C99.6973 159.698 104.3 164.622 104.3 170.698Z" fill="black"/>
<path d="M193.739 170.698C193.739 176.773 189.137 181.698 183.459 181.698C177.781 181.698 173.179 176.773 173.179 170.698C173.179 164.622 177.781 159.698 183.459 159.698C189.137 159.698 193.739 164.622 193.739 170.698Z" fill="black"/>
<path d="M117.822 188.808C119.638 188.341 121.486 189.388 122.035 191.16C122.043 191.178 122.06 191.215 122.089 191.266C122.174 191.418 122.367 191.71 122.751 192.037C123.465 192.648 125.212 193.697 129.102 193.697C132.992 193.697 134.739 192.648 135.453 192.037C135.836 191.709 136.03 191.418 136.115 191.266C136.15 191.204 136.167 191.164 136.173 191.152C136.585 189.834 137.737 188.874 139.121 188.719C140.56 188.558 141.949 189.299 142.616 190.583C142.614 190.579 142.612 190.574 142.61 190.57C142.606 190.563 142.602 190.556 142.599 190.55C142.593 190.539 142.589 190.532 142.588 190.529C142.59 190.532 142.595 190.541 142.603 190.555C142.632 190.601 142.696 190.7 142.8 190.834C143.01 191.104 143.37 191.508 143.912 191.925C144.952 192.726 146.81 193.697 149.92 193.697C153.029 193.697 154.888 192.726 155.927 191.925C156.469 191.508 156.83 191.104 157.039 190.834C157.143 190.7 157.207 190.601 157.236 190.555C157.25 190.533 157.255 190.523 157.253 190.529C157.251 190.532 157.246 190.539 157.24 190.55C157.237 190.556 157.233 190.563 157.229 190.57C157.227 190.574 157.226 190.579 157.223 190.583C158.111 188.875 160.214 188.203 161.928 189.084C163.647 189.968 164.325 192.078 163.441 193.797L160.329 192.197C163.29 193.72 163.433 193.796 163.439 193.801C163.439 193.802 163.438 193.804 163.437 193.805C163.436 193.808 163.435 193.811 163.433 193.814C163.43 193.819 163.427 193.825 163.423 193.831C163.417 193.844 163.409 193.858 163.401 193.873C163.385 193.903 163.366 193.939 163.343 193.979C163.298 194.058 163.241 194.156 163.17 194.27C163.027 194.497 162.83 194.789 162.571 195.123C162.053 195.791 161.281 196.637 160.2 197.47C157.995 199.169 154.648 200.697 149.92 200.697C145.273 200.697 141.962 199.22 139.757 197.557C137.539 199.346 134.147 200.697 129.102 200.697C123.869 200.697 120.41 199.247 118.201 197.358C117.123 196.435 116.425 195.477 115.984 194.692C115.765 194.301 115.61 193.954 115.503 193.677C115.449 193.538 115.406 193.416 115.374 193.314C115.358 193.263 115.344 193.217 115.333 193.176C115.327 193.156 115.321 193.136 115.316 193.118C115.314 193.109 115.311 193.1 115.309 193.092C115.308 193.088 115.307 193.084 115.306 193.08C115.306 193.078 115.305 193.075 115.304 193.074C115.304 193.072 115.326 193.063 118.693 192.197L115.303 193.069C114.822 191.196 115.95 189.289 117.822 188.808ZM122.081 191.321C122.08 191.321 122.08 191.316 122.08 191.315C122.079 191.311 122.078 191.307 122.077 191.304C122.075 191.297 122.074 191.291 122.072 191.284C122.068 191.271 122.064 191.259 122.061 191.248L122.081 191.321ZM136.159 191.194C136.154 191.208 136.149 191.226 136.142 191.248C136.139 191.259 136.136 191.271 136.132 191.284C136.131 191.291 136.128 191.297 136.127 191.304C136.126 191.307 136.125 191.311 136.124 191.315C136.123 191.316 136.123 191.318 136.123 191.32C136.137 191.263 136.155 191.208 136.173 191.153C136.17 191.159 136.166 191.172 136.159 191.194Z" fill="black"/>
</svg>
