<svg width="400" height="400" viewBox="0 0 400 400" fill="none" xmlns="http://www.w3.org/2000/svg">
<path d="M182.259 68.4228C161.042 73.061 154.559 96.8317 163.399 113.645L245.911 115.964C258.877 102.629 246.5 88.1351 233.534 92.7733C233.534 82.3373 217.621 73.6408 208.191 84.0767C208.584 77.6992 195.225 65.5883 182.259 68.4228Z" fill="#F76363"/>
<path d="M200.586 105.761C296.537 105.975 312.369 180.943 312.632 233.893C312.686 244.804 322.31 260.215 317.329 280.577C308.479 316.759 234.264 332.329 200.38 331.24C166.496 332.329 92.281 316.759 83.4303 280.577C78.4493 260.215 88.073 244.804 88.127 233.893C88.3892 180.943 104.222 105.975 200.174 105.761V105.759C200.242 105.759 200.311 105.76 200.379 105.76C200.448 105.76 200.517 105.759 200.586 105.759V105.761Z" fill="#FFD8D4"/>
<ellipse cx="147.314" cy="243.529" rx="10.2051" ry="11.2257" fill="#474847"/>
<ellipse cx="254.468" cy="243.529" rx="10.2051" ry="11.2257" fill="#474847"/>
<path d="M163.379 115.686C154.585 98.8727 161.034 75.102 182.139 70.4638C195.036 67.6293 208.325 79.7402 207.934 86.1177C217.314 75.6818 233.143 84.3784 233.143 94.8143C246.04 90.1761 258.351 104.67 245.454 118.005" stroke="#474847" stroke-width="7" stroke-linecap="round" stroke-linejoin="round"/>
<path d="M200.793 105.821C296.744 106.035 312.577 181.003 312.839 233.953C312.893 244.864 322.517 260.275 317.536 280.637C308.686 316.819 234.471 332.388 200.587 331.299C166.703 332.388 92.488 316.819 83.6373 280.637C78.6564 260.275 88.28 244.864 88.3341 233.953C88.5962 181.003 104.429 106.034 200.381 105.821V105.819C200.449 105.819 200.518 105.82 200.586 105.82C200.655 105.82 200.724 105.819 200.793 105.819V105.821Z" fill="#FFD8D4"/>
<path d="M153.436 327.211C153.845 265.164 109.724 243.529 87.6132 240.467C82.5107 248.291 80.0697 274.655 84.0414 282.819C93.2261 301.698 104.452 311.903 153.436 327.211Z" fill="#FFA6A8"/>
<path d="M247.393 327.211C246.984 265.164 291.105 243.529 313.216 240.467C318.318 248.291 320.759 274.655 316.788 282.819C307.603 301.698 296.377 311.903 247.393 327.211Z" fill="#FFA6A8"/>
<path d="M200.793 105.821C296.744 106.035 312.577 181.003 312.839 233.953C312.893 244.864 322.517 260.275 317.536 280.637C308.686 316.819 234.471 332.388 200.587 331.299C166.703 332.388 92.488 316.819 83.6373 280.637C78.6564 260.275 88.28 244.864 88.3341 233.953C88.5962 181.003 104.429 106.034 200.381 105.821V105.819C200.449 105.819 200.518 105.82 200.586 105.82C200.655 105.82 200.724 105.819 200.793 105.819V105.821Z" stroke="#474847" stroke-width="7" stroke-linecap="round" stroke-linejoin="round"/>
<ellipse cx="154.743" cy="244.549" rx="10.4913" ry="11.2257" fill="#474847"/>
<ellipse cx="246.018" cy="244.549" rx="10.4913" ry="11.2257" fill="#474847"/>
<path d="M173.296 263.429C172.67 264.51 172.722 264.793 172.826 265.98C173.039 267.081 173.508 267.459 174.357 267.941C183.92 273.37 193.281 275.258 201.636 275.161C212.714 275.033 222.024 271.416 227.692 267.941C228.536 267.423 229.464 266.736 229.464 265.98C229.464 265.224 229.253 264.51 228.709 263.429C225.212 256.483 216.607 246.59 201.636 246.59C186.665 246.59 177.315 256.483 173.296 263.429Z" fill="#FECD86" stroke="#474847" stroke-width="7" stroke-linecap="round" stroke-linejoin="round"/>
</svg>
