<svg width="420" height="420" viewBox="0 0 420 420" fill="none" xmlns="http://www.w3.org/2000/svg">
<path d="M148.528 85.4602C196.928 57.4602 253.361 73.7936 275.528 85.4602C287.861 77.627 330.528 76.3311 341.028 88.4604C364.228 115.26 349.362 151.627 338.028 167.46C341.195 166.294 345.228 181.36 346.028 232.96C380.528 328.46 272.028 348.46 208.528 348.96C145.028 349.46 81.5278 322.46 70.0278 283.96C60.8278 253.16 69.3616 232.294 76.0284 224.46C75.0284 221.96 71.7281 205.46 78.5281 169.46C56.1281 129.06 71.0281 96.627 78.5281 85.4602C85.6947 80.1269 109.728 72.6602 148.528 85.4602Z" fill="white" stroke="#A5A5A5" stroke-width="4" stroke-linecap="round" stroke-linejoin="round" stroke-dasharray="8 8"/>
<path d="M105.49 162.045C86.659 149.489 83.6857 115.759 93.5596 104.68C96.818 101.024 101.372 104.023 107.752 104.427C112.048 104.699 117.738 101.555 122.275 102.868C131.766 105.614 140.752 109.932 144.912 112.875C156.842 131.826 117.939 170.345 105.49 162.045Z" fill="#FFD8D4"/>
<path d="M324.212 104.68C314.17 93.4118 281.961 106.436 272.86 112.875C260.929 131.826 299.832 170.345 312.281 162.045C331.112 149.489 334.086 115.759 324.212 104.68Z" fill="#FFD8D4"/>
<path d="M209.319 95.4624C307.029 95.683 323.152 172.997 323.419 227.604C323.474 238.857 333.275 254.75 328.203 275.75C319.19 313.064 243.615 329.121 209.109 327.998C174.604 329.121 99.029 313.064 90.0161 275.75C84.9438 254.75 94.7439 238.857 94.7989 227.604C95.0659 172.997 111.189 95.6828 208.9 95.4624V95.4604C208.969 95.4604 209.039 95.4614 209.108 95.4614C209.178 95.4614 209.249 95.4604 209.319 95.4604V95.4624Z" fill="#FFD8D4"/>
<path d="M120.451 98.745C115.044 97.3721 109.406 96.5152 104.339 96.8066C99.3142 97.0955 94.3324 98.5526 90.9468 102.351C88.2349 105.394 86.4897 109.566 85.5171 114.09C84.536 118.652 84.2886 123.81 84.7612 129.066C85.2832 134.873 86.6918 140.902 89.0522 146.502C92.1206 153.782 96.8722 160.505 103.549 164.957C106.022 166.605 108.924 166.931 111.707 166.562C114.48 166.195 117.378 165.115 120.208 163.627C125.875 160.648 131.852 155.723 136.954 150.011C142.055 144.3 146.479 137.58 148.837 130.882C151.181 124.224 151.658 117.019 147.874 111.01L147.779 110.866C147.548 110.537 147.263 110.25 146.934 110.017C141.961 106.499 131.217 101.479 120.451 98.745ZM104.742 103.795C108.822 103.56 113.689 104.25 118.727 105.529C128.389 107.983 137.858 112.387 142.29 115.322C144.135 118.727 144.11 123.232 142.235 128.558C140.265 134.152 136.423 140.097 131.733 145.348C127.044 150.597 121.707 154.93 116.951 157.431C114.57 158.683 112.479 159.399 110.788 159.623C109.108 159.846 108.071 159.559 107.432 159.133C102.185 155.634 98.1919 150.162 95.5034 143.783C93.4451 138.9 92.1953 133.583 91.7329 128.439C91.3135 123.774 91.5485 119.334 92.3598 115.56C93.1796 111.748 94.5371 108.845 96.1733 107.009C97.8088 105.174 100.619 104.032 104.742 103.795Z" fill="black"/>
<path d="M297.322 98.745C302.728 97.3721 308.366 96.5152 313.433 96.8066C318.458 97.0955 323.44 98.5526 326.826 102.351C329.896 105.797 331.739 110.7 332.615 115.978C333.5 121.315 333.451 127.349 332.465 133.373C330.512 145.312 324.735 157.948 314.223 164.957C311.751 166.605 308.848 166.931 306.065 166.562C303.293 166.195 300.394 165.115 297.564 163.627C291.897 160.648 285.921 155.723 280.819 150.011C275.718 144.3 271.293 137.58 268.935 130.882C266.591 124.224 266.115 117.019 269.898 111.01L269.994 110.866C270.224 110.537 270.51 110.25 270.838 110.017C275.812 106.499 286.556 101.479 297.322 98.745ZM313.031 103.795C308.95 103.56 304.084 104.25 299.045 105.529C289.383 107.983 279.914 112.387 275.482 115.322C273.637 118.727 273.663 123.232 275.538 128.558C277.507 134.152 281.35 140.097 286.04 145.348C290.728 150.597 296.066 154.93 300.822 157.431C303.203 158.683 305.294 159.399 306.985 159.623C308.665 159.846 309.701 159.559 310.34 159.133C318.66 153.586 323.784 143.078 325.557 132.243C326.434 126.881 326.455 121.62 325.709 117.124C324.954 112.57 323.465 109.103 321.599 107.009C319.964 105.174 317.153 104.032 313.031 103.795Z" fill="black"/>
<path d="M165.328 239.897C165.328 246.12 160.684 251.165 154.954 251.165C149.225 251.165 144.58 246.12 144.58 239.897C144.58 233.674 149.225 228.629 154.954 228.629C160.684 228.629 165.328 233.674 165.328 239.897Z" fill="black"/>
<path d="M274.257 239.897C274.257 246.12 269.612 251.165 263.883 251.165C258.153 251.165 253.509 246.12 253.509 239.897C253.509 233.674 258.153 228.629 263.883 228.629C269.612 228.629 274.257 233.674 274.257 239.897Z" fill="black"/>
<path d="M209.32 95.4624C307.029 95.6829 323.153 172.997 323.42 227.604C323.475 238.856 333.275 254.75 328.203 275.75C319.191 313.063 243.615 329.121 209.11 327.998C174.604 329.12 99.0286 313.063 90.0158 275.75C84.9438 254.75 94.745 238.856 94.8 227.604C95.067 172.997 111.19 95.6826 208.901 95.4624V95.4604C208.97 95.4604 209.04 95.4613 209.11 95.4614C209.179 95.4613 209.25 95.4604 209.32 95.4604V95.4624Z" fill="#FFD8D4"/>
<path d="M161.179 322.871C161.594 260.589 116.743 238.872 94.2656 235.799C89.0785 243.653 86.5971 270.116 90.6346 278.311C99.9714 297.262 111.383 307.505 161.179 322.871Z" fill="#FFA6A8"/>
<path d="M256.691 322.871C256.276 260.589 301.127 238.872 323.604 235.799C328.792 243.653 331.273 270.116 327.235 278.311C317.899 297.262 306.487 307.505 256.691 322.871Z" fill="#FFA6A8"/>
<path d="M305.04 144.607C306.75 143.706 308.867 144.362 309.768 146.072C323.316 171.785 326.797 202.298 326.921 227.587C326.932 229.954 327.463 232.711 328.3 236.075C329.095 239.264 330.235 243.238 331.147 247.245C333.03 255.511 334.319 265.335 331.605 276.572C328.009 291.46 315.061 302.758 299.344 311.018C283.526 319.332 264.162 324.968 246.327 328.198C228.254 332.373 199.256 333.146 171.967 328.212C154.112 324.984 134.716 319.343 118.876 311.018C103.16 302.758 90.2113 291.46 86.6149 276.572C83.9007 265.335 85.1905 255.511 87.0729 247.245C87.9854 243.238 89.1249 239.264 89.9196 236.075C90.7576 232.711 91.2879 229.954 91.2995 227.587C91.4231 202.298 94.9043 171.785 108.452 146.072C109.353 144.362 111.47 143.706 113.18 144.607C114.89 145.508 115.546 147.624 114.645 149.334C101.867 173.587 98.421 202.778 98.2995 227.622C98.2836 230.881 97.5681 234.33 96.7116 237.767C95.8119 241.378 94.8086 244.801 93.8981 248.799C92.1348 256.543 91.0607 265.166 93.4186 274.928C96.2971 286.845 106.999 296.868 122.133 304.822C137.142 312.71 155.796 318.175 173.214 321.324C199.774 326.125 227.849 325.303 244.838 321.359L245.007 321.324C262.424 318.175 281.078 312.71 296.088 304.822C311.221 296.868 321.923 286.845 324.801 274.928C327.159 265.166 326.085 256.543 324.322 248.799C323.412 244.801 322.408 241.378 321.508 237.767C320.652 234.33 319.937 230.881 319.921 227.622C319.799 202.778 316.353 173.587 303.575 149.334C302.674 147.624 303.33 145.508 305.04 144.607ZM209.411 91.9634C241.992 92.0513 266.008 100.563 283.519 114.211C285.044 115.4 285.316 117.599 284.128 119.124C282.939 120.648 280.74 120.921 279.216 119.733C263.128 107.194 240.676 99.0332 209.312 98.9624C209.292 98.9624 209.272 98.9608 209.252 98.9604C209.19 98.9606 209.329 98.9612 209.113 98.9614H209.105C208.882 98.9612 209.034 98.9606 208.967 98.9604C208.948 98.9608 208.928 98.9624 208.908 98.9624C177.544 99.0332 155.092 107.194 139.005 119.733C137.48 120.921 135.281 120.648 134.092 119.124C132.904 117.599 133.176 115.4 134.701 114.211C152.212 100.563 176.227 92.0514 208.808 91.9634C208.839 91.9626 208.869 91.9605 208.9 91.9604C208.949 91.9604 208.995 91.9612 209.029 91.9614H209.19C209.224 91.9612 209.271 91.9604 209.32 91.9604C209.35 91.9605 209.381 91.9626 209.411 91.9634Z" fill="black"/>
<path d="M174.21 248.092C174.21 254.315 169.435 259.36 163.545 259.36C157.655 259.36 152.88 254.315 152.88 248.092C152.88 241.869 157.655 236.824 163.545 236.824C169.435 236.824 174.21 241.869 174.21 248.092Z" fill="black"/>
<path d="M266.54 248.092C266.54 254.315 261.765 259.36 255.875 259.36C249.985 259.36 245.21 254.315 245.21 248.092C245.21 241.869 249.985 236.824 255.875 236.824C261.765 236.824 266.54 241.869 266.54 248.092Z" fill="black"/>
<path d="M179.868 262.945C179.453 254.75 187.303 250.994 191.28 250.141C208.294 246.453 223.613 248.604 229.146 250.141C233.987 251.336 239.001 255.57 239.001 262.945C239.001 272.165 230.183 279.847 210.472 279.847C190.761 279.847 180.387 273.189 179.868 262.945Z" fill="#F6AFA7"/>
<path d="M235.501 262.945C235.501 257.484 231.901 254.426 228.307 253.539C228.274 253.531 228.241 253.521 228.209 253.512C223.168 252.112 208.426 250.006 192.021 253.561L192.015 253.562C190.475 253.893 188.087 254.83 186.209 256.444C184.422 257.981 183.224 259.99 183.364 262.768C183.556 266.545 185.483 269.768 189.718 272.203C194.103 274.724 200.937 276.347 210.472 276.347C219.938 276.347 226.311 274.493 230.204 271.93C233.971 269.451 235.501 266.283 235.501 262.945ZM242.501 262.945C242.501 268.827 239.623 274.11 234.053 277.777C228.609 281.361 220.717 283.347 210.472 283.347C200.296 283.347 192.087 281.641 186.228 278.272C180.219 274.817 176.7 269.589 176.373 263.122C176.099 257.705 178.618 253.739 181.645 251.136C184.58 248.612 188.101 247.245 190.538 246.72C208.16 242.901 224.057 245.095 230.082 246.768L230.081 246.769C236.14 248.306 242.501 253.705 242.501 262.945Z" fill="black"/>
<path d="M201.639 264.994C201.639 267.54 200.245 269.604 198.526 269.604C196.807 269.604 195.414 267.54 195.414 264.994C195.414 262.448 196.807 260.384 198.526 260.384C200.245 260.384 201.639 262.448 201.639 264.994Z" fill="black"/>
<path d="M224.462 264.994C224.462 267.54 223.068 269.604 221.35 269.604C219.631 269.604 218.237 267.54 218.237 264.994C218.237 262.448 219.631 260.384 221.35 260.384C223.068 260.384 224.462 262.448 224.462 264.994Z" fill="black"/>
</svg>
