<svg width="292" height="283" viewBox="0 0 292 283" fill="none" xmlns="http://www.w3.org/2000/svg">
<path d="M84.5241 17.4602C132.924 -10.5398 189.357 5.79358 211.524 17.4602C223.857 9.62698 266.524 8.33114 277.024 20.4604C300.224 47.2604 285.358 83.6271 274.024 99.4604C277.191 98.2938 281.224 113.36 282.024 164.96C316.524 260.46 208.024 280.46 144.524 280.96C81.0242 281.46 17.5239 254.46 6.02386 215.96C-3.17614 185.16 5.35772 164.294 12.0245 156.46C11.0245 153.96 7.72415 137.46 14.5242 101.46C-7.87585 61.0604 7.02415 28.627 14.5242 17.4602C21.6908 12.1269 45.7241 4.66025 84.5241 17.4602Z" fill="white" stroke="#A5A5A5" stroke-width="4" stroke-linecap="round" stroke-linejoin="round" stroke-dasharray="8 8"/>
<path d="M41.4861 94.0447C22.6551 81.4887 19.6818 47.759 29.5557 36.6799C32.8141 33.0238 37.3686 36.0226 43.7477 36.4266C48.0436 36.6986 53.7339 33.5547 58.2715 34.8677C67.7622 37.6138 76.7483 41.932 80.908 44.8749C92.8382 63.8257 53.9352 102.345 41.4861 94.0447Z" fill="#FFD8D4"/>
<path d="M260.208 36.6798C250.166 25.4118 217.957 38.4358 208.856 44.8748C196.925 63.8257 235.829 102.345 248.278 94.0447C267.109 81.4886 270.082 47.7589 260.208 36.6798Z" fill="#FFD8D4"/>
<path d="M145.315 27.4624C243.025 27.683 259.148 104.997 259.415 159.604C259.47 170.857 269.271 186.75 264.199 207.75C255.186 245.064 179.611 261.121 145.106 259.998C110.601 261.121 35.0251 245.064 26.0122 207.75C20.9399 186.75 30.74 170.857 30.795 159.604C31.062 104.997 47.1854 27.6828 144.896 27.4624V27.4604C144.965 27.4604 145.035 27.4614 145.104 27.4614C145.175 27.4614 145.245 27.4604 145.315 27.4604V27.4624Z" fill="#FFD8D4"/>
<path d="M56.4467 30.745C51.0401 29.3721 45.4025 28.5152 40.3354 28.8066C35.3103 29.0955 30.3285 30.5526 26.9428 34.3515C24.231 37.3945 22.4858 41.5662 21.5132 46.0898C20.5321 50.6525 20.2847 55.8097 20.7573 61.0663C21.2793 66.8727 22.6879 72.9016 25.0483 78.5019C28.1167 85.7817 32.8683 92.5048 39.5454 96.9569C42.018 98.6054 44.9202 98.9313 47.7036 98.5624C50.4759 98.1949 53.3745 97.1148 56.2046 95.6269C61.8711 92.6475 67.8476 87.7227 72.9497 82.0107C78.0506 76.2999 82.4752 69.5802 84.8335 62.8817C87.1774 56.2242 87.6538 49.0192 83.8706 43.0097L83.7749 42.8661C83.5444 42.5372 83.2587 42.25 82.9301 42.0175C77.9567 38.499 67.2128 33.479 56.4467 30.745ZM40.7378 35.7948C44.8184 35.5603 49.685 36.2499 54.7231 37.5292C64.3856 39.9828 73.8544 44.3868 78.2866 47.3222C80.1311 50.7266 80.106 55.2318 78.2309 60.5575C76.2613 66.152 72.4186 72.0972 67.729 77.3476C63.0405 82.5965 57.7029 86.9299 52.9468 89.4306C50.5656 90.6825 48.475 91.3987 46.7837 91.623C45.1039 91.8456 44.0675 91.559 43.4282 91.1327C38.1815 87.6344 34.188 82.1617 31.4995 75.7831C29.4412 70.8998 28.1914 65.5828 27.729 60.4394C27.3096 55.7743 27.5446 51.3338 28.3559 47.5605C29.1757 43.7482 30.5332 40.8447 32.1694 39.0087C33.8048 37.1736 36.6151 36.0318 40.7378 35.7948Z" fill="black"/>
<path d="M233.318 30.745C238.725 29.3721 244.362 28.5152 249.429 28.8066C254.454 29.0955 259.436 30.5526 262.822 34.3515C265.892 37.7969 267.735 42.7001 268.611 47.9784C269.496 53.3146 269.447 59.3487 268.461 65.373C266.508 77.3117 260.731 89.948 250.219 96.9569C247.747 98.6054 244.844 98.9313 242.061 98.5624C239.289 98.1949 236.39 97.1148 233.56 95.6269C227.894 92.6475 221.917 87.7227 216.815 82.0107C211.714 76.2999 207.289 69.5802 204.931 62.8817C202.587 56.2242 202.111 49.0192 205.894 43.0097L205.99 42.8661C206.22 42.5372 206.506 42.25 206.835 42.0175C211.808 38.499 222.552 33.479 233.318 30.745ZM249.027 35.7948C244.946 35.5603 240.08 36.2499 235.042 37.5292C225.379 39.9828 215.91 44.3868 211.478 47.3222C209.634 50.7266 209.659 55.2318 211.534 60.5575C213.503 66.152 217.346 72.0972 222.036 77.3476C226.724 82.5965 232.062 86.9299 236.818 89.4306C239.199 90.6825 241.29 91.3987 242.981 91.623C244.661 91.8456 245.697 91.559 246.336 91.1327C254.656 85.5857 259.781 75.0779 261.553 64.2431C262.431 58.8807 262.451 53.6203 261.706 49.1239C260.95 44.5699 259.462 41.1028 257.595 39.0087C255.96 37.1736 253.15 36.0318 249.027 35.7948Z" fill="black"/>
<path d="M101.325 171.897C101.325 178.12 96.6799 183.165 90.9504 183.165C85.2208 183.165 80.5762 178.12 80.5762 171.897C80.5762 165.674 85.2208 160.629 90.9504 160.629C96.6799 160.629 101.325 165.674 101.325 171.897Z" fill="black"/>
<path d="M210.253 171.897C210.253 178.12 205.609 183.165 199.879 183.165C194.15 183.165 189.505 178.12 189.505 171.897C189.505 165.674 194.15 160.629 199.879 160.629C205.609 160.629 210.253 165.674 210.253 171.897Z" fill="black"/>
<path d="M145.316 27.4624C243.026 27.6829 259.149 104.997 259.416 159.604C259.471 170.856 269.272 186.75 264.199 207.75C255.187 245.063 179.611 261.121 145.106 259.998C110.6 261.12 35.0247 245.063 26.0119 207.75C20.9399 186.75 30.7411 170.856 30.7961 159.604C31.0631 104.997 47.1863 27.6826 144.897 27.4624V27.4604C144.966 27.4604 145.036 27.4613 145.106 27.4614C145.176 27.4613 145.246 27.4604 145.316 27.4604V27.4624Z" fill="#FFD8D4"/>
<path d="M97.1752 254.871C97.5902 192.589 52.7391 170.872 30.2617 167.799C25.0746 175.653 22.5932 202.116 26.6307 210.311C35.9675 229.262 47.3791 239.505 97.1752 254.871Z" fill="#FFA6A8"/>
<path d="M192.687 254.871C192.272 192.589 237.123 170.872 259.601 167.799C264.788 175.653 267.269 202.116 263.232 210.311C253.895 229.262 242.483 239.505 192.687 254.871Z" fill="#FFA6A8"/>
<path d="M241.036 76.6069C242.746 75.7059 244.863 76.3616 245.764 78.0718C259.312 103.785 262.793 134.298 262.917 159.587C262.928 161.954 263.459 164.711 264.297 168.075C265.091 171.264 266.231 175.238 267.143 179.245C269.026 187.511 270.315 197.335 267.601 208.572C264.005 223.46 251.057 234.758 235.341 243.018C219.522 251.332 200.158 256.968 182.323 260.198C164.25 264.373 135.252 265.146 107.964 260.212C90.1082 256.984 70.7124 251.343 54.8718 243.018C39.1556 234.758 26.2074 223.46 22.611 208.572C19.8968 197.335 21.1866 187.511 23.069 179.245C23.9815 175.238 25.121 171.264 25.9157 168.075C26.7537 164.711 27.284 161.954 27.2956 159.587C27.4192 134.298 30.9004 103.785 44.4479 78.0718C45.349 76.3616 47.4663 75.7059 49.1765 76.6069C50.8863 77.508 51.542 79.6245 50.6413 81.3345C37.8633 105.587 34.417 134.778 34.2956 159.622C34.2796 162.881 33.5642 166.33 32.7077 169.767C31.808 173.378 30.8046 176.801 29.8942 180.799C28.1309 188.543 27.0568 197.166 29.4147 206.928C32.2932 218.845 42.995 228.868 58.1286 236.822C73.1378 244.71 91.7919 250.175 109.21 253.324C135.77 258.125 163.845 257.303 180.834 253.359L181.003 253.324C198.42 250.175 217.074 244.71 232.084 236.822C247.217 228.868 257.919 218.845 260.798 206.928C263.156 197.166 262.081 188.543 260.318 180.799C259.408 176.801 258.404 173.378 257.505 169.767C256.648 166.33 255.933 162.881 255.917 159.622C255.795 134.778 252.349 105.587 239.571 81.3345C238.67 79.6244 239.326 77.508 241.036 76.6069ZM145.407 23.9634C177.988 24.0513 202.004 32.5625 219.515 46.2114C221.04 47.3997 221.312 49.599 220.124 51.1235C218.935 52.6481 216.736 52.9212 215.212 51.7329C199.124 39.1939 176.672 31.0332 145.308 30.9624C145.288 30.9624 145.268 30.9608 145.248 30.9604C145.186 30.9606 145.325 30.9612 145.109 30.9614H145.101C144.879 30.9612 145.03 30.9606 144.964 30.9604C144.944 30.9608 144.924 30.9624 144.904 30.9624C113.54 31.0332 91.088 39.1939 75.0007 51.7329C73.4761 52.9212 71.2769 52.6481 70.0886 51.1235C68.9003 49.5989 69.1724 47.3997 70.697 46.2114C88.2082 32.5626 112.223 24.0514 144.804 23.9634C144.835 23.9626 144.865 23.9605 144.896 23.9604C144.945 23.9604 144.991 23.9612 145.025 23.9614H145.186C145.22 23.9612 145.267 23.9604 145.316 23.9604C145.346 23.9605 145.377 23.9626 145.407 23.9634Z" fill="black"/>
<path d="M110.206 180.092C110.206 186.315 105.431 191.36 99.541 191.36C93.6509 191.36 88.876 186.315 88.876 180.092C88.876 173.869 93.6509 168.824 99.541 168.824C105.431 168.824 110.206 173.869 110.206 180.092Z" fill="black"/>
<path d="M202.536 180.092C202.536 186.315 197.761 191.36 191.871 191.36C185.981 191.36 181.206 186.315 181.206 180.092C181.206 173.869 185.981 168.824 191.871 168.824C197.761 168.824 202.536 173.869 202.536 180.092Z" fill="black"/>
<path d="M115.864 194.945C115.449 186.75 123.299 182.994 127.276 182.141C144.29 178.453 159.609 180.604 165.142 182.141C169.983 183.336 174.997 187.57 174.997 194.945C174.997 204.165 166.179 211.847 146.468 211.847C126.757 211.847 116.383 205.189 115.864 194.945Z" fill="#F6AFA7"/>
<path d="M171.497 194.945C171.497 189.484 167.897 186.426 164.303 185.539C164.27 185.531 164.237 185.521 164.205 185.512C159.164 184.112 144.422 182.006 128.018 185.561L128.011 185.562C126.471 185.893 124.083 186.83 122.205 188.444C120.418 189.981 119.22 191.99 119.36 194.768C119.552 198.545 121.479 201.768 125.714 204.203C130.099 206.724 136.933 208.347 146.468 208.347C155.934 208.347 162.308 206.493 166.2 203.93C169.967 201.451 171.497 198.283 171.497 194.945ZM178.497 194.945C178.497 200.827 175.619 206.11 170.049 209.777C164.605 213.361 156.713 215.347 146.468 215.347C136.292 215.347 128.084 213.641 122.225 210.272C116.215 206.817 112.697 201.589 112.369 195.122C112.095 189.705 114.614 185.739 117.642 183.136C120.576 180.612 124.097 179.245 126.534 178.72C144.156 174.901 160.054 177.095 166.078 178.768L166.077 178.769C172.136 180.306 178.497 185.705 178.497 194.945Z" fill="black"/>
<path d="M137.635 196.994C137.635 199.54 136.241 201.604 134.522 201.604C132.804 201.604 131.41 199.54 131.41 196.994C131.41 194.448 132.804 192.384 134.522 192.384C136.241 192.384 137.635 194.448 137.635 196.994Z" fill="black"/>
<path d="M160.458 196.994C160.458 199.54 159.065 201.604 157.346 201.604C155.627 201.604 154.233 199.54 154.233 196.994C154.233 194.448 155.627 192.384 157.346 192.384C159.065 192.384 160.458 194.448 160.458 196.994Z" fill="black"/>
</svg>
